<svg id="Group_12046" data-name="Group 12046" xmlns="http://www.w3.org/2000/svg" width="102.611" height="24.726" viewBox="0 0 102.611 24.726">
  <g id="Group_11513" data-name="Group 11513" transform="translate(0 0)">
    <g id="Group_11512" data-name="Group 11512" transform="translate(31.044)">
      <path id="roco_sgv-01" d="M136.6,83.544h0A12.355,12.355,0,0,0,124.251,71.18h0A12.355,12.355,0,0,0,111.9,83.544h0a12.355,12.355,0,0,0,12.344,12.362h0a12.355,12.355,0,0,0,12.344-12.359Zm46.875,0h0A12.353,12.353,0,0,0,171.124,71.18h0a12.353,12.353,0,0,0-12.344,12.364h0a12.353,12.353,0,0,0,12.344,12.362h0A12.353,12.353,0,0,0,183.47,83.544ZM153.859,71.18h0a12.355,12.355,0,0,0-12.354,12.364h0a12.355,12.355,0,0,0,12.341,12.362h0Z" transform="translate(-111.905 -71.18)" fill="#fc3f5c"/>
    </g>
    <g id="Group_11518" data-name="Group 11518">
      <rect id="Rectangle_17428" data-name="Rectangle 17428" width="5.151" height="4.358" transform="translate(0 6.222)" fill="#fc3f5c"/>
      <rect id="Rectangle_17429" data-name="Rectangle 17429" width="5.151" height="5.151" transform="translate(0 12.561)" fill="#fc3f5c"/>
      <g id="r-seeklogo.com" transform="translate(3.655)">
        <path id="Path_31501" data-name="Path 31501" d="M105.946,51.829V76.555h7.472V66.94c1.868,0,2.981-.408,4.2,1.831,1.868,3.205,4.2,7.784,4.2,7.784H130.7s-5.6-9.158-6.071-9.616c-.861-.916-1.868-.916-3.269-1.374,2.8-.458,5.414-1.62,6.323-4.112a7.38,7.38,0,0,0-1-7.155c-1.474-1.545-2.986-2.471-6.722-2.471Zm7.472,5.15h4.9a2.3,2.3,0,0,1,0,4.579h-4.9V56.979Z" transform="translate(-105.946 -51.829)" fill="#fc3f5c"/>
      </g>
    </g>
  </g>
</svg>
