<?xml version="1.0" encoding="UTF-8"?>
<!DOCTYPE svg PUBLIC "-//W3C//DTD SVG 1.1//EN" "http://www.w3.org/Graphics/SVG/1.1/DTD/svg11.dtd">
<svg xmlns="http://www.w3.org/2000/svg" version="1.1" width="353px" height="364px" style="shape-rendering:geometricPrecision; text-rendering:geometricPrecision; image-rendering:optimizeQuality; fill-rule:evenodd; clip-rule:evenodd;" xmlns:xlink="http://www.w3.org/1999/xlink">
<g><path style="opacity:0" fill="#ffffff" d="M -0.5,-0.5 C 117.167,-0.5 234.833,-0.5 352.5,-0.5C 352.5,120.833 352.5,242.167 352.5,363.5C 234.833,363.5 117.167,363.5 -0.5,363.5C -0.5,242.167 -0.5,120.833 -0.5,-0.5 Z M 2.5,2.5 C 118.167,2.5 233.833,2.5 349.5,2.5C 349.5,121.833 349.5,241.167 349.5,360.5C 233.833,360.5 118.167,360.5 2.5,360.5C 2.5,241.167 2.5,121.833 2.5,2.5 Z M 107.5,118.5 C 134.257,117.127 150.757,129.46 157,155.5C 159.257,181.503 148.09,198.669 123.5,207C 97.8549,208.752 81.3549,197.252 74,172.5C 70.7628,145.293 81.9295,127.293 107.5,118.5 Z M 147.5,256.5 C 150.99,256.151 153.323,257.651 154.5,261C 151.167,267 147.833,267 144.5,261C 145.386,259.385 146.386,257.885 147.5,256.5 Z M 205.5,256.5 C 209.123,257.411 209.29,258.745 206,260.5C 205.51,259.207 205.343,257.873 205.5,256.5 Z M 254.5,256.5 C 257.99,256.151 260.323,257.651 261.5,261C 258.167,267 254.833,267 251.5,261C 252.386,259.385 253.386,257.885 254.5,256.5 Z M 270.5,256.5 C 274.123,257.411 274.29,258.745 271,260.5C 270.51,259.207 270.343,257.873 270.5,256.5 Z M 85.5,259.5 C 86.2674,260.172 86.9341,261.005 87.5,262C 85.9387,262.188 85.272,261.355 85.5,259.5 Z"/></g>
<g><path style="opacity:1" fill="#000000" d="M 102.5,95.5 C 142.332,91.8819 168.498,108.882 181,146.5C 186.831,177.696 176.997,202.53 151.5,221C 131.251,231.705 110.251,233.371 88.5,226C 58.4443,210.4 45.2777,185.566 49,151.5C 54.8221,121.181 72.6555,102.515 102.5,95.5 Z M 107.5,118.5 C 81.9295,127.293 70.7628,145.293 74,172.5C 81.3549,197.252 97.8549,208.752 123.5,207C 148.09,198.669 159.257,181.503 157,155.5C 150.757,129.46 134.257,117.127 107.5,118.5 Z"/></g>
<g><path style="opacity:1" fill="#000000" d="M 176.5,97.5 C 186.506,97.3335 196.506,97.5002 206.5,98C 217.724,112.297 229.057,126.464 240.5,140.5C 251.358,126.809 262.025,112.976 272.5,99C 277.893,97.8802 283.393,97.3802 289,97.5C 293.833,97.6667 298.667,97.8333 303.5,98C 303.957,98.414 304.291,98.914 304.5,99.5C 288.5,120.5 272.5,141.5 256.5,162.5C 271.667,182.167 286.833,201.833 302,221.5C 303.289,223.055 303.956,224.721 304,226.5C 299.247,227.154 294.413,227.487 289.5,227.5C 284.059,227.618 278.726,227.118 273.5,226C 262.213,211.924 251.046,197.758 240,183.5C 229.167,197.667 218.333,211.833 207.5,226C 197.271,227.451 186.938,227.951 176.5,227.5C 176.264,224.774 177.097,222.441 179,220.5C 194.203,201.252 209.036,181.752 223.5,162C 208.368,141.58 192.868,121.414 177,101.5C 176.51,100.207 176.343,98.8734 176.5,97.5 Z"/></g>
<g><path style="opacity:1" fill="#000000" d="M 60.5,253.5 C 61.5,253.5 62.5,253.5 63.5,253.5C 63.5,257.5 63.5,261.5 63.5,265.5C 65.1667,265.5 66.8333,265.5 68.5,265.5C 68.5,266.5 68.5,267.5 68.5,268.5C 65.8333,268.5 63.1667,268.5 60.5,268.5C 60.5,263.5 60.5,258.5 60.5,253.5 Z"/></g>
<g><path style="opacity:1" fill="#000000" d="M 69.5,253.5 C 72.1667,253.5 74.8333,253.5 77.5,253.5C 77.5,254.5 77.5,255.5 77.5,256.5C 75.8333,256.5 74.1667,256.5 72.5,256.5C 72.5,257.5 72.5,258.5 72.5,259.5C 74.1667,259.5 75.8333,259.5 77.5,259.5C 77.5,260.5 77.5,261.5 77.5,262.5C 75.8333,262.5 74.1667,262.5 72.5,262.5C 72.5,263.5 72.5,264.5 72.5,265.5C 74.1667,265.5 75.8333,265.5 77.5,265.5C 77.5,266.5 77.5,267.5 77.5,268.5C 74.8333,268.5 72.1667,268.5 69.5,268.5C 69.5,263.5 69.5,258.5 69.5,253.5 Z"/></g>
<g><path style="opacity:1" fill="#000000" d="M 84.5,253.5 C 85.8221,253.33 86.9887,253.663 88,254.5C 89.8333,258.833 91.6667,263.167 93.5,267.5C 92.8333,267.833 92.1667,268.167 91.5,268.5C 88.593,264.943 85.593,264.777 82.5,268C 81.0563,268.781 79.723,268.614 78.5,267.5C 80.5149,262.807 82.5149,258.141 84.5,253.5 Z M 85.5,259.5 C 85.272,261.355 85.9387,262.188 87.5,262C 86.9341,261.005 86.2674,260.172 85.5,259.5 Z"/></g>
<g><path style="opacity:1" fill="#000000" d="M 97.5,253.5 C 101.911,252.66 105.577,253.827 108.5,257C 107.5,257.5 106.5,258 105.5,258.5C 101.214,255.325 98.2143,256.325 96.5,261.5C 98.2827,265.443 100.949,266.276 104.5,264C 103.552,263.517 102.552,263.351 101.5,263.5C 101.5,262.5 101.5,261.5 101.5,260.5C 103.833,260.5 106.167,260.5 108.5,260.5C 108.054,268.121 104.054,270.621 96.5,268C 92.2845,262.72 92.6179,257.886 97.5,253.5 Z"/></g>
<g><path style="opacity:1" fill="#000000" d="M 111.5,253.5 C 112.5,253.5 113.5,253.5 114.5,253.5C 114.335,257.182 114.501,260.848 115,264.5C 117.022,265.991 118.688,265.658 120,263.5C 120.498,260.183 120.665,256.85 120.5,253.5C 121.5,253.5 122.5,253.5 123.5,253.5C 123.666,257.846 123.499,262.179 123,266.5C 119.333,269.167 115.667,269.167 112,266.5C 111.501,262.179 111.334,257.846 111.5,253.5 Z"/></g>
<g><path style="opacity:1" fill="#000000" d="M 126.5,253.5 C 129.167,253.5 131.833,253.5 134.5,253.5C 134.5,254.5 134.5,255.5 134.5,256.5C 132.833,256.5 131.167,256.5 129.5,256.5C 129.5,257.5 129.5,258.5 129.5,259.5C 131.167,259.5 132.833,259.5 134.5,259.5C 134.5,260.5 134.5,261.5 134.5,262.5C 132.833,262.5 131.167,262.5 129.5,262.5C 129.5,263.5 129.5,264.5 129.5,265.5C 131.167,265.5 132.833,265.5 134.5,265.5C 134.5,266.5 134.5,267.5 134.5,268.5C 131.833,268.5 129.167,268.5 126.5,268.5C 126.5,263.5 126.5,258.5 126.5,253.5 Z"/></g>
<g><path style="opacity:1" fill="#000000" d="M 145.5,253.5 C 156.528,252.401 159.861,256.901 155.5,267C 145.605,270.991 141.105,267.825 142,257.5C 142.69,255.65 143.856,254.316 145.5,253.5 Z M 147.5,256.5 C 146.386,257.885 145.386,259.385 144.5,261C 147.833,267 151.167,267 154.5,261C 153.323,257.651 150.99,256.151 147.5,256.5 Z"/></g>
<g><path style="opacity:1" fill="#000000" d="M 160.5,253.5 C 163.167,253.5 165.833,253.5 168.5,253.5C 168.5,254.5 168.5,255.5 168.5,256.5C 166.833,256.5 165.167,256.5 163.5,256.5C 163.5,257.5 163.5,258.5 163.5,259.5C 165.167,259.5 166.833,259.5 168.5,259.5C 168.5,260.5 168.5,261.5 168.5,262.5C 166.833,262.5 165.167,262.5 163.5,262.5C 163.5,264.5 163.5,266.5 163.5,268.5C 162.5,268.5 161.5,268.5 160.5,268.5C 160.5,263.5 160.5,258.5 160.5,253.5 Z"/></g>
<g><path style="opacity:1" fill="#000000" d="M 176.5,253.5 C 178.857,253.337 181.19,253.503 183.5,254C 184.821,255.545 184.488,256.711 182.5,257.5C 181.109,256.355 179.776,256.355 178.5,257.5C 180.179,258.782 182.013,259.782 184,260.5C 186.167,267.667 183.667,270.167 176.5,268C 173.936,266.519 173.936,265.019 176.5,263.5C 178.009,265.915 179.676,266.081 181.5,264C 179.751,262.708 177.918,261.542 176,260.5C 175.297,258.071 175.463,255.738 176.5,253.5 Z"/></g>
<g><path style="opacity:1" fill="#000000" d="M 187.5,253.5 C 188.5,253.5 189.5,253.5 190.5,253.5C 190.335,257.182 190.501,260.848 191,264.5C 193.022,265.991 194.688,265.658 196,263.5C 196.498,260.183 196.665,256.85 196.5,253.5C 197.5,253.5 198.5,253.5 199.5,253.5C 199.666,257.846 199.499,262.179 199,266.5C 195.333,269.167 191.667,269.167 188,266.5C 187.501,262.179 187.334,257.846 187.5,253.5 Z"/></g>
<g><path style="opacity:1" fill="#000000" d="M 202.5,253.5 C 211.515,251.928 213.848,255.095 209.5,263C 210.453,264.955 211.787,266.622 213.5,268C 209.834,269.271 207.334,268.104 206,264.5C 205.51,265.793 205.343,267.127 205.5,268.5C 204.5,268.5 203.5,268.5 202.5,268.5C 202.5,263.5 202.5,258.5 202.5,253.5 Z M 205.5,256.5 C 205.343,257.873 205.51,259.207 206,260.5C 209.29,258.745 209.123,257.411 205.5,256.5 Z"/></g>
<g><path style="opacity:1" fill="#000000" d="M 212.5,254.5 C 213.919,253.549 215.585,253.216 217.5,253.5C 218.811,263.979 220.811,264.146 223.5,254C 224.944,253.219 226.277,253.386 227.5,254.5C 225.667,258.833 223.833,263.167 222,267.5C 221.439,268.022 220.772,268.355 220,268.5C 217.214,263.966 214.714,259.299 212.5,254.5 Z"/></g>
<g><path style="opacity:1" fill="#000000" d="M 229.5,253.5 C 230.5,253.5 231.5,253.5 232.5,253.5C 232.5,258.5 232.5,263.5 232.5,268.5C 231.5,268.5 230.5,268.5 229.5,268.5C 229.5,263.5 229.5,258.5 229.5,253.5 Z"/></g>
<g><path style="opacity:1" fill="#000000" d="M 233.5,254.5 C 234.884,253.199 236.384,253.199 238,254.5C 239,257.167 240,259.833 241,262.5C 241.803,259.756 242.803,257.089 244,254.5C 245.388,253.446 246.888,253.28 248.5,254C 246.369,259.097 243.869,263.93 241,268.5C 240.228,268.355 239.561,268.022 239,267.5C 237.434,262.944 235.601,258.61 233.5,254.5 Z"/></g>
<g><path style="opacity:1" fill="#000000" d="M 252.5,253.5 C 263.528,252.401 266.861,256.901 262.5,267C 252.605,270.991 248.105,267.825 249,257.5C 249.69,255.65 250.856,254.316 252.5,253.5 Z M 254.5,256.5 C 253.386,257.885 252.386,259.385 251.5,261C 254.833,267 258.167,267 261.5,261C 260.323,257.651 257.99,256.151 254.5,256.5 Z"/></g>
<g><path style="opacity:1" fill="#000000" d="M 278.5,267.5 C 275.053,269.293 272.553,268.293 271,264.5C 270.51,265.793 270.343,267.127 270.5,268.5C 269.5,268.5 268.5,268.5 267.5,268.5C 267.5,263.5 267.5,258.5 267.5,253.5C 276.515,251.928 278.848,255.095 274.5,263C 275.328,264.992 276.661,266.492 278.5,267.5 Z M 270.5,256.5 C 270.343,257.873 270.51,259.207 271,260.5C 274.29,258.745 274.123,257.411 270.5,256.5 Z"/></g>
<g><path style="opacity:1" fill="#000000" d="M 278.5,267.5 C 278.62,263.354 280.12,262.687 283,265.5C 284.059,265.37 284.892,264.87 285.5,264C 283.751,262.708 281.918,261.542 280,260.5C 278.409,253.923 280.909,251.756 287.5,254C 288.833,255 288.833,256 287.5,257C 281.035,256.986 281.201,258.153 288,260.5C 288.667,262.833 288.667,265.167 288,267.5C 284.869,268.7 281.702,268.7 278.5,267.5 Z"/></g>
<g><path style="opacity:1" fill="#000000" d="M 46.5,261.5 C 48.5,261.5 50.5,261.5 52.5,261.5C 52.5,262.5 52.5,263.5 52.5,264.5C 50.5,264.5 48.5,264.5 46.5,264.5C 46.5,263.5 46.5,262.5 46.5,261.5 Z"/></g>
<g><path style="opacity:1" fill="#000000" d="M 295.5,261.5 C 297.5,261.5 299.5,261.5 301.5,261.5C 301.5,262.5 301.5,263.5 301.5,264.5C 299.5,264.5 297.5,264.5 295.5,264.5C 295.5,263.5 295.5,262.5 295.5,261.5 Z"/></g>
</svg>
