<?xml version="1.0" encoding="UTF-8"?>
<!-- Generated by Pixelmator Pro 3.2.3 -->
<svg width="1080" height="1080" viewBox="0 0 1080 1080" xmlns="http://www.w3.org/2000/svg" xmlns:xlink="http://www.w3.org/1999/xlink">
    <path id="RGL0GL0GD0P0-copy" fill="#0099fa" stroke="none" d="M 750.21106 356.829346 C 750.21106 356.829346 1067.258057 895.353882 1067.258057 895.353882 C 1081.424927 919.641235 1055.534302 947.664856 1029.154175 935.98877 C 1029.154175 935.98877 736.53186 810.347778 736.53186 810.347778 C 728.716064 807.078613 720.410645 807.078613 712.594849 810.347778 C 712.594849 810.347778 413.133881 936.455017 413.133881 936.455017 C 386.753784 947.664856 360.862274 919.641235 375.51767 895.353882 C 375.51767 895.353882 698.916626 356.362183 698.916626 356.362183 C 710.640381 337.212585 738.974915 337.212585 750.698669 356.362183 C 750.698669 356.362183 750.21106 356.829346 750.21106 356.829346 Z"/>
    <path id="RGL0GL1GD0P0-copy" fill="#93c5fe" stroke="none" d="M 381.798309 626.626221 C 381.798309 626.626221 698.625244 87.665955 698.625244 87.665955 C 712.782104 63.358948 686.908691 35.779297 660.546997 47.465698 C 660.546997 47.465698 368.129669 173.207397 368.129669 173.207397 C 360.318329 176.479187 352.019684 176.479187 344.208344 173.207397 C 344.208344 173.207397 44.467979 46.06311 44.467979 46.06311 C 18.107227 34.844238 -7.766217 62.891418 6.878965 87.198425 C 6.878965 87.198425 330.051422 626.626221 330.051422 626.626221 C 341.767975 645.79126 370.081787 645.79126 381.798309 626.626221 Z"/>
</svg>
