<svg width="48" height="48" viewBox="0 0 48 48" fill="none" xmlns="http://www.w3.org/2000/svg">
<circle cx="20.9116" cy="20.1323" r="14.1022" transform="rotate(180 20.9116 20.1323)" fill="#D0D1D1"/>
<path fill-rule="evenodd" clip-rule="evenodd" d="M26.9677 29.2981C27.1931 29.1393 27.3992 28.9527 27.5804 28.7446C27.7346 28.5673 27.8652 28.3711 27.9956 28.175C28.1892 27.8839 28.3826 27.5932 28.653 27.3654C29.3478 26.7806 29.9122 26.1674 30.0267 25.2252C30.1016 24.6088 29.9796 23.9925 29.8583 23.3797C29.8321 23.2473 29.8059 23.115 29.7818 22.983C29.5364 21.6411 29.5001 20.2609 29.6743 18.9081C29.7136 18.6019 29.762 18.2971 29.8104 17.9923C29.8795 17.5568 29.9486 17.1214 29.9913 16.6823C29.9936 16.6596 29.9958 16.6368 29.9981 16.6139C30.0742 15.84 30.1635 14.9333 29.7086 14.227C29.2403 13.4998 28.0666 13.4525 27.3484 13.8084C27.1955 13.884 27.0572 13.9836 26.919 14.0831C26.8926 14.1021 26.8662 14.1211 26.8397 14.1399C26.8151 14.1574 26.7899 14.1764 26.7642 14.1958C26.6769 14.2617 26.5837 14.3321 26.4849 14.3644C26.2494 14.441 26.3704 14.114 26.4192 13.9831C26.4238 13.9706 26.4285 13.958 26.4333 13.9455C26.4751 13.8342 26.5176 13.7214 26.5162 13.6033C26.5117 13.129 25.8378 13.2052 25.5362 13.2918C25.2445 13.3759 24.375 13.3057 24.6861 12.7921C24.7548 12.6781 24.8712 12.6019 24.9832 12.5302L26.3714 11.6408C26.3959 11.625 26.4252 11.6095 26.4555 11.5935C26.5513 11.5428 26.6563 11.4873 26.6476 11.3999C26.6038 10.9699 25.8114 10.9873 25.5302 11.0221C22.6111 11.382 19.7297 12.0504 16.9499 13.012C17.0629 12.9014 17.1933 12.8088 17.3345 12.7377C17.4839 12.6874 17.6338 12.6387 17.7841 12.5915C17.628 12.6166 17.4759 12.6664 17.3345 12.7377C13.6022 13.9934 10.1906 16.1935 7.51059 19.0793C7.27616 19.3317 7.04273 19.5969 6.92129 19.9195C6.80034 20.241 6.80134 20.5944 6.81676 20.9373C7.04572 25.9917 10.1643 30.7506 14.8628 32.628C15.917 33.0491 17.3402 33.3521 18.4595 33.1644C19.4658 32.9961 20.3571 32.4637 21.2399 31.9364C21.4168 31.8307 21.5933 31.7253 21.7704 31.623C22.2223 31.3617 22.6867 31.1377 23.1561 30.9172C23.2895 30.8544 23.4192 30.7889 23.5482 30.7236C23.8325 30.5798 24.1136 30.4377 24.4248 30.3309C24.6202 30.2638 24.8186 30.2016 25.0175 30.1392C25.697 29.926 26.3816 29.7112 26.9677 29.2981Z" fill="#A1A1A1"/>
<path d="M21.5568 9.95076C22.2642 9.8855 23.6265 9.75981 23.7629 9.52459C23.7684 9.51513 23.7709 9.50568 23.7724 9.49572C23.8105 9.22462 22.4898 8.48573 21.7784 8.08774C21.5898 7.98227 21.4441 7.90074 21.3778 7.85821C20.5879 7.35102 19.7786 6.83239 18.8603 6.59448C17.345 6.20121 17.1157 6.83557 16.8273 7.63324C16.6029 8.25419 16.3426 8.97411 15.4121 9.38523C12.0694 10.8621 10.3635 11.9831 8.18859 14.6487C6.69768 16.4775 16.6958 11.132 18.5044 10.6241C19.3869 10.3762 20.2798 10.1642 21.1797 9.98897C21.2458 9.97946 21.3811 9.96698 21.5568 9.95076Z" fill="#A1A1A1"/>
<circle cx="25.5206" cy="12.1028" r="0.25" fill="black"/>
<path fill-rule="evenodd" clip-rule="evenodd" d="M40.1799 9.84061C40.5599 9.96061 40.9599 10.1006 41.2199 10.4006L41.2099 10.4106C41.5299 10.7706 41.5899 11.2906 41.5799 11.7806C41.5699 12.2606 41.4999 12.7406 41.3699 13.2006C40.9963 13.2006 40.6313 13.119 40.2664 13.0374C40.0746 12.9945 39.8828 12.9516 39.6899 12.9206C39.2399 12.8506 38.7399 12.8506 38.3399 13.0506C38.2399 13.1006 38.1499 13.1606 38.0599 13.2306C37.6599 13.5606 37.5099 14.1006 37.3799 14.6106C36.4099 14.3906 35.3699 14.1706 34.4499 14.5606C34.28 14.6342 34.1198 14.7238 33.9601 14.8131C33.8378 14.8816 33.7157 14.9499 33.5899 15.0106C33.2899 15.1506 32.9099 15.2506 32.5899 15.1206C32.3299 15.0106 32.2099 14.7106 32.2099 14.4506C32.2099 14.2223 32.2966 14.0064 32.3824 13.7931C32.4055 13.7355 32.4286 13.678 32.4499 13.6206C32.7967 12.7957 32.9942 11.918 33.1905 11.0453C33.2036 10.987 33.2167 10.9288 33.2299 10.8706C33.3699 10.2606 33.5599 9.58061 34.0899 9.24061C34.4999 8.97061 35.0199 8.97061 35.4999 9.00061C37.0899 9.09061 38.6599 9.38061 40.1799 9.84061ZM34.6699 11.1006C34.6699 11.4706 34.9699 11.7706 35.3399 11.7706C35.7099 11.7706 36.0099 11.4706 36.0099 11.1006C36.0099 10.7306 35.7099 10.4306 35.3399 10.4306C34.9699 10.4306 34.6699 10.7306 34.6699 11.1006ZM36.2999 11.4306C36.2999 11.8006 36.5999 12.1006 36.9699 12.1006C37.3399 12.1006 37.6399 11.8006 37.6399 11.4306C37.6399 11.0606 37.3399 10.7606 36.9699 10.7606C36.5999 10.7606 36.2999 11.0606 36.2999 11.4306ZM37.9299 11.7806C37.9299 12.1506 38.2299 12.4506 38.5999 12.4506C38.9699 12.4506 39.2699 12.1506 39.2699 11.7806C39.2699 11.4106 38.9699 11.1106 38.5999 11.1106C38.2299 11.1106 37.9299 11.4106 37.9299 11.7806Z" fill="black"/>
<path fill-rule="evenodd" clip-rule="evenodd" d="M41.715 13.5721C42.0695 13.6463 42.4949 13.7353 42.8599 13.8906L42.8699 13.9106C43.3499 14.1106 43.7399 14.4206 43.7799 14.9406C43.8141 15.2826 43.7167 15.6978 43.6315 16.061C43.617 16.1225 43.6029 16.1826 43.5899 16.2406C43.5587 16.3741 43.5256 16.5075 43.4923 16.6418C43.4507 16.8095 43.4087 16.9785 43.3699 17.1506C43.2999 17.4506 43.2499 17.7506 43.2099 18.0606C43.1499 18.5106 43.0799 18.9606 42.5799 19.1106C42.2364 19.2088 42.0373 18.9697 41.841 18.7339L41.8299 18.7206C41.7156 18.5835 41.6144 18.4333 41.5131 18.2831C41.4372 18.1704 41.3613 18.0578 41.2799 17.9506C40.7799 17.5606 40.2299 17.2206 39.5899 17.1306L38.7599 17.0006C38.3599 16.9706 37.8799 16.8606 37.6599 16.4906C37.3999 16.0506 37.4899 15.4006 37.6399 14.9406C37.666 14.8623 37.691 14.7815 37.7164 14.6998C37.8465 14.2804 37.9852 13.8335 38.3199 13.5406C38.6499 13.2506 39.1099 13.2006 39.5199 13.2306C40.1599 13.2706 40.7999 13.3706 41.4299 13.5106C41.517 13.5307 41.6131 13.5508 41.715 13.5721ZM38.9499 15.0706C38.9499 15.3406 39.1699 15.5506 39.4299 15.5506C39.6999 15.5506 39.9099 15.3406 39.9099 15.0706C39.9099 14.8006 39.6999 14.5906 39.4299 14.5906C39.1599 14.5906 38.9499 14.8006 38.9499 15.0706ZM40.1199 15.3106C40.1199 15.5806 40.3399 15.7906 40.5999 15.7906C40.8699 15.7906 41.0799 15.5806 41.0799 15.3106C41.0799 15.0406 40.8699 14.8306 40.5999 14.8306C40.3299 14.8306 40.1199 15.0406 40.1199 15.3106ZM41.2899 15.5606C41.2899 15.8306 41.5099 16.0406 41.7699 16.0406C42.0399 16.0406 42.2499 15.8306 42.2499 15.5606C42.2499 15.2906 42.0399 15.0806 41.7699 15.0806C41.4999 15.0806 41.2899 15.2906 41.2899 15.5606Z" fill="black"/>
<g clip-path="url(#clip0_21_140)">
<path d="M15.0231 27.7972C15.0231 27.7972 15.0131 27.7272 15.0031 27.6872C14.8031 26.6372 14.3131 25.6572 13.6731 24.7972C13.1731 24.1272 12.5731 23.5072 11.8231 23.1572C11.4331 22.9772 10.9731 22.8672 10.5631 23.0072C10.0331 23.1772 9.69313 23.7172 9.58313 24.2572C9.47313 24.7972 9.56313 25.3672 9.65313 25.9072C9.39313 25.2872 9.30313 24.5972 9.38313 23.9372C9.10313 24.3772 9.13313 24.9472 9.23313 25.4572C9.34313 26.0672 9.53313 26.6672 9.79313 27.2272C9.40313 26.5272 9.14313 25.7572 9.02313 24.9672C8.79313 25.7072 8.37313 26.3872 7.82313 26.9272C7.48313 27.2572 7.09313 27.5272 6.78313 27.8772C6.47313 28.2272 5.72313 28.8572 5.93313 28.5472C5.75313 28.4472 5.52313 28.5072 5.34313 28.6172C5.16313 28.7272 4.59313 29.1872 4.48313 29.2972C4.19313 29.5872 4.16313 30.0672 4.26313 30.4672C4.36313 30.8972 4.59313 31.2872 4.90313 31.5972C5.05313 31.7472 5.22313 31.8872 5.40313 32.0072C5.59313 32.1272 5.91313 32.1272 6.13313 32.1672C6.21313 32.1772 6.28313 32.1972 6.35313 32.2272C6.44313 32.2772 6.50313 32.3572 6.56313 32.4372C6.92313 32.9072 7.28313 33.3872 7.64313 33.8572C7.73313 33.9772 7.83313 34.1072 7.96313 34.1672C8.31313 34.3372 8.70313 34.0372 8.98313 33.7672C9.04313 33.7072 9.10313 33.6472 9.11313 33.5672C9.11313 33.4972 9.09313 33.4372 9.06313 33.3772C8.74313 32.7372 8.20313 32.2272 7.77313 31.6572C7.67313 31.5272 7.44313 31.1972 7.66313 31.1572C7.69313 31.1572 8.38313 30.8972 8.67313 30.7572C9.79313 30.2272 11.0831 29.9072 12.2731 30.2572C12.6831 30.3772 13.0931 30.5772 13.5131 30.5572C14.1131 30.5372 14.6331 30.0872 14.8731 29.5472C15.1131 29.0072 15.1131 28.3772 15.0131 27.7872L15.0231 27.7972ZM4.83313 30.2372C4.83313 30.2372 4.79313 30.2672 4.77313 30.2772C4.69313 30.3272 4.61313 30.3572 4.57313 30.2372C4.53313 30.1472 4.55313 30.0372 4.55313 29.9472C4.55313 29.8772 4.55313 29.8072 4.57313 29.7372C4.61313 29.5872 4.78313 29.5072 4.92313 29.4472C5.08313 29.3772 5.25313 29.2972 5.42313 29.2872C5.46313 29.2872 5.50313 29.2872 5.52313 29.3072C5.73313 29.5172 4.97313 30.1172 4.83313 30.2272V30.2372ZM7.33313 31.4072C7.35313 31.4072 7.38313 31.3972 7.40313 31.3872C7.38313 31.3872 7.36313 31.3872 7.34313 31.4072H7.33313ZM7.87313 30.9972C7.94313 30.9972 8.00313 30.9872 8.06313 30.9672C8.00313 30.9872 7.93313 30.9972 7.86313 30.9972H7.87313ZM8.42313 27.5772C8.31313 27.9872 8.00313 28.3172 7.68313 28.5972C7.42313 28.8172 7.15313 29.0272 6.87313 29.2272C6.71313 29.3472 6.58313 29.2972 6.56313 29.0972C6.55313 28.9872 6.54313 28.8772 6.54313 28.7572C6.54313 28.6672 6.54313 28.5772 6.59313 28.4972C6.63313 28.4172 6.70313 28.3672 6.77313 28.3072C7.11313 28.0272 7.44313 27.7372 7.76313 27.4272C7.91313 27.2772 8.06313 27.1272 8.24313 27.0072C8.27313 26.9872 8.31313 26.9672 8.35313 26.9772C8.41313 26.9872 8.43313 27.0572 8.44313 27.1172C8.47313 27.2672 8.46313 27.4272 8.42313 27.5772Z" fill="black"/>
<path d="M11.4931 27.2272C11.8131 27.7872 12.2931 28.1072 12.5731 27.9472C12.8531 27.7872 12.8131 27.2072 12.4931 26.6472C12.1731 26.0872 11.6931 25.7672 11.4131 25.9272C11.1331 26.0872 11.1731 26.6672 11.4931 27.2272Z" fill="white"/>
</g>
<path fill-rule="evenodd" clip-rule="evenodd" d="M15.3964 17.3283C15.3964 17.1933 15.5035 17.0832 15.6374 17.0785C17.7096 11.8496 19.9891 8.22522 22.2031 5.93405C22.5315 5.59416 22.8587 5.2834 23.1838 5.00098C22.3963 4.43205 21.5876 4.04488 20.7805 3.82366C19.0812 3.35791 17.3801 3.62509 15.8823 4.49347C12.8849 6.23138 10.6928 10.3867 11.0144 15.9002L11.0176 15.9554C11.1275 15.9817 11.2093 16.0806 11.2093 16.1986C11.2093 16.3367 11.0973 16.4486 10.9593 16.4486C10.8212 16.4486 10.7093 16.3367 10.7093 16.1986C10.7093 16.1123 10.7529 16.0363 10.8194 15.9914L10.8147 15.9119C10.49 10.3453 12.7019 6.10627 15.782 4.32045C17.323 3.42698 19.0791 3.14995 20.8333 3.63078C21.6793 3.86264 22.5227 4.27012 23.3401 4.86728C25.1787 3.31799 26.9445 2.67489 28.472 2.79437C30.3181 2.93875 31.7844 4.1939 32.5866 6.23487C33.388 8.27405 33.5311 11.1039 32.7395 14.4304L32.7163 14.5277L32.5217 14.4814L32.5449 14.3841C33.3301 11.0847 33.1828 8.29864 32.4004 6.30803C31.6188 4.31922 30.2077 3.13073 28.4564 2.99376C27.0072 2.88041 25.3034 3.48513 23.5045 4.99027C24.1196 5.46093 24.7189 6.04048 25.2922 6.73499C25.1638 6.69265 25.0397 6.65331 24.9331 6.62033C24.4207 6.03057 23.8901 5.53314 23.3485 5.12285C23.0174 5.40869 22.6832 5.72504 22.3469 6.07303C20.1568 8.33945 17.8896 11.9384 15.8234 17.1518C15.8685 17.1971 15.8964 17.2594 15.8964 17.3283C15.8964 17.4664 15.7845 17.5783 15.6464 17.5783C15.5083 17.5783 15.3964 17.4664 15.3964 17.3283ZM31.8102 16.7608C28.0841 18.0576 22.4025 20.9941 17.3053 24.524C17.3078 24.5382 17.3091 24.5529 17.3091 24.5678C17.3091 24.7059 17.1972 24.8178 17.0591 24.8178C16.921 24.8178 16.8091 24.7059 16.8091 24.5678C16.8091 24.4297 16.921 24.3178 17.0591 24.3178C17.1089 24.3178 17.1554 24.3324 17.1944 24.3575C22.3017 20.821 27.998 17.8758 31.7445 16.5719C31.8226 16.5447 31.9 16.5182 31.9764 16.4924C31.1959 15.1779 30.202 14.0661 29.1697 13.2931C27.9192 12.3567 26.6318 11.931 25.6043 12.2112L25.5079 12.2375L25.4553 12.0445L25.5517 12.0182C26.6673 11.714 28.0196 12.182 29.2896 13.133C30.3541 13.9301 31.3743 15.076 32.1707 16.4279C32.9355 16.1776 33.6099 16.0028 34.1685 15.9146C34.4987 15.8625 34.7909 15.8402 35.0389 15.8514C35.2859 15.8625 35.4959 15.907 35.6567 15.9941C35.8208 16.0831 35.9324 16.2164 35.9749 16.3949C36.0164 16.5691 35.9895 16.7744 35.904 17.0066C35.74 17.4517 35.347 18.032 34.7008 18.7599C34.7214 18.7963 34.7332 18.8384 34.7332 18.8832C34.7332 19.0213 34.6213 19.1332 34.4832 19.1332C34.3452 19.1332 34.2332 19.0213 34.2332 18.8832C34.2332 18.7451 34.3452 18.6332 34.4832 18.6332C34.5028 18.6332 34.5218 18.6355 34.54 18.6397C35.1886 17.9107 35.5647 17.3492 35.7163 16.9375C35.7945 16.7251 35.8093 16.5625 35.7804 16.4413C35.7525 16.3246 35.6817 16.2352 35.5613 16.17C35.4376 16.1029 35.2613 16.0616 35.0299 16.0512C34.7996 16.0408 34.5216 16.0614 34.1997 16.1122C33.6645 16.1967 33.0148 16.3638 32.273 16.6049C32.392 16.8148 32.5055 17.0293 32.613 17.248C34.2587 20.5974 34.4841 24.947 30.9334 28.4377C30.9431 28.4644 30.9485 28.4933 30.9485 28.5234C30.9485 28.6614 30.8365 28.7734 30.6985 28.7734C30.5604 28.7734 30.4485 28.6614 30.4485 28.5234C30.4485 28.3853 30.5604 28.2734 30.6985 28.2734C30.7329 28.2734 30.7656 28.2803 30.7955 28.2929C34.2663 24.8783 34.0519 20.63 32.4335 17.3362C32.3218 17.1089 32.2035 16.8863 32.0792 16.6689C31.9908 16.6985 31.9011 16.7291 31.8102 16.7608ZM23.9588 27.9699L23.9587 27.9798L23.9579 27.9912C27.8519 29.9348 30.6081 31.0786 32.4819 31.6676C33.4259 31.9644 34.1422 32.1191 34.6652 32.1654C35.1945 32.2122 35.5027 32.1457 35.6544 32.029C35.7262 31.9738 35.7647 31.9062 35.7773 31.8256C35.7905 31.7421 35.7766 31.6383 35.7299 31.5144C35.6362 31.2654 35.4203 30.9617 35.1035 30.6334C34.472 29.979 33.4667 29.2547 32.345 28.7099L32.1682 28.6304L32.2932 28.4625L32.4324 28.53C33.5715 29.0833 34.597 29.8205 35.2474 30.4945C35.5715 30.8304 35.8093 31.1575 35.9171 31.4439C35.9713 31.5878 35.9952 31.7279 35.9749 31.8567C35.9542 31.9884 35.8883 32.1014 35.7763 32.1875C35.5606 32.3535 35.1843 32.4121 34.6475 32.3646C34.1043 32.3165 33.3726 32.1573 32.422 31.8584C30.5327 31.2646 27.7638 30.1146 23.8625 28.1671C23.8201 28.2002 23.7668 28.2199 23.7088 28.2199C23.5708 28.2199 23.4588 28.108 23.4588 27.9699C23.4588 27.8318 23.5708 27.7199 23.7088 27.7199C23.8469 27.7199 23.9588 27.8318 23.9588 27.9699ZM11.2569 29.1987L11.2166 29.2902C10.465 30.9938 10.079 32.542 10.0394 33.8122C9.99962 35.0843 10.3071 36.063 10.9242 36.6497C11.5379 37.2331 12.4811 37.4501 13.7644 37.149C15.049 36.8476 16.5933 36.0806 18.5205 34.6113L19.1877 34.1226L19.4689 34.1422L18.7099 34.7185C16.7714 36.1964 15.133 37.0333 13.8101 37.3437C12.4858 37.6545 11.4649 37.4395 10.7865 36.7946C10.1114 36.1529 9.79881 35.1071 9.83946 33.8059C9.88016 32.5028 10.2751 30.9289 11.0336 29.2095L11.0739 29.118L11.2569 29.1987Z" fill="black"/>
<path d="M2.95656 42.6855C2.94295 42.5483 2.88452 42.4416 2.78128 42.3656C2.67803 42.2896 2.53792 42.2516 2.36093 42.2516C2.24067 42.2516 2.13913 42.2686 2.05631 42.3026C1.97349 42.3355 1.90995 42.3815 1.8657 42.4405C1.82259 42.4995 1.80104 42.5664 1.80104 42.6413C1.79877 42.7037 1.81181 42.7582 1.84018 42.8047C1.86968 42.8512 1.90995 42.8915 1.96101 42.9255C2.01206 42.9584 2.07106 42.9873 2.13799 43.0123C2.20493 43.0361 2.27641 43.0565 2.35242 43.0736L2.66555 43.1484C2.81758 43.1825 2.95713 43.2279 3.0842 43.2846C3.21126 43.3413 3.32131 43.4111 3.41435 43.4939C3.50738 43.5767 3.57942 43.6743 3.63048 43.7866C3.68266 43.8989 3.70933 44.0277 3.71046 44.1729C3.70933 44.3862 3.65487 44.5711 3.54709 44.7277C3.44044 44.8831 3.28614 45.004 3.0842 45.0902C2.88338 45.1753 2.64116 45.2178 2.35753 45.2178C2.07616 45.2178 1.8311 45.1747 1.62235 45.0885C1.41473 45.0023 1.25249 44.8746 1.13563 44.7056C1.01991 44.5354 0.95921 44.3249 0.953537 44.0742H1.66659C1.67453 44.1911 1.708 44.2886 1.767 44.3669C1.82713 44.4441 1.90711 44.5025 2.00695 44.5422C2.10793 44.5808 2.22195 44.6001 2.34902 44.6001C2.47382 44.6001 2.58216 44.5819 2.67406 44.5456C2.76709 44.5093 2.83914 44.4588 2.89019 44.3942C2.94124 44.3295 2.96677 44.2552 2.96677 44.1712C2.96677 44.0929 2.94351 44.0271 2.897 43.9738C2.85162 43.9205 2.78468 43.8751 2.69618 43.8377C2.60883 43.8002 2.50161 43.7662 2.37454 43.7356L1.99504 43.6403C1.7012 43.5688 1.46918 43.457 1.299 43.305C1.12882 43.153 1.0443 42.9482 1.04543 42.6906C1.0443 42.4796 1.10046 42.2953 1.21391 42.1376C1.3285 41.9799 1.48563 41.8568 1.68531 41.7683C1.88499 41.6798 2.1119 41.6355 2.36603 41.6355C2.62471 41.6355 2.85048 41.6798 3.04335 41.7683C3.23736 41.8568 3.38825 41.9799 3.49603 42.1376C3.60381 42.2953 3.65941 42.4779 3.66281 42.6855H2.95656Z" fill="black"/>
<path d="M4.20611 45.1685V41.6832H4.94299V43.2199H4.98894L6.24317 41.6832H7.12641L5.83304 43.2437L7.14172 45.1685H6.26019L5.30548 43.7356L4.94299 44.178V45.1685H4.20611Z" fill="black"/>
<path d="M8.1109 45.1685H7.32126L8.52444 41.6832H9.47405L10.6755 45.1685H9.88588L9.01286 42.4796H8.98563L8.1109 45.1685ZM8.06155 43.7985H9.92673V44.3737H8.06155V43.7985Z" fill="black"/>
<path d="M11.095 45.1685V41.6832H11.8319V44.5609H13.3261V45.1685H11.095Z" fill="black"/>
<path d="M13.8141 45.1685V41.6832H16.1626V42.2907H14.551V43.1212H16.0417V43.7287H14.551V44.5609H16.1694V45.1685H13.8141Z" fill="black"/>
<path d="M20.9327 42.9034H20.1873C20.1737 42.8069 20.1459 42.7213 20.1039 42.6464C20.062 42.5704 20.0081 42.5057 19.9423 42.4524C19.8765 42.3991 19.8005 42.3582 19.7142 42.3299C19.6291 42.3015 19.5367 42.2873 19.4368 42.2873C19.2564 42.2873 19.0993 42.3321 18.9654 42.4218C18.8316 42.5103 18.7277 42.6396 18.654 42.8098C18.5803 42.9788 18.5434 43.1842 18.5434 43.4258C18.5434 43.6743 18.5803 43.883 18.654 44.0521C18.7289 44.2211 18.8333 44.3488 18.9671 44.435C19.101 44.5212 19.2559 44.5643 19.4317 44.5643C19.5304 44.5643 19.6218 44.5513 19.7057 44.5252C19.7908 44.4991 19.8663 44.4611 19.9321 44.4112C19.9979 44.3601 20.0523 44.2983 20.0954 44.2257C20.1397 44.1531 20.1703 44.0702 20.1873 43.9772L20.9327 43.9806C20.9134 44.1406 20.8652 44.2949 20.7881 44.4435C20.7121 44.591 20.6094 44.7232 20.48 44.84C20.3518 44.9558 20.1987 45.0476 20.0206 45.1157C19.8436 45.1827 19.6433 45.2161 19.4198 45.2161C19.109 45.2161 18.831 45.1458 18.5859 45.0051C18.342 44.8644 18.1491 44.6608 18.0073 44.3942C17.8666 44.1275 17.7963 43.8048 17.7963 43.4258C17.7963 43.0458 17.8678 42.7224 18.0107 42.4558C18.1537 42.1892 18.3477 41.9861 18.5927 41.8466C18.8378 41.7059 19.1135 41.6355 19.4198 41.6355C19.6218 41.6355 19.809 41.6639 19.9814 41.7206C20.155 41.7773 20.3087 41.8602 20.4426 41.9691C20.5765 42.0769 20.6854 42.209 20.7693 42.3656C20.8544 42.5222 20.9089 42.7014 20.9327 42.9034Z" fill="black"/>
<path d="M22.1725 43.6573V45.1685H21.4475V41.6832H22.1521V43.0157H22.1827C22.2417 42.8614 22.337 42.7406 22.4686 42.6532C22.6002 42.5647 22.7653 42.5205 22.9638 42.5205C23.1454 42.5205 23.3036 42.5602 23.4386 42.6396C23.5748 42.7179 23.6803 42.8308 23.7552 42.9783C23.8312 43.1246 23.8686 43.2999 23.8675 43.5041V45.1685H23.1425V43.6334C23.1436 43.4723 23.1028 43.347 23.02 43.2574C22.9383 43.1677 22.8237 43.1229 22.6762 43.1229C22.5775 43.1229 22.4902 43.1439 22.4141 43.1859C22.3393 43.2279 22.2803 43.2891 22.2372 43.3697C22.1952 43.4491 22.1736 43.545 22.1725 43.6573Z" fill="black"/>
<path d="M25.1834 45.2178C25.0166 45.2178 24.868 45.1889 24.7375 45.131C24.6071 45.072 24.5038 44.9852 24.4278 44.8707C24.3529 44.7549 24.3155 44.6109 24.3155 44.4384C24.3155 44.2932 24.3421 44.1712 24.3955 44.0725C24.4488 43.9738 24.5214 43.8944 24.6133 43.8343C24.7052 43.7741 24.8096 43.7287 24.9264 43.6981C25.0444 43.6675 25.1681 43.6459 25.2974 43.6334C25.4495 43.6176 25.572 43.6028 25.665 43.5892C25.758 43.5745 25.8256 43.5529 25.8675 43.5245C25.9095 43.4962 25.9305 43.4542 25.9305 43.3986V43.3884C25.9305 43.2806 25.8965 43.1972 25.8284 43.1382C25.7615 43.0792 25.6661 43.0497 25.5425 43.0497C25.412 43.0497 25.3082 43.0787 25.2311 43.1365C25.1539 43.1932 25.1029 43.2647 25.0779 43.3509L24.4074 43.2965C24.4414 43.1377 24.5084 43.0004 24.6082 42.8847C24.708 42.7678 24.8368 42.6782 24.9945 42.6158C25.1533 42.5522 25.3371 42.5205 25.5459 42.5205C25.6911 42.5205 25.8301 42.5375 25.9628 42.5715C26.0967 42.6056 26.2153 42.6583 26.3185 42.7298C26.4229 42.8013 26.5051 42.8932 26.5653 43.0055C26.6254 43.1167 26.6555 43.25 26.6555 43.4054V45.1685H25.9679V44.806H25.9475C25.9055 44.8877 25.8494 44.9597 25.779 45.0221C25.7087 45.0834 25.6242 45.1316 25.5255 45.1668C25.4268 45.2008 25.3127 45.2178 25.1834 45.2178ZM25.391 44.7175C25.4977 44.7175 25.5918 44.6965 25.6735 44.6545C25.7552 44.6114 25.8193 44.5536 25.8658 44.4809C25.9123 44.4083 25.9356 44.3261 25.9356 44.2342V43.9568C25.9129 43.9715 25.8817 43.9852 25.842 43.9976C25.8034 44.009 25.7597 44.0198 25.711 44.03C25.6622 44.039 25.6134 44.0476 25.5646 44.0555C25.5158 44.0623 25.4716 44.0685 25.4319 44.0742C25.3468 44.0867 25.2725 44.1066 25.2089 44.1338C25.1454 44.161 25.096 44.1979 25.0609 44.2444C25.0257 44.2898 25.0081 44.3465 25.0081 44.4146C25.0081 44.5133 25.0439 44.5887 25.1153 44.6409C25.1879 44.692 25.2798 44.7175 25.391 44.7175Z" fill="black"/>
<path d="M28.399 45.2195C28.1346 45.2195 27.906 45.1634 27.7131 45.0511C27.5214 44.9376 27.3733 44.7799 27.269 44.578C27.1646 44.3749 27.1124 44.1395 27.1124 43.8717C27.1124 43.6017 27.1646 43.3657 27.269 43.1638C27.3733 42.9607 27.5214 42.803 27.7131 42.6906C27.906 42.5772 28.1346 42.5205 28.399 42.5205C28.6633 42.5205 28.8914 42.5772 29.0831 42.6906C29.276 42.803 29.4246 42.9607 29.529 43.1638C29.6333 43.3657 29.6855 43.6017 29.6855 43.8717C29.6855 44.1395 29.6333 44.3749 29.529 44.578C29.4246 44.7799 29.276 44.9376 29.0831 45.0511C28.8914 45.1634 28.6633 45.2195 28.399 45.2195ZM28.4024 44.6579C28.5226 44.6579 28.623 44.6239 28.7036 44.5558C28.7841 44.4866 28.8448 44.3925 28.8857 44.2733C28.9277 44.1542 28.9486 44.0186 28.9486 43.8666C28.9486 43.7146 28.9277 43.579 28.8857 43.4599C28.8448 43.3407 28.7841 43.2466 28.7036 43.1774C28.623 43.1082 28.5226 43.0736 28.4024 43.0736C28.281 43.0736 28.1789 43.1082 28.096 43.1774C28.0144 43.2466 27.9525 43.3407 27.9105 43.4599C27.8697 43.579 27.8493 43.7146 27.8493 43.8666C27.8493 44.0186 27.8697 44.1542 27.9105 44.2733C27.9525 44.3925 28.0144 44.4866 28.096 44.5558C28.1789 44.6239 28.281 44.6579 28.4024 44.6579Z" fill="black"/>
<path d="M32.3318 43.2999L31.6681 43.3407C31.6568 43.284 31.6324 43.233 31.595 43.1876C31.5575 43.1411 31.5082 43.1042 31.4469 43.077C31.3868 43.0486 31.3147 43.0344 31.2308 43.0344C31.1184 43.0344 31.0237 43.0582 30.9466 43.1059C30.8694 43.1524 30.8308 43.2148 30.8308 43.2931C30.8308 43.3555 30.8558 43.4082 30.9057 43.4514C30.9556 43.4945 31.0413 43.5291 31.1627 43.5552L31.6358 43.6505C31.8899 43.7027 32.0794 43.7866 32.2042 43.9023C32.329 44.0181 32.3914 44.1701 32.3914 44.3584C32.3914 44.5297 32.3409 44.6801 32.2399 44.8094C32.1401 44.9387 32.0028 45.0397 31.8281 45.1123C31.6545 45.1838 31.4543 45.2195 31.2274 45.2195C30.8813 45.2195 30.6056 45.1475 30.4003 45.0034C30.1961 44.8582 30.0764 44.6608 30.0412 44.4112L30.7543 44.3737C30.7758 44.4792 30.828 44.5598 30.9108 44.6154C30.9936 44.6698 31.0997 44.6971 31.2291 44.6971C31.3561 44.6971 31.4582 44.6727 31.5354 44.6239C31.6137 44.574 31.6534 44.5099 31.6545 44.4316C31.6534 44.3658 31.6256 44.3119 31.5711 44.2699C31.5167 44.2268 31.4327 44.1939 31.3193 44.1712L30.8666 44.081C30.6113 44.03 30.4213 43.9415 30.2965 43.8155C30.1728 43.6896 30.111 43.5291 30.111 43.3339C30.111 43.166 30.1564 43.0214 30.2471 42.9C30.339 42.7786 30.4678 42.685 30.6334 42.6192C30.8002 42.5534 30.9953 42.5205 31.2189 42.5205C31.549 42.5205 31.8088 42.5902 31.9983 42.7298C32.1889 42.8693 32.3001 43.0594 32.3318 43.2999Z" fill="black"/>
<path d="M37.0458 42.9034H36.3004C36.2868 42.8069 36.259 42.7213 36.2171 42.6464C36.1751 42.5704 36.1212 42.5057 36.0554 42.4524C35.9896 42.3991 35.9136 42.3582 35.8273 42.3299C35.7422 42.3015 35.6498 42.2873 35.5499 42.2873C35.3696 42.2873 35.2124 42.3321 35.0785 42.4218C34.9447 42.5103 34.8409 42.6396 34.7671 42.8098C34.6934 42.9788 34.6565 43.1842 34.6565 43.4258C34.6565 43.6743 34.6934 43.883 34.7671 44.0521C34.842 44.2211 34.9464 44.3488 35.0802 44.435C35.2141 44.5212 35.369 44.5643 35.5448 44.5643C35.6435 44.5643 35.7349 44.5513 35.8188 44.5252C35.9039 44.4991 35.9794 44.4611 36.0452 44.4112C36.111 44.3601 36.1654 44.2983 36.2085 44.2257C36.2528 44.1531 36.2834 44.0702 36.3004 43.9772L37.0458 43.9806C37.0265 44.1406 36.9783 44.2949 36.9012 44.4435C36.8252 44.591 36.7225 44.7232 36.5932 44.84C36.4649 44.9558 36.3118 45.0476 36.1337 45.1157C35.9567 45.1827 35.7564 45.2161 35.5329 45.2161C35.2221 45.2161 34.9441 45.1458 34.699 45.0051C34.4551 44.8644 34.2622 44.6608 34.1204 44.3942C33.9797 44.1275 33.9094 43.8048 33.9094 43.4258C33.9094 43.0458 33.9809 42.7224 34.1238 42.4558C34.2668 42.1892 34.4608 41.9861 34.7058 41.8466C34.9509 41.7059 35.2266 41.6355 35.5329 41.6355C35.7349 41.6355 35.9221 41.6639 36.0945 41.7206C36.2681 41.7773 36.4218 41.8602 36.5557 41.9691C36.6896 42.0769 36.7985 42.209 36.8825 42.3656C36.9675 42.5222 37.022 42.7014 37.0458 42.9034Z" fill="black"/>
<path d="M38.2856 43.6573V45.1685H37.5606V41.6832H38.2652V43.0157H38.2958C38.3548 42.8614 38.4501 42.7406 38.5817 42.6532C38.7133 42.5647 38.8784 42.5205 39.0769 42.5205C39.2585 42.5205 39.4167 42.5602 39.5517 42.6396C39.6879 42.7179 39.7934 42.8308 39.8683 42.9783C39.9443 43.1246 39.9817 43.2999 39.9806 43.5041V45.1685H39.2556V43.6334C39.2568 43.4723 39.2159 43.347 39.1331 43.2574C39.0514 43.1677 38.9368 43.1229 38.7893 43.1229C38.6906 43.1229 38.6033 43.1439 38.5273 43.1859C38.4524 43.2279 38.3934 43.2891 38.3503 43.3697C38.3083 43.4491 38.2867 43.545 38.2856 43.6573Z" fill="black"/>
<path d="M41.2965 45.2178C41.1297 45.2178 40.9811 45.1889 40.8506 45.131C40.7202 45.072 40.6169 44.9852 40.5409 44.8707C40.466 44.7549 40.4286 44.6109 40.4286 44.4384C40.4286 44.2932 40.4553 44.1712 40.5086 44.0725C40.5619 43.9738 40.6345 43.8944 40.7264 43.8343C40.8183 43.7741 40.9227 43.7287 41.0395 43.6981C41.1575 43.6675 41.2812 43.6459 41.4105 43.6334C41.5626 43.6176 41.6851 43.6028 41.7781 43.5892C41.8712 43.5745 41.9387 43.5529 41.9806 43.5245C42.0226 43.4962 42.0436 43.4542 42.0436 43.3986V43.3884C42.0436 43.2806 42.0096 43.1972 41.9415 43.1382C41.8746 43.0792 41.7793 43.0497 41.6556 43.0497C41.5251 43.0497 41.4213 43.0787 41.3442 43.1365C41.267 43.1932 41.216 43.2647 41.191 43.3509L40.5205 43.2965C40.5545 43.1377 40.6215 43.0004 40.7213 42.8847C40.8211 42.7678 40.9499 42.6782 41.1076 42.6158C41.2664 42.5522 41.4502 42.5205 41.659 42.5205C41.8042 42.5205 41.9432 42.5375 42.0759 42.5715C42.2098 42.6056 42.3284 42.6583 42.4316 42.7298C42.536 42.8013 42.6182 42.8932 42.6784 43.0055C42.7385 43.1167 42.7686 43.25 42.7686 43.4054V45.1685H42.081V44.806H42.0606C42.0186 44.8877 41.9625 44.9597 41.8921 45.0221C41.8218 45.0834 41.7373 45.1316 41.6386 45.1668C41.5399 45.2008 41.4258 45.2178 41.2965 45.2178ZM41.5041 44.7175C41.6108 44.7175 41.7049 44.6965 41.7866 44.6545C41.8683 44.6114 41.9324 44.5536 41.9789 44.4809C42.0255 44.4083 42.0487 44.3261 42.0487 44.2342V43.9568C42.026 43.9715 41.9948 43.9852 41.9551 43.9976C41.9165 44.009 41.8729 44.0198 41.8241 44.03C41.7753 44.039 41.7265 44.0476 41.6777 44.0555C41.6289 44.0623 41.5847 44.0685 41.545 44.0742C41.4599 44.0867 41.3856 44.1066 41.322 44.1338C41.2585 44.161 41.2092 44.1979 41.174 44.2444C41.1388 44.2898 41.1212 44.3465 41.1212 44.4146C41.1212 44.5133 41.157 44.5887 41.2284 44.6409C41.301 44.692 41.3929 44.7175 41.5041 44.7175Z" fill="black"/>
<path d="M43.331 45.1685V42.5545H44.056V45.1685H43.331ZM43.6952 42.2175C43.5874 42.2175 43.495 42.1818 43.4178 42.1103C43.3418 42.0377 43.3038 41.9509 43.3038 41.85C43.3038 41.7501 43.3418 41.6645 43.4178 41.593C43.495 41.5204 43.5874 41.4841 43.6952 41.4841C43.803 41.4841 43.8949 41.5204 43.9709 41.593C44.048 41.6645 44.0866 41.7501 44.0866 41.85C44.0866 41.9509 44.048 42.0377 43.9709 42.1103C43.8949 42.1818 43.803 42.2175 43.6952 42.2175Z" fill="black"/>
<path d="M45.3617 43.6573V45.1685H44.6367V42.5545H45.3277V43.0157H45.3583C45.4162 42.8637 45.5132 42.7434 45.6493 42.6549C45.7854 42.5653 45.9505 42.5205 46.1445 42.5205C46.3261 42.5205 46.4843 42.5602 46.6193 42.6396C46.7543 42.719 46.8593 42.8325 46.9342 42.98C47.009 43.1263 47.0465 43.301 47.0465 43.5041V45.1685H46.3215V43.6334C46.3227 43.4735 46.2818 43.3487 46.199 43.2591C46.1162 43.1683 46.0021 43.1229 45.8569 43.1229C45.7594 43.1229 45.6731 43.1439 45.5983 43.1859C45.5245 43.2279 45.4666 43.2891 45.4247 43.3697C45.3838 43.4491 45.3628 43.545 45.3617 43.6573Z" fill="black"/>
<defs>
<clipPath id="clip0_21_140">
<rect width="10.87" height="11.28" fill="white" transform="translate(4.21313 22.9372)"/>
</clipPath>
</defs>
</svg>
