<?xml version="1.0" encoding="UTF-8"?>
<!-- Generated by Pixelmator Pro 3.2.3 -->
<svg width="500" height="500" viewBox="0 0 500 500" xmlns="http://www.w3.org/2000/svg" xmlns:xlink="http://www.w3.org/1999/xlink">
    <linearGradient id="linearGradient1" x1="102.207804" y1="500.04844" x2="102.207804" y2="-3.95156" gradientUnits="userSpaceOnUse">
        <stop offset="0" stop-color="#a57757" stop-opacity="1"/>
        <stop offset="0.50759" stop-color="#edd7a5" stop-opacity="1"/>
        <stop offset="1" stop-color="#bd8b5c" stop-opacity="1"/>
    </linearGradient>
    <filter id="filter1" x="0" y="0" width="500" height="500" filterUnits="userSpaceOnUse" primitiveUnits="userSpaceOnUse" color-interpolation-filters="sRGB">
        <feGaussianBlur stdDeviation="5"/>
        <feOffset dx="-0" dy="2" result="offsetblur"/>
        <feFlood flood-color="#000000" flood-opacity="0.5"/>
        <feComposite in2="offsetblur" operator="in"/>
        <feMerge>
            <feMergeNode/>
            <feMergeNode in="SourceGraphic"/>
        </feMerge>
    </filter>
    <path id="C" fill="url(#linearGradient1)" fill-rule="evenodd" stroke="#694b36" stroke-width="3" stroke-linecap="round" stroke-linejoin="round" filter="url(#filter1)" d="M 450.871002 376.291992 C 448.384308 391.709412 445.151672 407.375244 441.173004 423.290009 C 437.194305 439.204742 432.718353 455.616577 427.744995 472.526001 C 396.412842 484.959381 350.161316 491.175995 288.989014 491.175995 C 250.196808 491.175995 215.010818 485.581055 183.429993 474.390991 C 151.849182 463.200928 125.117775 447.286438 103.235001 426.647003 C 81.352226 406.007568 64.443062 381.265472 52.507 352.419983 C 40.570942 323.574524 34.603001 291.496826 34.603001 256.186005 C 34.603001 223.361847 40.819603 191.905823 53.252998 161.816986 C 65.686394 131.72818 82.719894 105.121124 104.353996 81.994995 C 125.988106 58.868896 151.476181 40.343414 180.819 26.417999 C 210.161819 12.492584 241.742157 5.529999 275.561005 5.529999 C 296.946442 5.529999 315.347595 5.902985 330.765015 6.648987 C 346.182404 7.394989 359.734619 8.762665 371.421997 10.752014 C 383.109406 12.741333 393.92627 15.84964 403.872986 20.076996 C 413.819702 24.304352 424.014954 29.650635 434.459015 36.115997 C 435.951019 48.052063 437.070007 60.112274 437.81601 72.296997 C 438.562012 84.48172 438.68634 97.039276 438.188995 109.970001 L 424.015015 109.970001 C 414.068298 81.124512 397.283447 59.117737 373.660004 43.949005 C 350.03656 28.780243 321.564514 21.196014 288.243011 21.196014 C 261.884216 21.196014 237.63945 26.915283 215.507996 38.354004 C 193.376556 49.792725 174.353745 65.831573 158.438995 86.471008 C 142.524246 107.110443 129.966705 131.976868 120.765999 161.071014 C 111.565285 190.165131 106.964996 222.1185 106.964996 256.932007 C 106.964996 328.051025 122.257851 382.135498 152.843994 419.187012 C 183.430161 456.238525 228.811371 474.764008 288.989014 474.764008 C 358.118683 474.764008 408.846161 441.940338 441.173004 376.291992 Z"/>
</svg>
