<?xml version="1.0" encoding="UTF-8"?>
<!-- Generated by Pixelmator Pro 3.3.2 -->
<svg width="500" height="500" viewBox="0 0 500 500" xmlns="http://www.w3.org/2000/svg" xmlns:xlink="http://www.w3.org/1999/xlink">
    <linearGradient id="linearGradient1" x1="0" y1="250.20332" x2="500" y2="250.20332" gradientUnits="userSpaceOnUse">
        <stop offset="0" stop-color="#398781" stop-opacity="1"/>
        <stop offset="1" stop-color="#9de1b5" stop-opacity="1"/>
    </linearGradient>
    <path id="Ellipse" fill="url(#linearGradient1)" fill-rule="evenodd" stroke="none" d="M 0 440.037109 L 0 339.414063 L 112.552734 339.414063 L 264.794922 339.414063 L 387.447266 339.414063 C 404.348053 339.414063 418.048828 325.713318 418.048828 308.8125 C 418.048828 291.911682 404.348053 278.210938 387.447266 278.210938 L 271.771484 278.210938 L 112.552734 278.210938 L 108.921875 278.210938 C 48.766682 278.210938 0 229.446198 0 169.291016 C 0 109.135803 48.766682 60.369141 108.921875 60.369141 L 471.992188 60.369141 L 471.992188 141.28125 L 380.705078 141.28125 L 214.203125 141.28125 L 106.845703 141.28125 C 89.658447 141.28125 75.726563 155.215118 75.726563 172.402344 C 75.726563 189.589569 89.658447 203.523438 106.845703 203.523438 L 212.351563 203.523438 L 380.705078 203.523438 L 381.742188 203.523438 L 394.191406 203.523438 L 394.191406 204.171875 C 453.651245 210.392548 500 260.672455 500 321.779297 C 500 387.090637 447.053558 440.037109 381.742188 440.037109 L 0 440.037109 Z"/>
</svg>
