<svg width="140" height="140" viewBox="0 0 140 140" fill="none" xmlns="http://www.w3.org/2000/svg">
<g filter="url(#filter0_f_1322_33)">
<path d="M114.371 81.7986C114.42 81.9782 122.201 110.493 81.4037 124.685C81.2844 124.727 81.188 124.566 81.2867 124.487C94.7383 113.831 87.8246 98.5265 83.3688 92.1419C77.4173 83.6144 68.4895 73.9281 70.2505 65.2113C70.2728 65.1008 70.1306 65.0296 70.0532 65.1121C61.6226 74.0879 63.5486 83.0928 65.3782 88.4225C65.4011 88.4882 65.3604 88.5567 65.2902 88.5617C62.8674 88.7446 54.5957 86.3127 55.0021 77.027C55.0071 76.9116 54.8482 76.8624 54.788 76.9613C42.4385 97.1025 47.5956 112.268 56.4816 124.028C56.5429 124.11 56.4582 124.221 56.3579 124.2C2.30294 112.945 34.4349 57.5527 44.146 45.1142C44.2179 45.0225 44.345 45.1157 44.3222 45.2295C43.0121 51.8215 42.8259 53.2693 45.8708 58.3201C45.9377 58.431 46.1261 58.3483 46.0977 58.2221C43.0461 44.5422 66.6481 33.4491 54.4998 14.7816C54.4368 14.6848 54.5422 14.5574 54.6442 14.6124C75.712 25.971 82.4902 32.548 87.8843 38.462C92.5056 43.5286 102.879 55.3399 97.0117 73.2965C96.9738 73.4126 97.1226 73.501 97.2007 73.4071C100.054 69.9639 101.668 65.9472 101.098 59.3317C101.089 59.2306 101.213 59.1714 101.287 59.2409C112.952 70.0938 114.348 81.6141 114.37 81.7959C114.371 81.8014 114.369 81.7931 114.371 81.7986Z" fill="#AC55FE" fill-opacity="0.3"/>
<path d="M114.371 81.7986C114.42 81.9782 122.201 110.493 81.4037 124.685C81.2844 124.727 81.188 124.566 81.2867 124.487C94.7383 113.831 87.8246 98.5265 83.3688 92.1419C77.4173 83.6144 68.4895 73.9281 70.2505 65.2113C70.2728 65.1008 70.1306 65.0296 70.0532 65.1121C61.6226 74.0879 63.5486 83.0928 65.3782 88.4225C65.4011 88.4882 65.3604 88.5567 65.2902 88.5617C62.8674 88.7446 54.5957 86.3127 55.0021 77.027C55.0071 76.9116 54.8482 76.8624 54.788 76.9613C42.4385 97.1025 47.5956 112.268 56.4816 124.028C56.5429 124.11 56.4582 124.221 56.3579 124.2C2.30294 112.945 34.4349 57.5527 44.146 45.1142C44.2179 45.0225 44.345 45.1157 44.3222 45.2295C43.0121 51.8215 42.8259 53.2693 45.8708 58.3201C45.9377 58.431 46.1261 58.3483 46.0977 58.2221C43.0461 44.5422 66.6481 33.4491 54.4998 14.7816C54.4368 14.6848 54.5422 14.5574 54.6442 14.6124C75.712 25.971 82.4902 32.548 87.8843 38.462C92.5056 43.5286 102.879 55.3399 97.0117 73.2965C96.9738 73.4126 97.1226 73.501 97.2007 73.4071C100.054 69.9639 101.668 65.9472 101.098 59.3317C101.089 59.2306 101.213 59.1714 101.287 59.2409C112.952 70.0938 114.348 81.6141 114.37 81.7959C114.371 81.8014 114.369 81.7931 114.371 81.7986Z" stroke="#AC55FE" stroke-opacity="0.9" stroke-width="10" stroke-linejoin="round"/>
</g>
<g filter="url(#filter1_f_1322_33)">
<path d="M114.371 81.7986C114.42 81.9782 122.201 110.493 81.4037 124.685C81.2844 124.727 81.188 124.566 81.2867 124.487C94.7383 113.831 87.8246 98.5265 83.3688 92.1419C77.4173 83.6144 68.4895 73.9281 70.2505 65.2113C70.2728 65.1008 70.1306 65.0296 70.0532 65.1121C61.6226 74.0879 63.5486 83.0928 65.3782 88.4225C65.4011 88.4882 65.3604 88.5567 65.2902 88.5617C62.8674 88.7446 54.5957 86.3127 55.0021 77.027C55.0071 76.9116 54.8482 76.8624 54.788 76.9613C42.4385 97.1025 47.5956 112.268 56.4816 124.028C56.5429 124.11 56.4582 124.221 56.3579 124.2C2.30294 112.945 34.4349 57.5527 44.146 45.1142C44.2179 45.0225 44.345 45.1157 44.3222 45.2295C43.0121 51.8215 42.8259 53.2693 45.8708 58.3201C45.9377 58.431 46.1261 58.3483 46.0977 58.2221C43.0461 44.5422 66.6481 33.4491 54.4998 14.7816C54.4368 14.6848 54.5422 14.5574 54.6442 14.6124C75.712 25.971 82.4902 32.548 87.8843 38.462C92.5056 43.5286 102.879 55.3399 97.0117 73.2965C96.9738 73.4126 97.1226 73.501 97.2007 73.4071C100.054 69.9639 101.668 65.9472 101.098 59.3317C101.089 59.2306 101.213 59.1714 101.287 59.2409C112.952 70.0938 114.348 81.6141 114.37 81.7959C114.371 81.8014 114.369 81.7931 114.371 81.7986Z" stroke="white" stroke-opacity="0.9" stroke-width="3" stroke-linejoin="round"/>
</g>
<path d="M114.371 81.7986C114.42 81.9782 122.201 110.493 81.4037 124.685C81.2844 124.727 81.188 124.566 81.2867 124.487C94.7383 113.831 87.8246 98.5265 83.3688 92.1419C77.4173 83.6144 68.4895 73.9281 70.2505 65.2113C70.2728 65.1008 70.1306 65.0296 70.0532 65.1121C61.6226 74.0879 63.5486 83.0928 65.3782 88.4225C65.4011 88.4882 65.3604 88.5567 65.2902 88.5617C62.8674 88.7446 54.5957 86.3127 55.0021 77.027C55.0071 76.9116 54.8482 76.8624 54.788 76.9613C42.4385 97.1025 47.5956 112.268 56.4816 124.028C56.5429 124.11 56.4582 124.221 56.3579 124.2C2.30294 112.945 34.4349 57.5527 44.146 45.1142C44.2179 45.0225 44.345 45.1157 44.3222 45.2295C43.0121 51.8215 42.8259 53.2693 45.8708 58.3201C45.9377 58.431 46.1261 58.3483 46.0977 58.2221C43.0461 44.5422 66.6481 33.4491 54.4998 14.7816C54.4368 14.6848 54.5422 14.5574 54.6442 14.6124C75.712 25.971 82.4902 32.548 87.8843 38.462C92.5056 43.5286 102.879 55.3399 97.0117 73.2965C96.9738 73.4126 97.1226 73.501 97.2007 73.4071C100.054 69.9639 101.668 65.9472 101.098 59.3317C101.089 59.2306 101.213 59.1714 101.287 59.2409C112.952 70.0938 114.348 81.6141 114.37 81.7959C114.371 81.8014 114.369 81.7931 114.371 81.7986Z" stroke="white" stroke-width="3" stroke-linejoin="round"/>
<defs>
<filter id="filter0_f_1322_33" x="12.8008" y="1.58838" width="115.194" height="136.115" filterUnits="userSpaceOnUse" color-interpolation-filters="sRGB">
<feFlood flood-opacity="0" result="BackgroundImageFix"/>
<feBlend mode="normal" in="SourceGraphic" in2="BackgroundImageFix" result="shape"/>
<feGaussianBlur stdDeviation="4" result="effect1_foregroundBlur_1322_33"/>
</filter>
<filter id="filter1_f_1322_33" x="19.4544" y="8.24981" width="101.886" height="122.791" filterUnits="userSpaceOnUse" color-interpolation-filters="sRGB">
<feFlood flood-opacity="0" result="BackgroundImageFix"/>
<feBlend mode="normal" in="SourceGraphic" in2="BackgroundImageFix" result="shape"/>
<feGaussianBlur stdDeviation="2.42294" result="effect1_foregroundBlur_1322_33"/>
</filter>
</defs>
</svg>
