<svg width="1546" height="1546" viewBox="0 0 1546 1546" fill="none" xmlns="http://www.w3.org/2000/svg">
<rect x="261" y="261" width="1024" height="1024" rx="0.732" fill="#1E1B4D"/>
<g filter="url(#filter0_f_1307_266)">
<rect x="307" y="307" width="932" height="932" rx="466" fill="url(#paint0_radial_1307_266)" fill-opacity="0.9"/>
</g>
<g filter="url(#filter1_f_1307_266)">
<path d="M657.086 431.213C657.091 431.216 657.096 431.219 657.101 431.221M657.086 431.213L657.076 431.208L657.101 431.221M657.086 431.213C657.091 431.216 657.096 431.219 657.101 431.221M657.086 431.213L657.101 431.221M770.76 744.064L770.229 743.564L770.76 744.064ZM770.76 744.064L771.532 744.22L770.76 744.064ZM999.141 703.285C999.144 703.322 999.147 703.358 999.151 703.396C999.149 703.374 999.147 703.353 999.145 703.332L999.141 703.285ZM992.828 687.218C988.663 683.344 983.726 681.278 978.734 680.749C964.75 617.135 925.648 573.266 905.709 551.406C867.999 510.061 820.984 465.046 679.865 388.963C667.661 382.382 655.307 387.597 649.233 394.81C643.372 401.769 640.506 413.688 647.404 424.292L647.406 424.296C664.638 450.774 668.338 472.894 666.027 492.523C663.606 513.083 654.353 533.121 641.607 554.839C637.696 561.504 633.185 568.717 628.503 576.202C624.749 582.204 620.885 588.382 617.132 594.593C616.04 593.487 614.846 592.485 613.568 591.606C609.549 588.842 603.747 586.661 596.936 587.408C589.706 588.201 583.932 592.019 580.262 596.7L580.232 596.738C546.871 639.47 475.117 755.304 457.824 872.045C449.11 930.873 453.848 992.633 487.338 1045.24C521.084 1098.25 581.331 1137.77 674.899 1157.25C685.432 1159.44 694.824 1154.59 699.921 1147.68C705.272 1140.42 707.416 1128.37 699.81 1118.22L699.757 1118.15C671.98 1081.39 651.309 1040.97 646.286 995.343C642.67 962.492 647.012 925.543 664.389 883.75C669.934 891.355 676.436 897.736 683.37 902.954C702.808 917.581 726.108 923.423 740.535 922.35C758.143 921.063 766.844 903.607 762.05 889.681C756.477 873.443 751.44 853.452 753.299 831.593C753.862 824.974 755.069 818.035 757.191 810.841C762.226 823.148 768.533 834.936 775.186 845.986C787.54 866.506 803.442 887.98 818.005 907.646C825.385 917.612 832.421 927.114 838.478 935.792C851.831 954.925 868.32 986.852 871.751 1020.7C875.03 1053.03 866.652 1087.41 829.507 1116.84L829.471 1116.87C817.677 1126.25 818.768 1140.72 823.642 1148.89C828.407 1156.88 839.794 1164.26 853.094 1159.61C993.547 1110.75 1054.23 1035.51 1077.81 968.64C1099 908.59 1088.89 859.121 1086.47 849.149C1084.56 836.163 1070.33 759.32 992.833 687.222L992.828 687.218ZM837.213 1114.32C837.254 1114.3 837.294 1114.29 837.334 1114.27C837.322 1114.28 837.31 1114.28 837.297 1114.29L837.213 1114.32ZM736.969 874.483C736.983 874.482 736.993 874.481 737.001 874.48C737.028 874.478 737.054 874.477 737.081 874.475L736.969 874.483Z" stroke="#AC55FE" stroke-opacity="0.9" stroke-width="48" stroke-linejoin="round"/>
</g>
<g filter="url(#filter2_f_1307_266)">
<path d="M1062.88 853.754C1063.2 854.94 1114.59 1043.24 845.183 1136.95C844.395 1137.23 843.758 1136.17 844.409 1135.65C933.238 1065.28 887.583 964.217 858.159 922.057C818.858 865.745 759.903 801.781 771.532 744.22C771.679 743.489 770.74 743.019 770.229 743.564C714.557 802.836 727.276 862.3 739.358 897.495C739.509 897.929 739.24 898.382 738.776 898.415C722.777 899.623 668.155 883.563 670.838 822.245C670.872 821.482 669.822 821.158 669.425 821.811C587.874 954.814 621.929 1054.96 680.609 1132.62C681.013 1133.16 680.454 1133.89 679.791 1133.75C322.838 1059.43 535.022 693.646 599.15 611.507C599.625 610.902 600.464 611.518 600.313 612.269C591.662 655.8 590.433 665.36 610.54 698.713C610.981 699.445 612.226 698.899 612.038 698.066C591.887 607.73 747.744 534.477 667.522 411.205C667.106 410.566 667.801 409.724 668.475 410.088C807.597 485.095 852.357 528.526 887.977 567.579C918.494 601.037 986.995 679.033 948.25 797.611C948 798.377 948.983 798.961 949.498 798.34C968.343 775.603 979 749.079 975.234 705.393C975.175 704.726 975.992 704.335 976.485 704.793C1053.52 776.461 1062.73 852.536 1062.88 853.736C1062.88 853.773 1062.87 853.718 1062.88 853.754Z" stroke="white" stroke-opacity="0.9" stroke-width="32" stroke-linejoin="round"/>
</g>
<path d="M1062.88 853.754C1063.2 854.94 1114.59 1043.24 845.183 1136.95C844.395 1137.23 843.758 1136.17 844.409 1135.65C933.238 1065.28 887.583 964.217 858.159 922.057C818.858 865.745 759.903 801.781 771.532 744.22C771.679 743.489 770.74 743.019 770.229 743.564C714.557 802.836 727.276 862.3 739.358 897.495C739.509 897.929 739.24 898.382 738.776 898.415C722.777 899.623 668.155 883.563 670.838 822.245C670.872 821.482 669.822 821.158 669.425 821.811C587.874 954.814 621.929 1054.96 680.609 1132.62C681.013 1133.16 680.454 1133.89 679.791 1133.75C322.838 1059.43 535.022 693.646 599.15 611.507C599.625 610.902 600.464 611.518 600.313 612.269C591.662 655.8 590.433 665.36 610.54 698.713C610.981 699.445 612.226 698.899 612.038 698.066C591.887 607.73 747.744 534.477 667.522 411.205C667.106 410.566 667.801 409.724 668.475 410.088C807.597 485.095 852.357 528.526 887.977 567.579C918.494 601.037 986.995 679.033 948.25 797.611C948 798.377 948.983 798.961 949.498 798.34C968.343 775.603 979 749.079 975.234 705.393C975.175 704.726 975.992 704.335 976.485 704.793C1053.52 776.461 1062.73 852.536 1062.88 853.736C1062.88 853.773 1062.87 853.718 1062.88 853.754Z" stroke="white" stroke-opacity="0.9" stroke-width="20" stroke-linejoin="round"/>
<defs>
<filter id="filter0_f_1307_266" x="0.511108" y="0.511108" width="1544.98" height="1544.98" filterUnits="userSpaceOnUse" color-interpolation-filters="sRGB">
<feFlood flood-opacity="0" result="BackgroundImageFix"/>
<feBlend mode="normal" in="SourceGraphic" in2="BackgroundImageFix" result="shape"/>
<feGaussianBlur stdDeviation="153.244" result="effect1_foregroundBlur_1307_266"/>
</filter>
<filter id="filter1_f_1307_266" x="362.008" y="293.896" width="820.993" height="959.219" filterUnits="userSpaceOnUse" color-interpolation-filters="sRGB">
<feFlood flood-opacity="0" result="BackgroundImageFix"/>
<feBlend mode="normal" in="SourceGraphic" in2="BackgroundImageFix" result="shape"/>
<feGaussianBlur stdDeviation="34" result="effect1_foregroundBlur_1307_266"/>
</filter>
<filter id="filter2_f_1307_266" x="430.003" y="361.965" width="684.998" height="823.073" filterUnits="userSpaceOnUse" color-interpolation-filters="sRGB">
<feFlood flood-opacity="0" result="BackgroundImageFix"/>
<feBlend mode="normal" in="SourceGraphic" in2="BackgroundImageFix" result="shape"/>
<feGaussianBlur stdDeviation="16" result="effect1_foregroundBlur_1307_266"/>
</filter>
<radialGradient id="paint0_radial_1307_266" cx="0" cy="0" r="1" gradientUnits="userSpaceOnUse" gradientTransform="translate(-308.12 -802.08) rotate(52.8382) scale(2561.17 3016.34)">
<stop stop-color="#1E58F0"/>
<stop offset="1" stop-color="#D67BBC"/>
</radialGradient>
</defs>
</svg>
