<?xml version="1.0" encoding="UTF-8"?>
<svg xmlns:xlink="http://www.w3.org/1999/xlink" xmlns="http://www.w3.org/2000/svg" data-name="Layer 1" viewBox="0 0 31.004 48.429" width="31.004" height="48.429" class="sm:h-11 h-7 w-max"><path d="M5.727 7.531C4.39 8.707 3.056 9.872 1.72 11.048l4.062 2.765.85-.763c1.638-1.472 3.276-2.934 4.913-4.406.924-.827 1.848-1.653 2.763-2.49V0c-.274.244-.558.487-.832.73-2.58 2.268-5.16 4.524-7.74 6.79zM17.794 6.896c1.637 1.472 3.275 2.934 4.912 4.406.934.837 1.867 1.674 2.8 2.521.1-.063.192-.127.293-.201 1.262-.858 2.516-1.716 3.778-2.563l-.906-.795c-2.58-2.267-5.16-4.523-7.74-6.79C19.615 2.32 18.307 1.176 16.99.021v6.154c.274.244.54.488.814.731zM26.65 18.103V32.01c.128.074.256.148.393.222 1.317.742 2.644 1.483 3.961 2.225V13.855c-1.445.9-2.9 1.811-4.345 2.712v1.536zM13.32 41.544c-1.637-1.472-3.275-2.934-4.913-4.407-.933-.836-1.875-1.673-2.799-2.52-.1.063-.192.127-.293.2-1.262.859-2.516 1.717-3.778 2.564l.906.794c2.58 2.267 5.16 4.524 7.74 6.79 1.317 1.155 2.625 2.299 3.942 3.453v-6.154c-.274-.243-.54-.487-.814-.73zM25.387 40.898c1.336-1.176 2.671-2.341 4.007-3.517l-4.062-2.765-.85.763c-1.638 1.472-3.276 2.934-4.913 4.407-.924.826-1.848 1.652-2.763 2.489v6.154c.274-.244.558-.487.832-.73l7.74-6.79zM.01 27.858v6.6c1.445-.816 2.9-1.632 4.345-2.447V16.567c-.128-.085-.256-.16-.385-.244A527.034 527.034 0 000 13.855v14.003zM14.958 10.031c-1.61 1.44-3.23 2.881-4.84 4.322-.915.815-1.83 1.631-2.735 2.447v15.285c.265.243.53.476.805.72 1.61 1.44 3.23 2.881 4.84 4.322.914.815 1.82 1.631 2.735 2.447.265-.244.53-.477.796-.71 1.61-1.44 3.23-2.881 4.84-4.322.914-.815 1.829-1.631 2.735-2.447V16.81c-.266-.243-.531-.476-.805-.72-1.61-1.44-3.23-2.881-4.84-4.322-.915-.815-1.82-1.631-2.735-2.447-.266.244-.53.477-.796.71z" fill="#EA3B4D"></path></svg>