<?xml version="1.0" encoding="UTF-8"?>
<!-- Generated by Pixelmator Pro 3.2.3 -->
<svg width="500" height="500" viewBox="0 0 500 500" xmlns="http://www.w3.org/2000/svg" xmlns:xlink="http://www.w3.org/1999/xlink">
    <g id="Group-copy">
        <linearGradient id="linearGradient1" x1="-32.312763" y1="109.173274" x2="70.747578" y2="160.144445" gradientUnits="userSpaceOnUse">
            <stop offset="1e-05" stop-color="#006678" stop-opacity="1"/>
            <stop offset="1" stop-color="#4fa8ff" stop-opacity="1"/>
        </linearGradient>
        <path id="Path" fill="url(#linearGradient1)" stroke="none" d="M 37.197079 163.954224 C 25.363216 163.954224 15.762652 173.554749 15.762652 185.414368 L 15.762652 314.097931 C 15.762652 325.931824 25.363216 335.53241 37.197079 335.53241 C 37.197079 335.53241 37.197079 335.53241 37.197079 335.53241 C 49.030945 335.53241 58.631519 325.931824 58.657177 314.097931 C 58.657177 314.097931 58.657177 314.097931 58.657177 314.097931 L 58.657177 185.414368 C 58.631519 173.554749 49.030945 163.954224 37.197079 163.954224 Z M 108.687981 71.028931 C 96.854118 71.028931 87.25354 80.629486 87.25354 92.463318 C 87.25354 92.463318 87.25354 92.463318 87.25354 92.463318 L 87.25354 407.023315 C 87.25354 418.857208 96.854118 428.457764 108.687981 428.457764 C 108.687981 428.457764 108.687981 428.457764 108.687981 428.457764 C 120.521843 428.457764 130.122421 418.857208 130.148102 407.023315 C 130.148102 407.023315 130.148102 407.023315 130.148102 407.023315 L 130.148102 92.463318 C 130.148102 80.629486 120.547523 71.028931 108.687981 71.028931 Z M 180.178894 -0.487701 C 168.319351 -0.487701 158.718781 9.112854 158.718781 20.972443 L 158.718781 20.972443 L 158.718781 478.539917 C 158.718781 490.399445 168.319351 500 180.178894 500 C 192.038422 500 201.638992 490.399445 201.638992 478.539917 L 201.638992 20.972443 C 201.638992 9.13855 192.038422 -0.462006 180.178894 -0.487701 Z M 251.669769 124.653473 C 239.835907 124.653473 230.235352 134.254028 230.209686 146.087921 L 230.209686 353.424377 C 230.209686 365.258301 239.810272 374.884521 251.669769 374.884521 C 263.503632 374.884521 273.129913 365.283905 273.129913 353.424377 L 273.129913 146.087921 C 273.129913 134.254028 263.529327 124.653473 251.669769 124.653473 Z M 323.160706 -0.487701 C 311.326843 -0.487701 301.726257 9.112854 301.726257 20.972443 L 301.726257 478.539917 C 301.726257 490.373749 311.326843 499.974304 323.186401 499.974304 C 335.020233 499.974304 344.620819 490.373749 344.620819 478.539917 L 344.620819 20.972443 C 344.620819 9.13855 335.020233 -0.462006 323.160706 -0.487701 C 323.160706 -0.487701 323.160706 -0.487701 323.160706 -0.487701 Z M 394.677246 106.761536 C 382.843445 106.761536 373.242828 116.36203 373.242828 128.221649 L 373.242828 371.290741 C 372.96048 383.124573 382.329987 392.956146 394.189545 393.238556 C 406.023407 393.520874 415.85498 384.151367 416.13739 372.291809 C 416.13739 371.958099 416.13739 371.62439 416.13739 371.290741 L 416.13739 128.221649 C 416.111725 116.36203 406.511108 106.761536 394.677246 106.761536 Z M 466.168182 167.5224 C 454.33432 167.5224 444.733734 177.122955 444.708099 188.982483 L 444.708099 310.529846 C 444.913452 322.363678 454.66806 331.810303 466.501923 331.630585 C 478.079071 331.425171 487.397247 322.107056 487.6026 310.529846 L 487.6026 188.982483 C 487.6026 177.148621 478.002045 167.548004 466.168182 167.5224 Z"/>
    </g>
</svg>
