<?xml version="1.0" encoding="UTF-8"?>
<!-- Generated by Pixelmator Pro 3.6.3 -->
<svg width="200" height="200" viewBox="0 0 200 200" xmlns="http://www.w3.org/2000/svg">
    <g id="Group-copy">
        <linearGradient id="linearGradient1" x1="89.592275" y1="60.761188" x2="-11.727369" y2="178.163996" gradientUnits="userSpaceOnUse">
            <stop offset="1e-05" stop-color="#092c3e" stop-opacity="1"/>
            <stop offset="0.547521" stop-color="#00e8eb" stop-opacity="1"/>
            <stop offset="1" stop-color="#8bffff" stop-opacity="1"/>
        </linearGradient>
        <path id="Path" fill="url(#linearGradient1)" stroke="none" d="M 100.85685 61.226685 C 100.85685 61.226685 80.721642 76.090767 72.88382 82.836906 C 65.045372 89.585129 58.074028 96.255768 58.074028 96.255768 C 58.074028 96.255768 50.703842 103.581001 43.94717 111.804657 C 37.190434 120.029007 32.772366 129.212036 32.772366 129.212036 C 32.772366 129.212036 30.330965 136.469391 30.209883 144.048843 C 30.088593 151.630371 30.807404 154.90889 31.696611 160.554352 C 32.58596 166.199799 32.944016 167.209747 32.944016 167.209747 C 32.944016 167.209747 30.025906 164.299042 23.057825 156.47023 C 15.698649 148.205704 7.740572 131.478546 7.740572 131.478546 C 7.740572 131.478546 5.893297 127.71859 4.48253 123.141281 C 3.07213 118.563271 1.072005 112.225121 1.072005 112.225121 C 1.072005 112.225121 -0.734511 104.119225 0.342689 97.529633 C 1.41953 90.940041 1.931479 88.816933 5.348348 82.564674 C 8.765204 76.309654 15.594261 70.405075 15.594261 70.405075 C 15.594261 70.405075 20.04537 66.323303 26.622217 61.722778 C 33.199062 57.124756 34.172993 56.772247 40.317112 54.120682 C 46.461441 51.46669 53.883999 50.295837 53.883999 50.295837 C 53.883999 50.295837 61.018883 48.90831 69.388489 49.439606 C 73.382553 49.691391 78.027756 50.497131 78.027756 50.497131 C 78.027756 50.497131 82.787254 51.720917 86.795181 53.428268 C 94.461906 56.694183 100.85685 61.226685 100.85685 61.226685 Z"/>
        <linearGradient id="linearGradient2" x1="162.149833" y1="103.96614" x2="22.922264" y2="-14.33149" gradientUnits="userSpaceOnUse">
            <stop offset="1e-05" stop-color="#092c3e" stop-opacity="1"/>
            <stop offset="0.547521" stop-color="#00e8eb" stop-opacity="1"/>
            <stop offset="1" stop-color="#8bffff" stop-opacity="1"/>
        </linearGradient>
        <path id="path1" fill="url(#linearGradient2)" stroke="none" d="M 104.543373 60.122879 C 104.543373 60.122879 96.926514 53.228287 85.361305 49.201935 C 73.796089 45.175583 58.062183 45.147797 58.062183 45.147797 C 58.062183 45.147797 45.887062 45.064758 35.999138 48.685669 C 26.111149 52.306732 22.078772 56.501816 22.078772 56.501816 C 21.864868 56.637787 15.140963 62.288361 14.41128 62.932999 L 0.267201 75.69455 C 0.267201 75.69455 1.221128 71.189682 4.553517 64.740921 C 7.88576 58.29216 9.147847 56.499313 13.59584 49.901978 C 18.044109 43.304688 25.827211 35.317383 25.827211 35.317383 C 25.827211 35.317383 35.522568 25.763611 47.71764 18.71553 C 59.139389 12.110764 70.30838 9.353439 70.30838 9.353439 L 88.16671 6.132843 C 88.16671 6.132843 102.051056 4.438187 113.499893 5.755127 C 124.948044 7.072067 125.155151 7.341507 134.494751 10.662827 C 143.83432 13.981659 151.585556 18.962341 151.585556 18.962341 C 151.585556 18.962341 161.746689 24.638123 168.74704 32.585052 C 175.748093 40.532257 178.554886 50.105972 178.554886 50.105972 C 178.554886 50.105972 180.411316 58.851288 177.659241 67.918793 C 174.909256 76.986427 170.081177 84.145409 168.304413 86.321159 C 167.097748 87.798676 165.683258 89.853897 162.32785 93.132416 C 160.741577 94.683357 155.611511 99.059792 155.611511 99.059792 C 155.428619 99.235733 153.58606 100.774208 152.775604 101.338753 L 152.199295 101.741211 C 151.38884 102.305756 150.684372 102.718597 150.624802 102.66526 C 150.624802 102.66526 105.299095 60.565979 104.543373 60.122879 Z"/>
        <linearGradient id="linearGradient3" x1="35.097252" y1="151.002102" x2="200.002066" y2="151.002102" gradientUnits="userSpaceOnUse">
            <stop offset="1e-05" stop-color="#092c3e" stop-opacity="1"/>
            <stop offset="0.547521" stop-color="#00e8eb" stop-opacity="1"/>
            <stop offset="1" stop-color="#8bffff" stop-opacity="1"/>
        </linearGradient>
        <path id="path2" fill="url(#linearGradient3)" stroke="none" d="M 61.231953 106.222244 C 61.231953 106.222244 50.944691 115.689972 45.413811 122.488762 C 39.882999 129.290314 39.108501 133.419464 39.108501 133.419464 C 38.099869 135.273102 36.922222 138.415863 36.477928 140.435059 L 36.391758 140.82782 C 35.94767 142.849792 35.052086 145.365662 34.685169 149.610474 C 34.318039 153.855988 34.923733 157.807114 34.923733 157.807114 C 35.86351 165.628326 40.421432 171.63121 40.421432 171.63121 C 40.421432 171.63121 44.951023 178.562286 52.628284 183.503281 C 60.305336 188.447021 71.420853 191.970062 71.420853 191.970062 C 71.420853 191.970062 75.422539 193.425415 80.195198 194.261505 C 84.967163 195.100357 90.509407 195.317856 90.509407 195.317856 C 90.509407 195.317856 102.296967 196.128998 111.749466 195.351807 C 121.201263 194.57251 128.31868 192.209045 128.31868 192.209045 C 130.568558 191.731079 134.121384 190.698975 136.254181 189.900299 L 140.294662 188.391617 C 142.42746 187.595016 145.778015 186.109894 147.777832 185.075684 L 161.43428 178.016449 C 169.163361 173.114258 169.463989 172.467285 175.074799 167.34552 C 180.685608 162.221649 183.87616 157.525208 183.87616 157.525208 C 183.87616 157.525208 186.858902 154.306931 189.938614 149.69429 C 193.016953 145.078186 192.985779 144.605087 195.502319 139.341995 C 198.018875 134.081665 200 128.645416 200 128.645416 C 200 128.645416 188.97023 138.765671 181.322189 144.428436 C 178.070007 146.836243 176.284241 147.898834 176.284241 147.898834 C 176.284241 147.898834 171.300323 150.756897 167.040237 152.403412 C 163.200653 153.884399 161.473068 154.171173 159.588242 154.525833 C 157.832977 154.858337 155.958527 155.281555 151.664536 155.8759 C 146.559387 156.58313 142.573624 156.90802 142.573624 156.90802 C 142.573624 156.90802 139.179428 157.162903 135.779694 156.858139 C 127.809555 156.142578 126.76844 156.001968 120.752403 154.186417 C 114.736359 152.368088 109.730255 148.958664 109.730255 148.958664 C 109.730255 148.958664 101.711639 144.141663 96.902962 139.883682 C 92.094284 135.625702 91.196548 135.099243 85.258095 129.546616 C 79.319633 123.99675 77.39949 121.441414 71.120911 115.777954 C 64.842758 110.117256 61.231953 106.222244 61.231953 106.222244 Z"/>
    </g>
</svg>
