<?xml version="1.0" encoding="UTF-8"?>
<!-- Generated by Pixelmator Pro 3.6.3 -->
<svg width="300" height="300" viewBox="0 0 300 300" xmlns="http://www.w3.org/2000/svg">
    <g id="Group-copy">
        <linearGradient id="linearGradient1" x1="40.78" y1="157.03" x2="43.35" y2="249.96" gradientUnits="userSpaceOnUse">
            <stop offset="1e-05" stop-color="#5bc863" stop-opacity="1"/>
            <stop offset="1" stop-color="#339b4c" stop-opacity="1"/>
        </linearGradient>
        <path id="Path" fill="url(#linearGradient1)" stroke="none" d="M 30.790001 240.029999 L 30.790001 157.309998 C 30.790001 157.309998 48.309998 166.550018 53.5 172.850006 L 53.5 249.670013 C 53.5 249.670013 37.199997 240.440002 30.790001 240.029999 Z"/>
        <path id="path1" fill="#cbd6d9" stroke="none" d="M 64.100006 253.970001 L 64.100006 118.26001 L 89.839996 102.799988 L 89.839996 265.570007 L 64.100006 253.970001 Z"/>
        <linearGradient id="linearGradient2" x1="98.71" y1="95.49" x2="103.81" y2="277.13" gradientUnits="userSpaceOnUse">
            <stop offset="1e-05" stop-color="#5bc863" stop-opacity="1"/>
            <stop offset="1" stop-color="#339b4c" stop-opacity="1"/>
        </linearGradient>
        <path id="path2" fill="url(#linearGradient2)" stroke="none" d="M 112.550003 276.880005 L 112.550003 102.630005 C 112.550003 102.630005 110.949997 86.040009 89.839996 102.809998 L 89.839996 265.579987 C 89.839996 265.579987 112.070007 273.109985 112.550003 276.880005 Z"/>
        <path id="path3" fill="#60c763" stroke="none" d="M 92.869995 57.670013 L 124.669998 39.200012 L 124.669998 66.279999 C 124.669998 66.279999 105.100006 75.25 92.869995 85.380005 L 92.869995 57.660004 Z"/>
        <path id="path4" fill="#288d43" stroke="none" d="M 124.669998 86.529999 L 124.669998 66.279999 C 113.270004 71.269989 102.570007 77.540009 92.869995 85.399994 C 94.369995 86.600006 96.229996 87.670013 98.149994 87.670013 C 100.070007 87.670013 101.919998 87.019989 103.429993 85.809998 L 112.119995 79.890015 C 112.119995 79.890015 117.970001 74.549988 124.669998 86.529999 Z"/>
        <path id="path5" fill="#ffffff" stroke="none" d="M 181.029999 1.75 L 140.449997 28.23999 C 140.449997 28.23999 127.770004 34.799988 125.380005 46.790009 L 124.679993 282.980011 L 125.979996 175.410004 C 126.210007 167.77002 127.330002 160.179993 129.320007 152.790009 C 134.229996 133.110016 149.539993 98.519989 183.740005 82.350006 L 183.740005 4.380005 C 183.740005 4.380005 183.740005 0.599976 181.050003 1.75 Z"/>
        <path id="path6" fill="#d0d8dc" stroke="none" d="M 150.410004 299.639984 L 150.410004 116.429993 L 183.720001 96.299988 L 183.720001 82.360016 C 183.720001 82.360016 134.779999 101.029999 126.369995 168.170013 C 126.130005 170.070007 126 171.990021 125.990005 173.899994 L 124.669998 282.540009 C 124.669998 282.540009 146.860001 294.910004 150.410004 299.639984 Z"/>
        <linearGradient id="linearGradient3" x1="159.16" y1="128.69" x2="163.47" y2="278.1" gradientUnits="userSpaceOnUse">
            <stop offset="1e-05" stop-color="#5bc863" stop-opacity="1"/>
            <stop offset="1" stop-color="#339b4c" stop-opacity="1"/>
        </linearGradient>
        <path id="path7" fill="url(#linearGradient3)" stroke="none" d="M 173.119995 282.440002 C 173.119995 282.440002 156.339996 291.320007 150.410004 299.649994 L 150.410004 120.970001 C 150.410004 120.970001 167.190002 129.990021 173.119995 138.179993 L 173.119995 282.429993 Z"/>
        <path id="path8" fill="#ffffff" stroke="none" d="M 237.910004 84.940002 L 198.649994 108.730011 C 198.649994 108.730011 186.740005 115.410004 186.740005 124.589996 C 186.740005 126.179993 187.580002 275.410004 187.580002 275.410004 L 188.829987 247.619995 C 188.829987 247.619995 197.26001 239.990021 202.070007 208.440002 C 202.070007 208.440002 209.529999 165.809998 239.730011 149.730011 L 239.730011 86.140015 C 239.730011 86.140015 239.730011 84.619995 237.899994 84.929993 Z"/>
        <path id="path9" fill="#d0dadb" stroke="none" d="M 239.73999 167.309998 L 239.73999 149.740021 C 239.73999 149.740021 212.549988 161.910004 203.480011 198.75 C 194.410004 235.580017 193.339996 238.580017 188.100006 247.570007 L 187.5 248.170013 L 187.5 275.429993 L 214 261.799988 L 214 184.580017 L 239.73999 167.320007 Z"/>
        <path id="path10" fill="#bac7cc" stroke="none" d="M 233.690002 202.950012 L 233.690002 254.360016 L 214.01001 261.790009 L 214.01001 190.619995 L 233.690002 202.950012 Z"/>
        <linearGradient id="linearGradient4" x1="256.12" y1="177.36" x2="258.19" y2="249.32" gradientUnits="userSpaceOnUse">
            <stop offset="1e-05" stop-color="#5bc863" stop-opacity="1"/>
            <stop offset="1" stop-color="#339b4c" stop-opacity="1"/>
        </linearGradient>
        <path id="path11" fill="url(#linearGradient4)" stroke="none" d="M 245.799988 190.899994 L 245.799988 249.670013 C 245.799988 249.670013 262.470001 238.700012 268.51001 241.690002 L 268.51001 176.990021 C 260.51001 180.850006 252.899994 185.51001 245.799988 190.899994 Z"/>
    </g>
</svg>
