<?xml version="1.0" encoding="UTF-8"?>
<!-- Generated by Pixelmator Pro 3.3.5 -->
<svg width="320" height="320" viewBox="0 0 320 320" xmlns="http://www.w3.org/2000/svg">
    <path id="Shape" fill="#000000" fill-rule="evenodd" stroke="none" d="M 12 294 C 12 209.237381 12 209.237381 8.724377 206.738937 C 6.922784 205.364807 4.222784 201.987991 2.724377 199.234924 C 0.076071 194.36911 -0 193.776184 0 178 C 0 162.223816 0.076071 161.63089 2.724377 156.765076 C 4.222784 154.012009 6.922784 150.635208 8.724377 149.261063 C 12 146.762619 12 146.762619 12 86.302948 L 12 25.843262 L 58.25 26.236328 C 104.5 26.629364 104.5 26.629364 114.421059 29.300476 C 119.877647 30.769592 127.2547 33.334534 130.814529 35.000397 C 134.374344 36.666229 140.101028 40.037292 143.540482 42.491638 C 146.97995 44.945984 152.08403 49.55191 154.882874 52.727051 L 159.97171 58.5 L 159.985855 42.171631 L 160 25.843262 L 206.25 26.236328 C 252.5 26.629364 252.5 26.629364 262.326935 29.276611 C 267.73175 30.732574 274.64093 33.062439 277.680664 34.454071 C 280.720428 35.845734 286.298035 39.03894 290.075409 41.55014 C 293.852783 44.06134 299.240814 48.677338 302.048798 51.807953 C 304.961884 55.055725 309.027649 61.364777 311.516876 66.5 C 313.972931 71.566757 316.561401 78.86853 317.439758 83.20784 C 318.428467 88.092148 318.993652 96.151184 318.982635 105.20784 C 318.97229 113.728867 318.387054 122.228561 317.533356 126.257263 C 316.745789 129.97377 314.484528 136.091476 312.508362 139.852158 C 310.532166 143.612854 307.408295 148.150421 305.566406 149.935638 C 302.217529 153.181488 302.217529 153.181488 306.92804 159.404922 C 309.518829 162.82782 312.825775 168.593994 314.276825 172.218658 C 315.727875 175.843307 317.449341 182.564438 318.102295 187.154465 C 318.863647 192.506393 319.099548 202.31546 318.759949 214.5 C 318.332336 229.842255 317.818726 234.909393 316.09201 240.820999 C 314.915894 244.847549 312.42865 251.170197 310.564789 254.871323 C 308.700958 258.572449 305.16156 264.073547 302.699493 267.095978 C 300.237427 270.118408 295.647644 274.535736 292.5 276.912262 C 289.352325 279.288757 283.534576 282.731262 279.571655 284.562256 C 275.608734 286.393219 268.796417 288.801788 264.433167 289.914612 C 260.069916 291.027435 252.686798 292.401886 248.02623 292.968964 C 243.365662 293.536041 221.653168 294 199.77623 294 L 160 294 L 159.988907 277.25 C 159.977829 260.5 159.977829 260.5 157.324951 264 C 155.865875 265.924988 152.02243 270.079559 148.783951 273.23233 C 144.749985 277.159546 139.999359 280.390411 133.697906 283.492249 C 128.639053 285.982391 121.125 288.867767 117 289.904175 C 112.875 290.940582 105.449997 292.284851 100.5 292.891449 C 95.327179 293.52536 74.596611 293.995575 51.75 293.997192 L 12 294 Z M 79 181.727478 L 79 233.244629 L 87.75 232.775726 C 92.5625 232.517822 97.731186 231.718414 99.235977 230.999268 C 100.740761 230.280136 102.692436 228.592163 103.573021 227.248215 C 104.495705 225.840027 105.560532 220.926804 106.086166 215.652344 C 106.587814 210.618561 106.734177 203.574997 106.41143 200 C 106.088676 196.425003 105.39753 191.815506 104.875557 189.756683 C 104.189827 187.051956 103.036491 185.553116 100.718712 184.354538 C 98.705093 183.313263 94.065361 182.515503 88.255455 182.211609 L 79 181.727478 Z M 227 181.727478 L 227 233.244629 L 235.750443 232.826263 C 241.968155 232.528992 245.432968 231.8573 247.721222 230.505615 C 249.622559 229.382446 251.567917 227.037918 252.470779 224.781418 C 253.595383 221.970779 253.985062 217.326691 253.943558 207.229767 C 253.911026 199.314972 253.381607 192.057312 252.693558 190.093658 C 252.037094 188.220184 250.298737 185.796875 248.830521 184.708527 C 246.758942 183.172943 244.015198 182.617493 236.580521 182.228607 L 227 181.727478 Z M 79 84.755356 L 79 125.272522 L 88.580521 124.771393 C 96.015198 124.382507 98.758949 123.827057 100.830521 122.291473 C 102.298737 121.203125 104.037102 118.779816 104.693558 116.906342 C 105.350014 115.032852 105.912514 109.54805 105.943558 104.71788 C 105.978584 99.26738 105.460838 94.64537 104.578781 92.534302 C 103.745247 90.539383 101.781067 88.409698 99.828781 87.384079 C 97.67865 86.254532 93.40181 85.479553 87.75 85.195343 L 79 84.755356 Z M 227 84.755356 L 227 125 L 234.25 124.923141 C 238.237503 124.880875 243.300003 124.31459 245.5 123.664749 C 248.742111 122.707062 249.926315 121.639374 251.75 118.029709 C 253.58046 114.406616 254 111.919144 254 104.68924 C 254 98.535477 253.497192 94.742676 252.365158 92.357071 C 251.465988 90.462234 249.328491 88.174667 247.615158 87.273621 C 245.695221 86.263916 241.142776 85.466522 235.75 85.195343 L 227 84.755356 Z"/>
    <linearGradient id="linearGradient1" x1="148.276796" y1="-2" x2="148.276796" y2="306" gradientUnits="userSpaceOnUse">
        <stop offset="0" stop-color="#ffaa01" stop-opacity="1"/>
        <stop offset="0.545943" stop-color="#ff9401" stop-opacity="1"/>
        <stop offset="1" stop-color="#ff7b02" stop-opacity="1"/>
    </linearGradient>
    <path id="BB-copy" fill="url(#linearGradient1)" fill-rule="evenodd" stroke="none" d="M 25 281 L 25 199.964844 C 17.734432 199.452423 12 193.395966 12 186 L 12 170 C 12 162.604034 17.734432 156.547577 25 156.035156 L 25 39 L 85.212891 39 C 98.413818 39 109.66053 40.69873 118.955078 44.097656 C 128.249619 47.496552 135.860153 52.028564 141.787109 57.693359 C 147.714066 63.358185 151.958206 69.874008 154.517578 77.238281 C 157.076935 84.602554 158.355469 92.248962 158.355469 100.179688 L 158.355469 109.017578 C 158.355469 115.58876 157.749451 121.139999 156.537109 125.671875 C 155.324783 130.203735 153.506714 134.169449 151.082031 137.568359 C 146.502106 143.912949 139.497604 149.350952 130.068359 153.882813 C 139.766998 157.734863 146.906403 163.399414 151.486328 170.876953 C 156.066254 178.354507 158.355469 188.551025 158.355469 201.466797 L 158.355469 215.0625 C 158.355469 236.362183 152.226761 252.676239 139.96875 264.005859 C 127.710754 275.33548 108.112564 281 81.171875 281 L 25 281 Z M 172.904297 281 L 172.904297 199.830078 C 166.7211 198.827911 162 193.466217 162 187 L 162 169 C 162 162.533783 166.7211 157.172089 172.904297 156.169922 L 172.904297 39 L 233.117188 39 C 246.318146 39 257.56488 40.69873 266.859375 44.097656 C 276.153961 47.496552 283.764435 52.028564 289.691406 57.693359 C 295.618378 63.358185 299.862518 69.874008 302.421875 77.238281 C 304.981262 84.602554 306.259766 92.248962 306.259766 100.179688 L 306.259766 109.017578 C 306.259766 115.58876 305.653748 121.139999 304.441406 125.671875 C 303.229065 130.203735 301.41098 134.169449 298.986328 137.568359 C 294.406372 143.912949 287.401917 149.350952 277.972656 153.882813 C 287.671356 157.734863 294.810699 163.399414 299.390625 170.876953 C 303.970581 178.354507 306.259766 188.551025 306.259766 201.466797 L 306.259766 215.0625 C 306.259766 236.362183 300.131104 252.676239 287.873047 264.005859 C 275.615021 275.33548 256.014893 281 229.074219 281 L 172.904297 281 Z M 66.21875 246.332031 L 84 246.332031 C 92.351624 246.332031 98.884995 245.312759 103.599609 243.273438 C 108.314224 241.2341 111.883934 238.400864 114.308594 234.775391 C 116.733261 231.149902 118.215088 226.844421 118.753906 221.859375 C 119.292717 216.874344 119.5625 211.436325 119.5625 205.544922 C 119.5625 199.426941 119.157829 194.102142 118.349609 189.570313 C 117.541382 185.038467 115.924675 181.185974 113.5 178.013672 C 110.805923 174.84137 107.169754 172.51973 102.589844 171.046875 C 98.009933 169.57402 91.947693 168.837891 84.404297 168.837891 L 66.21875 168.837891 L 66.21875 246.332031 Z M 214.123047 246.332031 L 231.904297 246.332031 C 240.255875 246.332031 246.789276 245.312759 251.503906 243.273438 C 256.218536 241.2341 259.788208 238.400864 262.212891 234.775391 C 264.637512 231.149902 266.119385 226.844421 266.658203 221.859375 C 267.197021 216.874344 267.464844 211.436325 267.464844 205.544922 C 267.464844 199.426941 267.062134 194.102142 266.253906 189.570313 C 265.445679 185.038467 263.828918 181.185974 261.404297 178.013672 C 258.710205 174.84137 255.072128 172.51973 250.492188 171.046875 C 245.912277 169.57402 239.85202 168.837891 232.308594 168.837891 L 214.123047 168.837891 L 214.123047 246.332031 Z M 66.21875 138.248047 L 84.808594 138.248047 C 98.548332 138.248047 107.77562 135.35817 112.490234 129.580078 C 117.204849 123.801941 119.5625 115.360825 119.5625 104.257813 C 119.5625 93.381393 116.935066 85.225357 111.681641 79.787109 C 106.428215 74.348877 96.93116 71.628906 83.191406 71.628906 L 66.21875 71.628906 L 66.21875 138.248047 Z M 214.123047 138.248047 L 232.712891 138.248047 C 246.452637 138.248047 255.679901 135.35817 260.394531 129.580078 C 265.109161 123.801941 267.464844 115.360825 267.464844 104.257813 C 267.464844 93.381393 264.839355 85.225357 259.585938 79.787109 C 254.332489 74.348877 244.835449 71.628906 231.095703 71.628906 L 214.123047 71.628906 L 214.123047 138.248047 Z"/>
</svg>
