<svg xmlns="http://www.w3.org/2000/svg" viewBox="0 0 559.68 321.69">
    <defs>
        <style>.cls-1{fill:#fff}</style>
    </defs>
        <g>
            <path class="cls-1"
                  d="M119.3,196.06c-3-.32-4.85.11-8.52-.24-31.78-3.07-93.22-9-109.11-35.22-4.7-7.77.6-16.12,14.73-23,62.48-30.27,179.94-36.54,263.44-36.86,83.5.32,201,6.59,263.44,36.86,14.13,6.85,19.42,15.2,14.72,23-15.88,26.23-77.32,32.15-109.11,35.22-3.66.35-5.56-.08-8.52.24,18.19-3.59,154.86-22.09,99.4-55.33-55.81-27-175.34-34.45-259.93-35.31-84.59.86-204.12,8.27-259.93,35.31C-35.55,174,101.12,192.47,119.3,196.06Z"/>
            <path class="cls-1"
                  d="M119.3,238.79c-3-.42-4.85.13-8.52-.32C79,234.56,17.56,227,1.67,193.54c-4.7-9.9.6-20.56,14.73-29.29,62.48-38.61,179.94-46.61,263.44-47,83.5.42,201,8.42,263.44,47C557.41,173,562.7,183.64,558,193.54c-15.88,33.46-77.32,41-109.11,44.93-3.66.45-5.56-.1-8.52.32,18.19-4.59,154.86-28.18,99.4-70.59-55.81-34.49-175.34-43.94-259.93-45-84.59,1.1-204.12,10.55-259.93,45C-35.55,210.61,101.31,237.28,119.3,238.79Z"/>
            <path class="cls-1"
                  d="M119.3,284.16c-3-.52-4.85.17-8.52-.39C79,278.91,17.56,269.51,1.67,227.92c-4.7-12.31.6-25.57,14.73-36.43,62.48-48,179.94-57.94,263.44-58.46,83.5.52,201,10.46,263.44,58.46,14.13,10.86,19.42,24.12,14.72,36.43-15.58,37.09-77.32,51-109.11,55.85-3.66.56-5.56-.13-8.52.39,13.24-1.14,154.86-35,99.4-87.75-55.81-42.88-175.34-54.62-259.93-56-84.59,1.37-204.12,13.11-259.93,56C-35.55,249.13,100.14,282.1,119.3,284.16Z"/>
            <path class="cls-1"
                  d="M119.3,321.66c-3-.58-9.85-.67-13.51-1.3C74,314.91,15.68,296.61,1.67,258.58c-4.7-13.8.6-28.67,14.73-40.84,62.48-53.84,179.94-65,263.44-65.57,83.5.58,201,11.73,263.44,65.57,14.13,12.17,19.42,27,14.72,40.84-17.81,50.94-113.92,63.87-117.63,63.08,10.31-1.87,154.86-39.29,99.4-98.41C484,175.16,364.43,162,279.84,160.46,195.25,162,75.72,175.16,19.91,223.25-37,278.25,100.67,319.45,119.3,321.66Z"/>
            <path class="cls-1"
                  d="M132.71,57.31,116.45,26c-.48-.94-1-2-1.55-3.27s-1.11-2.58-1.64-4a61.28,61.28,0,0,1-1.58,7.85l-9,34.09-2.16,8.19L95.12,89.09A4,4,0,0,1,94,91a3.63,3.63,0,0,1-2.28,1L83.33,93,106.61,9l11-1.21L158.7,84.67l-8.42.93a3.62,3.62,0,0,1-2.44-.46,4.52,4.52,0,0,1-1.56-1.71l-9.67-18.6Z"/>
            <path class="cls-1"
                  d="M205.05,48.25a40.81,40.81,0,0,1-8.71.83l-8.3.31,1.26,33.76-10.9.41-2.12-57,10.89-.4.57,15.27L199.26,41a27.8,27.8,0,0,0,8.34-1.47,17.25,17.25,0,0,0,6-3.5,13.63,13.63,0,0,0,3.51-5.19,16.46,16.46,0,0,0,1-6.55q-.27-7.22-5.15-10.71t-14.37-3.14l-12,.44s-11-1.35-11.22-8.23l22.87-.86a50.33,50.33,0,0,1,13.33,1.06A25.55,25.55,0,0,1,221,7a18,18,0,0,1,5.66,6.89,23.87,23.87,0,0,1,2.09,9.22,23.26,23.26,0,0,1-1,8.07A21.41,21.41,0,0,1,224,38a23.33,23.33,0,0,1-6.08,5.29,39.5,39.5,0,0,1-9.26,4.13l-3.61.83Zm18,13.73c-4.32-5.19-16.38-4.73-16.38-4.73L224,79.54a4.78,4.78,0,0,0,4.49,2.15l9.71-.36L223.05,62Z"/>
            <path class="cls-1"
                  d="M330.63,18.81c0,.94.07,1.87.07,2.78s0,1.75,0,2.53l-2.09,57.66L319,81.44,321.9.51c8.27.3,8.73,18.3,8.73,18.3Zm28.89,23.58h0l16.35,23c0-1-.07-1.94-.1-2.86s0-1.8,0-2.63l2.08-57.32,9.6.35-2.93,80.92-5.48-.2a4.7,4.7,0,0,1-2.15-.52,5.65,5.65,0,0,1-1.67-1.6L354.15,51.88Z"/>
            <path class="cls-1"
                  d="M271.33,9,278,9h26.18l-.46-9H272.77a4,4,0,0,0-.69,0c-10,0-18.17,7-18.17,21V81h49.78V72.11H264.76V44.48h32V35.85h-32V22.41C264.76,17.28,266.15,10.66,271.33,9Z"/>
            <path class="cls-1"
                  d="M426.85,57.48,443,26.08c.48-.95,1-2,1.55-3.28s1.09-2.58,1.62-4a62.68,62.68,0,0,0,1.6,7.85l9.15,34.06,2.19,8.18,5.45,20.25a4,4,0,0,0,1.09,1.94,3.62,3.62,0,0,0,2.28,1l8.43.9L452.77,9l-11-1.17L401,84.94l8.42.9a3.68,3.68,0,0,0,2.44-.48,4.42,4.42,0,0,0,1.55-1.71L423,65Z"/>
            <polygon class="cls-1"
                     points="374.93 275.63 374.89 281.85 340.17 281.85 340.17 207.44 374.89 207.44 374.89 213.65 347.8 213.65 347.8 232.37 369.74 232.37 369.74 238.35 347.8 238.35 347.8 275.63 374.93 275.63"/>
            <path class="cls-1"
                  d="M181.5,253.21H170.24a2.14,2.14,0,0,1-1.54-.55,1.81,1.81,0,0,1-.58-1.36v-5.56h22.21c0,4.47-8.83,7.47-8.83,7.47Zm8.83,8.65H181.5v7.26a39.2,39.2,0,0,1-7.65,3.15,35.28,35.28,0,0,1-20.52-.83,23.62,23.62,0,0,1-8.76-5.73,25.54,25.54,0,0,1-5.56-9.14,35.84,35.84,0,0,1-1.94-12.19,35.23,35.23,0,0,1,1.87-11.84,25.2,25.2,0,0,1,5.35-9,23.37,23.37,0,0,1,8.43-5.71,29.32,29.32,0,0,1,11.06-2,35.39,35.39,0,0,1,7.24.65,31.09,31.09,0,0,1,5.3,1.59,24,24,0,0,1,3.81,2c1.05.67,2,1.25,2.78,1.71a3,3,0,0,0,2.3.49A2.92,2.92,0,0,0,186.9,221l2.77-4.45a35.75,35.75,0,0,0-5-3.81,33.45,33.45,0,0,0-5.81-2.88,36.62,36.62,0,0,0-6.81-1.81,46.45,46.45,0,0,0-8-.63,42.08,42.08,0,0,0-15.35,2.67,32.32,32.32,0,0,0-19,19.23,42,42,0,0,0-2.6,15.1,40.83,40.83,0,0,0,2.67,15,32.94,32.94,0,0,0,7.65,11.68,34.54,34.54,0,0,0,12,7.57,43.58,43.58,0,0,0,15.75,2.71,44.86,44.86,0,0,0,13.55-1.95,40.39,40.39,0,0,0,11.64-5.88Z"/>
            <path class="cls-1"
                  d="M279.6,218.53a33.79,33.79,0,0,1,.24,3.85v59.47h-6.69V207.44c4.14,0,6.45,11.09,6.45,11.09Zm9.84,21.21h0L295,250.42s6.53,12.34,6.83,13,.58,1.38.84,2.08c.27-.7.54-1.41.83-2.1a19.07,19.07,0,0,1,.95-2l19.11-52.7a2.1,2.1,0,0,1,1-1.11,5.13,5.13,0,0,1,1.59-.19h5.62v74.41H325.1V222.38q0-.82.06-1.77c0-.63.08-1.27.14-1.93L306,272a2.91,2.91,0,0,1-2.75,1.76h-1.1a2.93,2.93,0,0,1-2.76-1.76l-14.22-27.34Z"/>
            <path class="cls-1"
                  d="M426.28,219.93a3.66,3.66,0,0,1-1,1.14,2.16,2.16,0,0,1-1.29.38,3.62,3.62,0,0,1-2-.86,33.83,33.83,0,0,0-2.91-1.9,23.6,23.6,0,0,0-4.19-1.9,18.11,18.11,0,0,0-5.94-.85,17.51,17.51,0,0,0-5.78.88,12.45,12.45,0,0,0-4.2,2.41,9.74,9.74,0,0,0-2.55,3.56,11.17,11.17,0,0,0-.86,4.42,8.14,8.14,0,0,0,1.49,5,12.82,12.82,0,0,0,3.94,3.41,30.63,30.63,0,0,0,5.56,2.45q3.12,1,6.37,2.15t6.37,2.5a22.8,22.8,0,0,1,5.56,3.51,16,16,0,0,1,3.94,5.21,17.22,17.22,0,0,1,1.49,7.58,24.4,24.4,0,0,1-1.62,8.92,20.54,20.54,0,0,1-4.72,7.26,22.17,22.17,0,0,1-7.64,4.85A28.2,28.2,0,0,1,406,281.85a31.43,31.43,0,0,1-12.85-2.56,30.06,30.06,0,0,1-9.85-6.9l2.82-4.65a3.81,3.81,0,0,1,1-.93,2.27,2.27,0,0,1,1.29-.38,2.93,2.93,0,0,1,1.5.53c.55.36,1.18.8,1.89,1.34s1.51,1.13,2.42,1.77a19.47,19.47,0,0,0,3.11,1.76,20.3,20.3,0,0,0,4,1.34,21.25,21.25,0,0,0,5,.54,18.4,18.4,0,0,0,6.21-1,13,13,0,0,0,4.63-2.7,11.7,11.7,0,0,0,2.9-4.16,13.87,13.87,0,0,0,1-5.41,9.15,9.15,0,0,0-1.5-5.39,12.54,12.54,0,0,0-3.91-3.51,27.71,27.71,0,0,0-5.57-2.4l-6.36-2a67,67,0,0,1-6.37-2.4,20.59,20.59,0,0,1-5.56-3.54,16.34,16.34,0,0,1-3.92-5.43,20.84,20.84,0,0,1,0-15.49,18.88,18.88,0,0,1,4.35-6.37,21,21,0,0,1,7-4.45,25.66,25.66,0,0,1,9.57-1.66,30.46,30.46,0,0,1,11,1.91,26.2,26.2,0,0,1,8.77,5.56Z"/>
            <path class="cls-1"
                  d="M247.67,254.39,236.06,224.3c-.34-.9-.7-1.93-1.08-3.12s-.74-2.45-1.09-3.79a56.92,56.92,0,0,1-2.21,7l-11.62,30-2.78,7.22-6.92,17.86a3.73,3.73,0,0,1-1.18,1.66,3.35,3.35,0,0,1-2.18.72h-7.74l29.58-74H239l29.57,74h-7.74a3.39,3.39,0,0,1-2.17-.67,4.09,4.09,0,0,1-1.23-1.71l-6.92-17.86Z"/>
        </g>
</svg>