<?xml version="1.0" encoding="UTF-8"?>
<!DOCTYPE svg PUBLIC "-//W3C//DTD SVG 1.1//EN" "http://www.w3.org/Graphics/SVG/1.1/DTD/svg11.dtd">
<svg xmlns="http://www.w3.org/2000/svg" version="1.1" width="333px" height="333px" style="shape-rendering:geometricPrecision; text-rendering:geometricPrecision; image-rendering:optimizeQuality; fill-rule:evenodd; clip-rule:evenodd" xmlns:xlink="http://www.w3.org/1999/xlink">
<g><path style="opacity:1" fill="#3db6b5" d="M 166.5,88.5 C 169.647,90.3129 171.647,92.9796 172.5,96.5C 171.036,97.1599 169.369,97.4932 167.5,97.5C 160.81,97.0541 154.144,96.3874 147.5,95.5C 147.935,93.0034 149.269,91.8367 151.5,92C 149.048,94.0711 149.714,94.9044 153.5,94.5C 155.32,94.3507 156.82,93.6841 158,92.5C 160.841,94.5037 164.007,95.0037 167.5,94C 166.449,92.6152 165.116,91.6152 163.5,91C 165.119,90.7645 166.119,89.9311 166.5,88.5 Z"/></g>
<g><path style="opacity:0.999" fill="#53e0be" d="M 166.5,88.5 C 166.119,89.9311 165.119,90.7645 163.5,91C 165.116,91.6152 166.449,92.6152 167.5,94C 164.007,95.0037 160.841,94.5037 158,92.5C 156.82,93.6841 155.32,94.3507 153.5,94.5C 149.714,94.9044 149.048,94.0711 151.5,92C 149.269,91.8367 147.935,93.0034 147.5,95.5C 154.144,96.3874 160.81,97.0541 167.5,97.5C 169.369,97.4932 171.036,97.1599 172.5,96.5C 180.583,98.861 187.249,103.194 192.5,109.5C 191.292,110.234 189.959,110.567 188.5,110.5C 185.777,108.719 182.943,107.052 180,105.5C 179.209,112.989 178.376,120.322 177.5,127.5C 177.309,119.799 177.642,112.132 178.5,104.5C 168.5,104.5 158.5,104.5 148.5,104.5C 148.5,103.167 148.5,101.833 148.5,100.5C 146.473,100.662 144.473,100.495 142.5,100C 141.944,99.6174 141.611,99.1174 141.5,98.5C 146.838,87.72 155.171,84.3866 166.5,88.5 Z"/></g>
<g><path style="opacity:1" fill="#43c0cf" d="M 188.5,110.5 C 188.833,113.167 189.167,115.833 189.5,118.5C 186.923,115.899 185.923,116.732 186.5,121C 186.698,123.121 187.364,124.954 188.5,126.5C 188.5,130.833 188.5,135.167 188.5,139.5C 186.156,142.073 185.823,145.073 187.5,148.5C 186.862,160.823 186.528,173.156 186.5,185.5C 186.167,185.5 185.833,185.5 185.5,185.5C 184.596,186.209 184.263,187.209 184.5,188.5C 180.167,188.5 175.833,188.5 171.5,188.5C 173.265,187.539 175.265,187.205 177.5,187.5C 177.5,174.5 177.5,161.5 177.5,148.5C 177.5,142.833 177.5,137.167 177.5,131.5C 177.5,130.167 177.5,128.833 177.5,127.5C 178.376,120.322 179.209,112.989 180,105.5C 182.943,107.052 185.777,108.719 188.5,110.5 Z"/></g>
<g><path style="opacity:0.504" fill="#5236b6" d="M 260.5,123.5 C 260.167,123.5 259.833,123.5 259.5,123.5C 251.562,123.477 243.895,122.477 236.5,120.5C 236.341,114.614 237.674,114.114 240.5,119C 241.448,119.483 242.448,119.649 243.5,119.5C 243.5,118.5 243.5,117.5 243.5,116.5C 244.5,116.5 245.5,116.5 246.5,116.5C 246.5,117.833 246.5,119.167 246.5,120.5C 248.995,119.801 251.328,118.801 253.5,117.5C 253.5,118.833 253.5,120.167 253.5,121.5C 254.5,121.5 255.5,121.5 256.5,121.5C 256.176,118.306 257.342,117.306 260,118.5C 260.494,120.134 260.66,121.801 260.5,123.5 Z"/></g>
<g><path style="opacity:0.515" fill="#5136b5" d="M 81.5,121.5 C 81.5,122.167 81.1667,122.5 80.5,122.5C 72.8415,122.986 65.1748,123.32 57.5,123.5C 57.1667,123.5 56.8333,123.5 56.5,123.5C 56.5,121.833 56.5,120.167 56.5,118.5C 58.9948,119.199 61.3281,120.199 63.5,121.5C 63.5,120.167 63.5,118.833 63.5,117.5C 65.6719,118.801 68.0052,119.801 70.5,120.5C 70.5,119.5 70.5,118.5 70.5,117.5C 72.6719,118.801 75.0052,119.801 77.5,120.5C 77.238,119.022 77.5713,117.689 78.5,116.5C 80.0512,117.8 81.0512,119.467 81.5,121.5 Z"/></g>
<g><path style="opacity:1" fill="#4f3644" d="M 181.5,113.5 C 182.117,113.611 182.617,113.944 183,114.5C 183.667,117.167 183.667,119.833 183,122.5C 181.608,119.722 181.108,116.722 181.5,113.5 Z"/></g>
<g><path style="opacity:0.244" fill="#fbf8fd" d="M 81.5,121.5 C 85.1168,122.642 88.4502,124.308 91.5,126.5C 92.2341,127.708 92.5674,129.041 92.5,130.5C 89.1677,127.999 85.501,126.332 81.5,125.5C 80.8902,124.609 80.5569,123.609 80.5,122.5C 81.1667,122.5 81.5,122.167 81.5,121.5 Z"/></g>
<g><path style="opacity:0.278" fill="#f7f4fc" d="M 56.5,123.5 C 56.8333,123.5 57.1667,123.5 57.5,123.5C 57.5,124.167 57.5,124.833 57.5,125.5C 57.5,126.833 56.8333,127.5 55.5,127.5C 55.1667,126.167 54.8333,126.167 54.5,127.5C 53.8333,127.5 53.1667,127.5 52.5,127.5C 52.5,126.167 52.5,124.833 52.5,123.5C 53.8333,123.5 55.1667,123.5 56.5,123.5 Z"/></g>
<g><path style="opacity:1" fill="#5d4757" d="M 189.5,118.5 C 189.5,121.167 189.5,123.833 189.5,126.5C 189.167,126.5 188.833,126.5 188.5,126.5C 187.364,124.954 186.698,123.121 186.5,121C 185.923,116.732 186.923,115.899 189.5,118.5 Z"/></g>
<g><path style="opacity:0.251" fill="#faf9fc" d="M 259.5,123.5 C 259.833,123.5 260.167,123.5 260.5,123.5C 261.552,123.351 262.552,123.517 263.5,124C 265.208,126.043 267.208,127.71 269.5,129C 271.607,130.264 272.607,132.097 272.5,134.5C 269.418,132.925 266.751,130.758 264.5,128C 262.753,127.648 261.086,127.148 259.5,126.5C 259.5,125.5 259.5,124.5 259.5,123.5 Z"/></g>
<g><path style="opacity:1" fill="#9e87d9" d="M 80.5,122.5 C 80.5569,123.609 80.8902,124.609 81.5,125.5C 78.5989,126.413 75.9322,126.413 73.5,125.5C 72.4341,124.308 71.6008,124.641 71,126.5C 70.6924,125.692 70.1924,125.025 69.5,124.5C 67.5658,124.901 66.0658,125.901 65,127.5C 64.6924,126.692 64.1924,126.025 63.5,125.5C 61.4734,125.527 59.4734,125.527 57.5,125.5C 57.5,124.833 57.5,124.167 57.5,123.5C 65.1748,123.32 72.8415,122.986 80.5,122.5 Z"/></g>
<g><path style="opacity:1" fill="#a28cdb" d="M 234.5,120.5 C 235.167,120.5 235.833,120.5 236.5,120.5C 243.895,122.477 251.562,123.477 259.5,123.5C 259.5,124.5 259.5,125.5 259.5,126.5C 259.565,126.938 259.399,127.272 259,127.5C 258,124.833 257,124.833 256,127.5C 254.471,126.417 252.971,125.417 251.5,124.5C 250.808,125.025 250.308,125.692 250,126.5C 249,123.833 248,123.833 247,126.5C 246,123.833 245,123.833 244,126.5C 242.471,125.417 240.971,124.417 239.5,123.5C 238.459,125.991 237.626,125.991 237,123.5C 236.329,124.252 235.496,124.586 234.5,124.5C 234.5,123.167 234.5,121.833 234.5,120.5 Z"/></g>
<g><path style="opacity:1" fill="#5cf0b2" d="M 141.5,98.5 C 141.611,99.1174 141.944,99.6174 142.5,100C 144.473,100.495 146.473,100.662 148.5,100.5C 148.5,101.833 148.5,103.167 148.5,104.5C 158.5,104.5 168.5,104.5 178.5,104.5C 177.642,112.132 177.309,119.799 177.5,127.5C 177.5,128.833 177.5,130.167 177.5,131.5C 176.698,132.952 176.198,134.618 176,136.5C 175.333,135.167 174.667,135.167 174,136.5C 173.506,134.866 173.34,133.199 173.5,131.5C 171.585,131.216 169.919,131.549 168.5,132.5C 167.833,132.833 167.167,133.167 166.5,133.5C 165.518,136.962 165.185,140.629 165.5,144.5C 164.5,144.5 163.5,144.5 162.5,144.5C 162.667,132.162 162.5,119.829 162,107.5C 161.586,107.043 161.086,106.709 160.5,106.5C 160.149,129.8 160.149,152.967 160.5,176C 159.263,176.232 158.263,176.732 157.5,177.5C 156.5,177.5 155.5,177.5 154.5,177.5C 150.833,177.5 147.167,177.5 143.5,177.5C 144.007,176.141 145.007,175.141 146.5,174.5C 149.086,173.52 151.753,173.187 154.5,173.5C 154.177,167.31 154.51,161.31 155.5,155.5C 155.5,161.167 155.5,166.833 155.5,172.5C 156.5,172.5 157.5,172.5 158.5,172.5C 157.76,150.846 157.26,129.179 157,107.5C 156.586,107.043 156.086,106.709 155.5,106.5C 154.502,114.807 154.169,123.14 154.5,131.5C 154.543,134.867 154.21,138.201 153.5,141.5C 153.36,143.03 152.693,144.03 151.5,144.5C 150.677,141.023 150.177,137.356 150,133.5C 148.172,132.248 146.339,132.248 144.5,133.5C 143.518,136.962 143.185,140.629 143.5,144.5C 142.178,144.33 141.011,144.663 140,145.5C 139.578,137.662 139.078,129.828 138.5,122C 138.467,119.39 137.8,117.223 136.5,115.5C 136.58,109.97 136.08,104.637 135,99.5C 137.041,98.5769 139.208,98.2436 141.5,98.5 Z"/></g>
<g><path style="opacity:1" fill="#cfd6d1" d="M 145.5,110.5 C 147.144,110.286 148.644,110.62 150,111.5C 150.499,115.486 150.666,119.486 150.5,123.5C 148.5,123.5 146.5,123.5 144.5,123.5C 144.231,119.069 144.564,114.735 145.5,110.5 Z"/></g>
<g><path style="opacity:1" fill="#785964" d="M 145.5,112.5 C 146.833,112.5 148.167,112.5 149.5,112.5C 149.5,115.833 149.5,119.167 149.5,122.5C 148.167,122.5 146.833,122.5 145.5,122.5C 145.5,119.167 145.5,115.833 145.5,112.5 Z"/></g>
<g><path style="opacity:1" fill="#c7d3cc" d="M 167.5,110.5 C 169.144,110.286 170.644,110.62 172,111.5C 172.203,115.421 172.703,119.255 173.5,123C 171.19,123.497 168.857,123.663 166.5,123.5C 166.231,119.069 166.564,114.735 167.5,110.5 Z"/></g>
<g><path style="opacity:1" fill="#81646f" d="M 167.5,112.5 C 168.833,112.5 170.167,112.5 171.5,112.5C 171.5,115.833 171.5,119.167 171.5,122.5C 170.167,122.5 168.833,122.5 167.5,122.5C 167.5,119.167 167.5,115.833 167.5,112.5 Z"/></g>
<g><path style="opacity:1" fill="#472fa2" d="M 92.5,131.5 C 93.3382,131.842 93.6716,132.508 93.5,133.5C 93.7971,151.515 94.4638,169.515 95.5,187.5C 92.5,187.5 89.5,187.5 86.5,187.5C 85.5367,168.828 85.5367,150.161 86.5,131.5C 88.4134,132.373 90.2467,133.373 92,134.5C 92.4828,133.552 92.6495,132.552 92.5,131.5 Z"/></g>
<g><path style="opacity:1" fill="#c3ccc9" d="M 168.5,132.5 C 169.822,132.33 170.989,132.663 172,133.5C 172.203,137.421 172.703,141.255 173.5,145C 171.19,145.497 168.857,145.663 166.5,145.5C 166.5,141.5 166.5,137.5 166.5,133.5C 167.167,133.167 167.833,132.833 168.5,132.5 Z"/></g>
<g><path style="opacity:0.616" fill="#41802b" d="M 52.5,142.5 C 53.209,143.404 54.209,143.737 55.5,143.5C 55.5,144.5 55.5,145.5 55.5,146.5C 53.9731,146.427 52.9731,147.094 52.5,148.5C 47.3402,149.728 47.3402,150.395 52.5,150.5C 53.5261,151.853 54.8595,152.853 56.5,153.5C 56.5,154.167 56.5,154.833 56.5,155.5C 56.1667,155.5 55.8333,155.5 55.5,155.5C 54.1667,155.5 53.5,156.167 53.5,157.5C 52.5,157.5 51.5,157.5 50.5,157.5C 48.351,154.666 47.351,154.999 47.5,158.5C 47.5973,161.314 46.4307,163.314 44,164.5C 42.115,163.008 41.115,161.008 41,158.5C 38.8772,160.857 39.0439,163.024 41.5,165C 40.6443,166.595 39.3109,167.428 37.5,167.5C 34.7524,167.402 34.0857,168.402 35.5,170.5C 34.8592,172.042 33.8592,173.376 32.5,174.5C 31.2011,173.91 30.3678,172.91 30,171.5C 29.8038,173.286 28.9705,174.619 27.5,175.5C 26.0148,173.066 24.3481,170.733 22.5,168.5C 23.2595,164.775 25.5929,162.942 29.5,163C 28.4086,160.936 28.2419,158.769 29,156.5C 31.5,154.667 33.6667,152.5 35.5,150C 37.9005,149.814 40.2338,149.314 42.5,148.5C 41.4124,143.539 43.4124,140.206 48.5,138.5C 49.2978,140.078 49.7978,141.744 50,143.5C 50.6708,142.748 51.5041,142.414 52.5,142.5 Z"/></g>
<g><path style="opacity:1" fill="#7e70a4" d="M 55.5,146.5 C 55.5,145.5 55.5,144.5 55.5,143.5C 56.3138,141.369 56.8138,139.036 57,136.5C 58.3333,135.167 59.6667,135.167 61,136.5C 61.2565,139.557 61.7565,142.557 62.5,145.5C 60.2573,146.474 57.924,146.808 55.5,146.5 Z"/></g>
<g><path style="opacity:1" fill="#48d5cb" d="M 155.5,155.5 C 155.826,147.316 155.492,139.316 154.5,131.5C 154.169,123.14 154.502,114.807 155.5,106.5C 156.086,106.709 156.586,107.043 157,107.5C 157.26,129.179 157.76,150.846 158.5,172.5C 157.5,172.5 156.5,172.5 155.5,172.5C 155.5,166.833 155.5,161.167 155.5,155.5 Z"/></g>
<g><path style="opacity:1" fill="#514755" d="M 181.5,136.5 C 182.496,136.414 183.329,136.748 184,137.5C 184.818,140.227 184.652,142.894 183.5,145.5C 182.914,145.291 182.414,144.957 182,144.5C 181.503,141.854 181.336,139.187 181.5,136.5 Z"/></g>
<g><path style="opacity:1" fill="#8a50dc" d="M 259.5,126.5 C 261.086,127.148 262.753,127.648 264.5,128C 266.751,130.758 269.418,132.925 272.5,134.5C 272.5,134.833 272.5,135.167 272.5,135.5C 269.259,135.122 266.259,134.122 263.5,132.5C 261.805,139.744 260.471,147.078 259.5,154.5C 258.527,156.948 258.194,159.615 258.5,162.5C 249.126,161.896 239.793,160.896 230.5,159.5C 230.624,158.893 230.957,158.56 231.5,158.5C 233.5,158.5 235.5,158.5 237.5,158.5C 237.665,155.15 237.498,151.817 237,148.5C 235.989,147.663 234.822,147.33 233.5,147.5C 232.883,147.389 232.383,147.056 232,146.5C 231.828,140.319 231.328,134.319 230.5,128.5C 230.232,126.901 230.566,125.568 231.5,124.5C 232.5,124.5 233.5,124.5 234.5,124.5C 235.496,124.586 236.329,124.252 237,123.5C 237.626,125.991 238.459,125.991 239.5,123.5C 240.971,124.417 242.471,125.417 244,126.5C 245,123.833 246,123.833 247,126.5C 248,123.833 249,123.833 250,126.5C 250.308,125.692 250.808,125.025 251.5,124.5C 252.971,125.417 254.471,126.417 256,127.5C 257,124.833 258,124.833 259,127.5C 259.399,127.272 259.565,126.938 259.5,126.5 Z"/></g>
<g><path style="opacity:1" fill="#8c7eaf" d="M 254.5,135.5 C 255.822,135.33 256.989,135.663 258,136.5C 258.498,139.817 258.665,143.15 258.5,146.5C 256.396,146.799 254.396,146.466 252.5,145.5C 253.168,142.137 253.835,138.803 254.5,135.5 Z"/></g>
<g><path style="opacity:1" fill="#9585b6" d="M 234.5,133.5 C 235.833,133.5 237.167,133.5 238.5,133.5C 238.5,137.167 238.5,140.833 238.5,144.5C 236.396,144.799 234.396,144.466 232.5,143.5C 233.168,140.137 233.835,136.803 234.5,133.5 Z"/></g>
<g><path style="opacity:1" fill="#a594c5" d="M 244.5,134.5 C 245.833,134.5 247.167,134.5 248.5,134.5C 248.5,138.167 248.5,141.833 248.5,145.5C 246.396,145.799 244.396,145.466 242.5,144.5C 243.168,141.137 243.835,137.803 244.5,134.5 Z"/></g>
<g><path style="opacity:1" fill="#8e54df" d="M 73.5,125.5 C 71.7215,126.67 70.7215,128.336 70.5,130.5C 75.1667,130.5 79.8333,130.5 84.5,130.5C 84.5,140.833 84.5,151.167 84.5,161.5C 75.2322,161.483 66.0655,162.15 57,163.5C 55.6253,161.063 55.1253,158.397 55.5,155.5C 55.8333,155.5 56.1667,155.5 56.5,155.5C 57.4511,156.919 57.7845,158.585 57.5,160.5C 59.604,160.799 61.604,160.466 63.5,159.5C 62.5934,156.579 62.2601,153.579 62.5,150.5C 60.8333,150.5 59.1667,150.5 57.5,150.5C 57.7373,151.791 57.404,152.791 56.5,153.5C 54.8595,152.853 53.5261,151.853 52.5,150.5C 52.5,149.833 52.5,149.167 52.5,148.5C 52.9731,147.094 53.9731,146.427 55.5,146.5C 57.924,146.808 60.2573,146.474 62.5,145.5C 61.7565,142.557 61.2565,139.557 61,136.5C 59.6667,135.167 58.3333,135.167 57,136.5C 56.8138,139.036 56.3138,141.369 55.5,143.5C 54.209,143.737 53.209,143.404 52.5,142.5C 52.6248,138.207 51.9581,134.04 50.5,130C 50.6842,128.624 51.3509,127.791 52.5,127.5C 53.1667,127.5 53.8333,127.5 54.5,127.5C 54.8333,127.5 55.1667,127.5 55.5,127.5C 56.8333,127.5 57.5,126.833 57.5,125.5C 59.4734,125.527 61.4734,125.527 63.5,125.5C 64.1924,126.025 64.6924,126.692 65,127.5C 66.0658,125.901 67.5658,124.901 69.5,124.5C 70.1924,125.025 70.6924,125.692 71,126.5C 71.6008,124.641 72.4341,124.308 73.5,125.5 Z"/></g>
<g><path style="opacity:1" fill="#867ca7" d="M 67.5,135.5 C 68.8333,135.5 70.1667,135.5 71.5,135.5C 71.2161,138.777 71.5495,141.943 72.5,145C 70.8659,145.494 69.1992,145.66 67.5,145.5C 67.1719,142.018 67.1719,138.685 67.5,135.5 Z"/></g>
<g><path style="opacity:1" fill="#8b7dae" d="M 77.5,134.5 C 78.8221,134.33 79.9887,134.663 81,135.5C 81.2565,138.557 81.7565,141.557 82.5,144.5C 80.604,145.466 78.604,145.799 76.5,145.5C 76.244,141.731 76.5773,138.064 77.5,134.5 Z"/></g>
<g><path style="opacity:1" fill="#6a5060" d="M 188.5,139.5 C 188.81,142.713 188.477,145.713 187.5,148.5C 185.823,145.073 186.156,142.073 188.5,139.5 Z"/></g>
<g><path style="opacity:0.985" fill="#4a31a4" d="M 272.5,135.5 C 272.5,138.167 272.5,140.833 272.5,143.5C 270.023,143.051 268.023,143.717 266.5,145.5C 268.544,146.065 270.21,147.065 271.5,148.5C 271.5,149.167 271.5,149.833 271.5,150.5C 269.642,151.595 267.975,152.929 266.5,154.5C 268.184,155.15 269.517,156.15 270.5,157.5C 270.5,158.167 270.5,158.833 270.5,159.5C 269.231,164.043 267.397,168.376 265,172.5C 263.84,177.434 263.34,182.434 263.5,187.5C 261.167,187.5 258.833,187.5 256.5,187.5C 257.83,176.532 258.83,165.532 259.5,154.5C 260.471,147.078 261.805,139.744 263.5,132.5C 266.259,134.122 269.259,135.122 272.5,135.5 Z"/></g>
<g><path style="opacity:1" fill="#fa5379" d="M 128.5,121.5 C 127.067,127.061 129.067,130.395 134.5,131.5C 134.842,132.338 135.508,132.672 136.5,132.5C 136.779,137.301 136.112,141.968 134.5,146.5C 135.911,149.44 136.578,152.607 136.5,156C 136.058,166.47 136.058,176.97 136.5,187.5C 134.076,187.808 131.743,187.474 129.5,186.5C 129.934,168.841 129.268,151.174 127.5,133.5C 127.183,129.298 127.517,125.298 128.5,121.5 Z"/></g>
<g><path style="opacity:1" fill="#80354a" d="M 129.5,140.5 C 130.496,140.414 131.329,140.748 132,141.5C 132.667,143.833 132.667,146.167 132,148.5C 129.835,146.347 129.002,143.681 129.5,140.5 Z"/></g>
<g><path style="opacity:1" fill="#fd7695" d="M 234.5,120.5 C 234.5,121.833 234.5,123.167 234.5,124.5C 233.5,124.5 232.5,124.5 231.5,124.5C 230.995,120.988 228.995,118.655 225.5,117.5C 223.551,132.599 222.218,147.599 221.5,162.5C 221.665,158.818 221.499,155.152 221,151.5C 220.881,156.282 220.215,160.949 219,165.5C 218.667,162.5 218.333,159.5 218,156.5C 216.612,155.446 215.112,155.28 213.5,156C 212.767,159.551 211.767,163.051 210.5,166.5C 209.749,165.624 209.249,164.624 209,163.5C 208.503,166.146 208.336,168.813 208.5,171.5C 210.167,171.5 211.833,171.5 213.5,171.5C 213.5,172.5 213.5,173.5 213.5,174.5C 208.968,174.182 204.634,174.515 200.5,175.5C 200.167,175.5 199.833,175.5 199.5,175.5C 196.5,175.5 193.5,175.5 190.5,175.5C 190.5,174.5 190.5,173.5 190.5,172.5C 193.167,172.5 195.833,172.5 198.5,172.5C 198.404,166.627 197.737,160.96 196.5,155.5C 195.116,154.199 193.616,154.199 192,155.5C 191.505,157.473 191.338,159.473 191.5,161.5C 190.71,162.609 190.21,163.942 190,165.5C 189.5,152.504 189.333,139.504 189.5,126.5C 189.5,123.833 189.5,121.167 189.5,118.5C 189.167,115.833 188.833,113.167 188.5,110.5C 189.959,110.567 191.292,110.234 192.5,109.5C 195.448,109.223 198.281,109.556 201,110.5C 201.483,109.552 201.649,108.552 201.5,107.5C 204.85,107.335 208.183,107.502 211.5,108C 211.957,108.414 212.291,108.914 212.5,109.5C 216.815,110.415 221.148,111.248 225.5,112C 227.833,113.667 230.167,115.333 232.5,117C 233.823,117.816 234.489,118.983 234.5,120.5 Z"/></g>
<g><path style="opacity:1" fill="#bc9ba4" d="M 193.5,136.5 C 194.822,136.33 195.989,136.663 197,137.5C 197.499,141.152 197.665,144.818 197.5,148.5C 195.396,148.799 193.396,148.466 191.5,147.5C 192.168,143.803 192.835,140.137 193.5,136.5 Z"/></g>
<g><path style="opacity:1" fill="#977883" d="M 194.5,119.5 C 195.822,119.33 196.989,119.663 198,120.5C 198.498,123.817 198.665,127.15 198.5,130.5C 196.473,130.662 194.473,130.495 192.5,130C 193.203,126.504 193.87,123.004 194.5,119.5 Z"/></g>
<g><path style="opacity:1" fill="#9c7d87" d="M 215.5,120.5 C 216.833,120.5 218.167,120.5 219.5,120.5C 219.5,124.167 219.5,127.833 219.5,131.5C 217.833,131.5 216.167,131.5 214.5,131.5C 214.244,127.731 214.577,124.064 215.5,120.5 Z"/></g>
<g><path style="opacity:1" fill="#f0b3c1" d="M 215.5,137.5 C 216.822,137.33 217.989,137.663 219,138.5C 219.499,142.152 219.665,145.818 219.5,149.5C 217.5,149.5 215.5,149.5 213.5,149.5C 213.016,145.173 213.682,141.173 215.5,137.5 Z"/></g>
<g><path style="opacity:1" fill="#866b76" d="M 214.5,139.5 C 215.833,139.5 217.167,139.5 218.5,139.5C 218.5,142.167 218.5,144.833 218.5,147.5C 217.167,147.5 215.833,147.5 214.5,147.5C 214.5,144.833 214.5,142.167 214.5,139.5 Z"/></g>
<g><path style="opacity:1" fill="#54e1c0" d="M 136.5,115.5 C 137.8,117.223 138.467,119.39 138.5,122C 139.078,129.828 139.578,137.662 140,145.5C 141.011,144.663 142.178,144.33 143.5,144.5C 143.185,140.629 143.518,136.962 144.5,133.5C 144.5,137.5 144.5,141.5 144.5,145.5C 147.059,145.802 149.393,145.468 151.5,144.5C 152.693,144.03 153.36,143.03 153.5,141.5C 154.21,138.201 154.543,134.867 154.5,131.5C 155.492,139.316 155.826,147.316 155.5,155.5C 154.51,161.31 154.177,167.31 154.5,173.5C 151.753,173.187 149.086,173.52 146.5,174.5C 145.007,175.141 144.007,176.141 143.5,177.5C 142.596,176.791 142.263,175.791 142.5,174.5C 145.986,173.047 149.653,172.381 153.5,172.5C 153.813,169.753 153.48,167.086 152.5,164.5C 151.702,164.957 151.369,165.624 151.5,166.5C 150.677,163.023 150.177,159.356 150,155.5C 148.057,154.193 146.223,154.193 144.5,155.5C 143.746,158.023 143.08,160.689 142.5,163.5C 141.675,164.386 140.675,164.719 139.5,164.5C 139.447,153.976 138.78,143.643 137.5,133.5C 137.821,127.974 137.488,122.64 136.5,117.5C 136.5,116.833 136.5,116.167 136.5,115.5 Z"/></g>
<g><path style="opacity:1" fill="#c9cfce" d="M 151.5,144.5 C 149.393,145.468 147.059,145.802 144.5,145.5C 144.5,141.5 144.5,137.5 144.5,133.5C 146.339,132.248 148.172,132.248 150,133.5C 150.177,137.356 150.677,141.023 151.5,144.5 Z"/></g>
<g><path style="opacity:1" fill="#775763" d="M 145.5,134.5 C 146.833,134.5 148.167,134.5 149.5,134.5C 149.5,137.5 149.5,140.5 149.5,143.5C 148.167,143.5 146.833,143.5 145.5,143.5C 145.5,140.5 145.5,137.5 145.5,134.5 Z"/></g>
<g><path style="opacity:1" fill="#53e1bf" d="M 168.5,132.5 C 169.919,131.549 171.585,131.216 173.5,131.5C 173.34,133.199 173.506,134.866 174,136.5C 174.667,135.167 175.333,135.167 176,136.5C 176.198,134.618 176.698,132.952 177.5,131.5C 177.5,137.167 177.5,142.833 177.5,148.5C 176.833,153.681 176.167,159.015 175.5,164.5C 174.914,164.291 174.414,163.957 174,163.5C 173.817,160.635 173.317,157.969 172.5,155.5C 170.641,152.981 168.641,152.981 166.5,155.5C 165.523,158.287 165.19,161.287 165.5,164.5C 164.5,164.5 163.5,164.5 162.5,164.5C 162.5,157.833 162.5,151.167 162.5,144.5C 163.5,144.5 164.5,144.5 165.5,144.5C 165.185,140.629 165.518,136.962 166.5,133.5C 166.5,137.5 166.5,141.5 166.5,145.5C 168.857,145.663 171.19,145.497 173.5,145C 172.703,141.255 172.203,137.421 172,133.5C 170.989,132.663 169.822,132.33 168.5,132.5 Z"/></g>
<g><path style="opacity:1" fill="#7c5d68" d="M 167.5,134.5 C 168.833,134.5 170.167,134.5 171.5,134.5C 171.5,137.5 171.5,140.5 171.5,143.5C 170.167,143.5 168.833,143.5 167.5,143.5C 167.5,140.5 167.5,137.5 167.5,134.5 Z"/></g>
<g><path style="opacity:0.677" fill="#3e7d2b" d="M 287.5,170.5 C 288.914,168.402 288.248,167.402 285.5,167.5C 281.375,166.827 280.708,164.993 283.5,162C 283.138,160.775 282.638,159.609 282,158.5C 280.38,166.119 277.88,166.452 274.5,159.5C 276.203,154.965 275.203,154.299 271.5,157.5C 271.167,157.5 270.833,157.5 270.5,157.5C 269.517,156.15 268.184,155.15 266.5,154.5C 267.975,152.929 269.642,151.595 271.5,150.5C 275.286,150.362 275.286,149.695 271.5,148.5C 270.21,147.065 268.544,146.065 266.5,145.5C 268.023,143.717 270.023,143.051 272.5,143.5C 274.734,137.525 277.567,137.858 281,144.5C 281.595,145.899 281.428,147.232 280.5,148.5C 282.766,149.314 285.1,149.814 287.5,150C 289.393,152.303 291.393,154.47 293.5,156.5C 294.78,158.702 294.78,160.868 293.5,163C 298.112,163.444 300.446,165.944 300.5,170.5C 299.5,170.5 298.5,170.5 297.5,170.5C 296.912,176.557 295.412,176.89 293,171.5C 290.698,175.461 288.865,175.127 287.5,170.5 Z"/></g>
<g><path style="opacity:1" fill="#927288" d="M 136.5,117.5 C 137.488,122.64 137.821,127.974 137.5,133.5C 137.5,151.5 137.5,169.5 137.5,187.5C 137.167,187.5 136.833,187.5 136.5,187.5C 136.058,176.97 136.058,166.47 136.5,156C 136.578,152.607 135.911,149.44 134.5,146.5C 136.112,141.968 136.779,137.301 136.5,132.5C 136.5,127.5 136.5,122.5 136.5,117.5 Z"/></g>
<g><path style="opacity:1" fill="#9a8cbb" d="M 78.5,148.5 C 79.8221,148.33 80.9887,148.663 82,149.5C 82.2565,152.557 82.7565,155.557 83.5,158.5C 81.604,159.466 79.604,159.799 77.5,159.5C 77.244,155.731 77.5773,152.064 78.5,148.5 Z"/></g>
<g><path style="opacity:1" fill="#988cb9" d="M 233.5,147.5 C 234.822,147.33 235.989,147.663 237,148.5C 237.498,151.817 237.665,155.15 237.5,158.5C 235.5,158.5 233.5,158.5 231.5,158.5C 232.087,154.794 232.754,151.127 233.5,147.5 Z"/></g>
<g><path style="opacity:1" fill="#9e91bf" d="M 243.5,148.5 C 244.822,148.33 245.989,148.663 247,149.5C 247.498,152.817 247.665,156.15 247.5,159.5C 245.396,159.799 243.396,159.466 241.5,158.5C 242.168,155.137 242.835,151.803 243.5,148.5 Z"/></g>
<g><path style="opacity:1" fill="#9a8abd" d="M 68.5,149.5 C 69.8221,149.33 70.9887,149.663 72,150.5C 72.2565,153.557 72.7565,156.557 73.5,159.5C 71.604,160.466 69.604,160.799 67.5,160.5C 67.244,156.731 67.5773,153.064 68.5,149.5 Z"/></g>
<g><path style="opacity:1" fill="#c7cece" d="M 151.5,166.5 C 149.393,167.468 147.059,167.802 144.5,167.5C 144.5,163.5 144.5,159.5 144.5,155.5C 146.223,154.193 148.057,154.193 150,155.5C 150.177,159.356 150.677,163.023 151.5,166.5 Z"/></g>
<g><path style="opacity:1" fill="#bc677b" d="M 203.5,110.5 C 205.167,110.5 206.833,110.5 208.5,110.5C 208.129,130.845 207.463,151.178 206.5,171.5C 204.5,171.5 202.5,171.5 200.5,171.5C 201.468,151.164 202.468,130.831 203.5,110.5 Z"/></g>
<g><path style="opacity:1" fill="#9080b4" d="M 56.5,155.5 C 56.5,154.833 56.5,154.167 56.5,153.5C 57.404,152.791 57.7373,151.791 57.5,150.5C 59.1667,150.5 60.8333,150.5 62.5,150.5C 62.2601,153.579 62.5934,156.579 63.5,159.5C 61.604,160.466 59.604,160.799 57.5,160.5C 57.7845,158.585 57.4511,156.919 56.5,155.5 Z"/></g>
<g><path style="opacity:1" fill="#775763" d="M 145.5,156.5 C 146.833,156.5 148.167,156.5 149.5,156.5C 149.5,159.5 149.5,162.5 149.5,165.5C 148.167,165.5 146.833,165.5 145.5,165.5C 145.5,162.5 145.5,159.5 145.5,156.5 Z"/></g>
<g><path style="opacity:1" fill="#9f8ec4" d="M 253.5,149.5 C 254.822,149.33 255.989,149.663 257,150.5C 257.498,153.817 257.665,157.15 257.5,160.5C 255.5,160.5 253.5,160.5 251.5,160.5C 251.242,156.628 251.909,152.961 253.5,149.5 Z"/></g>
<g><path style="opacity:1" fill="#b59aa2" d="M 196.5,155.5 C 196.5,158.833 196.5,162.167 196.5,165.5C 194.833,165.5 193.167,165.5 191.5,165.5C 191.5,164.167 191.5,162.833 191.5,161.5C 191.338,159.473 191.505,157.473 192,155.5C 193.616,154.199 195.116,154.199 196.5,155.5 Z"/></g>
<g><path style="opacity:1" fill="#6d44c7" d="M 81.5,125.5 C 85.501,126.332 89.1677,127.999 92.5,130.5C 92.5,130.833 92.5,131.167 92.5,131.5C 92.6495,132.552 92.4828,133.552 92,134.5C 90.2467,133.373 88.4134,132.373 86.5,131.5C 85.5367,150.161 85.5367,168.828 86.5,187.5C 84.7629,184.992 83.9296,181.992 84,178.5C 82.6439,177.62 81.1439,177.286 79.5,177.5C 79.5,179.833 79.5,182.167 79.5,184.5C 80.9778,184.238 82.3112,184.571 83.5,185.5C 81.7085,186.764 79.7085,187.431 77.5,187.5C 71.8595,186.714 66.1928,186.714 60.5,187.5C 60.5246,184.821 61.858,183.488 64.5,183.5C 65.0776,179.065 63.4109,177.732 59.5,179.5C 58.6993,177.958 58.366,176.292 58.5,174.5C 60.5273,174.662 62.5273,174.495 64.5,174C 63.5495,170.943 63.2161,167.777 63.5,164.5C 61.8333,164.5 60.1667,164.5 58.5,164.5C 58.5,167.5 58.5,170.5 58.5,173.5C 56.3213,169.797 54.6546,165.797 53.5,161.5C 53.5,160.167 53.5,158.833 53.5,157.5C 53.5,156.167 54.1667,155.5 55.5,155.5C 55.1253,158.397 55.6253,161.063 57,163.5C 66.0655,162.15 75.2322,161.483 84.5,161.5C 84.5,151.167 84.5,140.833 84.5,130.5C 79.8333,130.5 75.1667,130.5 70.5,130.5C 70.7215,128.336 71.7215,126.67 73.5,125.5C 75.9322,126.413 78.5989,126.413 81.5,125.5 Z"/></g>
<g><path style="opacity:1" fill="#80354a" d="M 130.5,158.5 C 133.435,160.447 134.101,163.114 132.5,166.5C 131.914,166.291 131.414,165.957 131,165.5C 130.503,163.19 130.337,160.857 130.5,158.5 Z"/></g>
<g><path style="opacity:1" fill="#4f3644" d="M 181.5,158.5 C 182.117,158.611 182.617,158.944 183,159.5C 183.667,162.167 183.667,164.833 183,167.5C 181.608,164.722 181.108,161.722 181.5,158.5 Z"/></g>
<g><path style="opacity:1" fill="#4bd4c9" d="M 162.5,144.5 C 162.5,151.167 162.5,157.833 162.5,164.5C 163.5,164.5 164.5,164.5 165.5,164.5C 165.19,161.287 165.523,158.287 166.5,155.5C 166.5,159.5 166.5,163.5 166.5,167.5C 168.857,167.663 171.19,167.497 173.5,167C 172.54,163.27 172.207,159.437 172.5,155.5C 173.317,157.969 173.817,160.635 174,163.5C 174.414,163.957 174.914,164.291 175.5,164.5C 176.167,159.015 176.833,153.681 177.5,148.5C 177.5,161.5 177.5,174.5 177.5,187.5C 175.265,187.205 173.265,187.539 171.5,188.5C 168.794,188.425 166.127,188.092 163.5,187.5C 163.665,184.482 163.498,181.482 163,178.5C 161.301,177.594 159.467,177.261 157.5,177.5C 158.263,176.732 159.263,176.232 160.5,176C 160.149,152.967 160.149,129.8 160.5,106.5C 161.086,106.709 161.586,107.043 162,107.5C 162.5,119.829 162.667,132.162 162.5,144.5 Z"/></g>
<g><path style="opacity:1" fill="#c1cecc" d="M 172.5,155.5 C 172.207,159.437 172.54,163.27 173.5,167C 171.19,167.497 168.857,167.663 166.5,167.5C 166.5,163.5 166.5,159.5 166.5,155.5C 168.641,152.981 170.641,152.981 172.5,155.5 Z"/></g>
<g><path style="opacity:1" fill="#785965" d="M 167.5,156.5 C 168.833,156.5 170.167,156.5 171.5,156.5C 171.5,159.5 171.5,162.5 171.5,165.5C 170.167,165.5 168.833,165.5 167.5,165.5C 167.5,162.5 167.5,159.5 167.5,156.5 Z"/></g>
<g><path style="opacity:1" fill="#968bb8" d="M 69.5,163.5 C 70.8221,163.33 71.9887,163.663 73,164.5C 73.2565,167.557 73.7565,170.557 74.5,173.5C 72.604,174.466 70.604,174.799 68.5,174.5C 68.244,170.731 68.5773,167.064 69.5,163.5 Z"/></g>
<g><path style="opacity:1" fill="#ec5277" d="M 231.5,124.5 C 230.566,125.568 230.232,126.901 230.5,128.5C 228.557,148.146 226.891,167.813 225.5,187.5C 223.5,187.5 221.5,187.5 219.5,187.5C 220.877,179.274 221.543,170.94 221.5,162.5C 222.218,147.599 223.551,132.599 225.5,117.5C 228.995,118.655 230.995,120.988 231.5,124.5 Z"/></g>
<g><path style="opacity:1" fill="#776e9b" d="M 78.5,163.5 C 80.1667,163.5 81.8333,163.5 83.5,163.5C 83.5,166.833 83.5,170.167 83.5,173.5C 81.8333,173.5 80.1667,173.5 78.5,173.5C 78.5,170.167 78.5,166.833 78.5,163.5 Z"/></g>
<g><path style="opacity:1" fill="#7045c7" d="M 230.5,128.5 C 231.328,134.319 231.828,140.319 232,146.5C 232.383,147.056 232.883,147.389 233.5,147.5C 232.754,151.127 232.087,154.794 231.5,158.5C 230.957,158.56 230.624,158.893 230.5,159.5C 239.793,160.896 249.126,161.896 258.5,162.5C 258.194,159.615 258.527,156.948 259.5,154.5C 258.83,165.532 257.83,176.532 256.5,187.5C 254.612,185.012 253.945,182.012 254.5,178.5C 252.833,178.5 251.167,178.5 249.5,178.5C 248.961,181.695 249.961,184.195 252.5,186C 248.392,187.924 244.392,187.758 240.5,185.5C 238.519,185.437 236.852,186.104 235.5,187.5C 234.808,186.975 234.308,186.308 234,185.5C 233.29,186.973 232.124,187.64 230.5,187.5C 230.649,186.448 230.483,185.448 230,184.5C 229.092,186.439 227.592,187.439 225.5,187.5C 226.891,167.813 228.557,148.146 230.5,128.5 Z"/></g>
<g><path style="opacity:1" fill="#887cad" d="M 240.5,163.5 C 242.5,163.5 244.5,163.5 246.5,163.5C 245.949,166.807 245.616,170.14 245.5,173.5C 243.833,173.5 242.167,173.5 240.5,173.5C 240.5,170.167 240.5,166.833 240.5,163.5 Z"/></g>
<g><path style="opacity:1" fill="#897eab" d="M 231.5,162.5 C 233.167,162.5 234.833,162.5 236.5,162.5C 235.949,165.807 235.616,169.14 235.5,172.5C 233.833,172.5 232.167,172.5 230.5,172.5C 230.833,169.167 231.167,165.833 231.5,162.5 Z"/></g>
<g><path style="opacity:1" fill="#8a7fac" d="M 252.5,163.5 C 253.496,163.414 254.329,163.748 255,164.5C 255.498,167.817 255.665,171.15 255.5,174.5C 253.833,174.5 252.167,174.5 250.5,174.5C 250.036,170.498 250.702,166.831 252.5,163.5 Z"/></g>
<g><path style="opacity:1" fill="#897eac" d="M 58.5,174.5 C 58.5,174.167 58.5,173.833 58.5,173.5C 58.5,170.5 58.5,167.5 58.5,164.5C 60.1667,164.5 61.8333,164.5 63.5,164.5C 63.2161,167.777 63.5495,170.943 64.5,174C 62.5273,174.495 60.5273,174.662 58.5,174.5 Z"/></g>
<g><path style="opacity:1" fill="#fd7292" d="M 136.5,115.5 C 136.5,116.167 136.5,116.833 136.5,117.5C 136.5,122.5 136.5,127.5 136.5,132.5C 135.508,132.672 134.842,132.338 134.5,131.5C 135.622,129.712 135.789,127.712 135,125.5C 134.586,125.043 134.086,124.709 133.5,124.5C 132.719,125.729 132.219,127.062 132,128.5C 132.042,125.399 130.875,123.066 128.5,121.5C 127.517,125.298 127.183,129.298 127.5,133.5C 126.833,141.833 126.167,150.167 125.5,158.5C 125.343,154.727 123.676,153.727 120.5,155.5C 119.835,157.369 119.169,159.369 118.5,161.5C 117.068,157.987 116.235,154.32 116,150.5C 115.28,157.536 115.447,164.536 116.5,171.5C 118.167,171.5 119.833,171.5 121.5,171.5C 121.5,172.5 121.5,173.5 121.5,174.5C 116.924,174.438 112.591,175.105 108.5,176.5C 107.868,179.595 106.868,181.928 105.5,183.5C 105.709,184.994 106.376,186.161 107.5,187C 105.19,187.497 102.857,187.663 100.5,187.5C 100.336,184.813 100.503,182.146 101,179.5C 102.067,178.809 103.234,178.309 104.5,178C 102.941,177.02 101.274,176.187 99.5,175.5C 102.304,174.895 104.971,174.062 107.5,173C 106.736,170.931 106.236,168.764 106,166.5C 105.617,165.944 105.117,165.611 104.5,165.5C 104.817,162.428 104.484,159.428 103.5,156.5C 101.801,155.185 100.135,155.185 98.5,156.5C 97.6981,157.952 97.1981,159.618 97,161.5C 96.0471,151.994 94.8805,142.66 93.5,133.5C 93.6716,132.508 93.3382,131.842 92.5,131.5C 92.5,131.167 92.5,130.833 92.5,130.5C 92.5674,129.041 92.2341,127.708 91.5,126.5C 91.8518,121.994 91.1852,117.661 89.5,113.5C 89.7093,112.914 90.0426,112.414 90.5,112C 94.8333,111.667 99.1667,111.333 103.5,111C 103.043,110.586 102.709,110.086 102.5,109.5C 105.836,108.76 109.17,108.094 112.5,107.5C 116.35,110.599 120.683,111.266 125.5,109.5C 129.201,111.557 132.867,113.557 136.5,115.5 Z"/></g>
<g><path style="opacity:1" fill="#c25871" d="M 112.5,137.5 C 110.809,138.864 109.142,140.197 107.5,141.5C 106.473,131.342 105.807,121.009 105.5,110.5C 107.5,110.5 109.5,110.5 111.5,110.5C 112.266,119.479 112.599,128.479 112.5,137.5 Z"/></g>
<g><path style="opacity:1" fill="#aa8691" d="M 96.5,121.5 C 98.5,121.5 100.5,121.5 102.5,121.5C 102.5,125.167 102.5,128.833 102.5,132.5C 100.5,132.5 98.5,132.5 96.5,132.5C 96.5,128.833 96.5,125.167 96.5,121.5 Z"/></g>
<g><path style="opacity:1" fill="#9d3c55" d="M 128.5,121.5 C 130.875,123.066 132.042,125.399 132,128.5C 132.219,127.062 132.719,125.729 133.5,124.5C 134.086,124.709 134.586,125.043 135,125.5C 135.789,127.712 135.622,129.712 134.5,131.5C 129.067,130.395 127.067,127.061 128.5,121.5 Z"/></g>
<g><path style="opacity:1" fill="#a6848f" d="M 119.5,119.5 C 120.822,119.33 121.989,119.663 123,120.5C 123.246,123.89 123.746,127.223 124.5,130.5C 122.604,131.466 120.604,131.799 118.5,131.5C 118.237,127.4 118.57,123.4 119.5,119.5 Z"/></g>
<g><path style="opacity:1" fill="#f895b0" d="M 93.5,133.5 C 94.8805,142.66 96.0471,151.994 97,161.5C 97.1981,159.618 97.6981,157.952 98.5,156.5C 98.5,160.167 98.5,163.833 98.5,167.5C 101.082,167.975 103.082,167.308 104.5,165.5C 105.117,165.611 105.617,165.944 106,166.5C 106.236,168.764 106.736,170.931 107.5,173C 104.971,174.062 102.304,174.895 99.5,175.5C 101.274,176.187 102.941,177.02 104.5,178C 103.234,178.309 102.067,178.809 101,179.5C 100.503,182.146 100.336,184.813 100.5,187.5C 102.857,187.663 105.19,187.497 107.5,187C 106.376,186.161 105.709,184.994 105.5,183.5C 106.868,181.928 107.868,179.595 108.5,176.5C 112.591,175.105 116.924,174.438 121.5,174.5C 121.5,173.5 121.5,172.5 121.5,171.5C 119.833,171.5 118.167,171.5 116.5,171.5C 115.447,164.536 115.28,157.536 116,150.5C 116.235,154.32 117.068,157.987 118.5,161.5C 119.169,159.369 119.835,157.369 120.5,155.5C 120.5,158.833 120.5,162.167 120.5,165.5C 122.167,165.5 123.833,165.5 125.5,165.5C 125.5,163.167 125.5,160.833 125.5,158.5C 126.167,150.167 126.833,141.833 127.5,133.5C 129.268,151.174 129.934,168.841 129.5,186.5C 131.743,187.474 134.076,187.808 136.5,187.5C 123.01,188.496 109.344,188.829 95.5,188.5C 95.5,188.167 95.5,187.833 95.5,187.5C 94.4638,169.515 93.7971,151.515 93.5,133.5 Z"/></g>
<g><path style="opacity:1" fill="#edbcc8" d="M 104.5,165.5 C 103.082,167.308 101.082,167.975 98.5,167.5C 98.5,163.833 98.5,160.167 98.5,156.5C 100.135,155.185 101.801,155.185 103.5,156.5C 104.484,159.428 104.817,162.428 104.5,165.5 Z"/></g>
<g><path style="opacity:1" fill="#b99da5" d="M 125.5,158.5 C 125.5,160.833 125.5,163.167 125.5,165.5C 123.833,165.5 122.167,165.5 120.5,165.5C 120.5,162.167 120.5,158.833 120.5,155.5C 123.676,153.727 125.343,154.727 125.5,158.5 Z"/></g>
<g><path style="opacity:1" fill="#8b717b" d="M 99.5,157.5 C 100.833,157.5 102.167,157.5 103.5,157.5C 103.5,160.167 103.5,162.833 103.5,165.5C 102.167,165.5 100.833,165.5 99.5,165.5C 99.5,162.833 99.5,160.167 99.5,157.5 Z"/></g>
<g><path style="opacity:1" fill="#bd6f82" d="M 112.5,137.5 C 113.425,149.146 114.091,160.813 114.5,172.5C 112.5,172.5 110.5,172.5 108.5,172.5C 108.351,162.159 108.018,151.826 107.5,141.5C 109.142,140.197 110.809,138.864 112.5,137.5 Z"/></g>
<g><path style="opacity:1" fill="#e5b3bf" d="M 98.5,138.5 C 100.144,138.286 101.644,138.62 103,139.5C 103.498,142.817 103.665,146.15 103.5,149.5C 101.5,149.5 99.5,149.5 97.5,149.5C 97.244,145.731 97.5773,142.064 98.5,138.5 Z"/></g>
<g><path style="opacity:1" fill="#b698a1" d="M 119.5,137.5 C 121.144,137.286 122.644,137.62 124,138.5C 124.498,141.817 124.665,145.15 124.5,148.5C 122.833,148.5 121.167,148.5 119.5,148.5C 119.5,144.833 119.5,141.167 119.5,137.5 Z"/></g>
<g><path style="opacity:1" fill="#856a74" d="M 98.5,140.5 C 99.8333,140.5 101.167,140.5 102.5,140.5C 102.5,143.167 102.5,145.833 102.5,148.5C 101.167,148.5 99.8333,148.5 98.5,148.5C 98.5,145.833 98.5,143.167 98.5,140.5 Z"/></g>
<g><path style="opacity:0.797" fill="#be7435" d="M 285.5,167.5 C 288.248,167.402 288.914,168.402 287.5,170.5C 282.967,175.235 280.301,180.901 279.5,187.5C 277.833,187.5 276.167,187.5 274.5,187.5C 276.09,179.65 279.757,172.983 285.5,167.5 Z"/></g>
<g><path style="opacity:1" fill="#f697b0" d="M 188.5,126.5 C 188.833,126.5 189.167,126.5 189.5,126.5C 189.333,139.504 189.5,152.504 190,165.5C 190.21,163.942 190.71,162.609 191.5,161.5C 191.5,162.833 191.5,164.167 191.5,165.5C 193.167,165.5 194.833,165.5 196.5,165.5C 196.5,162.167 196.5,158.833 196.5,155.5C 197.737,160.96 198.404,166.627 198.5,172.5C 195.833,172.5 193.167,172.5 190.5,172.5C 190.5,173.5 190.5,174.5 190.5,175.5C 193.5,175.5 196.5,175.5 199.5,175.5C 199.448,179.198 199.114,182.865 198.5,186.5C 195.901,184.614 194.901,181.948 195.5,178.5C 194.178,178.33 193.011,178.663 192,179.5C 191.505,181.473 191.338,183.473 191.5,185.5C 189.833,185.5 188.167,185.5 186.5,185.5C 186.528,173.156 186.862,160.823 187.5,148.5C 188.477,145.713 188.81,142.713 188.5,139.5C 188.5,135.167 188.5,130.833 188.5,126.5 Z"/></g>
<g><path style="opacity:1" fill="#fc99b2" d="M 221.5,162.5 C 221.543,170.94 220.877,179.274 219.5,187.5C 217.5,187.5 215.5,187.5 213.5,187.5C 213.5,185.167 213.5,182.833 213.5,180.5C 212.167,180.5 210.833,180.5 209.5,180.5C 209.975,183.082 209.308,185.082 207.5,186.5C 207.665,183.15 207.498,179.817 207,176.5C 204.959,175.577 202.792,175.244 200.5,175.5C 204.634,174.515 208.968,174.182 213.5,174.5C 213.5,173.5 213.5,172.5 213.5,171.5C 211.833,171.5 210.167,171.5 208.5,171.5C 208.336,168.813 208.503,166.146 209,163.5C 209.249,164.624 209.749,165.624 210.5,166.5C 211.767,163.051 212.767,159.551 213.5,156C 215.112,155.28 216.612,155.446 218,156.5C 218.333,159.5 218.667,162.5 219,165.5C 220.215,160.949 220.881,156.282 221,151.5C 221.499,155.152 221.665,158.818 221.5,162.5 Z"/></g>
<g><path style="opacity:1" fill="#896e78" d="M 213.5,157.5 C 214.833,157.5 216.167,157.5 217.5,157.5C 217.5,160.167 217.5,162.833 217.5,165.5C 216.167,165.5 214.833,165.5 213.5,165.5C 213.5,162.833 213.5,160.167 213.5,157.5 Z"/></g>
<g><path style="opacity:1" fill="#48cfcc" d="M 137.5,133.5 C 138.78,143.643 139.447,153.976 139.5,164.5C 140.675,164.719 141.675,164.386 142.5,163.5C 143.08,160.689 143.746,158.023 144.5,155.5C 144.5,159.5 144.5,163.5 144.5,167.5C 147.059,167.802 149.393,167.468 151.5,166.5C 151.369,165.624 151.702,164.957 152.5,164.5C 153.48,167.086 153.813,169.753 153.5,172.5C 149.653,172.381 145.986,173.047 142.5,174.5C 142.263,175.791 142.596,176.791 143.5,177.5C 147.167,177.5 150.833,177.5 154.5,177.5C 153.577,181.064 153.244,184.731 153.5,188.5C 147.974,188.821 142.64,188.488 137.5,187.5C 137.5,169.5 137.5,151.5 137.5,133.5 Z"/></g>
<g><path style="opacity:0.31" fill="#5833b6" d="M 269.5,172.5 C 268.686,177.119 268.353,181.786 268.5,186.5C 267.06,185.054 266.393,183.221 266.5,181C 266.762,178.453 267.262,175.953 268,173.5C 268.383,172.944 268.883,172.611 269.5,172.5 Z"/></g>
<g><path style="opacity:1" fill="#7e73a3" d="M 239.5,177.5 C 241.167,177.5 242.833,177.5 244.5,177.5C 244.5,179.167 244.5,180.833 244.5,182.5C 242.833,182.5 241.167,182.5 239.5,182.5C 239.5,180.833 239.5,179.167 239.5,177.5 Z"/></g>
<g><path style="opacity:1" fill="#e9d9dd" d="M 108.5,176.5 C 111.167,176.5 113.833,176.5 116.5,176.5C 116.216,179.777 116.549,182.943 117.5,186C 114.518,186.498 111.518,186.665 108.5,186.5C 108.5,183.167 108.5,179.833 108.5,176.5 Z"/></g>
<g><path style="opacity:1" fill="#7d74a2" d="M 230.5,176.5 C 231.833,176.5 233.167,176.5 234.5,176.5C 234.5,178.167 234.5,179.833 234.5,181.5C 232.857,181.48 231.524,182.147 230.5,183.5C 229.286,181.141 229.286,178.808 230.5,176.5 Z"/></g>
<g><path style="opacity:1" fill="#b67039" d="M 274.5,159.5 C 272.243,163.605 270.576,167.939 269.5,172.5C 268.883,172.611 268.383,172.944 268,173.5C 267.262,175.953 266.762,178.453 266.5,181C 266.393,183.221 267.06,185.054 268.5,186.5C 268.5,186.833 268.5,187.167 268.5,187.5C 266.833,187.5 265.167,187.5 263.5,187.5C 263.34,182.434 263.84,177.434 265,172.5C 267.397,168.376 269.231,164.043 270.5,159.5C 271.338,159.158 271.672,158.492 271.5,157.5C 275.203,154.299 276.203,154.965 274.5,159.5 Z"/></g>
<g><path style="opacity:1" fill="#8074a7" d="M 70.5,177.5 C 73.6973,178.112 75.0306,180.112 74.5,183.5C 72.8333,183.5 71.1667,183.5 69.5,183.5C 69.3253,181.379 69.6586,179.379 70.5,177.5 Z"/></g>
<g><path style="opacity:0.553" fill="#bc7334" d="M 37.5,167.5 C 42.8783,173.215 46.545,179.882 48.5,187.5C 46.8333,187.5 45.1667,187.5 43.5,187.5C 42.6995,180.901 40.0328,175.235 35.5,170.5C 34.0857,168.402 34.7524,167.402 37.5,167.5 Z"/></g>
<g><path style="opacity:1" fill="#b26b49" d="M 50.5,157.5 C 51.5116,158.872 52.5116,160.205 53.5,161.5C 54.6546,165.797 56.3213,169.797 58.5,173.5C 58.5,173.833 58.5,174.167 58.5,174.5C 58.366,176.292 58.6993,177.958 59.5,179.5C 59.5,182.167 59.5,184.833 59.5,187.5C 58.1667,187.5 56.8333,187.5 55.5,187.5C 55.1667,187.5 54.8333,187.5 54.5,187.5C 55.6241,176.897 53.2908,167.23 47.5,158.5C 47.351,154.999 48.351,154.666 50.5,157.5 Z"/></g>
<g><path style="opacity:1" fill="#7d606b" d="M 109.5,177.5 C 111.5,177.5 113.5,177.5 115.5,177.5C 115.5,180.167 115.5,182.833 115.5,185.5C 113.5,185.5 111.5,185.5 109.5,185.5C 109.5,182.833 109.5,180.167 109.5,177.5 Z"/></g>
<g><path style="opacity:1" fill="#9b88a3" d="M 60.5,187.5 C 58.8333,188.833 57.1667,188.833 55.5,187.5C 56.8333,187.5 58.1667,187.5 59.5,187.5C 59.5,184.833 59.5,182.167 59.5,179.5C 63.4109,177.732 65.0776,179.065 64.5,183.5C 61.858,183.488 60.5246,184.821 60.5,187.5 Z"/></g>
<g><path style="opacity:1" fill="#eccbd4" d="M 199.5,175.5 C 199.833,175.5 200.167,175.5 200.5,175.5C 202.792,175.244 204.959,175.577 207,176.5C 207.498,179.817 207.665,183.15 207.5,186.5C 204.5,186.5 201.5,186.5 198.5,186.5C 199.114,182.865 199.448,179.198 199.5,175.5 Z"/></g>
<g><path style="opacity:1" fill="#836771" d="M 200.5,176.5 C 202.467,176.261 204.301,176.594 206,177.5C 206.497,179.81 206.663,182.143 206.5,184.5C 204.5,184.5 202.5,184.5 200.5,184.5C 200.5,181.833 200.5,179.167 200.5,176.5 Z"/></g>
<g><path style="opacity:1" fill="#fb6d8d" d="M 198.5,186.5 C 201.5,186.5 204.5,186.5 207.5,186.5C 209.308,185.082 209.975,183.082 209.5,180.5C 210.833,180.5 212.167,180.5 213.5,180.5C 213.5,182.833 213.5,185.167 213.5,187.5C 203.773,188.139 194.44,187.472 185.5,185.5C 185.833,185.5 186.167,185.5 186.5,185.5C 188.167,185.5 189.833,185.5 191.5,185.5C 191.338,183.473 191.505,181.473 192,179.5C 193.011,178.663 194.178,178.33 195.5,178.5C 194.901,181.948 195.901,184.614 198.5,186.5 Z"/></g>
<g><path style="opacity:1" fill="#95c0ed" d="M 154.5,177.5 C 155.5,177.5 156.5,177.5 157.5,177.5C 159.467,177.261 161.301,177.594 163,178.5C 163.498,181.482 163.665,184.482 163.5,187.5C 166.127,188.092 168.794,188.425 171.5,188.5C 175.833,188.5 180.167,188.5 184.5,188.5C 204.586,187.875 224.586,188.708 244.5,191C 243,191.167 241.5,191.333 240,191.5C 205.342,190.194 170.842,190.194 136.5,191.5C 136.167,191.5 135.833,191.5 135.5,191.5C 118.839,190.651 102.172,189.818 85.5,189C 88.8168,188.502 92.1501,188.335 95.5,188.5C 109.344,188.829 123.01,188.496 136.5,187.5C 136.833,187.5 137.167,187.5 137.5,187.5C 142.64,188.488 147.974,188.821 153.5,188.5C 153.244,184.731 153.577,181.064 154.5,177.5 Z"/></g>
<g><path style="opacity:1" fill="#6f4e5a" d="M 155.5,179.5 C 156.5,179.5 157.5,179.5 158.5,179.5C 157.5,188.66 158.167,188.66 160.5,179.5C 161.48,182.086 161.813,184.753 161.5,187.5C 159.5,187.5 157.5,187.5 155.5,187.5C 155.5,184.833 155.5,182.167 155.5,179.5 Z"/></g>
<g><path style="opacity:1" fill="#7dabe8" d="M 86.5,187.5 C 89.5,187.5 92.5,187.5 95.5,187.5C 95.5,187.833 95.5,188.167 95.5,188.5C 92.1501,188.335 88.8168,188.502 85.5,189C 102.172,189.818 118.839,190.651 135.5,191.5C 134.974,193.23 133.974,194.564 132.5,195.5C 129.713,194.523 126.713,194.19 123.5,194.5C 124.091,193.849 124.757,193.182 125.5,192.5C 123.833,191.167 122.167,191.167 120.5,192.5C 118.829,195.492 116.829,198.159 114.5,200.5C 114.5,199.167 114.5,197.833 114.5,196.5C 113.5,196.5 112.5,196.5 111.5,196.5C 111.672,195.508 111.338,194.842 110.5,194.5C 101.5,194.5 92.5,194.5 83.5,194.5C 83.5,197.167 83.5,199.833 83.5,202.5C 83.5,203.5 83.5,204.5 83.5,205.5C 83.1667,205.5 82.8333,205.5 82.5,205.5C 82.6621,203.473 82.4955,201.473 82,199.5C 81.7645,197.881 80.9311,196.881 79.5,196.5C 79.6716,195.508 79.3382,194.842 78.5,194.5C 75.5,194.5 72.5,194.5 69.5,194.5C 69.5,197.5 69.5,200.5 69.5,203.5C 69.81,206.713 69.4767,209.713 68.5,212.5C 68.6641,209.813 68.4974,207.146 68,204.5C 67.7645,202.881 66.9311,201.881 65.5,201.5C 65.3059,199.088 63.9726,198.088 61.5,198.5C 61.7709,196.62 61.1042,195.287 59.5,194.5C 50.5,194.5 41.5,194.5 32.5,194.5C 32.8168,198.702 32.4834,202.702 31.5,206.5C 31.5,203.833 31.5,201.167 31.5,198.5C 29.5,198.5 27.5,198.5 25.5,198.5C 25.7244,194.821 26.0578,191.154 26.5,187.5C 32.1667,187.5 37.8333,187.5 43.5,187.5C 45.1667,187.5 46.8333,187.5 48.5,187.5C 50.5,187.5 52.5,187.5 54.5,187.5C 54.8333,187.5 55.1667,187.5 55.5,187.5C 57.1667,188.833 58.8333,188.833 60.5,187.5C 66.1928,186.714 71.8595,186.714 77.5,187.5C 79.7085,187.431 81.7085,186.764 83.5,185.5C 82.3112,184.571 80.9778,184.238 79.5,184.5C 79.5,182.167 79.5,179.833 79.5,177.5C 81.1439,177.286 82.6439,177.62 84,178.5C 83.9296,181.992 84.7629,184.992 86.5,187.5 Z"/></g>
<g><path style="opacity:1" fill="#6594df" d="M 135.5,191.5 C 135.833,191.5 136.167,191.5 136.5,191.5C 143.841,191.334 151.174,191.5 158.5,192C 157.837,193.518 156.837,194.685 155.5,195.5C 155.5,194.833 155.167,194.5 154.5,194.5C 151.833,194.5 149.167,194.5 146.5,194.5C 146.5,198.833 146.5,203.167 146.5,207.5C 141.833,207.5 137.167,207.5 132.5,207.5C 132.5,203.5 132.5,199.5 132.5,195.5C 133.974,194.564 134.974,193.23 135.5,191.5 Z"/></g>
<g><path style="opacity:1" fill="#76a6e4" d="M 256.5,187.5 C 258.833,187.5 261.167,187.5 263.5,187.5C 265.167,187.5 266.833,187.5 268.5,187.5C 270.5,187.5 272.5,187.5 274.5,187.5C 276.167,187.5 277.833,187.5 279.5,187.5C 280.5,187.5 281.5,187.5 282.5,187.5C 282.401,190.237 282.735,192.904 283.5,195.5C 281.567,196.642 280.067,198.308 279,200.5C 278.878,198.563 278.045,197.23 276.5,196.5C 273.663,194.598 270.329,193.931 266.5,194.5C 266.5,199.167 266.5,203.833 266.5,208.5C 265.681,205.695 265.181,202.695 265,199.5C 264.764,197.881 263.931,196.881 262.5,196.5C 252.219,194.524 241.552,193.857 230.5,194.5C 229.514,198.97 229.181,203.637 229.5,208.5C 228.891,203.919 228.224,199.919 227.5,196.5C 226.833,196.5 226.167,196.5 225.5,196.5C 225.672,195.508 225.338,194.842 224.5,194.5C 215.5,194.5 206.5,194.5 197.5,194.5C 197.5,197.167 197.5,199.833 197.5,202.5C 197.5,204.833 197.5,207.167 197.5,209.5C 196.833,206.833 196.167,204.167 195.5,201.5C 195.44,200.957 195.107,200.624 194.5,200.5C 193.833,209.658 193.167,218.658 192.5,227.5C 192.5,225.167 192.5,222.833 192.5,220.5C 192.5,213.167 192.5,205.833 192.5,198.5C 190.833,198.5 189.167,198.5 187.5,198.5C 187.5,197.167 187.5,195.833 187.5,194.5C 179.833,194.5 172.167,194.5 164.5,194.5C 164.5,195.833 164.5,197.167 164.5,198.5C 163.167,198.5 161.833,198.5 160.5,198.5C 160.5,204.833 160.5,211.167 160.5,217.5C 159.509,210.677 158.842,203.677 158.5,196.5C 157.5,196.5 156.5,196.5 155.5,196.5C 155.5,196.167 155.5,195.833 155.5,195.5C 156.837,194.685 157.837,193.518 158.5,192C 151.174,191.5 143.841,191.334 136.5,191.5C 170.842,190.194 205.342,190.194 240,191.5C 241.5,191.333 243,191.167 244.5,191C 224.586,188.708 204.586,187.875 184.5,188.5C 184.263,187.209 184.596,186.209 185.5,185.5C 194.44,187.472 203.773,188.139 213.5,187.5C 215.5,187.5 217.5,187.5 219.5,187.5C 221.5,187.5 223.5,187.5 225.5,187.5C 227.592,187.439 229.092,186.439 230,184.5C 230.483,185.448 230.649,186.448 230.5,187.5C 232.124,187.64 233.29,186.973 234,185.5C 234.308,186.308 234.808,186.975 235.5,187.5C 236.852,186.104 238.519,185.437 240.5,185.5C 244.392,187.758 248.392,187.924 252.5,186C 249.961,184.195 248.961,181.695 249.5,178.5C 251.167,178.5 252.833,178.5 254.5,178.5C 253.945,182.012 254.612,185.012 256.5,187.5 Z"/></g>
<g><path style="opacity:1" fill="#88d2dc" d="M 78.5,194.5 C 78.7845,196.415 78.4511,198.081 77.5,199.5C 75.7211,197.656 73.3878,196.99 70.5,197.5C 70.7947,199.735 70.4614,201.735 69.5,203.5C 69.5,200.5 69.5,197.5 69.5,194.5C 72.5,194.5 75.5,194.5 78.5,194.5 Z"/></g>
<g><path style="opacity:1" fill="#63bec2" d="M 123.5,194.5 C 126.713,194.19 129.713,194.523 132.5,195.5C 132.5,199.5 132.5,203.5 132.5,207.5C 137.167,207.5 141.833,207.5 146.5,207.5C 141.36,208.488 136.026,208.821 130.5,208.5C 130.5,204.833 130.5,201.167 130.5,197.5C 128.167,197.5 125.833,197.5 123.5,197.5C 123.821,203.026 123.488,208.36 122.5,213.5C 122.177,206.978 122.51,200.645 123.5,194.5 Z"/></g>
<g><path style="opacity:1" fill="#71f0bc" d="M 199.5,197.5 C 207.5,197.5 215.5,197.5 223.5,197.5C 223.5,198.833 223.5,200.167 223.5,201.5C 220.615,201.194 217.948,201.527 215.5,202.5C 215.181,207.363 215.514,212.03 216.5,216.5C 216.5,219.167 216.5,221.833 216.5,224.5C 213.833,224.5 211.167,224.5 208.5,224.5C 208.664,218.833 208.997,218.5 209.5,223.5C 211.167,223.5 212.833,223.5 214.5,223.5C 214.5,218.833 214.5,214.167 214.5,209.5C 212.5,209.5 210.5,209.5 208.5,209.5C 208.5,206.833 208.5,204.167 208.5,201.5C 205.167,201.5 201.833,201.5 198.5,201.5C 198.232,199.901 198.566,198.568 199.5,197.5 Z"/></g>
<g><path style="opacity:1" fill="#60cdcd" d="M 230.5,194.5 C 241.552,193.857 252.219,194.524 262.5,196.5C 262.5,198.5 262.5,200.5 262.5,202.5C 254.833,202.5 247.167,202.5 239.5,202.5C 239.5,204.167 239.5,205.833 239.5,207.5C 238.539,205.735 238.205,203.735 238.5,201.5C 245.833,201.5 253.167,201.5 260.5,201.5C 260.5,200.167 260.5,198.833 260.5,197.5C 256.049,196.173 251.216,195.506 246,195.5C 240.784,195.506 235.951,196.173 231.5,197.5C 230.596,196.791 230.263,195.791 230.5,194.5 Z"/></g>
<g><path style="opacity:1" fill="#ebfbf8" d="M 260.5,197.5 C 250.833,197.5 241.167,197.5 231.5,197.5C 235.951,196.173 240.784,195.506 246,195.5C 251.216,195.506 256.049,196.173 260.5,197.5 Z"/></g>
<g><path style="opacity:1" fill="#247c87" d="M 197.5,202.5 C 200.833,202.5 204.167,202.5 207.5,202.5C 207.5,210.167 207.5,217.833 207.5,225.5C 210.5,225.5 213.5,225.5 216.5,225.5C 216.5,227.833 216.5,230.167 216.5,232.5C 214.167,232.5 211.833,232.5 209.5,232.5C 208.833,232.5 208.167,232.5 207.5,232.5C 206.536,225.254 206.203,217.92 206.5,210.5C 203.287,210.81 200.287,210.477 197.5,209.5C 197.5,207.167 197.5,204.833 197.5,202.5 Z"/></g>
<g><path style="opacity:1" fill="#257781" d="M 224.5,194.5 C 225.338,194.842 225.672,195.508 225.5,196.5C 225.666,200.846 225.499,205.179 225,209.5C 222.281,210.444 219.448,210.777 216.5,210.5C 216.5,212.5 216.5,214.5 216.5,216.5C 215.514,212.03 215.181,207.363 215.5,202.5C 218.5,202.5 221.5,202.5 224.5,202.5C 224.5,199.833 224.5,197.167 224.5,194.5 Z"/></g>
<g><path style="opacity:1" fill="#257881" d="M 83.5,202.5 C 86.5,202.5 89.5,202.5 92.5,202.5C 92.5,206.167 92.5,209.833 92.5,213.5C 92.8064,216.385 92.4731,219.052 91.5,221.5C 91.5,217.833 91.5,214.167 91.5,210.5C 89.1432,210.663 86.8098,210.497 84.5,210C 83.6198,208.644 83.2865,207.144 83.5,205.5C 83.5,204.5 83.5,203.5 83.5,202.5 Z"/></g>
<g><path style="opacity:1" fill="#1c767b" d="M 262.5,202.5 C 262.768,205.119 262.435,207.619 261.5,210C 258.854,210.497 256.187,210.664 253.5,210.5C 249.087,208.862 244.421,207.862 239.5,207.5C 239.5,205.833 239.5,204.167 239.5,202.5C 247.167,202.5 254.833,202.5 262.5,202.5 Z"/></g>
<g><path style="opacity:1" fill="#70edbc" d="M 85.5,197.5 C 93.5,197.5 101.5,197.5 109.5,197.5C 109.5,198.833 109.5,200.167 109.5,201.5C 106.5,201.5 103.5,201.5 100.5,201.5C 100.5,202.5 100.5,203.5 100.5,204.5C 100.5,211.5 100.5,218.5 100.5,225.5C 97.5,225.5 94.5,225.5 91.5,225.5C 91.5,224.167 91.5,222.833 91.5,221.5C 92.4731,219.052 92.8064,216.385 92.5,213.5C 93.4794,216.625 93.8128,219.958 93.5,223.5C 95.5,223.5 97.5,223.5 99.5,223.5C 99.5,218.833 99.5,214.167 99.5,209.5C 97.5,209.5 95.5,209.5 93.5,209.5C 93.5,206.833 93.5,204.167 93.5,201.5C 90.8333,201.5 88.1667,201.5 85.5,201.5C 85.5,200.167 85.5,198.833 85.5,197.5 Z"/></g>
<g><path style="opacity:1" fill="#5c5ea0" d="M 111.5,196.5 C 112.5,196.5 113.5,196.5 114.5,196.5C 114.5,197.833 114.5,199.167 114.5,200.5C 114.665,204.182 114.499,207.848 114,211.5C 113.617,212.056 113.117,212.389 112.5,212.5C 109.833,212.5 107.167,212.5 104.5,212.5C 104.5,214.5 104.5,216.5 104.5,218.5C 104.5,223.833 104.5,229.167 104.5,234.5C 101.15,234.665 97.8168,234.498 94.5,234C 93.5842,233.722 92.9175,233.222 92.5,232.5C 95.5,232.5 98.5,232.5 101.5,232.5C 101.549,225.151 101.882,217.817 102.5,210.5C 105.5,210.5 108.5,210.5 111.5,210.5C 111.5,205.833 111.5,201.167 111.5,196.5 Z"/></g>
<g><path style="opacity:1" fill="#61d7bb" d="M 192.5,220.5 C 191.167,220.5 189.833,220.5 188.5,220.5C 188.714,222.144 188.38,223.644 187.5,225C 180.174,225.5 172.841,225.666 165.5,225.5C 165.5,223.833 165.5,222.167 165.5,220.5C 163.833,220.5 162.167,220.5 160.5,220.5C 160.5,219.5 160.5,218.5 160.5,217.5C 160.5,211.167 160.5,204.833 160.5,198.5C 161.833,198.5 163.167,198.5 164.5,198.5C 164.5,197.167 164.5,195.833 164.5,194.5C 172.167,194.5 179.833,194.5 187.5,194.5C 187.5,195.833 187.5,197.167 187.5,198.5C 189.167,198.5 190.833,198.5 192.5,198.5C 192.5,205.833 192.5,213.167 192.5,220.5 Z"/></g>
<g><path style="opacity:1" fill="#177277" d="M 180.5,215.5 C 180.5,212.5 180.5,209.5 180.5,206.5C 177.167,206.5 173.833,206.5 170.5,206.5C 170.5,205.5 170.5,204.5 170.5,203.5C 174.5,203.5 178.5,203.5 182.5,203.5C 183.089,207.971 182.423,211.971 180.5,215.5 Z"/></g>
<g><path style="opacity:1" fill="#75f9b7" d="M 166.5,197.5 C 173.167,197.5 179.833,197.5 186.5,197.5C 186.5,198.5 186.5,199.5 186.5,200.5C 187.833,200.5 189.167,200.5 190.5,200.5C 190.5,201.5 190.5,202.5 190.5,203.5C 188.533,203.261 186.699,203.594 185,204.5C 184.626,203.584 184.126,202.75 183.5,202C 178.511,201.501 173.511,201.334 168.5,201.5C 168.241,205.068 166.241,206.401 162.5,205.5C 162.5,203.833 162.5,202.167 162.5,200.5C 163.833,200.5 165.167,200.5 166.5,200.5C 166.5,199.5 166.5,198.5 166.5,197.5 Z"/></g>
<g><path style="opacity:1" fill="#e8fcf6" d="M 186.5,197.5 C 179.833,197.5 173.167,197.5 166.5,197.5C 169.428,196.18 172.761,195.514 176.5,195.5C 180.239,195.514 183.572,196.18 186.5,197.5 Z"/></g>
<g><path style="opacity:1" fill="#69e8b9" d="M 231.5,197.5 C 241.167,197.5 250.833,197.5 260.5,197.5C 260.5,198.833 260.5,200.167 260.5,201.5C 253.167,201.5 245.833,201.5 238.5,201.5C 238.205,203.735 238.539,205.735 239.5,207.5C 244.421,207.862 249.087,208.862 253.5,210.5C 253.5,210.833 253.5,211.167 253.5,211.5C 248.833,211.5 244.167,211.5 239.5,211.5C 239.5,213.5 239.5,215.5 239.5,217.5C 244.167,217.5 248.833,217.5 253.5,217.5C 257.329,216.931 260.663,217.598 263.5,219.5C 263.5,221.5 263.5,223.5 263.5,225.5C 252.833,225.5 242.167,225.5 231.5,225.5C 231.5,216.167 231.5,206.833 231.5,197.5 Z"/></g>
<g><path style="opacity:1" fill="#6ce4be" d="M 77.5,199.5 C 77.4159,208.178 77.0825,216.845 76.5,225.5C 73.8333,225.5 71.1667,225.5 68.5,225.5C 68.5,223.5 68.5,221.5 68.5,219.5C 68.5,217.167 68.5,214.833 68.5,212.5C 69.4767,209.713 69.81,206.713 69.5,203.5C 70.4614,201.735 70.7947,199.735 70.5,197.5C 73.3878,196.99 75.7211,197.656 77.5,199.5 Z"/></g>
<g><path style="opacity:1" fill="#5bc5c0" d="M 110.5,194.5 C 110.5,197.167 110.5,199.833 110.5,202.5C 106.821,202.06 103.488,202.727 100.5,204.5C 100.5,203.5 100.5,202.5 100.5,201.5C 103.5,201.5 106.5,201.5 109.5,201.5C 109.5,200.167 109.5,198.833 109.5,197.5C 105.893,196.176 101.893,195.509 97.5,195.5C 93.107,195.509 89.107,196.176 85.5,197.5C 85.5,198.833 85.5,200.167 85.5,201.5C 88.1667,201.5 90.8333,201.5 93.5,201.5C 93.5,204.167 93.5,206.833 93.5,209.5C 95.5,209.5 97.5,209.5 99.5,209.5C 99.5,214.167 99.5,218.833 99.5,223.5C 97.5,223.5 95.5,223.5 93.5,223.5C 93.8128,219.958 93.4794,216.625 92.5,213.5C 92.5,209.833 92.5,206.167 92.5,202.5C 89.5,202.5 86.5,202.5 83.5,202.5C 83.5,199.833 83.5,197.167 83.5,194.5C 92.5,194.5 101.5,194.5 110.5,194.5 Z"/></g>
<g><path style="opacity:1" fill="#ebfbf7" d="M 109.5,197.5 C 101.5,197.5 93.5,197.5 85.5,197.5C 89.107,196.176 93.107,195.509 97.5,195.5C 101.893,195.509 105.893,196.176 109.5,197.5 Z"/></g>
<g><path style="opacity:1" fill="#7d8edf" d="M 123.5,194.5 C 122.51,200.645 122.177,206.978 122.5,213.5C 122.5,217.5 122.5,221.5 122.5,225.5C 122.5,226.833 122.5,228.167 122.5,229.5C 121.882,224.255 121.216,219.589 120.5,215.5C 117.998,214.221 115.498,214.221 113,215.5C 112.517,214.552 112.351,213.552 112.5,212.5C 113.117,212.389 113.617,212.056 114,211.5C 114.499,207.848 114.665,204.182 114.5,200.5C 116.829,198.159 118.829,195.492 120.5,192.5C 122.167,191.167 123.833,191.167 125.5,192.5C 124.757,193.182 124.091,193.849 123.5,194.5 Z"/></g>
<g><path style="opacity:0.856" fill="#757fde" d="M 25.5,198.5 C 27.5,198.5 29.5,198.5 31.5,198.5C 31.5,201.167 31.5,203.833 31.5,206.5C 31.5628,211.203 31.2295,215.87 30.5,220.5C 30.1667,220.5 29.8333,220.5 29.5,220.5C 28.0145,218.769 26.0145,217.769 23.5,217.5C 23.9695,211.138 24.6361,204.805 25.5,198.5 Z"/></g>
<g><path style="opacity:1" fill="#787eca" d="M 170.5,206.5 C 173.833,206.5 177.167,206.5 180.5,206.5C 180.5,209.5 180.5,212.5 180.5,215.5C 177.167,215.5 173.833,215.5 170.5,215.5C 170.5,212.5 170.5,209.5 170.5,206.5 Z"/></g>
<g><path style="opacity:1" fill="#8289d7" d="M 283.5,195.5 C 283.613,200.518 283.947,205.518 284.5,210.5C 292.196,210.169 299.862,210.503 307.5,211.5C 308.127,212.417 308.461,213.417 308.5,214.5C 301.492,214.334 294.492,214.5 287.5,215C 286.748,215.671 286.414,216.504 286.5,217.5C 283.5,217.5 280.5,217.5 277.5,217.5C 277.81,214.287 277.477,211.287 276.5,208.5C 276.5,206.5 276.5,204.5 276.5,202.5C 276.5,200.5 276.5,198.5 276.5,196.5C 278.045,197.23 278.878,198.563 279,200.5C 280.067,198.308 281.567,196.642 283.5,195.5 Z"/></g>
<g><path style="opacity:1" fill="#66e5bb" d="M 154.5,194.5 C 154.5,204.833 154.5,215.167 154.5,225.5C 151.833,225.5 149.167,225.5 146.5,225.5C 146.5,222.167 146.5,218.833 146.5,215.5C 141.5,215.5 136.5,215.5 131.5,215.5C 131.5,218.167 131.5,220.833 131.5,223.5C 131.5,224.167 131.5,224.833 131.5,225.5C 128.5,225.5 125.5,225.5 122.5,225.5C 122.5,221.5 122.5,217.5 122.5,213.5C 123.488,208.36 123.821,203.026 123.5,197.5C 125.833,197.5 128.167,197.5 130.5,197.5C 130.5,201.167 130.5,204.833 130.5,208.5C 136.026,208.821 141.36,208.488 146.5,207.5C 146.5,203.167 146.5,198.833 146.5,194.5C 149.167,194.5 151.833,194.5 154.5,194.5 Z"/></g>
<g><path style="opacity:1" fill="#5ac0b8" d="M 124.5,209.5 C 134.167,209.5 143.833,209.5 153.5,209.5C 153.5,214.167 153.5,218.833 153.5,223.5C 151.5,223.5 149.5,223.5 147.5,223.5C 147.5,220.5 147.5,217.5 147.5,214.5C 141.5,214.5 135.5,214.5 129.5,214.5C 129.5,217.5 129.5,220.5 129.5,223.5C 127.833,223.5 126.167,223.5 124.5,223.5C 124.5,218.833 124.5,214.167 124.5,209.5 Z"/></g>
<g><path style="opacity:1" fill="#646ba9" d="M 155.5,196.5 C 156.5,196.5 157.5,196.5 158.5,196.5C 158.842,203.677 159.509,210.677 160.5,217.5C 160.5,218.5 160.5,219.5 160.5,220.5C 160.5,222.833 160.5,225.167 160.5,227.5C 159.681,224.695 159.181,221.695 159,218.5C 157.811,220.233 156.644,221.9 155.5,223.5C 155.5,214.5 155.5,205.5 155.5,196.5 Z"/></g>
<g><path style="opacity:1" fill="#1d787b" d="M 253.5,211.5 C 253.5,213.5 253.5,215.5 253.5,217.5C 248.833,217.5 244.167,217.5 239.5,217.5C 239.5,215.5 239.5,213.5 239.5,211.5C 244.167,211.5 248.833,211.5 253.5,211.5 Z"/></g>
<g><path style="opacity:1" fill="#7170b8" d="M 262.5,196.5 C 263.931,196.881 264.764,197.881 265,199.5C 265.181,202.695 265.681,205.695 266.5,208.5C 267.053,213.482 267.387,218.482 267.5,223.5C 266.518,226.962 266.185,230.629 266.5,234.5C 255.116,235.144 244.116,234.477 233.5,232.5C 243.5,232.5 253.5,232.5 263.5,232.5C 264.662,228.02 264.662,223.687 263.5,219.5C 260.663,217.598 257.329,216.931 253.5,217.5C 253.5,215.5 253.5,213.5 253.5,211.5C 253.5,211.167 253.5,210.833 253.5,210.5C 256.187,210.664 258.854,210.497 261.5,210C 262.435,207.619 262.768,205.119 262.5,202.5C 262.5,200.5 262.5,198.5 262.5,196.5 Z"/></g>
<g><path style="opacity:1" fill="#63d6bb" d="M 59.5,194.5 C 59.5,196.167 59.5,197.833 59.5,199.5C 60.8333,199.5 62.1667,199.5 63.5,199.5C 63.5,202.167 63.5,204.833 63.5,207.5C 61.8333,207.5 60.1667,207.5 58.5,207.5C 58.5,209.167 58.5,210.833 58.5,212.5C 60.1667,212.5 61.8333,212.5 63.5,212.5C 63.6641,215.187 63.4974,217.854 63,220.5C 61.3005,221.406 59.4672,221.739 57.5,221.5C 57.5,223.167 57.5,224.833 57.5,226.5C 48.5,226.5 39.5,226.5 30.5,226.5C 30.5,224.5 30.5,222.5 30.5,220.5C 31.2295,215.87 31.5628,211.203 31.5,206.5C 32.4834,202.702 32.8168,198.702 32.5,194.5C 41.5,194.5 50.5,194.5 59.5,194.5 Z"/></g>
<g><path style="opacity:1" fill="#366d84" d="M 40.5,213.5 C 44.8333,213.5 49.1667,213.5 53.5,213.5C 53.5,214.5 53.5,215.5 53.5,216.5C 49.1667,216.5 44.8333,216.5 40.5,216.5C 40.5,215.5 40.5,214.5 40.5,213.5 Z"/></g>
<g><path style="opacity:1" fill="#497c97" d="M 41.5,203.5 C 45.8333,203.5 50.1667,203.5 54.5,203.5C 54.5,204.833 54.5,206.167 54.5,207.5C 50.1667,207.5 45.8333,207.5 41.5,207.5C 41.5,206.167 41.5,204.833 41.5,203.5 Z"/></g>
<g><path style="opacity:1" fill="#78f6bc" d="M 34.5,197.5 C 42.5,197.5 50.5,197.5 58.5,197.5C 58.5,198.5 58.5,199.5 58.5,200.5C 59.8333,200.5 61.1667,200.5 62.5,200.5C 62.5,202.167 62.5,203.833 62.5,205.5C 60.5328,205.261 58.6995,205.594 57,206.5C 56.51,205.207 56.3433,203.873 56.5,202.5C 51.1254,202.172 45.7921,202.505 40.5,203.5C 39.7542,204.736 39.4208,206.07 39.5,207.5C 37.5,207.5 35.5,207.5 33.5,207.5C 33.1872,203.958 33.5206,200.625 34.5,197.5 Z"/></g>
<g><path style="opacity:1" fill="#ebf9fa" d="M 58.5,197.5 C 50.5,197.5 42.5,197.5 34.5,197.5C 38.107,196.176 42.107,195.509 46.5,195.5C 50.893,195.509 54.893,196.176 58.5,197.5 Z"/></g>
<g><path style="opacity:1" fill="#58b7b9" d="M 70.5,210.5 C 72.1667,210.5 73.8333,210.5 75.5,210.5C 75.5,215.167 75.5,219.833 75.5,224.5C 73.5,224.5 71.5,224.5 69.5,224.5C 70.2295,219.87 70.5628,215.203 70.5,210.5 Z"/></g>
<g><path style="opacity:1" fill="#50aeb6" d="M 162.5,209.5 C 164.5,209.5 166.5,209.5 168.5,209.5C 168.5,212.167 168.5,214.833 168.5,217.5C 173.833,217.5 179.167,217.5 184.5,217.5C 184.5,216.5 184.5,215.5 184.5,214.5C 186.5,214.5 188.5,214.5 190.5,214.5C 190.5,215.833 190.5,217.167 190.5,218.5C 189.167,218.5 187.833,218.5 186.5,218.5C 186.5,220.167 186.5,221.833 186.5,223.5C 179.833,223.5 173.167,223.5 166.5,223.5C 166.5,221.833 166.5,220.167 166.5,218.5C 164.833,218.5 163.167,218.5 161.5,218.5C 161.508,215.455 161.841,212.455 162.5,209.5 Z"/></g>
<g><path style="opacity:1" fill="#4dacb5" d="M 32.5,214.5 C 34.5,214.5 36.5,214.5 38.5,214.5C 38.5,215.833 38.5,217.167 38.5,218.5C 43.8333,218.5 49.1667,218.5 54.5,218.5C 54.5,217.167 54.5,215.833 54.5,214.5C 56.8333,214.5 59.1667,214.5 61.5,214.5C 61.5,216.167 61.5,217.833 61.5,219.5C 59.8333,219.5 58.1667,219.5 56.5,219.5C 56.5,221.167 56.5,222.833 56.5,224.5C 48.5,224.5 40.5,224.5 32.5,224.5C 32.5,221.167 32.5,217.833 32.5,214.5 Z"/></g>
<g><path style="opacity:1" fill="#8c7edd" d="M 112.5,212.5 C 112.351,213.552 112.517,214.552 113,215.5C 115.498,214.221 117.998,214.221 120.5,215.5C 118.505,219.484 116.005,223.151 113,226.5C 110.527,225.88 108.027,225.214 105.5,224.5C 107.02,222.338 108.02,220.005 108.5,217.5C 107.041,217.433 105.708,217.766 104.5,218.5C 104.5,216.5 104.5,214.5 104.5,212.5C 107.167,212.5 109.833,212.5 112.5,212.5 Z"/></g>
<g><path style="opacity:1" fill="#8a7fdb" d="M 229.5,208.5 C 230.053,213.482 230.387,218.482 230.5,223.5C 229.71,222.391 229.21,221.058 229,219.5C 227.764,224.571 224.598,226.571 219.5,225.5C 219.5,221.167 219.5,216.833 219.5,212.5C 222.167,212.5 224.833,212.5 227.5,212.5C 227.5,207.167 227.5,201.833 227.5,196.5C 228.224,199.919 228.891,203.919 229.5,208.5 Z"/></g>
<g><path style="opacity:1" fill="#5f4e9c" d="M 195.5,201.5 C 195.5,210.833 195.5,220.167 195.5,229.5C 193.833,229.5 192.167,229.5 190.5,229.5C 190.5,230.833 190.5,232.167 190.5,233.5C 186.849,234.165 183.015,234.499 179,234.5C 174.771,234.49 170.938,233.823 167.5,232.5C 174.5,232.5 181.5,232.5 188.5,232.5C 188.5,230.833 188.5,229.167 188.5,227.5C 189.833,227.5 191.167,227.5 192.5,227.5C 193.167,218.658 193.833,209.658 194.5,200.5C 195.107,200.624 195.44,200.957 195.5,201.5 Z"/></g>
<g><path style="opacity:1" fill="#5ac6bb" d="M 224.5,194.5 C 224.5,197.167 224.5,199.833 224.5,202.5C 221.5,202.5 218.5,202.5 215.5,202.5C 217.948,201.527 220.615,201.194 223.5,201.5C 223.5,200.167 223.5,198.833 223.5,197.5C 219.893,196.176 215.893,195.509 211.5,195.5C 207.107,195.509 203.107,196.176 199.5,197.5C 198.566,198.568 198.232,199.901 198.5,201.5C 201.833,201.5 205.167,201.5 208.5,201.5C 208.5,204.167 208.5,206.833 208.5,209.5C 210.5,209.5 212.5,209.5 214.5,209.5C 214.5,214.167 214.5,218.833 214.5,223.5C 212.833,223.5 211.167,223.5 209.5,223.5C 208.997,218.5 208.664,218.833 208.5,224.5C 211.167,224.5 213.833,224.5 216.5,224.5C 216.5,224.833 216.5,225.167 216.5,225.5C 213.5,225.5 210.5,225.5 207.5,225.5C 207.5,217.833 207.5,210.167 207.5,202.5C 204.167,202.5 200.833,202.5 197.5,202.5C 197.5,199.833 197.5,197.167 197.5,194.5C 206.5,194.5 215.5,194.5 224.5,194.5 Z"/></g>
<g><path style="opacity:1" fill="#eafbf6" d="M 223.5,197.5 C 215.5,197.5 207.5,197.5 199.5,197.5C 203.107,196.176 207.107,195.509 211.5,195.5C 215.893,195.509 219.893,196.176 223.5,197.5 Z"/></g>
<g><path style="opacity:1" fill="#4bacb4" d="M 232.5,209.5 C 234.5,209.5 236.5,209.5 238.5,209.5C 238.5,212.5 238.5,215.5 238.5,218.5C 246.175,218.68 253.842,219.014 261.5,219.5C 261.5,220.833 261.5,222.167 261.5,223.5C 251.833,223.5 242.167,223.5 232.5,223.5C 232.5,218.833 232.5,214.167 232.5,209.5 Z"/></g>
<g><path style="opacity:1" fill="#56b6b8" d="M 276.5,208.5 C 277.477,211.287 277.81,214.287 277.5,217.5C 280.5,217.5 283.5,217.5 286.5,217.5C 291.944,216.892 296.944,217.558 301.5,219.5C 301.5,219.833 301.5,220.167 301.5,220.5C 300.566,221.568 300.232,222.901 300.5,224.5C 290.5,224.5 280.5,224.5 270.5,224.5C 270.5,219.833 270.5,215.167 270.5,210.5C 272.167,210.5 273.833,210.5 275.5,210.5C 275.343,211.873 275.51,213.207 276,214.5C 276.495,212.527 276.662,210.527 276.5,208.5 Z"/></g>
<g><path style="opacity:1" fill="#29848b" d="M 154.5,194.5 C 155.167,194.5 155.5,194.833 155.5,195.5C 155.5,195.833 155.5,196.167 155.5,196.5C 155.5,205.5 155.5,214.5 155.5,223.5C 155.5,226.5 155.5,229.5 155.5,232.5C 152.482,232.665 149.482,232.498 146.5,232C 145.577,229.959 145.244,227.792 145.5,225.5C 141.285,223.564 136.619,222.897 131.5,223.5C 131.5,220.833 131.5,218.167 131.5,215.5C 136.5,215.5 141.5,215.5 146.5,215.5C 146.5,218.833 146.5,222.167 146.5,225.5C 149.167,225.5 151.833,225.5 154.5,225.5C 154.5,215.167 154.5,204.833 154.5,194.5 Z"/></g>
<g><path style="opacity:1" fill="#5ae1af" d="M 276.5,202.5 C 276.5,204.5 276.5,206.5 276.5,208.5C 276.662,210.527 276.495,212.527 276,214.5C 275.51,213.207 275.343,211.873 275.5,210.5C 273.833,210.5 272.167,210.5 270.5,210.5C 270.5,215.167 270.5,219.833 270.5,224.5C 280.5,224.5 290.5,224.5 300.5,224.5C 300.232,222.901 300.566,221.568 301.5,220.5C 301.5,222.5 301.5,224.5 301.5,226.5C 290.839,226.019 280.172,225.686 269.5,225.5C 268.871,216.18 268.538,206.846 268.5,197.5C 270.833,197.5 273.167,197.5 275.5,197.5C 275.216,199.415 275.549,201.081 276.5,202.5 Z"/></g>
<g><path style="opacity:1" fill="#25838b" d="M 110.5,194.5 C 111.338,194.842 111.672,195.508 111.5,196.5C 111.5,201.167 111.5,205.833 111.5,210.5C 108.5,210.5 105.5,210.5 102.5,210.5C 101.882,217.817 101.549,225.151 101.5,232.5C 98.5,232.5 95.5,232.5 92.5,232.5C 91.5318,230.393 91.1984,228.059 91.5,225.5C 94.5,225.5 97.5,225.5 100.5,225.5C 100.5,218.5 100.5,211.5 100.5,204.5C 103.488,202.727 106.821,202.06 110.5,202.5C 110.5,199.833 110.5,197.167 110.5,194.5 Z"/></g>
<g><path style="opacity:1" fill="#9275d8" d="M 195.5,201.5 C 196.167,204.167 196.833,206.833 197.5,209.5C 200.287,210.477 203.287,210.81 206.5,210.5C 206.203,217.92 206.536,225.254 207.5,232.5C 201.894,233.407 196.227,233.74 190.5,233.5C 190.5,232.167 190.5,230.833 190.5,229.5C 192.167,229.5 193.833,229.5 195.5,229.5C 195.5,220.167 195.5,210.833 195.5,201.5 Z"/></g>
<g><path style="opacity:1" fill="#63589e" d="M 225.5,196.5 C 226.167,196.5 226.833,196.5 227.5,196.5C 227.5,201.833 227.5,207.167 227.5,212.5C 224.833,212.5 222.167,212.5 219.5,212.5C 219.5,216.833 219.5,221.167 219.5,225.5C 219.777,228.448 219.444,231.281 218.5,234C 217,234.167 215.5,234.333 214,234.5C 212.014,234.431 210.514,233.765 209.5,232.5C 211.833,232.5 214.167,232.5 216.5,232.5C 216.5,230.167 216.5,227.833 216.5,225.5C 216.5,225.167 216.5,224.833 216.5,224.5C 216.5,221.833 216.5,219.167 216.5,216.5C 216.5,214.5 216.5,212.5 216.5,210.5C 219.448,210.777 222.281,210.444 225,209.5C 225.499,205.179 225.666,200.846 225.5,196.5 Z"/></g>
<g><path style="opacity:1" fill="#268d94" d="M 230.5,194.5 C 230.263,195.791 230.596,196.791 231.5,197.5C 231.5,206.833 231.5,216.167 231.5,225.5C 242.167,225.5 252.833,225.5 263.5,225.5C 263.5,223.5 263.5,221.5 263.5,219.5C 264.662,223.687 264.662,228.02 263.5,232.5C 253.5,232.5 243.5,232.5 233.5,232.5C 232.5,232.5 231.5,232.5 230.5,232.5C 230.5,229.5 230.5,226.5 230.5,223.5C 230.387,218.482 230.053,213.482 229.5,208.5C 229.181,203.637 229.514,198.97 230.5,194.5 Z"/></g>
<g><path style="opacity:0.987" fill="#9369d6" d="M 23.5,217.5 C 26.0145,217.769 28.0145,218.769 29.5,220.5C 29.1561,225.122 29.8227,229.455 31.5,233.5C 32.7804,234.931 34.4471,235.598 36.5,235.5C 35.8333,237.167 35.1667,238.833 34.5,240.5C 32.4727,240.662 30.4727,240.495 28.5,240C 26.9292,236.926 24.5958,234.76 21.5,233.5C 22.2973,228.197 22.964,222.864 23.5,217.5 Z"/></g>
<g><path style="opacity:1" fill="#2e8895" d="M 78.5,194.5 C 79.3382,194.842 79.6716,195.508 79.5,196.5C 79.2627,208.508 78.7627,220.508 78,232.5C 77.6174,233.056 77.1174,233.389 76.5,233.5C 73.8333,233.5 71.1667,233.5 68.5,233.5C 68.6747,231.379 68.3414,229.379 67.5,227.5C 67.1936,224.615 67.5269,221.948 68.5,219.5C 68.5,221.5 68.5,223.5 68.5,225.5C 71.1667,225.5 73.8333,225.5 76.5,225.5C 77.0825,216.845 77.4159,208.178 77.5,199.5C 78.4511,198.081 78.7845,196.415 78.5,194.5 Z"/></g>
<g><path style="opacity:1" fill="#298b96" d="M 59.5,194.5 C 61.1042,195.287 61.7709,196.62 61.5,198.5C 63.9726,198.088 65.3059,199.088 65.5,201.5C 65.2141,210.502 64.8808,219.502 64.5,228.5C 62.8333,228.5 61.1667,228.5 59.5,228.5C 59.5,230.167 59.5,231.833 59.5,233.5C 50.1667,233.5 40.8333,233.5 31.5,233.5C 29.8227,229.455 29.1561,225.122 29.5,220.5C 29.8333,220.5 30.1667,220.5 30.5,220.5C 30.5,222.5 30.5,224.5 30.5,226.5C 39.5,226.5 48.5,226.5 57.5,226.5C 57.5,224.833 57.5,223.167 57.5,221.5C 59.4672,221.739 61.3005,221.406 63,220.5C 63.4974,217.854 63.6641,215.187 63.5,212.5C 61.8333,212.5 60.1667,212.5 58.5,212.5C 58.5,210.833 58.5,209.167 58.5,207.5C 60.1667,207.5 61.8333,207.5 63.5,207.5C 63.5,204.833 63.5,202.167 63.5,199.5C 62.1667,199.5 60.8333,199.5 59.5,199.5C 59.5,197.833 59.5,196.167 59.5,194.5 Z"/></g>
<g><path style="opacity:1" fill="#5d529b" d="M 79.5,196.5 C 80.9311,196.881 81.7645,197.881 82,199.5C 82.4955,201.473 82.6621,203.473 82.5,205.5C 81.352,215.129 80.6853,224.796 80.5,234.5C 79.1667,234.5 77.8333,234.5 76.5,234.5C 76.5,234.167 76.5,233.833 76.5,233.5C 77.1174,233.389 77.6174,233.056 78,232.5C 78.7627,220.508 79.2627,208.508 79.5,196.5 Z"/></g>
<g><path style="opacity:1" fill="#2b929b" d="M 276.5,196.5 C 276.5,198.5 276.5,200.5 276.5,202.5C 275.549,201.081 275.216,199.415 275.5,197.5C 273.167,197.5 270.833,197.5 268.5,197.5C 268.538,206.846 268.871,216.18 269.5,225.5C 280.172,225.686 290.839,226.019 301.5,226.5C 301.5,224.5 301.5,222.5 301.5,220.5C 302.571,224.678 302.571,229.011 301.5,233.5C 291.167,233.5 280.833,233.5 270.5,233.5C 269.351,233.209 268.684,232.376 268.5,231C 267.841,228.538 267.507,226.038 267.5,223.5C 267.387,218.482 267.053,213.482 266.5,208.5C 266.5,203.833 266.5,199.167 266.5,194.5C 270.329,193.931 273.663,194.598 276.5,196.5 Z"/></g>
<g><path style="opacity:1" fill="#8a4bc7" d="M 67.5,227.5 C 68.3414,229.379 68.6747,231.379 68.5,233.5C 71.1667,233.5 73.8333,233.5 76.5,233.5C 76.5,233.833 76.5,234.167 76.5,234.5C 75.1103,235.899 74.1103,237.566 73.5,239.5C 70.0295,240.125 67.1962,239.125 65,236.5C 63.8333,237.667 62.6667,238.833 61.5,240C 52.5062,240.5 43.5062,240.666 34.5,240.5C 35.1667,238.833 35.8333,237.167 36.5,235.5C 44.8333,235.5 53.1667,235.5 61.5,235.5C 61.5,233.833 61.5,232.167 61.5,230.5C 63.1667,230.5 64.8333,230.5 66.5,230.5C 66.2627,229.209 66.596,228.209 67.5,227.5 Z"/></g>
<g><path style="opacity:1" fill="#644f9c" d="M 65.5,201.5 C 66.9311,201.881 67.7645,202.881 68,204.5C 68.4974,207.146 68.6641,209.813 68.5,212.5C 68.5,214.833 68.5,217.167 68.5,219.5C 67.5269,221.948 67.1936,224.615 67.5,227.5C 66.596,228.209 66.2627,229.209 66.5,230.5C 64.8333,230.5 63.1667,230.5 61.5,230.5C 61.5,232.167 61.5,233.833 61.5,235.5C 53.1667,235.5 44.8333,235.5 36.5,235.5C 34.4471,235.598 32.7804,234.931 31.5,233.5C 40.8333,233.5 50.1667,233.5 59.5,233.5C 59.5,231.833 59.5,230.167 59.5,228.5C 61.1667,228.5 62.8333,228.5 64.5,228.5C 64.8808,219.502 65.2141,210.502 65.5,201.5 Z"/></g>
<g><path style="opacity:0.903" fill="#5e238f" d="M 21.5,233.5 C 24.5958,234.76 26.9292,236.926 28.5,240C 30.4727,240.495 32.4727,240.662 34.5,240.5C 43.5062,240.666 52.5062,240.5 61.5,240C 62.6667,238.833 63.8333,237.667 65,236.5C 67.1962,239.125 70.0295,240.125 73.5,239.5C 77.7205,240.192 81.3872,239.192 84.5,236.5C 85.5,236.833 86.1667,237.5 86.5,238.5C 93.8333,239.833 101.167,239.833 108.5,238.5C 111.021,233.588 113.687,233.421 116.5,238C 122.833,238.667 129.167,238.667 135.5,238C 137.923,233.373 140.256,233.373 142.5,238C 160.167,238.667 177.833,238.667 195.5,238C 196.667,236.833 197.833,235.667 199,234.5C 200.167,235.667 201.333,236.833 202.5,238C 208.167,238.667 213.833,238.667 219.5,238C 222.24,234.575 224.573,234.908 226.5,239C 242.497,239.5 258.497,239.667 274.5,239.5C 285.007,240.823 295.674,240.823 306.5,239.5C 307.127,238.583 307.461,237.583 307.5,236.5C 307.856,234.81 308.856,233.81 310.5,233.5C 310.391,237.391 309.391,241.058 307.5,244.5C 304.667,244.833 301.833,245.167 299,245.5C 277.835,244.811 256.668,244.144 235.5,243.5C 232.167,243.167 228.833,242.833 225.5,242.5C 223.8,239.973 222.133,240.14 220.5,243C 214.5,243.667 208.5,243.667 202.5,243C 201.333,241.833 200.167,240.667 199,239.5C 197.833,240.667 196.667,241.833 195.5,243C 177.833,243.667 160.167,243.667 142.5,243C 141.213,241.59 140.046,240.09 139,238.5C 138.215,240.286 137.049,241.786 135.5,243C 129.167,243.667 122.833,243.667 116.5,243C 115.315,241.647 113.981,240.48 112.5,239.5C 111.019,240.48 109.685,241.647 108.5,243C 100.833,243.667 93.1667,243.667 85.5,243C 84.0096,241.366 82.6763,241.699 81.5,244C 76.5,244.667 71.5,244.667 66.5,244C 65.4709,240.943 64.1376,240.943 62.5,244C 53.1604,244.389 43.8271,244.889 34.5,245.5C 32.1667,245.167 29.8333,244.833 27.5,244.5C 25.8509,242.35 24.0176,240.35 22,238.5C 21.5065,236.866 21.3398,235.199 21.5,233.5 Z"/></g>
<g><path style="opacity:1" fill="#905dd1" d="M 82.5,205.5 C 82.8333,205.5 83.1667,205.5 83.5,205.5C 83.2865,207.144 83.6198,208.644 84.5,210C 86.8098,210.497 89.1432,210.663 91.5,210.5C 91.5,214.167 91.5,217.833 91.5,221.5C 91.5,222.833 91.5,224.167 91.5,225.5C 91.1984,228.059 91.5318,230.393 92.5,232.5C 92.9175,233.222 93.5842,233.722 94.5,234C 97.8168,234.498 101.15,234.665 104.5,234.5C 104.5,229.167 104.5,223.833 104.5,218.5C 105.708,217.766 107.041,217.433 108.5,217.5C 108.02,220.005 107.02,222.338 105.5,224.5C 108.027,225.214 110.527,225.88 113,226.5C 116.005,223.151 118.505,219.484 120.5,215.5C 121.216,219.589 121.882,224.255 122.5,229.5C 122.285,231.179 122.952,232.179 124.5,232.5C 124.611,233.117 124.944,233.617 125.5,234C 128.482,234.498 131.482,234.665 134.5,234.5C 134.5,231.5 134.5,228.5 134.5,225.5C 138.167,225.5 141.833,225.5 145.5,225.5C 145.244,227.792 145.577,229.959 146.5,232C 149.482,232.498 152.482,232.665 155.5,232.5C 155.5,229.5 155.5,226.5 155.5,223.5C 156.644,221.9 157.811,220.233 159,218.5C 159.181,221.695 159.681,224.695 160.5,227.5C 161.568,228.434 162.901,228.768 164.5,228.5C 164.5,229.833 164.5,231.167 164.5,232.5C 165.5,232.5 166.5,232.5 167.5,232.5C 170.938,233.823 174.771,234.49 179,234.5C 183.015,234.499 186.849,234.165 190.5,233.5C 196.227,233.74 201.894,233.407 207.5,232.5C 208.167,232.5 208.833,232.5 209.5,232.5C 210.514,233.765 212.014,234.431 214,234.5C 215.5,234.333 217,234.167 218.5,234C 219.444,231.281 219.777,228.448 219.5,225.5C 224.598,226.571 227.764,224.571 229,219.5C 229.21,221.058 229.71,222.391 230.5,223.5C 230.5,226.5 230.5,229.5 230.5,232.5C 231.5,232.5 232.5,232.5 233.5,232.5C 244.116,234.477 255.116,235.144 266.5,234.5C 266.185,230.629 266.518,226.962 267.5,223.5C 267.507,226.038 267.841,228.538 268.5,231C 268.684,232.376 269.351,233.209 270.5,233.5C 275.624,234.829 281.124,235.495 287,235.5C 292.5,235.333 298,235.167 303.5,235C 304.635,230.252 304.802,225.419 304,220.5C 303.329,219.748 302.496,219.414 301.5,219.5C 296.944,217.558 291.944,216.892 286.5,217.5C 286.414,216.504 286.748,215.671 287.5,215C 294.492,214.5 301.492,214.334 308.5,214.5C 308.839,220.886 309.505,227.22 310.5,233.5C 308.856,233.81 307.856,234.81 307.5,236.5C 296.813,236.168 286.146,236.501 275.5,237.5C 275.137,238.183 274.804,238.85 274.5,239.5C 258.497,239.667 242.497,239.5 226.5,239C 224.573,234.908 222.24,234.575 219.5,238C 213.833,238.667 208.167,238.667 202.5,238C 201.333,236.833 200.167,235.667 199,234.5C 197.833,235.667 196.667,236.833 195.5,238C 177.833,238.667 160.167,238.667 142.5,238C 140.256,233.373 137.923,233.373 135.5,238C 129.167,238.667 122.833,238.667 116.5,238C 113.687,233.421 111.021,233.588 108.5,238.5C 101.167,239.833 93.8333,239.833 86.5,238.5C 86.1667,237.5 85.5,236.833 84.5,236.5C 81.3872,239.192 77.7205,240.192 73.5,239.5C 74.1103,237.566 75.1103,235.899 76.5,234.5C 77.8333,234.5 79.1667,234.5 80.5,234.5C 80.6853,224.796 81.352,215.129 82.5,205.5 Z"/></g>
<g><path style="opacity:1" fill="#298c97" d="M 160.5,220.5 C 162.167,220.5 163.833,220.5 165.5,220.5C 165.5,222.167 165.5,223.833 165.5,225.5C 172.841,225.666 180.174,225.5 187.5,225C 188.38,223.644 188.714,222.144 188.5,220.5C 189.833,220.5 191.167,220.5 192.5,220.5C 192.5,222.833 192.5,225.167 192.5,227.5C 191.167,227.5 189.833,227.5 188.5,227.5C 188.5,229.167 188.5,230.833 188.5,232.5C 181.5,232.5 174.5,232.5 167.5,232.5C 166.5,232.5 165.5,232.5 164.5,232.5C 164.5,231.167 164.5,229.833 164.5,228.5C 162.901,228.768 161.568,228.434 160.5,227.5C 160.5,225.167 160.5,222.833 160.5,220.5 Z"/></g>
<g><path style="opacity:1" fill="#278f99" d="M 122.5,225.5 C 125.5,225.5 128.5,225.5 131.5,225.5C 131.5,227.833 131.5,230.167 131.5,232.5C 129.167,232.5 126.833,232.5 124.5,232.5C 122.952,232.179 122.285,231.179 122.5,229.5C 122.5,228.167 122.5,226.833 122.5,225.5 Z"/></g>
<g><path style="opacity:1" fill="#634a9b" d="M 131.5,223.5 C 136.619,222.897 141.285,223.564 145.5,225.5C 141.833,225.5 138.167,225.5 134.5,225.5C 134.5,228.5 134.5,231.5 134.5,234.5C 131.482,234.665 128.482,234.498 125.5,234C 124.944,233.617 124.611,233.117 124.5,232.5C 126.833,232.5 129.167,232.5 131.5,232.5C 131.5,230.167 131.5,227.833 131.5,225.5C 131.5,224.833 131.5,224.167 131.5,223.5 Z"/></g>
<g><path style="opacity:1" fill="#634098" d="M 301.5,220.5 C 301.5,220.167 301.5,219.833 301.5,219.5C 302.496,219.414 303.329,219.748 304,220.5C 304.802,225.419 304.635,230.252 303.5,235C 298,235.167 292.5,235.333 287,235.5C 281.124,235.495 275.624,234.829 270.5,233.5C 280.833,233.5 291.167,233.5 301.5,233.5C 302.571,229.011 302.571,224.678 301.5,220.5 Z"/></g>
<g><path style="opacity:1" fill="#8b43c8" d="M 307.5,236.5 C 307.461,237.583 307.127,238.583 306.5,239.5C 295.674,240.823 285.007,240.823 274.5,239.5C 274.804,238.85 275.137,238.183 275.5,237.5C 286.146,236.501 296.813,236.168 307.5,236.5 Z"/></g>
</svg>
