<?xml version="1.0" encoding="UTF-8"?>
<!DOCTYPE svg PUBLIC "-//W3C//DTD SVG 1.1//EN" "http://www.w3.org/Graphics/SVG/1.1/DTD/svg11.dtd">
<svg xmlns="http://www.w3.org/2000/svg" version="1.1" width="453px" height="574px" style="shape-rendering:geometricPrecision; text-rendering:geometricPrecision; image-rendering:optimizeQuality; fill-rule:evenodd; clip-rule:evenodd" xmlns:xlink="http://www.w3.org/1999/xlink">
<g><path style="opacity:0.978" fill="#070301" d="M 336.5,35.5 C 338.853,44.5955 340.686,53.9288 342,63.5C 345.739,62.1849 349.572,61.1849 353.5,60.5C 353.917,61.1239 354.584,61.4573 355.5,61.5C 370.078,58.2729 384.411,54.6062 398.5,50.5C 404.114,47.1076 408.947,48.1076 413,53.5C 413.667,65.8333 413.667,78.1667 413,90.5C 411.875,95.0009 411.875,99.3343 413,103.5C 415.911,106.99 418.578,110.656 421,114.5C 421.705,120.902 422.539,127.235 423.5,133.5C 422.366,135.966 422.199,138.633 423,141.5C 424.83,152.808 426.497,164.142 428,175.5C 428.546,178.379 429.379,181.046 430.5,183.5C 435.246,213.709 439.079,244.043 442,274.5C 445.605,319.647 449.105,364.647 452.5,409.5C 452.5,415.167 452.5,420.833 452.5,426.5C 451.771,429.541 450.604,432.541 449,435.5C 445.5,439.667 442,443.833 438.5,448C 406.5,471.333 374.5,494.667 342.5,518C 337.309,519.839 331.976,521.172 326.5,522C 311.457,523.6 296.457,524.433 281.5,524.5C 279.19,523.836 276.69,523.503 274,523.5C 241.289,526.238 208.789,529.571 176.5,533.5C 176.5,534.167 176.167,534.5 175.5,534.5C 165.669,539.249 156.002,544.249 146.5,549.5C 129.046,556.648 111.713,563.981 94.5,571.5C 93.8333,571.5 93.5,571.167 93.5,570.5C 88.4934,564.494 83.4934,558.494 78.5,552.5C 74.2909,543.312 69.2909,534.645 63.5,526.5C 61.9565,521.976 59.6232,517.976 56.5,514.5C 50.2514,502.328 43.2514,490.661 35.5,479.5C 24.8253,460.495 14.1586,441.495 3.5,422.5C 1.98023,420.11 0.98023,417.443 0.5,414.5C 1.07403,404.723 2.40736,395.057 4.5,385.5C 5.9907,382.436 6.9907,379.103 7.5,375.5C 7.45728,374.584 7.12395,373.917 6.5,373.5C 6.5,372.833 6.83333,372.5 7.5,372.5C 12.8207,367.175 17.8207,361.509 22.5,355.5C 17.4248,354.401 14.2582,351.401 13,346.5C 11.6142,335.537 10.6142,324.537 10,313.5C 9.61742,312.944 9.11742,312.611 8.5,312.5C 7.90326,312.265 7.56993,311.765 7.5,311C 8.01606,308.331 8.68273,305.831 9.5,303.5C 11.1206,298.637 12.2872,292.97 13,286.5C 17.2952,251.972 21.7952,217.472 26.5,183C 26.4857,181.615 26.1524,180.449 25.5,179.5C 25.2606,177.533 25.5939,175.699 26.5,174C 7.16469,154.323 2.99803,131.823 14,106.5C 18.1581,101.709 22.6581,97.2095 27.5,93C 32.7736,89.5302 38.4402,86.8636 44.5,85C 45.6364,83.8549 46.6364,82.6883 47.5,81.5C 54.2017,70.7632 59.8684,59.4299 64.5,47.5C 66.341,45.1515 67.6743,42.4848 68.5,39.5C 74.9109,27.0103 81.5776,14.677 88.5,2.5C 169.146,2.95336 249.813,4.28669 330.5,6.5C 331.544,15.8917 333.044,25.225 335,34.5C 335.383,35.056 335.883,35.3893 336.5,35.5 Z"/></g>
<g><path style="opacity:1" fill="#4c2115" d="M 95.5,-0.5 C 97.8333,-0.5 100.167,-0.5 102.5,-0.5C 108.653,0.327935 114.987,0.827935 121.5,1C 191.53,1.29543 261.53,2.79543 331.5,5.5C 333.161,15.4649 334.827,25.4649 336.5,35.5C 335.883,35.3893 335.383,35.056 335,34.5C 333.044,25.225 331.544,15.8917 330.5,6.5C 249.813,4.28669 169.146,2.95336 88.5,2.5C 90.7791,1.3485 93.1124,0.348502 95.5,-0.5 Z"/></g>
<g><path style="opacity:1" fill="#772d1c" d="M 114.5,9.5 C 113.042,19.7829 112.042,30.1163 111.5,40.5C 111.167,40.5 110.833,40.5 110.5,40.5C 103.91,40.189 97.4102,40.5223 91,41.5C 84.2617,56.3039 78.0951,71.3039 72.5,86.5C 67.3272,84.5838 61.9939,83.2504 56.5,82.5C 56.3433,81.1266 56.51,79.7932 57,78.5C 68.8779,55.4114 80.2112,32.0781 91,8.5C 92.4002,7.88407 93.9002,7.55074 95.5,7.5C 101.814,8.41439 108.147,9.08106 114.5,9.5 Z"/></g>
<g><path style="opacity:1" fill="#86412a" d="M 114.5,9.5 C 165.851,9.07536 217.184,9.74203 268.5,11.5C 258.509,20.8313 248.509,30.1646 238.5,39.5C 233.344,38.8339 228.011,38.5006 222.5,38.5C 185.514,39.9729 148.514,40.6396 111.5,40.5C 112.042,30.1163 113.042,19.7829 114.5,9.5 Z"/></g>
<g><path style="opacity:1" fill="#88422a" d="M 302.5,12.5 C 302.5,13.1667 302.833,13.5 303.5,13.5C 305.366,20.2392 307.532,26.9059 310,33.5C 314.066,34.4637 318.233,34.797 322.5,34.5C 322.5,36.8333 322.5,39.1667 322.5,41.5C 322.5,41.8333 322.5,42.1667 322.5,42.5C 319.937,43.0883 317.604,44.0883 315.5,45.5C 315.167,45.5 314.833,45.5 314.5,45.5C 312.891,42.4068 311.891,39.0734 311.5,35.5C 289.807,35.6073 268.14,36.4406 246.5,38C 245.529,39.4813 244.196,40.3146 242.5,40.5C 252.272,31.2295 261.938,21.7295 271.5,12C 281.821,12.0778 292.155,12.2445 302.5,12.5 Z"/></g>
<g><path style="opacity:1" fill="#782d1c" d="M 303.5,13.5 C 309.833,13.5 316.167,13.5 322.5,13.5C 322.5,20.5 322.5,27.5 322.5,34.5C 318.233,34.797 314.066,34.4637 310,33.5C 307.532,26.9059 305.366,20.2392 303.5,13.5 Z"/></g>
<g><path style="opacity:1" fill="#4a1a11" d="M 88.5,2.5 C 81.5776,14.677 74.9109,27.0103 68.5,39.5C 73.4365,27.6243 78.9365,15.9576 85,4.5C 85.8159,3.17723 86.9826,2.51056 88.5,2.5 Z"/></g>
<g><path style="opacity:1" fill="#270b04" d="M 302.5,12.5 C 309.5,12.5 316.5,12.5 323.5,12.5C 323.827,22.3478 323.494,32.0144 322.5,41.5C 322.5,39.1667 322.5,36.8333 322.5,34.5C 322.5,27.5 322.5,20.5 322.5,13.5C 316.167,13.5 309.833,13.5 303.5,13.5C 302.833,13.5 302.5,13.1667 302.5,12.5 Z"/></g>
<g><path style="opacity:1" fill="#9d5d3d" d="M 314.5,45.5 C 258.485,73.6753 202.819,102.675 147.5,132.5C 146.893,132.376 146.56,132.043 146.5,131.5C 178.5,101.167 210.5,70.8333 242.5,40.5C 244.196,40.3146 245.529,39.4813 246.5,38C 268.14,36.4406 289.807,35.6073 311.5,35.5C 311.891,39.0734 312.891,42.4068 314.5,45.5 Z"/></g>
<g><path style="opacity:1" fill="#9e5d3d" d="M 238.5,39.5 C 206.036,70.1294 173.702,100.963 141.5,132C 135.817,133.131 130.151,134.297 124.5,135.5C 124.813,139.042 124.479,142.375 123.5,145.5C 116.28,149.361 109.113,153.361 102,157.5C 101.536,156.906 101.369,156.239 101.5,155.5C 109.321,139.417 109.321,123.417 101.5,107.5C 104.042,85.0418 107.042,62.7085 110.5,40.5C 110.833,40.5 111.167,40.5 111.5,40.5C 148.514,40.6396 185.514,39.9729 222.5,38.5C 228.011,38.5006 233.344,38.8339 238.5,39.5 Z"/></g>
<g><path style="opacity:1" fill="#93422a" d="M 110.5,40.5 C 107.042,62.7085 104.042,85.0418 101.5,107.5C 94.4069,97.0914 84.7402,90.0914 72.5,86.5C 78.0951,71.3039 84.2617,56.3039 91,41.5C 97.4102,40.5223 103.91,40.189 110.5,40.5 Z"/></g>
<g><path style="opacity:0.984" fill="#531d13" d="M 68.5,39.5 C 67.6743,42.4848 66.341,45.1515 64.5,47.5C 64.7936,44.2459 66.127,41.5792 68.5,39.5 Z"/></g>
<g><path style="opacity:1" fill="#261811" d="M 329.5,33.5 C 331.812,44.0478 334.145,54.7144 336.5,65.5C 333.833,65.5 331.167,65.5 328.5,65.5C 329.43,54.872 329.763,44.2053 329.5,33.5 Z"/></g>
<g><path style="opacity:1" fill="#52382c" d="M 314.5,45.5 C 314.833,45.5 315.167,45.5 315.5,45.5C 319.209,54.5804 322.042,63.9137 324,73.5C 326.5,76.6667 329,79.8333 331.5,83C 338.948,88.7135 345.948,94.8801 352.5,101.5C 339.369,115.132 326.035,128.632 312.5,142C 295.883,139.286 279.217,136.453 262.5,133.5C 260.9,133.551 259.4,133.884 258,134.5C 255.304,138.56 253.137,142.893 251.5,147.5C 245.995,145.716 240.328,145.05 234.5,145.5C 234.435,140.546 233.768,135.713 232.5,131C 220.833,130.333 209.167,130.333 197.5,131C 180.225,133.448 162.891,133.948 145.5,132.5C 145.624,131.893 145.957,131.56 146.5,131.5C 146.56,132.043 146.893,132.376 147.5,132.5C 202.819,102.675 258.485,73.6753 314.5,45.5 Z"/></g>
<g><path style="opacity:1" fill="#231813" d="M 398.5,50.5 C 384.411,54.6062 370.078,58.2729 355.5,61.5C 354.584,61.4573 353.917,61.1239 353.5,60.5C 368.466,57.0084 383.466,53.6751 398.5,50.5 Z"/></g>
<g><path style="opacity:1" fill="#38261c" d="M 404.5,56.5 C 405.83,62.7983 406.497,69.4649 406.5,76.5C 406.333,83.1667 406.167,89.8333 406,96.5C 399.771,89.2751 393.937,81.7751 388.5,74C 393.658,68.0085 398.991,62.1752 404.5,56.5 Z"/></g>
<g><path style="opacity:0.875" fill="#45190e" d="M 64.5,47.5 C 59.8684,59.4299 54.2017,70.7632 47.5,81.5C 52.6744,69.8179 58.341,58.4846 64.5,47.5 Z"/></g>
<g><path style="opacity:1" fill="#3a271d" d="M 322.5,42.5 C 322.203,51.2189 322.703,59.8856 324,68.5C 326.642,70.2376 329.475,71.5709 332.5,72.5C 353.303,68.7728 373.97,64.6061 394.5,60C 380.632,74.0352 366.632,87.8686 352.5,101.5C 345.948,94.8801 338.948,88.7135 331.5,83C 329,79.8333 326.5,76.6667 324,73.5C 322.042,63.9137 319.209,54.5804 315.5,45.5C 317.604,44.0883 319.937,43.0883 322.5,42.5 Z"/></g>
<g><path style="opacity:1" fill="#3a271d" d="M 415.5,288.5 C 410.507,288.916 405.507,289.249 400.5,289.5C 399.734,236.498 398.734,183.498 397.5,130.5C 393.136,128.318 388.802,126.151 384.5,124C 375.281,117.564 365.948,111.398 356.5,105.5C 364.812,96.521 373.479,87.8543 382.5,79.5C 394.872,93.7082 406.705,108.375 418,123.5C 423.992,173.322 427.325,223.322 428,273.5C 423.815,278.571 419.648,283.571 415.5,288.5 Z"/></g>
<g><path style="opacity:1" fill="#6a687a" d="M 77.5,111.5 C 76.9569,111.56 76.6236,111.893 76.5,112.5C 84.3881,133.357 80.0548,151.19 63.5,166C 64.0944,166.464 64.7611,166.631 65.5,166.5C 57.388,169.941 49.0547,170.275 40.5,167.5C 33.8273,151.667 26.6606,136 19,120.5C 17.8141,115.632 18.8141,111.298 22,107.5C 25.0584,103.938 28.5584,100.938 32.5,98.5C 40.7212,115.948 50.2212,132.615 61,148.5C 61.6667,147.5 61.6667,146.5 61,145.5C 52.7546,129.341 44.2546,113.341 35.5,97.5C 38.8539,94.4297 42.8539,92.5964 47.5,92C 53.8595,91.1694 60.1928,91.3361 66.5,92.5C 69.9258,99.0244 73.5925,105.358 77.5,111.5 Z"/></g>
<g><path style="opacity:1" fill="#52382c" d="M 356.5,105.5 C 365.948,111.398 375.281,117.564 384.5,124C 388.802,126.151 393.136,128.318 397.5,130.5C 398.734,183.498 399.734,236.498 400.5,289.5C 400.5,289.833 400.5,290.167 400.5,290.5C 376.473,292.199 352.473,294.199 328.5,296.5C 339.922,286.912 349.756,275.912 358,263.5C 370.628,242.827 372.961,221.16 365,198.5C 362.905,192.542 360.239,186.876 357,181.5C 351.53,174.691 346.03,167.858 340.5,161C 333.091,155.251 325.424,149.917 317.5,145C 329.994,131.34 342.994,118.173 356.5,105.5 Z"/></g>
<g><path style="opacity:1" fill="#7a8ea3" d="M 100.5,125.5 C 99.7321,124.737 99.2321,123.737 99,122.5C 96.8103,131.696 95.3103,141.03 94.5,150.5C 92.3719,153.13 90.0386,155.63 87.5,158C 80.2565,161.124 72.9232,163.957 65.5,166.5C 64.7611,166.631 64.0944,166.464 63.5,166C 80.0548,151.19 84.3881,133.357 76.5,112.5C 76.6236,111.893 76.9569,111.56 77.5,111.5C 81.449,117.289 85.6157,122.956 90,128.5C 90.1667,128.167 90.3333,127.833 90.5,127.5C 83.2389,115.953 76.9056,104.286 71.5,92.5C 87.9559,97.6177 97.6225,108.618 100.5,125.5 Z"/></g>
<g><path style="opacity:1" fill="#656374" d="M 16.5,122.5 C 23.3029,136.106 30.1363,149.773 37,163.5C 37.7494,164.635 37.5827,165.635 36.5,166.5C 19.6743,156.768 13.0077,142.102 16.5,122.5 Z"/></g>
<g><path style="opacity:1" fill="#602f14" d="M 215.5,137.5 C 219.298,136.517 223.298,136.183 227.5,136.5C 227.5,138.167 227.5,139.833 227.5,141.5C 226.566,140.432 226.232,139.099 226.5,137.5C 222.833,137.5 219.167,137.5 215.5,137.5 Z"/></g>
<g><path style="opacity:1" fill="#e1712f" d="M 215.5,137.5 C 219.167,137.5 222.833,137.5 226.5,137.5C 226.232,139.099 226.566,140.432 227.5,141.5C 227.193,150.363 231.359,154.03 240,152.5C 245.342,152.716 250.509,151.882 255.5,150C 257.115,145.969 258.949,142.136 261,138.5C 268.479,139.996 275.979,141.33 283.5,142.5C 275.997,146.931 268.33,151.431 260.5,156C 249.426,163.688 237.759,170.688 225.5,177C 222.898,177.935 221.398,179.768 221,182.5C 220.395,180.519 219.395,180.185 218,181.5C 217.333,196.5 217.333,211.5 218,226.5C 218.183,229.365 218.683,232.031 219.5,234.5C 219.5,235.5 219.5,236.5 219.5,237.5C 218.226,241.265 218.559,244.931 220.5,248.5C 220.5,250.167 220.5,251.833 220.5,253.5C 222.833,253.5 225.167,253.5 227.5,253.5C 231.981,254.648 236.648,254.815 241.5,254C 242.416,253.722 243.082,253.222 243.5,252.5C 254.238,249.799 264.572,245.966 274.5,241C 281.048,237.286 286.048,232.12 289.5,225.5C 289.872,221.505 291.205,217.838 293.5,214.5C 309.745,204.212 326.412,194.712 343.5,186C 345.57,185.052 347.07,183.552 348,181.5C 348.708,182.381 349.542,183.047 350.5,183.5C 356.117,192.965 358.784,203.299 358.5,214.5C 358.021,230.768 352.854,245.434 343,258.5C 325.649,278.922 304.149,292.922 278.5,300.5C 254.171,301.985 229.838,303.318 205.5,304.5C 205.828,292.322 205.495,280.322 204.5,268.5C 215.987,262.383 217.987,254.05 210.5,243.5C 208.709,242.83 207.042,242.163 205.5,241.5C 207.392,219.663 209.059,197.663 210.5,175.5C 187.986,177.102 165.653,179.102 143.5,181.5C 137.94,223.826 135.94,266.493 137.5,309.5C 133.542,309.251 129.876,309.918 126.5,311.5C 124.833,311.5 123.167,311.5 121.5,311.5C 122.942,255.103 125.609,198.77 129.5,142.5C 130.404,141.791 130.737,140.791 130.5,139.5C 131.833,139.5 133.167,139.5 134.5,139.5C 161.528,139.794 188.528,139.128 215.5,137.5 Z"/></g>
<g><path style="opacity:1" fill="#6d4718" d="M 134.5,139.5 C 133.167,139.5 131.833,139.5 130.5,139.5C 130.737,140.791 130.404,141.791 129.5,142.5C 129.5,141.167 129.5,139.833 129.5,138.5C 131.415,138.216 133.081,138.549 134.5,139.5 Z"/></g>
<g><path style="opacity:1" fill="#a9abac" d="M 100.5,125.5 C 100.757,131.898 100.257,138.231 99,144.5C 97.7225,146.747 96.2225,148.747 94.5,150.5C 95.3103,141.03 96.8103,131.696 99,122.5C 99.2321,123.737 99.7321,124.737 100.5,125.5 Z"/></g>
<g><path style="opacity:1" fill="#a55020" d="M 283.5,142.5 C 305.973,142.824 324.806,151.157 340,167.5C 344.267,172.377 347.767,177.71 350.5,183.5C 349.542,183.047 348.708,182.381 348,181.5C 347.07,183.552 345.57,185.052 343.5,186C 326.412,194.712 309.745,204.212 293.5,214.5C 291.205,217.838 289.872,221.505 289.5,225.5C 289.854,221.363 289.354,217.363 288,213.5C 283.961,208.125 278.794,204.291 272.5,202C 256.045,196.121 239.379,195.121 222.5,199C 221.213,200.41 220.046,201.91 219,203.5C 218.588,213.839 218.755,224.173 219.5,234.5C 218.683,232.031 218.183,229.365 218,226.5C 217.333,211.5 217.333,196.5 218,181.5C 219.395,180.185 220.395,180.519 221,182.5C 221.398,179.768 222.898,177.935 225.5,177C 237.759,170.688 249.426,163.688 260.5,156C 268.33,151.431 275.997,146.931 283.5,142.5 Z"/></g>
<g><path style="opacity:0.62" fill="#261912" d="M 423.5,133.5 C 426.02,150.14 428.353,166.807 430.5,183.5C 429.379,181.046 428.546,178.379 428,175.5C 426.497,164.142 424.83,152.808 423,141.5C 422.199,138.633 422.366,135.966 423.5,133.5 Z"/></g>
<g><path style="opacity:1" fill="#52382c" d="M 123.5,145.5 C 123.657,146.873 123.49,148.207 123,149.5C 112.297,159.706 101.463,169.706 90.5,179.5C 89.5269,177.052 89.1936,174.385 89.5,171.5C 93.9161,166.426 97.9161,161.092 101.5,155.5C 101.369,156.239 101.536,156.906 102,157.5C 109.113,153.361 116.28,149.361 123.5,145.5 Z"/></g>
<g><path style="opacity:1" fill="#52382c" d="M 114.5,312.5 C 97.0057,311.977 79.339,311.977 61.5,312.5C 71.0368,271.256 79.7034,229.923 87.5,188.5C 98.8015,177.367 110.301,166.367 122,155.5C 119.347,207.965 116.847,260.298 114.5,312.5 Z"/></g>
<g><path style="opacity:1" fill="#50505b" d="M 87.5,162.5 C 88.525,162.897 88.6917,163.563 88,164.5C 76.7189,176.483 62.8856,181.317 46.5,179C 42.8878,177.861 39.5544,176.194 36.5,174C 55.2216,177.903 72.2216,174.07 87.5,162.5 Z"/></g>
<g><path style="opacity:1" fill="#3a271d" d="M 89.5,171.5 C 89.1936,174.385 89.5269,177.052 90.5,179.5C 69.6908,199.167 48.5242,218.5 27,237.5C 28.6811,218.175 30.5145,198.842 32.5,179.5C 53.3136,189.659 72.3136,186.993 89.5,171.5 Z"/></g>
<g><path style="opacity:1" fill="#f0a63d" d="M 205.5,241.5 C 190.052,239.777 183.885,246.444 187,261.5C 191.122,267.803 196.955,270.136 204.5,268.5C 204.605,288.989 204.938,309.322 205.5,329.5C 205.496,333.569 204.996,337.569 204,341.5C 198.282,347.762 192.449,353.929 186.5,360C 184.791,361.545 182.791,362.378 180.5,362.5C 165.142,357.77 149.809,352.936 134.5,348C 135.5,347.667 136.5,347.333 137.5,347C 136.328,346.581 135.328,345.915 134.5,345C 136.81,344.503 139.143,344.337 141.5,344.5C 141.4,340.298 141.733,336.465 142.5,333C 141.683,325.246 141.183,317.412 141,309.5C 140.5,284.502 140.333,259.502 140.5,234.5C 142.205,216.879 143.205,199.212 143.5,181.5C 165.653,179.102 187.986,177.102 210.5,175.5C 209.059,197.663 207.392,219.663 205.5,241.5 Z"/></g>
<g><path style="opacity:1" fill="#3a271d" d="M 87.5,188.5 C 79.7034,229.923 71.0368,271.256 61.5,312.5C 61.5,313.167 61.1667,313.5 60.5,313.5C 52.1667,313.5 43.8333,313.5 35.5,313.5C 33.7244,310.931 31.7244,308.598 29.5,306.5C 25.239,307.686 20.9056,308.353 16.5,308.5C 19.3389,286.456 22.5056,264.456 26,242.5C 47.1877,225.317 67.6877,207.317 87.5,188.5 Z"/></g>
<g><path style="opacity:1" fill="#070201" d="M 289.5,225.5 C 286.048,232.12 281.048,237.286 274.5,241C 264.572,245.966 254.238,249.799 243.5,252.5C 238.203,253.275 232.87,253.608 227.5,253.5C 225.167,253.5 222.833,253.5 220.5,253.5C 220.5,251.833 220.5,250.167 220.5,248.5C 220.058,244.846 219.724,241.179 219.5,237.5C 219.5,236.5 219.5,235.5 219.5,234.5C 218.755,224.173 218.588,213.839 219,203.5C 220.046,201.91 221.213,200.41 222.5,199C 239.379,195.121 256.045,196.121 272.5,202C 278.794,204.291 283.961,208.125 288,213.5C 289.354,217.363 289.854,221.363 289.5,225.5 Z"/></g>
<g><path style="opacity:1" fill="#703413" d="M 223.5,202.5 C 236.993,201.886 250.326,203.053 263.5,206C 270.952,207.307 277.119,210.807 282,216.5C 284.267,220.202 283.934,223.535 281,226.5C 262.882,217.753 244.049,215.419 224.5,219.5C 224.365,213.819 224.032,208.152 223.5,202.5 Z"/></g>
<g><path style="opacity:1" fill="#251811" d="M 25.5,179.5 C 26.1524,180.449 26.4857,181.615 26.5,183C 21.7952,217.472 17.2952,251.972 13,286.5C 12.2872,292.97 11.1206,298.637 9.5,303.5C 14.505,262.127 19.8383,220.794 25.5,179.5 Z"/></g>
<g><path style="opacity:1" fill="#3f2b20" d="M 238.5,223.5 C 251.897,223.288 264.897,225.455 277.5,230C 275.792,232.043 273.792,233.71 271.5,235C 257.083,242.713 241.75,247.213 225.5,248.5C 225.335,244.818 225.501,241.152 226,237.5C 230.745,233.26 234.912,228.593 238.5,223.5 Z"/></g>
<g><path style="opacity:1" fill="#15110e" d="M 205.5,241.5 C 207.042,242.163 208.709,242.83 210.5,243.5C 217.987,254.05 215.987,262.383 204.5,268.5C 196.955,270.136 191.122,267.803 187,261.5C 183.885,246.444 190.052,239.777 205.5,241.5 Z"/></g>
<g><path style="opacity:1" fill="#632e10" d="M 219.5,237.5 C 219.724,241.179 220.058,244.846 220.5,248.5C 218.559,244.931 218.226,241.265 219.5,237.5 Z"/></g>
<g><path style="opacity:1" fill="#bcbcbc" d="M 195.5,245.5 C 206.439,244.137 207.772,246.47 199.5,252.5C 196.184,250.944 194.851,248.611 195.5,245.5 Z"/></g>
<g><path style="opacity:1" fill="#72341e" d="M 315.5,298.5 C 311.33,297.543 306.997,297.543 302.5,298.5C 317.25,289.602 330.75,278.935 343,266.5C 358.55,248.853 365.55,228.186 364,204.5C 367.981,218.505 366.981,232.172 361,245.5C 351.009,267.654 335.843,285.321 315.5,298.5 Z"/></g>
<g><path style="opacity:1" fill="#bababa" d="M 190.5,247.5 C 193.354,248.973 195.688,251.14 197.5,254C 194.96,256.205 192.793,258.705 191,261.5C 186.593,257.011 186.427,252.345 190.5,247.5 Z"/></g>
<g><path style="opacity:1" fill="#afafaf" d="M 207.5,247.5 C 212.824,252.13 212.824,256.797 207.5,261.5C 204.8,259.766 202.8,257.432 201.5,254.5C 203.523,252.147 205.523,249.814 207.5,247.5 Z"/></g>
<g><path style="opacity:1" fill="#92471b" d="M 243.5,252.5 C 243.082,253.222 242.416,253.722 241.5,254C 236.648,254.815 231.981,254.648 227.5,253.5C 232.87,253.608 238.203,253.275 243.5,252.5 Z"/></g>
<g><path style="opacity:1" fill="#bbb8b6" d="M 197.5,256.5 C 201.159,257.315 203.826,259.481 205.5,263C 201.664,266.136 197.664,266.302 193.5,263.5C 192.479,262.998 192.312,262.332 193,261.5C 194.707,259.963 196.207,258.296 197.5,256.5 Z"/></g>
<g><path style="opacity:1" fill="#ea8c37" d="M 143.5,181.5 C 143.205,199.212 142.205,216.879 140.5,234.5C 140.164,259.683 139.164,284.683 137.5,309.5C 135.94,266.493 137.94,223.826 143.5,181.5 Z"/></g>
<g><path style="opacity:1" fill="#904129" d="M 379.5,438.5 C 374.167,438.5 368.833,438.5 363.5,438.5C 376.156,426.514 389.156,414.847 402.5,403.5C 402.833,400.167 403.167,396.833 403.5,393.5C 402.189,367.182 401.523,340.849 401.5,314.5C 408.468,305.421 415.801,296.587 423.5,288C 425.473,287.505 427.473,287.338 429.5,287.5C 429.667,323.502 429.5,359.502 429,395.5C 412.653,410.013 396.153,424.347 379.5,438.5 Z"/></g>
<g><path style="opacity:1" fill="#8b3f28" d="M 415.5,288.5 C 410.843,294.489 405.843,300.156 400.5,305.5C 400.5,300.5 400.5,295.5 400.5,290.5C 400.5,290.167 400.5,289.833 400.5,289.5C 405.507,289.249 410.507,288.916 415.5,288.5 Z"/></g>
<g><path style="opacity:1" fill="#9e5d3d" d="M 400.5,290.5 C 400.5,295.5 400.5,300.5 400.5,305.5C 393.594,315.576 385.76,324.91 377,333.5C 346.047,370.619 314.213,406.952 281.5,442.5C 213.178,444.201 144.844,445.201 76.5,445.5C 76.1667,445.5 75.8333,445.5 75.5,445.5C 71.591,437.741 67.4244,430.074 63,422.5C 60.3904,418.258 57.5571,414.258 54.5,410.5C 73.1191,392.215 91.7857,373.882 110.5,355.5C 110.833,358.167 111.167,360.833 111.5,363.5C 110.921,373.162 110.421,382.829 110,392.5C 106.535,401.915 105.369,411.581 106.5,421.5C 109.791,423.721 113.457,424.887 117.5,425C 154.502,425.428 191.502,425.261 228.5,424.5C 227.771,401.503 227.105,378.503 226.5,355.5C 226.5,348.167 226.5,340.833 226.5,333.5C 230.042,333.813 233.375,333.479 236.5,332.5C 270.578,328.924 301.245,316.924 328.5,296.5C 352.473,294.199 376.473,292.199 400.5,290.5 Z"/></g>
<g><path style="opacity:1" fill="#af592d" d="M 315.5,298.5 C 293.613,312.97 269.613,322.47 243.5,327C 237.535,327.963 231.535,328.463 225.5,328.5C 225.5,324.5 225.5,320.5 225.5,316.5C 252.713,316.946 278.379,310.946 302.5,298.5C 306.997,297.543 311.33,297.543 315.5,298.5 Z"/></g>
<g><path style="opacity:1" fill="#eda440" d="M 140.5,234.5 C 140.333,259.502 140.5,284.502 141,309.5C 141.183,317.412 141.683,325.246 142.5,333C 141.733,336.465 141.4,340.298 141.5,344.5C 139.143,344.337 136.81,344.503 134.5,345C 135.328,345.915 136.328,346.581 137.5,347C 136.5,347.333 135.5,347.667 134.5,348C 149.809,352.936 165.142,357.77 180.5,362.5C 182.791,362.378 184.791,361.545 186.5,360C 192.449,353.929 198.282,347.762 204,341.5C 204.996,337.569 205.496,333.569 205.5,329.5C 204.938,309.322 204.605,288.989 204.5,268.5C 205.495,280.322 205.828,292.322 205.5,304.5C 229.838,303.318 254.171,301.985 278.5,300.5C 260.36,307.925 241.36,311.258 221.5,310.5C 220.557,337.48 220.557,364.48 221.5,391.5C 186.174,392.345 150.84,392.678 115.5,392.5C 116.799,376.516 117.966,360.516 119,344.5C 122.411,343.707 125.911,343.207 129.5,343C 130.701,342.097 131.535,340.931 132,339.5C 132.667,330.833 132.667,322.167 132,313.5C 130.185,312.756 128.352,312.089 126.5,311.5C 129.876,309.918 133.542,309.251 137.5,309.5C 139.164,284.683 140.164,259.683 140.5,234.5 Z"/></g>
<g><path style="opacity:1" fill="#9d5d3d" d="M 114.5,312.5 C 114.334,319.175 114.5,325.842 115,332.5C 115.5,333 116,333.5 116.5,334C 119.882,334.176 123.215,334.676 126.5,335.5C 122.312,338.382 117.645,339.715 112.5,339.5C 112.664,342.187 112.497,344.854 112,347.5C 92.6026,367.399 72.7693,386.732 52.5,405.5C 48.9452,398.885 45.2785,392.385 41.5,386C 48.8888,362.117 55.2222,337.951 60.5,313.5C 61.1667,313.5 61.5,313.167 61.5,312.5C 79.339,311.977 97.0057,311.977 114.5,312.5 Z"/></g>
<g><path style="opacity:1" fill="#852b1c" d="M 15.5,313.5 C 19.8461,313.334 24.1794,313.501 28.5,314C 33.2123,321.255 37.5456,328.755 41.5,336.5C 37.6821,340.818 33.6821,344.985 29.5,349C 25.7537,349.256 22.087,348.756 18.5,347.5C 18.671,336.043 17.671,324.71 15.5,313.5 Z"/></g>
<g><path style="opacity:1" fill="#91412a" d="M 35.5,313.5 C 43.8333,313.5 52.1667,313.5 60.5,313.5C 55.2222,337.951 48.8888,362.117 41.5,386C 45.2785,392.385 48.9452,398.885 52.5,405.5C 46.5295,411.301 40.3628,416.967 34,422.5C 25.3944,409.622 17.5611,396.289 10.5,382.5C 11,380.5 11.5,378.5 12,376.5C 23.3391,363.329 35.1725,350.662 47.5,338.5C 44.8086,329.453 40.8086,321.12 35.5,313.5 Z"/></g>
<g><path style="opacity:1" fill="#4d2510" d="M 126.5,328.5 C 126.5,324.833 126.5,321.167 126.5,317.5C 124.5,317.5 122.5,317.5 120.5,317.5C 120.813,321.042 120.479,324.375 119.5,327.5C 119.5,323.833 119.5,320.167 119.5,316.5C 122.167,316.5 124.833,316.5 127.5,316.5C 127.817,320.702 127.483,324.702 126.5,328.5 Z"/></g>
<g><path style="opacity:1" fill="#b65d2f" d="M 126.5,328.5 C 123.941,328.802 121.607,328.468 119.5,327.5C 120.479,324.375 120.813,321.042 120.5,317.5C 122.5,317.5 124.5,317.5 126.5,317.5C 126.5,321.167 126.5,324.833 126.5,328.5 Z"/></g>
<g><path style="opacity:1" fill="#9d5d3d" d="M 401.5,314.5 C 401.523,340.849 402.189,367.182 403.5,393.5C 403.167,396.833 402.833,400.167 402.5,403.5C 389.156,414.847 376.156,426.514 363.5,438.5C 362.833,438.833 362.167,439.167 361.5,439.5C 339.159,440.314 316.826,441.314 294.5,442.5C 292.631,442.493 290.964,442.16 289.5,441.5C 326.862,399.141 364.196,356.808 401.5,314.5 Z"/></g>
<g><path style="opacity:1" fill="#261812" d="M 444.5,392.5 C 443.883,392.389 443.383,392.056 443,391.5C 440.672,392.999 438.505,394.666 436.5,396.5C 436.381,359.828 436.214,323.161 436,286.5C 438.737,321.868 441.57,357.202 444.5,392.5 Z"/></g>
<g><path style="opacity:1" fill="#532215" d="M 8.5,312.5 C 9.11742,312.611 9.61742,312.944 10,313.5C 10.6142,324.537 11.6142,335.537 13,346.5C 14.2582,351.401 17.4248,354.401 22.5,355.5C 17.8207,361.509 12.8207,367.175 7.5,372.5C 10.9723,366.425 15.3056,360.925 20.5,356C 16.7778,354.9 13.9445,352.734 12,349.5C 10.0415,337.248 8.87485,324.915 8.5,312.5 Z"/></g>
<g><path style="opacity:1" fill="#4c2c18" d="M 236.5,332.5 C 233.375,333.479 230.042,333.813 226.5,333.5C 226.5,340.833 226.5,348.167 226.5,355.5C 225.508,348.018 225.175,340.352 225.5,332.5C 229.167,332.5 232.833,332.5 236.5,332.5 Z"/></g>
<g><path style="opacity:0.545" fill="#512416" d="M 6.5,373.5 C 7.12395,373.917 7.45728,374.584 7.5,375.5C 6.9907,379.103 5.9907,382.436 4.5,385.5C 4.78179,381.426 5.44846,377.426 6.5,373.5 Z"/></g>
<g><path style="opacity:1" fill="#3e1e16" d="M 444.5,392.5 C 445.19,404.496 445.357,416.496 445,428.5C 442.111,418.274 438.611,408.274 434.5,398.5C 434.855,397.478 435.522,396.811 436.5,396.5C 438.505,394.666 440.672,392.999 443,391.5C 443.383,392.056 443.883,392.389 444.5,392.5 Z"/></g>
<g><path style="opacity:1" fill="#832a1e" d="M 38.5,443.5 C 36.777,444.8 34.6103,445.467 32,445.5C 29.1158,445.394 26.2825,445.061 23.5,444.5C 16.792,433.588 10.4586,422.422 4.5,411C 5.87564,405.117 7.37564,399.284 9,393.5C 19.06,410.054 28.8933,426.72 38.5,443.5 Z"/></g>
<g><path style="opacity:1" fill="#b45c2e" d="M 186.5,397.5 C 198.5,397.5 210.5,397.5 222.5,397.5C 222.502,404.52 222.835,411.52 223.5,418.5C 185.832,418.735 148.166,419.068 110.5,419.5C 111.593,412.515 112.593,405.515 113.5,398.5C 138.006,398.831 162.339,398.498 186.5,397.5 Z"/></g>
<g><path style="opacity:0.398" fill="#4d1b11" d="M 4.5,385.5 C 2.40736,395.057 1.07403,404.723 0.5,414.5C 0.166667,414.5 -0.166667,414.5 -0.5,414.5C -0.5,410.833 -0.5,407.167 -0.5,403.5C 0.660067,397.37 2.32673,391.37 4.5,385.5 Z"/></g>
<g><path style="opacity:1" fill="#3f1f16" d="M 438.5,433.5 C 438.5,434.5 438.5,435.5 438.5,436.5C 422.994,437.074 407.661,437.074 392.5,436.5C 404.814,425.856 417.147,415.189 429.5,404.5C 433.274,413.933 436.274,423.599 438.5,433.5 Z"/></g>
<g><path style="opacity:1" fill="#92422a" d="M 54.5,410.5 C 57.5571,414.258 60.3904,418.258 63,422.5C 67.4244,430.074 71.591,437.741 75.5,445.5C 66.1667,445.5 56.8333,445.5 47.5,445.5C 43.5113,438.861 39.5113,432.194 35.5,425.5C 41.6428,420.262 47.9761,415.262 54.5,410.5 Z"/></g>
<g><path style="opacity:1" fill="#2c130d" d="M 438.5,433.5 C 439.788,435.035 439.788,436.701 438.5,438.5C 406.323,461.422 374.323,484.588 342.5,508C 339.714,510.06 336.714,511.56 333.5,512.5C 333.397,506.112 332.731,499.779 331.5,493.5C 351.09,473.842 371.423,454.842 392.5,436.5C 407.661,437.074 422.994,437.074 438.5,436.5C 438.5,435.5 438.5,434.5 438.5,433.5 Z"/></g>
<g><path style="opacity:1" fill="#682d1c" d="M 363.5,438.5 C 368.833,438.5 374.167,438.5 379.5,438.5C 363.096,453.883 346.429,469.05 329.5,484C 302.827,484.833 276.16,484.667 249.5,483.5C 249.624,482.893 249.957,482.56 250.5,482.5C 272.635,483.333 294.968,483.5 317.5,483C 332.062,468.271 346.728,453.771 361.5,439.5C 362.167,439.167 362.833,438.833 363.5,438.5 Z"/></g>
<g><path style="opacity:1" fill="#72422a" d="M 361.5,439.5 C 346.728,453.771 332.062,468.271 317.5,483C 294.968,483.5 272.635,483.333 250.5,482.5C 263.893,469.11 276.893,455.443 289.5,441.5C 290.964,442.16 292.631,442.493 294.5,442.5C 316.826,441.314 339.159,440.314 361.5,439.5 Z"/></g>
<g><path style="opacity:1" fill="#72422a" d="M 281.5,442.5 C 269.038,456.13 256.372,469.63 243.5,483C 216.833,483.333 190.167,483.667 163.5,484C 145.585,492.127 127.585,499.96 109.5,507.5C 107.895,501.27 105.395,495.27 102,489.5C 93.2358,474.97 84.7358,460.303 76.5,445.5C 144.844,445.201 213.178,444.201 281.5,442.5 Z"/></g>
<g><path style="opacity:1" fill="#5f1d1a" d="M 38.5,443.5 C 54.2258,469.94 69.7258,496.607 85,523.5C 86.207,532.476 86.5404,541.476 86,550.5C 65.3385,515.019 44.5052,479.686 23.5,444.5C 26.2825,445.061 29.1158,445.394 32,445.5C 34.6103,445.467 36.777,444.8 38.5,443.5 Z"/></g>
<g><path style="opacity:1" fill="#6a2d1c" d="M 47.5,445.5 C 56.8333,445.5 66.1667,445.5 75.5,445.5C 75.8333,445.5 76.1667,445.5 76.5,445.5C 84.7358,460.303 93.2358,474.97 102,489.5C 105.395,495.27 107.895,501.27 109.5,507.5C 103.712,510.558 97.7119,513.392 91.5,516C 90.0563,516.781 88.723,516.614 87.5,515.5C 74.6606,491.814 61.3273,468.48 47.5,445.5 Z"/></g>
<g><path style="opacity:0.353" fill="#492317" d="M 3.5,422.5 C 14.1586,441.495 24.8253,460.495 35.5,479.5C 26.4661,465.934 17.9661,451.934 10,437.5C 7.26456,432.701 5.0979,427.701 3.5,422.5 Z"/></g>
<g><path style="opacity:1" fill="#621e1b" d="M 308.5,491.5 C 305.237,495.94 301.737,500.273 298,504.5C 295.769,507.795 293.936,511.295 292.5,515C 294.81,515.497 297.143,515.663 299.5,515.5C 280.969,516.287 262.302,517.454 243.5,519C 223.013,521.382 202.68,523.882 182.5,526.5C 179.546,513.73 176.213,501.063 172.5,488.5C 217.794,490.957 263.127,491.957 308.5,491.5 Z"/></g>
<g><path style="opacity:1" fill="#611e1b" d="M 164.5,489.5 C 165.5,489.5 166.5,489.5 167.5,489.5C 170.126,502.17 173.459,514.67 177.5,527C 150.608,539.941 123.275,552.108 95.5,563.5C 93.4627,549.903 92.6294,536.237 93,522.5C 117.328,512.417 141.161,501.417 164.5,489.5 Z"/></g>
<g><path style="opacity:1" fill="#621e12" d="M 308.5,491.5 C 313.833,491.5 319.167,491.5 324.5,491.5C 324.962,499.257 325.962,506.924 327.5,514.5C 318.151,514.483 308.818,514.817 299.5,515.5C 297.143,515.663 294.81,515.497 292.5,515C 293.936,511.295 295.769,507.795 298,504.5C 301.737,500.273 305.237,495.94 308.5,491.5 Z"/></g>
<g><path style="opacity:0.816" fill="#421d16" d="M 35.5,479.5 C 43.2514,490.661 50.2514,502.328 56.5,514.5C 48.7486,503.339 41.7486,491.672 35.5,479.5 Z"/></g>
<g><path style="opacity:0.161" fill="#49281a" d="M 56.5,514.5 C 59.6232,517.976 61.9565,521.976 63.5,526.5C 60.3768,523.024 58.0435,519.024 56.5,514.5 Z"/></g>
<g><path style="opacity:0.031" fill="#3b1312" d="M 281.5,524.5 C 250.719,526.457 220.052,529.624 189.5,534C 185.08,534.768 180.747,534.602 176.5,533.5C 208.789,529.571 241.289,526.238 274,523.5C 276.69,523.503 279.19,523.836 281.5,524.5 Z"/></g>
<g><path style="opacity:0.098" fill="#421813" d="M 63.5,526.5 C 69.2909,534.645 74.2909,543.312 78.5,552.5C 72.7091,544.355 67.7091,535.688 63.5,526.5 Z"/></g>
<g><path style="opacity:0.467" fill="#431110" d="M 175.5,534.5 C 166.584,540.793 156.917,545.793 146.5,549.5C 156.002,544.249 165.669,539.249 175.5,534.5 Z"/></g>
<g><path style="opacity:0.412" fill="#421513" d="M 146.5,549.5 C 130.756,557.698 114.423,564.865 97.5,571C 96.7476,571.671 96.4142,572.504 96.5,573.5C 96.1667,573.5 95.8333,573.5 95.5,573.5C 95.1667,572.833 94.8333,572.167 94.5,571.5C 111.713,563.981 129.046,556.648 146.5,549.5 Z"/></g>
<g><path style="opacity:0.616" fill="#34110f" d="M 78.5,552.5 C 83.4934,558.494 88.4934,564.494 93.5,570.5C 86.9993,565.673 81.9993,559.673 78.5,552.5 Z"/></g>
</svg>
