<?xml version="1.0" encoding="UTF-8"?>
<!DOCTYPE svg PUBLIC "-//W3C//DTD SVG 1.1//EN" "http://www.w3.org/Graphics/SVG/1.1/DTD/svg11.dtd">
<svg xmlns="http://www.w3.org/2000/svg" version="1.1" width="1024px" height="1024px" style="shape-rendering:geometricPrecision; text-rendering:geometricPrecision; image-rendering:optimizeQuality; fill-rule:evenodd; clip-rule:evenodd" xmlns:xlink="http://www.w3.org/1999/xlink">
<g><path style="opacity:1" fill="#0277cc" d="M 529.5,127.5 C 531.607,128.468 533.941,128.802 536.5,128.5C 536.5,130.167 536.5,131.833 536.5,133.5C 540.133,133.301 543.133,131.967 545.5,129.5C 594.979,134.488 636.145,155.488 669,192.5C 699.11,227.396 717.943,267.729 725.5,313.5C 725.74,316.579 725.407,319.579 724.5,322.5C 725.325,323.386 726.325,323.719 727.5,323.5C 732.146,350.771 733.813,378.104 732.5,405.5C 732.666,398.492 732.5,391.492 732,384.5C 732.208,393.17 730.875,401.504 728,409.5C 727.83,481.874 727.33,554.207 726.5,626.5C 727.66,628.711 728.993,630.711 730.5,632.5C 725.499,643.8 716.832,647.966 704.5,645C 697.351,643.017 692.684,638.517 690.5,631.5C 689.915,610.172 689.249,588.839 688.5,567.5C 687.614,568.325 687.281,569.325 687.5,570.5C 678.371,584.972 667.371,597.972 654.5,609.5C 653.5,609.5 652.5,609.5 651.5,609.5C 651.167,691.668 651.501,773.668 652.5,855.5C 649.649,871.105 640.316,877.605 624.5,875C 615.706,872.376 610.706,866.542 609.5,857.5C 610.465,830.859 610.798,804.192 610.5,777.5C 611.025,787.151 611.859,796.818 613,806.5C 613.333,796.5 613.667,786.5 614,776.5C 615.423,773.26 615.423,769.926 614,766.5C 614.341,729.509 613.841,692.509 612.5,655.5C 611.833,675.663 611.167,695.663 610.5,715.5C 610.322,693.971 610.322,672.471 610.5,651C 610.7,648.134 610.033,645.634 608.5,643.5C 608.649,642.448 608.483,641.448 608,640.5C 596.091,646.525 583.591,650.859 570.5,653.5C 568.516,653.617 566.85,652.95 565.5,651.5C 563.889,652.32 563.222,653.654 563.5,655.5C 562.668,688.998 562.168,722.664 562,756.5C 560.765,766.012 555.599,772.012 546.5,774.5C 541.13,774.608 535.797,774.275 530.5,773.5C 524.416,771.244 520.583,766.911 519,760.5C 518.5,727.502 518.333,694.502 518.5,661.5C 506.86,662.388 495.193,662.721 483.5,662.5C 483.666,670.507 483.5,678.507 483,686.5C 477.898,700.469 468.065,705.636 453.5,702C 446.572,699.406 442.072,694.573 440,687.5C 439.5,679.173 439.334,670.84 439.5,662.5C 426.32,661.739 412.987,661.073 399.5,660.5C 399.5,703.167 399.5,745.833 399.5,788.5C 397.838,789.831 396.171,791.164 394.5,792.5C 395.612,793.265 396.279,794.265 396.5,795.5C 388.348,805.535 378.348,807.702 366.5,802C 362.908,799.079 360.075,795.579 358,791.5C 356.522,748.547 356.022,705.547 356.5,662.5C 346.161,662.666 335.828,662.5 325.5,662C 322.905,661.774 320.405,661.274 318,660.5C 317.667,677.833 317.333,695.167 317,712.5C 311.316,726.591 301.15,731.424 286.5,727C 279.639,723.981 275.639,718.814 274.5,711.5C 275.401,712.29 276.068,713.29 276.5,714.5C 276.369,715.239 276.536,715.906 277,716.5C 280.763,715.313 282.763,712.647 283,708.5C 283.333,665.167 283.667,621.833 284,578.5C 284.83,576.172 285.663,573.838 286.5,571.5C 284.005,564.759 283.005,557.759 283.5,550.5C 283.667,545.833 283.833,541.167 284,536.5C 285.306,535.088 286.14,533.421 286.5,531.5C 284.019,525.097 283.019,518.43 283.5,511.5C 283.019,504.57 284.019,497.903 286.5,491.5C 284.005,484.759 283.005,477.759 283.5,470.5C 283.667,465.833 283.833,461.167 284,456.5C 285.306,455.088 286.14,453.421 286.5,451.5C 284.019,445.097 283.019,438.43 283.5,431.5C 283.019,424.57 284.019,417.903 286.5,411.5C 284.005,404.759 283.005,397.759 283.5,390.5C 283.667,385.833 283.833,381.167 284,376.5C 285.306,375.088 286.14,373.421 286.5,371.5C 284.019,365.097 283.019,358.43 283.5,351.5C 283.019,344.57 284.019,337.903 286.5,331.5C 284.005,324.759 283.005,317.759 283.5,310.5C 283.667,305.833 283.833,301.167 284,296.5C 285.306,295.088 286.14,293.421 286.5,291.5C 285.663,289.162 284.83,286.828 284,284.5C 283.333,275.833 283.333,267.167 284,258.5C 284.83,256.172 285.663,253.838 286.5,251.5C 284.005,244.759 283.005,237.759 283.5,230.5C 283.667,225.833 283.833,221.167 284,216.5C 285.306,215.088 286.14,213.421 286.5,211.5C 285.663,209.162 284.83,206.828 284,204.5C 283.909,194.37 282.742,184.37 280.5,174.5C 281.087,170.405 282.087,166.405 283.5,162.5C 282.7,160.013 281.367,158.013 279.5,156.5C 283.929,143.07 292.929,134.404 306.5,130.5C 307.93,130.421 309.264,130.754 310.5,131.5C 312.556,129.981 314.89,129.147 317.5,129C 318.381,128.292 319.047,127.458 319.5,126.5C 325.81,125.846 332.143,125.346 338.5,125C 387.833,124.333 437.167,124.333 486.5,125C 500.932,125.157 515.265,125.991 529.5,127.5 Z M 383.5,212.5 C 397.5,212.5 411.5,212.5 425.5,212.5C 425.17,232.007 425.503,251.341 426.5,270.5C 426.794,273.754 428.127,276.421 430.5,278.5C 437.52,286.538 446.187,288.705 456.5,285C 463.679,281.817 467.846,276.317 469,268.5C 469.5,249.836 469.667,231.17 469.5,212.5C 492.236,212.819 514.569,215.986 536.5,222C 559.606,229.64 578.106,243.473 592,263.5C 602.424,278.758 609.757,295.425 614,313.5C 616.714,326.121 618.881,338.788 620.5,351.5C 621.775,376.173 621.775,400.84 620.5,425.5C 618.569,457.227 610.402,487.227 596,515.5C 576.541,550.585 546.708,570.085 506.5,574C 465.516,575.4 424.516,575.9 383.5,575.5C 383.5,454.5 383.5,333.5 383.5,212.5 Z"/></g>
<g><path style="opacity:0.99" fill="#1176b4" d="M 319.5,126.5 C 319.047,127.458 318.381,128.292 317.5,129C 314.89,129.147 312.556,129.981 310.5,131.5C 309.264,130.754 307.93,130.421 306.5,130.5C 310.594,128.721 314.927,127.388 319.5,126.5 Z"/></g>
<g><path style="opacity:1" fill="#1474b1" d="M 529.5,127.5 C 535.051,127.527 540.384,128.194 545.5,129.5C 543.133,131.967 540.133,133.301 536.5,133.5C 536.5,131.833 536.5,130.167 536.5,128.5C 533.941,128.802 531.607,128.468 529.5,127.5 Z"/></g>
<g><path style="opacity:1" fill="#0377ce" d="M 279.5,156.5 C 281.367,158.013 282.7,160.013 283.5,162.5C 282.087,166.405 281.087,170.405 280.5,174.5C 282.742,184.37 283.909,194.37 284,204.5C 284.83,206.828 285.663,209.162 286.5,211.5C 286.14,213.421 285.306,215.088 284,216.5C 283.833,221.167 283.667,225.833 283.5,230.5C 283.005,237.759 284.005,244.759 286.5,251.5C 285.663,253.838 284.83,256.172 284,258.5C 283.333,267.167 283.333,275.833 284,284.5C 284.83,286.828 285.663,289.162 286.5,291.5C 286.14,293.421 285.306,295.088 284,296.5C 283.833,301.167 283.667,305.833 283.5,310.5C 283.005,317.759 284.005,324.759 286.5,331.5C 284.019,337.903 283.019,344.57 283.5,351.5C 283.019,358.43 284.019,365.097 286.5,371.5C 286.14,373.421 285.306,375.088 284,376.5C 283.833,381.167 283.667,385.833 283.5,390.5C 283.005,397.759 284.005,404.759 286.5,411.5C 284.019,417.903 283.019,424.57 283.5,431.5C 283.019,438.43 284.019,445.097 286.5,451.5C 286.14,453.421 285.306,455.088 284,456.5C 283.833,461.167 283.667,465.833 283.5,470.5C 283.005,477.759 284.005,484.759 286.5,491.5C 284.019,497.903 283.019,504.57 283.5,511.5C 283.019,518.43 284.019,525.097 286.5,531.5C 286.14,533.421 285.306,535.088 284,536.5C 283.833,541.167 283.667,545.833 283.5,550.5C 283.005,557.759 284.005,564.759 286.5,571.5C 285.663,573.838 284.83,576.172 284,578.5C 283.667,621.833 283.333,665.167 283,708.5C 282.763,712.647 280.763,715.313 277,716.5C 276.536,715.906 276.369,715.239 276.5,714.5C 278.806,712.616 278.639,710.616 276,708.5C 275.667,532.833 275.333,357.167 275,181.5C 274.5,357.833 274.333,534.166 274.5,710.5C 273.334,533.334 273.167,356 274,178.5C 274.606,170.743 276.439,163.409 279.5,156.5 Z"/></g>
<g><path style="opacity:1" fill="#0078d7" d="M 276.5,714.5 C 276.068,713.29 275.401,712.29 274.5,711.5C 274.5,711.167 274.5,710.833 274.5,710.5C 274.333,534.166 274.5,357.833 275,181.5C 275.333,357.167 275.667,532.833 276,708.5C 278.639,710.616 278.806,712.616 276.5,714.5 Z"/></g>
<g><path style="opacity:1" fill="#0377ce" d="M 430.5,278.5 C 428.127,276.421 426.794,273.754 426.5,270.5C 426.667,250.831 426.5,231.164 426,211.5C 425.107,210.919 424.107,210.585 423,210.5C 409.682,211.122 396.515,211.789 383.5,212.5C 383.5,333.5 383.5,454.5 383.5,575.5C 383.5,575.833 383.5,576.167 383.5,576.5C 383.833,577.167 384.167,577.833 384.5,578.5C 382.926,578.063 381.759,577.063 381,575.5C 380.667,455.5 380.333,335.5 380,215.5C 379.13,216.108 378.63,216.941 378.5,218C 379.664,338.139 379.83,458.306 379,578.5C 378.667,578.833 378.333,579.167 378,579.5C 377.667,576.5 377.333,573.5 377,570.5C 376.188,450.158 376.354,329.825 377.5,209.5C 380.977,209.322 384.31,208.655 387.5,207.5C 400.093,209.291 412.759,209.957 425.5,209.5C 425.561,204.678 426.727,204.345 429,208.5C 429.202,206.744 429.702,205.078 430.5,203.5C 430.833,204.5 431.167,205.5 431.5,206.5C 430.903,209.958 429.903,213.291 428.5,216.5C 428.42,234.44 428.586,252.44 429,270.5C 431.557,271.646 432.89,270.646 433,267.5C 434.204,268.859 435.704,269.859 437.5,270.5C 435.135,271.085 433.135,272.252 431.5,274C 433.439,274.908 434.439,276.408 434.5,278.5C 433.167,278.5 431.833,278.5 430.5,278.5 Z"/></g>
<g><path style="opacity:1" fill="#0277cf" d="M 299.5,223.5 C 300.833,223.5 302.167,223.5 303.5,223.5C 303.5,383.5 303.5,543.5 303.5,703.5C 300.881,703.768 298.381,703.435 296,702.5C 295.333,548.5 295.333,394.5 296,240.5C 297.011,239.663 298.178,239.33 299.5,239.5C 299.5,234.167 299.5,228.833 299.5,223.5 Z"/></g>
<g><path style="opacity:0.812" fill="#0e73b7" d="M 426.5,270.5 C 425.503,251.341 425.17,232.007 425.5,212.5C 411.5,212.5 397.5,212.5 383.5,212.5C 396.515,211.789 409.682,211.122 423,210.5C 424.107,210.585 425.107,210.919 426,211.5C 426.5,231.164 426.667,250.831 426.5,270.5 Z"/></g>
<g><path style="opacity:1" fill="#1277b0" d="M 725.5,313.5 C 726.785,316.589 727.451,319.922 727.5,323.5C 726.325,323.719 725.325,323.386 724.5,322.5C 725.407,319.579 725.74,316.579 725.5,313.5 Z"/></g>
<g><path style="opacity:1" fill="#0277cf" d="M 732.5,405.5 C 732.5,406.167 732.5,406.833 732.5,407.5C 732.161,480.477 731.161,553.477 729.5,626.5C 730.005,627.919 731.005,628.585 732.5,628.5C 732.34,630.153 731.674,631.486 730.5,632.5C 728.993,630.711 727.66,628.711 726.5,626.5C 727.33,554.207 727.83,481.874 728,409.5C 730.875,401.504 732.208,393.17 732,384.5C 732.5,391.492 732.666,398.492 732.5,405.5 Z"/></g>
<g><path style="opacity:0.469" fill="#0b75be" d="M 620.5,351.5 C 621.765,352.514 622.431,354.014 622.5,356C 622.456,357.764 622.122,359.431 621.5,361C 622.178,380.958 622.845,400.958 623.5,421C 623.101,422.981 622.101,424.481 620.5,425.5C 621.775,400.84 621.775,376.173 620.5,351.5 Z"/></g>
<g><path style="opacity:0.843" fill="#0a75c1" d="M 732.5,407.5 C 732.5,481.167 732.5,554.833 732.5,628.5C 731.005,628.585 730.005,627.919 729.5,626.5C 731.161,553.477 732.161,480.477 732.5,407.5 Z"/></g>
<g><path style="opacity:1" fill="#007ada" d="M 383.5,576.5 C 420.502,576.333 457.502,576.5 494.5,577C 492.567,577.251 490.734,577.751 489,578.5C 454.309,577.275 419.475,577.275 384.5,578.5C 384.167,577.833 383.833,577.167 383.5,576.5 Z"/></g>
<g><path style="opacity:0.212" fill="#0d74ba" d="M 690.5,631.5 C 689.71,630.391 689.21,629.058 689,627.5C 688.832,608.329 688.332,589.329 687.5,570.5C 687.281,569.325 687.614,568.325 688.5,567.5C 689.249,588.839 689.915,610.172 690.5,631.5 Z"/></g>
<g><path style="opacity:0.764" fill="#0d74be" d="M 654.5,609.5 C 652.507,691.287 651.841,773.287 652.5,855.5C 651.501,773.668 651.167,691.668 651.5,609.5C 652.5,609.5 653.5,609.5 654.5,609.5 Z"/></g>
<g><path style="opacity:0.48" fill="#2170a3" d="M 570.5,653.5 C 568.401,654.612 566.067,655.279 563.5,655.5C 563.222,653.654 563.889,652.32 565.5,651.5C 566.85,652.95 568.516,653.617 570.5,653.5 Z"/></g>
<g><path style="opacity:1" fill="#0377cb" d="M 705.5,674.5 C 719.6,672.456 728.767,678.123 733,691.5C 737.144,710.591 729.811,721.924 711,725.5C 700.396,724.224 693.396,718.558 690,708.5C 685.892,692.569 691.059,681.236 705.5,674.5 Z"/></g>
<g><path style="opacity:0.592" fill="#1076c0" d="M 439.5,662.5 C 426.5,662.5 413.5,662.5 400.5,662.5C 400.832,704.67 400.499,746.67 399.5,788.5C 399.5,745.833 399.5,703.167 399.5,660.5C 412.987,661.073 426.32,661.739 439.5,662.5 Z"/></g>
<g><path style="opacity:1" fill="#0976c2" d="M 608.5,643.5 C 610.033,645.634 610.7,648.134 610.5,651C 610.322,672.471 610.322,693.971 610.5,715.5C 611.833,736.167 611.833,756.833 610.5,777.5C 610.798,804.192 610.465,830.859 609.5,857.5C 608.501,786.335 608.167,715.002 608.5,643.5 Z"/></g>
<g><path style="opacity:1" fill="#0377cb" d="M 482.5,747.5 C 482.667,765.503 482.5,783.503 482,801.5C 481.085,800.672 480.419,799.672 480,798.5C 479.221,800.807 479.721,802.807 481.5,804.5C 480.754,805.736 480.421,807.07 480.5,808.5C 476.525,815.604 470.358,819.271 462,819.5C 448.663,818.163 441.329,810.829 440,797.5C 439.333,782.833 439.333,768.167 440,753.5C 442.528,737.991 451.694,731.158 467.5,733C 475.656,734.716 480.656,739.549 482.5,747.5 Z"/></g>
<g><path style="opacity:1" fill="#0376d1" d="M 610.5,777.5 C 611.833,756.833 611.833,736.167 610.5,715.5C 611.167,695.663 611.833,675.663 612.5,655.5C 613.841,692.509 614.341,729.509 614,766.5C 615.423,769.926 615.423,773.26 614,776.5C 613.667,786.5 613.333,796.5 613,806.5C 611.859,796.818 611.025,787.151 610.5,777.5 Z"/></g>
<g><path style="opacity:1" fill="#0b76c1" d="M 482.5,747.5 C 483.309,749.292 483.809,751.292 484,753.5C 484.91,770.539 484.577,787.539 483,804.5C 482.392,806.066 481.558,807.4 480.5,808.5C 480.421,807.07 480.754,805.736 481.5,804.5C 479.721,802.807 479.221,800.807 480,798.5C 480.419,799.672 481.085,800.672 482,801.5C 482.5,783.503 482.667,765.503 482.5,747.5 Z"/></g>
<g><path style="opacity:1" fill="#0277cc" d="M 708.5,759.5 C 722.225,758.936 730.725,765.269 734,778.5C 734.945,800.542 734.611,822.542 733,844.5C 725.263,858.411 714.096,861.911 699.5,855C 695.072,851.908 692.239,847.741 691,842.5C 690.333,820.167 690.333,797.833 691,775.5C 693.861,766.802 699.694,761.468 708.5,759.5 Z"/></g>
<g><path style="opacity:1" fill="#0278cc" d="M 314.5,771.5 C 315.15,813.64 315.817,855.64 316.5,897.5C 312.34,911.423 303.007,916.923 288.5,914C 281.351,912.017 276.684,907.517 274.5,900.5C 274.5,899.167 274.5,897.833 274.5,896.5C 275.166,892.979 275.833,889.313 276.5,885.5C 277.5,851.173 277.833,816.84 277.5,782.5C 276.5,782.5 275.5,782.5 274.5,782.5C 274.5,819.5 274.5,856.5 274.5,893.5C 273.548,853.482 273.215,813.482 273.5,773.5C 280.884,758.427 292.218,754.593 307.5,762C 310.848,764.501 313.182,767.668 314.5,771.5 Z"/></g>
<g><path style="opacity:0.884" fill="#1972af" d="M 530.5,773.5 C 535.797,774.275 541.13,774.608 546.5,774.5C 544.527,775.163 542.361,775.496 540,775.5C 536.523,775.672 533.356,775.006 530.5,773.5 Z"/></g>
<g><path style="opacity:0.886" fill="#0d74c0" d="M 314.5,771.5 C 315.222,771.918 315.722,772.584 316,773.5C 316.5,814.832 316.667,856.165 316.5,897.5C 315.817,855.64 315.15,813.64 314.5,771.5 Z"/></g>
<g><path style="opacity:1" fill="#0476d3" d="M 274.5,896.5 C 274.5,895.5 274.5,894.5 274.5,893.5C 274.5,856.5 274.5,819.5 274.5,782.5C 275.5,782.5 276.5,782.5 277.5,782.5C 277.833,816.84 277.5,851.173 276.5,885.5C 275.833,889.313 275.166,892.979 274.5,896.5 Z"/></g>
<g><path style="opacity:0.161" fill="#1276bd" d="M 273.5,773.5 C 273.215,813.482 273.548,853.482 274.5,893.5C 274.5,894.5 274.5,895.5 274.5,896.5C 274.5,897.833 274.5,899.167 274.5,900.5C 273.698,899.048 273.198,897.382 273,895.5C 272.19,854.811 272.356,814.144 273.5,773.5 Z"/></g>
<g><path style="opacity:1" fill="#0e79b5" d="M 399.5,788.5 C 399.293,791.241 398.293,793.574 396.5,795.5C 396.279,794.265 395.612,793.265 394.5,792.5C 396.171,791.164 397.838,789.831 399.5,788.5 Z"/></g>
<g><path style="opacity:1" fill="#0377cc" d="M 534.5,808.5 C 548.367,807.215 557.201,813.215 561,826.5C 561.917,838.891 561.584,851.224 560,863.5C 552.385,877.814 541.218,881.314 526.5,874C 522.072,870.908 519.239,866.741 518,861.5C 517.333,849.167 517.333,836.833 518,824.5C 520.752,816.247 526.252,810.913 534.5,808.5 Z"/></g>
</svg>
