<?xml version="1.0" encoding="UTF-8"?>
<!-- Generated by Pixelmator Pro 3.4.1 -->
<svg width="50" height="50" viewBox="0 0 50 50" xmlns="http://www.w3.org/2000/svg">
    <path id="Path-copy" fill="#ffffff" fill-rule="evenodd" stroke="none" d="M 50 25 C 50 11.192883 38.807117 0 25 0 C 11.192882 0 0 11.192883 0 25 C 0 38.807117 11.192882 50 25 50 C 38.807117 50 50 38.807117 50 25 Z"/>
    <path id="Shape" fill="#1b1b1b" stroke="none" d="M 44.268383 25.879961 C 43.93707 22.386473 42.803464 11.659716 42.787391 11.260912 C 42.76916 10.793738 42.101738 10.198922 42.101738 11.062623 C 42.101738 11.659687 41.56243 18.516871 41.56243 23.478065 C 41.505287 23.393665 41.470976 23.34808 41.470976 23.34808 L 40.236804 23.34808 C 38.019882 17.912952 32.130138 13.968195 25.131885 13.728916 L 24.974173 13.728916 L 24.818808 13.728916 C 24.699913 13.728916 24.590226 13.728916 24.457608 13.728916 C 24.3342 13.728916 24.215397 13.728916 24.096502 13.728916 L 23.941137 13.728916 L 23.788027 13.728916 C 16.78752 13.956804 10.895475 17.912952 8.678531 23.34808 L 7.535782 23.34808 L 7.446642 23.478065 C 7.446642 18.516871 6.904973 11.659687 6.904973 11.062623 C 6.904973 10.198922 6.237611 10.793738 6.219321 11.260912 C 6.205608 11.659716 5.076581 22.386473 4.740608 25.879961 C 4.254099 26.527266 3.993969 27.315834 4.000106 28.124706 C 4.000106 29.416872 4.857168 30.79325 5.910783 30.79325 C 6.178633 31.539525 6.543631 32.247545 6.996406 32.898985 L 8.689942 32.898985 C 10.97545 38.50958 17.178328 42.531849 24.459957 42.531849 C 31.741586 42.531849 37.944408 38.50958 40.229945 32.898985 L 42.005775 32.898985 C 42.457492 32.246887 42.822448 31.539053 43.091356 30.79325 C 44.144972 30.79325 44.999806 29.425987 44.999806 28.124706 C 45.008076 27.316962 44.751204 26.528675 44.268383 25.879961 Z M 24.457608 41.558778 C 16.897206 41.558778 10.769773 36.650002 10.769773 30.592677 C 10.769773 26.0623 14.198022 22.17453 19.086686 20.501802 L 19.980336 22.707823 C 20.057219 22.897025 20.188992 23.058967 20.35883 23.17307 C 20.528574 23.287174 20.728679 23.34808 20.933387 23.34808 L 28.004761 23.34808 C 28.209471 23.34808 28.409574 23.287174 28.579412 23.17307 C 28.749156 23.058967 28.880929 22.897025 28.957813 22.707823 L 29.849207 20.510919 C 34.726402 22.188158 38.14329 26.069162 38.14329 30.592677 C 38.14329 36.650002 32.015847 41.558778 24.457608 41.558778 Z"/>
</svg>
