<svg width="500" height="500" viewBox="0 0 500 500" fill="none" xmlns="http://www.w3.org/2000/svg">
<path fill-rule="evenodd" clip-rule="evenodd" d="M254.407 4.05601C239.487 6.92301 223.1 21.031 195.5 54.769L181.5 71.883L178 71.192C176.075 70.811 170.225 70.534 165 70.577C157.079 70.64 154.42 71.1 149 73.342C130.814 80.864 114.205 98.5 101.606 123.668C97.254 132.361 96.641 133.083 89.758 137.607C75.544 146.952 60.169 164.701 51.736 181.5C48.061 188.823 43.495 202.288 41.395 212C38.979 223.178 38.957 249.081 41.356 259.789L42.989 267.079L40.005 272.99C28.833 295.122 30.021 322.161 43.493 352.362C49.306 365.395 52.357 370.295 65.87 388.311C91.63 422.653 116.079 446.521 145 465.562C176.025 485.988 210.503 496.092 249.5 496.187C275.312 496.251 298.336 492.596 320.74 484.88C381.277 464.031 423.404 432.5 450.178 388C455.813 378.635 458.436 371.653 460.566 360.347C463.293 345.874 460.963 330.917 454.693 322.645L452.309 319.5L457.716 312.5C466.491 301.138 473.138 285.823 477.03 268C479.15 258.294 479.46 231.746 477.574 221.5C471.156 186.635 451.169 157.039 424.056 142.25L417.337 138.585L410.05 118.3C406.041 107.144 401.489 96.01 399.934 93.558C390.842 79.221 371.34 78.375 351.624 91.461C346.267 95.018 345.506 95.252 342.729 94.204C335.692 91.547 327.922 85.921 318.974 77C307.851 65.911 303.676 60.455 282.629 29.5C274.028 16.85 266.205 5.99001 265.245 5.36701C262.572 3.63201 258.914 3.18901 254.407 4.05601ZM265.322 24.188C266.877 26.01 271.794 32.45 276.248 38.5C287.071 53.201 296.83 64.583 308.14 75.699C318.497 85.877 323.866 90.185 333.931 96.39L340.691 100.558L335.461 106.406C328.892 113.75 321.962 125.404 318.754 134.5C314.449 146.703 314.802 147.777 319.954 138.156C331.516 116.568 345.456 101.817 361.241 94.468C370.721 90.054 380.311 91.827 386.455 99.128C387.943 100.897 392.757 109.525 397.151 118.302C405.083 134.141 405.121 134.256 402.321 133.649C400.769 133.313 396.125 132.748 392 132.394C372.941 130.756 355.518 140.513 321.871 171.666C290.773 200.459 286.444 204.286 280.701 208.056C272.736 213.285 270.178 213.689 263.759 210.734C256.72 207.493 248.008 200.216 226.5 179.611C216.6 170.126 205.817 159.921 202.537 156.933C195.928 150.911 195.01 149.917 188.762 142C183.418 135.23 172.349 126.726 165 123.744C160.106 121.757 157.904 121.528 145 121.663C130.504 121.815 118.308 123.593 111.096 126.605C109.225 127.387 107.519 127.852 107.306 127.639C107.093 127.426 109.696 123.101 113.09 118.027C128.578 94.872 149.148 80.623 169.057 79.259C179.516 78.542 185.504 81.263 195.429 91.243C206.661 102.539 215.619 117.219 226.691 142.477C229.59 149.09 231.97 154.029 231.981 153.453C232.023 151.13 227.855 133.645 225.424 125.948C218.406 103.732 206.965 86.32 193.862 77.912L188.961 74.766L194.705 68.133C221.079 37.679 233.798 26.815 248.883 21.854C256.746 19.268 261.726 19.975 265.322 24.188ZM140.349 165.459C150.579 169.069 157.565 173.612 166.554 182.501C179.892 195.691 185.465 209.642 185.328 229.5C185.244 241.705 182.925 252.453 178.315 262C175.029 268.805 162.627 281.434 154.979 285.761C136.943 295.966 108.528 299.718 92.347 294.031C78.904 289.306 66.218 275.851 61.717 261.546C59.854 255.626 59.508 252.263 59.55 240.5C59.596 227.295 59.79 225.94 62.963 216.637C71.887 190.476 92.301 168.882 112.618 164.112C120.51 162.26 133.002 162.866 140.349 165.459ZM411.792 177.585C429.265 181.179 444.102 193.079 452.414 210.166C459.701 225.146 461.302 232.594 461.409 252C461.489 266.429 461.21 269.504 459.191 276.5C454.72 291.995 446.945 304.824 439.65 308.745C434.57 311.476 421.473 310.915 411 307.52C383.828 298.71 362.908 281.191 354.885 260.53C339.897 221.929 355.406 184.98 389.685 177.625C398.685 175.694 402.564 175.687 411.792 177.585ZM117.257 188.06C111.094 190.499 102.17 198.305 98.715 204.279C94.286 211.936 92.546 218.807 92.582 228.5C92.649 246.513 101.091 260.898 115.864 268.169C119.57 269.993 122.205 270.456 129 270.475C136.311 270.497 138.296 270.109 143.19 267.706C150.037 264.343 157.828 256.17 161.417 248.584C171.631 226.994 163.316 199.453 143.5 189.236C136.512 185.633 124.724 185.105 117.257 188.06ZM393.336 193.789C370.718 201.871 360.326 231.859 371.951 255.5C375.677 263.078 382.692 270.21 389.902 273.751C394.675 276.095 396.752 276.5 404 276.5C411.258 276.5 413.322 276.096 418.125 273.738C429.077 268.359 437.903 255.477 440.221 241.485C443.305 222.872 432.83 201.761 417 194.687C410.624 191.837 399.933 191.432 393.336 193.789ZM134.395 226.299C137.156 228.318 136.179 233.226 132.78 234.414C127.465 236.272 123.677 229.741 128.223 226.557C130.929 224.661 132.088 224.613 134.395 226.299ZM407.8 231.2C408.46 231.86 409 233.345 409 234.5C409 237.33 407.144 239 404 239C400.856 239 399 237.33 399 234.5C399 231.67 400.856 230 404 230C405.43 230 407.14 230.54 407.8 231.2ZM279.341 254.919C286.039 258.334 293.798 265.004 319.381 289.339C333.196 302.481 349.105 316.697 354.733 320.93C366.019 329.42 379.565 336.96 387.932 339.41C403.77 344.047 427.695 338.714 442.981 327.138C445.996 324.855 448.921 323.139 449.481 323.323C450.042 323.508 451.85 326.291 453.5 329.507C456.369 335.1 456.5 335.911 456.5 348.056V360.757L450.273 373.128C446.848 379.933 440.998 389.764 437.273 394.976C428.558 407.17 408.346 427.52 395.237 437.299C342.066 476.965 271.576 494.315 214.148 481.873C186.509 475.885 154.272 459.434 125.707 436.741C96.746 413.733 65.073 377.043 52.985 352.5C38.68 323.456 35.101 297.364 43 279.71C44.732 275.839 44.939 275.685 45.571 277.797C45.949 279.061 47.785 283.281 49.651 287.175C62.718 314.441 84.184 331.787 110.786 336.577C127.578 339.601 140.522 337.28 159.44 327.853C176.416 319.394 190.65 309.609 224 283.467C250.228 262.909 254.998 259.42 261.704 255.892C268.227 252.461 273.906 252.148 279.341 254.919ZM239.413 274.493C236.771 278.525 239.196 284.338 244 285.49C247.237 286.266 249.816 284.299 250.565 280.484C251.907 273.644 243.077 268.9 239.413 274.493ZM293.073 277.635C290.596 280.783 290.468 282.796 292.557 285.777C294.5 288.551 299.041 288.717 301.409 286.101C303.467 283.826 303.801 278.67 302.029 276.535C299.988 274.076 295.432 274.635 293.073 277.635ZM61.112 322.791C65.302 330.321 75.699 342.708 82.625 348.42C91.19 355.486 103.059 361.341 114.5 364.145C130.711 368.119 155.96 366.883 179.059 360.985C213.489 352.194 259.59 347.651 292.108 349.843C320.096 351.73 341.91 356.242 372.771 366.526C391.989 372.931 399.546 374.408 409.861 373.776C422.21 373.019 431.689 367.049 437.695 356.244C439.781 352.491 439.583 352.602 433.695 358.487C425.582 366.594 420.36 368.499 406.5 368.404C395.107 368.327 391.196 367.421 366 359.026C333.852 348.316 305.198 343.726 270.5 343.729C240.768 343.732 208.623 347.551 179.735 354.512C162.867 358.577 153.41 360.04 140 360.66C107.438 362.163 82.749 350.719 64.255 325.549C58.632 317.895 58.156 317.477 61.112 322.791Z" fill="#282829"/>
<path fill-rule="evenodd" clip-rule="evenodd" d="M245.634 23.459C233.117 28.606 218.923 40.841 199.796 62.97C190.699 73.496 190.032 74.547 191.691 75.722C208.193 87.412 218.326 102.355 225.855 126.106C228.978 135.959 233.255 155.078 232.504 155.829C232.273 156.061 231.323 154.349 230.393 152.025L228.703 147.801L227.4 150.9C226.296 153.526 225.562 154 222.605 154C220.131 154 218.66 153.353 217.557 151.777C213.906 146.566 217.192 140.188 222.936 141.337C225.737 141.897 225.87 141.788 225.037 139.596C224.547 138.31 221.863 132.706 219.072 127.144C205.294 99.688 192.655 85.035 178.773 80.424C174.451 78.989 172.731 78.916 166.691 79.914C151.541 82.416 138.027 89.953 126 102.608L118.5 110.5L135 111.083C144.962 111.435 154.167 112.319 158.23 113.314C172.248 116.746 185.411 124.81 193.879 135.152C197.963 140.14 207 156.918 207 159.513C207 161.599 230.672 183 232.978 183C236.906 183 239 184.846 239 188.31C239 191.105 240.036 192.436 246.557 198.025C256.666 206.687 265.476 212 269.731 212C276.666 212 281.793 208.159 310.737 181.28C330.899 162.557 332.836 160.476 331.487 158.986C329.363 156.639 329.609 152.28 331.934 151.035C334.913 149.441 339.778 149.781 340.827 151.656C341.67 153.161 342.03 153.115 344.797 151.144C346.471 149.952 349.861 146.17 352.331 142.739C354.8 139.307 358.999 134.393 361.66 131.818C366.519 127.117 388.24 113 390.614 113C393.053 113 393.052 111.037 390.614 106.224C387.638 100.353 381.593 94.681 376.528 93.009C369.537 90.702 360.109 93.958 349 102.515C337.757 111.176 328.806 122.472 319.694 139.5C315.04 148.199 314.899 148.352 315.481 144.062C316.885 133.723 325.582 117.167 335.44 106.067L340.188 100.722L336.844 98.719C335.005 97.617 331.099 95.175 328.165 93.291L322.83 89.867L308.852 93.433C292.728 97.547 282.741 98.117 277 95.248C274.211 93.855 272.64 91.773 269.266 85C262.183 70.782 259 54.791 259 33.428V21L255.25 21.024C253.188 21.037 248.86 22.133 245.634 23.459ZM361.686 112.174C365.894 116.128 363.935 123.25 358.639 123.25C352.923 123.25 349.798 116.09 353.655 111.829C355.861 109.391 358.86 109.52 361.686 112.174ZM347.255 131.75C350.171 135.011 349.864 139.388 346.567 141.548C344.57 142.856 343.719 142.923 341.817 141.921C340.543 141.25 339.169 140.205 338.765 139.6C337.604 137.861 337.881 132.519 339.2 131.2C340.966 129.434 345.458 129.74 347.255 131.75ZM231.066 162.035C233.586 163.384 233.605 168.142 231.101 170.409C228.826 172.467 223.67 172.801 221.535 171.029C219.181 169.075 219.691 165.388 222.635 163.073C225.545 160.783 228.132 160.465 231.066 162.035ZM264.205 254.938C257.617 258.013 245 267.069 245 268.724C245 269.534 246.35 271.459 248 273C253.037 277.705 251.357 286 245.366 286C243.681 286 243.199 287.134 242.095 293.706C240.419 303.683 236.017 318.431 231.563 328.99C229.621 333.596 228.155 337.488 228.306 337.64C228.458 337.791 233.063 337.414 238.541 336.802C252.166 335.28 292.078 335.295 305.5 336.827C316.658 338.1 330.535 340.292 339.348 342.173L344.196 343.208L343.55 347.514C342.914 351.754 342.955 351.831 346.202 352.53C348.016 352.92 358.275 356.07 369 359.53C393.056 367.29 398.407 368.363 410.205 367.794C423.744 367.142 428.993 364.29 439.281 352L443.048 347.5L438.922 354.5C433.687 363.38 429.756 367.537 423.638 370.663C411.79 376.717 399.525 375.83 372.5 366.965C352.354 360.357 344.275 358.103 329 354.828C319.656 352.824 315.747 352.581 293.5 352.616C271.524 352.65 266.323 352.983 250.5 355.369C231.122 358.291 199.447 364.345 178.5 369.13C148.428 376 134.781 377.571 119.128 375.965C86.479 372.615 66.342 356.265 56.603 325.198C55.171 320.632 54 315.052 54 312.798V308.7L59.808 317.945C63.002 323.03 68.5 330.372 72.026 334.262C77.289 340.069 79.891 342.016 86.574 345.148C106.435 354.455 131.753 356.227 160.952 350.354C184.289 345.66 210.507 322.641 232.431 287.597C235.494 282.701 238 277.664 238 276.404C238 275.144 238.815 273.525 239.811 272.807C240.807 272.088 241.999 270.872 242.46 270.105C242.92 269.338 238.393 272.623 232.398 277.405C189.354 311.746 164.792 327.752 144 335.008C135.907 337.832 118.948 338.837 109.743 337.037C89.079 332.996 69.86 320.04 57.817 302.034C50.533 291.144 42.847 282.522 41.913 284.192C40.488 286.737 38.918 301.905 39.532 307.201C41.395 323.295 45.014 335.239 52.955 351.5C58.241 362.326 71.732 382.556 75.796 385.752C76.672 386.441 80.788 388.314 84.944 389.914C107.245 398.501 134.319 398.364 170.49 389.479C199.589 382.332 237.839 377.841 269.5 377.855C309.685 377.872 337.81 382.683 378.5 396.502C387.3 399.49 397.792 402.625 401.815 403.468C410.692 405.327 425.536 405.458 429 403.707C432.858 401.757 442.292 387.891 449.697 373.287L456.396 360.074L456.443 349.287C456.492 337.794 454.799 330.556 450.901 325.601L448.924 323.088L443.712 327.086C428.681 338.614 406.414 344.305 390.757 340.619C383.315 338.867 373.262 334.119 363.123 327.567C359.48 325.213 354.222 321.88 351.439 320.16C348.655 318.441 343.705 314.272 340.439 310.897C337.172 307.522 328.425 298.808 321 291.533C284.169 255.448 275.324 249.749 264.205 254.938ZM302 276C304.391 278.391 304.534 281.067 302.482 285.035C300.577 288.719 296.839 289.78 293.493 287.587C290.067 285.342 290.048 279.861 293.455 276.455C296.43 273.479 299.325 273.325 302 276Z" fill="#1BA12D"/>
<path fill-rule="evenodd" clip-rule="evenodd" d="M254.813 20.683C255.534 20.972 256.397 20.936 256.729 20.604C257.061 20.272 256.471 20.036 255.417 20.079C254.252 20.127 254.015 20.364 254.813 20.683ZM259.136 37.261C260.012 61.001 263.594 76.099 271.582 89.73C276.563 98.23 286.286 99.211 308.669 93.475C316.235 91.536 323.117 90.187 323.962 90.477C324.808 90.767 324.15 90.008 322.5 88.789C318.871 86.109 307.68 75.535 300.497 68C292.805 59.931 285.386 50.905 276.25 38.5C266.286 24.971 263.075 21.319 260.5 20.588C258.538 20.032 258.512 20.35 259.136 37.261ZM220.405 40.25L218.5 42.5L220.75 40.595C222.864 38.805 223.455 38 222.655 38C222.465 38 221.453 39.013 220.405 40.25ZM211.437 49.25L208.5 52.5L211.75 49.563C214.779 46.825 215.46 46 214.687 46C214.515 46 213.052 47.462 211.437 49.25ZM200.872 60.75C199.629 62.336 199.664 62.371 201.25 61.128C202.916 59.821 203.445 59 202.622 59C202.415 59 201.627 59.788 200.872 60.75ZM189.543 73.931C189.226 74.443 189.35 75.098 189.817 75.387C190.284 75.676 190.667 75.257 190.667 74.456C190.667 72.77 190.351 72.623 189.543 73.931ZM202 84.5C203.292 85.875 204.574 87 204.849 87C205.124 87 204.292 85.875 203 84.5C201.708 83.125 200.426 82 200.151 82C199.876 82 200.708 83.125 202 84.5ZM123.872 103.75C122.629 105.336 122.664 105.371 124.25 104.128C125.916 102.821 126.445 102 125.622 102C125.415 102 124.627 102.787 123.872 103.75ZM340.437 109.25L337.5 112.5L340.75 109.563C342.538 107.948 344 106.485 344 106.313C344 105.54 343.175 106.221 340.437 109.25ZM112.501 118.885C109.44 123.496 107.106 127.44 107.314 127.648C107.523 127.856 109.225 127.387 111.096 126.605C121.945 122.074 149.451 119.716 160 122.413C170.979 125.22 182.746 133.574 190.438 144.023C194.86 150.03 205.827 160.506 206.738 159.595C207.773 158.56 198.288 140.524 193.884 135.152C185.549 124.984 172.397 116.843 158.742 113.399C155.073 112.473 145.404 111.551 135.283 111.162L118.065 110.5L112.501 118.885ZM353.655 111.829C349.798 116.09 352.923 123.25 358.639 123.25C363.935 123.25 365.894 116.128 361.686 112.174C358.86 109.52 355.861 109.391 353.655 111.829ZM390.5 112.807C388.85 113.588 382.55 117.297 376.5 121.047C365.111 128.108 358.269 134.361 351.089 144.269L346.908 150.039L352.044 146.152C358.774 141.058 370.012 135.485 377.46 133.549C384.458 131.73 390.432 131.593 398.414 133.069C401.594 133.657 404.33 133.994 404.494 133.819C404.658 133.643 402.252 128.524 399.146 122.443L393.5 111.386L390.5 112.807ZM339.2 131.2C337.881 132.519 337.604 137.861 338.765 139.6C339.169 140.205 340.543 141.25 341.817 141.921C343.719 142.923 344.57 142.856 346.567 141.548C351.547 138.285 349.02 130 343.045 130C341.59 130 339.86 130.54 339.2 131.2ZM217.655 142.829C213.797 147.092 216.858 154 222.605 154C225.581 154 226.294 153.531 227.434 150.82C229.784 145.231 227.01 141.066 220.905 141.014C220.028 141.006 218.565 141.823 217.655 142.829ZM230.079 144.583C230.127 145.748 230.364 145.985 230.683 145.188C230.972 144.466 230.936 143.603 230.604 143.271C230.272 142.939 230.036 143.529 230.079 144.583ZM331.75 151.08C329.575 152.347 329.44 157.291 331.533 159.028C332.892 160.155 332.806 160.591 330.783 162.852C329.527 164.255 331.492 162.725 335.149 159.452C340.557 154.612 341.624 153.173 340.864 151.75C339.818 149.79 334.621 149.408 331.75 151.08ZM222.635 163.073C217.824 166.857 219.943 172.391 226.135 172.215C234.575 171.975 235.618 161 227.201 161C226.139 161 224.084 161.933 222.635 163.073ZM320.437 172.25L317.5 175.5L320.75 172.563C323.779 169.825 324.46 169 323.687 169C323.515 169 322.052 170.463 320.437 172.25ZM229.431 182.23C238.094 190.57 238.515 190.841 238.836 188.28C239.227 185.153 236.884 183 233.09 183C231.458 183 228.757 181.318 225.462 178.25C222.657 175.637 224.443 177.429 229.431 182.23ZM303.453 188.25L299.5 192.5L303.75 188.547C307.702 184.871 308.46 184 307.703 184C307.54 184 305.627 185.912 303.453 188.25ZM243 195.378C243 195.585 243.787 196.373 244.75 197.128C246.336 198.371 246.371 198.336 245.128 196.75C243.821 195.084 243 194.555 243 195.378ZM291.405 199.25L289.5 201.5L291.75 199.595C293.864 197.805 294.455 197 293.655 197C293.465 197 292.453 198.012 291.405 199.25ZM268.75 212.662C269.438 212.94 270.563 212.94 271.25 212.662C271.938 212.385 271.375 212.158 270 212.158C268.625 212.158 268.063 212.385 268.75 212.662ZM291 263.378C291 263.585 291.788 264.373 292.75 265.128C294.336 266.371 294.371 266.336 293.128 264.75C291.821 263.084 291 262.555 291 263.378ZM298 269.313C298 269.485 299.462 270.948 301.25 272.563L304.5 275.5L301.563 272.25C298.825 269.221 298 268.54 298 269.313ZM239.333 272.456C239.333 273.257 239.716 273.676 240.183 273.387C240.65 273.098 240.774 272.443 240.457 271.931C239.649 270.623 239.333 270.77 239.333 272.456ZM296.75 274.662C297.438 274.94 298.563 274.94 299.25 274.662C299.938 274.385 299.375 274.158 298 274.158C296.625 274.158 296.063 274.385 296.75 274.662ZM292.872 276.75C291.629 278.336 291.664 278.371 293.25 277.128C294.212 276.373 295 275.585 295 275.378C295 274.555 294.179 275.084 292.872 276.75ZM42.651 280.205C41.755 282.488 41.242 284.575 41.511 284.844C41.78 285.113 42.018 284.696 42.039 283.917C42.06 283.137 44.545 285.2 47.559 288.5L53.041 294.5L49.52 287.028C47.584 282.919 46 279.008 46 278.337C46 275.373 44.143 276.409 42.651 280.205ZM219.872 286.75C218.629 288.336 218.664 288.371 220.25 287.128C221.213 286.373 222 285.585 222 285.378C222 284.555 221.179 285.084 219.872 286.75ZM295.75 288.662C296.438 288.94 297.563 288.94 298.25 288.662C298.938 288.385 298.375 288.158 297 288.158C295.625 288.158 295.063 288.385 295.75 288.662ZM323 293.5C325.987 296.525 328.657 299 328.932 299C329.207 299 326.987 296.525 324 293.5C321.013 290.475 318.343 288 318.068 288C317.793 288 320.013 290.475 323 293.5ZM39.079 294.583C39.127 295.748 39.364 295.985 39.683 295.188C39.972 294.466 39.936 293.603 39.604 293.271C39.272 292.939 39.036 293.529 39.079 294.583ZM337 307.548C341.639 312.859 348.548 318.637 354.041 321.798C359.551 324.97 359.314 324.699 350 317.187C345.875 313.86 340.475 309.429 338 307.34L333.5 303.542L337 307.548ZM39.158 310C39.158 311.375 39.385 311.938 39.662 311.25C39.94 310.563 39.94 309.438 39.662 308.75C39.385 308.063 39.158 308.625 39.158 310ZM63 309.378C63 309.585 63.788 310.373 64.75 311.128C66.336 312.371 66.371 312.336 65.128 310.75C63.821 309.084 63 308.555 63 309.378ZM71.5 318C72.495 319.1 73.535 320 73.81 320C74.085 320 73.495 319.1 72.5 318C71.505 316.9 70.465 316 70.19 316C69.915 316 70.505 316.9 71.5 318ZM113.813 337.683C114.534 337.972 115.397 337.936 115.729 337.604C116.061 337.272 115.471 337.036 114.417 337.079C113.252 337.127 113.015 337.364 113.813 337.683ZM131.813 337.683C132.534 337.972 133.397 337.936 133.729 337.604C134.061 337.272 133.471 337.036 132.417 337.079C131.252 337.127 131.015 337.364 131.813 337.683ZM411.813 340.683C412.534 340.972 413.397 340.936 413.729 340.604C414.061 340.272 413.471 340.036 412.417 340.079C411.252 340.127 411.015 340.364 411.813 340.683ZM398.264 341.718C399.784 341.947 402.034 341.941 403.264 341.704C404.494 341.467 403.25 341.279 400.5 341.286C397.75 341.294 396.744 341.488 398.264 341.718ZM440.459 350.067C440.096 350.653 440.014 351.348 440.276 351.61C440.538 351.872 441.019 351.392 441.345 350.543C442.021 348.781 441.445 348.471 440.459 350.067ZM436.543 354.931C436.226 355.443 436.35 356.098 436.817 356.387C437.284 356.676 437.667 356.257 437.667 355.456C437.667 353.77 437.351 353.623 436.543 354.931ZM456.079 356.583C456.127 357.748 456.364 357.985 456.683 357.188C456.972 356.466 456.936 355.603 456.604 355.271C456.272 354.939 456.036 355.529 456.079 356.583ZM401.75 368.662C402.438 368.94 403.563 368.94 404.25 368.662C404.938 368.385 404.375 368.158 403 368.158C401.625 368.158 401.063 368.385 401.75 368.662ZM405.813 374.683C406.534 374.972 407.397 374.936 407.729 374.604C408.061 374.272 407.471 374.036 406.417 374.079C405.252 374.127 405.015 374.364 405.813 374.683ZM251 378.092C226.316 379.259 193.124 383.963 170.397 389.515C151.421 394.152 137.326 396.096 122.5 396.122C106.306 396.15 96.585 394.488 84.288 389.587C79.771 387.787 76.358 386.806 76.703 387.407C78.765 391.003 92.563 406.213 103.155 416.566C137.678 450.309 178.02 474.046 214.148 481.873C271.497 494.298 342.719 476.785 394.998 437.404C405.837 429.24 419.617 416.624 425.92 409.096L429.859 404.391L420.763 404.826C408.467 405.414 400.847 403.902 378.5 396.445C332.161 380.981 296.989 375.918 251 378.092Z" fill="#005303"/>
<path fill-rule="evenodd" clip-rule="evenodd" d="M224 0.626043C147.689 9.56804 82.769 49.162 40.564 112.5C26.522 133.573 11.935 167.309 6.189 192C1.131 213.732 0.5 220.165 0.5 250C0.5 279.847 1.138 286.347 6.196 308C20.46 369.074 58.666 423.505 112.5 459.449C133.334 473.36 163.637 486.646 188.83 492.915C212.454 498.793 219.019 499.5 250 499.5C280.461 499.5 287.422 498.783 309.5 493.369C370.916 478.308 423.699 441.042 459.449 387.5C473.348 366.685 486.227 337.327 492.792 311.5C498.752 288.049 499.5 281.192 499.5 250C499.5 219.539 498.783 212.576 493.369 190.5C482.499 146.177 459.985 106.01 428.028 73.926C390.46 36.21 343.982 12.01 291.5 2.83904C281.787 1.14204 274.546 0.692043 253.5 0.479043C239.2 0.334043 225.925 0.400043 224 0.626043ZM265.319 5.03604C266.742 6.15604 269.193 8.96804 270.765 11.286C304.777 61.425 306.353 63.534 319.912 77.067C328.218 85.357 332.098 88.431 337.912 91.331C344.728 94.73 345.493 94.907 347.412 93.528C351.748 90.411 361.763 84.994 366.048 83.447C372.656 81.061 383.486 81.159 389 83.654C394.221 86.017 399.378 90.95 402.054 96.144C403.087 98.148 407.082 108.445 410.933 119.027C414.783 129.609 418.061 138.347 418.216 138.446C418.372 138.545 422.098 140.623 426.495 143.063C437.296 149.057 454.352 165.998 461.781 178.111C467.893 188.077 473.198 200.546 476.019 211.572C485.038 246.838 477.529 288.565 457.744 313.122L452.988 319.025L455.455 322.762C461.541 331.982 463.638 344.02 461.57 357.854C459.711 370.288 456.705 378.264 449.479 389.947C425.928 428.02 393.392 455.086 346.732 475.422C298.799 496.313 254.704 501.924 209.5 492.885C155.113 482.01 105.548 444.819 59.056 380C32.251 342.629 24.667 302.393 39.056 273.89L42.248 267.567L40.624 258.476C38.514 246.661 38.488 224.919 40.572 213.934C45.396 188.506 56.792 166.879 74.526 149.5C79.016 145.1 85.865 139.475 89.747 137C96.299 132.821 97.054 131.964 100.316 124.99C106.127 112.565 115.454 99.407 125.832 88.993C133.644 81.153 137.065 78.515 143.652 75.252C154.411 69.923 163.522 68.326 173.752 69.976C177.859 70.639 181.563 70.803 181.983 70.34C182.404 69.878 189.631 61.2 198.045 51.056C215.893 29.538 226.862 18.357 236.758 11.595C248.746 3.40504 259.968 0.827042 265.319 5.03604ZM166.079 231.583C166.127 232.748 166.364 232.985 166.683 232.188C166.972 231.466 166.936 230.603 166.604 230.271C166.272 229.939 166.036 230.529 166.079 231.583ZM461.079 258.583C461.127 259.748 461.364 259.985 461.683 259.188C461.972 258.466 461.936 257.603 461.604 257.271C461.272 256.939 461.036 257.529 461.079 258.583ZM243 269.5C241.98 270.729 242.049 271 243.378 271C244.27 271 245 270.325 245 269.5C245 268.675 244.83 268 244.622 268C244.415 268 243.685 268.675 243 269.5ZM232.669 287.186C220.83 306.653 202.428 327.674 188.799 337.299C174.363 347.494 165.271 350.586 142.452 353.059C122.924 355.176 103.053 352.599 88.274 346.032C81.728 343.123 81.601 343.106 84.5 345.508C88.89 349.146 100.406 354.572 109 357.053C114.533 358.65 120.314 359.351 131.04 359.727C146.922 360.283 159.473 358.851 177 354.486C188.446 351.635 210.76 347.666 228.5 345.325C238.104 344.057 248.945 343.601 270 343.578C299.741 343.545 310.442 344.5 331.453 349.058C336.377 350.126 340.97 351 341.658 351C342.879 351 344.715 344.381 343.759 343.426C342.886 342.553 322.764 338.952 309.518 337.299C294.054 335.369 253.711 335.08 238.541 336.791C233.063 337.409 228.458 337.791 228.306 337.64C228.155 337.488 229.621 333.596 231.563 328.99C235.845 318.838 240.296 304.07 242.04 294.226C243.319 287.009 243.309 286.931 240.789 284.226C239.392 282.727 238.081 280.992 237.875 280.371C237.669 279.75 235.326 282.817 232.669 287.186ZM54 314.206C54 315.686 55.171 320.632 56.603 325.198C66.342 356.265 86.479 372.615 119.128 375.965C134.781 377.571 148.428 376 178.5 369.13C223.239 358.909 259.799 353.219 287 352.242C311.276 351.37 304.447 350.26 274 350.128C243.894 349.998 211.921 353.782 181 361.134C163.1 365.39 151.205 366.989 137.5 366.981C102.107 366.96 77.818 352.365 58.75 319.663C54.946 313.138 54 312.052 54 314.206ZM311.813 352.683C312.534 352.972 313.397 352.936 313.729 352.604C314.061 352.272 313.471 352.036 312.417 352.079C311.252 352.127 311.015 352.364 311.813 352.683Z" fill="#97CE53"/>
<path fill-rule="evenodd" clip-rule="evenodd" d="M255.813 3.68303C256.534 3.97203 257.397 3.93603 257.729 3.60403C258.061 3.27203 257.471 3.03603 256.417 3.07903C255.252 3.12703 255.015 3.36403 255.813 3.68303ZM229.872 16.75C228.629 18.336 228.664 18.371 230.25 17.128C231.916 15.821 232.445 15 231.622 15C231.415 15 230.627 15.787 229.872 16.75ZM210.924 35.75L208.5 38.5L211.25 36.076C213.82 33.81 214.459 33 213.674 33C213.495 33 212.258 34.237 210.924 35.75ZM203.872 43.75C202.629 45.336 202.664 45.371 204.25 44.128C205.916 42.821 206.445 42 205.622 42C205.415 42 204.627 42.788 203.872 43.75ZM198.872 49.75C197.629 51.336 197.664 51.371 199.25 50.128C200.213 49.373 201 48.585 201 48.378C201 47.555 200.179 48.084 198.872 49.75ZM193.872 55.75C192.629 57.336 192.664 57.371 194.25 56.128C195.916 54.821 196.445 54 195.622 54C195.415 54 194.627 54.788 193.872 55.75ZM189.872 60.75C188.629 62.336 188.664 62.371 190.25 61.128C191.916 59.821 192.445 59 191.622 59C191.415 59 190.627 59.788 189.872 60.75ZM307 64.378C307 64.585 307.788 65.373 308.75 66.128C310.336 67.371 310.371 67.336 309.128 65.75C307.821 64.084 307 63.555 307 64.378ZM184.872 66.75C183.629 68.336 183.664 68.371 185.25 67.128C186.213 66.373 187 65.585 187 65.378C187 64.555 186.179 65.084 184.872 66.75ZM164.762 69.707C166.006 69.946 167.806 69.937 168.762 69.687C169.718 69.437 168.7 69.241 166.5 69.252C164.3 69.263 163.518 69.468 164.762 69.707ZM156.813 70.683C157.534 70.972 158.397 70.936 158.729 70.604C159.061 70.272 158.471 70.036 157.417 70.079C156.252 70.127 156.015 70.364 156.813 70.683ZM174.813 70.683C175.534 70.972 176.397 70.936 176.729 70.604C177.061 70.272 176.471 70.036 175.417 70.079C174.252 70.127 174.015 70.364 174.813 70.683ZM313.5 72C314.495 73.1 315.535 74 315.81 74C316.085 74 315.495 73.1 314.5 72C313.505 70.9 312.465 70 312.19 70C311.915 70 312.505 70.9 313.5 72ZM179.813 71.683C180.534 71.972 181.397 71.936 181.729 71.604C182.061 71.272 181.471 71.036 180.417 71.079C179.252 71.127 179.015 71.364 179.813 71.683ZM323 81.5C324.292 82.875 325.574 84 325.849 84C326.124 84 325.292 82.875 324 81.5C322.708 80.125 321.426 79 321.151 79C320.876 79 321.708 80.125 323 81.5ZM120.405 94.25L118.5 96.5L120.75 94.595C121.987 93.547 123 92.535 123 92.345C123 91.545 122.195 92.136 120.405 94.25ZM81.872 142.75C80.629 144.336 80.664 144.371 82.25 143.128C83.213 142.373 84 141.585 84 141.378C84 140.555 83.179 141.084 81.872 142.75ZM71.924 151.75L69.5 154.5L72.25 152.076C74.82 149.81 75.459 149 74.674 149C74.495 149 73.258 150.238 71.924 151.75ZM439.5 153C440.495 154.1 441.535 155 441.81 155C442.085 155 441.495 154.1 440.5 153C439.505 151.9 438.465 151 438.19 151C437.915 151 438.505 151.9 439.5 153ZM450 163.378C450 163.585 450.788 164.373 451.75 165.128C453.336 166.371 453.371 166.336 452.128 164.75C450.821 163.084 450 162.555 450 163.378ZM217 170.378C217 170.585 217.787 171.373 218.75 172.128C220.336 173.371 220.371 173.336 219.128 171.75C217.821 170.084 217 169.555 217 170.378ZM398.25 176.716C399.762 176.945 402.238 176.945 403.75 176.716C405.262 176.487 404.025 176.3 401 176.3C397.975 176.3 396.738 176.487 398.25 176.716ZM150 193.378C150 193.585 150.787 194.373 151.75 195.128C153.336 196.371 153.371 196.336 152.128 194.75C150.821 193.084 150 192.555 150 193.378ZM103.924 196.75L101.5 199.5L104.25 197.076C106.82 194.81 107.459 194 106.674 194C106.495 194 105.258 195.238 103.924 196.75ZM154 197.378C154 197.585 154.787 198.373 155.75 199.128C157.336 200.371 157.371 200.336 156.128 198.75C154.821 197.084 154 196.555 154 197.378ZM380.872 200.75C379.629 202.336 379.664 202.371 381.25 201.128C382.212 200.373 383 199.585 383 199.378C383 198.555 382.179 199.084 380.872 200.75ZM427 201.378C427 201.585 427.788 202.373 428.75 203.128C430.336 204.371 430.371 204.336 429.128 202.75C427.821 201.084 427 200.555 427 201.378ZM40.079 215.583C40.127 216.748 40.364 216.985 40.683 216.188C40.972 215.466 40.936 214.603 40.604 214.271C40.272 213.939 40.036 214.529 40.079 215.583ZM39.158 223C39.158 224.375 39.385 224.938 39.662 224.25C39.94 223.563 39.94 222.438 39.662 221.75C39.385 221.063 39.158 221.625 39.158 223ZM185.32 229C185.32 232.575 185.502 234.037 185.723 232.25C185.945 230.463 185.945 227.537 185.723 225.75C185.502 223.963 185.32 225.425 185.32 229ZM478.079 225.583C478.127 226.748 478.364 226.985 478.683 226.188C478.972 225.466 478.936 224.603 478.604 224.271C478.272 223.939 478.036 224.529 478.079 225.583ZM130.813 225.683C131.534 225.972 132.397 225.936 132.729 225.604C133.061 225.272 132.471 225.036 131.417 225.079C130.252 225.127 130.015 225.364 130.813 225.683ZM92.079 234.583C92.127 235.748 92.364 235.985 92.683 235.188C92.972 234.466 92.936 233.603 92.604 233.271C92.272 232.939 92.036 233.529 92.079 234.583ZM479.36 242C479.36 247.225 479.529 249.363 479.735 246.75C479.941 244.137 479.941 239.863 479.735 237.25C479.529 234.637 479.36 236.775 479.36 242ZM39.195 248.5C39.215 250.15 39.439 250.704 39.693 249.731C39.947 248.758 39.93 247.408 39.656 246.731C39.382 246.054 39.175 246.85 39.195 248.5ZM40.079 256.583C40.127 257.748 40.364 257.985 40.683 257.188C40.972 256.466 40.936 255.603 40.604 255.271C40.272 254.939 40.036 255.529 40.079 256.583ZM478.079 259.583C478.127 260.748 478.364 260.985 478.683 260.188C478.972 259.466 478.936 258.603 478.604 258.271C478.272 257.939 478.036 258.529 478.079 259.583ZM152.405 261.25L150.5 263.5L152.75 261.595C153.988 260.547 155 259.535 155 259.345C155 258.545 154.195 259.136 152.405 261.25ZM377.5 265C378.495 266.1 379.535 267 379.81 267C380.085 267 379.495 266.1 378.5 265C377.505 263.9 376.465 263 376.19 263C375.915 263 376.505 263.9 377.5 265ZM242.75 271.662C243.438 271.94 244.563 271.94 245.25 271.662C245.938 271.385 245.375 271.158 244 271.158C242.625 271.158 242.063 271.385 242.75 271.662ZM365 278.378C365 278.585 365.788 279.373 366.75 280.128C368.336 281.371 368.371 281.336 367.128 279.75C365.821 278.084 365 277.555 365 278.378ZM74 282.5C75.292 283.875 76.574 285 76.849 285C77.124 285 76.292 283.875 75 282.5C73.708 281.125 72.426 280 72.151 280C71.876 280 72.708 281.125 74 282.5ZM32.158 298C32.158 299.375 32.385 299.938 32.662 299.25C32.94 298.563 32.94 297.438 32.662 296.75C32.385 296.063 32.158 296.625 32.158 298ZM104.75 296.662C105.438 296.94 106.563 296.94 107.25 296.662C107.938 296.385 107.375 296.158 106 296.158C104.625 296.158 104.063 296.385 104.75 296.662ZM116.813 296.683C117.534 296.972 118.397 296.936 118.729 296.604C119.061 296.272 118.471 296.036 117.417 296.079C116.252 296.127 116.015 296.364 116.813 296.683ZM424.75 310.662C425.438 310.94 426.563 310.94 427.25 310.662C427.938 310.385 427.375 310.158 426 310.158C424.625 310.158 424.063 310.385 424.75 310.662ZM430.813 310.683C431.534 310.972 432.397 310.936 432.729 310.604C433.061 310.272 432.471 310.036 431.417 310.079C430.252 310.127 430.015 310.364 430.813 310.683ZM32.195 314.5C32.215 316.15 32.439 316.704 32.693 315.731C32.947 314.758 32.93 313.408 32.656 312.731C32.382 312.054 32.175 312.85 32.195 314.5ZM455.872 314.75C454.629 316.336 454.664 316.371 456.25 315.128C457.916 313.821 458.445 313 457.622 313C457.415 313 456.627 313.788 455.872 314.75ZM33.079 322.583C33.127 323.748 33.364 323.985 33.683 323.188C33.972 322.466 33.936 321.603 33.604 321.271C33.272 320.939 33.036 321.529 33.079 322.583ZM69 335.378C69 335.585 69.787 336.373 70.75 337.128C72.336 338.371 72.371 338.336 71.128 336.75C69.821 335.084 69 334.555 69 335.378ZM461.079 339.583C461.127 340.748 461.364 340.985 461.683 340.188C461.972 339.466 461.936 338.603 461.604 338.271C461.272 337.939 461.036 338.529 461.079 339.583ZM253.264 343.718C254.784 343.947 257.034 343.941 258.264 343.704C259.494 343.467 258.25 343.279 255.5 343.286C252.75 343.294 251.744 343.488 253.264 343.718ZM283.75 343.706C284.988 343.944 287.012 343.944 288.25 343.706C289.488 343.467 288.475 343.272 286 343.272C283.525 343.272 282.512 343.467 283.75 343.706ZM239.25 344.689C240.213 344.941 241.787 344.941 242.75 344.689C243.713 344.438 242.925 344.232 241 344.232C239.075 344.232 238.287 344.438 239.25 344.689ZM298.269 344.693C299.242 344.947 300.592 344.93 301.269 344.656C301.946 344.382 301.15 344.175 299.5 344.195C297.85 344.215 297.296 344.439 298.269 344.693ZM229.813 345.683C230.534 345.972 231.397 345.936 231.729 345.604C232.061 345.272 231.471 345.036 230.417 345.079C229.252 345.127 229.015 345.364 229.813 345.683ZM307.813 345.683C308.534 345.972 309.397 345.936 309.729 345.604C310.061 345.272 309.471 345.036 308.417 345.079C307.252 345.127 307.015 345.364 307.813 345.683ZM221.813 346.683C222.534 346.972 223.397 346.936 223.729 346.604C224.061 346.272 223.471 346.036 222.417 346.079C221.252 346.127 221.015 346.364 221.813 346.683ZM214.813 347.683C215.534 347.972 216.397 347.936 216.729 347.604C217.061 347.272 216.471 347.036 215.417 347.079C214.252 347.127 214.015 347.364 214.813 347.683ZM82 348.378C82 348.585 82.787 349.373 83.75 350.128C85.336 351.371 85.371 351.336 84.128 349.75C82.821 348.084 82 347.555 82 348.378ZM207.813 348.683C208.534 348.972 209.397 348.936 209.729 348.604C210.061 348.272 209.471 348.036 208.417 348.079C207.252 348.127 207.015 348.364 207.813 348.683ZM266.206 349.741C269.895 349.932 276.195 349.934 280.206 349.743C284.218 349.553 281.2 349.396 273.5 349.395C265.8 349.393 262.518 349.549 266.206 349.741ZM245.269 350.693C246.242 350.947 247.592 350.93 248.269 350.656C248.946 350.382 248.15 350.175 246.5 350.195C244.85 350.215 244.296 350.439 245.269 350.693ZM298.269 350.693C299.242 350.947 300.592 350.93 301.269 350.656C301.946 350.382 301.15 350.175 299.5 350.195C297.85 350.215 297.296 350.439 298.269 350.693ZM233.75 351.662C234.438 351.94 235.563 351.94 236.25 351.662C236.938 351.385 236.375 351.158 235 351.158C233.625 351.158 233.063 351.385 233.75 351.662ZM308.813 351.683C309.534 351.972 310.397 351.936 310.729 351.604C311.061 351.272 310.471 351.036 309.417 351.079C308.252 351.127 308.015 351.364 308.813 351.683ZM225.813 352.683C226.534 352.972 227.397 352.936 227.729 352.604C228.061 352.272 227.471 352.036 226.417 352.079C225.252 352.127 225.015 352.364 225.813 352.683ZM315.813 352.683C316.534 352.972 317.397 352.936 317.729 352.604C318.061 352.272 317.471 352.036 316.417 352.079C315.252 352.127 315.015 352.364 315.813 352.683ZM218.813 353.683C219.534 353.972 220.397 353.936 220.729 353.604C221.061 353.272 220.471 353.036 219.417 353.079C218.252 353.127 218.015 353.364 218.813 353.683ZM321.813 353.683C322.534 353.972 323.397 353.936 323.729 353.604C324.061 353.272 323.471 353.036 322.417 353.079C321.252 353.127 321.015 353.364 321.813 353.683ZM205.813 355.683C206.534 355.972 207.397 355.936 207.729 355.604C208.061 355.272 207.471 355.036 206.417 355.079C205.252 355.127 205.015 355.364 205.813 355.683ZM461.079 357.583C461.127 358.748 461.364 358.985 461.683 358.188C461.972 357.466 461.936 356.603 461.604 356.271C461.272 355.939 461.036 356.529 461.079 357.583ZM158.813 358.683C159.534 358.972 160.397 358.936 160.729 358.604C161.061 358.272 160.471 358.036 159.417 358.079C158.252 358.127 158.015 358.364 158.813 358.683ZM117.813 359.683C118.534 359.972 119.397 359.936 119.729 359.604C120.061 359.272 119.471 359.036 118.417 359.079C117.252 359.127 117.015 359.364 117.813 359.683ZM151.813 359.683C152.534 359.972 153.397 359.936 153.729 359.604C154.061 359.272 153.471 359.036 152.417 359.079C151.252 359.127 151.015 359.364 151.813 359.683ZM126.762 360.707C128.006 360.946 129.806 360.937 130.762 360.687C131.718 360.437 130.7 360.241 128.5 360.252C126.3 360.263 125.518 360.468 126.762 360.707ZM139.75 360.706C140.988 360.944 143.012 360.944 144.25 360.706C145.488 360.467 144.475 360.272 142 360.272C139.525 360.272 138.512 360.467 139.75 360.706ZM162.813 364.683C163.534 364.972 164.397 364.936 164.729 364.604C165.061 364.272 164.471 364.036 163.417 364.079C162.252 364.127 162.015 364.364 162.813 364.683ZM118.813 365.683C119.534 365.972 120.397 365.936 120.729 365.604C121.061 365.272 120.471 365.036 119.417 365.079C118.252 365.127 118.015 365.364 118.813 365.683ZM156.813 365.683C157.534 365.972 158.397 365.936 158.729 365.604C159.061 365.272 158.471 365.036 157.417 365.079C156.252 365.127 156.015 365.364 156.813 365.683ZM126.269 366.693C127.242 366.947 128.592 366.93 129.269 366.656C129.946 366.382 129.15 366.175 127.5 366.195C125.85 366.215 125.296 366.439 126.269 366.693ZM146.25 366.689C147.213 366.941 148.787 366.941 149.75 366.689C150.713 366.438 149.925 366.232 148 366.232C146.075 366.232 145.287 366.438 146.25 366.689ZM406.25 368.689C407.212 368.941 408.788 368.941 409.75 368.689C410.712 368.438 409.925 368.232 408 368.232C406.075 368.232 405.288 368.438 406.25 368.689ZM79 406.378C79 406.585 79.787 407.373 80.75 408.128C82.336 409.371 82.371 409.336 81.128 407.75C79.821 406.084 79 405.555 79 406.378ZM86.5 415C87.495 416.1 88.535 417 88.81 417C89.085 417 88.495 416.1 87.5 415C86.505 413.9 85.465 413 85.19 413C84.915 413 85.505 413.9 86.5 415ZM430.872 414.75C429.629 416.336 429.664 416.371 431.25 415.128C432.212 414.373 433 413.585 433 413.378C433 412.555 432.179 413.084 430.872 414.75ZM419.473 427.25L412.5 434.5L419.75 427.527C423.738 423.692 427 420.429 427 420.277C427 419.543 425.95 420.516 419.473 427.25ZM101 430.5C103.987 433.525 106.657 436 106.932 436C107.207 436 104.987 433.525 102 430.5C99.013 427.475 96.343 425 96.068 425C95.793 425 98.013 427.475 101 430.5ZM406.872 438.75C405.629 440.336 405.664 440.371 407.25 439.128C408.212 438.373 409 437.585 409 437.378C409 436.555 408.179 437.084 406.872 438.75ZM115.5 444C116.495 445.1 117.535 446 117.81 446C118.085 446 117.495 445.1 116.5 444C115.505 442.9 114.465 442 114.19 442C113.915 442 114.505 442.9 115.5 444ZM219.813 494.683C220.534 494.972 221.397 494.936 221.729 494.604C222.061 494.272 221.471 494.036 220.417 494.079C219.252 494.127 219.015 494.364 219.813 494.683ZM280.813 494.683C281.534 494.972 282.397 494.936 282.729 494.604C283.061 494.272 282.471 494.036 281.417 494.079C280.252 494.127 280.015 494.364 280.813 494.683ZM226.75 495.662C227.438 495.94 228.563 495.94 229.25 495.662C229.938 495.385 229.375 495.158 228 495.158C226.625 495.158 226.063 495.385 226.75 495.662ZM271.75 495.662C272.438 495.94 273.563 495.94 274.25 495.662C274.938 495.385 274.375 495.158 273 495.158C271.625 495.158 271.063 495.385 271.75 495.662ZM239.264 496.718C240.784 496.947 243.034 496.941 244.264 496.704C245.494 496.467 244.25 496.279 241.5 496.286C238.75 496.294 237.744 496.488 239.264 496.718ZM257.75 496.706C258.988 496.944 261.012 496.944 262.25 496.706C263.488 496.467 262.475 496.272 260 496.272C257.525 496.272 256.512 496.467 257.75 496.706Z" fill="#617A41"/>
<path fill-rule="evenodd" clip-rule="evenodd" d="M222.405 23.2501L220.5 25.5001L222.75 23.5951C223.988 22.5471 225 21.5351 225 21.3451C225 20.5451 224.195 21.1361 222.405 23.2501ZM217.872 27.7501C216.629 29.3361 216.664 29.3711 218.25 28.1281C219.916 26.8211 220.445 26.0001 219.622 26.0001C219.415 26.0001 218.627 26.7881 217.872 27.7501ZM377.269 81.6931C378.242 81.9471 379.592 81.93 380.269 81.656C380.946 81.382 380.15 81.175 378.5 81.195C376.85 81.215 376.296 81.4391 377.269 81.6931ZM84.453 181.25L80.5 185.5L84.75 181.547C88.702 177.871 89.46 177 88.703 177C88.54 177 86.627 178.912 84.453 181.25ZM162 178.378C162 178.585 162.787 179.373 163.75 180.128C165.336 181.371 165.371 181.336 164.128 179.75C162.821 178.084 162 177.555 162 178.378ZM126.75 185.706C127.987 185.944 130.012 185.944 131.25 185.706C132.488 185.467 131.475 185.272 129 185.272C126.525 185.272 125.513 185.467 126.75 185.706ZM439.5 193C441.648 195.2 443.631 197 443.906 197C444.181 197 442.648 195.2 440.5 193C438.352 190.8 436.369 189 436.094 189C435.819 189 437.352 190.8 439.5 193ZM402.25 191.689C403.212 191.941 404.788 191.941 405.75 191.689C406.712 191.438 405.925 191.232 404 191.232C402.075 191.232 401.288 191.438 402.25 191.689ZM440.079 226.583C440.127 227.748 440.364 227.985 440.683 227.188C440.972 226.466 440.936 225.603 440.604 225.271C440.272 224.939 440.036 225.529 440.079 226.583ZM166.158 228C166.158 229.375 166.385 229.938 166.662 229.25C166.94 228.563 166.94 227.438 166.662 226.75C166.385 226.063 166.158 226.625 166.158 228ZM349.3 231C349.3 234.025 349.487 235.262 349.716 233.75C349.945 232.238 349.945 229.762 349.716 228.25C349.487 226.738 349.3 227.975 349.3 231ZM366.195 234.5C366.215 236.15 366.439 236.704 366.693 235.731C366.947 234.758 366.93 233.408 366.656 232.731C366.382 232.054 366.175 232.85 366.195 234.5ZM59.158 235C59.158 236.375 59.385 236.938 59.662 236.25C59.94 235.563 59.94 234.438 59.662 233.75C59.385 233.063 59.158 233.625 59.158 235ZM130.813 234.683C131.534 234.972 132.397 234.936 132.729 234.604C133.061 234.272 132.471 234.036 131.417 234.079C130.252 234.127 130.015 234.364 130.813 234.683ZM440.079 242.583C440.127 243.748 440.364 243.985 440.683 243.188C440.972 242.466 440.936 241.603 440.604 241.271C440.272 240.939 440.036 241.529 440.079 242.583ZM461.158 244C461.158 245.375 461.385 245.938 461.662 245.25C461.94 244.563 461.94 243.438 461.662 242.75C461.385 242.063 461.158 242.625 461.158 244ZM59.079 249.583C59.127 250.748 59.364 250.985 59.683 250.188C59.972 249.466 59.936 248.603 59.604 248.271C59.272 247.939 59.036 248.529 59.079 249.583ZM101 257.378C101 257.585 101.787 258.373 102.75 259.128C104.336 260.371 104.371 260.336 103.128 258.75C101.821 257.084 101 256.555 101 257.378ZM461.079 261.583C461.127 262.748 461.364 262.985 461.683 262.188C461.972 261.466 461.936 260.603 461.604 260.271C461.272 259.939 461.036 260.529 461.079 261.583ZM105 261.378C105 261.585 105.787 262.373 106.75 263.128C108.336 264.371 108.371 264.336 107.128 262.75C105.821 261.084 105 260.555 105 261.378ZM429.872 264.75C428.629 266.336 428.664 266.371 430.25 265.128C431.212 264.373 432 263.585 432 263.378C432 262.555 431.179 263.084 429.872 264.75ZM402.25 277.689C403.212 277.941 404.788 277.941 405.75 277.689C406.712 277.438 405.925 277.232 404 277.232C402.075 277.232 401.288 277.438 402.25 277.689ZM370 283.5C371.292 284.875 372.574 286 372.849 286C373.124 286 372.292 284.875 371 283.5C369.708 282.125 368.426 281 368.151 281C367.876 281 368.708 282.125 370 283.5ZM109.75 296.706C110.987 296.944 113.013 296.944 114.25 296.706C115.487 296.467 114.475 296.272 112 296.272C109.525 296.272 108.513 296.467 109.75 296.706ZM76 343.5C77.292 344.875 78.574 346 78.849 346C79.124 346 78.292 344.875 77 343.5C75.708 342.125 74.426 341 74.151 341C73.876 341 74.708 342.125 76 343.5ZM462.232 348C462.232 349.925 462.438 350.712 462.689 349.75C462.941 348.788 462.941 347.212 462.689 346.25C462.438 345.288 462.232 346.075 462.232 348ZM133.25 360.689C134.213 360.941 135.787 360.941 136.75 360.689C137.713 360.438 136.925 360.232 135 360.232C133.075 360.232 132.287 360.438 133.25 360.689Z" fill="#989797"/>
<path fill-rule="evenodd" clip-rule="evenodd" d="M114.276 164.459C81.187 171.929 54.02 216.248 60.336 252.454C63.032 267.913 70.486 280.181 81.883 287.921C89.899 293.364 95.878 295.174 107.78 295.759C138.27 297.259 167.376 283.108 177.853 261.69C185.62 245.813 187.027 223.499 181.308 206.906C177.731 196.527 173.02 189.25 164.772 181.359C149.905 167.135 130.777 160.733 114.276 164.459ZM387.634 178.586C364.583 184.166 350.06 204.471 350.015 231.185C349.978 252.897 357.859 271.407 373.037 285.26C393.22 303.681 425.69 314.794 439.434 307.986C453.156 301.188 464.076 268.166 461.034 242.669C458.459 221.086 451.811 205.591 440.108 193.897C425.594 179.392 406.872 173.93 387.634 178.586ZM137.972 186.584C152.44 190.881 163.268 204.363 166.081 221.582C169.217 240.783 158.943 261.101 142.226 268.754C134.629 272.232 123.87 272.4 116.58 269.153C101.272 262.336 92 247.03 92 228.576C92 215.39 95.693 205.45 103.818 196.763C113.244 186.687 125.758 182.957 137.972 186.584ZM417.534 194.387C444.292 206.637 449.469 248.081 426.8 268.562C416.559 277.814 402.486 280.134 390.278 274.582C374.012 267.184 363.754 246.247 366.991 227.056C369.905 209.775 381.789 195.785 396.746 192.027C402.314 190.628 411.634 191.686 417.534 194.387ZM128.046 227.445C127.386 228.24 126.994 229.927 127.173 231.195C127.422 232.95 128.237 233.572 130.585 233.801C134.717 234.204 136.72 231.875 135.168 228.47C133.89 225.665 129.989 225.104 128.046 227.445ZM400.565 231.928C397.201 235.645 401.603 240.353 406.162 237.913C408.588 236.615 408.529 232.354 406.066 231.035C403.368 229.591 402.561 229.722 400.565 231.928Z" fill="#FEFEFE"/>
</svg>
