<?xml version="1.0" encoding="UTF-8"?>
<!-- Generated by Pixelmator Pro 3.3.8 -->
<svg width="500" height="500" viewBox="0 0 500 500" xmlns="http://www.w3.org/2000/svg">
    <g id="Group">
        <path id="Path-copy-4" fill="#e22440" stroke="none" d="M 328.243011 487.780365 L 274.714203 433.795074 C 259.512848 418.464569 234.933929 418.464569 219.893097 433.795074 L 166.366364 487.780365 C 150.679367 503.6008 125.129105 503.6008 109.442116 487.780365 L 83.568794 461.686096 L 165.557632 378.994873 C 210.675995 333.490875 283.770813 333.490875 328.88913 378.994873 L 410.87796 461.686096 L 385.004669 487.780365 C 369.480225 503.6008 344.090485 503.6008 328.243011 487.780365 Z"/>
        <path id="Path-copy-3" fill="#e22440" stroke="none" d="M 37.639629 415.200439 L 11.764616 389.106171 C -3.921539 373.285706 -3.921539 347.516663 11.764616 331.696289 L 65.292999 277.710999 C 80.494347 262.380432 80.494347 237.588898 65.292999 222.420837 L 11.764616 168.437714 C -3.921539 152.617249 -3.921539 126.848175 11.764616 111.02774 L 37.639629 84.931396 L 119.628448 167.620636 C 164.746811 213.124542 164.746811 286.844666 119.628448 332.348694 L 37.639629 415.200439 Z"/>
        <path id="Path-copy-2" fill="#e22440" stroke="none" d="M 248.027969 154.737061 C 218.434036 154.737061 188.840057 143.483551 166.362183 120.649231 L 84.373367 37.960052 L 110.246689 11.863678 C 125.933678 -3.954559 151.483917 -3.954559 167.170944 11.863678 L 220.697632 65.848999 C 235.736404 81.016968 260.47998 81.016968 275.518768 65.848999 L 329.045471 11.863678 C 344.732483 -3.954559 370.282715 -3.954559 385.969696 11.863678 L 411.843048 37.960052 L 329.854218 120.649231 C 307.213715 143.156281 277.621887 154.737061 248.027969 154.737061 Z"/>
        <path id="Path-copy" fill="#e22440" stroke="none" d="M 457.774292 414.55011 L 375.785461 331.86087 C 330.667114 286.356934 330.667114 212.63681 375.785461 167.132813 L 457.774292 84.443665 L 483.64975 110.537933 C 499.3367 126.358307 499.3367 152.127441 483.64975 167.947815 L 430.122986 221.933105 C 414.921661 237.263672 414.921661 262.055237 430.122986 277.223206 L 483.64975 331.208466 C 499.3367 347.028931 499.3367 372.797974 483.64975 388.618439 L 457.774292 414.55011 Z"/>
    </g>
</svg>
