<?xml version="1.0" encoding="utf-8"?>
<!-- Generator: Adobe Illustrator 25.4.1, SVG Export Plug-In . SVG Version: 6.00 Build 0)  -->
<svg version="1.1" id="Layer_1" xmlns="http://www.w3.org/2000/svg" xmlns:xlink="http://www.w3.org/1999/xlink" x="0px" y="0px"
	 viewBox="0 0 1000 600" style="enable-background:new 0 0 1000 600;" xml:space="preserve">
<style type="text/css">
	.st0{fill:#6309FF;}
</style>
	<path class="st0" d="M538.5,162.6c-3.6-1.2-7.2-2.4-10.7-3.6c-4.4-1.6-8.7,2.9-8.5,8.8c0.4,11.1,0.8,22.3,1.2,33.4
		c0.1,3.7-1.7,7.1-4.5,8.4c-5.6,2.7-11.3,5.3-17,7.9c-5.7-2.5-11.4-5.2-17-7.9c-2.9-1.4-4.6-4.8-4.5-8.4c0.4-11.1,0.8-22.3,1.2-33.4
		c0.2-6-4.1-10.4-8.5-8.8c-3.6,1.2-7.1,2.5-10.7,3.6c-2.9,1-5.1,4.2-5.4,8.1c-1,13.2-2.1,26.3-3.1,39.5c-0.3,3.7,1.4,7.1,4.2,8.6
		l0,0c6.3,3.3,5.7,14.1-1.2,16.6l0,0c-3.1,1.1-5.4,4.2-5.7,7.9c-1.6,20.1-3.2,40.2-4.8,60.4c-0.3,3.9,1.8,7.5,5.4,8.9
		c4.3,1.7,8.7,3.4,13.1,5.1c5.5,2.1,11.4-2,11.6-8c0.6-18.1,1.3-36.2,1.9-54.3c0.1-3.7,2.3-6.9,5.4-8.1c6.1-2.4,12.1-4.8,18.1-7.4
		c5.9,2.5,12,5,18.1,7.4c3.1,1.2,5.2,4.4,5.4,8.1c0.6,18.1,1.3,36.2,1.9,54.3c0.2,6,6.1,10,11.6,8c4.4-1.7,8.8-3.4,13.1-5.1
		c3.5-1.4,5.7-5,5.4-8.9c-1.6-20.1-3.2-40.2-4.8-60.4c-0.3-3.7-2.5-6.8-5.7-7.9l0,0c-6.9-2.4-7.5-13.3-1.2-16.6l0,0
		c2.9-1.5,4.5-5,4.2-8.6c-1-13.2-2.1-26.3-3.1-39.5C543.6,166.8,541.4,163.6,538.5,162.6z"/>
</svg>
