<?xml version="1.0" encoding="UTF-8"?>
<!-- Generated by Pixelmator Pro 3.3 -->
<svg width="500" height="500" viewBox="0 0 500 500" xmlns="http://www.w3.org/2000/svg" xmlns:xlink="http://www.w3.org/1999/xlink">
    <path id="Path-copy" fill="#6309ff" stroke="none" d="M 371.711487 17.311096 C 360.640533 13.620728 349.569366 9.93042 338.805847 6.240021 C 325.274689 1.31955 312.050781 15.158356 312.665863 33.302551 C 313.896057 67.438324 315.126068 101.881622 316.356262 136.017365 C 316.663696 147.395874 311.128235 157.851868 302.517456 161.849792 C 285.295807 170.153015 267.766693 178.148804 250.237488 186.144562 C 232.708298 178.45636 215.179199 170.153015 197.957535 161.849792 C 189.039215 157.544403 183.811188 147.088348 184.118729 136.017365 C 185.348831 101.881622 186.578934 67.438324 187.809113 33.302551 C 188.424118 14.8508 175.200409 1.31955 161.669144 6.240021 C 150.598068 9.93042 139.834549 13.928253 128.763489 17.311096 C 119.845161 20.386383 113.079483 30.227264 112.156937 42.220978 C 109.081642 82.814758 105.698807 123.101105 102.623512 163.694977 C 101.700966 175.073517 106.928902 185.52948 115.539772 190.142426 L 115.539772 190.142426 C 134.914078 200.290924 133.068878 233.504028 111.849388 241.192261 L 111.849388 241.192261 C 102.315964 244.575104 95.242828 254.108536 94.32019 265.487061 C 89.399796 327.300415 84.479309 389.1138 79.55883 451.234711 C 78.636276 463.228333 85.094315 474.299408 96.165382 478.604797 C 109.389191 483.832733 122.920456 489.06076 136.451721 494.288788 C 153.365814 500.746826 171.510025 488.138214 172.125107 469.686462 C 173.970306 414.023682 176.122955 358.360901 177.968155 302.69809 C 178.275696 291.31958 185.041275 281.478607 194.574707 277.788208 C 213.334 270.407532 231.785751 263.026855 250.237488 255.031082 C 268.381683 262.719299 287.140991 270.407532 305.900177 277.788208 C 315.433716 281.478607 321.891754 291.31958 322.506836 302.69809 C 324.351929 358.360901 326.504669 414.023682 328.349976 469.686462 C 328.964874 488.138214 347.109161 500.439392 364.023285 494.288788 C 377.554626 489.06076 391.085785 483.832733 404.309509 478.604797 C 415.073029 474.299408 421.838715 463.228333 420.916168 451.234711 C 415.995758 389.421356 411.075195 327.607971 406.154785 265.487061 C 405.232239 254.108536 398.466583 244.575104 388.62561 241.192261 L 388.62561 241.192261 C 367.406006 233.811584 365.560913 200.290924 384.935211 190.142426 L 384.935211 190.142426 C 393.853638 185.52948 398.774017 174.765961 397.851471 163.694977 C 394.776184 123.101105 391.393433 82.814758 388.318146 42.220978 C 387.395416 30.227264 380.629913 20.386383 371.711487 17.311096 Z"/>
</svg>
