<svg clip-rule="evenodd" fill-rule="evenodd" stroke-linejoin="round" stroke-miterlimit="1.41421" viewBox="0 0 560 400" xmlns="http://www.w3.org/2000/svg"><g fill="#142533" fill-rule="nonzero" transform="matrix(3.72324 0 0 3.72324 100 155.731)"><path d="m16.7 0h-9.11v12.29h12.3v-9.11c0-1.745-1.436-3.18-3.18-3.18-.003 0-.007 0-.01 0z"/><path d="m4.75 0h-1.57c-1.744 0-3.18 1.436-3.18 3.18v1.57h4.75z"/><path d="m0 7.59h4.75v4.75h-4.75z"/><path d="m15.18 19.89h1.57c1.745 0 3.18-1.436 3.18-3.18 0-.003 0-.007 0-.01v-1.52h-4.75z"/><path d="m7.59 15.18h4.75v4.75h-4.75z"/><path d="m0 15.18v1.57c0 1.744 1.436 3.18 3.18 3.18h1.57v-4.75z"/><path d="m32.03 1.27h-1.86v17.39h9.85v-1.66h-7.99z"/><path d="m46 5.88c-3.62 0-6.17 2.69-6.17 6.56v.44c.122 3.381 2.927 6.101 6.31 6.12h.24c1.694-.003 3.332-.609 4.62-1.71v-.05l-.84-1.37-.09.05c-1 .932-2.313 1.457-3.68 1.47-.034.001-.068.001-.102.001-2.524 0-4.6-2.076-4.6-4.6 0-.05 0-.101.002-.151h9.4v-.1-.88c.09-3.53-1.96-5.78-5.09-5.78zm-4.21 5.19c.248-2.068 2.027-3.64 4.11-3.63 1.57 0 3.29.94 3.43 3.63z"/><path d="m62 7.35v.65c-.795-1.324-2.226-2.14-3.77-2.15h-.23c-3.33 0-5.63 2.64-5.63 6.51s2.2 6.57 5.48 6.57c1.7.081 3.31-.792 4.17-2.26v1.91h1.76v-17.31h-1.78zm-3.82 9.94c-2.3 0-3.82-2-3.82-4.9s1.61-4.85 3.87-4.85c1.87 0 3.77 1.52 3.77 4.85 0 3.61-2 4.9-3.86 4.9z"/><path d="m74.55 7.59v.1c-.35-.59-1.42-1.86-4-1.86-3.28 0-5.44 2.5-5.44 6.32s2.26 6.41 5.59 6.41c1.561.116 3.061-.659 3.87-2v1.72c0 2.4-1.52 3.77-4.22 3.77-1.164.007-2.312-.263-3.35-.79l-.09-.05-.69 1.52.1.05c1.259.638 2.648.981 4.06 1 2.89 0 6-1.47 6-5.54v-12h-1.83zm-3.63 9.41c-2.4 0-4-1.86-4-4.75s1.37-4.61 3.72-4.61c2.59 0 3.82 1.52 3.82 4.61s-1.19 4.75-3.54 4.75z"/><path d="m83.76 5.88c-3.63 0-6.13 2.69-6.13 6.51v.44c.107 3.419 2.95 6.172 6.37 6.17h.25c1.688-.01 3.319-.62 4.6-1.72l-.85-1.46h-.1c-.996.932-2.306 1.457-3.67 1.47-.034.001-.068.001-.102.001-2.529 0-4.61-2.081-4.61-4.61 0-.047.001-.094.002-.141h9.48v-.1-.88c0-3.43-2.06-5.68-5.24-5.68zm-4.17 5.19c.252-2.07 2.035-3.64 4.12-3.63 1.56 0 3.28.94 3.42 3.63z"/><path d="m96.64 6.12c-.25 0-.44 0-.69-.1-1.766.051-3.32 1.211-3.87 2.89v-2.79h-1.81v12.49h1.86v-5.24c.006-.805.138-1.605.39-2.37.59-1.91 1.91-3.13 3.48-3.13.196-.02.394-.02.59 0h.1v-1.75z"/></g></svg>