<?xml version="1.0" encoding="utf-8"?>
<!-- Generator: Adobe Illustrator 25.4.1, SVG Export Plug-In . SVG Version: 6.00 Build 0)  -->
<svg version="1.1" baseProfile="basic" id="Layer_1"
	 xmlns="http://www.w3.org/2000/svg" xmlns:xlink="http://www.w3.org/1999/xlink" x="0px" y="0px" viewBox="0 0 183 36.7"
	 xml:space="preserve">
<path d="M51.1,29h4.4v-8.6h10v-3.8h-10v-4.5h10.3V8.3H51.1V29z"/>
<path d="M75.7,29.4c5,0,8-3.6,8-7.9c0-4.3-3-7.9-8-7.9c-4.9,0-7.9,3.6-7.9,7.9C67.8,25.8,70.8,29.4,75.7,29.4z M75.7,25.9
	c-2.5,0-3.8-2-3.8-4.4c0-2.3,1.4-4.4,3.8-4.4c2.5,0,3.9,2,3.9,4.4C79.6,23.8,78.2,25.9,75.7,25.9z"/>
<path d="M86.6,29h3.9v-9.9c0.7-1,2.4-1.7,3.7-1.7c0.4,0,0.8,0,1.1,0.1v-3.9c-1.9,0-3.7,1.1-4.8,2.4V14h-3.9V29z"/>
<path d="M102.9,29.4c1.6,0,2.7-0.4,3.3-1l-0.8-3c-0.2,0.2-0.8,0.4-1.4,0.4c-0.9,0-1.4-0.7-1.4-1.6v-6.8h3V14h-3V9.9h-4V14h-2.5v3.5
	h2.5v7.8C98.6,27.9,100.1,29.4,102.9,29.4z"/>
<path d="M127,29h4V18.2c0-3.1-1.6-4.5-4.4-4.5c-2.3,0-4.3,1.4-5.2,2.7c-0.6-1.7-2-2.7-4.2-2.7c-2.3,0-4.3,1.4-4.9,2.3v-2h-3.9v15
	h3.9V18.9c0.6-0.8,1.7-1.8,3.1-1.8c1.6,0,2.2,1,2.2,2.4V29h4V18.9c0.6-0.8,1.7-1.7,3.1-1.7c1.6,0,2.2,1,2.2,2.4V29z"/>
<path d="M143.8,29h3.9v-9.7c0-4.3-3.1-5.7-6.6-5.7c-2.4,0-4.7,0.7-6.6,2.4l1.5,2.6c1.3-1.2,2.8-1.8,4.4-1.8c2,0,3.3,1,3.3,2.5v2.1
	c-1-1.2-2.8-1.8-4.8-1.8c-2.4,0-5.2,1.3-5.2,4.8c0,3.4,2.8,5,5.2,5c2,0,3.7-0.7,4.8-1.9V29z M143.8,25.4c-0.7,0.9-1.9,1.3-3.2,1.3
	c-1.6,0-2.8-0.8-2.8-2.2c0-1.4,1.3-2.3,2.8-2.3c1.3,0,2.5,0.4,3.2,1.3V25.4z"/>
<path d="M156.7,29.4c1.6,0,2.7-0.4,3.3-1l-0.8-3c-0.2,0.2-0.8,0.4-1.4,0.4c-0.9,0-1.4-0.7-1.4-1.6v-6.8h3V14h-3V9.9h-4V14H150v3.5
	h2.5v7.8C152.5,27.9,154,29.4,156.7,29.4z"/>
<path d="M164.2,11.8c1.3,0,2.4-1.1,2.4-2.4c0-1.3-1.1-2.4-2.4-2.4c-1.3,0-2.4,1.1-2.4,2.4C161.8,10.7,162.9,11.8,164.2,11.8z
	 M162.2,29h3.9V14h-3.9V29z"/>
<path d="M169.1,21.5c0,4.6,3.3,7.9,8,7.9c3.1,0,4.9-1.3,5.9-2.7l-2.6-2.4c-0.7,1-1.8,1.6-3.2,1.6c-2.4,0-4.1-1.8-4.1-4.4
	c0-2.6,1.7-4.4,4.1-4.4c1.4,0,2.5,0.6,3.2,1.6l2.6-2.4c-1-1.4-2.9-2.7-5.9-2.7C172.4,13.6,169.1,16.9,169.1,21.5z"/>
<path fill-rule="evenodd" clip-rule="evenodd" fill="#6851FF" d="M17.9,0h9h9v9.2h-9h-9H9v9.2V19v8.6v0.1v9.1H0v-9.1v-0.1V19v-0.6
	V9.2V0h9H17.9z M26.9,27.5H18v-9.1h17.9v9.5c0,2.4-0.9,4.6-2.5,6.3c-1.6,1.7-3.8,2.6-6.1,2.6h-0.3V27.5z"/>
</svg>
