<?xml version="1.0" encoding="utf-8"?>
<svg xmlns="http://www.w3.org/2000/svg" fill="none" height="28" viewBox="0 0 162 28" width="162">
<g id="Group 2465">
<path d="M63.787 22.0278H60.3455V20.909C59.7222 21.6187 58.7105 22.2639 57.291 22.2639C54.9683 22.2639 53.4404 20.6716 53.4404 18.1978V10.6914H56.882V17.3822C56.882 18.5229 57.3763 19.2533 58.495 19.2533C59.4422 19.2533 60.3455 18.5862 60.3455 17.2531V10.6914H63.787V22.029V22.0278Z" fill="white" id="Vector"/>
<path d="M65.3145 18.8665C65.3145 16.5218 67.2939 15.5747 69.6812 15.2314L72.2195 14.8017V14.6081C72.2195 13.7693 71.7678 13.2312 70.6491 13.2312C69.6593 13.2312 69.1432 13.661 68.9277 14.5862L65.6358 14.0919C66.1301 12.0917 67.916 10.4568 70.7988 10.4568C73.6816 10.4568 75.5965 11.8117 75.5965 14.4584V18.8251C75.5965 19.4058 75.812 19.5787 76.4791 19.4923V22.0305C74.4997 22.3531 73.1666 21.9879 72.5859 21.0189C71.8324 21.7931 70.7148 22.2448 69.2296 22.2448C66.9494 22.2448 65.3145 20.8679 65.3145 18.8677V18.8665ZM72.2195 17.0161L70.24 17.3813C69.3367 17.5323 68.6696 17.833 68.6696 18.6291C68.6696 19.3389 69.2077 19.726 70.0245 19.726C71.1652 19.726 72.2195 19.1234 72.2195 17.962V17.0149V17.0161Z" fill="white" id="Vector_2"/>
<path d="M78.2771 10.6917H81.7187V11.8324C82.342 11.1008 83.3962 10.4556 84.8376 10.4556C87.1604 10.4556 88.6237 12.0686 88.6237 14.5436V22.0305H85.1821V15.5333C85.1821 14.3926 84.7086 13.5538 83.5898 13.5538C82.6427 13.5538 81.7174 14.221 81.7174 15.554V22.0293H78.2759V10.6917H78.2771Z" fill="white" id="Vector_3"/>
<path d="M91.3711 13.5316H89.9297V10.6914H91.3711V7.55176H94.77V10.6926H96.9857V13.5328H94.77V18.1151C94.77 19.0622 95.2643 19.2338 96.125 19.2338C96.534 19.2338 96.7276 19.2119 97.1147 19.1693V21.9876C96.5121 22.074 95.8669 22.1385 95.05 22.1385C92.597 22.1385 91.3711 21.3205 91.3711 18.9977V13.534V13.5316Z" fill="white" id="Vector_4"/>
<path d="M100.192 18.0484C101.117 19.0601 102.58 19.6615 103.806 19.6615C104.71 19.6615 105.463 19.3608 105.463 18.7582C105.463 18.0058 104.71 17.9194 102.903 17.5968C101.032 17.2316 99.0305 16.7361 99.0305 14.2843C99.0305 11.9822 101.075 10.4543 103.871 10.4543C105.915 10.4543 107.721 11.2286 108.669 12.261L106.947 14.4766C106.087 13.5733 104.968 13.0778 103.849 13.0778C103.01 13.0778 102.472 13.4004 102.472 13.9166C102.472 14.5399 103.139 14.6263 104.516 14.8844C106.56 15.2935 108.84 15.7877 108.84 18.3479C108.84 20.9081 106.56 22.263 103.677 22.263C101.698 22.263 99.4603 21.5959 98.4072 20.37L100.193 18.0472L100.192 18.0484Z" fill="white" id="Vector_5"/>
<path d="M111.206 13.5316H109.765V10.6914H111.206V7.55176H114.605V10.6926H116.821V13.5328H114.605V18.1151C114.605 19.0622 115.099 19.2338 115.96 19.2338C116.369 19.2338 116.563 19.2119 116.95 19.1693V21.9876C116.347 22.074 115.702 22.1385 114.885 22.1385C112.433 22.1385 111.206 21.3205 111.206 18.9977V13.534V13.5316Z" fill="white" id="Vector_6"/>
<path d="M118.35 18.8665C118.35 16.5218 120.33 15.5747 122.717 15.2314L125.255 14.8017V14.6081C125.255 13.7693 124.804 13.2312 123.685 13.2312C122.695 13.2312 122.179 13.661 121.964 14.5862L118.672 14.0919C119.166 12.0917 120.952 10.4568 123.835 10.4568C126.717 10.4568 128.632 11.8117 128.632 14.4584V18.8251C128.632 19.4058 128.848 19.5787 129.515 19.4923V22.0305C127.536 22.3531 126.203 21.9879 125.621 21.0189C124.868 21.7931 123.749 22.2448 122.264 22.2448C119.984 22.2448 118.349 20.8679 118.349 18.8677L118.35 18.8665ZM125.255 17.0161L123.276 17.3813C122.373 17.5323 121.705 17.833 121.705 18.6291C121.705 19.3389 122.244 19.726 123.06 19.726C124.201 19.726 125.254 19.1234 125.254 17.962V17.0149L125.255 17.0161Z" fill="white" id="Vector_7"/>
<path d="M134.555 22.0281H131.113V10.6917H134.555V11.8324C135.178 11.1008 136.212 10.4556 137.653 10.4556C139.008 10.4556 140.127 11.0363 140.772 12.0041C141.417 11.2943 142.536 10.4556 144.278 10.4556C146.58 10.4556 148.108 12.0686 148.108 14.5436V22.0305H144.666V15.5333C144.666 14.3926 144.215 13.5538 143.118 13.5538C142.215 13.5538 141.332 14.221 141.332 15.554V22.0293H137.89V15.5321C137.89 14.3914 137.46 13.5526 136.342 13.5526C135.439 13.5526 134.556 14.2197 134.556 15.5528V22.0281H134.555Z" fill="white" id="Vector_8"/>
<path d="M153.265 20.9105V25.8154H149.824V10.6917H153.265V11.8324C153.911 11.0156 154.987 10.4556 156.342 10.4556C159.461 10.4556 161.225 13.1229 161.225 16.3721C161.225 19.6213 159.461 22.2667 156.342 22.2667C154.987 22.2667 153.911 21.7079 153.265 20.9117V20.9105ZM153.243 16.6728C153.243 18.3723 154.169 19.3401 155.459 19.3401C156.965 19.3401 157.761 18.1142 157.761 16.3709C157.761 14.6276 156.965 13.4017 155.459 13.4017C154.169 13.4017 153.243 14.3476 153.243 16.069V16.6716V16.6728Z" fill="white" id="Vector_9"/>
<g id="Group">
<path d="M37.5288 8.22388C34.327 11.4256 34.3283 16.6166 37.5288 19.8171C40.7305 23.0188 45.9203 23.0188 49.122 19.8171C52.3237 16.6154 52.3237 11.4256 49.122 8.22388C45.9215 5.02336 40.7293 5.02336 37.5288 8.22388ZM46.6957 17.3908C44.8343 19.2522 41.8176 19.2522 39.955 17.3908C38.0936 15.5294 38.0936 12.5127 39.955 10.6501C41.8164 8.78753 44.8343 8.78875 46.6957 10.6501C48.5571 12.5115 48.5571 15.5294 46.6957 17.3908Z" fill="white" id="Vector_10"/>
<path d="M44.5095 12.8286L42.1035 15.2346L49.603 22.7341L52.009 20.3281L44.5095 12.8286Z" fill="white" id="Vector_11"/>
</g>
<path d="M25.2737 13.9992C25.2737 11.807 24.6432 9.65035 23.4378 7.81403L27.8783 3.35056L24.5505 0L20.11 4.46347C16.3692 2.00831 11.5293 2.00831 7.78845 4.46347L3.33791 0L0 3.35056L4.44043 7.81403C1.996 11.5777 1.996 16.4324 4.44043 20.1961L0 24.6494L3.33791 28L7.77833 23.5365C11.5191 25.9917 16.3591 25.9917 20.0999 23.5365L24.5404 28L27.8783 24.6494L23.4378 20.186C24.6432 18.3497 25.2855 16.2048 25.2737 14.0008V13.9992ZM7.33159 13.9992C7.33159 11.2911 8.96009 8.84601 11.4618 7.83764C13.9636 6.82758 16.8311 7.43631 18.7007 9.38729C20.5703 11.3383 21.076 14.242 19.9634 16.7089L15.6039 12.3247L12.2761 15.6753L16.6356 20.0595C14.5941 20.9768 12.2188 20.8048 10.3374 19.5772C8.46783 18.3497 7.33159 16.2486 7.33159 14.0008V13.9992Z" fill="white" id="Vector_12"/>
</g>
</svg>