<svg width="276" height="342" viewBox="0 0 276 342" fill="none" xmlns="http://www.w3.org/2000/svg">
<path fill-rule="evenodd" clip-rule="evenodd" d="M115.899 40C115.899 34.4772 111.422 30 105.899 30H82.2002C76.6774 30 72.2002 34.4772 72.2002 40V63.6984C72.2002 69.2213 67.7231 73.6984 62.2002 73.6984H40C34.4772 73.6984 30 78.1756 30 83.6984V229.753C30 235.275 34.4771 239.753 40 239.753H63.6985C69.2213 239.753 73.6985 235.275 73.6985 229.753V83.6985C73.6985 78.1756 78.1756 73.6985 83.6985 73.6985H105.899C111.422 73.6985 115.899 69.2213 115.899 63.6985V40ZM203.296 40C203.296 34.4772 198.818 30 193.296 30H169.597C164.074 30 159.597 34.4771 159.597 40V63.6985C159.597 69.2213 164.074 73.6985 169.597 73.6985H191.797C197.32 73.6985 201.797 78.1756 201.797 83.6985V229.753C201.797 235.275 206.275 239.753 211.797 239.753H235.496C241.019 239.753 245.496 235.275 245.496 229.753V83.6984C245.496 78.1756 241.019 73.6984 235.496 73.6984H213.296C207.773 73.6984 203.296 69.2212 203.296 63.6984V40ZM159.597 123.651C159.597 118.129 155.12 113.651 149.597 113.651H125.899C120.376 113.651 115.899 118.129 115.899 123.651V188.551C115.899 194.074 120.376 198.551 125.899 198.551H149.597C155.12 198.551 159.597 194.074 159.597 188.551V123.651Z" fill="#5353D3"/>
<path d="M30 281.422H42.4155C47.6749 281.422 50.5201 284.295 50.5201 288.431C50.5591 289.724 50.2218 290.998 49.5524 292.088C48.8831 293.177 47.913 294.031 46.7695 294.536V294.67C48.2485 295.138 49.5391 296.098 50.4426 297.404C51.3461 298.71 51.8126 300.288 51.7702 301.897C51.7702 306.521 48.691 310.156 43.1053 310.156H30V281.422ZM42.5017 293.099C44.4847 293.099 45.9074 291.573 45.9074 289.252C45.9074 286.931 44.4847 285.404 42.5017 285.404H34.625V293.099H42.5017ZM43.0621 306.206C45.4332 306.206 47.1575 304.321 47.1575 301.583C47.1575 298.845 45.4332 297.004 43.0621 297.004H34.625V306.206H43.0621Z" fill="#5353D3"/>
<path d="M57.5469 284.84H54.948V280.505H62.1042V310.137H57.5346L57.5469 284.84Z" fill="#5353D3"/>
<path d="M66.335 299.518C66.335 293.01 70.9539 288.207 77.3341 288.207C83.7142 288.207 88.3701 292.965 88.3701 299.518C88.3701 306.072 83.7574 310.785 77.3341 310.785C70.9108 310.785 66.335 306.027 66.335 299.518ZM76.127 306.521H78.5904C81.3925 306.521 83.8498 303.423 83.8498 299.518C83.8498 295.613 81.3864 292.464 78.5904 292.464H76.127C73.3249 292.464 70.8677 295.671 70.8677 299.518C70.8677 303.366 73.3249 306.521 76.127 306.521Z" fill="#5353D3"/>
<path d="M91.3384 299.473C91.3384 292.83 95.7418 288.207 102.079 288.207C107.166 288.207 111.175 290.945 111.822 296.543H107.381C106.95 293.715 105.01 292.458 103.027 292.458H100.872C98.1128 292.458 95.8711 295.6 95.8711 299.512C95.8711 303.423 98.1128 306.604 100.872 306.604H103.027C104.129 306.608 105.193 306.182 106.007 305.409C106.821 304.636 107.327 303.572 107.424 302.429H111.865C111.249 307.951 107.209 310.823 102.011 310.823C95.6925 310.785 91.3384 306.117 91.3384 299.473Z" fill="#5353D3"/>
<path d="M115.954 280.505H120.48V296.851H123.763L129.884 288.816H135.057L127.513 298.736L135.402 310.137H129.971L123.375 300.711H120.48V310.137H115.954V280.505Z" fill="#5353D3"/>
<path d="M137.472 303.738H141.826C142.041 305.623 143.162 306.835 145.521 306.835H148.372C150.398 306.835 151.347 305.757 151.347 304.321C151.347 302.885 150.571 302.032 148.717 301.756L143.926 301.115C139.873 300.621 138.063 298.107 138.063 294.831C138.063 290.522 141.142 288.187 146.642 288.187C151.907 288.187 155.097 290.387 155.263 295.28H150.909C150.694 293.439 149.961 292.137 147.719 292.137H145.127C143.187 292.137 142.281 293.215 142.281 294.606C142.281 295.998 143.144 296.94 144.997 297.21L149.832 297.851C153.755 298.345 155.565 300.544 155.565 303.956C155.565 308.355 152.763 310.778 146.555 310.778C140.551 310.785 137.638 308.406 137.472 303.738Z" fill="#5353D3"/>
<path d="M158.41 299.473C158.41 292.83 162.808 288.207 169.151 288.207C174.238 288.207 178.247 290.945 178.894 296.543H174.453C174.022 293.715 172.082 292.458 170.099 292.458H167.944C165.179 292.458 162.937 295.6 162.937 299.512C162.937 303.423 165.179 306.604 167.944 306.604H170.099C171.201 306.608 172.265 306.182 173.079 305.409C173.893 304.636 174.399 303.572 174.496 302.429H178.937C178.321 307.951 174.281 310.823 169.083 310.823C162.771 310.785 158.41 306.117 158.41 299.473Z" fill="#5353D3"/>
<path d="M181.813 299.518C181.813 293.01 186.425 288.207 192.806 288.207C199.186 288.207 203.848 292.965 203.848 299.518C203.848 306.072 199.235 310.785 192.806 310.785C186.376 310.785 181.813 306.027 181.813 299.518ZM191.599 306.521H194.062C196.864 306.521 199.327 303.423 199.327 299.518C199.327 295.613 196.864 292.464 194.062 292.464H191.599C188.796 292.464 186.339 295.671 186.339 299.518C186.339 303.366 188.809 306.521 191.611 306.521H191.599Z" fill="#5353D3"/>
<path d="M207.604 302.256V288.841H212.131V301.455C212.131 304.552 213.64 306.392 215.623 306.392H218.086C220.199 306.392 222.095 304.372 222.095 301.455V288.841H226.628V310.163H222.225V307.245C220.993 309.445 218.819 310.791 215.5 310.791C210.536 310.785 207.604 307.777 207.604 302.256Z" fill="#5353D3"/>
<path d="M234.16 305.174V292.99H230.194V288.841H234.16V282.865H238.729V288.841H244.075V292.971H238.729V303.834C238.729 305.225 239.16 305.899 240.626 305.899H244.247V310.163H239.321C236.007 310.156 234.16 308.361 234.16 305.174Z" fill="#5353D3"/>
</svg>
