<?xml version="1.0" encoding="utf-8"?>
<!-- Generator: Adobe Illustrator 28.0.0, SVG Export Plug-In . SVG Version: 6.00 Build 0)  -->
<svg version="1.1" id="Capa_1" xmlns="http://www.w3.org/2000/svg" xmlns:xlink="http://www.w3.org/1999/xlink" x="0px" y="0px"
	 viewBox="0 0 245.58 276.04" style="enable-background:new 0 0 245.58 276.04;" xml:space="preserve">
<style type="text/css">
	.st0{fill:#6781A5;}
</style>
<path class="st0" d="M43.85,31.9c0,0,60.73-40.91,127.82-19.6c14.77,4.69,28.56,12.2,38.02,23.26c6.95,8.12,11.18,17.74,12.82,27.72
	c1.15,7.02,1.11,14.21-0.08,21.23c-0.63,3.73-1.76,7.58-3.54,11.1c-1.29,2.55-4.33,8.91-8.28,8.65c-1.41-0.09-2.24-0.9-2.94-1.88
	c-0.75-1.07-1.31-2.53-2.67-0.84c-0.45,0.56-0.7,1.22-1.14,1.78c-1.42,1.81-4.84,2.06-6.6,0.48c-0.64-0.58-1.19-1.39-2.11-1.44
	c-1.09-0.06-1.76,0.99-2.13,1.88c-1.14,2.73-2.11,5.55-3.83,8.04c-1.72,2.49-4.36,4.68-7.64,5.29s-7.15-0.76-8.28-3.5
	c-0.75-1.82-0.22-3.84,0.51-5.67c0.69-1.72,1.86-3.7,1.76-5.57c-0.09-1.58-1.51-3.02-3.3-1.8c-0.7,0.48-1.12,1.18-1.52,1.87
	c-1.66,2.83-3.26,5.67-5.08,8.41c-3.33,5.01-12.37,18.99-21.13,13.22c-2.58-1.7-3.71-4.68-3.51-7.48c0.2-2.8,1.56-5.44,3.21-7.85
	c1.64-2.42,3.58-4.68,5.11-7.15c0.49-0.8,0.95-1.63,1.05-2.53c0.1-0.9-0.2-1.88-1.01-2.45c-0.8-0.57-1.97-0.63-2.95-0.34
	c-0.98,0.3-1.78,0.92-2.45,1.6c-1.6,1.64-2.5,3.69-3.44,5.67c-0.93,1.99-1.97,4.01-3.75,5.5c-4.29,3.61-10.48,1.26-11.88-3.43
	c-1.46-4.87,1.66-10.81,2.32-15.74c0.71-5.33,0.76-10.74,0.17-16.08c-1.18-10.68-4.91-21.09-10.93-29.89
	C104.81,27.4,83.39,24.29,64.61,26.8C57.41,27.77,50.83,30.11,43.85,31.9z"/>
<path class="st0" d="M161.65,137.78c0.54,0.45,1.21,0.75,1.95,0.8c0.93,0.06,1.84-0.3,2.59-0.78c3.08-1.98,4.64-6.27,4.72-9.6
	c0.03-1.38-0.41-3.29-2.27-3.47c-0.93-0.09-1.83,0.25-2.63,0.67C162.29,127.36,157.37,134.22,161.65,137.78z"/>
<path class="st0" d="M193.23,124.68c0.53-0.06,1.13-0.25,1.73-0.62c0.75-0.46,1.39-1.1,1.88-1.74c1.99-2.59,2.25-5.54,1.55-7.23
	c-0.29-0.7-1.08-1.42-2.6-0.55c-0.76,0.44-1.4,1.08-1.93,1.7C191.36,119.16,189.02,125.14,193.23,124.68z"/>
<path class="st0" d="M163.94,150.41c-56.63,19.7-84.65-7.2-84.65-7.2s19.4,9.85,35.67,9.85c-28.09-9.27-48.78-34.72-37.03-67.68
	c6.1-17.1,20.25-23.01,33.11-26.78c-7.15-18.99-29.41-26.1-48.46-24.18C45.18,36.17,29.21,44.8,18.83,58.7
	C6.9,74.69,3.97,95.18,7.34,114.38c1.32,7.53,3.24,15.81,6.7,22.71c6.03,12.02,14.87,22.65,26.7,29.56c0,0-5.21-4.75-6.04-9.34
	c32.11,19.7,69.56,21.05,69.56,21.05c-28.34-8.07-51.06-20.47-57.52-35.15c54.18,49.82,109.47,22.59,119.95,18.54
	c19.62,11.78,71.57,6.57,71.57,6.57S186.68,165.67,163.94,150.41z"/>
<path class="st0" d="M229.95,179.78c-2.5,0.07-5.16,0.12-7.95,0.12c-15.11,0-27.05-1.24-36.51-3.8l-10.59-2.87l0.7,10.48
	c0.69,10.28-6.17,21.23-17.47,27.91c-19.1,11.28-43.92,11.69-63.92,2.52c-10.1-4.64-18.05-11.54-25.52-19.62
	c-7.15-7.74-16.36-17.13-27.61-17.6c-7.69-0.33-15.51,2.62-21.02,8c-7.49,7.3-10.3,18.19-8.48,28.34
	c1.79,9.97,10.7,18.98,18.08,25.56c2.08,1.85,4.24,3.61,6.46,5.27c11.14,8.32,23.71,14.21,36.77,18.72
	c32.43,11.21,68.61,12.26,101.1,0.63c7.04-2.52,13.88-5.65,20.32-9.45c26.34-15.57,42.67-40.43,43.67-66.51l0.3-7.92L229.95,179.78z
	"/>
</svg>
