<svg xmlns:xlink="http://www.w3.org/1999/xlink" width="93.37" height="32.92" class="w-[5.835625rem] h-auto" data-icon="logo-white" xmlns="http://www.w3.org/2000/svg" id="uuid-42cc31bf-7040-4a6b-b14d-4e2c0b55bac8" viewBox="0 0 93.37 32.92"><g id="uuid-677b55b9-ef37-4d82-8b82-93fc32ff6996"><g><path d="M25.23,32.92H7.7C3.45,32.93,0,29.49,0,25.24c0,0,0-.01,0-.02V7.7C0,3.45,3.43,0,7.68,0c0,0,.01,0,.02,0H25.23c4.25,0,7.69,3.43,7.7,7.68,0,0,0,.01,0,.02V25.23c-.05,4.23-3.47,7.65-7.7,7.7Z" fill="#FFFFFF"></path><path d="M37.18,23.75V9.17h3.28l6.55,8.85V9.17h3.27v14.58h-3.44l-6.38-8.68v8.68h-3.28Z" fill="#FFFFFF"></path><path d="M59.3,23.92c-1.06,0-2.11-.16-3.11-.49-.96-.29-1.82-.86-2.46-1.64-.68-.73-1.23-1.55-1.64-2.46-.32-.95-.49-1.95-.49-2.95-.02-1,.14-2.01,.49-2.95,.33-.94,.89-1.79,1.64-2.46,.73-.68,1.55-1.23,2.46-1.64,2.02-.66,4.2-.66,6.22,0,.96,.29,1.82,.86,2.46,1.64,.68,.73,1.23,1.55,1.64,2.46,.32,.95,.49,1.95,.49,2.95,.02,1-.14,2.01-.49,2.95-.33,.94-.89,1.79-1.64,2.46-.73,.67-1.55,1.23-2.46,1.64-1,.34-2.05,.5-3.11,.49Zm0-3.44c.68,0,1.36-.18,1.97-.49,.56-.37,1.01-.88,1.31-1.47,.66-1.34,.66-2.91,0-4.26-.3-.6-.75-1.1-1.31-1.47-.59-.35-1.28-.53-1.97-.49-.68,0-1.36,.18-1.97,.49-.56,.37-1.01,.88-1.31,1.47-.66,1.34-.66,2.91,0,4.26,.3,.6,.75,1.1,1.31,1.47,.59,.35,1.28,.53,1.97,.49Z" fill="#FFFFFF"></path><path d="M68.14,23.75V9.17h6.06c1.32-.03,2.63,.31,3.77,.98,1.1,.61,2.01,1.52,2.62,2.62,.67,1.14,1.01,2.44,.98,3.77,.03,1.32-.31,2.63-.98,3.77-.61,1.1-1.52,2.01-2.62,2.62-1.14,.67-2.44,1.01-3.77,.98h-6.06v-.16Zm6.06-11.3h-2.29v8.02h2.29c1.01,.08,1.99-.35,2.62-1.15,.69-.82,1.04-1.88,.98-2.95,.03-1.07-.32-2.11-.98-2.95-.71-.66-1.65-1.01-2.62-.98h0Z" fill="#FFFFFF"></path><path d="M82.72,23.75V9.17h10.32v3.11h-6.72v2.46h5.9v3.11h-5.73v2.78h6.88v3.11h-10.65Z" fill="#FFFFFF"></path><path d="M12.29,23.92c-1.06,0-2.11-.16-3.11-.49-.96-.29-1.82-.86-2.46-1.64-.64-.75-1.19-1.58-1.64-2.46-.32-.95-.49-1.95-.49-2.95-.02-1,.14-2.01,.49-2.95,.33-.94,.89-1.79,1.64-2.46,.73-.68,1.55-1.23,2.46-1.64,2.02-.66,4.2-.66,6.22,0,.96,.29,1.82,.86,2.46,1.64,.68,.73,1.23,1.55,1.64,2.46,.32,.95,.49,1.95,.49,2.95,.02,1-.14,2.01-.49,2.95-.33,.94-.89,1.79-1.64,2.46-.73,.68-1.55,1.23-2.46,1.64-1,.34-2.05,.5-3.11,.49Zm3.28-5.41c.66-1.34,.66-2.91,0-4.26-.3-.6-.75-1.1-1.31-1.47-.59-.35-1.28-.53-1.97-.49-.68,0-1.36,.18-1.97,.49-.56,.37-1.01,.88-1.31,1.47-.66,1.34-.66,2.91,0,4.26,.3,.6,.75,1.1,1.31,1.47,.59,.35,1.28,.53,1.97,.49,.68,0,1.36-.18,1.97-.49" fill="#00060F"></path><path d="M23.59,23.92h3.77V8.85h-2.46l-4.26,2.13,.65,3.28,2.29-.98v10.65Z" fill="#00060F"></path></g></g></svg>