<?xml version="1.0" encoding="utf-8"?>
<!-- Generator: Adobe Illustrator 19.2.1, SVG Export Plug-In . SVG Version: 6.00 Build 0)  -->
<svg version="1.1" id="layer" xmlns="http://www.w3.org/2000/svg" xmlns:xlink="http://www.w3.org/1999/xlink" x="0px" y="0px"
	 viewBox="0 0 652 652" style="enable-background:new 0 0 652 652;" xml:space="preserve">
<style type="text/css">
	.st0{fill:#2170B8;}
	.st1{fill:#458AC9;}
	.st2{fill:#73B5E3;}
</style>
<polygon class="st0" points="75.8,310.4 92.4,292.9 92.4,343.5 75.8,358.7 "/>
<polygon class="st1" points="51.3,319.2 59.3,325.8 67.9,318.2 67.9,343.5 51.3,358.7 "/>
<polygon class="st2" points="43.5,310.4 26.8,292.9 26.8,358.9 43.5,344.7 "/>
<path d="M616.2,349.6h10.6v-45.8h-10.6V349.6z M544.2,326v-13.2h10.5c5.2,0,8.3,2.2,8.3,6.5v0.1c0,3.9-3,6.5-8.1,6.5H544.2z
	 M533.6,349.6h10.6v-14.7h8.3l10.3,14.7h12.4l-11.8-16.4c6.1-2.2,10.3-6.8,10.3-14.2v-0.1c0-4.3-1.4-7.9-4.1-10.5
	c-3.2-3-7.9-4.7-14-4.7h-22V349.6z M461.7,330.4l6.4-14.9l6.4,14.9H461.7z M442.7,349.6h10.8l4.4-10.3h20.4l4.4,10.3h11.1
	l-20.6-46.2h-9.8L442.7,349.6z M388.5,350.2c10.4,0,17.7-5.1,17.7-14.2v-0.1c0-8-5.5-11.3-15.3-13.8c-8.3-2-10.4-3-10.4-6V316
	c0-2.2,2.1-4,6.2-4c4.1,0,8.3,1.7,12.5,4.5l5.5-7.6c-4.9-3.7-10.9-5.8-17.9-5.8c-9.8,0-16.9,5.5-16.9,13.8v0.1c0,9.1,6.3,11.7,16,14
	c8,2,9.7,3.3,9.7,5.8v0.1c0,2.7-2.6,4.3-6.9,4.3c-5.5,0-10-2.2-14.4-5.6l-6.3,7.1C373.9,347.8,381.2,350.2,388.5,350.2 M312.7,350.2
	c10.4,0,17.7-5.1,17.7-14.2v-0.1c0-8-5.5-11.3-15.3-13.8c-8.3-2-10.4-3-10.4-6V316c0-2.2,2.1-4,6.2-4c4.1,0,8.3,1.7,12.5,4.5
	l5.5-7.6c-4.9-3.7-10.9-5.8-17.9-5.8c-9.8,0-16.9,5.5-16.9,13.8v0.1c0,9.1,6.3,11.7,16,14c8,2,9.7,3.3,9.7,5.8v0.1
	c0,2.7-2.6,4.3-6.9,4.3c-5.5,0-10-2.2-14.4-5.6l-6.3,7.1C298.1,347.8,305.4,350.2,312.7,350.2 M217.1,349.6h36.7v-9h-26.1V331h22.7
	v-9h-22.7v-9.3h25.8v-9h-36.3V349.6z M124.9,349.6h10.4v-29.7l13.4,19.4h0.3l13.6-19.6v29.9h10.5v-45.8h-11.4L149,323.1l-12.7-19.4
	h-11.4V349.6z"/>
</svg>
