<svg width="432" height="72" viewBox="0 0 432 72" fill="none" xmlns="http://www.w3.org/2000/svg">
<path fill-rule="evenodd" clip-rule="evenodd" d="M224.345 61.4369C226.57 62.5746 229.019 63.1435 231.69 63.1435C236.488 63.1435 240.544 61.2638 243.858 57.5045C247.271 53.7452 248.978 49.1697 248.978 43.778C248.978 38.4359 247.271 33.8604 243.858 30.0516C240.544 26.2923 236.488 24.4126 231.69 24.4126C229.019 24.4126 226.57 24.9815 224.345 26.1192C223.087 26.7766 221.987 27.558 221.053 28.4633C220.466 29.0326 219.277 28.6428 219.277 27.8249V9.83297C219.277 9.27828 218.827 8.82861 218.272 8.82861H213.477C212.923 8.82861 212.473 9.27828 212.473 9.83297V60.952C212.473 61.5066 212.923 61.9563 213.477 61.9563H218.295C218.849 61.9563 219.299 61.5066 219.299 60.952V59.7312C219.299 58.9133 220.485 58.5258 221.071 59.0968C221.997 60.0004 223.089 60.7804 224.345 61.4369ZM238.813 53.2011C236.587 55.6743 233.842 56.9109 230.577 56.9109C227.263 56.9109 224.493 55.699 222.267 53.2753C220.091 50.802 219.002 47.6363 219.002 43.778C219.002 39.9693 220.091 36.8283 222.267 34.355C224.493 31.8818 227.263 30.6452 230.577 30.6452C233.842 30.6452 236.587 31.8818 238.813 34.355C241.039 36.8283 242.152 39.9693 242.152 43.778C242.152 47.6363 241.039 50.7773 238.813 53.2011ZM175.81 57.6529C179.272 61.3133 183.675 63.1435 189.017 63.1435C192.677 63.1435 195.942 62.2778 198.811 60.5466C201.399 59.0115 203.481 56.9514 205.057 54.3663C205.39 53.8202 205.16 53.1167 204.585 52.8363L200.507 50.8467C199.97 50.5852 199.327 50.7887 199.003 51.2897C196.582 55.0372 193.353 56.9109 189.314 56.9109C186.148 56.9109 183.427 55.8227 181.152 53.6462C179.143 51.7249 177.983 49.2638 177.67 46.2631C177.601 45.595 178.145 45.0394 178.817 45.0394H205.02C205.665 45.0394 206.209 44.5509 206.237 43.9065C206.451 38.8805 204.819 33.3547 201.408 29.6806C198.242 26.1686 193.963 24.4126 188.572 24.4126C183.328 24.4126 179.025 26.2675 175.661 29.9774C172.298 33.6378 170.616 38.238 170.616 43.778C170.616 49.3675 172.347 53.9925 175.81 57.6529ZM179.597 39.4004C178.834 39.4004 178.264 38.6915 178.505 37.9676C179.175 35.9576 180.256 34.3082 181.746 33.0195C183.625 31.4366 185.851 30.6452 188.423 30.6452C191.54 30.6452 194.013 31.4861 195.843 33.1679C197.396 34.5161 198.374 36.1681 198.78 38.1237C198.921 38.8047 198.365 39.4004 197.669 39.4004H179.597ZM167.508 25.5998C168.232 25.5998 168.746 26.3054 168.523 26.9944L157.488 61.2167C157.346 61.6575 156.936 61.9563 156.473 61.9563H151.051C150.589 61.9563 150.179 61.6584 150.036 61.2185L142.183 37.0146C141.882 36.0876 140.57 36.0892 140.271 37.0169L132.484 61.2161C132.342 61.6572 131.931 61.9563 131.468 61.9563H126.122C125.659 61.9563 125.249 61.6575 125.107 61.2167L114.072 26.9944C113.85 26.3054 114.363 25.5998 115.087 25.5998H119.947C120.42 25.5998 120.837 25.9114 120.971 26.3653L127.923 49.9655C128.201 50.9103 129.532 50.9316 129.84 49.9962L137.643 26.3327C137.787 25.8953 138.196 25.5998 138.656 25.5998H144.159C144.621 25.5998 145.03 25.8965 145.174 26.3352L152.906 49.9806C153.213 50.9179 154.546 50.8982 154.824 49.9522L161.773 26.3653C161.907 25.9114 162.323 25.5998 162.797 25.5998H167.508ZM387.434 62.5499C384.467 62.5499 381.993 61.6348 380.015 59.8046C378.086 57.9744 377.096 55.427 377.047 52.1623V32.8367C377.047 32.282 376.597 31.8323 376.043 31.8323H371.67C371.116 31.8323 370.666 31.3827 370.666 30.828V26.6041C370.666 26.0494 371.116 25.5998 371.67 25.5998H376.043C376.597 25.5998 377.047 25.1501 377.047 24.5954V9.83297C377.047 9.27828 377.497 8.82861 378.051 8.82861H382.869C383.423 8.82861 383.873 9.27828 383.873 9.83297V24.5954C383.873 25.1501 384.323 25.5998 384.877 25.5998H391.772C392.327 25.5998 392.777 26.0494 392.777 26.6041V30.828C392.777 31.3827 392.327 31.8323 391.772 31.8323H384.877C384.323 31.8323 383.873 32.282 383.873 32.8367V49.9364C383.873 52.3602 384.343 54.0172 385.283 54.9076C386.223 55.7485 387.286 56.1689 388.473 56.1689C389.017 56.1689 389.537 56.1195 390.031 56.0206C390.192 55.9769 390.347 55.931 390.499 55.8831C391.057 55.7064 391.682 55.9731 391.877 56.5253L393.334 60.6447C393.518 61.1652 393.249 61.7398 392.717 61.8899C391.159 62.3299 389.398 62.5499 387.434 62.5499ZM287.499 47.5621C287.499 52.0139 285.842 55.7238 282.528 58.6916C279.263 61.6595 275.207 63.1435 270.36 63.1435C266.551 63.1435 263.113 62.0058 260.046 59.7304C257.196 57.5587 255.194 54.787 254.04 51.4152C253.855 50.8729 254.138 50.2896 254.668 50.0691L258.794 48.3496C259.42 48.0887 260.13 48.4362 260.358 49.0748C261.157 51.3119 262.315 53.083 263.83 54.3882C265.661 55.8722 267.837 56.6141 270.36 56.6141C273.13 56.6141 275.529 55.7485 277.557 54.0172C279.535 52.2365 280.525 50.0848 280.525 47.5621C280.525 45.0394 279.486 42.9124 277.408 41.1812C275.38 39.4499 272.932 38.5843 270.063 38.5843H266.815C266.191 38.5843 265.685 38.0784 265.685 37.4544V33.3332C265.685 32.7092 266.191 32.2033 266.815 32.2033H269.544C272.264 32.2033 274.49 31.4613 276.221 29.9774C277.952 28.444 278.818 26.4654 278.818 24.0416C278.818 21.8157 278.002 20.0103 276.37 18.6253C274.737 17.2402 272.586 16.5477 269.914 16.5477C265.989 16.5477 263.195 18.3797 261.533 22.0437C261.265 22.6344 260.583 22.9384 259.985 22.6855L255.767 20.8991C255.213 20.6644 254.936 20.0344 255.177 19.4829C256.34 16.8213 258.111 14.6311 260.491 12.9121C263.163 10.983 266.304 10.0184 269.914 10.0184C274.416 10.0184 278.2 11.3539 281.267 14.025C284.284 16.5972 285.793 19.9361 285.793 24.0416C285.793 28.3716 284.014 32.0634 280.456 34.5017C279.862 34.9089 279.878 35.8471 280.506 36.1994C283.48 37.8664 284.493 39.1817 285.199 40.2166C286.732 42.393 287.499 44.8415 287.499 47.5621ZM302.357 45.8556C300.527 47.1911 299.612 48.8482 299.612 50.8268C299.612 52.6075 300.354 54.0914 301.838 55.2786C303.371 56.4657 305.152 57.0593 307.18 57.0593C310.049 57.0593 312.596 55.9958 314.822 53.8688C316.952 51.8781 318.085 49.5624 318.221 46.9218C318.239 46.5767 318.08 46.2466 317.797 46.0484C315.707 44.5843 312.885 43.8522 309.332 43.8522C306.562 43.8522 304.237 44.52 302.357 45.8556ZM308.441 24.4126C313.487 24.4126 317.469 25.7729 320.387 28.4935C323.305 31.1646 324.765 34.8497 324.765 39.5488V60.952C324.765 61.5066 324.315 61.9563 323.76 61.9563H318.943C318.388 61.9563 317.939 61.5066 317.939 60.952V56.9109C315.119 61.066 311.36 63.1435 306.661 63.1435C302.654 63.1435 299.29 61.9563 296.57 59.582C293.899 57.2077 292.563 54.2398 292.563 50.6784C292.563 46.9191 293.973 43.9264 296.792 41.7005C299.661 39.4746 303.47 38.3617 308.219 38.3617C311.516 38.3617 314.339 38.8519 316.688 39.8324C317.398 40.1288 318.235 39.633 318.169 38.8665C317.977 36.6366 317.307 34.6622 315.416 33.0195C313.536 31.3377 311.335 30.4968 308.812 30.4968C305.322 30.4968 302.495 31.8472 300.334 34.5479C299.998 34.9677 299.402 35.0938 298.947 34.8073L294.641 32.0967C294.156 31.7912 294.023 31.14 294.377 30.6894C297.67 26.5049 302.358 24.4126 308.441 24.4126ZM363.301 61.9563C363.891 61.9563 364.368 61.4785 364.368 60.8892V26.6669C364.368 26.0775 363.891 25.5998 363.301 25.5998H358.609C358.02 25.5998 357.542 26.0775 357.542 26.6669V45.7072C357.542 48.774 356.627 51.4203 354.797 53.6462C352.967 55.8227 350.691 56.9109 347.971 56.9109C342.134 56.9109 339.141 53.943 338.993 48.0073V26.6669C338.993 26.0775 338.515 25.5998 337.926 25.5998H333.234C332.645 25.5998 332.167 26.0775 332.167 26.6669V48.4525C332.167 53.1516 333.354 56.7873 335.728 59.3594C338.152 61.8821 341.59 63.1435 346.042 63.1435C348.367 63.1435 350.593 62.5499 352.72 61.3627C353.934 60.7005 354.971 59.946 355.831 59.099C356.379 58.5596 357.542 58.9283 357.542 59.6972V60.8892C357.542 61.4785 358.02 61.9563 358.609 61.9563H363.301ZM400.637 8.82861C400.082 8.82861 399.632 9.27828 399.632 9.83297V60.952C399.632 61.5066 400.082 61.9563 400.637 61.9563H405.454C406.009 61.9563 406.458 61.5066 406.458 60.952V42.1457C406.458 39.0789 407.398 36.4078 409.278 34.1324C411.207 31.8076 413.557 30.6452 416.327 30.6452C422.114 30.6452 425.008 33.9098 425.008 40.4392V60.952C425.008 61.5066 425.457 61.9563 426.012 61.9563H430.829C431.384 61.9563 431.834 61.5066 431.834 60.952V39.1036C431.834 34.4045 430.622 30.7936 428.198 28.2709C425.824 25.6987 422.411 24.4126 417.959 24.4126C415.634 24.4126 413.384 25.0062 411.207 26.1934C410.024 26.8538 409.009 27.6062 408.162 28.4504C407.618 28.9934 406.458 28.6278 406.458 27.8589V9.83297C406.458 9.27828 406.009 8.82861 405.454 8.82861H400.637Z" fill="#0F1222"/>
<path fill-rule="evenodd" clip-rule="evenodd" d="M77.2211 57.0219C76.6892 59.007 73.8724 59.007 73.3405 57.0219L67.1453 33.9011C67.0256 33.4541 67.0256 32.9834 67.1453 32.5364L72.6354 12.0473C73.1207 10.236 74.762 8.97656 76.6372 8.97656H84.6955C87.4197 8.97656 89.4024 11.5605 88.6974 14.1918L77.2211 57.0219ZM24.067 33.8625C24.1867 33.4155 24.1867 32.9448 24.067 32.4978L18.5873 12.0473C18.102 10.236 16.4606 8.97656 14.5855 8.97656H6.5271C3.80297 8.97656 1.82023 11.5605 2.52528 14.1918L13.9912 56.9833C14.5231 58.9684 17.3399 58.9684 17.8718 56.9833L24.067 33.8625Z" fill="#0364FF"/>
<path fill-rule="evenodd" clip-rule="evenodd" d="M41.5194 61.6803C41.3378 62.358 41.8485 63.0236 42.5501 63.0236H48.6957C49.3974 63.0236 49.9081 62.358 49.7265 61.6803L46.6537 50.2124C46.3711 49.1579 44.8747 49.1579 44.5922 50.2124L41.5194 61.6803Z" fill="#0364FF"/>
<path fill-rule="evenodd" clip-rule="evenodd" d="M35.4001 69.0224C34.9295 70.7787 33.3379 72 31.5196 72H23.2013C20.5597 72 18.6371 69.4943 19.3207 66.9428L36.3853 3.2568C36.9001 1.33579 38.6409 0 40.6297 0H50.5295C52.5183 0 54.2591 1.33579 54.7739 3.2568L71.8385 66.9428C72.5221 69.4943 70.5995 72 67.9579 72H59.6396C57.8213 72 56.2297 70.7787 55.7591 69.0224L47.4592 38.047C46.944 36.124 44.2152 36.124 43.7 38.047L35.4001 69.0224Z" fill="#0364FF"/>
<path fill-rule="evenodd" clip-rule="evenodd" d="M77.2445 57.0218C76.7126 59.0069 73.8958 59.0069 73.3639 57.0218L67.1687 33.901C67.0489 33.4539 67.0489 32.9833 67.1687 32.5362L75.064 3.0707C75.5493 1.25945 77.1907 0 79.0658 0H87.1242C89.8483 0 91.831 2.58396 91.126 5.21526L77.2445 57.0218ZM24.0904 33.8624C24.2101 33.4154 24.2101 32.9447 24.0904 32.4977L16.2054 3.0707C15.7201 1.25945 14.0788 0 12.2036 0H4.14526C1.42114 0 -0.561606 2.58396 0.143449 5.21526L14.0146 56.9832C14.5465 58.9683 17.3633 58.9683 17.8952 56.9832L24.0904 33.8624Z" fill="#0364FF"/>
</svg>
