<svg clip-rule="evenodd" fill-rule="evenodd" stroke-linejoin="round" stroke-miterlimit="2" viewBox="0 0 560 400" xmlns="http://www.w3.org/2000/svg"><g fill="#2d47b4" fill-rule="nonzero" transform="matrix(.814068 0 0 .814068 76.4839 151.157)"><path d="m55.474 114.9c-.103.001-.187.085-.187.188s.085.188.188.188.188-.084.188-.187c0-.104-.085-.189-.189-.189zm-5.235-1.815h-.004c-.205 0-.374.168-.374.373v.004c0 .207.171.377.378.377s.377-.17.377-.377-.17-.377-.377-.377zm-5.037-2.359c-.302.012-.543.264-.543.565 0 .302.241.553.543.566.008 0 .016.001.024.001.31 0 .566-.256.566-.567 0-.31-.256-.566-.566-.566-.008 0-.016 0-.024.001zm-4.78-2.879c-.413.002-.752.342-.752.756s.341.755.755.755c.415 0 .756-.341.756-.755v-.001c0-.414-.341-.755-.755-.755-.001 0-.003 0-.004 0zm-4.468-3.361c0-.001 0-.001-.001-.001-.518 0-.944.427-.944.945s.426.944.944.944.945-.426.945-.944v-.001c0-.518-.426-.943-.944-.943zm-4.112-3.822c-.62.001-1.129.512-1.129 1.132 0 .621.511 1.133 1.133 1.133.62 0 1.13-.51 1.132-1.13 0-.001 0-.002 0-.004 0-.621-.511-1.131-1.131-1.131-.002 0-.003 0-.005 0zm-3.705-4.229c-.722.004-1.314.599-1.314 1.322 0 .725.596 1.321 1.321 1.321s1.322-.596 1.322-1.321c0-.725-.597-1.322-1.322-1.322-.002 0-.004 0-.007 0zm-3.254-4.607c-.83 0-1.513.683-1.513 1.513s.683 1.513 1.513 1.513 1.512-.683 1.512-1.513c.001 0 .001-.001.001-.001 0-.829-.683-1.512-1.512-1.512-.001 0-.001 0-.001 0zm-.968-3.279c0-.933-.768-1.7-1.701-1.7s-1.701.767-1.701 1.7.767 1.7 1.7 1.701c.932-.002 1.699-.768 1.702-1.701zm-1.824-5.101c0-.001 0-.001 0-.001 0-1.037-.853-1.89-1.89-1.89-1.036 0-1.89.853-1.89 1.89 0 1.035.852 1.888 1.887 1.89h.002c1.037 0 1.89-.853 1.891-1.889zm-1.137-5.32c0-1.141-.939-2.079-2.079-2.079-1.141 0-2.079.938-2.079 2.079 0 1.14.938 2.079 2.079 2.079 1.14-.001 2.078-.939 2.079-2.079zm-.429-5.441v-.004c0-1.244-1.023-2.267-2.267-2.267-1.243 0-2.267 1.023-2.267 2.267 0 1.243 1.024 2.267 2.267 2.267h.004c1.242 0 2.263-1.022 2.263-2.263zm-2.167-3.033c1.346 0 2.454-1.107 2.454-2.453s-1.108-2.453-2.454-2.453c-1.345 0-2.453 1.107-2.453 2.453s1.108 2.453 2.453 2.453z"/><path d="m16.53 61.784c.001 1.45 1.194 2.642 2.644 2.642 1.451 0 2.645-1.193 2.645-2.644s-1.194-2.644-2.645-2.644h-.003c-1.449 0-2.641 1.192-2.641 2.641zm79.364 40.497h-.001c-.092 0-.168.076-.168.168s.076.167.168.167.168-.075.168-.167c0-.001 0-.001 0-.001-.002-.091-.076-.165-.167-.167zm-4.856 2.383c-.002 0-.004 0-.005 0-.182 0-.332.149-.332.331-.001.006-.001.012-.001.018 0 .185.152.337.336.337.185 0 .337-.152.337-.337 0-.006-.001-.012-.001-.018-.001-.183-.152-.332-.334-.331zm-5.095 1.86c-.274.002-.498.228-.498.502 0 .273.224.499.498.502h.004c.275 0 .502-.227.502-.502 0-.276-.227-.502-.502-.502-.002 0-.003 0-.004 0zm-5.282 1.312c-.356.014-.642.311-.642.668s.286.654.642.668c.009.001.018.001.026.001.367 0 .669-.302.669-.669 0-.366-.302-.668-.669-.668-.008 0-.017 0-.026 0zm-5.405.745c-.003 0-.005 0-.008 0-.459 0-.836.378-.836.837 0 .458.377.836.836.836s.836-.378.836-.836c0-.001 0-.002 0-.003-.002-.454-.373-.829-.828-.834zm-5.472.174c-.55 0-1.002.452-1.002 1.002 0 .549.452 1.002 1.002 1.002.548 0 1-.451 1.001-1 0-.002 0-.003 0-.005 0-.548-.45-.999-.998-.999-.001 0-.002 0-.003 0zm-5.484-.4c-.64.001-1.165.528-1.165 1.168 0 .641.527 1.168 1.168 1.168s1.168-.527 1.168-1.168c0-.001 0-.002 0-.002 0-.64-.526-1.166-1.166-1.166-.002 0-.003 0-.005 0zm-5.417-.99c-.733 0-1.336.603-1.336 1.336s.603 1.336 1.336 1.336c.732 0 1.336-.603 1.336-1.336 0-.002 0-.005 0-.007-.003-.731-.606-1.33-1.336-1.329zm-5.277-1.668c-.822.001-1.498.678-1.498 1.5 0 .824.677 1.501 1.5 1.501.824 0 1.501-.677 1.501-1.501 0 0 0-.001 0-.002-.002-.822-.68-1.498-1.503-1.498zm-5.028-2.349c-.001 0-.002 0-.003 0-.916 0-1.67.754-1.67 1.669 0 .916.754 1.669 1.67 1.669.915 0 1.669-.753 1.669-1.669v-.002c0-.914-.752-1.666-1.666-1.667zm-2.865-1.159c0-1.009-.831-1.84-1.84-1.84-1.01 0-1.84.831-1.84 1.84s.83 1.84 1.84 1.84h.006c1.006 0 1.834-.828 1.834-1.834 0-.002 0-.004 0-.006zm-6.122-5.416c-.001 0-.001 0-.002 0-1.098 0-2.001.903-2.001 2.001s.903 2.001 2.001 2.001 2.001-.903 2.001-2.001v-.001c-.003-1.096-.903-1.996-1.999-2zm-3.809-4.118c-.001-.001-.002-.001-.003-.001-1.191 0-2.172.981-2.172 2.172 0 1.192.981 2.172 2.172 2.172 1.192 0 2.172-.98 2.172-2.172 0-1.191-.978-2.17-2.169-2.171zm-3.258.1h.005c1.282 0 2.337-1.056 2.337-2.338s-1.055-2.338-2.337-2.338-2.337 1.055-2.338 2.337v.006c0 1.28 1.053 2.333 2.333 2.333zm-.156-7.133c-.001-1.371-1.129-2.499-2.501-2.499s-2.501 1.129-2.501 2.501 1.129 2.501 2.5 2.501c1.373 0 2.502-1.13 2.502-2.503zm83.161-20.848c-.081 0-.149.065-.152.146.001.084.069.152.152.154.082-.001.149-.069.149-.15v-.004c0-.08-.066-.146-.146-.146-.001 0-.002 0-.003 0zm-1.63 5.087h-.002c-.163 0-.297.135-.297.298s.134.297.297.297.298-.134.298-.297v-.002c0-.162-.134-.296-.296-.296zm-2.172 4.883c-.245.002-.447.204-.447.45 0 .247.204.45.45.45.247 0 .45-.203.45-.45v-.001c-.001-.246-.203-.449-.45-.449-.001 0-.002 0-.003 0zm-2.688 4.636c-.326.001-.594.269-.594.595 0 .327.269.596.596.596s.596-.269.596-.596c0 0 0 0 0-.001-.001-.326-.269-.594-.596-.594-.001 0-.001 0-.002 0zm-3.176 4.317c-.407.003-.741.34-.741.747 0 .41.337.747.747.747.409 0 .746-.336.747-.745 0-.411-.339-.749-.75-.749-.001 0-.002 0-.003 0zm-3.63 3.96c-.001 0-.001 0-.001 0-.493 0-.898.405-.898.897 0 .493.405.898.898.898.492 0 .897-.405.897-.898 0 0 0 0 0-.001 0-.492-.405-.896-.896-.896zm-4.042 3.562c-.572.002-1.041.473-1.041 1.045 0 .574.472 1.046 1.045 1.046.574 0 1.046-.472 1.046-1.046v-.004c0-.571-.47-1.041-1.042-1.041-.003 0-.005 0-.008 0zm-4.412 3.099c-.002 0-.004 0-.007 0-.656 0-1.196.54-1.196 1.197 0 .656.54 1.197 1.196 1.197s1.196-.539 1.197-1.195c-.001-.654-.536-1.193-1.19-1.199zm-4.789 2.52c-.001 0-.002 0-.003 0-.739 0-1.346.607-1.346 1.346 0 .738.607 1.346 1.346 1.346.738 0 1.346-.608 1.346-1.346 0-.001 0-.002 0-.002-.003-.736-.607-1.341-1.343-1.344zm-5.104 1.864c-.001 0-.003 0-.005 0-.821 0-1.497.676-1.497 1.497 0 .822.676 1.498 1.497 1.498.822 0 1.498-.676 1.498-1.498 0-.001 0-.002 0-.003-.001-.818-.674-1.492-1.493-1.494zm-5.32 1.178c-.001 0-.002 0-.003 0-.903 0-1.645.743-1.645 1.646s.742 1.646 1.645 1.646c.902 0 1.645-.742 1.646-1.644-.001-.902-.741-1.644-1.643-1.648zm-5.449.465s0 0-.001 0c-.984 0-1.794.809-1.794 1.793s.81 1.794 1.794 1.794c.983 0 1.792-.807 1.794-1.79.001-.984-.808-1.796-1.793-1.797zm-3.539 1.695c0-1.065-.877-1.942-1.943-1.942-1.065 0-1.942.877-1.942 1.942 0 1.066.877 1.942 1.942 1.942 1.065-.003 1.94-.877 1.943-1.942zm-5.271-.812v-.001c0-1.148-.944-2.093-2.092-2.093s-2.092.945-2.092 2.093c0 1.147.943 2.091 2.09 2.092h.003c1.147 0 2.091-.944 2.091-2.091zm-5.117-1.517c0-1.234-1.015-2.249-2.249-2.249s-2.249 1.015-2.249 2.249c0 1.233 1.015 2.249 2.249 2.249h.005c1.231 0 2.244-1.013 2.244-2.244 0-.002 0-.003 0-.005zm-4.885-2.19c-.001-1.311-1.08-2.389-2.391-2.389s-2.391 1.079-2.391 2.39c0 1.312 1.08 2.391 2.391 2.391h.003c1.31 0 2.388-1.078 2.388-2.387 0-.002 0-.003 0-.005zm48.571-72.87c.004.001.008.001.012.001.082 0 .149-.067.149-.149s-.067-.15-.149-.15c-.004 0-.008.001-.012.001-.077.006-.137.071-.137.149 0 .077.06.142.137.148zm2.555 5.009c.164 0 .3-.135.3-.3 0-.164-.136-.299-.3-.299s-.299.135-.299.298v.005c0 .162.133.296.296.296zm2.022 5.245h.001c.246 0 .448-.203.448-.448 0-.246-.202-.448-.448-.448s-.448.202-.448.448v.001c0 .245.202.447.447.447zm1.481 5.429h.003c.329 0 .599-.27.599-.599 0-.328-.27-.599-.599-.599-.328 0-.599.271-.599.599v.003c0 .327.269.596.596.596zm.167 4.811c.001.409.338.744.747.744.41 0 .747-.337.747-.747s-.337-.747-.747-.747c-.001 0-.002 0-.002 0-.41.002-.746.34-.745.75zm1.086 4.573c-.491.001-.894.406-.894.897s.404.896.896.896c.491 0 .895-.403.897-.894 0-.493-.406-.899-.899-.899zm-.238 5.33c-.575 0-1.048.473-1.048 1.048 0 .576.474 1.049 1.049 1.049s1.049-.473 1.049-1.049v-.004c0-.573-.472-1.044-1.045-1.044-.002 0-.003 0-.005 0zm-.819 5.276c-.655.002-1.193.541-1.193 1.196 0 .656.54 1.196 1.196 1.196s1.196-.54 1.196-1.196c0-.001 0-.002 0-.002 0-.655-.539-1.194-1.194-1.194-.001 0-.003 0-.005 0zm-.157 6.468c-.001-.738-.608-1.345-1.346-1.345-.739 0-1.346.608-1.346 1.346 0 .739.607 1.346 1.346 1.346h.005c.736 0 1.341-.605 1.341-1.341 0-.002 0-.004 0-.006zm-3.529 3.538c-.819 0-1.494.674-1.494 1.494s.675 1.494 1.494 1.494c.82 0 1.495-.674 1.495-1.494 0-.001 0-.001 0-.002 0-.819-.674-1.492-1.492-1.492-.001 0-.002 0-.003 0zm-2.823 4.552c-.9.001-1.64.742-1.64 1.643s.741 1.642 1.642 1.642 1.643-.741 1.643-1.642c0-.901-.742-1.643-1.643-1.643 0 0-.001 0-.002 0zm-3.416 4.138h-.003c-.983 0-1.792.809-1.792 1.793 0 .983.809 1.792 1.792 1.792.984 0 1.793-.809 1.793-1.792v-.003c0-.982-.808-1.79-1.79-1.79zm-3.948 3.652c-1.066 0-1.942.877-1.942 1.942s.876 1.942 1.942 1.942c1.065 0 1.942-.877 1.942-1.942s-.877-1.942-1.942-1.942zm-4.408 3.109c-1.146.001-2.09.945-2.09 2.092s.944 2.091 2.091 2.091 2.09-.942 2.092-2.088c0-.001 0-.002 0-.002 0-1.148-.945-2.093-2.093-2.093zm-4.795 2.504c-.001 0-.002 0-.002 0-1.231 0-2.244 1.013-2.244 2.244s1.013 2.244 2.244 2.244c1.228 0 2.24-1.01 2.243-2.239 0-.002 0-.004 0-.006 0-1.23-1.011-2.242-2.241-2.243zm-5.104 1.862c-1.311.001-2.39 1.08-2.39 2.392s1.08 2.391 2.392 2.391 2.392-1.079 2.392-2.391c0-.001 0-.001 0-.001-.001-1.313-1.082-2.392-2.394-2.391zm-15.595-85.128c.081-.001.147-.068.147-.149 0-.082-.067-.15-.149-.15-.081 0-.149.067-.149.148 0 .083.068.151.15.151zm5.236 1.78c.163-.001.297-.136.297-.299 0-.164-.135-.3-.299-.3s-.299.135-.3.299v.001c0 .164.135.299.3.299zm5.037 2.317c.245-.001.447-.203.447-.449s-.202-.449-.448-.449c-.247 0-.449.203-.449.449v.002c.001.246.204.447.45.447zm4.779 2.84c.327-.001.596-.271.596-.598 0-.328-.27-.598-.598-.598s-.598.27-.598.598v.001c0 .328.27.597.597.597zm4.468 3.322c.409 0 .745-.336.745-.745s-.336-.745-.745-.745-.745.336-.745.745v.002c0 .407.335.743.743.743zm4.109 3.783h.005c.493 0 .898-.406.898-.899 0-.492-.405-.898-.898-.898s-.898.405-.898.897c0 .491.402.896.893.9zm3.711 4.191c.574-.002 1.046-.474 1.046-1.048 0-.575-.473-1.048-1.048-1.048s-1.047.473-1.047 1.048v.005c.002.574.475 1.044 1.049 1.043zm3.255 4.568c.656 0 1.196-.54 1.196-1.196 0-.657-.541-1.197-1.197-1.197s-1.197.539-1.197 1.196v.002c0 .656.54 1.195 1.196 1.195zm2.666 4.936c.736-.002 1.339-.608 1.339-1.344 0-.737-.606-1.344-1.344-1.344-.737 0-1.344.607-1.344 1.344.001.738.609 1.344 1.346 1.344zm.519 3.753v.004c0 .82.675 1.495 1.495 1.495s1.495-.675 1.495-1.495-.674-1.495-1.494-1.496c-.002 0-.003 0-.005 0-.818 0-1.491.673-1.491 1.492zm1.177 5.327c.002.901.744 1.641 1.645 1.641.902 0 1.644-.742 1.644-1.644s-.741-1.644-1.643-1.645c-.002 0-.004 0-.005 0-.9 0-1.641.741-1.641 1.641zm.463 5.447c.001.985.811 1.795 1.796 1.795s1.796-.811 1.796-1.796-.811-1.796-1.796-1.796h-.002c-.984 0-1.794.81-1.794 1.794zm3.635 5.477c0-1.065-.877-1.942-1.942-1.942-1.066 0-1.942.877-1.942 1.942 0 1.066.876 1.943 1.942 1.943 1.065-.001 1.942-.877 1.942-1.943zm-.664 5.425c-.001-1.148-.945-2.091-2.093-2.091s-2.092.944-2.092 2.092.944 2.092 2.092 2.092h.004c1.147-.001 2.09-.946 2.089-2.093zm-1.36 5.27c0-1.23-1.012-2.243-2.242-2.243-1.231 0-2.243 1.013-2.243 2.243 0 1.228 1.008 2.239 2.236 2.243h.006c1.23 0 2.243-1.013 2.243-2.243zm-4.434 2.634c-1.311.002-2.389 1.082-2.389 2.393 0 1.312 1.081 2.393 2.393 2.393 1.313 0 2.393-1.081 2.393-2.393-.001-1.313-1.081-2.393-2.394-2.393-.001 0-.002 0-.003 0zm-73.014-48.423c.081 0 .148-.067.148-.148 0-.082-.066-.149-.148-.15-.082 0-.15.067-.15.15v.001c0 .081.066.147.147.147zm4.852-2.4c.163-.001.296-.135.296-.297 0-.164-.135-.298-.298-.298s-.297.134-.297.298v.002c.001.162.135.295.297.295zm5.096-1.875h.004c.247 0 .45-.203.45-.45 0-.248-.203-.451-.45-.451-.248 0-.451.203-.451.451v.003c0 .245.201.447.447.447zm5.28-1.33c.327-.002.595-.271.595-.598 0-.328-.27-.598-.598-.598s-.598.27-.598.598v.004c0 .326.268.594.594.594zm5.407-.766c.409-.001.745-.338.745-.747 0-.41-.337-.747-.747-.747-.409 0-.746.336-.747.745v.004c0 .409.336.745.745.745zm5.473-.189c.492-.001.896-.406.896-.897 0-.493-.405-.898-.898-.898-.492 0-.897.405-.897.898v.005c0 .489.403.892.892.892zm5.476.383h.005c.574 0 1.046-.472 1.046-1.045 0-.574-.472-1.046-1.046-1.046s-1.046.472-1.046 1.046v.005c0 .571.47 1.04 1.041 1.04zm5.428.971c.656 0 1.195-.54 1.195-1.196s-.539-1.196-1.195-1.196c-.655 0-1.195.538-1.196 1.193v.006c0 .655.538 1.193 1.192 1.193zm5.273 1.653h.001c.738 0 1.345-.607 1.345-1.345s-.607-1.345-1.345-1.345-1.345.606-1.345 1.344c.002.737.607 1.342 1.344 1.346zm5.03 2.332h.005c.82 0 1.495-.675 1.495-1.496 0-.82-.675-1.495-1.495-1.495-.821 0-1.496.675-1.496 1.495v.003c0 .818.673 1.491 1.491 1.493zm3.056 1.328v.002c0 .902.742 1.644 1.643 1.644.902 0 1.644-.742 1.644-1.644 0-.901-.742-1.643-1.644-1.643-.901-.001-1.643.74-1.643 1.641zm5.933 5.213c.982-.003 1.788-.811 1.788-1.793 0-.983-.809-1.792-1.793-1.792-.982 0-1.791.807-1.793 1.789v.001c0 .985.811 1.795 1.795 1.795zm3.808 4.098c1.065 0 1.942-.877 1.942-1.942 0-1.066-.877-1.942-1.942-1.942-1.066 0-1.942.876-1.942 1.942 0 1.065.876 1.942 1.942 1.942zm3.252.371c-1.148 0-2.092.945-2.092 2.092 0 1.148.944 2.093 2.092 2.093s2.092-.945 2.092-2.093c0 0 0 0 0-.001 0-1.147-.944-2.091-2.091-2.091zm.418 6.891c.002 1.228 1.012 2.237 2.24 2.237s2.239-1.011 2.239-2.24c0-1.228-1.011-2.239-2.239-2.239h-.003c-1.227 0-2.237 1.009-2.237 2.236zm1.856 5.098v.002c0 1.311 1.08 2.391 2.391 2.391 1.312 0 2.391-1.08 2.391-2.391 0-1.31-1.077-2.389-2.387-2.391-1.311-.001-2.392 1.077-2.395 2.389zm3.711 2.778c-.001 0-.001 0-.001 0-1.395 0-2.542 1.147-2.542 2.542 0 1.394 1.147 2.542 2.542 2.542 1.394 0 2.542-1.148 2.542-2.542-.001-1.394-1.147-2.541-2.541-2.542zm-88.987 12.541c-.006-.001-.012-.001-.017-.001-.155 0-.282.128-.282.282 0 .155.127.283.282.283.005 0 .011-.001.017-.001.005 0 .011.001.017.001.154 0 .282-.128.282-.283 0-.154-.128-.282-.282-.282-.006 0-.012 0-.017.001zm1.633-5.518c-.001 0-.002 0-.003 0-.31 0-.564.255-.564.565 0 .309.254.564.564.564.309 0 .564-.254.564-.563-.001-.309-.253-.562-.561-.566zm3.016-4.47c0-.002 0-.003 0-.004 0-.465-.383-.848-.848-.848s-.848.383-.848.848.381.848.846.849c.465 0 .848-.381.85-.845zm1.838-3.654c.617 0 1.124-.507 1.124-1.124s-.507-1.124-1.124-1.124-1.124.507-1.124 1.124c.003.616.509 1.121 1.124 1.124zm3.176-4.187h.003c.773 0 1.409-.637 1.409-1.41s-.636-1.409-1.409-1.409-1.41.636-1.41 1.409v.003c0 .772.635 1.407 1.407 1.407zm3.632-3.831c.927 0 1.69-.763 1.69-1.691 0-.927-.763-1.69-1.69-1.69-.928 0-1.691.763-1.691 1.69 0 .928.763 1.691 1.691 1.691zm4.041-3.42h.004c1.085 0 1.977-.893 1.977-1.977 0-1.085-.892-1.977-1.977-1.977-1.084 0-1.977.892-1.977 1.977-.001 1.083.89 1.975 1.973 1.977zm4.405-2.978h.008c1.237 0 2.255-1.018 2.255-2.256 0-1.237-1.018-2.255-2.255-2.255-1.238 0-2.256 1.018-2.256 2.255v.002c.001 1.234 1.015 2.25 2.248 2.254zm4.774-2.422h.001c1.392 0 2.537-1.146 2.537-2.537 0-1.392-1.145-2.537-2.537-2.537-1.391 0-2.536 1.144-2.537 2.535v.002c0 1.391 1.145 2.536 2.536 2.537z"/><path d="m36.893 22.504c1.386-.006 2.571-1.034 2.773-2.405.577.831 1.527 1.327 2.538 1.327 1.159 0 2.224-.651 2.751-1.682.637.848 1.638 1.348 2.698 1.348.948 0 1.854-.4 2.493-1.101 1.153 1.628 3.436 2.028 5.074.889.133.221.291.427.47.613-.901.095-1.747.484-2.404 1.108-.722-.659-1.664-1.025-2.642-1.025-1.252 0-2.432.601-3.168 1.614-.649-.513-1.453-.791-2.28-.788-1.439.002-2.752.841-3.357 2.146-.579-.393-1.263-.604-1.962-.604-1.62 0-3.037 1.128-3.4 2.707-.513-.313-1.102-.478-1.703-.478-1.794 0-3.27 1.475-3.271 3.268v.012c-.464-.267-.99-.409-1.526-.409-1.674 0-3.051 1.378-3.051 3.052v.003c.001.286.042.572.122.847-.443-.276-.954-.424-1.476-.425-.001 0-.002 0-.002 0-1.556 0-2.837 1.28-2.837 2.836s1.281 2.837 2.837 2.837c1.555 0 2.835-1.279 2.836-2.835-.003-.237-.036-.474-.096-.704.496.324 1.076.497 1.669.497 1.635 0 2.995-1.315 3.048-2.95.522.333 1.129.51 1.748.511.057 0 .12-.008.18-.008-.707.643-1.141 1.532-1.212 2.485-.22-.042-.443-.063-.667-.063-1.968 0-3.588 1.62-3.588 3.589-.001.141.008.281.028.42-.13-.017-.262-.025-.393-.024-.001 0-.001 0-.001 0-1.864 0-3.398 1.533-3.398 3.397-.002.369.058.735.179 1.083-.07 0-.135-.01-.205-.01-.001 0-.002 0-.003 0-1.758 0-3.204 1.447-3.204 3.205 0 .593.165 1.174.475 1.679-.031-.002-.062-.002-.093 0-.001 0-.002 0-.003 0-1.656 0-3.019 1.363-3.019 3.019 0 .837.349 1.638.962 2.208-.045 0-.086-.013-.127-.013-.002 0-.004 0-.006 0-1.56 0-2.844 1.284-2.844 2.844s1.284 2.843 2.844 2.843 2.843-1.283 2.843-2.843c0-.762-.306-1.492-.848-2.026.063 0 .131.008.198.008.842 0 1.646-.352 2.215-.971v.102c-.001.748.236 1.477.677 2.08-1.325.471-2.215 1.732-2.215 3.138 0 .976.429 1.905 1.172 2.537-1.125.515-1.851 1.644-1.851 2.882 0 1.177.656 2.26 1.698 2.806-1.008.51-1.645 1.547-1.645 2.676 0 1.396.973 2.615 2.334 2.925-.954.479-1.558 1.46-1.558 2.527 0 1.552 1.277 2.83 2.829 2.83h.007c.174-.001.349-.019.52-.053-1.075.357-1.804 1.369-1.804 2.502 0 1.446 1.19 2.637 2.637 2.637s2.637-1.191 2.637-2.637c0-1.447-1.19-2.638-2.637-2.638-.01 0-.02 0-.031.001-.163 0-.325.016-.485.047 1.184-.36 2.001-1.458 2.003-2.696 0-.071-.016-.132-.022-.204.445.489 1.029.83 1.674.977-.484.567-.75 1.288-.75 2.033 0 1.718 1.414 3.132 3.132 3.132h.079c-.37.509-.57 1.124-.57 1.754 0 1.637 1.347 2.983 2.984 2.983h.008c.294-.001.586-.044.867-.128-.308.465-.472 1.011-.472 1.569 0 1.556 1.28 2.838 2.837 2.84.643-.001 1.267-.225 1.765-.633-.421.488-.652 1.111-.652 1.755 0 1.474 1.213 2.687 2.687 2.687s2.687-1.213 2.687-2.687c0-.692-.266-1.357-.744-1.857.352-.006.701-.066 1.034-.178v.037c.001 1.233.694 2.366 1.792 2.928-.162-.036-.327-.053-.493-.053-.005 0-.01 0-.016 0-1.41 0-2.57 1.16-2.57 2.57s1.16 2.57 2.57 2.57 2.57-1.16 2.57-2.57c0-.944-.521-1.816-1.353-2.263.258.067.523.101.789.102.614 0 1.216-.172 1.737-.498.132 1.618 1.501 2.879 3.124 2.879.855 0 1.674-.35 2.265-.968.23 1.444 1.487 2.517 2.949 2.517 1.102 0 2.117-.609 2.636-1.581.266 1.317 1.434 2.273 2.777 2.273 1.443 0 2.667-1.103 2.818-2.538.096 1.399 1.274 2.499 2.677 2.499 1.472 0 2.683-1.211 2.683-2.683 0-1.45-1.176-2.652-2.626-2.683.245-.256.449-.547.607-.863.868.889 2.169 1.212 3.352.834-.698.472-1.118 1.262-1.118 2.105 0 1.395 1.148 2.542 2.542 2.542 1.395 0 2.542-1.147 2.542-2.542 0-1.392-1.143-2.538-2.535-2.542-.247.003-.493.043-.728.12.759-.46 1.302-1.208 1.503-2.072.564.481 1.282.745 2.023.743 1.719-.003 3.133-1.417 3.136-3.136 0-.023-.007-.048-.007-.067.508.37 1.121.569 1.749.568h.003c1.639 0 2.988-1.349 2.989-2.988.001-.294-.042-.587-.13-.868.468.317 1.02.486 1.585.486 1.553 0 2.831-1.278 2.831-2.83 0-.65-.224-1.281-.634-1.785.482.425 1.103.659 1.746.658h.016c1.476 0 2.69-1.214 2.69-2.69s-1.214-2.69-2.69-2.69c-.005 0-.011 0-.016 0-.692 0-1.356.269-1.852.751-.008-.353-.067-.704-.176-1.04h.03c1.234-.001 2.367-.694 2.93-1.791-.033.161-.05.326-.051.49v.03c0 1.412 1.161 2.574 2.573 2.574s2.574-1.162 2.574-2.574-1.162-2.573-2.574-2.573c-.941 0-1.81.516-2.26 1.343.066-.257.1-.521.102-.787-.003-.614-.177-1.216-.501-1.737 1.617-.132 2.878-1.5 2.878-3.123 0-.855-.35-1.674-.969-2.265 1.443-.232 2.514-1.489 2.514-2.95 0-1.099-.607-2.113-1.575-2.633 1.319-.263 2.277-1.431 2.277-2.776 0-1.445-1.105-2.669-2.542-2.817 1.419-.089 2.539-1.281 2.539-2.703 0-1.486-1.223-2.709-2.709-2.709s-2.709 1.223-2.709 2.709c0 1.366 1.035 2.53 2.392 2.69-1.482.088-2.654 1.332-2.654 2.817 0 1.035.569 1.99 1.48 2.483-1.425.245-2.476 1.493-2.476 2.939 0 .79.315 1.549.873 2.108-1.547.208-2.715 1.542-2.715 3.104 0 .558.149 1.105.432 1.586-1.735.092-3.113 1.543-3.115 3.28.001.324.051.645.149.953-.05-.007-.1-.01-.151-.011-1.886 0-3.439 1.553-3.439 3.439 0 .083.005.165.014.247-.179-.03-.359-.045-.541-.045-1.774-.002-3.295 1.316-3.545 3.072-.32-.086-.649-.131-.98-.134-1.448.002-2.77.844-3.384 2.156-.584-.476-1.314-.736-2.067-.736-1.291 0-2.466.764-2.989 1.943-.623-.676-1.501-1.062-2.42-1.062-1.208 0-2.323.667-2.895 1.732-.625-.782-1.573-1.237-2.574-1.237-.903 0-1.767.371-2.389 1.025-.534-1.175-1.712-1.933-3.003-1.933-.681 0-1.347.211-1.903.604-.338-1.497-1.68-2.57-3.216-2.57-.467 0-.93.099-1.356.292-.051-1.766-1.518-3.192-3.285-3.192-.179 0-.357.015-.533.044.057-.245.086-.496.086-.748 0-1.792-1.463-3.271-3.254-3.292.18-.414.273-.86.273-1.312 0-1.472-.99-2.773-2.409-3.166.444-.576.685-1.283.685-2.01 0-1.175-.629-2.265-1.647-2.852.813-.624 1.291-1.592 1.291-2.617 0-.95-.411-1.855-1.125-2.48.859-.433 1.489-1.219 1.724-2.152.234-.927.049-1.911-.504-2.69 1.496-.337 2.568-1.676 2.568-3.209 0-.379-.065-.755-.193-1.111.056.003.112.004.168.004 1.809 0 3.297-1.488 3.297-3.296 0-.164-.013-.328-.037-.49.258.063.522.095.787.095 1.695 0 3.128-1.306 3.285-2.994.472.248.997.377 1.53.377 1.379 0 2.618-.865 3.092-2.159.688.624 1.61.926 2.533.828 1.009-.096 1.918-.659 2.453-1.519.614.878 1.62 1.403 2.692 1.403.862 0 1.69-.34 2.304-.945.497 1.247 1.71 2.07 3.052 2.07.642 0 1.27-.189 1.807-.542.185.971.795 1.809 1.663 2.282h-.006c.718.396 1.56.509 2.358.315.089.123.184.241.282.352.041.729.33 1.422.817 1.965.022.024.045.046.07.067 1.679 1.757 5.577 6.022 4.848 11.733-.185 1.423.613 2.141 1.635 1.041 6.189-6.671 5.22-14.866 5.081-15.819-.033-.61-.168-1.21-.4-1.775.072-.353.109-.713.11-1.073 0-1.653-.773-3.214-2.088-4.216.06-.315.092-.636.093-.957.001-2.067-1.261-3.936-3.177-4.709-.044-2.345-1.783-4.339-4.1-4.702-.404-2.182-2.324-3.78-4.542-3.782-.084 0-.161.008-.25.011-.582-1.799-2.269-3.026-4.161-3.025-.372 0-.742.048-1.102.145-.673-1.475-2.152-2.426-3.773-2.426-.631 0-1.254.144-1.821.421-.703-1.195-1.991-1.931-3.378-1.931-.883 0-1.741.298-2.433.846-.686-.953-1.791-1.519-2.965-1.519-1.111 0-2.163.506-2.855 1.374-.64-.792-1.606-1.254-2.624-1.254-1.326 0-2.533.782-3.077 1.991-.588-.699-1.456-1.102-2.37-1.102-1.571 0-2.906 1.194-3.08 2.756-.532-.696-1.359-1.104-2.234-1.104-1.544 0-2.814 1.27-2.814 2.814 0 1.543 1.27 2.814 2.814 2.814zm-18.945 72.739c-.118.002-.214.099-.214.217v.003c0 .118.096.216.214.22.121-.002.22-.1.223-.22-.001-.122-.102-.221-.223-.22zm-2.543-5.074h-.004c-.238 0-.434.196-.435.433 0 .239.197.436.436.436s.435-.197.435-.436c0 0 0 0 0-.001 0-.237-.195-.432-.432-.432zm-2.029-5.315h-.001c-.359 0-.655.296-.655.655 0 .36.296.655.655.655.358 0 .653-.293.655-.652.001-.36-.294-.656-.654-.658zm-1.481-5.497c-.478.001-.87.394-.87.872s.394.872.872.872.872-.394.872-.872v-.001c0-.478-.393-.871-.871-.871-.001 0-.002 0-.003 0zm.174-4.531c0-.001 0-.002 0-.003 0-.599-.493-1.092-1.092-1.092s-1.092.493-1.092 1.092.493 1.092 1.092 1.092h.003c.597-.002 1.088-.492 1.089-1.089zm-.118-5.477c-.002-.717-.592-1.306-1.309-1.306-.719 0-1.31.591-1.31 1.309 0 .717.589 1.308 1.306 1.31h.005c.718 0 1.308-.591 1.308-1.309 0-.001 0-.002 0-.004zm-2.599-5.475c0 .836.689 1.525 1.526 1.525s1.526-.689 1.526-1.526-.688-1.525-1.524-1.526c-.002 0-.003 0-.005 0-.836 0-1.523.687-1.523 1.523zm2.348-3.679c.956-.002 1.742-.789 1.742-1.746 0-.958-.788-1.746-1.745-1.746-.958 0-1.746.788-1.746 1.746v.001c0 .957.787 1.745 1.745 1.745zm1.502-8.982c-.001-.001-.002-.001-.003-.001-1.077 0-1.963.887-1.963 1.964s.886 1.963 1.963 1.963 1.964-.886 1.964-1.963c-.001-1.076-.885-1.961-1.961-1.963zm2.178-.887h.005c1.198 0 2.184-.985 2.184-2.183s-.986-2.183-2.184-2.183c-1.197 0-2.183.985-2.183 2.183v.001c.001 1.195.983 2.18 2.178 2.182z"/><path d="m18.208 45.843c1.315-.003 2.395-1.085 2.395-2.4 0-1.317-1.083-2.4-2.4-2.4s-2.4 1.083-2.4 2.4v.004c0 1.314 1.081 2.396 2.396 2.396zm6.034-6.687s0 0 0-.001c0-1.436-1.182-2.617-2.618-2.617s-2.618 1.181-2.618 2.617 1.181 2.617 2.617 2.618c1.436-.001 2.617-1.181 2.619-2.617zm134.64 41.751c-2.781.013-5.534-.544-8.092-1.635-2.462-1.053-4.698-2.57-6.586-4.469-1.883-1.914-3.386-4.169-4.427-6.644-2.179-5.196-2.179-11.056 0-16.252 2.088-4.994 6.034-8.987 11.003-11.135 5.203-2.237 11.106-2.226 16.3.03 2.498 1.105 4.763 2.674 6.674 4.625.419.435.734.959.92 1.533.235.692.137 1.456-.265 2.066-.472.706-1.158 1.095-2.045 1.153h-.028c-.972 0-1.652-.284-2.2-.844-1.571-1.318-3.286-2.455-5.111-3.391-1.9-.99-4.013-1.504-6.156-1.497-2.068-.007-4.116.412-6.015 1.231-1.835.798-3.498 1.944-4.898 3.373-1.39 1.44-2.499 3.126-3.271 4.972-1.615 3.846-1.615 8.186 0 12.032 1.542 3.717 4.478 6.688 8.177 8.273 1.897.819 3.944 1.237 6.01 1.227 2.163.013 4.304-.427 6.286-1.291 1.901-.838 3.611-2.055 5.024-3.578.437-.486 1.016-.823 1.654-.966.204-.05.413-.076.623-.078.489.002.966.155 1.365.436.657.511 1.031 1.306 1.006 2.137 0 .836-.255 1.534-.756 2.089-1.899 2.077-4.212 3.734-6.791 4.864-2.647 1.162-5.51 1.755-8.401 1.74z"/><path d="m202.3 80.838c-2.783.012-5.538-.545-8.098-1.635-2.457-1.046-4.69-2.552-6.58-4.437-1.881-1.891-3.388-4.121-4.439-6.573-2.165-5.176-2.165-11.01 0-16.186 1.057-2.46 2.562-4.702 4.439-6.611 1.886-1.898 4.12-3.415 6.58-4.467 5.173-2.178 11.012-2.178 16.186 0 4.987 2.117 8.962 6.091 11.08 11.078 2.181 5.173 2.181 11.014 0 16.186-1.047 2.462-2.561 4.698-4.459 6.584-1.911 1.875-4.155 3.377-6.616 4.43-2.558 1.09-5.313 1.645-8.093 1.631zm0-36.201c-2.064-.008-4.109.4-6.012 1.2-1.837.766-3.504 1.888-4.906 3.3-1.397 1.427-2.511 3.104-3.284 4.944-1.589 3.849-1.589 8.176 0 12.026 3.322 7.763 12.418 11.447 20.207 8.184 1.839-.773 3.516-1.887 4.942-3.283 4.403-4.449 5.713-11.14 3.311-16.92-.783-1.842-1.907-3.519-3.312-4.942-1.419-1.409-3.096-2.531-4.938-3.306-1.902-.8-3.945-1.209-6.008-1.203z"/><path d="m259.86 80.97c-.002 0-.005 0-.007 0-1.464 0-2.668-1.204-2.668-2.668 0-.001 0-.003 0-.004v-23.801c.01-1.331-.257-2.65-.785-3.873-1.042-2.417-2.974-4.343-5.394-5.378-2.468-1.06-5.267-1.06-7.735 0-1.185.514-2.261 1.25-3.169 2.169-.907.93-1.634 2.02-2.146 3.214-.528 1.221-.798 2.538-.796 3.868v23.797c.013.714-.271 1.401-.785 1.897-.496.504-1.177.784-1.884.775-.005 0-.011 0-.016 0-1.461 0-2.664-1.203-2.664-2.665 0-.002 0-.005 0-.007v-23.797c-.009-2.051.396-4.084 1.19-5.975.761-1.83 1.876-3.491 3.28-4.888 1.402-1.402 3.06-2.522 4.884-3.297 3.816-1.644 8.145-1.642 11.959.006 3.681 1.563 6.617 4.493 8.187 8.172.817 1.888 1.235 3.925 1.226 5.982v23.797c.013.709-.266 1.394-.77 1.892-.504.508-1.192.791-1.907.784zm26.277 0c-1.97.012-3.927-.322-5.781-.986-1.737-.626-3.349-1.554-4.761-2.744-1.344-1.132-2.443-2.528-3.227-4.101-.786-1.566-1.19-3.296-1.181-5.048.009-1.391 1.156-2.531 2.547-2.531 1.392 0 2.539 1.14 2.547 2.531-.003 1.036.249 2.056.734 2.97.509.95 1.206 1.784 2.05 2.454.94.728 1.995 1.293 3.121 1.674 1.253.414 2.565.621 3.884.613 1.334.006 2.66-.204 3.926-.621 1.158-.385 2.245-.954 3.22-1.686.874-.646 1.593-1.48 2.104-2.44.475-.894.688-1.905.613-2.915-.075-.966-.385-1.9-.903-2.72-.562-.894-1.274-1.685-2.105-2.337-.912-.716-1.924-1.295-3.004-1.718-1.153-.464-2.352-.8-3.578-1.004-1.767-.123-3.511-.47-5.19-1.034-1.577-.516-3.07-1.26-4.432-2.207-1.242-.856-2.302-1.951-3.116-3.22-.804-1.251-1.227-2.71-1.217-4.197-.006-1.486.385-2.947 1.134-4.231.776-1.32 1.817-2.467 3.057-3.366 1.264-.943 2.76-1.693 4.46-2.249 3.527-1.1 7.307-1.1 10.835 0 1.681.555 3.18 1.305 4.456 2.249 1.303.977 2.326 2.103 3.053 3.366.754 1.282 1.149 2.744 1.144 4.231v.005c0 1.462-1.203 2.665-2.665 2.665-.003 0-.007 0-.01 0-.722.014-1.414-.292-1.89-.834-.464-.511-.722-1.198-.78-2.044-.045-.655-.283-1.281-.685-1.799-.503-.667-1.127-1.232-1.839-1.669-.871-.536-1.815-.941-2.803-1.203-1.106-.299-2.246-.45-3.392-.448-1.179-.006-2.354.145-3.494.448-.988.255-1.932.659-2.798 1.198-.712.458-1.325 1.055-1.801 1.755-.409.582-.63 1.276-.633 1.987 0 .658.246 1.249.761 1.814.614.666 1.341 1.22 2.146 1.635.937.498 1.919.905 2.933 1.215.972.306 1.968.528 2.977.665 1.928.206 3.818.677 5.617 1.399 1.777.731 3.335 1.649 4.628 2.729 1.305 1.076 2.374 2.409 3.141 3.916.763 1.516 1.155 3.192 1.144 4.889.007 1.76-.399 3.498-1.185 5.074-.773 1.581-1.873 2.981-3.226 4.108-2.96 2.453-6.691 3.786-10.535 3.762zm26.972 0c-.004 0-.009 0-.013 0-1.462 0-2.665-1.203-2.665-2.665 0-.002 0-.004 0-.007v-36.517c-.008-.713.275-1.4.785-1.9.496-.51 1.182-.793 1.893-.78h22.282.01c1.458 0 2.658 1.2 2.658 2.658v.022c.013.708-.268 1.39-.776 1.884-.497.508-1.181.79-1.892.781h-19.609v12.785h13.883c1.467 0 2.675 1.207 2.675 2.675 0 1.467-1.208 2.675-2.675 2.675h-13.883v13.036h19.613.018c1.454 0 2.65 1.196 2.65 2.65v.027c.013.71-.268 1.395-.776 1.892-.498.507-1.182.789-1.892.78zm60.186 0c-.003 0-.007 0-.01 0-1.466 0-2.672-1.206-2.672-2.672v-23.801c.01-1.331-.257-2.651-.786-3.873-1.042-2.415-2.971-4.341-5.389-5.378-2.466-1.06-5.264-1.06-7.73 0-1.187.51-2.264 1.246-3.169 2.169-.908.93-1.639 2.018-2.159 3.209-.522 1.224-.789 2.542-.784 3.873v23.797c0 1.466-1.206 2.673-2.672 2.673-1.467 0-2.673-1.207-2.673-2.673v-23.797c-.013-6.157 3.679-11.752 9.345-14.162 3.82-1.641 8.152-1.639 11.97.007 1.821.774 3.476 1.891 4.874 3.292 1.4 1.402 2.519 3.058 3.298 4.88.818 1.888 1.236 3.925 1.227 5.983v23.797.018c0 1.458-1.2 2.658-2.658 2.658-.004 0-.008 0-.012 0zm26.279 0c-1.97.012-3.927-.322-5.781-.986-1.74-.624-3.353-1.555-4.764-2.748-1.343-1.135-2.443-2.529-3.234-4.099-.781-1.567-1.184-3.295-1.178-5.046-.005-.674.264-1.323.744-1.796.479-.479 1.13-.749 1.807-.749 1.398 0 2.55 1.147 2.556 2.545-.006 1.033.244 2.051.726 2.964.504.951 1.2 1.787 2.045 2.453.938.733 1.995 1.302 3.123 1.682 1.256.415 2.57.622 3.893.613 1.333.006 2.659-.204 3.926-.621 1.156-.384 2.241-.953 3.214-1.686.87-.652 1.588-1.485 2.105-2.441.476-.893.689-1.904.613-2.913-.078-.966-.388-1.899-.903-2.72-.562-.896-1.275-1.687-2.107-2.34-.91-.718-1.922-1.296-3.003-1.715-1.155-.466-2.357-.802-3.586-1.003-1.764-.122-3.506-.469-5.182-1.034-1.578-.514-3.073-1.258-4.435-2.207-1.24-.857-2.299-1.951-3.114-3.219-.805-1.251-1.228-2.71-1.22-4.197.001-1.485.392-2.944 1.134-4.231.78-1.321 1.824-2.467 3.066-3.367 1.271-.942 2.765-1.692 4.452-2.248 3.527-1.099 7.307-1.099 10.835 0 1.686.555 3.183 1.305 4.458 2.248 1.24.899 2.28 2.046 3.053 3.367.751 1.283 1.146 2.744 1.144 4.231.006.713-.281 1.398-.793 1.895-.49.511-1.174.792-1.882.775-.725.014-1.42-.293-1.897-.84-.459-.499-.722-1.187-.773-2.028-.046-.655-.285-1.281-.687-1.799-.506-.667-1.132-1.235-1.846-1.674-.868-.537-1.811-.943-2.799-1.203-1.107-.305-2.251-.456-3.399-.448-1.179-.004-2.354.147-3.495.448-.985.252-1.926.656-2.787 1.198-.712.458-1.325 1.055-1.802 1.755-.409.582-.631 1.276-.635 1.987 0 .66.253 1.249.756 1.813.621.665 1.352 1.218 2.159 1.636.938.5 1.922.907 2.938 1.215.968.304 1.959.526 2.964.665 1.93.205 3.822.676 5.622 1.399 1.674.668 3.237 1.588 4.632 2.729 1.298 1.076 2.364 2.405 3.132 3.907.768 1.517 1.164 3.197 1.153 4.898.007 1.758-.396 3.494-1.177 5.069-.781 1.579-1.883 2.979-3.234 4.108-2.959 2.449-6.688 3.779-10.528 3.755zm40.28 0c-.004 0-.009 0-.013 0-1.462 0-2.665-1.203-2.665-2.665 0-.002 0-.004 0-.007v-13.612l-16.461-21.271c-.441-.539-.649-1.232-.576-1.925.044-.701.387-1.352.941-1.785.484-.399 1.092-.616 1.718-.614.928.065 1.542.398 2.003.967l15.067 19.371 15.352-19.369c.434-.561 1.088-.91 1.795-.958h.045c.818 0 1.392.204 1.884.593.563.436.914 1.09.967 1.799.055.695-.16 1.384-.599 1.924l-16.783 21.273v13.603c.014.713-.268 1.4-.779 1.897-.499.507-1.184.788-1.896.779zm40.195 0c-1.972.011-3.931-.322-5.788-.986-1.736-.626-3.346-1.555-4.756-2.744-1.341-1.137-2.44-2.531-3.232-4.101-.783-1.565-1.186-3.293-1.176-5.043 0-.001 0-.002 0-.002 0-1.397 1.149-2.546 2.545-2.546.678 0 1.329.271 1.806.752.483.473.752 1.121.747 1.796-.005 1.035.245 2.055.725 2.971.511.949 1.211 1.784 2.057 2.453.938.729 1.993 1.295 3.119 1.674 1.253.415 2.565.622 3.885.613 1.334.006 2.66-.204 3.928-.621 1.156-.384 2.243-.954 3.217-1.686.871-.653 1.589-1.487 2.106-2.445.48-.892.693-1.904.613-2.915-.08-.964-.388-1.896-.897-2.72-.568-.892-1.281-1.682-2.111-2.337-.911-.716-1.923-1.294-3.003-1.715-1.155-.463-2.356-.8-3.584-1.004-1.766-.121-3.509-.468-5.187-1.033-1.58-.516-3.075-1.259-4.439-2.208-1.24-.857-2.298-1.951-3.111-3.22-.802-1.252-1.223-2.71-1.212-4.196-.004-1.484.384-2.944 1.125-4.23.78-1.321 1.824-2.467 3.066-3.367 1.267-.943 2.76-1.693 4.452-2.249 3.529-1.1 7.312-1.1 10.842 0 1.594.504 3.095 1.263 4.446 2.249 1.245.894 2.29 2.039 3.066 3.361.746 1.285 1.139 2.745 1.139 4.231-.004 1.467-1.213 2.672-2.68 2.67-.721.016-1.412-.29-1.885-.834-.464-.501-.734-1.188-.79-2.034-.041-.654-.277-1.281-.678-1.799-.504-.672-1.132-1.24-1.852-1.673-.866-.537-1.807-.942-2.792-1.203-1.107-.305-2.251-.456-3.4-.449-1.178-.005-2.352.146-3.491.449-.987.251-1.927.655-2.788 1.198-.716.453-1.331 1.051-1.804 1.755-.411.581-.633 1.275-.636 1.987 0 .658.24 1.249.757 1.813.619.665 1.349 1.218 2.156 1.635.936.5 1.918.907 2.933 1.216.97.303 1.964.525 2.971.664 1.929.206 3.821.677 5.622 1.399 1.771.731 3.327 1.644 4.63 2.729 1.305 1.076 2.373 2.409 3.139 3.916.762 1.517 1.155 3.192 1.148 4.889.005 1.759-.4 3.495-1.183 5.07-.779 1.58-1.881 2.979-3.234 4.108-2.958 2.451-6.688 3.784-10.531 3.762z"/></g></svg>