<?xml version="1.0" encoding="utf-8"?>
<!-- Generator: Adobe Illustrator 25.0.1, SVG Export Plug-In . SVG Version: 6.00 Build 0)  -->
<svg version="1.0" id="Layer_1" xmlns="http://www.w3.org/2000/svg" xmlns:xlink="http://www.w3.org/1999/xlink" x="0px" y="0px"
	 viewBox="0 0 873.6 531.5" style="enable-background:new 0 0 873.6 531.5;" xml:space="preserve">
<style type="text/css">
	.st0{fill:#010101;}
	.st1{fill:none;}
</style>
<path class="st0" d="M122.8,217.4c1.8-0.5,3.2,0.8,4.4,1.9c9.1,9.4,18.2,18.9,27.3,28.3c1.3,1.2,2.4,2.5,3.5,3.9
	c0.4,1.2,0.4,2.4,0.1,3.6c-3.9,14.5-7.8,29.1-11.7,43.6c-0.3,0.8-0.7,1.6-1.3,2.2c-1,1-2.6,1.2-3.9,1.6
	c-13.1,3.7-26.2,7.5-39.2,11.3c-1.8,0.8-3.9,0.4-5.3-1l-30.4-31.5c-1.2-1-1.7-2.6-1.3-4.1c4-14.8,7.9-29.5,11.9-44.3
	c0.2-1.1,0.8-2,1.6-2.7c1-0.5,2.1-0.8,3.2-1.1C95.4,225.2,109.1,221.3,122.8,217.4z M88.4,235.7c2.7,2.7,5.2,5.5,8,8.2
	c4.5-4.9,9.3-9.4,13.8-14.4C102.9,231.5,95.6,233.6,88.4,235.7z M104,247.6c7.9,2.1,15.8,4.3,23.7,6.3c-2.1-8.2-4.1-16.4-6.2-24.6
	C115.7,235.4,109.8,241.4,104,247.6L104,247.6z M131.2,235.2c1.5,6.5,3.3,13,4.9,19.4c3.6-1.1,7.3-2.1,11-3.1
	C141.7,246,136.6,240.5,131.2,235.2L131.2,235.2z M82.8,241.7c-2.1,7.5-4,15-6,22.5c4.6-4.8,9.3-9.5,13.8-14.4
	C88.1,246.9,85.4,244.3,82.8,241.7L82.8,241.7z M101.8,255.4c2,8.2,4.1,16.4,6.2,24.6c5.8-6.2,11.7-12.2,17.5-18.3
	C117.6,259.6,109.7,257.4,101.8,255.4L101.8,255.4z M76.6,275.9c7.9,2.1,15.8,4.3,23.7,6.3c-2-8.2-4-16.4-6.1-24.6
	C88.3,263.7,82.4,269.8,76.6,275.9z M138,262.4c1.6,6.5,3.2,12.9,4.8,19.4c2-7.5,4-15,6-22.5C145.2,260.3,141.6,261.4,138,262.4z
	 M113.4,285.8c7.9,2.1,15.8,4.3,23.8,6.3c-2-8.2-4.1-16.4-6.1-24.6C125.1,273.6,119.3,279.7,113.4,285.8z M82.1,285.8
	c2.4,2.8,5.1,5.2,7.6,7.9c2.8,2.8,5.4,5.7,8.2,8.4c1-3.8,2-7.6,3-11.4C94.7,289.1,88.4,287.4,82.1,285.8L82.1,285.8z M108.6,292.9
	c-1,3.8-2,7.6-3,11.4c7.3-2.1,14.7-4.2,22-6.2C121.3,296.2,114.9,294.6,108.6,292.9L108.6,292.9z"/>
<path class="st0" d="M310.2,232.4h10.4c0,11.3,0,22.6,0,33.9c5.2-5.9,10.4-11.9,15.7-17.8c4.4,0,8.7,0,13,0
	c-5.1,5.7-10.2,11.5-15.3,17.2c5.5,8.5,11.1,16.8,16.6,25.3c-3.8,0-7.5,0-11.3,0c-1.2-1.4-2.2-2.9-3.2-4.4
	c-3.4-5-6.7-10.1-10.1-15.1c-1.9,2-3.6,4.1-5.5,6.1c0,4.5,0,8.9,0,13.4c-3.5,0-7,0-10.4,0C310.2,271.5,310.2,251.9,310.2,232.4z"/>
<path class="st0" d="M356.3,232.4h10.5c0,3.3,0,6.6,0,9.9h-10.5C356.3,238.9,356.3,235.6,356.3,232.4z"/>
<path class="st0" d="M753.6,232.4c3.5,0,6.9,0,10.4,0c0,19.6,0,39.1,0,58.7c-3.2,0-6.5,0-9.7,0c0-1.4,0-2.8,0-4.2
	c-1.8,2.2-4.1,3.8-6.8,4.6c-4.1,1.2-8.6,0.9-12.5-0.9c-3.3-1.6-6-4.3-7.7-7.6c-2.3-4.3-3-9.2-2.9-14.1c-0.1-4.3,1-8.6,3-12.4
	c3-5.1,8.3-9.1,14.3-9.3c4.6-0.4,9.1,1.6,11.8,5.4C753.7,245.9,753.5,239.1,753.6,232.4z M741.5,257c-3.2,0.8-5.3,3.8-6,6.8
	c-0.9,3.7-0.9,7.5-0.2,11.2c0.7,3.1,2.6,6.1,5.6,7.3c3.5,1.2,8,0.6,10.5-2.5c1.5-1.8,2.3-4.2,2.2-6.5c0-2.6,0-5.2,0-7.9
	c0-3.4-2-6.5-5-8C746.3,256.5,743.8,256.3,741.5,257L741.5,257z"/>
<path class="st0" d="M202.4,233.9c6.3-0.9,13.2,0.1,18.4,3.9c3.7,2.6,5.9,6.8,6.7,11.1c-3.5,0.9-7,1.8-10.5,2.7
	c-1-3.4-3.5-6.7-7.1-7.5c-3.1-0.7-6.8-0.7-9.5,1.2s-2.9,6.5,0.2,8.1c6.7,3.4,14.3,4.7,20.8,8.5c3.4,1.7,5.9,4.8,6.9,8.5
	c1.1,4.3,0.6,8.8-1.5,12.7c-2.8,4.6-7.5,7.8-12.9,8.8c-4,0.7-8.1,0.7-12.1-0.1c-4.6-0.9-8.7-3.4-11.7-7.1c-2.5-3.6-4.1-7.8-4.5-12.2
	c3.8-0.9,7.6-1.6,11.3-2.5c0.7,3.4,1.4,7,3.6,9.8c1.9,1.8,4.4,2.8,7.1,2.7c2.9,0,6-0.3,8.4-2.1c3.2-2.3,2.7-7.7-0.6-9.7
	c-6.9-4.1-15.4-4.6-22-9.3c-3.3-2.2-5.4-5.8-5.8-9.8c-0.5-4.1,0.7-8.2,3.4-11.4C194.1,236.6,198.1,234.5,202.4,233.9z"/>
<path class="st0" d="M494.8,234.7h19.6c3.5,0,7,0,10.3,1c4.4,1.2,8.1,4.2,10.3,8.2c1.7,3.5,2.3,7.4,1.8,11.3
	c-0.3,3.5-1.8,6.7-4.2,9.2c-2.1,2.2-4.6,3.8-7.5,4.6c3.9,7.3,8,14.6,11.9,21.9h-11.7c-3.8-6.9-7.5-14-11.4-20.9
	c-2.8-0.1-5.5,0-8.3,0c0,7,0,13.9,0,20.9c-3.6,0-7.2,0-10.8,0C494.8,272.3,494.8,253.5,494.8,234.7z M505.6,244.5
	c0,5.4,0,10.8,0,16.2c2.7,0,5.3,0,8,0c2.5,0,5,0.2,7.4-0.6c2.3-0.6,4.1-2.4,4.6-4.7c0.7-2.8,0.5-6.2-1.5-8.5c-1.8-1.9-4.5-2.4-7-2.4
	L505.6,244.5z"/>
<path class="st0" d="M239,238h9.8c0,3.5,0,7,0,10.5h10.8c0,3,0,5.9,0,8.8H249c0,6,0,11.9,0,17.9c0.1,1.8,0.2,4,1.9,5.1
	c2.3,1.1,4.8,0.6,7.3,0.7c0,3.3,0,6.7,0,10c-4.8-0.1-10,0.4-14.3-2.1c-3.6-2.2-4.7-6.7-5-10.6c-0.1-7,0-14,0-21h-6.6
	c0-2.9,0-5.9,0-8.8c2.3,0,4.5,0,6.8,0C238.9,245,239,241.5,239,238z"/>
<path class="st0" d="M273.5,248.8c4-1.6,8.4-2,12.6-1.3c4.3,0.5,8.2,2.8,10.9,6.2c2.1,3,2.7,6.8,2.7,10.5c0,8.9,0,17.9,0,26.8
	c-2.9,0-5.8,0-8.7,0c0-1.4,0-2.7,0-4.1c-1.3,1.6-3,3-4.8,3.9c-3.7,1.6-7.9,1.6-11.8,0.9c-3.2-0.5-6.1-2.3-8.1-4.9
	c-2.5-3.3-2.8-7.8-1.7-11.7c0.9-3.1,3.7-5.1,6.5-6.4c5.2-2.5,11.1-2.8,16.4-5.2c1.7-0.8,2.4-2.8,1.6-4.5c-0.1-0.1-0.1-0.2-0.2-0.4
	c-1.1-1.9-3.5-2.5-5.5-2.6c-2.3-0.1-4.8,0-6.7,1.3c-1.6,1.5-2.9,3.4-3.5,5.6c-2.9-1.2-5.8-2.4-8.6-3.6
	C265.8,254.8,269.1,250.9,273.5,248.8z M288.7,270.7c-3.6,2.1-7.9,2.5-11.7,4c-2.3,0.8-3.5,3.2-2.9,5.5c0.4,1.9,2.4,2.7,4.2,2.9
	c2.8,0.2,5.8,0.2,8.3-1.2c1.8-0.9,3-2.7,3.1-4.7c0-2.5,0-5.1,0-7.6C289.4,270,289,270.4,288.7,270.7z"/>
<path class="st0" d="M388,252.6c5.5-6.2,14.9-7.2,21.5-2.1c3.5,3,5,7.6,4.9,12.1c0,9.5,0,18.9,0,28.4c-3.5,0-6.9,0-10.4,0
	c0-8.5,0-17.1,0-25.6c0-2.5-0.4-5.2-2.3-7c-1.8-1.5-4.4-1.6-6.6-1.4c-2.6,0.2-4.8,1.8-5.9,4.1c-0.7,1.6-0.9,3.4-0.8,5.1
	c0,8.3,0,16.6,0,24.8c-3.5,0-7,0-10.5,0v-42.6c3.3,0,6.7,0,10,0C388,249.8,388,251.2,388,252.6z"/>
<path class="st0" d="M425.4,257.3c2.6-4.9,7.2-8.4,12.5-9.6c3.9-0.7,8.2-0.5,11.6,1.8c1.3,0.9,2.5,2,3.5,3.3c0-1.4,0-2.8,0-4.2h9.9
	v40.5c0.1,3.8-0.1,7.7-1.7,11.2c-2,4.4-5.9,7.7-10.5,9.1c-4.5,1.4-9.3,1.4-13.9,0.2c-5-1.4-9.2-4.9-11.3-9.7
	c2.6-1.8,5.2-3.6,7.8-5.4c1.5,2.7,3.5,5.6,6.7,6.4c3.8,1,8.6,0.6,11.1-2.9c2.1-3.3,1.2-7.4,1.5-11.1c-2,2.7-4.9,4.5-8.2,5.1
	c-5.3,0.8-10.7-0.7-14.8-4.3c-3.9-3.6-6.3-8.4-6.8-13.7C422.2,268.4,422.6,262.4,425.4,257.3z M441.1,256.9c-3.3,0.7-5.9,3.1-7,6.3
	c-1.2,3.5-1.4,7.3-0.7,11c0.6,3.4,2.8,6.3,5.9,7.9c3.1,1.3,6.6,1.1,9.5-0.6c2.5-1.6,3.9-4.4,3.9-7.4c0-3,0-6,0-8.9
	c0-2.9-1.6-5.7-4.1-7.2C446.3,256.6,443.6,256.3,441.1,256.9z"/>
<path class="st0" d="M555.6,248.2c6.1-1.9,13.3-1.1,18.3,3.2c3,2.6,5.2,5.9,6.3,9.7c1,3.8,1.4,7.8,1.2,11.8c-9.5,0.1-19.1,0-28.6,0
	c0.2,2.7,0.8,5.7,2.9,7.7c2.4,2.5,6.3,2.9,9.6,2.1s5.5-3.7,7.4-6.2c2.5,2.1,4.9,4.2,7.3,6.4c-2,3-4.6,5.4-7.7,7.1
	c-4.4,2.2-9.5,2.9-14.4,1.9c-6-1.3-11-5.4-13.4-11c-2.3-5.1-2.5-10.9-1.7-16.4C543.7,257.2,548.6,250.5,555.6,248.2z M556.2,258.3
	c-2,1.7-3.2,4.2-3.5,6.8c6.2,0,12.4,0,18.5,0c-0.3-3.4-2.1-6.9-5.5-8C562.7,256,558.9,256.1,556.2,258.3L556.2,258.3z"/>
<path class="st0" d="M659.8,249.4c3.8-2.1,8.3-2.4,12.5-2c4.2,0.3,8.2,2.1,11.2,5.2c2.7,3,3.7,7.2,3.6,11.2V291c-2.9,0-5.8,0-8.7,0
	c0-1.4,0-2.8,0-4.2c-1.6,2.2-3.9,3.8-6.5,4.6c-3.9,1.1-8.1,1-12-0.1c-4.7-1.4-8-5.4-8.5-10.2c-0.4-2.7,0.1-5.5,1.5-7.9
	c1.6-2.5,4.4-4,7-5c4.6-1.8,9.6-2.4,14.3-4.2c1.3-0.4,2.3-1.5,2.5-2.9c0.3-2.3-1.7-4.1-3.8-4.5c-2.3-0.5-4.6-0.5-6.9,0
	c-3,0.8-4.6,3.8-5.5,6.5c-2.9-1.2-5.8-2.4-8.7-3.6C653,255.2,655.9,251.6,659.8,249.4z M676.1,270.7c-3.7,2.1-8.1,2.4-11.9,4.1
	c-2,0.8-3.2,3.1-2.6,5.2c0.3,1.9,2.4,2.8,4.1,3c2.9,0.3,6,0.2,8.6-1.3c1.8-0.9,2.9-2.7,2.9-4.7c0-2.6,0-5.1,0-7.7
	C676.9,269.9,676.5,270.3,676.1,270.7z"/>
<path class="st0" d="M783.2,248.2c3.7-1,7.7-1.2,11.5-0.5c3.7,0.6,7.1,2.5,9.5,5.4c1.6,2,2.7,4.3,3.4,6.7c-2.9,0.9-5.7,1.8-8.6,2.6
	c-1.1-2.4-2.5-5-5.2-5.9c-2.7-0.9-5.7-0.9-8.3,0.2c-1.4,0.7-2.9,2.2-2.2,3.9c0.4,1.3,1.8,1.8,2.9,2.3c4.3,1.6,8.7,2.6,13.1,4.1
	c2.8,1,5.7,2.3,7.4,4.8c1.8,2.7,2.5,5.9,1.9,9.1c-0.6,3.2-2.5,6-5.1,7.9c-2.6,2.1-6,2.9-9.3,3.3c-4.4,0.3-9,0-13-1.9
	c-5-2.7-8.4-7.6-9.2-13.2c3.1-0.8,6.2-1.6,9.4-2.4c0.3,2.8,1.4,5.9,4,7.5s5.8,1.6,8.7,1.2c1.9-0.4,4-1,5-2.8
	c0.9-1.6,0.3-3.6-1.3-4.4c-0.1-0.1-0.2-0.1-0.3-0.1c-5.5-2.4-11.6-3.1-16.9-5.8c-2.4-1.2-4.8-2.9-6-5.4c-1.5-3.5-1.2-7.6,1-10.8
	C777.4,251.1,780.1,249.1,783.2,248.2z"/>
<path class="st0" d="M713.1,248.2c2.3-0.8,4.9-0.8,7.2,0.1c-0.5,3.3-1,6.6-1.6,9.9c-1.6-0.1-3.3-0.6-4.9-0.2
	c-2.1,0.3-3.8,1.6-4.7,3.5c-0.8,1.9-1.2,4-1.1,6.1c0,7.8,0,15.5,0,23.3h-10.4c0-14.2,0-28.4,0-42.6h9.8c0,1.5,0,3.1,0,4.6
	C708.8,250.8,710.8,249.1,713.1,248.2z"/>
<path class="st0" d="M356.3,248.4h10.5c0,14.2,0,28.4,0,42.6c-3.5,0-7,0-10.5,0L356.3,248.4z"/>
<path class="st0" d="M586.6,248.4c3.4,0,6.8,0,10.2,0c1.9,9.5,3.7,19.1,5.7,28.6c3-8.3,5.6-16.8,8.5-25.2c0.5-1.1,0.6-2.5,1.3-3.5
	c2.6-0.1,5.2,0,7.8,0c0.5,0.1,1.4-0.2,1.5,0.5c3,9.3,5.7,18.7,8.7,28c2.2-9.5,4.3-19,6.5-28.5h10c-3.2,13.6-6.5,27.1-9.7,40.7
	c-0.1,0.7-0.3,1.3-0.6,1.9c-3.4,0-6.8,0-10.1,0c-3.2-10.3-6.4-20.5-9.8-30.7c-3.7,10.2-7.1,20.5-10.6,30.7c-3.4,0-6.7,0-10.1,0
	C592.9,276.8,589.8,262.6,586.6,248.4z"/>
<rect x="51.6" y="202.5" class="st1" width="770.4" height="126.5"/>
</svg>
