<?xml version="1.0" encoding="utf-8"?>
<!-- Generator: Adobe Illustrator 25.4.1, SVG Export Plug-In . SVG Version: 6.00 Build 0)  -->
<svg version="1.1" baseProfile="basic" id="Layer_1"
	 xmlns="http://www.w3.org/2000/svg" xmlns:xlink="http://www.w3.org/1999/xlink" x="0px" y="0px" viewBox="0 0 87 24"
	 xml:space="preserve">
<g>
	<g>
		<path fill-rule="evenodd" clip-rule="evenodd" fill="#FF3567" d="M1.1,0h7.4C13.4,0,16,2.9,16,7.2c0,0.5-0.1,1.4-0.2,1.9
			c0,0.2-0.1,0.3-0.1,0.5c0,0.3,0.1,0.4,0.5,0.6c2.3,1.3,3.4,3.4,3.4,6.4c0,4.2-2.6,7.2-8.1,7.2H1.1c-0.6,0-0.8-0.2-0.8-0.8V0.8
			C0.3,0.2,0.5,0,1.1,0z M6.7,9.3h1.8c0.9,0,1.6-0.5,1.6-1.6c0-1-0.7-1.6-1.6-1.6H6.7c-0.6,0-0.8,0.2-0.8,0.8v1.6
			C5.9,9.1,6.1,9.3,6.7,9.3L6.7,9.3z M6.7,17.5h4.7c1.4,0,2.1-0.5,2.1-1.6c0-1.1-0.8-1.6-2.1-1.6H6.7c-0.6,0-0.8,0.2-0.8,0.8v1.6
			C5.9,17.3,6.1,17.5,6.7,17.5L6.7,17.5z M21.7,22.9V7.5c0-0.5,0.2-0.8,0.8-0.8h4.3c0.6,0,0.8,0.2,0.8,0.8v15.3
			c0,0.5-0.2,0.8-0.8,0.8h-4.3C21.9,23.7,21.7,23.4,21.7,22.9z M21.7,4.2V0.8c0-0.5,0.2-0.8,0.8-0.8h4.3c0.6,0,0.8,0.2,0.8,0.8v3.4
			c0,0.5-0.2,0.8-0.8,0.8h-4.3C21.9,4.9,21.7,4.7,21.7,4.2z M32.2,12.3h-2c-0.6,0-0.8-0.2-0.8-0.7V7.5c0-0.5,0.2-0.7,0.8-0.7h2
			c0.6,0,0.8-0.2,0.8-0.8V0.8c0-0.5,0.2-0.8,0.8-0.8H38c0.6,0,0.8,0.2,0.8,0.8V6c0,0.5,0.2,0.8,0.8,0.8h4c0.6,0,0.8,0.2,0.8,0.7v4.1
			c0,0.5-0.2,0.7-0.8,0.7h-4c-0.6,0-0.8,0.2-0.8,0.8v9.8c0,0.5-0.2,0.8-0.8,0.8h-4.3c-0.6,0-0.8-0.2-0.8-0.8v-9.8
			C32.9,12.6,32.7,12.3,32.2,12.3L32.2,12.3z M53.1,24c-2.7,0-5.5-0.8-7.5-2c-0.3-0.2-0.4-0.6-0.2-1l1.6-2.9
			c0.3-0.5,0.7-0.5,1.2-0.2c1.5,0.8,3.4,1.5,4.9,1.5c0.9,0,1.6-0.3,1.6-0.9c0-0.6-0.6-0.8-1.6-0.8h-0.8c-4.1,0-6.9-2-6.9-5.4
			c0-3.9,3.5-5.9,7.4-5.9c2.6,0,4.5,0.4,6.5,1.5c0.4,0.2,0.5,0.6,0.3,1l-1.8,3c-0.2,0.4-0.8,0.5-1.2,0.2c-1.4-0.8-2.6-1.1-3.8-1.1
			c-1,0-1.6,0.3-1.6,0.8c0,0.6,0.5,0.8,2,0.8h0.9c3.9,0,6.5,1.9,6.5,5.1C60.7,21.8,57.5,24,53.1,24z M73.6,14.5l5.6,8.2
			c0.3,0.5,0.1,1-0.5,1h-5c-0.6,0-1-0.1-1.5-0.8l-2.7-3.8c-0.3-0.4-0.6-0.4-1-0.1l-0.3,0.3c-0.5,0.4-0.5,0.7-0.5,1.3v2.4
			c0,0.5-0.2,0.7-0.8,0.7h-4.3c-0.5,0-0.7-0.2-0.7-0.7V0.7c0-0.5,0.2-0.7,0.7-0.7h4.3c0.6,0,0.8,0.2,0.8,0.7v9.8
			c0,0.5,0.5,0.7,0.9,0.2l3-3.2c0.5-0.5,1-0.8,1.6-0.8h5.4c0.7,0,0.8,0.6,0.4,1l-5.2,5.4C73.3,13.7,73.2,13.9,73.6,14.5z M80.9,22.9
			V7.5c0-0.5,0.2-0.8,0.8-0.8h4.3c0.6,0,0.8,0.2,0.8,0.8v15.3c0,0.5-0.2,0.8-0.8,0.8h-4.3C81.1,23.7,80.9,23.4,80.9,22.9z M80.9,4.2
			V0.8c0-0.5,0.2-0.8,0.8-0.8h4.3c0.6,0,0.8,0.2,0.8,0.8v3.4c0,0.5-0.2,0.8-0.8,0.8h-4.3C81.1,4.9,80.9,4.7,80.9,4.2z"/>
	</g>
</g>
</svg>
