<svg width="447" height="75" viewBox="0 0 447 75" fill="none" xmlns="http://www.w3.org/2000/svg">
<path d="M447 0H372.485V75H447V0Z" fill="#FFFF00"/>
<path d="M149.044 0H74.5293V75H149.044V0Z" fill="#00FFA7"/>
<path d="M223.5 0H148.985V75H223.5V0Z" fill="#71FFE0"/>
<path d="M372.544 0H298.029V75H372.544V0Z" fill="#D8FF00"/>
<path d="M74.5146 0H0V75H74.5146V0Z" fill="#00FFD3"/>
<path d="M298.015 0H223.5V75H298.015V0Z" fill="#5BFFA7"/>
<path d="M16.3783 16.0212H31.5634V46.7066H58.1169V58.4223H16.3589L16.3783 16.0212Z" fill="black"/>
<path d="M121.695 50.1236H101.941L98.6771 58.1831H82.3667L101.941 15.7917H121.651L141.226 58.1831H124.954L121.695 50.1236ZM118.014 40.917L115.05 33.5947C113.329 29.5967 112.383 27.2048 111.908 24.4614H111.728C111.195 27.2048 110.244 29.5967 108.585 33.5947L105.617 40.917H118.014Z" fill="black"/>
<path d="M211.569 45.8816C211.569 51.8517 207.417 58.1831 195.2 58.1831H160.936V15.7917H194.982C205.541 15.7917 210.58 19.9752 210.58 26.3603C210.58 30.6609 207.854 34.4197 201.801 35.6743C208.247 36.6311 211.569 40.2141 211.569 45.8816ZM176.101 25.2278V32.3304H190.336C193.833 32.3304 194.701 30.3778 194.701 28.5716C194.701 26.7655 193.731 25.2278 190.336 25.2278H176.101ZM195.734 44.6319C195.734 42.4205 194.07 40.8097 190.928 40.8097H176.101V48.7275H190.928C194.308 48.7275 195.734 46.7212 195.734 44.6319Z" fill="black"/>
<path d="M259.957 43.3041H251.144V57.1579H235.935V14.7715H265.413C279.963 14.7715 284.158 21.8155 284.158 28.679C284.158 33.458 281.961 38.8912 275.38 41.5174L285.565 57.1384H268.837L259.957 43.3041ZM251.144 34.1707H261.814C266.664 34.1707 268.163 31.9057 268.163 29.216C268.163 26.6483 266.621 24.5004 261.858 24.5004H251.144V34.1707Z" fill="black"/>
<path d="M327.696 43.1869L307.229 14.7715H324.078L333.924 30.2313C335.049 31.7836 335.286 32.3206 335.466 32.799H335.582C335.762 32.3109 335.999 31.7836 337.125 30.2313L347.508 14.7715H363.343L342.881 43.1869V57.1579H327.696V43.1869Z" fill="black"/>
<path d="M383.645 49.8747L393.432 41.2784C398.423 45.6242 404.779 48.0552 411.377 48.1418C417.682 48.1418 420.631 46.9507 420.631 44.7247C420.631 43.1138 419.564 42.5183 416.004 42.0985L403.433 40.6047C392.763 39.2916 387.535 35.3522 387.535 27.1121C387.535 18.5157 396.075 13.3218 411.023 13.3218C420.277 13.3218 429.055 15.2744 435.462 19.7703L427.096 28.7231C423.599 25.6818 417.134 23.5291 410.194 23.5291C405.15 23.5291 402.482 24.5444 402.482 26.458C402.482 28.1275 403.729 28.7865 407.938 29.26L418.793 30.3388C430.951 31.5885 435.816 35.113 435.816 43.231C435.816 53.0819 426.325 58.5737 410.49 58.5737C399.301 58.5883 388.747 54.7709 383.645 49.8747Z" fill="black"/>
</svg>
