<?xml version="1.0" encoding="utf-8"?>
<!-- Generator: Adobe Illustrator 19.2.1, SVG Export Plug-In . SVG Version: 6.00 Build 0)  -->
<svg version="1.1" id="layer" xmlns="http://www.w3.org/2000/svg" xmlns:xlink="http://www.w3.org/1999/xlink" x="0px" y="0px"
	 viewBox="0 0 652 652" style="enable-background:new 0 0 652 652;" xml:space="preserve">
<style type="text/css">
	.st0{fill-rule:evenodd;clip-rule:evenodd;fill:#0E0E30;}
	.st1{fill-rule:evenodd;clip-rule:evenodd;fill:#347BFF;}
</style>
<path class="st0" d="M605.1,341.2V309h-7.5v-7h7.5v-11.9h8.3V302h12.2v7h-12.2v31.4c0,5.1,2.3,7.6,6.5,7.6c2.6,0,4.6-0.4,6.4-1.1v7
	c-1.7,0.6-3.7,1.1-7.1,1.1C609.7,355,605.1,349.4,605.1,341.2 M554.7,338.2h8.1c0.6,6.2,3.9,10.1,12.3,10.1c7.9,0,11.4-2.7,11.4-8.3
	c0-5.5-4.1-7.3-12.2-8.8c-13.6-2.5-18.2-6.3-18.2-15.4c0-9.7,9.5-14.7,17.7-14.7c9.4,0,17.5,3.8,18.9,15.1h-8
	c-1.2-5.7-4.4-8.2-11-8.2c-6,0-9.9,3-9.9,7.5c0,4.7,2.6,6.6,12.2,8.3c10.8,2,18.4,4.4,18.4,15.5c0,9.5-6.5,15.9-19.2,15.9
	C562.7,355.2,555.2,348.9,554.7,338.2 M502.7,335.1V302h8.3v32.7c0,9.2,3.9,13.3,12.1,13.3c7.4,0,14.4-4.9,14.4-14.3V302h8.3v52.3
	h-8.3V346c-2.4,4.9-8.2,9.2-16.6,9.2C510.5,355.2,502.7,349.5,502.7,335.1 M470,302h8.3v9.4c3.3-5.9,7.8-10,17.2-10.3v7.8
	c-10.5,0.5-17.2,3.8-17.2,16.7v28.7H470V302z M441.3,341.2V309h-7.5v-7h7.5v-11.9h8.3V302h12.2v7h-12.2v31.4c0,5.1,2.3,7.6,6.5,7.6
	c2.6,0,4.6-0.4,6.4-1.1v7c-1.7,0.6-3.7,1.1-7.1,1.1C445.9,355,441.3,349.4,441.3,341.2 M384.6,302h8.3v8.3c2.4-4.9,8.2-9.2,16.8-9.2
	c10.8,0,18.4,5.9,18.4,21.1v32.1h-8.3v-32.7c0-9.2-3.9-13.3-12.3-13.3c-7.7,0-14.6,4.9-14.6,14.3v31.7h-8.3V302z M362.3,285.7
	c0-3,2.5-5.5,5.5-5.5s5.5,2.5,5.5,5.5c0,3-2.5,5.5-5.5,5.5S362.3,288.7,362.3,285.7 M363.8,302h8.3v52.3h-8.3V302z M309.7,339.8
	c0-12.1,12.8-16.2,26.2-16.2h7.5v-3.8c0-8.3-3.2-11.8-11.2-11.8c-7.2,0-11.2,3-12,9.4H312c1.1-11.9,10.6-16.3,20.7-16.3
	c10,0,19.1,4.1,19.1,18.7v34.5h-8.3v-6.6c-3.9,4.9-8.6,7.5-16.3,7.5C317.4,355.2,309.7,350.5,309.7,339.8 M343.4,336v-6.5h-7.2
	c-10.5,0-18.2,2.6-18.2,10.3c0,5.4,2.6,8.8,9.9,8.8C336.7,348.6,343.4,344.1,343.4,336 M281.1,302h8.3v9.4c3.3-5.9,7.8-10,17.2-10.3
	v7.8c-10.5,0.5-17.2,3.8-17.2,16.7v28.7h-8.3V302z M222.5,282.9H244c13.3,0,23,4.4,23,18.5v0.4c0,6.5-2.6,12.3-10.8,15.1
	c10.4,2.5,14.3,7.8,14.3,17.1v0.4c0,13.5-9.2,20-23.5,20h-24.5V282.9z M244,314c10.5,0,14.5-3.8,14.5-12.6v-0.4
	c0-8.1-4.7-11.4-14.7-11.4H231V314H244z M246.8,347.5c10.4,0,15.2-4.6,15.2-13.3v-0.4c0-8.8-4.9-13-16.4-13H231v26.7H246.8z"/>
<path class="st1" d="M42.1,320.6c-2.4,0.6-4.9,1-7.3,1c-2.9,0-5.7-0.5-8.4-1.4c0.3-3.1,0.8-6.1,1.5-9.1c3.7,1.5,7.9,1.8,11.8,0.7
	c4.9-1.3,8.9-4.4,11.5-8.8c2.5-4.4,3.2-9.4,1.9-14.3c-1.1-4-3.4-7.4-6.5-9.9c2.2-2.1,4.6-4.1,7.1-5.9c3.9,3.6,6.8,8.2,8.2,13.4
	c1.9,7.2,0.9,14.7-2.8,21.2C55.3,314.1,49.3,318.7,42.1,320.6 M140.8,332c5.2-1.4,10.7-1.2,15.7,0.4c-0.3,3.1-0.8,6.1-1.5,9.1
	c-3.7-1.5-7.9-1.8-11.8-0.7c-4.9,1.3-8.9,4.4-11.5,8.8c-2.5,4.4-3.2,9.4-1.9,14.3c1.1,4,3.4,7.4,6.5,9.9c-2.2,2.1-4.6,4.1-7.2,5.9
	c-3.9-3.6-6.8-8.2-8.2-13.4c-1.9-7.2-0.9-14.7,2.8-21.2C127.6,338.5,133.6,333.9,140.8,332 M91.4,288.9c-13.4,0-24.5-9.4-27.3-22
	c2.8-1.3,5.7-2.4,8.6-3.3c1.3,9.1,9.2,16.1,18.7,16.1c9.5,0,17.3-7,18.7-16.1c3,0.9,5.8,2,8.6,3.3C116,279.5,104.8,288.9,91.4,288.9
	 M91.4,363.7c13.4,0,24.5,9.4,27.3,22c-2.8,1.3-5.7,2.4-8.6,3.3c-1.3-9.1-9.2-16.1-18.7-16.1c-9.5,0-17.3,7-18.7,16.1
	c-3-0.9-5.8-2-8.6-3.2C66.9,373.1,78.1,363.7,91.4,363.7 M121.1,286.4c1.4-5.2,4.3-9.8,8.2-13.4c2.5,1.8,4.9,3.7,7.1,5.9
	c-3.2,2.5-5.5,5.9-6.5,9.9c-1.3,4.9-0.6,9.9,1.9,14.3c2.5,4.4,6.6,7.5,11.5,8.8c4,1.1,8.1,0.8,11.9-0.7c0.7,3,1.2,6,1.5,9.1
	c-2.7,0.9-5.6,1.4-8.4,1.4c-2.4,0-4.9-0.3-7.3-1c-7.2-1.9-13.2-6.6-17-13C120.1,301.1,119.1,293.6,121.1,286.4 M59,345
	c6.7,11.6,4.1,26-5.4,34.6c-2.5-1.8-4.9-3.7-7.1-5.9c7.2-5.7,9.4-16,4.7-24.2c-2.5-4.4-6.6-7.5-11.5-8.8c-1.6-0.4-3.3-0.7-4.9-0.7
	c-2.4,0-4.7,0.5-7,1.4c-0.7-3-1.2-6.1-1.5-9.1c5.1-1.6,10.5-1.8,15.7-0.4C49.3,333.9,55.3,338.5,59,345 M77.5,302.1
	c13.4-7.7,30.5-3.1,38.2,10.2c7.7,13.3,3.1,30.5-10.2,38.2c-4.4,2.5-9.2,3.7-13.9,3.7c-9.7,0-19.1-5-24.3-14
	c-3.7-6.5-4.7-14-2.8-21.2C66.4,311.9,71,305.9,77.5,302.1 M100.9,342.6c9-5.2,12.1-16.8,6.9-25.8c-3.5-6-9.9-9.4-16.4-9.4
	c-3.2,0-6.4,0.8-9.4,2.5c-4.4,2.5-7.5,6.6-8.8,11.4c-1.3,4.9-0.6,9.9,1.9,14.3C80.3,344.7,91.9,347.8,100.9,342.6"/>
</svg>
