<svg width="140" height="33" viewBox="0 0 140 33" fill="none" xmlns="http://www.w3.org/2000/svg">
<g clip-path="url(#clip0_774_1146)">
<path d="M115.408 11.2184C111.19 11.2184 107.714 14.3093 107.714 19.0756C107.714 23.8419 111.126 27.0294 115.408 27.0294C118.209 27.0294 120.849 25.6763 122.169 23.166L119.658 21.9109C118.821 23.2952 117.243 24.1002 115.537 24.1002C113.186 24.1002 111.287 22.8451 110.869 20.3974H122.749C122.781 19.9146 122.812 19.4632 122.812 19.0443C122.812 14.3107 119.625 11.2197 115.408 11.2197V11.2184ZM110.901 17.8517C111.352 15.3401 113.186 14.1489 115.441 14.1489C117.695 14.1489 119.368 15.5019 119.691 17.8517H110.902H110.901Z" fill="white"/>
<path d="M71.1099 13.8592C70.1445 12.1526 68.0833 11.2184 65.8943 11.2184C61.6441 11.2184 58.4572 14.6316 58.4572 19.1069C58.4572 23.5821 61.8372 27.028 65.7652 27.028C68.0833 27.028 70.1432 25.8368 71.1099 24.0975V26.6418H74.2656V11.6046H71.1099V13.8592ZM66.3131 24.0663C63.6727 24.0663 61.6455 21.8116 61.6455 19.1069C61.6455 16.4021 63.6741 14.1801 66.2492 14.1801C68.6639 14.1801 71.0786 16.209 71.0786 19.1069C71.0786 22.0047 68.8243 24.0663 66.3145 24.0663H66.3131Z" fill="white"/>
<path d="M133.18 11.2184C131.57 11.2184 129.155 12.0561 128.286 13.9231V11.6046H125.131V26.6418H128.286V18.5602C128.286 15.4366 130.668 14.3093 132.633 14.3093C134.598 14.3093 136.046 15.7902 136.046 18.2379V26.6418H139.201V18.0448C139.201 13.7627 136.98 11.2184 133.181 11.2184H133.18Z" fill="white"/>
<path d="M85.5328 11.2184C83.923 11.2184 81.5083 12.0561 80.6395 13.9231V11.6046H77.4838V26.6418H80.6395V18.5602C80.6395 15.4366 83.0216 14.3093 84.9862 14.3093C86.9509 14.3093 88.3989 15.7902 88.3989 18.2379V26.6418H91.5546V18.0448C91.5546 13.7627 89.3329 11.2184 85.5341 11.2184H85.5328Z" fill="white"/>
<path d="M52.5985 21.458L43.3911 6.1311H39.6889V26.6431H42.9085V11.2836L52.2124 26.6431H55.8181V6.1311H52.5985V21.458Z" fill="white"/>
<path d="M102.305 18.0448L99.0217 17.4329C97.7667 17.2072 97.1862 16.6279 97.1862 15.7263C97.1862 14.5351 98.2168 13.8905 99.9544 13.8905C101.564 13.8905 102.723 14.6629 102.788 15.8228H105.814C105.814 12.5701 102.788 11.2184 99.987 11.2184C96.5104 11.2184 94.0305 13.0542 94.0305 15.8228C94.0305 18.0775 95.3507 19.5583 98.2154 20.105L101.242 20.6843C102.691 20.974 103.174 21.4893 103.174 22.327C103.174 23.6474 102.143 24.3559 100.084 24.3559C98.0237 24.3559 96.7348 23.4217 96.607 22.0374H93.677C93.8061 25.2575 96.4139 27.028 100.051 27.028C103.688 27.028 106.328 25.0644 106.328 22.0686C106.328 19.8793 105.073 18.5589 102.304 18.0435L102.305 18.0448Z" fill="white"/>
<path d="M30.7072 17.4328C29.2048 16.4456 27.5624 15.5766 25.7813 14.8246C25.0512 14.5241 24.5413 14.1107 24.2517 13.5845C23.9621 13.0582 23.8914 12.3987 24.0423 11.6045C24.5141 9.28598 24.665 7.06398 24.4924 4.93853C24.3197 2.81309 23.527 1.49267 22.1103 0.978649L21.595 0.785551C20.0926 0.228012 18.612 0.485024 17.1517 1.55795C15.6915 2.63223 14.3876 4.06959 13.2401 5.87275C12.268 7.39986 11.4005 8.97321 10.6351 10.5928C10.0232 10.484 9.44674 10.3915 8.90969 10.3154C6.35495 9.9931 4.33862 9.96726 2.85663 10.2352C1.37599 10.5044 0.527584 11.0456 0.312762 11.8615L0.0557929 12.7957C-0.159028 13.5477 0.227106 14.3786 1.2142 15.2911C2.20128 16.2035 3.24276 16.9814 4.33726 17.6259C5.43176 18.2909 6.19315 19.081 6.62279 19.9921C7.05243 20.9045 7.21287 22.0794 7.10546 23.5182C6.95454 25.4505 7.09458 27.2482 7.52423 28.9113C7.95387 30.5744 8.8553 31.6324 10.2285 32.0825L11.0008 32.3395C12.2245 32.7475 13.5066 32.3667 14.8485 31.1959C16.1891 30.0251 17.5052 28.2926 18.7928 25.9958C19.304 25.101 19.8153 24.092 20.3278 22.9701C21.4672 23.1442 22.5726 23.2693 23.6385 23.3387C26.1171 23.4991 28.1239 23.4026 29.659 23.049C31.1926 22.6955 32.0682 22.1529 32.283 21.4226L32.5726 20.3606C32.8296 19.3951 32.2069 18.4174 30.7059 17.4301L30.7072 17.4328ZM16.6052 6.08353C17.9363 3.96896 19.3421 2.70838 20.8227 2.30042C21.8955 2.60095 22.5182 3.63716 22.6895 5.40768C22.8608 7.17821 22.7969 8.96505 22.4964 10.7696C22.3455 11.629 21.9975 12.2137 21.4495 12.5238C20.9016 12.8352 20.1987 12.8733 19.3407 12.6366C17.5025 12.109 15.6698 11.644 13.8424 11.2401C14.6541 9.441 15.5732 7.72215 16.6052 6.08489V6.08353ZM16.3156 18.9477C14.7493 18.5398 13.6806 17.7946 13.1123 16.7094C12.544 15.6256 12.5589 14.3324 13.1612 12.8297C13.1708 12.808 13.1803 12.7862 13.1884 12.7631C13.217 12.7699 13.2442 12.7754 13.2727 12.7808C15.1939 13.1996 17.1205 13.6987 19.0511 14.278C19.8669 14.5146 20.4244 14.9171 20.7248 15.4855C21.0253 16.0539 21.0362 16.7366 20.7575 17.5307C20.4964 18.3018 20.2177 19.0483 19.924 19.7772C18.7221 19.5311 17.5188 19.2564 16.3142 18.9477H16.3156ZM7.49431 14.6492C6.33591 15.1537 5.10137 14.9334 3.79205 13.9897C3.12719 13.5382 2.56838 13.0351 2.11835 12.4762C3.44942 11.8751 5.55277 11.7038 8.42838 11.9608C8.88793 12.0057 9.38691 12.0696 9.92125 12.1512C9.29174 13.3859 8.48412 14.2195 7.49567 14.6492H7.49431ZM17.4427 24.8726C16.3265 26.7832 15.1884 28.264 14.03 29.3166C12.8716 30.3677 11.841 30.841 10.9396 30.7335C10.3169 29.8537 9.95796 28.8012 9.86142 27.5773C9.76489 26.3535 9.82335 25.0657 10.0382 23.714C10.1877 22.7267 10.7465 22.093 11.7119 21.8143C12.6772 21.5355 13.9757 21.5994 15.6072 22.0074C16.6378 22.2685 17.6412 22.4928 18.6201 22.6805C18.2272 23.4719 17.8356 24.2049 17.4427 24.8726ZM24.3483 20.5415C23.4115 20.4096 22.4747 20.2586 21.5365 20.0886C21.7813 19.4495 22.0165 18.8022 22.2395 18.1427C22.5399 17.305 22.9805 16.7529 23.5597 16.485C24.1389 16.2171 24.8146 16.2552 25.5882 16.5979C28.5495 17.9074 30.245 19.1313 30.6746 20.2681C29.1287 20.827 27.0199 20.9181 24.3483 20.5415Z" fill="#00FFA7"/>
</g>
<defs>
<clipPath id="clip0_774_1146">
<rect width="139.2" height="32" fill="white" transform="translate(0 0.5)"/>
</clipPath>
</defs>
</svg>
