<?xml version="1.0" encoding="utf-8"?>
<!-- Generator: Adobe Illustrator 19.2.1, SVG Export Plug-In . SVG Version: 6.00 Build 0)  -->
<svg version="1.1" id="layer" xmlns="http://www.w3.org/2000/svg" xmlns:xlink="http://www.w3.org/1999/xlink" x="0px" y="0px"
	 viewBox="0 0 652 652" style="enable-background:new 0 0 652 652;" xml:space="preserve">
<style type="text/css">
	.st0{fill:#009FE8;}
	.st1{fill:#FFFFFF;}
	.st2{fill:#3E3A39;}
</style>
<g>
	<path class="st0" d="M84.4,396.2c0,0,63.9-21.7,63.9-101.5V266c0-3.1-2.4-5.7-5.5-5.9c-11.6-0.5-39.1-2.9-58.4-13.2
		c-19.3,10.3-46.8,12.7-58.4,13.2c-3.1,0.2-5.5,2.8-5.5,5.9v28.7C20.5,374.5,84.4,396.2,84.4,396.2"/>
</g>
<g>
	<path class="st1" d="M110.2,305.2c-0.8-8.7-8.2-11.7-17.7-12.6l0-12.2l-7.4,0l0,11.8c-1.9,0-4,0-6,0l0-11.9l-7.4,0l0.1,12.1
		c-1.6,0-14.8,0.1-14.8,0.1l0,7.7l9.4,0l0,38.9l-8.3,0l-0.1,8.9c0,0,11.7-0.1,13.4,0l0,12.2l7.3,0l0-12.1c2,0.1,4,0.1,5.9,0.1l0,12
		H92l0-12.2c12.4-0.6,21-3.7,22.2-15.3c0.9-9.3-3.4-13.6-10.4-15.3C108.1,315.4,110.8,311.6,110.2,305.2 M99.7,331.2
		c-0.1,9.1-15.6,8-20.5,8l0-16.2C84.1,323,99.8,321.7,99.7,331.2 M96.4,308.4c-0.1,8.3-13,7.3-17.1,7.2l0-14.7
		C83.4,300.9,96.5,299.7,96.4,308.4"/>
	<path class="st2" d="M275.2,345.9c0,6.4-1.3,11.7-3.8,16c-2.5,4.3-5.9,7.8-10,10.4c-4.2,2.6-8.9,4.5-14.2,5.7
		c-5.3,1.1-10.8,1.7-16.3,1.7h-46.3V263.4h46.3c4.5,0,9.1,0.5,13.8,1.4c4.7,0.9,9,2.5,12.8,4.8c3.8,2.3,6.9,5.3,9.4,9.1
		c2.4,3.8,3.6,8.7,3.6,14.6c0,6.5-1.7,11.8-5.3,16c-3.5,4.2-8.1,7.3-13.8,9.1v0.3c3.3,0.6,6.4,1.6,9.3,3.1c2.9,1.5,5.4,3.4,7.5,5.7
		c2.1,2.3,3.8,5,5.1,8.1C274.5,338.6,275.2,342,275.2,345.9 M243.3,297.1c0-3.9-1.5-6.8-4.5-8.6c-3-1.8-7.5-2.7-13.4-2.7h-13.8v24
		h15.1c5.3,0,9.3-1.1,12.2-3.2C241.9,304.4,243.3,301.2,243.3,297.1 M247.1,343.2c0-4.8-1.8-8.2-5.4-10c-3.6-1.9-8.4-2.8-14.5-2.8
		h-15.6V357h15.8c2.2,0,4.5-0.2,6.8-0.6c2.3-0.4,4.5-1.1,6.4-2c1.9-1,3.5-2.4,4.7-4.2C246.5,348.4,247.1,346.1,247.1,343.2"/>
	<path class="st2" d="M312.5,271.8c0,2.1-0.4,4-1.2,5.8c-0.8,1.8-1.9,3.4-3.3,4.7c-1.4,1.3-3,2.3-4.9,3.1c-1.9,0.8-3.9,1.1-6,1.1
		c-4.4,0-8-1.4-11-4.4c-3-2.9-4.4-6.4-4.4-10.4c0-2,0.4-3.9,1.2-5.7c0.8-1.8,1.9-3.4,3.3-4.7c1.4-1.3,3.1-2.4,4.9-3.2
		c1.9-0.8,3.9-1.2,6.1-1.2c2.1,0,4.1,0.4,6,1.1c1.9,0.8,3.6,1.8,4.9,3.1c1.4,1.3,2.5,2.9,3.3,4.7
		C312.1,267.7,312.5,269.7,312.5,271.8 M283.6,297.9h27v81.8h-27V297.9z"/>
	<path class="st2" d="M359.4,317.9v31.3c0,3.9,0.7,6.7,2.2,8.7c1.5,1.9,4.1,2.9,8,2.9c1.3,0,2.7-0.1,4.2-0.3c1.5-0.2,2.7-0.5,3.7-1
		l0.3,19.7c-1.9,0.7-4.2,1.2-7.1,1.7c-2.9,0.5-5.7,0.7-8.6,0.7c-5.5,0-10.1-0.7-13.8-2.1c-3.7-1.4-6.7-3.3-9-5.9
		c-2.2-2.6-3.9-5.6-4.9-9.2c-1-3.6-1.5-7.5-1.5-11.9v-34.6H320v-20h13v-21.5h26.5v21.5h19.2v20H359.4z"/>
	<path class="st2" d="M476.2,379.9c-7.6,1.9-15.9,2.8-24.9,2.8c-9.3,0-17.9-1.5-25.7-4.4c-7.8-3-14.6-7.1-20.2-12.5
		c-5.6-5.4-10.1-11.8-13.2-19.3c-3.2-7.5-4.8-15.9-4.8-25.1c0-9.3,1.6-17.7,4.9-25.3c3.2-7.6,7.7-14,13.4-19.3
		c5.7-5.3,12.4-9.4,20-12.2c7.7-2.8,15.9-4.3,24.8-4.3c9.2,0,17.7,1.4,25.6,4.2c7.9,2.8,14.3,6.5,19.2,11.3l-17.7,20.2
		c-2.7-3.2-6.4-5.8-10.8-7.8c-4.5-2-9.6-3-15.3-3c-4.9,0-9.5,0.9-13.6,2.7c-4.2,1.8-7.8,4.3-10.8,7.6c-3.1,3.2-5.5,7.1-7.1,11.5
		c-1.7,4.4-2.6,9.3-2.6,14.5c0,5.4,0.8,10.3,2.3,14.8c1.5,4.5,3.8,8.4,6.8,11.6c3,3.2,6.7,5.8,11.2,7.6c4.4,1.8,9.5,2.7,15.2,2.7
		c3.3,0,6.4-0.2,9.4-0.7c2.9-0.5,5.7-1.3,8.2-2.4v-21.2h-22.2V311h48v61.6C490.4,375.6,483.8,378,476.2,379.9"/>
</g>
<g>
	<path class="st2" d="M597.4,338.5c0,6.7-1.2,12.7-3.6,18.2c-2.4,5.4-5.7,10-9.9,13.8c-4.2,3.8-9,6.7-14.5,8.8
		c-5.5,2.1-11.3,3.1-17.6,3.1c-6.1,0-12-1-17.5-3.1c-5.5-2.1-10.4-5-14.5-8.8c-4.1-3.8-7.4-8.4-9.8-13.8c-2.4-5.4-3.6-11.5-3.6-18.2
		c0-6.7,1.2-12.7,3.6-18.1c2.4-5.4,5.7-9.9,9.8-13.6c4.1-3.7,8.9-6.6,14.5-8.5c5.5-2,11.4-3,17.5-3c6.2,0,12.1,1,17.6,3
		c5.5,2,10.3,4.8,14.5,8.5c4.2,3.7,7.4,8.3,9.9,13.6C596.2,325.8,597.4,331.8,597.4,338.5 M571.5,338.5c0-2.6-0.4-5.2-1.3-7.7
		c-0.9-2.5-2.1-4.7-3.8-6.7c-1.6-1.9-3.7-3.5-6.1-4.7c-2.4-1.2-5.2-1.8-8.4-1.8c-3.2,0-6,0.6-8.4,1.8c-2.4,1.2-4.4,2.8-6,4.7
		c-1.6,1.9-2.8,4.1-3.6,6.7c-0.8,2.5-1.2,5.1-1.2,7.7c0,2.6,0.4,5.2,1.2,7.7c0.8,2.5,2,4.8,3.7,6.8c1.6,2,3.7,3.7,6.1,4.9
		c2.4,1.2,5.2,1.8,8.4,1.8c3.2,0,6-0.6,8.4-1.8c2.4-1.2,4.4-2.8,6.1-4.9c1.6-2,2.9-4.3,3.7-6.8C571.1,343.7,571.5,341.1,571.5,338.5
		"/>
	<path class="st2" d="M611.1,363.7c5.1,0,9.4,4,9.4,9.3c0,5.4-4.4,9.4-9.4,9.4c-5.1,0-9.5-4-9.5-9.4
		C601.6,367.6,605.9,363.7,611.1,363.7 M611.1,365.2c-4.3,0-7.7,3.4-7.7,7.8c0,4.6,3.4,7.8,7.7,7.8c4.3,0,7.6-3.3,7.6-7.8
		C618.7,368.5,615.3,365.2,611.1,365.2 M609.1,378.4h-1.7v-10.8h4.1c2.6,0,3.8,1,3.8,3.1c0,1.9-1.2,2.8-2.8,3l3.1,4.7h-1.8l-2.9-4.7
		h-1.9V378.4z M609.1,372.4h2c2,0,2.7-0.6,2.7-1.8c0-1-0.5-1.6-2.4-1.6h-2.2V372.4z"/>
</g>
</svg>
