<?xml version="1.0" encoding="UTF-8"?>
<svg id="Layer_2" data-name="Layer 2" xmlns="http://www.w3.org/2000/svg" xmlns:xlink="http://www.w3.org/1999/xlink" viewBox="0 0 153.01 177.34">
  <defs>
    <style>
      .cls-1 {
        fill: url(#linear-gradient);
      }

      .cls-1, .cls-2, .cls-3, .cls-4, .cls-5 {
        stroke-width: 0px;
      }

      .cls-2 {
        fill: url(#linear-gradient-2);
      }

      .cls-3 {
        fill: #2891f9;
      }

      .cls-4 {
        fill: #2bbdf7;
      }

      .cls-5 {
        fill: #2b6def;
      }
    </style>
    <linearGradient id="linear-gradient" x1="0" y1="158.92" x2="21.24" y2="158.92" gradientUnits="userSpaceOnUse">
      <stop offset=".3" stop-color="#2b6def"/>
      <stop offset=".52" stop-color="#2b90f2"/>
      <stop offset=".76" stop-color="#2bbcf7"/>
    </linearGradient>
    <linearGradient id="linear-gradient-2" x1="41.94" y1="125.68" x2="153.01" y2="125.68" xlink:href="#linear-gradient"/>
  </defs>
  <g id="Layer_2-2" data-name="Layer 2">
    <g>
      <polygon class="cls-4" points="41.97 13.23 41.97 52.03 21.25 64 21.25 1.18 41.97 13.23"/>
      <polygon class="cls-1" points="21.24 152.77 .1 165.06 0 165 21.24 152.77"/>
      <polygon class="cls-5" points="41.97 165.05 21.25 177.34 21.24 177.34 .1 165.06 0 165 21.24 152.77 21.25 152.77 41.97 165.05"/>
      <polygon class="cls-5" points="152.92 163.67 132.22 175.7 132.12 175.64 111.31 163.87 41.97 124.62 41.97 100.43 111.31 139.95 132.12 151.81 152.92 163.67"/>
      <polygon class="cls-4" points="41.97 100.42 41.97 165.05 21.25 152.77 21.25 88.61 21.26 88.62 21.27 88.62 41.94 100.4 41.97 100.42"/>
      <polygon class="cls-2" points="153.01 99.59 153.01 163.62 152.92 163.67 132.12 151.81 111.31 139.95 41.97 100.43 41.97 100.42 41.94 100.4 62.43 88.62 62.93 88.33 63.44 88.62 94.86 106.53 97.19 107.86 111.31 115.9 132.12 127.77 132.12 87.69 132.13 87.69 153.01 99.59"/>
      <polygon class="cls-4" points="153.01 11.91 153.01 72.96 152.95 72.99 132.12 61.12 132.12 0 153.01 11.91"/>
      <polygon class="cls-3" points="132.12 0 132.12 61.08 132.08 61.1 111.31 73.09 111.31 36.5 100.18 42.92 79.32 54.96 77.04 56.29 77.03 56.29 42.1 76.45 41.97 76.52 21.25 88.61 21.25 152.77 21.24 152.77 0 165 0 13.52 21.25 1.18 21.25 64 41.97 52.03 57.98 42.8 78.84 30.75 111.31 12.01 132.12 0"/>
      <polygon class="cls-5" points="152.95 72.99 132.12 85.02 132.08 85.04 111.31 73.19 111.31 73.09 132.08 61.1 132.12 61.12 152.95 72.99"/>
      <polygon class="cls-3" points="132.12 87.69 132.12 127.77 111.31 115.9 111.31 99.71 132.12 87.69"/>
      <polygon class="cls-5" points="111.31 36.5 111.31 60.39 100.15 66.83 97.86 68.16 62.93 88.33 62.43 88.62 41.94 100.4 21.27 88.62 21.26 88.62 21.25 88.61 41.97 76.52 42.1 76.45 77.03 56.29 77.04 56.29 79.32 54.96 100.18 42.92 111.31 36.5"/>
    </g>
  </g>
</svg>