<svg width="143" height="42" viewBox="0 0 143 42" fill="none" xmlns="http://www.w3.org/2000/svg">
<path d="M1.00001 21.0156C1.00001 21.0104 1 21.0052 1 21L21 21L30.9637 38.3414C27.9351 40.0815 24.5039 40.998 21.0116 41C21.0039 41 20.9962 41 20.9885 41C20.9818 41 20.9752 41 20.9686 41C17.4614 40.9945 14.0173 40.0668 10.9819 38.31C7.94639 36.5533 5.42626 34.0292 3.67426 30.9909C1.92485 27.9572 1.00274 24.5174 1.00001 21.0156Z" fill="white" stroke="#1D2A64" stroke-width="2"/>
<path d="M1.00001 20.9844C1.00001 20.9896 1 20.9948 1 21L21 21L30.9637 3.65858C27.9351 1.9185 24.5039 1.00202 21.0116 1C21.0039 1 20.9962 1 20.9885 1C20.9818 1 20.9752 1.00001 20.9686 1.00002C17.4614 1.00553 14.0173 1.9332 10.9819 3.68997C7.94639 5.44674 5.42626 7.97084 3.67426 11.0091C1.92485 14.0428 1.00274 17.4826 1.00001 20.9844Z" fill="#F7F9FB" stroke="#1D2A64" stroke-width="2"/>
<circle r="10" transform="matrix(1 0 0 -1 21 21)" fill="#FAE3EB" stroke="#1D2A64" stroke-width="2"/>
<path d="M21 31C15.4772 31 11 26.5228 11 21H21L25.9835 29.6717C24.5164 30.5167 22.8146 31 21 31Z" fill="#D0ECE3" stroke="#1D2A64" stroke-width="2"/>
<path d="M11 21H21L25.9825 12.3277C24.5156 11.4831 22.8142 11 21 11C15.4772 11 11 15.4772 11 21Z" fill="#DAECFF" stroke="#1D2A64" stroke-width="2"/>
<path d="M50.588 27.374C48.692 27.374 47.12 26.75 45.872 25.502C44.624 24.242 44 22.688 44 20.84C44 18.992 44.624 17.444 45.872 16.196C47.12 14.936 48.692 14.306 50.588 14.306C51.728 14.306 52.778 14.576 53.738 15.116C54.71 15.656 55.466 16.388 56.006 17.312L54.206 18.356C53.87 17.732 53.378 17.24 52.73 16.88C52.094 16.508 51.38 16.322 50.588 16.322C49.244 16.322 48.152 16.748 47.312 17.6C46.484 18.452 46.07 19.532 46.07 20.84C46.07 22.148 46.484 23.228 47.312 24.08C48.152 24.932 49.244 25.358 50.588 25.358C51.38 25.358 52.1 25.178 52.748 24.818C53.396 24.446 53.882 23.948 54.206 23.324L56.006 24.35C55.478 25.274 54.728 26.012 53.756 26.564C52.796 27.104 51.74 27.374 50.588 27.374Z" fill="#1D2A64"/>
<path d="M64.7101 18.14H66.6541V27.14H64.7101V25.844C63.9781 26.864 62.9281 27.374 61.5601 27.374C60.3241 27.374 59.2681 26.918 58.3921 26.006C57.5161 25.082 57.0781 23.96 57.0781 22.64C57.0781 21.308 57.5161 20.186 58.3921 19.274C59.2681 18.362 60.3241 17.906 61.5601 17.906C62.9281 17.906 63.9781 18.41 64.7101 19.418V18.14ZM59.8321 24.71C60.3721 25.25 61.0501 25.52 61.8661 25.52C62.6821 25.52 63.3601 25.25 63.9001 24.71C64.4401 24.158 64.7101 23.468 64.7101 22.64C64.7101 21.812 64.4401 21.128 63.9001 20.588C63.3601 20.036 62.6821 19.76 61.8661 19.76C61.0501 19.76 60.3721 20.036 59.8321 20.588C59.2921 21.128 59.0221 21.812 59.0221 22.64C59.0221 23.468 59.2921 24.158 59.8321 24.71Z" fill="#1D2A64"/>
<path d="M74.014 17.906C75.25 17.906 76.306 18.368 77.182 19.292C78.058 20.204 78.496 21.32 78.496 22.64C78.496 23.972 78.058 25.094 77.182 26.006C76.306 26.918 75.25 27.374 74.014 27.374C72.646 27.374 71.596 26.87 70.864 25.862V30.74H68.92V18.14H70.864V19.436C71.596 18.416 72.646 17.906 74.014 17.906ZM71.674 24.71C72.214 25.25 72.892 25.52 73.708 25.52C74.524 25.52 75.202 25.25 75.742 24.71C76.282 24.158 76.552 23.468 76.552 22.64C76.552 21.812 76.282 21.128 75.742 20.588C75.202 20.036 74.524 19.76 73.708 19.76C72.892 19.76 72.214 20.036 71.674 20.588C71.134 21.128 70.864 21.812 70.864 22.64C70.864 23.468 71.134 24.158 71.674 24.71Z" fill="#1D2A64"/>
<path d="M82.0939 16.43C81.8539 16.67 81.5659 16.79 81.2299 16.79C80.8939 16.79 80.5999 16.67 80.3479 16.43C80.1079 16.178 79.9879 15.884 79.9879 15.548C79.9879 15.212 80.1079 14.924 80.3479 14.684C80.5879 14.432 80.8819 14.306 81.2299 14.306C81.5779 14.306 81.8719 14.432 82.1119 14.684C82.3519 14.924 82.4719 15.212 82.4719 15.548C82.4719 15.884 82.3459 16.178 82.0939 16.43ZM80.2579 27.14V18.14H82.2019V27.14H80.2579Z" fill="#1D2A64"/>
<path d="M89.4811 20.012H87.2491V24.332C87.2491 24.704 87.3331 24.974 87.5011 25.142C87.6691 25.298 87.9151 25.388 88.2391 25.412C88.5751 25.424 88.9891 25.418 89.4811 25.394V27.14C87.9931 27.32 86.9251 27.194 86.2771 26.762C85.6291 26.318 85.3051 25.508 85.3051 24.332V20.012H83.6491V18.14H85.3051V16.196L87.2491 15.62V18.14H89.4811V20.012Z" fill="#1D2A64"/>
<path d="M98.0031 18.14H99.9471V27.14H98.0031V25.844C97.2711 26.864 96.2211 27.374 94.8531 27.374C93.6171 27.374 92.5611 26.918 91.6851 26.006C90.8091 25.082 90.3711 23.96 90.3711 22.64C90.3711 21.308 90.8091 20.186 91.6851 19.274C92.5611 18.362 93.6171 17.906 94.8531 17.906C96.2211 17.906 97.2711 18.41 98.0031 19.418V18.14ZM93.1251 24.71C93.6651 25.25 94.3431 25.52 95.1591 25.52C95.9751 25.52 96.6531 25.25 97.1931 24.71C97.7331 24.158 98.0031 23.468 98.0031 22.64C98.0031 21.812 97.7331 21.128 97.1931 20.588C96.6531 20.036 95.9751 19.76 95.1591 19.76C94.3431 19.76 93.6651 20.036 93.1251 20.588C92.5851 21.128 92.3151 21.812 92.3151 22.64C92.3151 23.468 92.5851 24.158 93.1251 24.71Z" fill="#1D2A64"/>
<path d="M102.213 27.14V14H104.157V27.14H102.213Z" fill="#1D2A64"/>
<path d="M115.99 14.54C117.718 14.54 119.152 15.146 120.292 16.358C121.444 17.57 122.02 19.064 122.02 20.84C122.02 22.604 121.444 24.098 120.292 25.322C119.152 26.534 117.718 27.14 115.99 27.14H111.04V14.54H115.99ZM115.99 25.16C117.178 25.16 118.144 24.752 118.888 23.936C119.644 23.12 120.022 22.088 120.022 20.84C120.022 19.58 119.644 18.548 118.888 17.744C118.144 16.928 117.178 16.52 115.99 16.52H113.11V25.16H115.99Z" fill="#1D2A64"/>
<path d="M125.977 25.16H131.557V27.14H123.907V14.54H131.467V16.52H125.977V19.796H131.017V21.758H125.977V25.16Z" fill="#1D2A64"/>
<path d="M142.722 27.14H140.364L137.592 22.586L134.82 27.14H132.462L136.422 20.66L132.696 14.54H135.036L137.592 18.734L140.148 14.54H142.506L138.78 20.66L142.722 27.14Z" fill="#1D2A64"/>
</svg>
