<svg width="114" height="32" fill="none" xmlns="http://www.w3.org/2000/svg"><path d="M42.24 24V10h6.92c.96 0 1.807.187 2.54.56.733.373 1.3.887 1.7 1.54.413.653.62 1.413.62 2.28a3.97 3.97 0 01-.74 2.36 4.611 4.611 0 01-1.94 1.54L54.4 24H51l-2.72-5.28H45.3V24h-3.06zm3.06-7.78h3.58c.627 0 1.127-.167 1.5-.5.373-.333.56-.767.56-1.3s-.187-.967-.56-1.3c-.373-.333-.873-.5-1.5-.5H45.3v3.6zm15.567 7.98c-1.053 0-2.014-.24-2.88-.72a5.43 5.43 0 01-2.02-1.94c-.493-.827-.74-1.747-.74-2.76 0-1.013.233-1.927.7-2.74a5.315 5.315 0 011.96-1.96c.827-.48 1.74-.72 2.74-.72 1.013 0 1.906.247 2.68.74a5.231 5.231 0 011.86 2.02c.453.84.68 1.807.68 2.9v.72h-7.68c.133.4.333.753.6 1.06.266.307.593.547.98.72.386.173.806.26 1.26.26.453 0 .873-.073 1.26-.22.386-.147.713-.347.98-.6l1.9 1.7a6.745 6.745 0 01-2 1.18c-.68.24-1.44.36-2.28.36zm-2.74-6.5h4.88a2.73 2.73 0 00-.52-1.04 2.313 2.313 0 00-.84-.68 2.307 2.307 0 00-1.08-.26c-.4 0-.767.08-1.1.24-.334.16-.614.387-.84.68a2.891 2.891 0 00-.5 1.06zM68.264 24V10h3.06v5.56h6.24V10h3.06v14h-3.06v-5.66h-6.24V24h-3.06zm20.384.2c-1.053 0-2.006-.24-2.86-.72a5.431 5.431 0 01-2.02-1.94c-.493-.827-.74-1.747-.74-2.76 0-1.027.247-1.947.74-2.76a5.38 5.38 0 012.02-1.96c.854-.48 1.807-.72 2.86-.72 1.054 0 2 .24 2.84.72a5.38 5.38 0 012.02 1.96c.494.813.74 1.733.74 2.76 0 1.013-.246 1.933-.74 2.76a5.43 5.43 0 01-2.02 1.94c-.84.48-1.786.72-2.84.72zm0-2.5c.52 0 .994-.127 1.42-.38.427-.267.76-.62 1-1.06.24-.44.36-.94.36-1.5 0-.547-.126-1.04-.38-1.48a2.678 2.678 0 00-1-1.04c-.413-.267-.88-.4-1.4-.4-.52 0-.993.133-1.42.4-.426.253-.766.6-1.02 1.04-.24.44-.36.933-.36 1.48 0 .56.12 1.06.36 1.5.254.44.587.793 1 1.06.427.253.907.38 1.44.38zm7.843 2.3V10l2.88-.46V24h-2.88zm10.421.14c-.987 0-1.887-.24-2.7-.72a5.463 5.463 0 01-1.92-1.94c-.467-.813-.7-1.72-.7-2.72 0-1 .24-1.907.72-2.72a5.406 5.406 0 011.94-1.94c.826-.48 1.74-.72 2.74-.72.52 0 1.013.073 1.48.22.48.133.92.327 1.32.58V10l2.9-.46V24h-2.86v-.84c-.84.653-1.814.98-2.92.98zm.48-2.46c.493 0 .94-.08 1.34-.24.413-.16.766-.4 1.06-.72v-3.94a2.896 2.896 0 00-1.06-.7c-.414-.16-.86-.24-1.34-.24-.56 0-1.067.127-1.52.38-.44.253-.794.6-1.06 1.04-.267.44-.4.94-.4 1.5a2.9 2.9 0 00.4 1.5c.266.44.62.787 1.06 1.04.453.253.96.38 1.52.38zM21.5 4H6.067a1 1 0 00-.784 1.62L22.4 27.242a2 2 0 001.569.759h5.068a1 1 0 00.809-1.588l-6.954-9.561A6.5 6.5 0 0021.5 4zM5.719 14.778C5.094 14.132 4 14.574 4 15.473V27a1 1 0 001 1h11.142c.883 0 1.333-1.06.72-1.695L5.718 14.778z" fill="#fff"/></svg>