<svg width="201" height="64" viewBox="0 0 201 64" fill="none" xmlns="http://www.w3.org/2000/svg">
<g clip-path="url(#clip0_3242_495)">
<path d="M32 64C49.6731 64 64 49.6731 64 32C64 14.3269 49.6731 0 32 0C14.3269 0 0 14.3269 0 32C0 49.6731 14.3269 64 32 64Z" fill="url(#paint0_linear_3242_495)"/>
<path d="M52.2062 30.0437L43.1677 21.0052L43.1513 20.9888L43.1155 20.9575C43.057 20.9046 42.9958 20.8549 42.9321 20.8084C42.8874 20.7726 42.8427 20.7383 42.7949 20.707C42.7741 20.6921 42.7532 20.6802 42.7308 20.6668C42.2155 20.3293 41.5922 20.1979 40.9845 20.2987C40.3768 20.3995 39.8293 20.7252 39.4506 21.211L25.3934 35.2697V22.7452C25.3934 22.0868 25.1318 21.4554 24.6663 20.9898C24.2007 20.5242 23.5693 20.2627 22.9109 20.2627C22.2525 20.2627 21.621 20.5242 21.1555 20.9898C20.6899 21.4554 20.4283 22.0868 20.4283 22.7452V35.2697L15.2963 30.1376C14.8272 29.6903 14.2017 29.4442 13.5536 29.4519C12.9055 29.4596 12.286 29.7205 11.8277 30.1789C11.3694 30.6372 11.1085 31.2566 11.1008 31.9048C11.0931 32.5529 11.3392 33.1784 11.7865 33.6475L21.156 43.017C21.2148 43.0766 21.2771 43.1329 21.3423 43.1854C21.405 43.2361 21.4706 43.2853 21.5362 43.3345C21.8747 43.5539 22.2616 43.6875 22.6634 43.7237H22.6738C22.7543 43.7312 22.8348 43.7356 22.9153 43.7356H22.9526C23.0202 43.7356 23.0873 43.7326 23.1539 43.7267H23.2031C23.2672 43.7192 23.3313 43.7118 23.394 43.6983H23.4223C23.4924 43.6834 23.5624 43.667 23.631 43.6462H23.643C23.7178 43.6236 23.7915 43.5972 23.8636 43.5671C23.9665 43.5246 24.0661 43.4748 24.1618 43.418L24.2185 43.3852C24.3123 43.3279 24.4019 43.2641 24.4869 43.1944L24.5122 43.172C24.5644 43.1273 24.6166 43.0826 24.6613 43.0319L38.9153 28.7689V41.2546C38.9153 41.913 39.1769 42.5444 39.6425 43.01C40.108 43.4756 40.7395 43.7371 41.3979 43.7371C42.0563 43.7371 42.6877 43.4756 43.1533 43.01C43.6188 42.5444 43.8804 41.913 43.8804 41.2546V28.7301L48.6963 33.555C49.1638 34.0114 49.7924 34.265 50.4457 34.261C51.099 34.257 51.7244 33.9957 52.1862 33.5336C52.6481 33.0715 52.9092 32.446 52.9129 31.7927C52.9167 31.1395 52.6627 30.511 52.2062 30.0437Z" fill="white"/>
<path d="M75.1797 24.5303H82.5453V43.7703H86.9572V24.5303H94.3227V20.4092H75.1797V24.5303Z" fill="#1461DB"/>
<path d="M103.99 26.2091C103.468 26.2453 102.951 26.3378 102.448 26.4849C101.964 26.6257 101.501 26.8298 101.071 27.0917C100.529 27.4079 100.055 27.8273 99.675 28.3263C99.4958 28.5632 99.3334 28.8123 99.1889 29.0718V26.2493H95.2959V43.7702H99.748V34.8152C99.7362 34.2007 99.8264 33.5885 100.015 33.0036C100.186 32.4859 100.463 32.0098 100.829 31.6061C101.196 31.2023 101.642 30.8799 102.141 30.6597C102.689 30.4032 103.28 30.2515 103.884 30.2124C104.454 30.156 105.03 30.2065 105.581 30.3615V26.2493C105.053 26.1838 104.52 26.1703 103.99 26.2091Z" fill="#1461DB"/>
<path d="M122.322 28.942C121.748 27.8129 120.778 26.9352 119.597 26.4774C118.397 26.0003 117.023 25.7617 115.476 25.7617C113.367 25.7617 111.702 26.2165 110.479 27.126C109.281 27.999 108.404 29.2417 107.982 30.6627L111.972 31.927C112.254 31.1259 112.746 30.5692 113.448 30.2571C114.083 29.9584 114.774 29.7978 115.476 29.7859C116.645 29.7859 117.478 30.0295 117.975 30.5165C118.364 30.8967 118.596 31.4529 118.68 32.1716C117.934 32.2834 117.226 32.3893 116.563 32.4862C115.429 32.6542 114.412 32.8301 113.514 33.014C112.726 33.1683 111.951 33.3796 111.194 33.6462C110.368 33.9281 109.604 34.3682 108.947 34.9419C108.407 35.4292 107.993 36.0386 107.737 36.7191C107.482 37.4317 107.356 38.1839 107.365 38.9407C107.354 39.8737 107.587 40.7934 108.039 41.6096C108.499 42.4316 109.186 43.1043 110.017 43.5479C110.888 44.03 111.951 44.2706 113.205 44.2696C114.72 44.2696 115.972 44.0072 116.961 43.4823C117.81 43.0089 118.562 42.3778 119.175 41.6231V43.7835H123.037V33.0617C123.04 32.3364 123.007 31.6113 122.938 30.8893C122.863 30.206 122.654 29.5442 122.322 28.942ZM118.201 38.4487C118.019 38.7855 117.793 39.0963 117.529 39.3731C117.149 39.7785 116.698 40.111 116.199 40.3542C115.559 40.6593 114.855 40.8065 114.146 40.7836C113.697 40.7947 113.251 40.7177 112.832 40.557C112.49 40.4264 112.194 40.1983 111.981 39.9009C111.776 39.5973 111.672 39.2368 111.683 38.8707C111.679 38.5943 111.743 38.3214 111.87 38.076C112.013 37.8161 112.213 37.5914 112.453 37.4184C112.776 37.1876 113.127 36.9996 113.497 36.8593C113.927 36.7033 114.365 36.5733 114.811 36.4701C115.308 36.3509 115.962 36.2182 116.774 36.072C117.292 35.9796 117.924 35.8693 118.646 35.747C118.637 36.0586 118.623 36.3941 118.599 36.7907C118.576 37.364 118.44 37.9271 118.201 38.4487Z" fill="#1461DB"/>
<path d="M143.232 30.4267C143.017 29.6288 142.669 28.8728 142.203 28.1902C141.684 27.4448 140.991 26.8377 140.183 26.4219C139.318 25.9577 138.199 25.7256 136.825 25.7256C135.106 25.7256 133.681 26.0983 132.551 26.8438C132.032 27.1864 131.561 27.5949 131.147 28.059V26.2489H127.222V43.7698H131.695V34.8804C131.695 33.787 131.816 32.9108 132.058 32.2517C132.301 31.5927 132.614 31.0927 132.998 30.7518C133.343 30.4292 133.76 30.1927 134.215 30.0614C134.61 29.9475 135.019 29.8873 135.431 29.8825C136.371 29.8825 137.099 30.0937 137.613 30.5162C138.121 30.9286 138.505 31.4728 138.725 32.0892C138.946 32.692 139.083 33.3229 139.13 33.9634C139.174 34.5847 139.195 35.0956 139.194 35.4962V43.7698H143.667V33.9381C143.667 33.6399 143.647 33.1821 143.603 32.5425C143.547 31.827 143.423 31.1185 143.232 30.4267Z" fill="#1461DB"/>
<path d="M159.756 34.4942C158.948 34.037 157.88 33.6344 156.551 33.2865C155.189 32.9406 154.175 32.6593 153.51 32.4426C152.845 32.2259 152.407 32.0152 152.196 31.8104C152.093 31.7124 152.011 31.5938 151.957 31.4623C151.902 31.3309 151.875 31.1894 151.879 31.047C151.879 30.5386 152.125 30.1524 152.617 29.8796C153.109 29.6067 153.762 29.5023 154.571 29.556C155.404 29.6206 156.064 29.8423 156.551 30.221C156.791 30.4059 156.989 30.6383 157.135 30.9036C157.28 31.1689 157.369 31.4614 157.395 31.7627L161.906 30.9501C161.773 29.9345 161.353 28.9777 160.696 28.1917C160.003 27.3862 159.119 26.7675 158.124 26.3921C156.959 25.9511 155.72 25.736 154.474 25.7584C153.058 25.7584 151.828 25.9831 150.784 26.4324C149.808 26.8267 148.965 27.492 148.355 28.3498C147.772 29.2131 147.472 30.2365 147.497 31.2781C147.473 32.0804 147.669 32.8739 148.063 33.5728C148.442 34.207 149.059 34.7507 149.913 35.204C150.768 35.6572 151.911 36.0682 153.343 36.437C154.607 36.773 155.54 37.0434 156.14 37.2481C156.736 37.4539 157.127 37.6611 157.3 37.8729C157.482 38.1118 157.574 38.4076 157.559 38.7078C157.569 38.9601 157.515 39.2108 157.402 39.4364C157.288 39.662 157.119 39.8551 156.911 39.9975C156.475 40.3047 155.86 40.4583 155.065 40.4583C154.091 40.4583 153.288 40.2257 152.655 39.7605C152.019 39.2907 151.582 38.5989 151.431 37.8222L146.915 38.52C147.207 40.3479 148.032 41.7624 149.389 42.7634C150.745 43.7643 152.527 44.2643 154.734 44.2633C157.027 44.2633 158.822 43.7494 160.119 42.7216C161.417 41.6938 162.068 40.2803 162.073 38.4812C162.096 37.6699 161.906 36.8667 161.521 36.1522C161.15 35.5101 160.562 34.9574 159.756 34.4942Z" fill="#1461DB"/>
<path d="M179.62 28.942C179.046 27.8131 178.076 26.9356 176.895 26.4774C175.694 26.0003 174.32 25.7617 172.774 25.7617C170.665 25.7617 169 26.2165 167.777 27.126C166.579 27.9993 165.701 29.2418 165.278 30.6627L169.27 31.927C169.552 31.1259 170.044 30.5692 170.746 30.2571C171.381 29.9584 172.072 29.7978 172.774 29.7859C173.943 29.7859 174.776 30.0295 175.273 30.5165C175.662 30.8968 175.893 31.4529 175.978 32.1716C175.232 32.2834 174.524 32.3893 173.861 32.4862C172.726 32.6542 171.71 32.8301 170.812 33.014C170.024 33.1683 169.249 33.3796 168.492 33.6462C167.551 33.9941 166.802 34.424 166.245 34.9359C165.705 35.4232 165.291 36.0327 165.035 36.7132C164.779 37.4255 164.653 38.1779 164.663 38.9348C164.652 39.8678 164.884 40.7874 165.337 41.6037C165.797 42.4259 166.484 43.0987 167.315 43.542C168.186 44.0241 169.248 44.2646 170.503 44.2636C172.018 44.2636 173.27 44.0012 174.259 43.4764C175.108 43.0029 175.86 42.3719 176.473 41.6171V43.7776H180.335V33.0617C180.338 32.3364 180.305 31.6113 180.236 30.8893C180.161 30.206 179.952 29.5442 179.62 28.942ZM175.499 38.4487C175.317 38.7855 175.091 39.0963 174.827 39.3731C174.447 39.7785 173.996 40.111 173.497 40.3542C172.857 40.6593 172.153 40.8065 171.444 40.7836C170.995 40.7947 170.549 40.7177 170.13 40.557C169.788 40.4264 169.492 40.1983 169.279 39.9009C169.074 39.5973 168.969 39.2369 168.981 38.8707C168.977 38.5943 169.041 38.3214 169.168 38.076C169.311 37.8157 169.51 37.591 169.751 37.4184C170.074 37.1876 170.424 36.9996 170.795 36.8593C171.225 36.7031 171.663 36.5731 172.109 36.4701C172.606 36.3509 173.26 36.2182 174.072 36.072C174.59 35.9796 175.222 35.8693 175.944 35.747C175.935 36.0586 175.92 36.3941 175.897 36.7907C175.872 37.3638 175.737 37.9267 175.499 38.4487Z" fill="#1461DB"/>
<path d="M194.091 35.0091L200.417 26.2495H194.966L189.029 34.6856V20.4092H184.551L184.519 43.7703H189.029V35.3342L195.096 43.7703H200.839L194.091 35.0091Z" fill="#1461DB"/>
</g>
<defs>
<linearGradient id="paint0_linear_3242_495" x1="4.28217" y1="15.997" x2="59.7178" y2="48.0015" gradientUnits="userSpaceOnUse">
<stop offset="0.13" stop-color="#348BED"/>
<stop offset="0.31" stop-color="#2B80E8"/>
<stop offset="0.64" stop-color="#1461DB"/>
<stop offset="0.72" stop-color="#0E57D7"/>
</linearGradient>
<clipPath id="clip0_3242_495">
<rect width="200.839" height="64" fill="white"/>
</clipPath>
</defs>
</svg>
