<svg width="257" height="227" viewBox="0 0 257 227" fill="none" xmlns="http://www.w3.org/2000/svg">
<path d="M160.944 226.28H246.964C254.554 226.28 259.304 218.06 255.504 211.49L212.494 137C208.694 130.43 199.214 130.43 195.414 137L152.404 211.49C148.604 218.06 153.354 226.28 160.944 226.28Z" fill="white"/>
<path d="M171.704 66.3493L136.354 5.1093C132.784 -1.0807 123.844 -1.0807 120.274 5.1093L1.38358 211.029C-2.52642 217.809 2.36358 226.269 10.1836 226.269H80.9736C88.5236 226.269 95.4936 222.239 99.2636 215.709L171.704 90.2393C175.974 82.8493 175.974 73.7393 171.704 66.3493Z" fill="white"/>
</svg>
