<svg width="1390" height="155" viewBox="0 0 1390 155" fill="none" xmlns="http://www.w3.org/2000/svg">
<path d="M778.091 113.505C776.704 117.097 774.529 120.489 771.563 123.746C768.595 127.004 764.967 129.797 760.747 132.257C756.527 134.651 751.778 136.647 746.633 138.043C741.491 139.505 736.017 140.238 730.279 140.238C719.992 140.238 710.562 138.443 701.989 134.984C693.483 131.46 686.095 126.672 679.963 120.622C673.829 114.571 669.082 107.456 665.783 99.2756C662.488 91.0969 660.772 82.3866 660.772 73.0113C660.772 65.1651 662.025 57.5178 664.466 50.1369C666.906 42.756 670.73 36.1066 675.808 30.3216C680.886 24.4699 687.349 19.7489 695.064 16.0251C702.781 12.3015 711.947 10.2401 722.499 9.77462C727.509 9.57505 731.862 9.77463 735.49 10.5726C739.116 11.304 742.545 12.3678 745.777 13.6978C749.008 15.0278 752.305 16.5571 755.602 18.3524C758.835 20.1477 762.659 21.9432 767.012 23.805L740.897 63.8355C739.974 63.8355 739.775 62.8377 740.237 60.7761C740.699 58.7813 741.491 56.2544 742.545 53.2622C743.599 50.2698 744.919 46.9452 746.305 43.3546C747.756 39.7637 749.008 36.3725 750.195 33.2472C751.316 30.0556 752.172 27.3294 752.701 25.0019C753.228 22.6746 753.096 21.2781 752.24 20.8128C750.657 19.7489 748.612 18.685 746.173 17.621C743.732 16.5571 741.093 15.5596 738.323 14.6952C735.555 13.8309 732.851 13.0994 730.081 12.5009C727.313 11.9024 724.807 11.6364 722.499 11.6364C708.846 11.6364 698.625 16.6237 691.833 26.5978C685.041 36.5719 681.611 51.1344 681.611 70.1517C681.611 82.3866 682.931 92.76 685.633 101.271C688.338 109.783 691.898 116.632 696.384 121.951C700.867 127.271 706.013 131.127 711.947 133.454C717.815 135.848 724.08 136.979 730.608 136.979C734.501 136.979 738.721 136.581 743.27 135.848C747.821 135.117 752.24 133.788 756.527 131.859C760.812 129.93 764.704 127.403 768.131 124.144C771.563 120.887 774.133 116.832 775.848 111.844L778.091 113.374V113.505Z" fill="#41E0A3"/>
<path d="M776.901 73.9423C777.957 62.1729 780.859 52.0652 785.737 43.6869C790.619 35.3085 796.357 28.526 802.949 23.2729C809.544 18.0199 816.469 14.1632 823.855 11.7694C831.174 9.37557 837.966 8.1123 844.099 8.1123C850.232 8.1123 856.827 9.30922 863.752 11.7694C870.676 14.1632 877.006 18.0199 882.679 23.2729C888.349 28.526 892.833 35.3751 896.197 43.6869C899.494 52.0652 900.682 62.1729 899.626 73.9423C898.703 83.783 896.197 92.6941 892.175 100.805C888.085 108.918 883.007 115.834 876.808 121.618C870.611 127.403 863.686 131.926 855.904 135.117C848.187 138.376 840.208 139.971 832.099 139.971C823.986 139.971 816.534 138.376 809.411 135.117C802.291 131.858 796.222 127.403 791.144 121.618C786.068 115.834 782.177 108.918 779.54 100.805C776.901 92.6941 776.045 83.783 776.966 73.9423H776.901ZM884.129 73.9423C883.996 62.6384 882.282 52.9962 878.984 45.0167C875.689 37.0373 871.599 30.5211 866.85 25.5338C862.103 20.4802 857.091 16.8232 851.816 14.5622C846.54 12.2349 841.858 11.1045 837.702 11.1045C833.549 11.1045 828.931 12.2349 823.722 14.5622C818.513 16.8895 813.568 20.5466 808.95 25.5338C804.335 30.5874 800.444 37.0373 797.278 45.0167C794.114 52.9962 792.596 62.6384 792.727 73.9423C792.86 85.3787 794.575 95.0866 797.872 103.068C801.169 111.045 805.191 117.563 809.875 122.616C814.557 127.67 819.567 131.394 824.843 133.721C830.12 136.047 834.801 137.179 838.956 137.179C843.111 137.179 847.792 136.047 853.068 133.721C858.345 131.394 863.29 127.737 867.906 122.616C872.523 117.563 876.414 110.98 879.578 103.068C882.744 95.0866 884.26 85.3787 884.129 73.9423Z" fill="#41E0A3"/>
<path d="M1000.59 28.925L955.417 104.663H952.647L905.561 18.0201V120.953C905.561 124.743 905.759 127.67 906.09 129.598C906.419 131.593 908.265 132.99 911.496 133.852C914.728 134.719 920.135 135.185 927.654 135.316C935.171 135.45 945.986 135.516 960.231 135.516V137.246H889.603V135.516C890.856 135.516 892.24 135.384 893.823 135.185C895.339 134.984 896.857 134.318 898.176 133.388C899.559 132.392 900.683 130.928 901.604 128.998C902.527 127.004 902.989 124.411 902.989 121.021V27.4622C902.989 24.47 902.727 22.0096 902.198 20.0813C901.671 18.1529 900.746 16.6901 899.363 15.6926C897.978 14.6287 896.132 13.9638 893.691 13.4983C891.317 13.0994 888.151 12.8998 884.26 12.8998V11.171H904.177C908.992 11.171 912.948 12.6339 916.113 15.5597C919.277 18.4854 922.31 22.6081 925.278 27.9277L959.966 91.6962L1001.58 18.5519C1002.96 16.1581 1004.41 14.2963 1006.06 13.0328C1007.65 11.7694 1009.82 11.1045 1012.59 11.1045H1027.23V12.8334C1022.42 12.8334 1019.12 14.1634 1017.34 16.823C1015.56 19.4827 1014.7 23.0071 1014.7 27.3958V120.953C1014.7 124.279 1015.16 126.938 1016.02 128.934C1016.88 130.928 1017.93 132.392 1019.19 133.322C1020.44 134.318 1021.76 134.918 1023.21 135.117C1024.66 135.316 1025.98 135.45 1027.23 135.45V137.179H988.06V135.45C989.313 135.45 990.63 135.316 992.081 135.117C993.533 134.918 994.85 134.253 996.104 133.322C997.357 132.324 998.413 130.861 999.27 128.934C1000.13 127.004 1000.59 124.345 1000.59 120.953V28.925Z" fill="#41E0A3"/>
<path d="M1040.16 27.1963C1040.16 23.8717 1039.76 21.2119 1038.97 19.2834C1038.18 17.3551 1037.12 15.9588 1035.87 14.9613C1034.62 13.9639 1033.23 13.3654 1031.85 13.0329C1030.4 12.767 1029.08 12.5674 1027.83 12.5674V11.0381H1077.29C1082.23 11.0381 1086.91 11.4371 1091.4 12.235C1095.88 13.0329 1099.77 14.6288 1103.2 17.0227C1106.57 19.4165 1109.27 22.7413 1111.25 27.13C1113.22 31.5185 1114.28 37.37 1114.28 44.6179C1114.28 58.8478 1110.39 69.2876 1102.61 76.0038C1094.83 82.7198 1083.81 85.9112 1069.64 85.7119L1054.34 85.5127V120.887C1054.34 124.212 1054.73 126.873 1055.52 128.867C1056.31 130.861 1057.37 132.325 1058.62 133.255C1059.88 134.253 1061.26 134.85 1062.71 135.05C1064.23 135.249 1065.55 135.384 1066.87 135.384V137.111H1027.5V135.384C1028.75 135.384 1030.13 135.249 1031.59 135.05C1033.1 134.85 1034.42 134.187 1035.74 133.255C1036.99 132.257 1038.05 130.795 1038.9 128.867C1039.76 126.873 1040.22 124.279 1040.22 120.887V27.13L1040.16 27.1963ZM1054.27 78.3311L1071.28 82.986C1073.59 83.5839 1075.5 83.85 1077.15 83.85C1083.22 83.85 1088.36 80.7909 1092.65 74.6073C1096.87 68.4235 1098.98 58.5154 1098.98 44.884C1098.98 37.0376 1098.26 30.9867 1096.81 26.7974C1095.36 22.6083 1093.38 19.5495 1090.87 17.621C1088.36 15.6929 1085.4 14.5625 1082.03 14.2299C1078.67 13.8974 1075.04 13.698 1071.28 13.698H1065.61C1064.36 13.698 1063.04 13.7644 1061.72 13.9638C1060.4 14.1633 1059.15 14.6288 1058.03 15.4933C1056.91 16.3578 1055.98 17.6876 1055.26 19.5495C1054.6 21.4113 1054.2 24.0046 1054.2 27.3294V78.2642L1054.27 78.3311Z" fill="#41E0A3"/>
<path d="M1095.49 135.649C1096.87 135.649 1098.32 135.516 1099.97 135.316C1101.55 135.117 1103.14 134.519 1104.72 133.653C1106.24 132.791 1107.75 131.46 1109.27 129.665C1110.79 127.869 1112.04 125.343 1113.03 122.15L1140.73 41.8917C1141.98 38.301 1142.44 34.7768 1142.18 31.3191C1141.91 27.8614 1140.86 24.7361 1139.08 21.9433C1137.3 19.1505 1134.72 16.9563 1131.43 15.2939C1128.13 13.6315 1124.04 12.7672 1119.23 12.7672V11.2378H1152.73L1193.61 124.744C1195.13 128.998 1197.31 131.926 1200.34 133.388C1203.31 134.918 1206.28 135.649 1209.31 135.649V137.179H1141.91V135.649C1151.21 135.649 1158.33 135.583 1163.41 135.384C1168.42 135.185 1171.98 134.651 1174.09 133.653C1176.2 132.657 1177.06 131.195 1176.73 129.133C1176.47 127.139 1175.68 124.212 1174.42 120.355L1167.24 99.4107H1124.3L1116.72 121.088C1115.34 125.343 1115.73 128.867 1117.91 131.593C1120.08 134.319 1123.78 135.649 1128.92 135.649V137.179H1095.55V135.649H1095.49ZM1125.03 96.8173H1165.92L1145.14 37.7026L1125.03 96.8173Z" fill="#41E0A3"/>
<path d="M1221.12 31.7181C1221.12 37.0376 1223.03 41.6257 1226.98 45.6154C1230.88 49.5386 1235.69 53.1293 1241.49 56.4539C1247.3 59.7788 1253.56 62.9045 1260.29 65.9622C1267.08 69.0213 1273.35 72.3466 1279.08 75.9367C1284.88 79.5283 1289.7 83.5838 1293.59 88.0392C1297.48 92.5608 1299.46 97.8793 1299.46 103.998C1299.46 109.649 1298.14 114.703 1295.44 119.158C1292.73 123.614 1289.11 127.403 1284.42 130.53C1279.81 133.653 1274.4 136.047 1268.27 137.645C1262.13 139.24 1255.6 140.039 1248.61 140.039C1246.64 140.039 1243.8 139.84 1240.04 139.374C1236.28 138.908 1232.33 138.376 1228.17 137.711C1224.02 137.045 1220.13 136.38 1216.43 135.649C1212.68 134.918 1209.91 134.187 1208.12 133.454L1208.65 118.36C1213.14 118.36 1217.03 119.358 1220.32 121.287C1223.62 123.214 1226.79 125.476 1229.69 127.869C1232.59 130.263 1235.56 132.456 1238.46 134.452C1241.36 136.448 1244.79 137.378 1248.68 137.378C1253.36 137.378 1257.85 136.713 1262.2 135.45C1266.49 134.187 1270.25 132.325 1273.54 129.93C1276.84 127.538 1279.41 124.544 1281.39 121.021C1283.37 117.495 1284.29 113.44 1284.29 108.785C1284.29 103.466 1282.44 98.8771 1278.82 95.0866C1275.13 91.2979 1270.58 87.7724 1265.04 84.5147C1259.56 81.2564 1253.56 78.1318 1247.1 75.1396C1240.64 72.1474 1234.63 68.889 1229.16 65.4313C1223.69 61.9737 1219.07 58.0498 1215.38 53.7277C1211.68 49.4055 1209.91 44.2856 1209.91 38.3675C1209.91 33.8458 1211.03 29.7896 1213.27 26.1325C1215.51 22.4752 1218.48 19.4165 1222.1 16.8898C1225.8 14.3629 1229.95 12.368 1234.57 10.9715C1239.18 9.57522 1243.87 8.91016 1248.55 8.91016C1250.59 8.91016 1253.43 9.10973 1257.06 9.57522C1260.68 10.0407 1264.37 10.5726 1268.14 11.2376C1271.89 11.9025 1275.39 12.5674 1278.62 13.2988C1281.85 14.0304 1284.03 14.7619 1285.15 15.4933L1284.62 30.3881C1282.31 30.3881 1279.87 29.3908 1277.3 27.4623C1274.73 25.5341 1271.96 23.3397 1268.99 20.9458C1266.03 18.552 1262.86 16.4243 1259.43 14.4292C1256.07 12.4346 1252.44 11.5036 1248.55 11.5036C1245.12 11.5036 1241.76 11.9691 1238.53 12.9666C1235.23 13.9639 1232.33 15.3602 1229.75 17.1555C1227.18 18.951 1225.14 21.0787 1223.55 23.5391C1222.04 25.9994 1221.25 28.7257 1221.25 31.585L1221.12 31.7181Z" fill="#41E0A3"/>
<path d="M1311.66 31.7181C1311.66 37.0376 1313.57 41.6257 1317.53 45.6154C1321.42 49.5386 1326.23 53.1293 1332.04 56.4539C1337.84 59.7788 1344.1 62.9045 1350.83 65.9622C1357.62 69.0213 1363.89 72.3466 1369.62 75.9367C1375.43 79.5283 1380.24 83.5838 1384.13 88.0392C1388.02 92.5608 1390 97.8793 1390 103.998C1390 109.649 1388.68 114.703 1385.98 119.158C1383.28 123.614 1379.65 127.403 1374.97 130.53C1370.35 133.653 1364.94 136.047 1358.81 137.645C1352.67 139.24 1346.15 140.039 1339.16 140.039C1337.18 140.039 1334.34 139.84 1330.59 139.374C1326.83 138.908 1322.87 138.376 1318.71 137.711C1314.56 137.045 1310.67 136.38 1306.97 135.649C1303.28 134.918 1300.45 134.187 1298.67 133.454L1299.19 118.36C1303.68 118.36 1307.57 119.358 1310.87 121.287C1314.16 123.214 1317.33 125.476 1320.23 127.869C1323.13 130.263 1326.1 132.456 1329 134.452C1331.9 136.448 1335.33 137.378 1339.22 137.378C1343.9 137.378 1348.39 136.713 1352.74 135.45C1357.03 134.187 1360.79 132.325 1364.08 129.93C1367.38 127.538 1369.95 124.544 1371.93 121.021C1373.91 117.495 1374.83 113.44 1374.83 108.785C1374.83 103.466 1372.99 98.8771 1369.36 95.0866C1365.67 91.2979 1361.12 87.7724 1355.64 84.5147C1350.17 81.2564 1344.17 78.1318 1337.71 75.1396C1331.24 72.1474 1325.24 68.889 1319.77 65.4313C1314.3 61.9737 1309.68 58.0498 1306.05 53.7277C1302.36 49.4055 1300.58 44.2856 1300.58 38.3675C1300.58 33.8458 1301.7 29.7896 1303.94 26.1325C1306.18 22.4752 1309.15 19.4165 1312.78 16.8898C1316.47 14.3629 1320.63 12.368 1325.24 10.9715C1329.86 9.57522 1334.54 8.91016 1339.22 8.91016C1341.27 8.91016 1344.1 9.10973 1347.73 9.57522C1351.36 10.0407 1355.05 10.5726 1358.81 11.2376C1362.57 11.9025 1366.06 12.5674 1369.29 13.2988C1372.53 14.0304 1374.7 14.7619 1375.82 15.4933L1375.29 30.3881C1372.99 30.3881 1370.55 29.3908 1367.97 27.4623C1365.4 25.5341 1362.63 23.3397 1359.66 20.9458C1356.7 18.552 1353.53 16.4243 1350.1 14.4292C1346.67 12.4346 1343.11 11.5036 1339.22 11.5036C1335.79 11.5036 1332.43 11.9691 1329.2 12.9666C1325.97 13.9639 1323 15.3602 1320.43 17.1555C1317.86 18.951 1315.81 21.0787 1314.23 23.5391C1312.71 25.9994 1311.92 28.7257 1311.92 31.585L1311.66 31.7181Z" fill="#41E0A3"/>
<path d="M72.0785 93.3595L60.8679 147.22L48.338 110.181L51.7671 92.8935L0 91.6289L53.4159 84.2487L67.6601 12.102L86.7184 22.8077L74.5184 81.2565L124.439 74.2742L140.398 0L152.928 37.0375L129.979 150.277L110.129 139.573L120.153 94.4232L72.0125 93.292L72.0785 93.3595Z" fill="#41E0A3"/>
<path d="M233.711 104.863L148.708 131.46L131.826 112.908L228.569 22.0098L259.497 120.688L242.813 141.234L233.711 104.863ZM233.58 104.13L220.787 52.93L163.545 108.253L233.58 104.197V104.13Z" fill="#41E0A3"/>
<path d="M232 23.1403L283.041 100.14L356.57 23.1403L395.347 7.31445L276.844 140.302L232 23.1403Z" fill="#41E0A3"/>
<path d="M354.388 96.8815L457.923 155L327.482 109.251L309.149 85.2466L431.808 20.4805L439.854 42.4903L424.158 51.7995L419.872 45.3496L354.784 80.5918L419.147 87.3083L354.388 96.8815Z" fill="#41E0A3"/>
<path d="M452.386 19.483L490.24 105.261L512.793 0.0664062L525.323 37.1041L504.417 147.686L449.815 64.8988L433.196 146.355L420.666 110.249L439.001 25.6004L452.386 19.5495V19.483Z" fill="#41E0A3"/>
<path d="M542.469 23.5391C542.469 27.0634 541.282 30.7871 538.841 34.5773C536.467 38.434 533.301 41.3596 529.543 43.3547V40.2958C532.774 38.3676 534.884 35.8407 536.006 32.7155C534.423 33.1144 532.905 33.1144 531.522 32.7155C530.135 32.3165 528.949 31.6516 527.96 30.6541C526.971 29.6568 526.246 28.5264 525.717 27.2629C525.19 25.933 524.859 24.6695 524.859 23.4728C525.784 23.4728 526.708 23.1402 527.696 22.4753C528.685 21.8104 529.61 21.0124 530.399 20.0814C531.191 19.1506 531.917 18.0866 532.511 16.9562C533.105 15.8258 533.567 14.8285 533.894 13.8975C534.423 15.8258 535.477 17.8207 537.125 19.8155C538.776 21.8104 540.557 23.0736 542.469 23.4728V23.5391Z" fill="#41E0A3"/>
<path d="M648.572 41.3598L633.604 50.2702L630.174 43.6873L564.624 75.0059L645.144 88.9039L647.385 110.98L540.026 142.432L614.084 102.403L535.806 86.9099L545.368 65.6963L642.44 19.6826L648.639 41.3598H648.572Z" fill="#41E0A3"/>
</svg>
