<?xml version="1.0" encoding="UTF-8" standalone="no"?>
<svg
   xmlns:dc="http://purl.org/dc/elements/1.1/"
   xmlns:cc="http://creativecommons.org/ns#"
   xmlns:rdf="http://www.w3.org/1999/02/22-rdf-syntax-ns#"
   xmlns:svg="http://www.w3.org/2000/svg"
   xmlns="http://www.w3.org/2000/svg"
   viewBox="0 0 2560 1440"
   height="1440"
   width="2560"
   xml:space="preserve"
   id="svg2"
   version="1.1"><metadata
     id="metadata8"><rdf:RDF><cc:Work
         rdf:about=""><dc:format>image/svg+xml</dc:format><dc:type
           rdf:resource="http://purl.org/dc/dcmitype/StillImage" /></cc:Work></rdf:RDF></metadata><defs
     id="defs6"><clipPath
       id="clipPath18"
       clipPathUnits="userSpaceOnUse"><path
         id="path16"
         d="M 0,1080 H 1920 V 0 H 0 Z" /></clipPath></defs><g
     transform="matrix(1.3333333,0,0,-1.3333333,0,1440)"
     id="g10"><g
       id="g12"><g
         clip-path="url(#clipPath18)"
         id="g14"><g
           transform="translate(1365.4912,658.7814)"
           id="g20"><path
             id="path22"
             style="fill:#1e185b;fill-opacity:1;fill-rule:nonzero;stroke:none"
             d="m 0,0 h -120.605 c -4.019,0 -7.288,-3.207 -7.288,-7.149 v -11.903 c 0,-3.941 3.269,-7.148 7.288,-7.148 h 47.414 v -107.95 c 0,-3.658 3.098,-6.634 6.907,-6.634 h 11.803 c 3.809,0 6.908,2.976 6.908,6.634 V -26.2 h 47.414 c 4.018,0 7.288,3.519 7.288,7.46 V -7.443 C 7.129,-3.501 4.018,0 0,0" /></g><g
           transform="translate(850.654,583.7404)"
           id="g24"><path
             id="path26"
             style="fill:#1e185b;fill-opacity:1;fill-rule:nonzero;stroke:none"
             d="m 0,0 c 0,-22.108 -17.986,-40.094 -40.094,-40.094 h -13.185 c -22.108,0 -40.095,17.986 -40.095,40.094 v 8.931 c 0,22.107 17.987,40.094 40.095,40.094 h 13.185 C -17.986,49.025 0,31.038 0,8.931 Z m -38.202,74.732 h -16.97 c -34.727,0 -62.98,-28.253 -62.98,-62.98 V -2.763 c 0,-34.728 28.253,-62.98 62.98,-62.98 h 16.97 c 34.727,0 62.98,28.252 62.98,62.98 v 14.515 c 0,34.727 -28.253,62.98 -62.98,62.98" /></g><g
           transform="translate(1159.3551,658.7814)"
           id="g28"><path
             id="path30"
             style="fill:#1e185b;fill-opacity:1;fill-rule:nonzero;stroke:none"
             d="m 0,0 h -85.317 c -3.954,0 -7.159,-3.205 -7.159,-7.159 v -11.578 c 0,-3.954 3.205,-7.159 7.159,-7.159 H 0.301 c 4.342,0 8.462,-1.711 11.302,-4.695 2.732,-2.872 4.209,-6.641 4.158,-10.612 C 15.654,-49.42 8.69,-56.105 0.238,-56.105 h -29.772 -13.316 -7.143 c -5.656,0 -9.168,-6.149 -6.296,-11.021 l 41.716,-70.75 c 1.156,-1.961 3.262,-3.167 5.539,-3.171 l 24.935,-0.048 c 1.684,-0.071 3.241,1.987 2.319,3.48 l -29.743,50.727 c -1.268,2.166 0.294,4.89 2.804,4.89 H 0.26 c 0,0 0.006,-0.002 0.006,-0.002 22.534,0.015 41.097,18.159 41.386,40.46 0.144,11.049 -4.048,21.465 -11.804,29.328 C 22.194,-4.451 11.315,0 0,0" /></g><g
           transform="translate(683.0115,602.6937)"
           id="g32"><path
             id="path34"
             style="fill:#1e185b;fill-opacity:1;fill-rule:nonzero;stroke:none"
             d="m 0,0 h -56.624 c -4.009,-0.202 -6.674,-3.602 -6.674,-7.865 v -10.212 c 0,-4.263 2.932,-7.603 6.674,-7.603 h 37.453 c -2.044,-11.922 -9.33,-22.052 -19.42,-27.907 -0.05,-0.029 -0.1,-0.057 -0.15,-0.085 l 0.025,0.003 c -5.945,-3.406 -12.768,-5.32 -19.901,-5.32 h -11.085 c -22.161,0 -40.126,17.965 -40.126,40.126 v 8.808 c 0,22.161 17.965,40.126 40.126,40.126 h 11.085 c 10.81,0 20.944,-4.244 28.535,-11.951 1.017,-1.033 2.452,-1.625 3.938,-1.625 h 19.782 0.879 1.367 c 0.124,0 0.251,0.003 0.373,0.021 2.181,0.31 2.851,1.477 2.851,1.477 0.57,0.876 0.812,1.924 0.756,2.739 -0.041,0.581 -0.214,1.148 -0.486,1.663 -11.017,20.917 -32.329,33.838 -56.07,33.838 h -14.935 c -35.041,0 -63.447,-28.407 -63.447,-63.448 v -14.488 c 0,-35.041 28.406,-63.447 63.447,-63.447 h 14.935 c 1.842,0 3.667,0.077 5.472,0.23 0.796,0.067 1.587,0.155 2.375,0.251 0.105,0.013 0.212,0.02 0.317,0.034 0.565,0.071 1.123,0.163 1.683,0.25 0.325,0.05 0.654,0.09 0.978,0.145 0.367,0.063 0.73,0.141 1.096,0.21 0.51,0.096 1.023,0.185 1.529,0.294 0.362,0.077 0.718,0.17 1.078,0.254 0.503,0.117 1.009,0.226 1.508,0.355 0.388,0.1 0.77,0.217 1.156,0.324 0.464,0.129 0.932,0.251 1.391,0.39 0.431,0.131 0.855,0.279 1.282,0.418 0.407,0.133 0.818,0.257 1.221,0.398 0.565,0.197 1.121,0.413 1.679,0.626 0.259,0.098 0.521,0.188 0.779,0.29 0.429,0.17 0.85,0.357 1.274,0.536 0.379,0.16 0.762,0.312 1.137,0.479 0.293,0.13 0.578,0.274 0.868,0.408 0.499,0.232 1,0.458 1.492,0.702 0.279,0.139 0.552,0.291 0.829,0.433 0.494,0.255 0.99,0.505 1.476,0.771 0.382,0.21 0.755,0.435 1.132,0.652 0.372,0.215 0.75,0.422 1.118,0.644 0.437,0.264 0.864,0.544 1.294,0.818 0.298,0.191 0.602,0.373 0.897,0.568 0.389,0.257 0.767,0.529 1.15,0.795 0.327,0.227 0.659,0.446 0.982,0.679 0.351,0.254 0.692,0.522 1.039,0.784 0.342,0.258 0.69,0.51 1.028,0.775 0.339,0.268 0.667,0.549 1.001,0.823 0.334,0.273 0.672,0.54 1,0.821 0.351,0.301 0.691,0.615 1.035,0.924 0.298,0.267 0.603,0.527 0.896,0.8 0.305,0.284 0.599,0.581 0.898,0.871 0.322,0.311 0.649,0.616 0.964,0.935 0.255,0.258 0.5,0.527 0.75,0.79 0.347,0.362 0.699,0.72 1.037,1.091 0.279,0.307 0.546,0.626 0.82,0.939 0.297,0.339 0.6,0.672 0.89,1.018 0.273,0.327 0.533,0.664 0.8,0.996 0.277,0.345 0.561,0.684 0.831,1.036 0.262,0.34 0.511,0.693 0.767,1.039 0.261,0.354 0.528,0.703 0.782,1.063 0.256,0.362 0.497,0.735 0.745,1.103 0.241,0.357 0.488,0.707 0.721,1.068 0.242,0.377 0.47,0.764 0.705,1.146 0.224,0.365 0.456,0.724 0.673,1.093 0.215,0.367 0.415,0.743 0.623,1.114 0.223,0.397 0.452,0.789 0.666,1.191 0.198,0.37 0.379,0.75 0.569,1.125 0.21,0.414 0.427,0.823 0.628,1.242 0.201,0.418 0.385,0.846 0.576,1.269 0.088,0.193 0.175,0.387 0.263,0.579 0.089,0.193 0.179,0.384 0.263,0.58 0.184,0.429 0.351,0.867 0.526,1.301 0.16,0.396 0.328,0.787 0.48,1.187 0.122,0.321 0.233,0.648 0.346,0.973 0.006,0.018 0.013,0.036 0.019,0.054 0.018,0.052 0.037,0.104 0.056,0.156 0.012,0.036 0.025,0.071 0.037,0.106 0.149,0.419 0.307,0.833 0.447,1.256 0.143,0.431 0.27,0.872 0.404,1.308 0.066,0.212 0.13,0.424 0.197,0.636 0.021,0.066 0.04,0.134 0.062,0.2 0.047,0.152 0.096,0.303 0.14,0.456 0.027,0.092 0.049,0.187 0.074,0.28 0.045,0.17 0.09,0.338 0.134,0.508 0.076,0.278 0.146,0.557 0.22,0.836 0.085,0.313 0.171,0.626 0.248,0.943 0.007,0.025 0.014,0.05 0.02,0.076 10e-4,10e-4 10e-4,10e-4 10e-4,0.002 0,0.001 0,0.002 0,0.003 0.001,0.001 0.001,0.003 0.001,0.005 0.001,0.003 0.002,0.006 0.003,0.009 0.008,0.033 0.013,0.066 0.018,0.099 0.004,0.017 0.006,0.033 0.009,0.05 1.141,4.761 1.762,9.723 1.762,14.834 v 3.626 6.215 4.06 C 6.675,-3.901 3.831,-0.22 0,0" /></g><g
           transform="translate(984.7015,657.2343)"
           id="g36"><path
             id="path38"
             style="fill:#1e185b;fill-opacity:1;fill-rule:nonzero;stroke:none"
             d="m 0,0 c -1.028,1.757 -3.568,1.757 -4.596,0 l -12.76,-21.815 c -1.062,-1.816 -1.058,-4.065 0.01,-5.877 L 47.298,-137.08 c 0.757,-1.285 2.18,-2.1 3.672,-2.103 l 27.079,-0.048 c 1.511,-0.003 2.454,1.638 1.691,2.943 z" /></g><g
           transform="translate(958.3784,612.5622)"
           id="g40"><path
             id="path42"
             style="fill:#1e185b;fill-opacity:1;fill-rule:nonzero;stroke:none"
             d="m 0,0 c -1.013,1.712 -3.493,1.705 -4.496,-0.013 l -53.609,-90.989 c -0.921,-1.576 0.22,-3.556 2.045,-3.551 l 27.229,0.083 c 1.165,0.004 2.242,0.621 2.835,1.625 14.637,24.81 23.937,40.267 38.577,65.077 1.186,2.009 1.183,4.504 -0.004,6.511 z" /></g><g
           transform="translate(792.5599,488.0095)"
           id="g44"><path
             id="path46"
             style="fill:#00c3c7;fill-opacity:1;fill-rule:nonzero;stroke:none"
             d="m 0,0 -9.856,-39.984 h -12.768 l -3.808,17.416 c -0.075,0.336 -0.187,0.896 -0.336,1.68 -0.15,0.784 -0.327,1.68 -0.532,2.688 -0.206,1.008 -0.383,1.997 -0.532,2.968 -0.15,0.971 -0.262,1.792 -0.336,2.464 -0.075,-0.672 -0.196,-1.493 -0.364,-2.464 -0.168,-0.971 -0.346,-1.96 -0.532,-2.968 -0.187,-1.008 -0.364,-1.904 -0.532,-2.688 -0.168,-0.784 -0.289,-1.344 -0.364,-1.68 l -3.864,-17.416 H -46.592 L -56.504,0 h 10.416 l 4.368,-20.048 c 0.112,-0.485 0.261,-1.185 0.448,-2.1 0.186,-0.915 0.382,-1.895 0.588,-2.94 0.205,-1.046 0.401,-2.063 0.588,-3.052 0.186,-0.989 0.317,-1.82 0.392,-2.492 0.149,1.12 0.345,2.408 0.588,3.864 0.242,1.456 0.513,2.921 0.812,4.396 0.298,1.475 0.588,2.847 0.868,4.116 0.28,1.269 0.513,2.315 0.7,3.136 L -33.208,0 h 10.024 l 3.416,-15.12 c 0.186,-0.784 0.42,-1.82 0.7,-3.108 0.28,-1.288 0.569,-2.679 0.868,-4.172 0.298,-1.494 0.578,-2.968 0.84,-4.424 0.261,-1.456 0.448,-2.726 0.56,-3.808 0.112,0.933 0.298,2.09 0.56,3.472 0.261,1.381 0.522,2.734 0.784,4.06 0.261,1.325 0.466,2.324 0.616,2.996 L -10.416,0 Z" /></g><g
           transform="translate(848.0555,468.0737)"
           id="g48"><path
             id="path50"
             style="fill:#00c3c7;fill-opacity:1;fill-rule:nonzero;stroke:none"
             d="m 0,0 c 0,-3.622 0.625,-6.459 1.876,-8.512 1.25,-2.054 3.313,-3.08 6.188,-3.08 2.986,0 5.077,1.026 6.272,3.08 1.194,2.053 1.792,4.89 1.792,8.512 0,3.621 -0.598,6.477 -1.792,8.568 -1.195,2.09 -3.267,3.136 -6.216,3.136 -2.95,0 -5.04,-1.046 -6.272,-3.136 C 0.616,6.477 0,3.621 0,0 m 27.496,0 c 0,-4.144 -0.663,-7.756 -1.988,-10.836 -1.326,-3.08 -3.426,-5.479 -6.3,-7.196 -2.875,-1.718 -6.59,-2.576 -11.144,-2.576 -4.48,0 -8.158,0.858 -11.032,2.576 -2.875,1.717 -4.994,4.125 -6.356,7.224 -1.363,3.098 -2.044,6.72 -2.044,10.864 0,4.144 0.69,7.746 2.072,10.808 1.381,3.061 3.5,5.441 6.356,7.14 2.856,1.698 6.542,2.548 11.06,2.548 4.554,0 8.26,-0.85 11.116,-2.548 2.856,-1.699 4.946,-4.088 6.272,-7.168 C 26.833,7.756 27.496,4.144 27.496,0" /></g><g
           transform="translate(936.7032,479.8337)"
           id="g52"><path
             id="path54"
             style="fill:#00c3c7;fill-opacity:1;fill-rule:nonzero;stroke:none"
             d="m 0,0 h -2.128 v -9.128 h 2.016 c 1.642,0 2.996,0.364 4.06,1.092 1.064,0.728 1.596,2.025 1.596,3.892 0,1.269 -0.439,2.277 -1.316,3.024 C 3.35,-0.374 1.941,0 0,0 m 0.168,8.176 c 10.864,0 16.296,-3.939 16.296,-11.816 0,-2.427 -0.607,-4.536 -1.82,-6.328 -1.214,-1.792 -2.866,-3.267 -4.956,-4.424 L 21.336,-31.808 H 9.072 l -8.456,14.56 h -2.744 v -14.56 H -12.936 V 8.176 Z" /></g><g
           transform="translate(1002.6705,448.0256)"
           id="g56"><path
             id="path58"
             style="fill:#00c3c7;fill-opacity:1;fill-rule:nonzero;stroke:none"
             d="M 0,0 V 39.984 H 10.808 V 8.736 h 15.4 V 0 Z" /></g><g
           transform="translate(1098.9897,468.4656)"
           id="g60"><path
             id="path62"
             style="fill:#00c3c7;fill-opacity:1;fill-rule:nonzero;stroke:none"
             d="m 0,0 c 0,7.205 -2.931,10.808 -8.792,10.808 h -3.136 v -22.4 h 2.408 c 3.285,0 5.693,0.952 7.224,2.856 C -0.766,-6.832 0,-3.92 0,0 M 11.2,0.392 C 11.2,-4.238 10.332,-8.102 8.596,-11.2 6.86,-14.299 4.424,-16.614 1.288,-18.144 -1.848,-19.675 -5.544,-20.44 -9.8,-20.44 h -12.936 v 39.984 h 13.832 c 6.421,0 11.377,-1.643 14.868,-4.928 C 9.454,11.33 11.2,6.589 11.2,0.392" /></g><g
           transform="translate(1184.5015,460.1777)"
           id="g64"><path
             id="path66"
             style="fill:#00c3c7;fill-opacity:1;fill-rule:nonzero;stroke:none"
             d="m 0,0 c 0,-2.203 -0.551,-4.266 -1.652,-6.188 -1.102,-1.923 -2.8,-3.491 -5.096,-4.704 -2.296,-1.214 -5.274,-1.82 -8.932,-1.82 -1.83,0 -3.426,0.084 -4.788,0.252 -1.363,0.168 -2.642,0.438 -3.836,0.812 -1.195,0.373 -2.427,0.858 -3.696,1.456 v 9.632 c 2.165,-1.083 4.349,-1.914 6.552,-2.492 2.202,-0.579 4.2,-0.868 5.992,-0.868 1.605,0 2.781,0.28 3.528,0.84 0.746,0.56 1.12,1.269 1.12,2.128 0,1.045 -0.551,1.885 -1.652,2.52 -1.102,0.634 -2.959,1.549 -5.572,2.744 -1.979,0.896 -3.696,1.866 -5.152,2.912 -1.456,1.045 -2.576,2.314 -3.36,3.808 -0.784,1.493 -1.176,3.378 -1.176,5.656 0,2.576 0.634,4.732 1.904,6.468 1.269,1.736 3.033,3.042 5.292,3.92 2.258,0.877 4.881,1.316 7.868,1.316 2.613,0 4.965,-0.299 7.056,-0.896 2.09,-0.598 3.957,-1.251 5.6,-1.96 l -3.304,-8.344 c -1.718,0.784 -3.407,1.409 -5.068,1.876 -1.662,0.466 -3.202,0.7 -4.62,0.7 -1.419,0 -2.446,-0.243 -3.08,-0.728 -0.635,-0.486 -0.952,-1.102 -0.952,-1.848 0,-0.635 0.242,-1.195 0.728,-1.68 0.485,-0.486 1.297,-1.018 2.436,-1.596 1.138,-0.579 2.697,-1.316 4.676,-2.212 1.941,-0.896 3.593,-1.848 4.956,-2.856 C -2.866,7.84 -1.82,6.626 -1.092,5.208 -0.364,3.789 0,2.053 0,0" /></g></g></g></g></svg>