<svg width="1080" height="1080" viewBox="0 0 1080 1080" fill="none" xmlns="http://www.w3.org/2000/svg">
<rect width="1080" height="1080" fill="black"/>
<path d="M169.695 562H500.3C502.443 562 504.404 562.617 505.379 563.596C506.353 564.575 506.171 565.753 504.906 566.642L459.305 598.796C458.233 599.553 456.529 600 454.705 600C427.436 600 216.492 600 198.155 600C197.294 600 196.456 599.898 195.687 599.702C167.779 592.559 164 578.127 164 564.947C163.995 563.324 166.537 562 169.695 562ZM431.899 572.231C431.899 573.038 433.175 573.693 434.749 573.693H440.449C442.022 573.693 443.299 573.038 443.299 572.231V569.308C443.299 568.501 442.023 567.846 440.449 567.846H434.749C433.176 567.846 431.899 568.501 431.899 569.308V572.231ZM409.099 572.231C409.099 573.038 410.375 573.693 411.949 573.693H417.649C419.222 573.693 420.499 573.038 420.499 572.231V569.308C420.499 568.501 419.223 567.846 417.649 567.846H411.949C410.376 567.846 409.099 568.501 409.099 569.308V572.231ZM386.298 572.231C386.298 573.038 387.575 573.693 389.149 573.693H394.849C396.422 573.693 397.699 573.038 397.699 572.231V569.308C397.699 568.501 396.422 567.846 394.849 567.846H389.149C387.576 567.846 386.298 568.501 386.298 569.308V572.231ZM363.498 572.231C363.498 573.038 364.774 573.693 366.348 573.693H372.048C373.621 573.693 374.898 573.038 374.898 572.231V569.308C374.898 568.501 373.622 567.846 372.048 567.846H366.348C364.775 567.846 363.498 568.501 363.498 569.308V572.231ZM340.697 572.231C340.697 573.038 341.974 573.693 343.548 573.693H349.248C350.821 573.693 352.098 573.038 352.098 572.231V569.308C352.098 568.501 350.821 567.846 349.248 567.846H343.548C341.975 567.846 340.697 568.501 340.697 569.308V572.231ZM317.897 572.231C317.897 573.038 319.174 573.693 320.748 573.693H326.447C328.021 573.693 329.298 573.038 329.298 572.231V569.308C329.298 568.501 328.021 567.846 326.447 567.846H320.748C319.174 567.846 317.897 568.501 317.897 569.308V572.231ZM295.096 572.231C295.096 573.038 296.373 573.693 297.947 573.693H303.647C305.22 573.693 306.497 573.038 306.497 572.231V569.308C306.497 568.501 305.22 567.846 303.647 567.846H297.947C296.374 567.846 295.096 568.501 295.096 569.308V572.231ZM272.296 572.231C272.296 573.038 273.573 573.693 275.147 573.693H280.846C282.42 573.693 283.697 573.038 283.697 572.231V569.308C283.697 568.501 282.42 567.846 280.846 567.846H275.147C273.573 567.846 272.296 568.501 272.296 569.308V572.231ZM249.496 572.231C249.496 573.038 250.773 573.693 252.346 573.693H258.046C259.619 573.693 260.897 573.038 260.897 572.231V569.308C260.897 568.501 259.62 567.846 258.046 567.846H252.346C250.773 567.846 249.496 568.501 249.496 569.308V572.231ZM226.695 572.231C226.695 573.038 227.972 573.693 229.546 573.693H235.245C236.819 573.693 238.096 573.038 238.096 572.231V569.308C238.096 568.501 236.819 567.846 235.245 567.846H229.546C227.972 567.846 226.695 568.501 226.695 569.308V572.231ZM203.895 572.231C203.895 573.038 205.172 573.693 206.745 573.693H212.445C214.018 573.693 215.296 573.038 215.296 572.231V569.308C215.296 568.501 214.019 567.846 212.445 567.846H206.745C205.172 567.846 203.895 568.501 203.895 569.308V572.231Z" fill="url(#paint0_linear_3437_5952)"/>
<path d="M212.465 539.548L216.198 534.631C217.047 533.509 219.156 532.769 221.505 532.769H243.804V525.462C243.804 524.655 245.08 524 246.654 524H252.354C253.927 524 255.204 524.655 255.204 525.462V532.769H283.705V525.462C283.705 524.655 284.981 524 286.555 524H292.255C293.828 524 295.105 524.655 295.105 525.462V532.769H323.606V525.462C323.606 524.655 324.882 524 326.456 524H332.156C333.729 524 335.006 524.655 335.006 525.462V532.769H358.65C360.999 532.769 363.107 533.509 363.962 534.631L367.696 539.545C368.42 540.504 367.041 541.539 365.039 541.539H215.121C213.115 541.539 211.735 540.504 212.465 539.548Z" fill="url(#paint1_linear_3437_5952)"/>
<path d="M188.153 554.203L191.527 549.327C192.331 548.16 194.486 547.383 196.897 547.383H418.277C420.689 547.383 422.843 548.16 423.646 549.327L427.021 554.2C427.682 555.153 426.308 556.152 424.342 556.152H190.837C188.871 556.152 187.491 555.153 188.153 554.203Z" fill="url(#paint2_linear_3437_5952)"/>
<mask id="path-4-outside-1_3437_5952" maskUnits="userSpaceOnUse" x="176" y="394" width="390" height="96" fill="black">
<rect fill="white" x="176" y="394" width="390" height="96"/>
<path d="M290.176 396.76L286.848 405.72H266.368L269.696 396.76H290.176ZM286.336 407L283.136 415.96H262.656L265.856 407H286.336ZM282.624 417.24L279.424 426.2H258.944L262.144 417.24H282.624ZM278.912 427.48L275.712 436.44H255.232L258.432 427.48H278.912ZM275.2 437.72L272 446.68H251.52L254.72 437.72H275.2ZM235.392 405.72H208.768L212.096 396.76H232.192L235.392 405.72ZM238.976 415.96H205.056L208.256 407H235.776L238.976 415.96ZM242.56 426.2H201.344L204.544 417.24H239.36L242.56 426.2ZM271.488 447.96L268.288 456.92H226.176L222.976 447.96H250.24L250.624 449.112L251.008 447.96H271.488ZM249.6 446.68H222.464L219.52 437.72H246.656L249.6 446.68ZM246.144 436.44H218.88L218.496 435.288L218.112 436.44H197.632L200.832 427.48H242.944L246.144 436.44ZM267.776 458.2L264.448 467.16H229.76L226.56 458.2H267.776ZM264.064 468.44L260.736 477.4H233.344L230.144 468.44H264.064ZM260.352 478.68L257.024 487.64H236.928L233.728 478.68H260.352ZM217.6 437.72L214.4 446.68H193.92L197.12 437.72H217.6ZM213.888 447.96L210.688 456.92H190.208L193.408 447.96H213.888ZM210.176 458.2L206.848 467.16H186.368L189.696 458.2H210.176ZM206.464 468.44L203.136 477.4H182.656L185.984 468.44H206.464ZM202.752 478.68L199.424 487.64H178.944L182.272 478.68H202.752ZM351.764 405.72H319.38L326.164 396.76H351.38L351.764 405.72ZM352.02 415.96H311.572L318.356 407H351.764L352.02 415.96ZM352.788 436.44H329.62L329.364 427.48H352.532L352.788 436.44ZM352.404 426.2H329.236V423.128L326.804 426.2H303.636L310.548 417.24H352.148L352.404 426.2ZM353.172 446.68H330.004L329.748 437.72H352.916L353.172 446.68ZM325.908 427.48L318.996 436.44H295.828L302.74 427.48H325.908ZM354.324 477.4H331.156L330.772 468.44H353.94L354.324 477.4ZM353.556 456.92H280.212L287.124 447.96H353.172L353.556 456.92ZM318.1 437.72L311.188 446.68H288.02L294.932 437.72H318.1ZM354.708 487.64H331.54L331.156 478.68H354.324L354.708 487.64ZM353.94 467.16H272.404L279.316 458.2H353.556L353.94 467.16ZM294.548 468.44L287.764 477.4H264.596L271.38 468.44H294.548ZM286.74 478.68L279.956 487.64H256.788L263.572 478.68H286.74ZM460.047 396.76L453.263 405.72H430.095L436.879 396.76H460.047ZM452.239 407L445.327 415.96H422.287L429.071 407H452.239ZM444.431 417.24L437.519 426.2H414.351L421.263 417.24H444.431ZM436.623 427.48L429.711 436.44H406.543L413.455 427.48H436.623ZM385.679 405.72H362.511L362.127 396.76H385.295L385.679 405.72ZM428.815 437.72L421.903 446.68H398.735L405.647 437.72H428.815ZM385.935 415.96H362.895L362.511 407H385.679L385.935 415.96ZM420.879 447.96L414.095 456.92H390.927L397.839 447.96H420.879ZM386.319 426.2H363.151L362.895 417.24H386.063L386.319 426.2ZM386.703 436.44H363.535L363.279 427.48H386.447L386.703 436.44ZM387.087 446.68H363.919L363.663 437.72H386.831L387.087 446.68ZM413.071 458.2L406.287 467.16H364.687L364.431 458.2H387.471L387.599 461.272L389.903 458.2H413.071ZM387.471 456.92H364.303L364.047 447.96H387.087L387.471 456.92ZM405.263 468.44L398.479 477.4H365.071L364.687 468.44H405.263ZM397.455 478.68L390.671 487.64H365.455L365.071 478.68H397.455ZM480.271 396.76L476.943 405.72H456.463L459.791 396.76H480.271ZM476.431 407L473.231 415.96H452.751L455.951 407H476.431ZM472.719 417.24L469.519 426.2H449.039L452.239 417.24H472.719ZM469.007 427.48L465.807 436.44H445.327L448.527 427.48H469.007ZM465.295 437.72L462.095 446.68H441.615L444.815 437.72H465.295ZM461.583 447.96L458.383 456.92H437.903L441.103 447.96H461.583ZM457.871 458.2L454.543 467.16H434.063L437.391 458.2H457.871ZM454.159 468.44L450.831 477.4H430.351L433.679 468.44H454.159ZM450.447 478.68L447.119 487.64H426.639L429.967 478.68H450.447ZM562.186 396.76L558.858 405.72H481.418C486.282 399.747 491.658 396.76 497.546 396.76H562.186ZM558.346 407L555.146 415.96H477.066L479.114 410.2C479.455 409.261 479.967 408.195 480.65 407H558.346ZM543.498 447.96L540.298 456.92H519.818L523.018 447.96H543.498ZM546.954 436.44H470.026C470.197 435.245 470.453 434.179 470.794 433.24L472.842 427.48H537.482C543.37 427.48 546.527 430.467 546.954 436.44ZM546.826 437.72C546.655 438.915 546.399 439.981 546.058 440.92L544.01 446.68H479.37C473.482 446.68 470.282 443.693 469.77 437.72H546.826ZM539.786 458.2L536.458 467.16H515.978L519.306 458.2H539.786ZM497.034 417.24L493.834 426.2H473.354L476.554 417.24H497.034ZM536.074 468.44L533.898 474.2C533.642 475.139 533.13 476.205 532.362 477.4H454.666L457.994 468.44H536.074ZM531.594 478.68C526.815 484.653 521.482 487.64 515.594 487.64H450.954L454.282 478.68H531.594Z"/>
</mask>
<path d="M290.176 396.76L286.848 405.72H266.368L269.696 396.76H290.176ZM286.336 407L283.136 415.96H262.656L265.856 407H286.336ZM282.624 417.24L279.424 426.2H258.944L262.144 417.24H282.624ZM278.912 427.48L275.712 436.44H255.232L258.432 427.48H278.912ZM275.2 437.72L272 446.68H251.52L254.72 437.72H275.2ZM235.392 405.72H208.768L212.096 396.76H232.192L235.392 405.72ZM238.976 415.96H205.056L208.256 407H235.776L238.976 415.96ZM242.56 426.2H201.344L204.544 417.24H239.36L242.56 426.2ZM271.488 447.96L268.288 456.92H226.176L222.976 447.96H250.24L250.624 449.112L251.008 447.96H271.488ZM249.6 446.68H222.464L219.52 437.72H246.656L249.6 446.68ZM246.144 436.44H218.88L218.496 435.288L218.112 436.44H197.632L200.832 427.48H242.944L246.144 436.44ZM267.776 458.2L264.448 467.16H229.76L226.56 458.2H267.776ZM264.064 468.44L260.736 477.4H233.344L230.144 468.44H264.064ZM260.352 478.68L257.024 487.64H236.928L233.728 478.68H260.352ZM217.6 437.72L214.4 446.68H193.92L197.12 437.72H217.6ZM213.888 447.96L210.688 456.92H190.208L193.408 447.96H213.888ZM210.176 458.2L206.848 467.16H186.368L189.696 458.2H210.176ZM206.464 468.44L203.136 477.4H182.656L185.984 468.44H206.464ZM202.752 478.68L199.424 487.64H178.944L182.272 478.68H202.752ZM351.764 405.72H319.38L326.164 396.76H351.38L351.764 405.72ZM352.02 415.96H311.572L318.356 407H351.764L352.02 415.96ZM352.788 436.44H329.62L329.364 427.48H352.532L352.788 436.44ZM352.404 426.2H329.236V423.128L326.804 426.2H303.636L310.548 417.24H352.148L352.404 426.2ZM353.172 446.68H330.004L329.748 437.72H352.916L353.172 446.68ZM325.908 427.48L318.996 436.44H295.828L302.74 427.48H325.908ZM354.324 477.4H331.156L330.772 468.44H353.94L354.324 477.4ZM353.556 456.92H280.212L287.124 447.96H353.172L353.556 456.92ZM318.1 437.72L311.188 446.68H288.02L294.932 437.72H318.1ZM354.708 487.64H331.54L331.156 478.68H354.324L354.708 487.64ZM353.94 467.16H272.404L279.316 458.2H353.556L353.94 467.16ZM294.548 468.44L287.764 477.4H264.596L271.38 468.44H294.548ZM286.74 478.68L279.956 487.64H256.788L263.572 478.68H286.74ZM460.047 396.76L453.263 405.72H430.095L436.879 396.76H460.047ZM452.239 407L445.327 415.96H422.287L429.071 407H452.239ZM444.431 417.24L437.519 426.2H414.351L421.263 417.24H444.431ZM436.623 427.48L429.711 436.44H406.543L413.455 427.48H436.623ZM385.679 405.72H362.511L362.127 396.76H385.295L385.679 405.72ZM428.815 437.72L421.903 446.68H398.735L405.647 437.72H428.815ZM385.935 415.96H362.895L362.511 407H385.679L385.935 415.96ZM420.879 447.96L414.095 456.92H390.927L397.839 447.96H420.879ZM386.319 426.2H363.151L362.895 417.24H386.063L386.319 426.2ZM386.703 436.44H363.535L363.279 427.48H386.447L386.703 436.44ZM387.087 446.68H363.919L363.663 437.72H386.831L387.087 446.68ZM413.071 458.2L406.287 467.16H364.687L364.431 458.2H387.471L387.599 461.272L389.903 458.2H413.071ZM387.471 456.92H364.303L364.047 447.96H387.087L387.471 456.92ZM405.263 468.44L398.479 477.4H365.071L364.687 468.44H405.263ZM397.455 478.68L390.671 487.64H365.455L365.071 478.68H397.455ZM480.271 396.76L476.943 405.72H456.463L459.791 396.76H480.271ZM476.431 407L473.231 415.96H452.751L455.951 407H476.431ZM472.719 417.24L469.519 426.2H449.039L452.239 417.24H472.719ZM469.007 427.48L465.807 436.44H445.327L448.527 427.48H469.007ZM465.295 437.72L462.095 446.68H441.615L444.815 437.72H465.295ZM461.583 447.96L458.383 456.92H437.903L441.103 447.96H461.583ZM457.871 458.2L454.543 467.16H434.063L437.391 458.2H457.871ZM454.159 468.44L450.831 477.4H430.351L433.679 468.44H454.159ZM450.447 478.68L447.119 487.64H426.639L429.967 478.68H450.447ZM562.186 396.76L558.858 405.72H481.418C486.282 399.747 491.658 396.76 497.546 396.76H562.186ZM558.346 407L555.146 415.96H477.066L479.114 410.2C479.455 409.261 479.967 408.195 480.65 407H558.346ZM543.498 447.96L540.298 456.92H519.818L523.018 447.96H543.498ZM546.954 436.44H470.026C470.197 435.245 470.453 434.179 470.794 433.24L472.842 427.48H537.482C543.37 427.48 546.527 430.467 546.954 436.44ZM546.826 437.72C546.655 438.915 546.399 439.981 546.058 440.92L544.01 446.68H479.37C473.482 446.68 470.282 443.693 469.77 437.72H546.826ZM539.786 458.2L536.458 467.16H515.978L519.306 458.2H539.786ZM497.034 417.24L493.834 426.2H473.354L476.554 417.24H497.034ZM536.074 468.44L533.898 474.2C533.642 475.139 533.13 476.205 532.362 477.4H454.666L457.994 468.44H536.074ZM531.594 478.68C526.815 484.653 521.482 487.64 515.594 487.64H450.954L454.282 478.68H531.594Z" fill="url(#paint3_linear_3437_5952)"/>
<path d="M290.176 396.76L292.051 397.456L293.052 394.76H290.176V396.76ZM286.848 405.72V407.72H288.239L288.723 406.416L286.848 405.72ZM266.368 405.72L264.493 405.024L263.492 407.72H266.368V405.72ZM269.696 396.76V394.76H268.305L267.821 396.064L269.696 396.76ZM286.336 407L288.219 407.673L289.174 405H286.336V407ZM283.136 415.96V417.96H284.545L285.019 416.633L283.136 415.96ZM262.656 415.96L260.773 415.287L259.818 417.96H262.656V415.96ZM265.856 407V405H264.447L263.973 406.327L265.856 407ZM282.624 417.24L284.507 417.913L285.462 415.24H282.624V417.24ZM279.424 426.2V428.2H280.833L281.307 426.873L279.424 426.2ZM258.944 426.2L257.061 425.527L256.106 428.2H258.944V426.2ZM262.144 417.24V415.24H260.735L260.261 416.567L262.144 417.24ZM278.912 427.48L280.795 428.153L281.75 425.48H278.912V427.48ZM275.712 436.44V438.44H277.121L277.595 437.113L275.712 436.44ZM255.232 436.44L253.349 435.767L252.394 438.44H255.232V436.44ZM258.432 427.48V425.48H257.023L256.549 426.807L258.432 427.48ZM275.2 437.72L277.083 438.393L278.038 435.72H275.2V437.72ZM272 446.68V448.68H273.409L273.883 447.353L272 446.68ZM251.52 446.68L249.637 446.007L248.682 448.68H251.52V446.68ZM254.72 437.72V435.72H253.311L252.837 437.047L254.72 437.72ZM235.392 405.72V407.72H238.23L237.275 405.047L235.392 405.72ZM208.768 405.72L206.893 405.024L205.892 407.72H208.768V405.72ZM212.096 396.76V394.76H210.705L210.221 396.064L212.096 396.76ZM232.192 396.76L234.075 396.087L233.601 394.76H232.192V396.76ZM238.976 415.96V417.96H241.814L240.859 415.287L238.976 415.96ZM205.056 415.96L203.173 415.287L202.218 417.96H205.056V415.96ZM208.256 407V405H206.847L206.373 406.327L208.256 407ZM235.776 407L237.659 406.327L237.185 405H235.776V407ZM242.56 426.2V428.2H245.398L244.443 425.527L242.56 426.2ZM201.344 426.2L199.461 425.527L198.506 428.2H201.344V426.2ZM204.544 417.24V415.24H203.135L202.661 416.567L204.544 417.24ZM239.36 417.24L241.243 416.567L240.769 415.24H239.36V417.24ZM271.488 447.96L273.371 448.633L274.326 445.96H271.488V447.96ZM268.288 456.92V458.92H269.697L270.171 457.593L268.288 456.92ZM226.176 456.92L224.293 457.593L224.767 458.92H226.176V456.92ZM222.976 447.96V445.96H220.138L221.093 448.633L222.976 447.96ZM250.24 447.96L252.137 447.328L251.682 445.96H250.24V447.96ZM250.624 449.112L248.727 449.744L250.624 455.437L252.521 449.744L250.624 449.112ZM251.008 447.96V445.96H249.566L249.111 447.328L251.008 447.96ZM249.6 446.68V448.68H252.362L251.5 446.056L249.6 446.68ZM222.464 446.68L220.564 447.304L221.016 448.68H222.464V446.68ZM219.52 437.72V435.72H216.758L217.62 438.344L219.52 437.72ZM246.656 437.72L248.556 437.096L248.104 435.72H246.656V437.72ZM246.144 436.44V438.44H248.982L248.027 435.767L246.144 436.44ZM218.88 436.44L216.983 437.072L217.438 438.44H218.88V436.44ZM218.496 435.288L220.393 434.656L218.496 428.963L216.599 434.656L218.496 435.288ZM218.112 436.44V438.44H219.554L220.009 437.072L218.112 436.44ZM197.632 436.44L195.749 435.767L194.794 438.44H197.632V436.44ZM200.832 427.48V425.48H199.423L198.949 426.807L200.832 427.48ZM242.944 427.48L244.827 426.807L244.353 425.48H242.944V427.48ZM267.776 458.2L269.651 458.896L270.652 456.2H267.776V458.2ZM264.448 467.16V469.16H265.839L266.323 467.856L264.448 467.16ZM229.76 467.16L227.877 467.833L228.351 469.16H229.76V467.16ZM226.56 458.2V456.2H223.722L224.677 458.873L226.56 458.2ZM264.064 468.44L265.939 469.136L266.94 466.44H264.064V468.44ZM260.736 477.4V479.4H262.127L262.611 478.096L260.736 477.4ZM233.344 477.4L231.461 478.073L231.935 479.4H233.344V477.4ZM230.144 468.44V466.44H227.306L228.261 469.113L230.144 468.44ZM260.352 478.68L262.227 479.376L263.228 476.68H260.352V478.68ZM257.024 487.64V489.64H258.415L258.899 488.336L257.024 487.64ZM236.928 487.64L235.045 488.313L235.519 489.64H236.928V487.64ZM233.728 478.68V476.68H230.89L231.845 479.353L233.728 478.68ZM217.6 437.72L219.483 438.393L220.438 435.72H217.6V437.72ZM214.4 446.68V448.68H215.809L216.283 447.353L214.4 446.68ZM193.92 446.68L192.037 446.007L191.082 448.68H193.92V446.68ZM197.12 437.72V435.72H195.711L195.237 437.047L197.12 437.72ZM213.888 447.96L215.771 448.633L216.726 445.96H213.888V447.96ZM210.688 456.92V458.92H212.097L212.571 457.593L210.688 456.92ZM190.208 456.92L188.325 456.247L187.37 458.92H190.208V456.92ZM193.408 447.96V445.96H191.999L191.525 447.287L193.408 447.96ZM210.176 458.2L212.051 458.896L213.052 456.2H210.176V458.2ZM206.848 467.16V469.16H208.239L208.723 467.856L206.848 467.16ZM186.368 467.16L184.493 466.464L183.492 469.16H186.368V467.16ZM189.696 458.2V456.2H188.305L187.821 457.504L189.696 458.2ZM206.464 468.44L208.339 469.136L209.34 466.44H206.464V468.44ZM203.136 477.4V479.4H204.527L205.011 478.096L203.136 477.4ZM182.656 477.4L180.781 476.704L179.78 479.4H182.656V477.4ZM185.984 468.44V466.44H184.593L184.109 467.744L185.984 468.44ZM202.752 478.68L204.627 479.376L205.628 476.68H202.752V478.68ZM199.424 487.64V489.64H200.815L201.299 488.336L199.424 487.64ZM178.944 487.64L177.069 486.944L176.068 489.64H178.944V487.64ZM182.272 478.68V476.68H180.881L180.397 477.984L182.272 478.68ZM288.301 396.064L284.973 405.024L288.723 406.416L292.051 397.456L288.301 396.064ZM286.848 403.72H266.368V407.72H286.848V403.72ZM268.243 406.416L271.571 397.456L267.821 396.064L264.493 405.024L268.243 406.416ZM269.696 398.76H290.176V394.76H269.696V398.76ZM284.453 406.327L281.253 415.287L285.019 416.633L288.219 407.673L284.453 406.327ZM283.136 413.96H262.656V417.96H283.136V413.96ZM264.539 416.633L267.739 407.673L263.973 406.327L260.773 415.287L264.539 416.633ZM265.856 409H286.336V405H265.856V409ZM280.741 416.567L277.541 425.527L281.307 426.873L284.507 417.913L280.741 416.567ZM279.424 424.2H258.944V428.2H279.424V424.2ZM260.827 426.873L264.027 417.913L260.261 416.567L257.061 425.527L260.827 426.873ZM262.144 419.24H282.624V415.24H262.144V419.24ZM277.029 426.807L273.829 435.767L277.595 437.113L280.795 428.153L277.029 426.807ZM275.712 434.44H255.232V438.44H275.712V434.44ZM257.115 437.113L260.315 428.153L256.549 426.807L253.349 435.767L257.115 437.113ZM258.432 429.48H278.912V425.48H258.432V429.48ZM273.317 437.047L270.117 446.007L273.883 447.353L277.083 438.393L273.317 437.047ZM272 444.68H251.52V448.68H272V444.68ZM253.403 447.353L256.603 438.393L252.837 437.047L249.637 446.007L253.403 447.353ZM254.72 439.72H275.2V435.72H254.72V439.72ZM235.392 403.72H208.768V407.72H235.392V403.72ZM210.643 406.416L213.971 397.456L210.221 396.064L206.893 405.024L210.643 406.416ZM212.096 398.76H232.192V394.76H212.096V398.76ZM230.309 397.433L233.509 406.393L237.275 405.047L234.075 396.087L230.309 397.433ZM238.976 413.96H205.056V417.96H238.976V413.96ZM206.939 416.633L210.139 407.673L206.373 406.327L203.173 415.287L206.939 416.633ZM208.256 409H235.776V405H208.256V409ZM233.893 407.673L237.093 416.633L240.859 415.287L237.659 406.327L233.893 407.673ZM242.56 424.2H201.344V428.2H242.56V424.2ZM203.227 426.873L206.427 417.913L202.661 416.567L199.461 425.527L203.227 426.873ZM204.544 419.24H239.36V415.24H204.544V419.24ZM237.477 417.913L240.677 426.873L244.443 425.527L241.243 416.567L237.477 417.913ZM269.605 447.287L266.405 456.247L270.171 457.593L273.371 448.633L269.605 447.287ZM268.288 454.92H226.176V458.92H268.288V454.92ZM228.059 456.247L224.859 447.287L221.093 448.633L224.293 457.593L228.059 456.247ZM222.976 449.96H250.24V445.96H222.976V449.96ZM248.343 448.592L248.727 449.744L252.521 448.48L252.137 447.328L248.343 448.592ZM252.521 449.744L252.905 448.592L249.111 447.328L248.727 448.48L252.521 449.744ZM251.008 449.96H271.488V445.96H251.008V449.96ZM249.6 444.68H222.464V448.68H249.6V444.68ZM224.364 446.056L221.42 437.096L217.62 438.344L220.564 447.304L224.364 446.056ZM219.52 439.72H246.656V435.72H219.52V439.72ZM244.756 438.344L247.7 447.304L251.5 446.056L248.556 437.096L244.756 438.344ZM246.144 434.44H218.88V438.44H246.144V434.44ZM220.777 435.808L220.393 434.656L216.599 435.92L216.983 437.072L220.777 435.808ZM216.599 434.656L216.215 435.808L220.009 437.072L220.393 435.92L216.599 434.656ZM218.112 434.44H197.632V438.44H218.112V434.44ZM199.515 437.113L202.715 428.153L198.949 426.807L195.749 435.767L199.515 437.113ZM200.832 429.48H242.944V425.48H200.832V429.48ZM241.061 428.153L244.261 437.113L248.027 435.767L244.827 426.807L241.061 428.153ZM265.901 457.504L262.573 466.464L266.323 467.856L269.651 458.896L265.901 457.504ZM264.448 465.16H229.76V469.16H264.448V465.16ZM231.643 466.487L228.443 457.527L224.677 458.873L227.877 467.833L231.643 466.487ZM226.56 460.2H267.776V456.2H226.56V460.2ZM262.189 467.744L258.861 476.704L262.611 478.096L265.939 469.136L262.189 467.744ZM260.736 475.4H233.344V479.4H260.736V475.4ZM235.227 476.727L232.027 467.767L228.261 469.113L231.461 478.073L235.227 476.727ZM230.144 470.44H264.064V466.44H230.144V470.44ZM258.477 477.984L255.149 486.944L258.899 488.336L262.227 479.376L258.477 477.984ZM257.024 485.64H236.928V489.64H257.024V485.64ZM238.811 486.967L235.611 478.007L231.845 479.353L235.045 488.313L238.811 486.967ZM233.728 480.68H260.352V476.68H233.728V480.68ZM215.717 437.047L212.517 446.007L216.283 447.353L219.483 438.393L215.717 437.047ZM214.4 444.68H193.92V448.68H214.4V444.68ZM195.803 447.353L199.003 438.393L195.237 437.047L192.037 446.007L195.803 447.353ZM197.12 439.72H217.6V435.72H197.12V439.72ZM212.005 447.287L208.805 456.247L212.571 457.593L215.771 448.633L212.005 447.287ZM210.688 454.92H190.208V458.92H210.688V454.92ZM192.091 457.593L195.291 448.633L191.525 447.287L188.325 456.247L192.091 457.593ZM193.408 449.96H213.888V445.96H193.408V449.96ZM208.301 457.504L204.973 466.464L208.723 467.856L212.051 458.896L208.301 457.504ZM206.848 465.16H186.368V469.16H206.848V465.16ZM188.243 467.856L191.571 458.896L187.821 457.504L184.493 466.464L188.243 467.856ZM189.696 460.2H210.176V456.2H189.696V460.2ZM204.589 467.744L201.261 476.704L205.011 478.096L208.339 469.136L204.589 467.744ZM203.136 475.4H182.656V479.4H203.136V475.4ZM184.531 478.096L187.859 469.136L184.109 467.744L180.781 476.704L184.531 478.096ZM185.984 470.44H206.464V466.44H185.984V470.44ZM200.877 477.984L197.549 486.944L201.299 488.336L204.627 479.376L200.877 477.984ZM199.424 485.64H178.944V489.64H199.424V485.64ZM180.819 488.336L184.147 479.376L180.397 477.984L177.069 486.944L180.819 488.336ZM182.272 480.68H202.752V476.68H182.272V480.68ZM351.764 405.72V407.72H353.852L353.762 405.634L351.764 405.72ZM319.38 405.72L317.785 404.513L315.357 407.72H319.38V405.72ZM326.164 396.76V394.76H325.17L324.569 395.553L326.164 396.76ZM351.38 396.76L353.378 396.674L353.296 394.76H351.38V396.76ZM352.02 415.96V417.96H354.078L354.019 415.903L352.02 415.96ZM311.572 415.96L309.977 414.753L307.549 417.96H311.572V415.96ZM318.356 407V405H317.362L316.761 405.793L318.356 407ZM351.764 407L353.763 406.943L353.708 405H351.764V407ZM352.788 436.44V438.44H354.846L354.787 436.383L352.788 436.44ZM329.62 436.44L327.621 436.497L327.676 438.44H329.62V436.44ZM329.364 427.48V425.48H327.306L327.365 427.537L329.364 427.48ZM352.532 427.48L354.531 427.423L354.476 425.48H352.532V427.48ZM352.404 426.2V428.2H354.462L354.403 426.143L352.404 426.2ZM329.236 426.2H327.236V428.2H329.236V426.2ZM329.236 423.128H331.236V417.38L327.668 421.887L329.236 423.128ZM326.804 426.2V428.2H327.772L328.372 427.441L326.804 426.2ZM303.636 426.2L302.052 424.978L299.567 428.2H303.636V426.2ZM310.548 417.24V415.24H309.565L308.964 416.018L310.548 417.24ZM352.148 417.24L354.147 417.183L354.092 415.24H352.148V417.24ZM353.172 446.68V448.68H355.23L355.171 446.623L353.172 446.68ZM330.004 446.68L328.005 446.737L328.06 448.68H330.004V446.68ZM329.748 437.72V435.72H327.69L327.749 437.777L329.748 437.72ZM352.916 437.72L354.915 437.663L354.86 435.72H352.916V437.72ZM325.908 427.48L327.492 428.702L329.977 425.48H325.908V427.48ZM318.996 436.44V438.44H319.979L320.58 437.662L318.996 436.44ZM295.828 436.44L294.244 435.218L291.759 438.44H295.828V436.44ZM302.74 427.48V425.48H301.757L301.156 426.258L302.74 427.48ZM354.324 477.4V479.4H356.412L356.322 477.314L354.324 477.4ZM331.156 477.4L329.158 477.486L329.24 479.4H331.156V477.4ZM330.772 468.44V466.44H328.684L328.774 468.526L330.772 468.44ZM353.94 468.44L355.938 468.354L355.856 466.44H353.94V468.44ZM353.556 456.92V458.92H355.644L355.554 456.834L353.556 456.92ZM280.212 456.92L278.628 455.698L276.143 458.92H280.212V456.92ZM287.124 447.96V445.96H286.141L285.54 446.738L287.124 447.96ZM353.172 447.96L355.17 447.874L355.088 445.96H353.172V447.96ZM318.1 437.72L319.684 438.942L322.169 435.72H318.1V437.72ZM311.188 446.68V448.68H312.171L312.772 447.902L311.188 446.68ZM288.02 446.68L286.436 445.458L283.951 448.68H288.02V446.68ZM294.932 437.72V435.72H293.949L293.348 436.498L294.932 437.72ZM354.708 487.64V489.64H356.796L356.706 487.554L354.708 487.64ZM331.54 487.64L329.542 487.726L329.624 489.64H331.54V487.64ZM331.156 478.68V476.68H329.068L329.158 478.766L331.156 478.68ZM354.324 478.68L356.322 478.594L356.24 476.68H354.324V478.68ZM353.94 467.16V469.16H356.028L355.938 467.074L353.94 467.16ZM272.404 467.16L270.82 465.938L268.335 469.16H272.404V467.16ZM279.316 458.2V456.2H278.333L277.732 456.978L279.316 458.2ZM353.556 458.2L355.554 458.114L355.472 456.2H353.556V458.2ZM294.548 468.44L296.143 469.647L298.571 466.44H294.548V468.44ZM287.764 477.4V479.4H288.758L289.359 478.607L287.764 477.4ZM264.596 477.4L263.001 476.193L260.573 479.4H264.596V477.4ZM271.38 468.44V466.44H270.386L269.785 467.233L271.38 468.44ZM286.74 478.68L288.335 479.887L290.763 476.68H286.74V478.68ZM279.956 487.64V489.64H280.95L281.551 488.847L279.956 487.64ZM256.788 487.64L255.193 486.433L252.765 489.64H256.788V487.64ZM263.572 478.68V476.68H262.578L261.977 477.473L263.572 478.68ZM351.764 403.72H319.38V407.72H351.764V403.72ZM320.975 406.927L327.759 397.967L324.569 395.553L317.785 404.513L320.975 406.927ZM326.164 398.76H351.38V394.76H326.164V398.76ZM349.382 396.846L349.766 405.806L353.762 405.634L353.378 396.674L349.382 396.846ZM352.02 413.96H311.572V417.96H352.02V413.96ZM313.167 417.167L319.951 408.207L316.761 405.793L309.977 414.753L313.167 417.167ZM318.356 409H351.764V405H318.356V409ZM349.765 407.057L350.021 416.017L354.019 415.903L353.763 406.943L349.765 407.057ZM352.788 434.44H329.62V438.44H352.788V434.44ZM331.619 436.383L331.363 427.423L327.365 427.537L327.621 436.497L331.619 436.383ZM329.364 429.48H352.532V425.48H329.364V429.48ZM350.533 427.537L350.789 436.497L354.787 436.383L354.531 427.423L350.533 427.537ZM352.404 424.2H329.236V428.2H352.404V424.2ZM331.236 426.2V423.128H327.236V426.2H331.236ZM327.668 421.887L325.236 424.959L328.372 427.441L330.804 424.369L327.668 421.887ZM326.804 424.2H303.636V428.2H326.804V424.2ZM305.22 427.422L312.132 418.462L308.964 416.018L302.052 424.978L305.22 427.422ZM310.548 419.24H352.148V415.24H310.548V419.24ZM350.149 417.297L350.405 426.257L354.403 426.143L354.147 417.183L350.149 417.297ZM353.172 444.68H330.004V448.68H353.172V444.68ZM332.003 446.623L331.747 437.663L327.749 437.777L328.005 446.737L332.003 446.623ZM329.748 439.72H352.916V435.72H329.748V439.72ZM350.917 437.777L351.173 446.737L355.171 446.623L354.915 437.663L350.917 437.777ZM324.324 426.258L317.412 435.218L320.58 437.662L327.492 428.702L324.324 426.258ZM318.996 434.44H295.828V438.44H318.996V434.44ZM297.412 437.662L304.324 428.702L301.156 426.258L294.244 435.218L297.412 437.662ZM302.74 429.48H325.908V425.48H302.74V429.48ZM354.324 475.4H331.156V479.4H354.324V475.4ZM333.154 477.314L332.77 468.354L328.774 468.526L329.158 477.486L333.154 477.314ZM330.772 470.44H353.94V466.44H330.772V470.44ZM351.942 468.526L352.326 477.486L356.322 477.314L355.938 468.354L351.942 468.526ZM353.556 454.92H280.212V458.92H353.556V454.92ZM281.796 458.142L288.708 449.182L285.54 446.738L278.628 455.698L281.796 458.142ZM287.124 449.96H353.172V445.96H287.124V449.96ZM351.174 448.046L351.558 457.006L355.554 456.834L355.17 447.874L351.174 448.046ZM316.516 436.498L309.604 445.458L312.772 447.902L319.684 438.942L316.516 436.498ZM311.188 444.68H288.02V448.68H311.188V444.68ZM289.604 447.902L296.516 438.942L293.348 436.498L286.436 445.458L289.604 447.902ZM294.932 439.72H318.1V435.72H294.932V439.72ZM354.708 485.64H331.54V489.64H354.708V485.64ZM333.538 487.554L333.154 478.594L329.158 478.766L329.542 487.726L333.538 487.554ZM331.156 480.68H354.324V476.68H331.156V480.68ZM352.326 478.766L352.71 487.726L356.706 487.554L356.322 478.594L352.326 478.766ZM353.94 465.16H272.404V469.16H353.94V465.16ZM273.988 468.382L280.9 459.422L277.732 456.978L270.82 465.938L273.988 468.382ZM279.316 460.2H353.556V456.2H279.316V460.2ZM351.558 458.286L351.942 467.246L355.938 467.074L355.554 458.114L351.558 458.286ZM292.953 467.233L286.169 476.193L289.359 478.607L296.143 469.647L292.953 467.233ZM287.764 475.4H264.596V479.4H287.764V475.4ZM266.191 478.607L272.975 469.647L269.785 467.233L263.001 476.193L266.191 478.607ZM271.38 470.44H294.548V466.44H271.38V470.44ZM285.145 477.473L278.361 486.433L281.551 488.847L288.335 479.887L285.145 477.473ZM279.956 485.64H256.788V489.64H279.956V485.64ZM258.383 488.847L265.167 479.887L261.977 477.473L255.193 486.433L258.383 488.847ZM263.572 480.68H286.74V476.68H263.572V480.68ZM460.047 396.76L461.642 397.967L464.07 394.76H460.047V396.76ZM453.263 405.72V407.72H454.257L454.858 406.927L453.263 405.72ZM430.095 405.72L428.5 404.513L426.072 407.72H430.095V405.72ZM436.879 396.76V394.76H435.885L435.284 395.553L436.879 396.76ZM452.239 407L453.823 408.222L456.308 405H452.239V407ZM445.327 415.96V417.96H446.31L446.911 417.182L445.327 415.96ZM422.287 415.96L420.692 414.753L418.264 417.96H422.287V415.96ZM429.071 407V405H428.077L427.476 405.793L429.071 407ZM444.431 417.24L446.015 418.462L448.5 415.24H444.431V417.24ZM437.519 426.2V428.2H438.502L439.103 427.422L437.519 426.2ZM414.351 426.2L412.767 424.978L410.282 428.2H414.351V426.2ZM421.263 417.24V415.24H420.28L419.679 416.018L421.263 417.24ZM436.623 427.48L438.207 428.702L440.692 425.48H436.623V427.48ZM429.711 436.44V438.44H430.694L431.295 437.662L429.711 436.44ZM406.543 436.44L404.959 435.218L402.474 438.44H406.543V436.44ZM413.455 427.48V425.48H412.472L411.871 426.258L413.455 427.48ZM385.679 405.72V407.72H387.767L387.677 405.634L385.679 405.72ZM362.511 405.72L360.513 405.806L360.595 407.72H362.511V405.72ZM362.127 396.76V394.76H360.039L360.129 396.846L362.127 396.76ZM385.295 396.76L387.293 396.674L387.211 394.76H385.295V396.76ZM428.815 437.72L430.399 438.942L432.884 435.72H428.815V437.72ZM421.903 446.68V448.68H422.886L423.487 447.902L421.903 446.68ZM398.735 446.68L397.151 445.458L394.666 448.68H398.735V446.68ZM405.647 437.72V435.72H404.664L404.063 436.498L405.647 437.72ZM385.935 415.96V417.96H387.993L387.934 415.903L385.935 415.96ZM362.895 415.96L360.897 416.046L360.979 417.96H362.895V415.96ZM362.511 407V405H360.423L360.513 407.086L362.511 407ZM385.679 407L387.678 406.943L387.623 405H385.679V407ZM420.879 447.96L422.474 449.167L424.902 445.96H420.879V447.96ZM414.095 456.92V458.92H415.089L415.69 458.127L414.095 456.92ZM390.927 456.92L389.343 455.698L386.858 458.92H390.927V456.92ZM397.839 447.96V445.96H396.856L396.255 446.738L397.839 447.96ZM386.319 426.2V428.2H388.377L388.318 426.143L386.319 426.2ZM363.151 426.2L361.152 426.257L361.207 428.2H363.151V426.2ZM362.895 417.24V415.24H360.837L360.896 417.297L362.895 417.24ZM386.063 417.24L388.062 417.183L388.007 415.24H386.063V417.24ZM386.703 436.44V438.44H388.761L388.702 436.383L386.703 436.44ZM363.535 436.44L361.536 436.497L361.591 438.44H363.535V436.44ZM363.279 427.48V425.48H361.221L361.28 427.537L363.279 427.48ZM386.447 427.48L388.446 427.423L388.391 425.48H386.447V427.48ZM387.087 446.68V448.68H389.145L389.086 446.623L387.087 446.68ZM363.919 446.68L361.92 446.737L361.975 448.68H363.919V446.68ZM363.663 437.72V435.72H361.605L361.664 437.777L363.663 437.72ZM386.831 437.72L388.83 437.663L388.775 435.72H386.831V437.72ZM413.071 458.2L414.666 459.407L417.094 456.2H413.071V458.2ZM406.287 467.16V469.16H407.281L407.882 468.367L406.287 467.16ZM364.687 467.16L362.688 467.217L362.743 469.16H364.687V467.16ZM364.431 458.2V456.2H362.373L362.432 458.257L364.431 458.2ZM387.471 458.2L389.469 458.117L389.389 456.2H387.471V458.2ZM387.599 461.272L385.601 461.355L385.834 466.958L389.199 462.472L387.599 461.272ZM389.903 458.2V456.2H388.903L388.303 457L389.903 458.2ZM387.471 456.92V458.92H389.559L389.469 456.834L387.471 456.92ZM364.303 456.92L362.304 456.977L362.359 458.92H364.303V456.92ZM364.047 447.96V445.96H361.989L362.048 448.017L364.047 447.96ZM387.087 447.96L389.085 447.874L389.003 445.96H387.087V447.96ZM405.263 468.44L406.858 469.647L409.286 466.44H405.263V468.44ZM398.479 477.4V479.4H399.473L400.074 478.607L398.479 477.4ZM365.071 477.4L363.073 477.486L363.155 479.4H365.071V477.4ZM364.687 468.44V466.44H362.599L362.689 468.526L364.687 468.44ZM397.455 478.68L399.05 479.887L401.478 476.68H397.455V478.68ZM390.671 487.64V489.64H391.665L392.266 488.847L390.671 487.64ZM365.455 487.64L363.457 487.726L363.539 489.64H365.455V487.64ZM365.071 478.68V476.68H362.983L363.073 478.766L365.071 478.68ZM458.452 395.553L451.668 404.513L454.858 406.927L461.642 397.967L458.452 395.553ZM453.263 403.72H430.095V407.72H453.263V403.72ZM431.69 406.927L438.474 397.967L435.284 395.553L428.5 404.513L431.69 406.927ZM436.879 398.76H460.047V394.76H436.879V398.76ZM450.655 405.778L443.743 414.738L446.911 417.182L453.823 408.222L450.655 405.778ZM445.327 413.96H422.287V417.96H445.327V413.96ZM423.882 417.167L430.666 408.207L427.476 405.793L420.692 414.753L423.882 417.167ZM429.071 409H452.239V405H429.071V409ZM442.847 416.018L435.935 424.978L439.103 427.422L446.015 418.462L442.847 416.018ZM437.519 424.2H414.351V428.2H437.519V424.2ZM415.935 427.422L422.847 418.462L419.679 416.018L412.767 424.978L415.935 427.422ZM421.263 419.24H444.431V415.24H421.263V419.24ZM435.039 426.258L428.127 435.218L431.295 437.662L438.207 428.702L435.039 426.258ZM429.711 434.44H406.543V438.44H429.711V434.44ZM408.127 437.662L415.039 428.702L411.871 426.258L404.959 435.218L408.127 437.662ZM413.455 429.48H436.623V425.48H413.455V429.48ZM385.679 403.72H362.511V407.72H385.679V403.72ZM364.509 405.634L364.125 396.674L360.129 396.846L360.513 405.806L364.509 405.634ZM362.127 398.76H385.295V394.76H362.127V398.76ZM383.297 396.846L383.681 405.806L387.677 405.634L387.293 396.674L383.297 396.846ZM427.231 436.498L420.319 445.458L423.487 447.902L430.399 438.942L427.231 436.498ZM421.903 444.68H398.735V448.68H421.903V444.68ZM400.319 447.902L407.231 438.942L404.063 436.498L397.151 445.458L400.319 447.902ZM405.647 439.72H428.815V435.72H405.647V439.72ZM385.935 413.96H362.895V417.96H385.935V413.96ZM364.893 415.874L364.509 406.914L360.513 407.086L360.897 416.046L364.893 415.874ZM362.511 409H385.679V405H362.511V409ZM383.68 407.057L383.936 416.017L387.934 415.903L387.678 406.943L383.68 407.057ZM419.284 446.753L412.5 455.713L415.69 458.127L422.474 449.167L419.284 446.753ZM414.095 454.92H390.927V458.92H414.095V454.92ZM392.511 458.142L399.423 449.182L396.255 446.738L389.343 455.698L392.511 458.142ZM397.839 449.96H420.879V445.96H397.839V449.96ZM386.319 424.2H363.151V428.2H386.319V424.2ZM365.15 426.143L364.894 417.183L360.896 417.297L361.152 426.257L365.15 426.143ZM362.895 419.24H386.063V415.24H362.895V419.24ZM384.064 417.297L384.32 426.257L388.318 426.143L388.062 417.183L384.064 417.297ZM386.703 434.44H363.535V438.44H386.703V434.44ZM365.534 436.383L365.278 427.423L361.28 427.537L361.536 436.497L365.534 436.383ZM363.279 429.48H386.447V425.48H363.279V429.48ZM384.448 427.537L384.704 436.497L388.702 436.383L388.446 427.423L384.448 427.537ZM387.087 444.68H363.919V448.68H387.087V444.68ZM365.918 446.623L365.662 437.663L361.664 437.777L361.92 446.737L365.918 446.623ZM363.663 439.72H386.831V435.72H363.663V439.72ZM384.832 437.777L385.088 446.737L389.086 446.623L388.83 437.663L384.832 437.777ZM411.476 456.993L404.692 465.953L407.882 468.367L414.666 459.407L411.476 456.993ZM406.287 465.16H364.687V469.16H406.287V465.16ZM366.686 467.103L366.43 458.143L362.432 458.257L362.688 467.217L366.686 467.103ZM364.431 460.2H387.471V456.2H364.431V460.2ZM385.473 458.283L385.601 461.355L389.597 461.189L389.469 458.117L385.473 458.283ZM389.199 462.472L391.503 459.4L388.303 457L385.999 460.072L389.199 462.472ZM389.903 460.2H413.071V456.2H389.903V460.2ZM387.471 454.92H364.303V458.92H387.471V454.92ZM366.302 456.863L366.046 447.903L362.048 448.017L362.304 456.977L366.302 456.863ZM364.047 449.96H387.087V445.96H364.047V449.96ZM385.089 448.046L385.473 457.006L389.469 456.834L389.085 447.874L385.089 448.046ZM403.668 467.233L396.884 476.193L400.074 478.607L406.858 469.647L403.668 467.233ZM398.479 475.4H365.071V479.4H398.479V475.4ZM367.069 477.314L366.685 468.354L362.689 468.526L363.073 477.486L367.069 477.314ZM364.687 470.44H405.263V466.44H364.687V470.44ZM395.86 477.473L389.076 486.433L392.266 488.847L399.05 479.887L395.86 477.473ZM390.671 485.64H365.455V489.64H390.671V485.64ZM367.453 487.554L367.069 478.594L363.073 478.766L363.457 487.726L367.453 487.554ZM365.071 480.68H397.455V476.68H365.071V480.68ZM480.271 396.76L482.146 397.456L483.147 394.76H480.271V396.76ZM476.943 405.72V407.72H478.334L478.818 406.416L476.943 405.72ZM456.463 405.72L454.588 405.024L453.587 407.72H456.463V405.72ZM459.791 396.76V394.76H458.4L457.916 396.064L459.791 396.76ZM476.431 407L478.314 407.673L479.269 405H476.431V407ZM473.231 415.96V417.96H474.64L475.115 416.633L473.231 415.96ZM452.751 415.96L450.868 415.287L449.913 417.96H452.751V415.96ZM455.951 407V405H454.542L454.068 406.327L455.951 407ZM472.719 417.24L474.602 417.913L475.557 415.24H472.719V417.24ZM469.519 426.2V428.2H470.928L471.402 426.873L469.519 426.2ZM449.039 426.2L447.156 425.527L446.201 428.2H449.039V426.2ZM452.239 417.24V415.24H450.83L450.356 416.567L452.239 417.24ZM469.007 427.48L470.891 428.153L471.845 425.48H469.007V427.48ZM465.807 436.44V438.44H467.216L467.69 437.113L465.807 436.44ZM445.327 436.44L443.444 435.767L442.489 438.44H445.327V436.44ZM448.527 427.48V425.48H447.118L446.644 426.807L448.527 427.48ZM465.295 437.72L467.178 438.393L468.133 435.72H465.295V437.72ZM462.095 446.68V448.68H463.504L463.978 447.353L462.095 446.68ZM441.615 446.68L439.732 446.007L438.777 448.68H441.615V446.68ZM444.815 437.72V435.72H443.406L442.932 437.047L444.815 437.72ZM461.583 447.96L463.466 448.633L464.421 445.96H461.583V447.96ZM458.383 456.92V458.92H459.792L460.267 457.593L458.383 456.92ZM437.903 456.92L436.02 456.247L435.065 458.92H437.903V456.92ZM441.103 447.96V445.96H439.694L439.22 447.287L441.103 447.96ZM457.871 458.2L459.746 458.896L460.747 456.2H457.871V458.2ZM454.543 467.16V469.16H455.934L456.418 467.856L454.543 467.16ZM434.063 467.16L432.188 466.464L431.187 469.16H434.063V467.16ZM437.391 458.2V456.2H436L435.516 457.504L437.391 458.2ZM454.159 468.44L456.034 469.136L457.035 466.44H454.159V468.44ZM450.831 477.4V479.4H452.222L452.706 478.096L450.831 477.4ZM430.351 477.4L428.476 476.704L427.475 479.4H430.351V477.4ZM433.679 468.44V466.44H432.288L431.804 467.744L433.679 468.44ZM450.447 478.68L452.322 479.376L453.323 476.68H450.447V478.68ZM447.119 487.64V489.64H448.51L448.994 488.336L447.119 487.64ZM426.639 487.64L424.764 486.944L423.763 489.64H426.639V487.64ZM429.967 478.68V476.68H428.576L428.092 477.984L429.967 478.68ZM478.396 396.064L475.068 405.024L478.818 406.416L482.146 397.456L478.396 396.064ZM476.943 403.72H456.463V407.72H476.943V403.72ZM458.338 406.416L461.666 397.456L457.916 396.064L454.588 405.024L458.338 406.416ZM459.791 398.76H480.271V394.76H459.791V398.76ZM474.548 406.327L471.348 415.287L475.115 416.633L478.314 407.673L474.548 406.327ZM473.231 413.96H452.751V417.96H473.231V413.96ZM454.634 416.633L457.835 407.673L454.068 406.327L450.868 415.287L454.634 416.633ZM455.951 409H476.431V405H455.951V409ZM470.836 416.567L467.636 425.527L471.402 426.873L474.602 417.913L470.836 416.567ZM469.519 424.2H449.039V428.2H469.519V424.2ZM450.922 426.873L454.122 417.913L450.356 416.567L447.156 425.527L450.922 426.873ZM452.239 419.24H472.719V415.24H452.239V419.24ZM467.124 426.807L463.924 435.767L467.69 437.113L470.891 428.153L467.124 426.807ZM465.807 434.44H445.327V438.44H465.807V434.44ZM447.21 437.113L450.41 428.153L446.644 426.807L443.444 435.767L447.21 437.113ZM448.527 429.48H469.007V425.48H448.527V429.48ZM463.412 437.047L460.212 446.007L463.978 447.353L467.178 438.393L463.412 437.047ZM462.095 444.68H441.615V448.68H462.095V444.68ZM443.499 447.353L446.698 438.393L442.932 437.047L439.732 446.007L443.499 447.353ZM444.815 439.72H465.295V435.72H444.815V439.72ZM459.7 447.287L456.5 456.247L460.267 457.593L463.466 448.633L459.7 447.287ZM458.383 454.92H437.903V458.92H458.383V454.92ZM439.786 457.593L442.986 448.633L439.22 447.287L436.02 456.247L439.786 457.593ZM441.103 449.96H461.583V445.96H441.103V449.96ZM455.996 457.504L452.668 466.464L456.418 467.856L459.746 458.896L455.996 457.504ZM454.543 465.16H434.063V469.16H454.543V465.16ZM435.938 467.856L439.266 458.896L435.516 457.504L432.188 466.464L435.938 467.856ZM437.391 460.2H457.871V456.2H437.391V460.2ZM452.284 467.744L448.956 476.704L452.706 478.096L456.034 469.136L452.284 467.744ZM450.831 475.4H430.351V479.4H450.831V475.4ZM432.226 478.096L435.554 469.136L431.804 467.744L428.476 476.704L432.226 478.096ZM433.679 470.44H454.159V466.44H433.679V470.44ZM448.572 477.984L445.244 486.944L448.994 488.336L452.322 479.376L448.572 477.984ZM447.119 485.64H426.639V489.64H447.119V485.64ZM428.514 488.336L431.842 479.376L428.092 477.984L424.764 486.944L428.514 488.336ZM429.967 480.68H450.447V476.68H429.967V480.68ZM562.186 396.76L564.061 397.456L565.062 394.76H562.186V396.76ZM558.858 405.72V407.72H560.249L560.733 406.416L558.858 405.72ZM481.418 405.72L479.867 404.457L477.21 407.72H481.418V405.72ZM558.346 407L560.229 407.673L561.184 405H558.346V407ZM555.146 415.96V417.96H556.555L557.029 416.633L555.146 415.96ZM477.066 415.96L475.182 415.29L474.232 417.96H477.066V415.96ZM479.114 410.2L477.234 409.517L477.232 409.523L477.23 409.53L479.114 410.2ZM480.65 407V405H479.489L478.914 406.008L480.65 407ZM543.498 447.96L545.382 448.633L546.336 445.96H543.498V447.96ZM540.298 456.92V458.92H541.707L542.181 457.593L540.298 456.92ZM519.818 456.92L517.935 456.247L516.98 458.92H519.818V456.92ZM523.018 447.96V445.96H521.609L521.135 447.287L523.018 447.96ZM546.954 436.44V438.44H549.102L548.949 436.298L546.954 436.44ZM470.026 436.44L468.046 436.157L467.72 438.44H470.026V436.44ZM470.794 433.24L472.674 433.923L472.676 433.917L472.678 433.91L470.794 433.24ZM472.842 427.48V425.48H471.43L470.958 426.81L472.842 427.48ZM546.826 437.72L548.806 438.003L549.132 435.72H546.826V437.72ZM546.058 440.92L544.178 440.237L544.176 440.243L544.174 440.25L546.058 440.92ZM544.01 446.68V448.68H545.422L545.894 447.35L544.01 446.68ZM469.77 437.72V435.72H467.591L467.777 437.891L469.77 437.72ZM539.786 458.2L541.661 458.896L542.662 456.2H539.786V458.2ZM536.458 467.16V469.16H537.849L538.333 467.856L536.458 467.16ZM515.978 467.16L514.103 466.464L513.102 469.16H515.978V467.16ZM519.306 458.2V456.2H517.915L517.431 457.504L519.306 458.2ZM497.034 417.24L498.917 417.913L499.872 415.24H497.034V417.24ZM493.834 426.2V428.2H495.243L495.717 426.873L493.834 426.2ZM473.354 426.2L471.471 425.527L470.516 428.2H473.354V426.2ZM476.554 417.24V415.24H475.145L474.671 416.567L476.554 417.24ZM536.074 468.44L537.945 469.147L538.968 466.44H536.074V468.44ZM533.898 474.2L532.027 473.493L531.993 473.582L531.968 473.674L533.898 474.2ZM532.362 477.4V479.4H533.454L534.044 478.482L532.362 477.4ZM454.666 477.4L452.791 476.704L451.79 479.4H454.666V477.4ZM457.994 468.44V466.44H456.603L456.119 467.744L457.994 468.44ZM531.594 478.68L533.156 479.929L535.755 476.68H531.594V478.68ZM450.954 487.64L449.079 486.944L448.078 489.64H450.954V487.64ZM454.282 478.68V476.68H452.891L452.407 477.984L454.282 478.68ZM560.311 396.064L556.983 405.024L560.733 406.416L564.061 397.456L560.311 396.064ZM558.858 403.72H481.418V407.72H558.858V403.72ZM482.969 406.983C487.579 401.321 492.434 398.76 497.546 398.76V394.76C490.882 394.76 484.985 398.172 479.867 404.457L482.969 406.983ZM497.546 398.76H562.186V394.76H497.546V398.76ZM556.463 406.327L553.263 415.287L557.029 416.633L560.229 407.673L556.463 406.327ZM555.146 413.96H477.066V417.96H555.146V413.96ZM478.95 416.63L480.998 410.87L477.23 409.53L475.182 415.29L478.95 416.63ZM480.994 410.883C481.285 410.083 481.741 409.122 482.387 407.992L478.914 406.008C478.194 407.267 477.626 408.44 477.234 409.517L480.994 410.883ZM480.65 409H558.346V405H480.65V409ZM541.615 447.287L538.415 456.247L542.181 457.593L545.382 448.633L541.615 447.287ZM540.298 454.92H519.818V458.92H540.298V454.92ZM521.702 457.593L524.901 448.633L521.135 447.287L517.935 456.247L521.702 457.593ZM523.018 449.96H543.498V445.96H523.018V449.96ZM546.954 434.44H470.026V438.44H546.954V434.44ZM472.006 436.723C472.161 435.638 472.388 434.709 472.674 433.923L468.914 432.557C468.517 433.648 468.232 434.853 468.046 436.157L472.006 436.723ZM472.678 433.91L474.726 428.15L470.958 426.81L468.91 432.57L472.678 433.91ZM472.842 429.48H537.482V425.48H472.842V429.48ZM537.482 429.48C540.1 429.48 541.8 430.14 542.892 431.173C543.989 432.211 544.768 433.905 544.959 436.582L548.949 436.298C548.714 433.002 547.701 430.216 545.64 428.267C543.575 426.313 540.753 425.48 537.482 425.48V429.48ZM544.846 437.437C544.691 438.522 544.464 439.451 544.178 440.237L547.938 441.603C548.335 440.512 548.62 439.307 548.806 438.003L544.846 437.437ZM544.174 440.25L542.126 446.01L545.894 447.35L547.942 441.59L544.174 440.25ZM544.01 444.68H479.37V448.68H544.01V444.68ZM479.37 444.68C476.754 444.68 475.036 444.021 473.919 442.978C472.796 441.93 471.992 440.226 471.763 437.549L467.777 437.891C468.06 441.187 469.112 443.963 471.189 445.902C473.272 447.846 476.098 448.68 479.37 448.68V444.68ZM469.77 439.72H546.826V435.72H469.77V439.72ZM537.911 457.504L534.583 466.464L538.333 467.856L541.661 458.896L537.911 457.504ZM536.458 465.16H515.978V469.16H536.458V465.16ZM517.853 467.856L521.181 458.896L517.431 457.504L514.103 466.464L517.853 467.856ZM519.306 460.2H539.786V456.2H519.306V460.2ZM495.151 416.567L491.951 425.527L495.717 426.873L498.917 417.913L495.151 416.567ZM493.834 424.2H473.354V428.2H493.834V424.2ZM475.237 426.873L478.438 417.913L474.671 416.567L471.471 425.527L475.237 426.873ZM476.554 419.24H497.034V415.24H476.554V419.24ZM534.203 467.733L532.027 473.493L535.769 474.907L537.945 469.147L534.203 467.733ZM531.968 473.674C531.785 474.348 531.383 475.224 530.68 476.318L534.044 478.482C534.877 477.187 535.499 475.929 535.828 474.726L531.968 473.674ZM532.362 475.4H454.666V479.4H532.362V475.4ZM456.541 478.096L459.869 469.136L456.119 467.744L452.791 476.704L456.541 478.096ZM457.994 470.44H536.074V466.44H457.994V470.44ZM530.032 477.431C525.51 483.083 520.702 485.64 515.594 485.64V489.64C522.262 489.64 528.12 486.224 533.156 479.929L530.032 477.431ZM515.594 485.64H450.954V489.64H515.594V485.64ZM452.829 488.336L456.157 479.376L452.407 477.984L449.079 486.944L452.829 488.336ZM454.282 480.68H531.594V476.68H454.282V480.68Z" fill="#F70606" mask="url(#path-4-outside-1_3437_5952)"/>
<mask id="path-6-outside-2_3437_5952" maskUnits="userSpaceOnUse" x="536" y="508" width="286" height="94" fill="black">
<rect fill="white" x="536" y="508" width="286" height="94"/>
<path d="M673.04 510.4L604.56 600H580.24L579.6 582.336L566.16 600H541.84L538.64 510.4H560.4L562.704 576.064L578.576 555.2L577.04 510.4H598.8L599.44 527.936L612.88 510.4H634.64L600.336 555.2L601.104 576.064L651.28 510.4H673.04ZM712.315 600H690.555L689.787 579.52H653.691L638.075 600H616.315L684.795 510.4H709.115L712.315 600ZM689.147 561.6L688.251 534.336L667.387 561.6H689.147ZM790.395 600H771.195L786.043 559.04H747.643L732.795 600H713.595L746.235 510.4H810.235C812.966 510.4 815.142 511.211 816.763 512.832C818.384 514.368 819.195 516.373 819.195 518.848C819.195 520.213 818.896 521.664 818.299 523.2L813.179 537.28C811.899 540.779 809.552 543.808 806.139 546.368C802.726 548.843 799.27 550.08 795.771 550.08C798.502 550.08 800.678 550.891 802.299 552.512C803.92 554.048 804.731 556.053 804.731 558.528C804.731 559.893 804.475 561.344 803.963 562.88L790.395 600ZM792.571 541.12L797.307 528.32H758.907L754.171 541.12H792.571Z"/>
</mask>
<path d="M673.04 510.4L604.56 600H580.24L579.6 582.336L566.16 600H541.84L538.64 510.4H560.4L562.704 576.064L578.576 555.2L577.04 510.4H598.8L599.44 527.936L612.88 510.4H634.64L600.336 555.2L601.104 576.064L651.28 510.4H673.04ZM712.315 600H690.555L689.787 579.52H653.691L638.075 600H616.315L684.795 510.4H709.115L712.315 600ZM689.147 561.6L688.251 534.336L667.387 561.6H689.147ZM790.395 600H771.195L786.043 559.04H747.643L732.795 600H713.595L746.235 510.4H810.235C812.966 510.4 815.142 511.211 816.763 512.832C818.384 514.368 819.195 516.373 819.195 518.848C819.195 520.213 818.896 521.664 818.299 523.2L813.179 537.28C811.899 540.779 809.552 543.808 806.139 546.368C802.726 548.843 799.27 550.08 795.771 550.08C798.502 550.08 800.678 550.891 802.299 552.512C803.92 554.048 804.731 556.053 804.731 558.528C804.731 559.893 804.475 561.344 803.963 562.88L790.395 600ZM792.571 541.12L797.307 528.32H758.907L754.171 541.12H792.571Z" fill="url(#paint4_linear_3437_5952)"/>
<path d="M673.04 510.4L674.629 511.614L677.086 508.4H673.04V510.4ZM604.56 600V602H605.549L606.149 601.214L604.56 600ZM580.24 600L578.241 600.072L578.311 602H580.24V600ZM579.6 582.336L581.599 582.264L581.396 576.672L578.008 581.125L579.6 582.336ZM566.16 600V602H567.151L567.752 601.211L566.16 600ZM541.84 600L539.841 600.071L539.91 602H541.84V600ZM538.64 510.4V508.4H536.567L536.641 510.471L538.64 510.4ZM560.4 510.4L562.399 510.33L562.331 508.4H560.4V510.4ZM562.704 576.064L560.705 576.134L560.902 581.736L564.296 577.275L562.704 576.064ZM578.576 555.2L580.168 556.411L580.599 555.844L580.575 555.131L578.576 555.2ZM577.04 510.4V508.4H574.97L575.041 510.469L577.04 510.4ZM598.8 510.4L600.799 510.327L600.728 508.4H598.8V510.4ZM599.44 527.936L597.441 528.009L597.644 533.567L601.027 529.153L599.44 527.936ZM612.88 510.4V508.4H611.893L611.293 509.183L612.88 510.4ZM634.64 510.4L636.228 511.616L638.69 508.4H634.64V510.4ZM600.336 555.2L598.748 553.984L598.311 554.555L598.337 555.274L600.336 555.2ZM601.104 576.064L599.105 576.138L599.31 581.705L602.693 577.278L601.104 576.064ZM651.28 510.4V508.4H650.291L649.691 509.186L651.28 510.4ZM671.451 509.186L602.971 598.786L606.149 601.214L674.629 511.614L671.451 509.186ZM604.56 598H580.24V602H604.56V598ZM582.239 599.928L581.599 582.264L577.601 582.408L578.241 600.072L582.239 599.928ZM578.008 581.125L564.568 598.789L567.752 601.211L581.192 583.547L578.008 581.125ZM566.16 598H541.84V602H566.16V598ZM543.839 599.929L540.639 510.329L536.641 510.471L539.841 600.071L543.839 599.929ZM538.64 512.4H560.4V508.4H538.64V512.4ZM558.401 510.47L560.705 576.134L564.703 575.994L562.399 510.33L558.401 510.47ZM564.296 577.275L580.168 556.411L576.984 553.989L561.112 574.853L564.296 577.275ZM580.575 555.131L579.039 510.331L575.041 510.469L576.577 555.269L580.575 555.131ZM577.04 512.4H598.8V508.4H577.04V512.4ZM596.801 510.473L597.441 528.009L601.439 527.863L600.799 510.327L596.801 510.473ZM601.027 529.153L614.467 511.617L611.293 509.183L597.853 526.719L601.027 529.153ZM612.88 512.4H634.64V508.4H612.88V512.4ZM633.052 509.184L598.748 553.984L601.924 556.416L636.228 511.616L633.052 509.184ZM598.337 555.274L599.105 576.138L603.103 575.99L602.335 555.126L598.337 555.274ZM602.693 577.278L652.869 511.614L649.691 509.186L599.515 574.85L602.693 577.278ZM651.28 512.4H673.04V508.4H651.28V512.4ZM712.315 600V602H714.388L714.314 599.929L712.315 600ZM690.555 600L688.556 600.075L688.629 602H690.555V600ZM689.787 579.52L691.786 579.445L691.713 577.52H689.787V579.52ZM653.691 579.52V577.52H652.701L652.101 578.307L653.691 579.52ZM638.075 600V602H639.065L639.665 601.213L638.075 600ZM616.315 600L614.726 598.786L612.269 602H616.315V600ZM684.795 510.4V508.4H683.806L683.206 509.186L684.795 510.4ZM709.115 510.4L711.114 510.329L711.045 508.4H709.115V510.4ZM689.147 561.6V563.6H691.214L691.146 561.534L689.147 561.6ZM688.251 534.336L690.25 534.27L690.066 528.673L686.663 533.121L688.251 534.336ZM667.387 561.6L665.799 560.385L663.338 563.6H667.387V561.6ZM712.315 598H690.555V602H712.315V598ZM692.554 599.925L691.786 579.445L687.788 579.595L688.556 600.075L692.554 599.925ZM689.787 577.52H653.691V581.52H689.787V577.52ZM652.101 578.307L636.485 598.787L639.665 601.213L655.281 580.733L652.101 578.307ZM638.075 598H616.315V602H638.075V598ZM617.904 601.214L686.384 511.614L683.206 509.186L614.726 598.786L617.904 601.214ZM684.795 512.4H709.115V508.4H684.795V512.4ZM707.116 510.471L710.316 600.071L714.314 599.929L711.114 510.329L707.116 510.471ZM691.146 561.534L690.25 534.27L686.252 534.402L687.148 561.666L691.146 561.534ZM686.663 533.121L665.799 560.385L668.975 562.815L689.839 535.551L686.663 533.121ZM667.387 563.6H689.147V559.6H667.387V563.6ZM790.395 600V602H791.793L792.273 600.687L790.395 600ZM771.195 600L769.315 599.318L768.343 602H771.195V600ZM786.043 559.04L787.923 559.722L788.895 557.04H786.043V559.04ZM747.643 559.04V557.04H746.241L745.763 558.358L747.643 559.04ZM732.795 600V602H734.197L734.675 600.682L732.795 600ZM713.595 600L711.716 599.315L710.738 602H713.595V600ZM746.235 510.4V508.4H744.835L744.356 509.715L746.235 510.4ZM816.763 512.832L815.349 514.246L815.368 514.265L815.388 514.284L816.763 512.832ZM818.299 523.2L816.435 522.475L816.427 522.496L816.419 522.517L818.299 523.2ZM813.179 537.28L815.057 537.967L815.059 537.963L813.179 537.28ZM806.139 546.368L807.313 547.987L807.326 547.978L807.339 547.968L806.139 546.368ZM802.299 552.512L800.885 553.926L800.904 553.945L800.924 553.964L802.299 552.512ZM803.963 562.88L805.841 563.567L805.851 563.54L805.86 563.512L803.963 562.88ZM792.571 541.12V543.12H793.964L794.447 541.814L792.571 541.12ZM797.307 528.32L799.183 529.014L800.18 526.32H797.307V528.32ZM758.907 528.32V526.32H757.514L757.031 527.626L758.907 528.32ZM754.171 541.12L752.295 540.426L751.298 543.12H754.171V541.12ZM790.395 598H771.195V602H790.395V598ZM773.075 600.682L787.923 559.722L784.163 558.358L769.315 599.318L773.075 600.682ZM786.043 557.04H747.643V561.04H786.043V557.04ZM745.763 558.358L730.915 599.318L734.675 600.682L749.523 559.722L745.763 558.358ZM732.795 598H713.595V602H732.795V598ZM715.474 600.685L748.114 511.085L744.356 509.715L711.716 599.315L715.474 600.685ZM746.235 512.4H810.235V508.4H746.235V512.4ZM810.235 512.4C812.544 512.4 814.173 513.07 815.349 514.246L818.177 511.418C816.11 509.351 813.387 508.4 810.235 508.4V512.4ZM815.388 514.284C816.565 515.399 817.195 516.857 817.195 518.848H821.195C821.195 515.89 820.204 513.337 818.138 511.38L815.388 514.284ZM817.195 518.848C817.195 519.92 816.961 521.124 816.435 522.475L820.163 523.925C820.832 522.204 821.195 520.507 821.195 518.848H817.195ZM816.419 522.517L811.299 536.597L815.059 537.963L820.179 523.883L816.419 522.517ZM811.301 536.593C810.172 539.677 808.089 542.406 804.939 544.768L807.339 547.968C811.016 545.21 813.626 541.88 815.057 537.967L811.301 536.593ZM804.965 544.749C801.822 547.028 798.767 548.08 795.771 548.08V552.08C799.772 552.08 803.63 550.657 807.313 547.987L804.965 544.749ZM795.771 552.08C798.08 552.08 799.709 552.75 800.885 553.926L803.713 551.098C801.646 549.031 798.923 548.08 795.771 548.08V552.08ZM800.924 553.964C802.101 555.079 802.731 556.537 802.731 558.528H806.731C806.731 555.57 805.74 553.017 803.674 551.06L800.924 553.964ZM802.731 558.528C802.731 559.643 802.522 560.879 802.066 562.248L805.86 563.512C806.428 561.809 806.731 560.144 806.731 558.528H802.731ZM802.085 562.193L788.517 599.313L792.273 600.687L805.841 563.567L802.085 562.193ZM794.447 541.814L799.183 529.014L795.431 527.626L790.695 540.426L794.447 541.814ZM797.307 526.32H758.907V530.32H797.307V526.32ZM757.031 527.626L752.295 540.426L756.047 541.814L760.783 529.014L757.031 527.626ZM754.171 543.12H792.571V539.12H754.171V543.12Z" fill="#0052FF" mask="url(#path-6-outside-2_3437_5952)"/>
<g filter="url(#filter0_d_3437_5952)">
<path d="M619 406L627.756 431.912H656.091L633.168 447.926L641.924 473.838L619 457.824L596.076 473.838L604.832 447.926L581.909 431.912H610.244L619 406Z" fill="url(#paint5_angular_3437_5952)" shape-rendering="crispEdges"/>
</g>
<g filter="url(#filter1_d_3437_5952)">
<path d="M709 406L717.756 431.912H746.091L723.168 447.926L731.924 473.838L709 457.824L686.076 473.838L694.832 447.926L671.909 431.912H700.244L709 406Z" fill="url(#paint6_angular_3437_5952)" shape-rendering="crispEdges"/>
</g>
<g filter="url(#filter2_d_3437_5952)">
<path d="M799 406L807.756 431.912H836.091L813.168 447.926L821.924 473.838L799 457.824L776.076 473.838L784.832 447.926L761.909 431.912H790.244L799 406Z" fill="url(#paint7_angular_3437_5952)" shape-rendering="crispEdges"/>
</g>
<defs>
<filter id="filter0_d_3437_5952" x="577.909" y="406" width="82.1826" height="75.8398" filterUnits="userSpaceOnUse" color-interpolation-filters="sRGB">
<feFlood flood-opacity="0" result="BackgroundImageFix"/>
<feColorMatrix in="SourceAlpha" type="matrix" values="0 0 0 0 0 0 0 0 0 0 0 0 0 0 0 0 0 0 127 0" result="hardAlpha"/>
<feOffset dy="4"/>
<feGaussianBlur stdDeviation="2"/>
<feComposite in2="hardAlpha" operator="out"/>
<feColorMatrix type="matrix" values="0 0 0 0 0 0 0 0 0 0 0 0 0 0 0 0 0 0 0.25 0"/>
<feBlend mode="normal" in2="BackgroundImageFix" result="effect1_dropShadow_3437_5952"/>
<feBlend mode="normal" in="SourceGraphic" in2="effect1_dropShadow_3437_5952" result="shape"/>
</filter>
<filter id="filter1_d_3437_5952" x="667.909" y="406" width="82.1826" height="75.8398" filterUnits="userSpaceOnUse" color-interpolation-filters="sRGB">
<feFlood flood-opacity="0" result="BackgroundImageFix"/>
<feColorMatrix in="SourceAlpha" type="matrix" values="0 0 0 0 0 0 0 0 0 0 0 0 0 0 0 0 0 0 127 0" result="hardAlpha"/>
<feOffset dy="4"/>
<feGaussianBlur stdDeviation="2"/>
<feComposite in2="hardAlpha" operator="out"/>
<feColorMatrix type="matrix" values="0 0 0 0 0 0 0 0 0 0 0 0 0 0 0 0 0 0 0.25 0"/>
<feBlend mode="normal" in2="BackgroundImageFix" result="effect1_dropShadow_3437_5952"/>
<feBlend mode="normal" in="SourceGraphic" in2="effect1_dropShadow_3437_5952" result="shape"/>
</filter>
<filter id="filter2_d_3437_5952" x="757.909" y="406" width="82.1826" height="75.8398" filterUnits="userSpaceOnUse" color-interpolation-filters="sRGB">
<feFlood flood-opacity="0" result="BackgroundImageFix"/>
<feColorMatrix in="SourceAlpha" type="matrix" values="0 0 0 0 0 0 0 0 0 0 0 0 0 0 0 0 0 0 127 0" result="hardAlpha"/>
<feOffset dy="4"/>
<feGaussianBlur stdDeviation="2"/>
<feComposite in2="hardAlpha" operator="out"/>
<feColorMatrix type="matrix" values="0 0 0 0 0 0 0 0 0 0 0 0 0 0 0 0 0 0 0.25 0"/>
<feBlend mode="normal" in2="BackgroundImageFix" result="effect1_dropShadow_3437_5952"/>
<feBlend mode="normal" in="SourceGraphic" in2="effect1_dropShadow_3437_5952" result="shape"/>
</filter>
<linearGradient id="paint0_linear_3437_5952" x1="331" y1="544.5" x2="330.5" y2="662.508" gradientUnits="userSpaceOnUse">
<stop stop-color="#F2EDED"/>
<stop offset="0.711935" stop-color="#525050"/>
</linearGradient>
<linearGradient id="paint1_linear_3437_5952" x1="288.259" y1="515.923" x2="288.025" y2="570.389" gradientUnits="userSpaceOnUse">
<stop stop-color="#F2EDED"/>
<stop offset="0.711935" stop-color="#525050"/>
</linearGradient>
<linearGradient id="paint2_linear_3437_5952" x1="304.789" y1="543.344" x2="304.751" y2="570.577" gradientUnits="userSpaceOnUse">
<stop stop-color="#F2EDED"/>
<stop offset="0.711935" stop-color="#525050"/>
</linearGradient>
<linearGradient id="paint3_linear_3437_5952" x1="381" y1="422.788" x2="367.938" y2="583.369" gradientUnits="userSpaceOnUse">
<stop stop-color="white"/>
<stop offset="1"/>
</linearGradient>
<linearGradient id="paint4_linear_3437_5952" x1="711" y1="534" x2="696" y2="706" gradientUnits="userSpaceOnUse">
<stop stop-color="white"/>
<stop offset="1"/>
</linearGradient>
<radialGradient id="paint5_angular_3437_5952" cx="0" cy="0" r="1" gradientUnits="userSpaceOnUse" gradientTransform="translate(619 444) rotate(87.5853) scale(166.148 158.281)">
<stop offset="1.05854e-05" stop-color="#D9D9D9" stop-opacity="0.27"/>
<stop offset="0.192708" stop-color="#FFFBFB"/>
<stop offset="0.792591" stop-color="white" stop-opacity="0.532826"/>
</radialGradient>
<radialGradient id="paint6_angular_3437_5952" cx="0" cy="0" r="1" gradientUnits="userSpaceOnUse" gradientTransform="translate(709 444) rotate(87.5853) scale(166.148 158.281)">
<stop offset="1.05854e-05" stop-color="#D9D9D9" stop-opacity="0.27"/>
<stop offset="0.192708" stop-color="#FFFBFB"/>
<stop offset="0.792591" stop-color="white" stop-opacity="0.532826"/>
</radialGradient>
<radialGradient id="paint7_angular_3437_5952" cx="0" cy="0" r="1" gradientUnits="userSpaceOnUse" gradientTransform="translate(799 444) rotate(87.5853) scale(166.148 158.281)">
<stop offset="1.05854e-05" stop-color="#D9D9D9" stop-opacity="0.27"/>
<stop offset="0.192708" stop-color="#FFFBFB"/>
<stop offset="0.792591" stop-color="white" stop-opacity="0.532826"/>
</radialGradient>
</defs>
</svg>
