<svg width="172" height="31" viewBox="0 0 172 31" fill="none" xmlns="http://www.w3.org/2000/svg">
<path d="M4.84824 14.896L5.81983 15.0836L6.05301 15.666C6.20847 16.0411 6.52909 16.3175 6.91773 16.4162L7.00517 16.436C7.64642 16.5939 8.29739 16.2287 8.50142 15.587L8.14193 15.3896L0 11.0659L6.71369 0L3.61432 9.72339L10.6875 12.6453L17.7704 9.72339L14.6613 0L21.375 11.0758L13.2331 15.3995L12.8736 15.587C13.0776 16.2188 13.7286 16.5939 14.3698 16.436L14.4573 16.4162C14.8459 16.3175 15.1665 16.0411 15.322 15.666L15.5552 15.0836L16.5268 14.896L17.1194 16.7815L11.8145 22.7932C11.8243 22.8031 11.8243 22.8031 11.834 22.8129L11.8437 22.8228C12.242 23.2177 12.8639 23.267 13.3205 22.9314L13.4371 22.8524C13.7286 22.6353 13.9035 22.2898 13.9035 21.9146V21.3421L14.9236 20.6017L15.0985 22.7537L10.6972 28.0547L6.29591 22.7537L6.4708 20.6017L7.49096 21.3421V21.9146C7.49096 22.2799 7.66585 22.6353 7.95733 22.8524L8.07392 22.9314C8.53057 23.267 9.15239 23.2177 9.55074 22.8228L9.56045 22.8129C9.57017 22.8031 9.57017 22.8031 9.57989 22.7932L4.275 16.7815L4.84824 14.896Z" fill="white"/>
<path d="M37.3314 24.0078C40.2812 24.0078 41.9271 22.5116 41.9271 20.0534C41.9271 18.1724 40.7301 16.8472 38.2933 16.5693V16.4197C40.4736 16.1632 41.4141 14.9021 41.4141 13.2134C41.4141 10.9477 39.7682 9.68656 37.0322 9.68656H29.0166V24.0078H37.3314ZM31.3037 11.7599H36.7757C38.3788 11.7599 39.1269 12.3798 39.1269 13.7264C39.1269 15.0731 38.3147 15.6929 36.7116 15.6929H31.3037V11.7599ZM31.3037 17.5953H37.0749C38.7636 17.5953 39.6186 18.2366 39.6186 19.7328C39.6186 21.2932 38.7849 21.9344 37.0749 21.9344H31.3037V17.5953ZM50.0484 24.2216C54.3448 24.2216 56.7815 21.9558 56.7815 18.0656V9.68656H54.473V17.9159C54.473 20.8016 53.1905 21.9986 50.0484 21.9986C46.9063 21.9986 45.6238 20.8016 45.6238 17.9159V9.68656H43.3366V18.0656C43.3366 21.9558 45.7734 24.2216 50.0484 24.2216ZM69.9635 24.0078V21.9344H61.1357V9.68656H58.8272V24.0078H69.9635ZM82.5923 24.0078V21.9344H73.7645V9.68656H71.456V24.0078H82.5923ZM86.3932 24.0078V9.68656H84.0847V24.0078H86.3932ZM99.9879 24.0078V21.9344H90.8394V17.8304H99.6673V15.7784H90.8394V11.7599H99.9879V9.68656H88.5309V24.0078H99.9879ZM109.994 24.0078L116.107 9.68656H113.393L108.476 21.6779H108.305L103.346 9.68656H100.61L106.724 24.0078H109.994ZM128.544 24.0078V21.9344H119.395V17.8304H128.223V15.7784H119.395V11.7599H128.544V9.68656H117.087V24.0078H128.544ZM132.65 24.0078V18.4503H135.279C137.075 18.4503 137.737 18.9206 138.379 20.0534L140.666 24.0078H143.316L140.922 19.8611C140.409 18.9633 139.896 18.3221 138.785 18.0228V17.8732C141.478 17.7236 143.038 16.2701 143.038 13.8974C143.038 11.2256 141.029 9.68656 137.78 9.68656H130.342V24.0078H132.65ZM132.65 11.7599H137.759C139.682 11.7599 140.644 12.4653 140.644 14.2181C140.644 16.0136 139.682 16.6762 137.759 16.6762H132.65V11.7599ZM150.709 24.2216C154.942 24.2216 156.716 22.2123 156.716 20.0321C156.716 17.9373 155.305 16.6334 152.441 16.1204L148.957 15.5219C147.268 15.1586 146.541 14.7524 146.541 13.5127C146.541 12.2302 147.567 11.5889 150.175 11.5889C153.146 11.5889 154.193 12.4653 154.193 14.2181V14.4959H156.481V14.3677C156.481 11.5676 154.578 9.47281 150.389 9.47281C145.943 9.47281 144.233 11.5676 144.233 13.6409C144.233 15.9922 145.943 17.1037 148.358 17.5312L151.864 18.1083C153.68 18.4503 154.407 18.9206 154.407 20.1603C154.407 21.5069 153.445 22.1054 150.709 22.1054C147.567 22.1054 146.563 21.2504 146.563 19.5404V19.1984H144.254V19.3267C144.254 22.3406 146.434 24.2216 150.709 24.2216ZM169.812 24.0078V21.9344H160.663V17.8304H169.491V15.7784H160.663V11.7599H169.812V9.68656H158.355V24.0078H169.812Z" fill="white"/>
</svg>
