<?xml version="1.0" encoding="UTF-8"?>
<svg id="Layer_1" data-name="Layer 1" xmlns="http://www.w3.org/2000/svg" version="1.1" viewBox="0 0 172 31">
  <defs>
    <style>
      .cls-1 {
        fill: #fff;
        stroke-width: 0px;
      }
    </style>
  </defs>
  <path class="cls-1" d="M4.85,14.9l.97.19.23.58c.16.38.48.65.86.75l.09.02c.64.16,1.29-.21,1.5-.85l-.36-.2L0,11.07,6.71,0l-3.1,9.72,7.07,2.92,7.08-2.92L14.66,0l6.71,11.08-8.14,4.32-.36.19c.2.63.85,1.01,1.5.85l.09-.02c.39-.1.71-.38.86-.75l.23-.58.97-.19.59,1.89-5.3,6.01s0,0,.02.02h0c.4.4,1.02.45,1.48.12l.12-.08c.29-.22.47-.56.47-.94v-.57l1.02-.74.17,2.15-4.4,5.3-4.4-5.3.17-2.15,1.02.74v.57c0,.37.17.72.47.94l.12.08c.46.34,1.08.29,1.48-.11h0s0-.02.02-.03l-5.3-6.01.57-1.89Z"/>
  <path class="cls-1" d="M21.54,27.3c2.95,0,4.6-1.5,4.6-3.95,0-1.88-1.2-3.21-3.63-3.48v-.15c2.18-.26,3.12-1.52,3.12-3.21,0-2.27-1.65-3.53-4.38-3.53h-8.02v14.32h8.31ZM15.52,15.05h5.47c1.6,0,2.35.62,2.35,1.97s-.81,1.97-2.42,1.97h-5.41v-3.93ZM15.52,20.89h5.77c1.69,0,2.54.64,2.54,2.14s-.83,2.2-2.54,2.2h-5.77v-4.34ZM34.26,27.51c4.3,0,6.73-2.27,6.73-6.16v-8.38h-2.31v8.23c0,2.89-1.28,4.08-4.42,4.08s-4.42-1.2-4.42-4.08v-8.23h-2.29v8.38c0,3.89,2.44,6.16,6.71,6.16ZM54.18,27.3v-2.07h-8.83v-12.25h-2.31v14.32h11.14ZM66.81,27.3v-2.07h-8.83v-12.25h-2.31v14.32h11.14ZM70.61,27.3v-14.32h-2.31v14.32h2.31ZM84.2,27.3v-2.07h-9.15v-4.1h8.83v-2.05h-8.83v-4.02h9.15v-2.07h-11.46v14.32h11.46ZM94.21,27.3l6.11-14.32h-2.71l-4.92,11.99h-.17l-4.96-11.99h-2.74l6.11,14.32h3.27ZM112.76,27.3v-2.07h-9.15v-4.1h8.83v-2.05h-8.83v-4.02h9.15v-2.07h-11.46v14.32h11.46ZM116.86,27.3v-5.56h2.63c1.8,0,2.46.47,3.1,1.6l2.29,3.95h2.65l-2.39-4.15c-.51-.9-1.03-1.54-2.14-1.84v-.15c2.69-.15,4.25-1.6,4.25-3.98,0-2.67-2.01-4.21-5.26-4.21h-7.44v14.32h2.31ZM116.86,15.05h5.11c1.92,0,2.88.71,2.88,2.46s-.96,2.46-2.88,2.46h-5.11v-4.92ZM134.92,27.51c4.23,0,6.01-2.01,6.01-4.19s-1.41-3.4-4.28-3.91l-3.48-.6c-1.69-.36-2.42-.77-2.42-2.01s1.03-1.92,3.63-1.92c2.97,0,4.02.88,4.02,2.63v.28h2.29v-.13c0-2.8-1.9-4.89-6.09-4.89-4.45,0-6.16,2.09-6.16,4.17,0,2.35,1.71,3.46,4.12,3.89l3.51.58c1.82.34,2.54.81,2.54,2.05,0,1.35-.96,1.95-3.7,1.95-3.14,0-4.15-.85-4.15-2.57v-.34h-2.31v.13c0,3.01,2.18,4.89,6.46,4.89ZM154.02,27.3v-2.07h-9.15v-4.1h8.83v-2.05h-8.83v-4.02h9.15v-2.07h-11.46v14.32h11.46Z"/>
</svg>