<?xml version="1.0" encoding="UTF-8"?>
<svg id="Layer_1" data-name="Layer 1" xmlns="http://www.w3.org/2000/svg" viewBox="0 0 74.41 78.45">
  <defs>
    <style>
      .cls-1 {
        fill: #000;
        stroke-width: 0px;
      }
    </style>
  </defs>
  <path class="cls-1" d="M39.69,43.75c.9,1.31,1.77,2.6,2.68,3.94-.89.5-1.73.97-2.56,1.45-.71.41-.73.61-.18,1.24.08.09.56.77.75.92.52.4,1.17.31,1.91.07,1.41-.45,2.86-.81,4.28-1.24.23-.07.51-.22.61-.42,1.04-1.95,2.05-3.92,3.04-5.89.15-.3.47-.66.03-1.08-2.22,1.44-4.45,2.88-6.76,4.36-.79-2.22-1.54-4.32-2.31-6.48-.83.21-1.65.42-2.52.65.13-1.24.37-2.68.67-3.77.05-.15.28-.3.45-.34,1.79-.35,3.59-.67,5.39-1,1.57-.29,3.13-.58,4.84-.9-.47-.6-.84-1.07-1.24-1.58,2.8-2.91,5.53-5.84,8.55-8.49.05.03.11.05.16.08-.05.3-.08.6-.16.9-.74,2.92-1.49,5.84-2.22,8.76-.05.2-.04.48.07.64.63.87,1.25,1.76,1.97,2.56.93,1.05.97,2.04.3,3.29-.91,1.69-1.61,3.5-2.43,5.25-.16.35-.16.58.17.81.22.14.37.38.6.51.88.49.85,1.15.6,2.02-.25.85-.68,1.37-1.49,1.71-2.48,1.05-4.92,2.17-7.39,3.24-.44.19-.7.46-.89.89-1.11,2.41-2.24,4.81-3.38,7.21-.08.17-.31.37-.45.36-.14,0-.33-.25-.39-.43-.36-.96-.67-1.94-1.04-2.89-.07-.18-.35-.4-.53-.4-2.61-.03-5.23-.03-7.84-.05-.39,0-.52.19-.65.49-.44,1.08-.88,2.15-1.34,3.22-.07.17-.22.32-.33.47-.16-.13-.39-.24-.47-.41-.66-1.4-1.32-2.8-1.93-4.21-.52-1.2-.96-2.43-1.46-3.63-.09-.21-.3-.41-.51-.51-2.6-1.18-5.21-2.33-7.8-3.5-.36-.16-.84-.34-.98-.64-.31-.66-.46-1.41-.63-2.13-.03-.11.16-.31.29-.42.46-.42.93-.83,1.42-1.21.31-.24.34-.47.19-.82-.84-1.98-1.59-4-2.51-5.94-.64-1.35-.37-2.36.64-3.35.74-.73,1.41-1.54,2.05-2.25-1.29-3.9-1.97-7.84-2.49-11.85,2.97,3.19,5.41,6.8,8.26,10.14l-.96,1.29c1.95.35,3.85.68,5.73,1.05,2.09.41,4.17.86,6.26,1.28.49.1.7.35.61.83-.21,1.06-.79,4.28-.83,4.82-.02.3.08.53.22.74.22.32.89,1.16.98,1.24.25.24.56.25.99.05.61-.28,1.28-.45,1.96-.68v.03ZM23.57,42.91c-.01.14-.03.18-.02.21.82,2.55,1.82,5.02,3.14,7.35.08.15.23.31.38.36,1.52.48,3.05.96,4.58,1.4.17.05.47-.07.6-.2.53-.55,1.02-1.13,1.52-1.71.59-.67.57-.77-.18-1.21-2.11-1.24-4.23-2.46-6.32-3.74-1.25-.76-2.44-1.61-3.71-2.45h.01ZM34.1,55.95h4.81c-.53-1.38-1-2.66-1.52-3.93-.15-.36-.59-.28-.84.11-.32.51-.63,1.02-.95,1.53-.45.7-.91,1.4-1.49,2.29h0Z"/>
  <path class="cls-1" d="M29.14,19.9c.52,1.24,1.06,2.46,1.55,3.71.23.59.73.77,1.22.97.11.04.33-.08.45-.19.48-.45.92-.96,1.43-1.38.39-.32.41-.68.26-1.06-.52-1.28-1-2.58-1.63-3.81-.33-.65-.36-1.13,0-1.77.8-1.46,1.55-2.95,2.26-4.46.16-.34.16-.82.07-1.2-.49-2.15-1.04-4.29-1.54-6.44-.13-.54-.13-1.11-.19-1.67.07-.02.15-.04.22-.06.11.15.24.3.34.46,1.96,3.32,3.92,6.64,5.85,9.98.15.26.19.66.12.95-.34,1.34-.76,2.67-1.11,4.01-.06.23.03.6.2.77.66.69,1.38,1.33,2.1,2.01,1.28-2.87,1.93-5.96,2.88-9.16.15.35.23.54.3.73,1.44,4.03,2.88,8.06,4.3,12.09.08.21.03.57-.11.74-2.37,3.08-5.02,5.91-7.88,8.54-.18.17-.49.29-.74.29-2.03-.02-4.06-.06-6.09-.14-.3,0-.67-.17-.87-.39-1.83-2.03-3.63-4.09-5.42-6.15-.14-.16-.29-.45-.24-.62.69-2.28,1.41-4.55,2.13-6.82.05.03.11.05.16.08h0Z"/>
  <path class="cls-1" d="M40.23,8.37c-.92-.28-1.5-.56-1.96-1.25-.7-1.07-.78-2.07-.39-3.27.41-1.25.61-2.56.98-3.85.86,2.68.85,5.49,1.37,8.38h0Z"/>
  <g>
    <path class="cls-1" d="M2.19,77.81c-.71-.41-1.26-.98-1.63-1.7-.37-.72-.56-1.54-.56-2.44,0-.99.2-1.85.59-2.59.39-.74.96-1.32,1.7-1.73.74-.41,1.61-.61,2.61-.61.93,0,1.76.2,2.47.59.71.4,1.27.96,1.66,1.68s.59,1.55.59,2.48-.2,1.83-.61,2.58-.99,1.34-1.73,1.75-1.6.62-2.57.62-1.8-.21-2.51-.62h-.01ZM6.27,76.63c.43-.28.76-.68,1-1.21.24-.52.36-1.13.36-1.82,0-1.11-.26-1.97-.77-2.59-.51-.62-1.21-.92-2.11-.92-.57,0-1.07.14-1.49.43-.42.29-.75.69-.97,1.2-.22.52-.34,1.12-.34,1.8,0,1.1.25,1.96.74,2.59s1.2.94,2.13.94c.54,0,1.02-.14,1.45-.42Z"/>
    <path class="cls-1" d="M16.45,78.18c-.21-.01-.47-.02-.8-.02h-4.69v-.03c.19-.13.36-.37.5-.7.14-.33.21-.75.21-1.25v-5.27c0-.48-.07-.89-.21-1.22s-.31-.56-.5-.68v-.03h3.24v.03c-.19.13-.36.37-.5.7-.14.33-.21.75-.21,1.25v5.88h1.31c.58,0,1.1-.1,1.54-.3.45-.2.81-.5,1.1-.89h.03l-.34,2.61c-.24-.04-.46-.07-.67-.09h-.01Z"/>
    <path class="cls-1" d="M18.28,78.14c.19-.13.36-.37.5-.7.14-.33.21-.75.21-1.25v-5.22c0-.46-.07-.87-.22-1.23s-.31-.6-.5-.73v-.03h3.83c.92,0,1.73.18,2.42.55s1.23.89,1.6,1.58.57,1.51.57,2.46c0,1.47-.4,2.6-1.2,3.4-.8.8-2,1.2-3.6,1.2h-3.62v-.03h.01ZM22.03,76.86c.88,0,1.55-.28,2.02-.84s.7-1.38.7-2.44c0-1.12-.23-1.94-.69-2.48-.46-.53-1.16-.8-2.1-.8h-1.16v6.56s1.23,0,1.23,0Z"/>
    <path class="cls-1" d="M34.71,75.64l-.37,2.63c-.25-.04-.48-.07-.71-.09-.22-.01-.53-.02-.9-.02h-4.66v-.03c.19-.13.36-.37.5-.7.14-.33.21-.75.21-1.25v-5.22c0-.51-.07-.93-.21-1.26s-.31-.56-.5-.69v-.03h4.74c.62,0,1.09-.04,1.4-.11l.22,2.36h-.03c-.16-.31-.41-.56-.77-.72-.35-.16-.79-.24-1.31-.24h-1.74v2.32h1c.55,0,.96,0,1.23-.02.26-.01.54-.04.83-.07l-.38,2.22h-.03c-.11-.29-.28-.5-.52-.63s-.55-.2-.92-.2h-1.21v2.97h1.44c.58,0,1.1-.11,1.55-.32s.82-.52,1.1-.92h.03v.02Z"/>
    <path class="cls-1" d="M44.23,77.93v.03l-2.71.49c-.17-.5-.39-.99-.67-1.47l-2.05-3.5h.63c.58,0,1.02-.13,1.32-.39s.45-.68.45-1.25c0-.48-.15-.87-.46-1.15-.31-.28-.74-.42-1.31-.41h-.92v5.95c0,.48.07.88.2,1.21s.29.56.46.69v.03h-3.18v-.03c.19-.12.36-.35.5-.69.14-.34.21-.76.21-1.26v-5.27c0-.48-.07-.89-.21-1.22s-.31-.56-.5-.68v-.03h3.75c1.05,0,1.87.25,2.46.75s.88,1.18.88,2.04c0,.69-.16,1.25-.47,1.68-.31.44-.75.75-1.33.93l1.23,1.99c.51.82,1.08,1.33,1.72,1.54v.02Z"/>
    <path class="cls-1" d="M51.1,71.35h-.03c-.43-.69-1.21-1.04-2.35-1.04h-1.48v2.46h1.16c.97,0,1.63-.04,1.98-.11l-.42,2.38h-.03c-.09-.28-.27-.51-.53-.69-.27-.18-.57-.26-.9-.26h-1.25v2.1c0,.51.07.93.21,1.26s.31.56.5.69v.03h-3.24v-.03c.19-.13.36-.37.5-.7.14-.33.21-.75.21-1.25v-5.22c0-.59-.06-1.03-.19-1.33-.13-.29-.3-.5-.51-.63v-.03h4.42c.75,0,1.32-.04,1.7-.11l.24,2.47h0Z"/>
    <path class="cls-1" d="M59.37,77.3c.25.39.47.67.67.84v.03h-2.98v-.03c.14-.11.21-.31.21-.61,0-.28-.07-.62-.21-1.02l-.12-.32h-3.41l-.12.32c-.14.36-.21.7-.21,1s.06.52.18.62v.03h-2.77v-.03c.2-.18.42-.46.67-.85.24-.39.45-.82.61-1.29l1.89-5.44c.08-.24.12-.45.12-.65s-.04-.38-.11-.54-.15-.28-.25-.36v-.03h3.5v.03c-.1.09-.18.21-.25.36s-.11.33-.11.53.04.41.12.65l1.94,5.44c.17.48.37.91.62,1.3v.02ZM54.95,72.02c-.11.4-.28.9-.49,1.49l-.49,1.4h2.54l-.49-1.4c-.22-.63-.39-1.14-.5-1.52s-.2-.79-.26-1.24h-.05c-.05.45-.14.87-.25,1.27h0Z"/>
    <path class="cls-1" d="M66.07,78.18c-.21-.01-.47-.02-.8-.02h-4.69v-.03c.19-.13.36-.37.5-.7.14-.33.21-.75.21-1.25v-5.27c0-.48-.07-.89-.21-1.22s-.31-.56-.5-.68v-.03h3.24v.03c-.19.13-.36.37-.5.7-.14.33-.21.75-.21,1.25v5.88h1.31c.58,0,1.1-.1,1.54-.3.45-.2.81-.5,1.1-.89h.03l-.34,2.61c-.24-.04-.46-.07-.67-.09h-.01Z"/>
    <path class="cls-1" d="M73.39,78.18c-.21-.01-.47-.02-.8-.02h-4.69v-.03c.19-.13.36-.37.5-.7.14-.33.21-.75.21-1.25v-5.27c0-.48-.07-.89-.21-1.22s-.31-.56-.5-.68v-.03h3.24v.03c-.19.13-.36.37-.5.7-.14.33-.21.75-.21,1.25v5.88h1.31c.58,0,1.1-.1,1.54-.3.45-.2.81-.5,1.1-.89h.03l-.34,2.61c-.24-.04-.46-.07-.67-.09h0Z"/>
  </g>
</svg>