<?xml version="1.0" standalone="no"?>
<!DOCTYPE svg PUBLIC "-//W3C//DTD SVG 20010904//EN"
 "http://www.w3.org/TR/2001/REC-SVG-20010904/DTD/svg10.dtd">
<svg version="1.0" xmlns="http://www.w3.org/2000/svg"
 width="3301.000000pt" height="2550.000000pt" viewBox="0 0 3301.000000 2550.000000"
 preserveAspectRatio="xMidYMid meet">

<g transform="translate(0.000000,2550.000000) scale(0.100000,-0.100000)"
fill="#000000" stroke="none">
<path d="M13843 17894 c-52 -19 -118 -89 -132 -140 -11 -39 -17 -1974 -6
-1974 3 0 125 56 272 124 l268 124 3 567 c2 498 4 566 17 563 23 -5 3795
-1752 3795 -1758 0 -3 -46 -25 -102 -49 -296 -130 -628 -361 -878 -611 -257
-257 -469 -565 -615 -892 l-48 -107 -52 114 c-306 665 -813 1178 -1468 1485
-64 30 -117 58 -117 61 0 4 280 136 623 294 342 158 647 300 677 315 l55 28
-35 15 c-19 8 -167 76 -328 151 l-294 136 -889 -412 -889 -412 0 -935 c0 -641
4 -948 11 -975 6 -22 29 -58 52 -82 36 -37 443 -343 1905 -1433 150 -112 275
-201 278 -199 10 11 -38 244 -72 350 -76 238 -203 452 -377 634 -89 95 -172
160 -674 536 l-573 428 0 575 c0 484 2 575 14 575 26 0 240 -78 353 -129 522
-233 943 -634 1197 -1140 172 -341 271 -718 311 -1181 35 -397 66 -708 77
-754 14 -62 72 -128 134 -152 105 -40 226 7 276 106 25 51 29 79 57 375 17
176 35 376 41 445 92 1063 578 1841 1411 2254 138 69 355 155 427 171 l32 7 0
-579 -1 -578 -552 -410 c-453 -337 -571 -430 -662 -520 -218 -217 -366 -479
-439 -775 -27 -113 -47 -240 -36 -240 4 0 499 368 1100 818 921 688 1097 823
1114 857 21 40 21 50 24 996 l2 956 -112 52 c-760 355 -5003 2317 -5032 2327
-48 17 -89 17 -143 -2z"/>
<path d="M18820 17887 c-64 -28 -2064 -953 -2098 -971 -21 -11 5 -25 305 -164
l328 -152 604 280 c333 154 608 280 613 280 4 0 9 -255 10 -566 l3 -565 269
-125 c147 -68 270 -124 272 -124 2 0 4 440 4 979 l0 979 -28 53 c-54 104 -171
144 -282 96z"/>
<path d="M7603 10910 c-51 -12 -96 -43 -128 -89 l-30 -43 -3 -169 -3 -169
1128 2 1128 3 0 235 0 235 -1030 2 c-566 0 -1044 -2 -1062 -7z"/>
<path d="M10057 10914 c-4 -4 -7 -388 -7 -854 0 -958 -3 -917 74 -988 24 -22
61 -45 82 -51 56 -16 1903 -15 1955 0 52 16 108 64 130 113 18 39 19 86 19
914 l0 872 -235 0 -235 0 0 -715 0 -715 -655 0 -655 0 -2 713 -3 712 -231 3
c-127 1 -233 -1 -237 -4z"/>
<path d="M12823 10906 c-62 -20 -99 -51 -127 -108 -25 -49 -26 -60 -26 -205
l0 -153 1130 0 1130 0 -2 238 -3 237 -1030 2 c-823 1 -1038 -1 -1072 -11z"/>
<path d="M15290 10403 l0 -520 23 -44 c13 -24 43 -57 66 -74 l43 -30 379 -3
379 -3 0 -359 0 -360 235 0 235 0 0 360 0 360 365 0 c307 0 372 2 403 15 47
20 78 50 105 100 22 39 22 47 22 555 l0 515 -130 3 c-199 4 -271 -23 -320
-121 -25 -51 -25 -52 -25 -324 l0 -273 -655 0 -654 0 -3 289 -3 289 -30 44
c-17 23 -51 54 -75 68 -42 23 -57 25 -202 28 l-158 4 0 -519z"/>
<path d="M18051 10905 c-24 -8 -61 -31 -83 -52 -55 -54 -68 -106 -68 -275 l0
-138 1130 0 1130 0 0 240 0 240 -1032 -1 c-845 0 -1041 -3 -1077 -14z"/>
<path d="M20667 10904 c-62 -19 -119 -76 -136 -135 -9 -33 -11 -234 -9 -831
l3 -786 30 -44 c17 -23 51 -54 75 -68 l45 -25 975 0 975 0 47 28 c31 18 57 44
75 75 l28 47 3 778 c2 537 -1 791 -8 818 -17 60 -81 126 -143 144 -75 22
-1887 21 -1960 -1z m1633 -939 l0 -475 -650 0 -650 0 0 475 0 475 650 0 650 0
0 -475z"/>
<path d="M23064 10904 c3 -9 130 -222 281 -474 151 -252 275 -461 275 -464 0
-4 -128 -218 -285 -475 -157 -258 -285 -472 -285 -475 0 -3 119 -6 264 -6
l264 0 233 360 233 360 267 0 267 0 183 -287 c100 -159 205 -321 231 -360 l49
-73 265 0 c231 0 265 2 260 15 -3 8 -131 223 -284 477 l-279 463 284 470 c156
258 283 473 283 477 0 4 -116 8 -259 8 -200 0 -261 -3 -269 -13 -6 -7 -112
-168 -236 -358 l-224 -344 -269 -3 -268 -2 -231 357 -232 358 -262 3 c-238 2
-262 1 -256 -14z"/>
<path d="M7440 9605 l0 -595 235 0 235 0 0 360 0 360 810 0 c877 0 850 -2 908
53 56 52 66 90 70 260 l4 157 -1131 0 -1131 0 0 -595z"/>
<path d="M12670 10048 c0 -128 4 -160 19 -193 22 -47 74 -99 114 -114 19 -8
291 -11 838 -11 l809 0 0 -120 0 -120 -890 0 -890 0 0 -240 0 -240 1053 2
1052 3 42 22 c47 25 84 71 102 122 15 45 15 840 0 894 -13 49 -63 105 -114
128 -38 18 -96 19 -1087 19 l-1048 0 0 -152z"/>
<path d="M17900 9605 l0 -595 240 0 240 0 0 360 0 360 812 0 c798 0 812 0 854
21 43 20 80 61 102 112 8 18 12 83 12 182 l0 155 -1130 0 -1130 0 0 -595z"/>
<path d="M11889 8295 c-86 -28 -141 -122 -120 -202 21 -76 62 -107 181 -138
96 -25 120 -40 120 -75 0 -37 -23 -50 -90 -50 -51 0 -93 16 -140 52 l-25 20
-38 -44 -38 -43 38 -33 c42 -37 143 -72 207 -72 95 0 167 38 197 104 34 76 18
153 -43 199 -18 14 -73 37 -123 52 -92 26 -125 46 -125 75 0 56 94 67 178 21
l52 -29 30 43 c17 24 30 48 30 54 0 5 -28 24 -62 40 -77 38 -162 47 -229 26z"/>
<path d="M12791 8296 c-79 -26 -123 -86 -123 -167 0 -94 44 -135 191 -176 100
-29 111 -36 111 -74 0 -36 -24 -49 -90 -49 -51 0 -93 16 -140 52 l-25 20 -38
-44 -38 -43 38 -33 c23 -20 64 -41 106 -54 189 -57 342 41 312 199 -11 62 -65
104 -176 137 -127 38 -157 68 -109 111 29 26 116 17 169 -18 l40 -26 30 41
c17 23 31 48 31 54 0 7 -28 27 -62 43 -76 37 -163 48 -227 27z"/>
<path d="M14403 8292 c-217 -77 -272 -354 -101 -507 146 -132 388 -84 475 93
36 73 39 181 6 253 -64 142 -233 214 -380 161z m201 -136 c135 -103 67 -326
-99 -326 -149 0 -226 184 -128 301 37 44 78 60 140 56 37 -3 61 -11 87 -31z"/>
<path d="M17915 8297 c-67 -23 -101 -44 -143 -92 -134 -152 -74 -404 113 -474
113 -42 245 -18 325 60 151 146 112 399 -75 489 -57 28 -162 36 -220 17z m170
-130 c60 -34 87 -87 83 -168 -6 -113 -71 -175 -178 -167 -69 5 -110 32 -139
91 -79 163 82 330 234 244z"/>
<path d="M22471 8296 c-90 -30 -144 -119 -122 -202 21 -77 61 -108 181 -139
96 -25 120 -40 120 -75 0 -38 -23 -50 -92 -50 -44 0 -65 7 -111 34 l-57 34
-36 -44 -36 -44 23 -20 c13 -11 49 -32 79 -47 46 -23 68 -27 140 -28 73 0 92
4 130 25 78 44 111 143 72 220 -27 54 -82 84 -219 120 -48 12 -73 33 -73 60 0
57 92 68 178 21 l52 -29 30 43 c17 24 30 48 30 54 0 5 -28 24 -62 40 -76 38
-163 48 -227 27z"/>
<path d="M10050 8010 l0 -290 65 0 65 0 2 177 3 176 74 -111 c40 -62 77 -112
81 -112 4 0 41 50 81 112 l74 111 3 -176 2 -177 65 0 65 0 0 290 0 291 -66 -3
-67 -3 -73 -115 c-41 -63 -78 -115 -83 -115 -6 0 -43 52 -84 115 l-74 115 -66
3 -67 3 0 -291z"/>
<path d="M11140 8010 l0 -290 65 0 65 0 0 290 0 290 -65 0 -65 0 0 -290z"/>
<path d="M13590 8010 l0 -290 60 0 60 0 0 290 0 290 -60 0 -60 0 0 -290z"/>
<path d="M15290 8010 l0 -290 65 0 65 0 2 177 3 176 135 -176 135 -176 53 -1
52 0 0 290 0 290 -60 0 -60 0 -2 -176 -3 -177 -135 176 -135 176 -57 1 -58 0
0 -290z"/>
<path d="M16780 8240 l0 -60 85 0 85 0 0 -230 0 -230 65 0 65 0 0 230 0 230
85 0 85 0 0 60 0 60 -235 0 -235 0 0 -60z"/>
<path d="M19290 8010 l0 -290 65 0 65 0 2 177 3 176 74 -111 c40 -62 77 -112
81 -112 4 0 41 50 81 112 l74 111 3 -176 2 -177 65 0 65 0 0 290 0 291 -67 -3
-66 -3 -74 -115 c-41 -63 -78 -115 -84 -115 -5 0 -42 52 -83 115 l-73 115 -67
3 -66 3 0 -291z"/>
<path d="M20447 8013 l-125 -288 60 -3 c34 -2 64 1 68 5 5 4 45 97 91 205 45
108 85 195 88 193 4 -2 44 -94 91 -204 l84 -201 67 0 67 0 -94 218 c-53 119
-109 250 -126 290 l-31 72 -57 0 -57 0 -126 -287z"/>
<path d="M21390 8011 l0 -291 65 0 65 0 0 95 0 95 49 0 49 0 68 -95 67 -95 74
0 c57 0 72 3 67 13 -5 6 -38 54 -76 106 l-68 95 31 14 c17 9 42 31 57 50 24
31 27 44 27 111 0 90 -20 127 -88 164 -38 20 -59 22 -214 25 l-173 4 0 -291z
m331 150 c17 -13 23 -29 23 -56 0 -60 -27 -75 -135 -75 l-89 0 0 75 0 75 89 0
c72 0 93 -4 112 -19z"/>
</g>
</svg>
