<?xml version="1.0" encoding="UTF-8"?>
<svg id="svg" xmlns="http://www.w3.org/2000/svg" version="1.1" viewBox="0 0 400 400">
  <defs>
    <style>
      .cls-1 {
        fill: #33cc56;
      }

      .cls-1, .cls-2, .cls-3, .cls-4 {
        fill-rule: evenodd;
        stroke-width: 0px;
      }

      .cls-2 {
        fill: #5a5a5a;
      }

      .cls-3 {
        fill: #5835f6;
      }

      .cls-4 {
        fill: #f7f7f7;
      }
    </style>
  </defs>
  <g id="svgg">
    <path id="path0" class="cls-4" d="M138.05,223.64c-13.38,1.86-15.2,23.7-2.31,27.74,7.36,2.31,15.45-1.45,16.52-7.68l.12-.73h-5.45l-.23.76c-1.25,4.18-8.51,5.21-11.96,1.71-2.8-2.85-3.49-9.19-1.43-13.24,2.72-5.37,10.93-5.68,13.18-.51l.48,1.11h2.68c3.05,0,2.9.13,2.28-1.77-1.74-5.34-7.31-8.31-13.88-7.4M167.58,223.62c-8.58,1.23-13.56,9.94-10.94,19.15,2.51,8.81,13.82,12.52,19.63,6.43,1.21-1.27,1.19-1.28,1.37.85l.13,1.51h4.65v-15.04h-12.12l.06,1.81.06,1.81,3.49.05,3.49.05-.14.72c-1.73,9.24-14.36,8.93-15.93-.4-.81-4.79.74-9.44,3.72-11.23,3.9-2.33,9.75-1.13,10.98,2.25l.23.64h5.59l-.12-.54c-1.21-5.4-7.54-9.02-14.15-8.07M104.1,225.98v1.95h8.01v23.63h4.88l.05-11.77.05-11.77,4.05-.05,4.05-.05v-3.9h-21.09v1.95M175.89,267.13c-.24,2.28-.18,2.2-1.49,2.2h-1.15v2.73h2.34v5.32l1.26,1.92c1.84,2.81,1.72,2.73,3.92,2.73h1.86v-2.73h-1.32c-2.2,0-2.19.02-2.19-3.92v-3.31h3.51v-2.73h-3.5l-.06-1.71-.06-1.71-1.49-.06-1.49-.06-.14,1.33M139.28,269.15c-.93.19-1.58.55-2.41,1.32-.56.52-.58.51-.82-.59-.12-.53-.14-.54-1.58-.54h-1.46v12.7h3.29l.07-3.96c.08-4.75.42-5.66,2.31-6.2,2.81-.81,3.71.81,3.71,6.65v3.51h3.29l.06-4.05c.08-5.22.56-6.17,3.14-6.18,2.27,0,2.68.95,2.68,6.18v4.05h3.56l-.09-4.44c-.1-4.8-.23-5.5-1.25-6.85-1.68-2.21-6.49-2.23-8.33-.04l-.47.56-.66-.69c-1.17-1.23-3.17-1.79-5.03-1.42M163.41,269.14c-6.96,1.22-7.43,11.04-.62,12.99,3.35.96,8.31-1.37,8.31-3.91,0-.42-3.39-.07-3.75.39-1.6,2.03-5.43,1.1-5.94-1.44l-.12-.62h10.2v-1.32c-.03-4.14-3.65-6.87-8.08-6.1M190.4,269.14c-2.43.43-4.11,1.78-4.67,3.75l-.16.55h1.7c1.55,0,1.71-.04,1.89-.42,1.04-2.29,5.37-1.48,5.37,1v.6h-2.4c-4.68,0-6.78,1.23-6.78,3.96,0,3.68,5.51,5.31,8.44,2.48q1.02-.98,1.18.39c.05.47.12.49,1.59.55l1.53.06-.07-4.55c-.08-5.09-.17-5.51-1.48-6.85-1.21-1.24-3.91-1.91-6.13-1.52M218.79,269.16c-6.39,1.06-7.57,9.92-1.68,12.61,3.28,1.5,7.32.3,8.93-2.65l.54-1h-1.77c-1.65,0-1.79.03-2.07.47-1.35,2.07-5.22,1.21-5.91-1.31l-.2-.72,5.11-.05,5.11-.05v-1.37c-.04-3.05-2.08-5.35-5.27-5.94-1.28-.24-1.34-.24-2.79,0M236.94,269.15c-1.11.22-2.4.98-3.12,1.86l-.58.7-.14-1.19-.14-1.19h-3.09v12.7h3.49l.06-3.8c.08-4.88.46-5.51,3.49-5.73l1.35-.1v-1.73c0-1.27-.07-1.73-.24-1.71-.13.01-.63.1-1.09.19M244.31,269.14c-3.34.6-5.02,3.78-3.07,5.8.72.75,1.9,1.23,4.44,1.83,2.03.48,2.61.84,2.61,1.66,0,1.79-3.74,2.04-4.63.31-.37-.71-3.62-.98-3.62-.3,0,4.58,10.05,5.42,11.53.96.83-2.53-.42-3.88-4.61-4.93-2.49-.63-3.2-1.01-3.2-1.7,0-1.38,3.18-1.67,4.03-.37.39.59,3.39.74,3.39.17,0-2.21-3.6-4-6.86-3.42M259.96,269.13c-8.1,1.46-6.88,13.29,1.37,13.29,2.69,0,6.25-2.3,6.25-4.02,0-.71-3.13-.34-3.96.46-1.52,1.49-4.56.92-5.44-1.01-.62-1.36-.89-1.29,4.7-1.29h5.07l.13-.67c.74-3.92-3.64-7.57-8.12-6.76M200.2,275.68v6.35h3.3l5.01-6.01c2.76-3.3,5.15-6.16,5.31-6.35.28-.32.18-.34-1.74-.34h-2.03s-3.22,4.09-3.22,4.09c-3.18,4.03-3.54,4.44-3.41,3.76.04-.19.12-2.03.17-4.1l.1-3.76h-3.51v6.35M166.74,272.19c.62.46,1.15,1.17,1.32,1.78l.13.44h-6.87l.3-.72c.78-1.86,3.54-2.68,5.12-1.5M221.87,272.02c.74.37,1.57,1.45,1.57,2.03,0,.34-.22.36-3.32.36q-3.67,0-2.88-1.19c.95-1.41,3.1-1.97,4.63-1.2M263.06,272.06c.79.4,1.29,1.02,1.5,1.85l.13.51h-3.34c-3.72,0-3.73,0-2.95-1.28.82-1.33,3.12-1.86,4.66-1.08M194.27,277.26c-.36,2.24-3.6,3.52-4.96,1.95-1.35-1.57-.1-2.58,3.24-2.62l1.83-.03-.11.7"/>
    <path id="path1" class="cls-1" d="M202.31,96.1c-20.63,3.48-23.26,42.61-4.75,70.6,19.4,29.33,45.9,22.56,45.88-11.72-.02-30.41-22.15-62.09-41.13-58.88M208.62,100.61c21.17,5.87,37.74,47.73,27.92,70.51-10.87,25.21-43.01-1.33-46.98-38.81-2.22-20.92,6.38-35.22,19.06-31.71M266.41,237.5v14.06h4.88v-28.12h-4.88v14.06M291.41,229.14v5.71l-.93-.89c-4.66-4.45-12.65-1.77-14.41,4.82-2.52,9.47,7.56,17.43,14.2,11.2.56-.53,1.04-.96,1.06-.96s.14.57.27,1.27l.24,1.27h4.25v-28.12h-4.69v5.71M191.33,229.05c.69,2.66,2.27,8.81,3.53,13.67l2.28,8.84h5.78l.17-.64c.09-.35,1.3-4.87,2.69-10.05,1.39-5.18,2.58-9.31,2.65-9.18.07.13,1.15,4.19,2.41,9.02,1.26,4.83,2.42,9.25,2.58,9.81l.29,1.03h5.76l3.55-13.43c1.95-7.38,3.55-13.54,3.55-13.67,0-.18-.64-.24-2.53-.24h-2.53l-.17.64c-.09.35-1.17,5.22-2.4,10.82-1.23,5.6-2.3,10.08-2.37,9.95-.08-.13-1.24-4.68-2.6-10.09-1.35-5.42-2.55-10.18-2.65-10.58l-.19-.73h-2.62c-1.44,0-2.66.07-2.71.15-.05.08-1.33,4.93-2.85,10.78-1.52,5.85-2.79,10.66-2.82,10.7-.03.03-1.01-4.22-2.16-9.46-1.15-5.24-2.23-10.12-2.39-10.84l-.3-1.32h-5.19l1.25,4.83M234.38,232.2c-9.78,3.16-8.82,18.19,1.27,19.76,7.04,1.1,12.66-5.36,10.95-12.59-1.31-5.56-6.96-8.87-12.22-7.17M260.52,232.14c-1.23.38-2.64,1.38-3.62,2.58l-.81.99-.11-.62c-.06-.34-.16-1.12-.24-1.74l-.13-1.12h-4.25v19.34h4.65l.09-5.32c.13-7.76.74-8.84,5.13-9.12l1.76-.11.05-2.59.05-2.59h-.83c-.46.02-1.24.15-1.74.31M239.24,236.65c3.72,1.85,3.67,8.72-.08,10.67-2.84,1.48-5.97-.45-6.54-4.04-.81-5.04,2.72-8.57,6.62-6.63M288.4,236.68c5.13,2.63,3.34,10.99-2.34,10.97-3.39,0-5.3-2.08-5.3-5.76,0-4.48,3.9-7.14,7.64-5.22"/>
    <path id="path3" class="cls-3" d="M185.19,102.65c-16.59,5.59-19.74,36.59-6.38,62.87,10.06,19.8,25.87,29.85,37.61,23.92,1.44-.73,1.44-.82.04-1.25-.62-.19-1.74-.63-2.49-.97-1.14-.52-1.48-.6-2.05-.46-10.57,2.62-25.24-10.91-32.48-29.93-7.55-19.87-6.05-41.22,3.41-48.33,1.08-.81,1.28-1.07,2.01-2.7.45-.99,1.06-2.18,1.35-2.65q.68-1.07-1.02-.5M199.97,106.01c-.9.73-2.04,1.96-1.9,2.07.04.03.65.4,1.34.81,18.37,10.89,30.42,45.15,23.27,66.14l-.58,1.69.93.13c2.6.36,3.53-.19,4.18-2.49,6.29-22.37-5.62-55.71-24.37-68.19-1.63-1.09-1.72-1.09-2.87-.17M169.73,109.24c-18.77,8.2-17.49,49.08,2.32,73.96,9.61,12.07,21.61,16.92,30.35,12.26,1.31-.7,1.29-.74-.54-1.33-.75-.24-1.85-.65-2.44-.91-1.01-.44-1.15-.46-2.43-.24-8.44,1.42-19.25-6.65-27.06-20.22-11.69-20.29-12.69-47.62-2.11-57.42,1.13-1.04,1.44-1.48,2.03-2.87.38-.9.96-2.09,1.27-2.64.87-1.52.8-1.55-1.38-.6M194.16,117.77c-.12.59-.3,1.73-.4,2.54-.21,1.65-.44,1.17,2.05,4.2,8.72,10.62,14.57,27.16,14.82,41.89l.06,3.41,1.06.99c.58.54,1.42,1.27,1.87,1.62l.81.64.14-1.08c.23-1.84-.03-10.92-.39-13.48-2.19-15.68-8.63-29.74-18.52-40.43l-1.26-1.37-.22,1.07"/>
    <path id="path4" class="cls-2" d="M220.9,108.5c.69.7,1.3,1.27,1.36,1.27s-.47-.57-1.16-1.27c-.69-.7-1.3-1.27-1.36-1.27s.47.57,1.16,1.27M181.34,109.81l-.77.83.83-.77c.46-.42.83-.8.83-.83,0-.15-.17,0-.89.77M209.17,111.38c.81.86.98,1.02.98.87,0-.03-.42-.45-.93-.93l-.93-.87.87.93M185.01,126.07c0,.43.04.58.09.34.05-.24.04-.6,0-.78-.05-.19-.09.01-.09.44M170.38,132.03c0,.7.04.98.08.63.04-.35.04-.92,0-1.27-.04-.35-.08-.06-.08.64M156.31,135.65c0,.54.04.73.08.44.04-.3.04-.74,0-.98-.05-.24-.08,0-.08.54M160.43,137.99c0,1.18.03,1.64.07,1.02.04-.62.04-1.59,0-2.15-.04-.56-.07-.05-.07,1.13M156.31,140.33c0,.65.04.88.08.53.04-.35.04-.88,0-1.17-.04-.29-.08,0-.08.64M224.65,158.79c0,.38.04.53.09.34s.05-.5,0-.68c-.05-.19-.09-.03-.09.34M224.66,163.38c0,.43.04.58.09.34.05-.24.04-.59,0-.78-.05-.19-.09.01-.09.44M214.73,167.09c0,1.61.03,2.24.07,1.41.04-.84.04-2.16,0-2.93s-.07-.09-.07,1.52M210.61,167.09c0,.86.04,1.19.08.73s.04-1.16,0-1.56c-.04-.4-.08-.03-.07.83M207.62,172.75c.69.7,1.3,1.27,1.36,1.27s-.47-.57-1.16-1.27c-.69-.7-1.3-1.27-1.36-1.27s.47.57,1.16,1.27M178.81,184.77c.53.54,1,.98,1.06.98s-.33-.44-.86-.98c-.53-.54-1.01-.98-1.06-.98s.34.44.87.98M223.49,185.29c.19.05.5.05.68,0s.03-.09-.34-.09-.53.04-.34.09M175.88,187.7c.64.64,1.2,1.17,1.26,1.17s-.42-.53-1.06-1.17c-.64-.64-1.2-1.17-1.26-1.17s.42.53,1.06,1.17M208.74,187.05c.24.05.64.05.88,0,.24-.05.04-.09-.44-.09s-.68.04-.44.09M194.38,193.11c.4.04,1.06.04,1.47,0,.4-.04.07-.08-.73-.08s-1.14.04-.73.08M138.33,223.57c.19.05.5.05.68,0,.19-.05.03-.09-.34-.09s-.53.04-.34.09M291.3,229.1c0,3.17.03,4.46.06,2.88.03-1.58.03-4.18,0-5.76-.03-1.58-.06-.29-.06,2.88M296.19,237.5c0,7.79.02,10.97.05,7.08.03-3.89.03-10.27,0-14.16-.03-3.89-.05-.71-.05,7.08M109.33,223.97c2.93.03,7.72.03,10.65,0,2.93-.03.53-.05-5.32-.05s-8.25.02-5.32.05M130.95,227l-.77.83.83-.77c.77-.72.92-.89.77-.89-.03,0-.41.37-.83.83M148.83,226.23s.29.32.63.63l.64.57-.57-.63c-.54-.59-.7-.73-.7-.57M178.91,226.85c.36.38.71.68.76.68s-.2-.31-.56-.68c-.37-.38-.71-.68-.76-.68s.2.31.57.68M106.11,228.08c1.16.03,3.01.03,4.1,0,1.09-.03.14-.06-2.11-.06-2.26,0-3.15.03-1.99.06M117.12,228.06c-.07.07-.13,5.39-.13,11.81v11.68l-2.49.06-2.49.06,2.59.04,2.59.04v-23.62l4.05-.06,4.05-.06-4.02-.04c-2.21-.02-4.08.01-4.15.09M163.76,230.32l-.57.63.63-.57c.35-.32.64-.6.64-.63,0-.15-.16-.02-.7.57M251.26,241.9c0,5.37.03,7.54.06,4.82.03-2.72.03-7.11,0-9.77-.03-2.65-.06-.43-.06,4.95M149.61,232.81l-2.83.11,2.88.04c1.82.03,2.88-.03,2.88-.15,0-.11-.02-.18-.05-.15-.03.02-1.32.09-2.88.15M127.01,236.33c0,.48.04.68.09.44.05-.24.05-.64,0-.88-.05-.24-.09-.04-.09.44M173.29,236.47c1.69.03,4.46.03,6.15,0,1.69-.03.31-.06-3.08-.06s-4.77.03-3.08.06M155.92,237.89c0,.7.04.98.08.63.04-.35.04-.92,0-1.27-.04-.35-.08-.06-.08.64M132.08,237.79c0,.43.04.58.09.34.05-.24.04-.59,0-.78-.05-.19-.09.01-.08.44M127.01,239.26c0,.48.04.68.09.44.05-.24.05-.64,0-.88-.05-.24-.09-.04-.09.44M232.47,241.9c0,.43.04.58.09.34.05-.24.04-.59,0-.78s-.09.01-.09.44M256.14,246.88c0,2.63.03,3.71.06,2.39.03-1.32.03-3.47,0-4.79-.03-1.31-.06-.24-.06,2.39M139.99,247.6c.24.05.59.04.78,0,.19-.05-.01-.09-.44-.09-.43,0-.58.04-.34.09M168.7,247.6c.35.04.96.04,1.37,0,.4-.04.12-.08-.63-.08-.75,0-1.08.03-.74.08M130.85,248.49c.81.86.99,1.02.99.87,0-.03-.42-.45-.93-.93l-.93-.87.87.93M159.76,248.49c.81.86.99,1.02.99.87,0-.03-.42-.45-.93-.93l-.93-.87.87.93M177.32,248.68c.09.54.12.57.18.18.04-.25,0-.54-.11-.64-.11-.11-.14.07-.07.46M176.07,249.46l-.77.83.83-.77c.46-.43.83-.8.83-.83,0-.15-.17,0-.89.77M178.86,251.71c.67.04,1.77.04,2.44,0,.67-.04.12-.07-1.22-.07s-1.89.03-1.22.07M138.62,252.09c.24.05.6.04.78,0,.19-.05-.01-.09-.44-.09-.43,0-.58.04-.34.09M141.36,252.09c.24.05.59.04.78,0,.19-.05-.01-.09-.44-.09-.43,0-.58.04-.34.09M167.24,252.09c.19.05.5.05.68,0s.03-.09-.34-.09-.53.04-.34.09M169.88,252.09c.24.05.6.04.78,0,.19-.05-.01-.09-.44-.09-.43,0-.58.04-.34.09M132.91,275.68v6.45s1.81.06,1.81.06l1.81.06-.04-3.77-.04-3.77-.06,3.66-.06,3.66h-3.31l-.06-6.4-.06-6.4v6.45M182.68,270.7c0,.81.03,1.14.08.73.04-.4.04-1.06,0-1.46-.04-.4-.08-.07-.08.73M200.05,275.73l-.05,6.49h1.73c1.55,0,1.76-.04,2.1-.44q.37-.44-.03-.1c-.31.27-.77.34-2,.34h-1.59l-.06-6.4-.05-6.4-.05,6.49M143.55,269.79s.29.32.63.63l.64.57-.57-.64c-.54-.59-.7-.72-.7-.57M136.81,270.32c-.27.3-.39.34-.51.15-.11-.18-.16-.18-.16-.02,0,.45.34.43.78-.04.25-.26.41-.48.35-.48s-.26.18-.46.39M196.09,270.18s.29.32.64.63l.63.57-.57-.63c-.53-.59-.7-.73-.7-.57M224.61,270.37s.29.32.64.63l.63.57-.57-.64c-.53-.59-.7-.72-.7-.57M245.46,271.62c.24.05.6.04.78,0,.19-.05-.01-.09-.44-.08-.43,0-.58.04-.34.09M203.58,273.14c0,.86.04,1.19.08.73.04-.46.04-1.16,0-1.56-.04-.4-.08-.02-.08.84M251.17,272.67c0,.14-.56.19-1.64.15-.9-.03-1.6,0-1.55.08.19.31,3.39.17,3.39-.15,0-.16-.04-.29-.1-.29s-.1.09-.1.21M186.38,273.58c.51.04,1.35.04,1.85,0,.51-.04.09-.07-.93-.07s-1.44.03-.93.07M171.55,275.39c0,.7.04.98.08.63.04-.35.04-.92,0-1.27-.04-.35-.08-.06-.08.63M191.46,274.56c.62.04,1.59.04,2.15,0,.56-.04.05-.07-1.13-.07-1.18,0-1.64.03-1.02.07M142.23,278.37l-.04,3.86,1.81-.04,1.81-.04-1.71-.07-1.7-.07-.06-3.75-.06-3.75-.04,3.86M157.88,275.78c0,.7.04.98.08.63.04-.35.04-.92,0-1.27-.04-.35-.08-.06-.08.64M254.35,275.78c0,.48.04.68.08.44.05-.24.05-.64,0-.88-.05-.24-.08-.04-.08.44M191.56,276.71c.57.04,1.45.04,1.95,0,.51-.04.04-.07-1.03-.07-1.07,0-1.49.03-.92.07M185.21,278.61c0,.43.04.58.09.34.05-.24.04-.6,0-.78-.05-.19-.09.01-.08.44M239.87,278.37c.02.35.04.37.12.08.08-.32.28-.35,1.82-.29.95.04,1.68,0,1.63-.08-.26-.43-3.58-.15-3.56.29M255.66,279.94s.29.32.64.64l.63.57-.57-.63c-.53-.59-.7-.73-.7-.57M193.84,281.1l-.57.63.63-.57c.35-.32.64-.6.64-.64,0-.15-.16-.02-.7.57M194.92,282.08c0,.08.73.13,1.61.12,1.66-.03,1.47-.11-.49-.21-.62-.03-1.12.01-1.12.09M152.39,282.17c.51.04,1.35.04,1.85,0,.51-.04.09-.07-.93-.07s-1.44.03-.93.07M179.93,282.17c.51.04,1.34.04,1.85,0,.51-.04.09-.07-.93-.07s-1.44.03-.93.07M230.71,282.17c.51.04,1.35.04,1.85,0,.51-.04.09-.07-.93-.07s-1.44.03-.93.07"/>
  </g>
</svg>