<svg width="178" height="43" viewBox="0 0 178 43" fill="none" xmlns="http://www.w3.org/2000/svg">
<path d="M96.3696 2.69601C96.0465 2.48081 95.7093 2.27927 95.3581 2.09141C93.4692 1.05912 91.3497 0.542969 88.9996 0.542969C86.6495 0.542969 84.53 1.05912 82.6411 2.09141C80.7522 3.10174 79.2697 4.5184 78.1934 6.34139C77.1172 8.14241 76.5791 10.1631 76.5791 12.4034C76.5791 14.6437 77.1172 16.6753 78.1934 18.4983C78.2965 18.6708 78.4033 18.8398 78.5139 19.0053L81.6961 16.0986C81.162 14.9754 80.895 13.7436 80.895 12.4034C80.895 10.8659 81.2464 9.48219 81.9492 8.25223C82.6521 7.0003 83.6185 6.03389 84.8484 5.35302C86.0784 4.65018 87.4621 4.29876 88.9996 4.29876C90.537 4.29876 91.9208 4.65018 93.1507 5.35302C93.215 5.38858 93.2785 5.42492 93.3413 5.46204L96.3696 2.69601Z" fill="#262626"/>
<path d="M96.1648 8.46055L99.3274 5.57187C99.4949 5.80957 99.6543 6.05509 99.8057 6.30844C100.882 8.10946 101.42 10.1411 101.42 12.4034C101.42 14.6656 100.882 16.6973 99.8057 18.4983C98.7295 20.2993 97.2469 21.716 95.3581 22.7483C93.4692 23.7586 91.3497 24.2638 88.9996 24.2638C86.6495 24.2638 84.53 23.7586 82.6411 22.7483C82.1997 22.507 81.7805 22.2448 81.3835 21.9617L84.3971 19.2091C84.5434 19.3058 84.6938 19.3983 84.8484 19.4867C86.0784 20.1675 87.4621 20.508 88.9996 20.508C90.537 20.508 91.9208 20.1675 93.1507 19.4867C94.3807 18.7838 95.3471 17.8174 96.0499 16.5875C96.7528 15.3355 97.1042 13.9408 97.1042 12.4034C97.1042 10.9521 96.7911 9.63783 96.1648 8.46055Z" fill="#262626"/>
<path d="M0 8.48851L9.9934 19.4693L12.5522 22.2871L21.151 12.7658L21.184 23.9343H25.2363L25.2033 0.872424L21.7228 5.05191L12.684 16.1592L3.48638 5.04202L0 0.872424V8.48851Z" fill="#262626"/>
<path d="M134.147 19.468L136.708 22.2871L145.306 12.7658L145.339 23.9343H149.392L149.359 0.872444L145.878 5.05193L136.839 16.1592L127.642 5.04204L124.155 0.872444V8.49154L134.147 19.468Z" fill="#262626"/>
<path d="M49.5856 4.99062L53.8685 0.872424V23.9343H49.5856V4.99062Z" fill="#262626"/>
<path d="M173.666 4.99062L177.948 0.872424V23.9343H173.666V4.99062Z" fill="#262626"/>
<g opacity="0.5">
<path d="M10.7209 40.123V41.8444H14.6258V42.8772H9.57031V36.5352H14.5352V37.5681H10.7209V39.0901H14.1366V40.123H10.7209Z" fill="black"/>
<path d="M20.0815 42.9769C19.5741 42.9769 19.0909 42.8953 18.6319 42.7323C18.1729 42.5692 17.7712 42.3487 17.4269 42.0709L17.9615 41.1739C18.6802 41.6692 19.4111 41.9169 20.154 41.9169C20.5405 41.9169 20.8395 41.8474 21.0509 41.7085C21.2623 41.5696 21.368 41.3914 21.368 41.1739C21.368 40.9988 21.3197 40.8568 21.2231 40.7481C21.1264 40.6394 20.9784 40.5488 20.7791 40.4763C20.5858 40.4038 20.308 40.3283 19.9456 40.2498C19.1725 40.0867 18.5896 39.8512 18.197 39.5431C17.8044 39.2351 17.6081 38.8123 17.6081 38.2747C17.6081 37.8882 17.7138 37.556 17.9252 37.2781C18.1427 37.0003 18.4356 36.7919 18.804 36.653C19.1725 36.508 19.5923 36.4355 20.0634 36.4355C20.5043 36.4355 20.912 36.499 21.2865 36.6258C21.661 36.7466 22.0234 36.9338 22.3737 37.1875L21.7485 38.0392C21.519 37.8761 21.2502 37.7462 20.9422 37.6496C20.6402 37.5469 20.3261 37.4956 20 37.4956C19.2268 37.4956 18.8403 37.7583 18.8403 38.2838C18.8403 38.5133 18.946 38.6975 19.1574 38.8365C19.3748 38.9754 19.7433 39.1022 20.2627 39.217C20.8123 39.3378 21.2533 39.4707 21.5855 39.6156C21.9237 39.7606 22.1774 39.9508 22.3465 40.1864C22.5156 40.422 22.6002 40.7209 22.6002 41.0833C22.6002 41.4699 22.4915 41.8051 22.274 42.089C22.0626 42.3729 21.7667 42.5933 21.3861 42.7504C21.0056 42.9014 20.5707 42.9769 20.0815 42.9769Z" fill="black"/>
<path d="M28.312 36.5352C28.8677 36.5352 29.3509 36.6258 29.7616 36.807C30.1723 36.9822 30.4864 37.2358 30.7038 37.5681C30.9213 37.9003 31.03 38.2929 31.03 38.7459C31.03 39.2049 30.9182 39.6035 30.6948 39.9418C30.4773 40.274 30.1632 40.5307 29.7525 40.7119C29.3418 40.887 28.8556 40.9746 28.2938 40.9746H26.953V42.8772H25.7842V36.5352H28.312ZM28.2757 39.9418C28.7831 39.9418 29.1727 39.8451 29.4445 39.6519C29.7223 39.4525 29.8612 39.1505 29.8612 38.7459C29.8612 38.3533 29.7223 38.0603 29.4445 37.867C29.1727 37.6677 28.7861 37.5681 28.2848 37.5681H26.953V39.9418H28.2757Z" fill="black"/>
<path d="M37.2545 42.9769C36.6143 42.9769 36.0374 42.838 35.524 42.5601C35.0167 42.2762 34.618 41.8867 34.3281 41.3914C34.0382 40.8961 33.8932 40.3344 33.8932 39.7062C33.8932 39.0841 34.0382 38.5254 34.3281 38.0301C34.618 37.5288 35.0167 37.1392 35.524 36.8614C36.0374 36.5775 36.6173 36.4355 37.2636 36.4355C37.9038 36.4355 38.4776 36.5775 38.985 36.8614C39.4984 37.1392 39.9 37.5258 40.1899 38.0211C40.4799 38.5163 40.6248 39.0781 40.6248 39.7062C40.6248 40.3283 40.4799 40.8901 40.1899 41.3914C39.9 41.8867 39.4984 42.2762 38.985 42.5601C38.4776 42.838 37.9008 42.9769 37.2545 42.9769ZM37.2636 41.9169C37.6803 41.9169 38.0488 41.8263 38.3689 41.6451C38.689 41.4578 38.9397 41.1981 39.1209 40.8659C39.3021 40.5277 39.3927 40.1411 39.3927 39.7062C39.3927 39.2713 39.3021 38.8878 39.1209 38.5556C38.9397 38.2174 38.689 37.9576 38.3689 37.7764C38.0488 37.5892 37.6803 37.4956 37.2636 37.4956C36.8468 37.4956 36.4753 37.5892 36.1492 37.7764C35.8291 37.9576 35.5784 38.2174 35.3972 38.5556C35.216 38.8878 35.1254 39.2713 35.1254 39.7062C35.1254 40.1411 35.216 40.5277 35.3972 40.8659C35.5784 41.1981 35.8291 41.4578 36.1492 41.6451C36.4753 41.8263 36.8468 41.9169 37.2636 41.9169Z" fill="black"/>
<path d="M47.9479 42.8772L46.1631 40.7572H45.1665V42.8772H43.9977V36.5352H46.6161C47.4737 36.5352 48.1412 36.7224 48.6183 37.0969C49.0955 37.4654 49.3341 37.9848 49.3341 38.6553C49.3341 39.1868 49.18 39.6247 48.872 39.969C48.57 40.3132 48.1351 40.5458 47.5674 40.6666L49.4247 42.8772H47.9479ZM45.1665 37.5681V39.7334H46.5798C47.1053 39.7334 47.5009 39.6519 47.7667 39.4888C48.0324 39.3257 48.1653 39.0539 48.1653 38.6734C48.1653 37.9365 47.6398 37.5681 46.5889 37.5681H45.1665Z" fill="black"/>
<path d="M51.7997 36.5352H57.1361V37.5681H55.0523V42.8772H53.8745V37.5681H51.7997V36.5352Z" fill="black"/>
<path d="M62.2354 42.9769C61.728 42.9769 61.2448 42.8953 60.7858 42.7323C60.3268 42.5692 59.9251 42.3487 59.5808 42.0709L60.1154 41.1739C60.8341 41.6692 61.565 41.9169 62.3079 41.9169C62.6944 41.9169 62.9934 41.8474 63.2048 41.7085C63.4162 41.5696 63.5219 41.3914 63.5219 41.1739C63.5219 40.9988 63.4736 40.8568 63.377 40.7481C63.2803 40.6394 63.1323 40.5488 62.933 40.4763C62.7397 40.4038 62.4619 40.3283 62.0995 40.2498C61.3264 40.0867 60.7435 39.8512 60.3509 39.5431C59.9583 39.2351 59.762 38.8123 59.762 38.2747C59.762 37.8882 59.8677 37.556 60.0791 37.2781C60.2966 37.0003 60.5895 36.7919 60.9579 36.653C61.3264 36.508 61.7462 36.4355 62.2173 36.4355C62.6582 36.4355 63.0659 36.499 63.4404 36.6258C63.8149 36.7466 64.1773 36.9338 64.5276 37.1875L63.9024 38.0392C63.6729 37.8761 63.4041 37.7462 63.0961 37.6496C62.7941 37.5469 62.48 37.4956 62.1539 37.4956C61.3807 37.4956 60.9942 37.7583 60.9942 38.2838C60.9942 38.5133 61.0999 38.6975 61.3113 38.8365C61.5287 38.9754 61.8972 39.1022 62.4166 39.217C62.9662 39.3378 63.4072 39.4707 63.7394 39.6156C64.0776 39.7606 64.3313 39.9508 64.5004 40.1864C64.6695 40.422 64.7541 40.7209 64.7541 41.0833C64.7541 41.4699 64.6454 41.8051 64.4279 42.089C64.2165 42.3729 63.9206 42.5933 63.54 42.7504C63.1595 42.9014 62.7246 42.9769 62.2354 42.9769Z" fill="black"/>
<path d="M75.9047 42.9769C75.2645 42.9769 74.6877 42.838 74.1742 42.5601C73.6669 42.2762 73.2682 41.8867 72.9783 41.3914C72.6884 40.8961 72.5434 40.3344 72.5434 39.7062C72.5434 39.0841 72.6884 38.5254 72.9783 38.0301C73.2682 37.5288 73.6669 37.1392 74.1742 36.8614C74.6877 36.5775 75.2675 36.4355 75.9138 36.4355C76.554 36.4355 77.1278 36.5775 77.6352 36.8614C78.1486 37.1392 78.5502 37.5258 78.8402 38.0211C79.1301 38.5163 79.275 39.0781 79.275 39.7062C79.275 40.3283 79.1301 40.8901 78.8402 41.3914C78.5502 41.8867 78.1486 42.2762 77.6352 42.5601C77.1278 42.838 76.551 42.9769 75.9047 42.9769ZM75.9138 41.9169C76.3305 41.9169 76.699 41.8263 77.0191 41.6451C77.3392 41.4578 77.5899 41.1981 77.7711 40.8659C77.9523 40.5277 78.0429 40.1411 78.0429 39.7062C78.0429 39.2713 77.9523 38.8878 77.7711 38.5556C77.5899 38.2174 77.3392 37.9576 77.0191 37.7764C76.699 37.5892 76.3305 37.4956 75.9138 37.4956C75.497 37.4956 75.1255 37.5892 74.7994 37.7764C74.4793 37.9576 74.2286 38.2174 74.0474 38.5556C73.8662 38.8878 73.7756 39.2713 73.7756 39.7062C73.7756 40.1411 73.8662 40.5277 74.0474 40.8659C74.2286 41.1981 74.4793 41.4578 74.7994 41.6451C75.1255 41.8263 75.497 41.9169 75.9138 41.9169Z" fill="black"/>
<path d="M83.8167 42.8772H82.6479V36.5352H83.6536L87.1961 40.8568V36.5352H88.3739V42.8772H87.3954L83.8167 38.5012V42.8772Z" fill="black"/>
<path d="M96.6675 42.8772H92.0378V36.5352H93.1975V41.8444H96.6675V42.8772Z" fill="black"/>
<path d="M100.853 42.8772H99.6847V36.5352H100.853V42.8772Z" fill="black"/>
<path d="M105.687 42.8772H104.518V36.5352H105.524L109.066 40.8568V36.5352H110.244V42.8772H109.265L105.687 38.5012V42.8772Z" fill="black"/>
<path d="M115.058 40.123V41.8444H118.963V42.8772H113.908V36.5352H118.873V37.5681H115.058V39.0901H118.474V40.123H115.058Z" fill="black"/>
<path d="M133.16 42.8772H131.91L131.402 41.7085H128.032L127.525 42.8772H126.292L129.137 36.5352H130.306L133.16 42.8772ZM129.717 37.8127L128.476 40.6847H130.958L129.717 37.8127Z" fill="black"/>
<path d="M140.091 42.8772L138.306 40.7572H137.309V42.8772H136.141V36.5352H138.759C139.617 36.5352 140.284 36.7224 140.761 37.0969C141.238 37.4654 141.477 37.9848 141.477 38.6553C141.477 39.1868 141.323 39.6247 141.015 39.969C140.713 40.3132 140.278 40.5458 139.71 40.6666L141.568 42.8772H140.091ZM137.309 37.5681V39.7334H138.723C139.248 39.7334 139.644 39.6519 139.91 39.4888C140.175 39.3257 140.308 39.0539 140.308 38.6734C140.308 37.9365 139.783 37.5681 138.732 37.5681H137.309Z" fill="black"/>
<path d="M145.814 40.123V41.8444H149.719V42.8772H144.663V36.5352H149.628V37.5681H145.814V39.0901H149.23V40.123H145.814Z" fill="black"/>
<path d="M154.178 42.8772H153.009V36.5352H154.015L157.557 40.8568V36.5352H158.735V42.8772H157.757L154.178 38.5012V42.8772Z" fill="black"/>
<path d="M168.587 42.8772H167.337L166.83 41.7085H163.459L162.952 42.8772H161.72L164.564 36.5352H165.733L168.587 42.8772ZM165.144 37.8127L163.903 40.6847H166.386L165.144 37.8127Z" fill="black"/>
</g>
</svg>
