<svg width="365" height="120" viewBox="0 0 365 120" fill="none" xmlns="http://www.w3.org/2000/svg">
<path d="M73.5798 72.5489L42.1607 90.4156C39.3049 92.0396 36.1928 91.3381 34.0315 89.3643C31.8634 87.3842 30.7941 84.245 32.0027 81.1407C38.0564 65.5925 41.7723 51.358 44.3656 33.8209C45.3557 27.1249 54.36 25.3844 57.6109 31.0645L76.0788 63.3321C77.9364 66.5778 76.8165 70.7083 73.5798 72.5489Z" stroke="white" stroke-width="2.75"/>
<path d="M26.9437 62.411L45.2537 31.0888C46.9182 28.2415 49.9603 27.2773 52.8119 27.8945C55.6725 28.5136 58.1584 30.6907 58.6553 33.9875C61.144 50.4981 65.0026 64.6919 71.474 81.1766C73.9453 87.4719 67.0176 93.5244 61.3807 90.2498L29.3622 71.6497C26.1411 69.7786 25.0572 65.6381 26.9437 62.411Z" stroke="white" stroke-width="2.75"/>
<path fill-rule="evenodd" clip-rule="evenodd" d="M169.787 33.5H162.814V68.786C162.814 69.6227 162.97 70.4192 163.287 71.1682L163.291 71.1767L163.294 71.1852C163.622 71.9127 164.057 72.5573 164.6 73.1128L164.61 73.1235L164.621 73.1338C165.185 73.6687 165.839 74.097 166.578 74.4203L166.586 74.4241L166.595 74.4276C167.353 74.7387 168.152 74.8933 168.985 74.8933H184.024C184.874 74.8933 185.682 74.7397 186.442 74.4276L186.451 74.4241L186.459 74.4203C187.2 74.0959 187.85 73.6646 188.399 73.1234C188.966 72.5651 189.406 71.9141 189.719 71.1766C190.056 70.4262 190.223 69.6265 190.223 68.786V50.6741C190.223 49.8336 190.056 49.034 189.719 48.2835C189.407 47.5482 188.967 46.9055 188.399 46.3638C187.849 45.8041 187.197 45.3707 186.451 45.0631C185.689 44.731 184.877 44.5669 184.024 44.5669H174.382C173.552 44.5669 172.762 44.7202 172.02 45.0318C171.29 45.3212 170.639 45.7354 170.073 46.2719C169.974 46.3659 169.879 46.463 169.787 46.5634V33.5ZM188.399 46.3638L188.41 46.3744L188.388 46.3533L188.399 46.3638ZM306.182 33.5H298.635V40.6129H306.182V33.5ZM341 33.5H334V44.5669H319.762C318.925 44.5669 318.123 44.7321 317.363 45.0631C316.615 45.3716 315.955 45.8056 315.388 46.3638C314.839 46.9049 314.401 47.5449 314.072 48.275L314.068 48.2834L314.064 48.292C313.748 49.0409 313.592 49.8375 313.592 50.6741V68.786C313.592 69.6227 313.748 70.4192 314.064 71.1682L314.068 71.1767L314.072 71.1852C314.4 71.9127 314.835 72.5573 315.377 73.1128L315.388 73.1235L315.399 73.1338C315.962 73.6687 316.617 74.097 317.355 74.4203L317.364 74.4241L317.372 74.4276C318.13 74.7387 318.929 74.8933 319.762 74.8933H323.913V74.8947H337.538V74.8933H341V33.5ZM102.198 44.5669C101.345 44.5669 100.534 44.731 99.7719 45.0631C99.0235 45.3716 98.3628 45.8055 97.7962 46.3638C97.247 46.9049 96.8093 47.5449 96.48 48.275L96.4762 48.2834L96.4726 48.292C96.1559 49.0409 96 49.8375 96 50.6741V56.8014C96 57.638 96.1559 58.4346 96.4726 59.1836L96.4762 59.1921L96.48 59.2006C96.8081 59.928 97.2428 60.5727 97.7856 61.1281L97.7961 61.1389L97.807 61.1492C98.3707 61.684 99.0249 62.1123 99.7633 62.4357L99.7718 62.4394L99.7805 62.443C100.541 62.7551 101.349 62.9086 102.198 62.9086H114.19V67.9963H96V74.8933H114.991C115.84 74.8933 116.642 74.7398 117.389 74.4246L117.399 74.4203C118.137 74.097 118.791 73.6687 119.355 73.1338L119.36 73.1287L119.366 73.1234C119.932 72.5651 120.373 71.9142 120.686 71.1767C121.023 70.4262 121.189 69.6265 121.189 68.786V62.1189C121.189 61.2784 121.023 60.4787 120.686 59.7282C120.373 58.9906 119.931 58.3461 119.36 57.8033C118.796 57.2485 118.138 56.8169 117.394 56.5094C116.647 56.1752 115.843 56.0117 114.991 56.0117H103V51.4638H120.066V44.5669H102.198ZM134.996 44.5669H128.024V68.786C128.024 69.6227 128.18 70.4192 128.496 71.1682L128.5 71.1767L128.504 71.1852C128.832 71.9127 129.267 72.5573 129.809 73.1128L129.82 73.1235L129.831 73.1338C130.394 73.6687 131.049 74.097 131.787 74.4203L131.796 74.4241L131.804 74.4276C132.562 74.7387 133.361 74.8933 134.194 74.8933H137.971V74.8947H151.596V74.8933H155.432V44.5669H148.432V67.9963H134.996V44.5669ZM203.228 44.5669C202.375 44.5669 201.563 44.731 200.802 45.0631C200.053 45.3716 199.392 45.8055 198.826 46.3638C198.277 46.9049 197.839 47.5449 197.51 48.275L197.506 48.2834L197.502 48.292C197.185 49.0409 197.03 49.8375 197.03 50.6741V56.8014C197.03 57.638 197.185 58.4346 197.502 59.1836L197.506 59.1921L197.51 59.2006C197.838 59.928 198.272 60.5727 198.815 61.1281L198.826 61.1389L198.837 61.1492C199.4 61.684 200.055 62.1123 200.793 62.4357L200.801 62.4394L200.81 62.443C201.57 62.7551 202.379 62.9086 203.228 62.9086H215.219V67.9963H197.03V74.8933H216.021C216.87 74.8933 217.672 74.7398 218.419 74.4246L218.428 74.4203C219.167 74.097 219.821 73.6687 220.385 73.1338L220.39 73.1287L220.395 73.1234C220.962 72.5652 221.402 71.9143 221.715 71.1769C222.052 70.4264 222.219 69.6266 222.219 68.786V62.1189C222.219 61.2783 222.052 60.4786 221.715 59.728C221.402 58.9905 220.961 58.3461 220.39 57.8034C219.826 57.2486 219.168 56.8169 218.424 56.5094C217.677 56.1752 216.872 56.0117 216.021 56.0117H204.029V51.4638H221.096V44.5669H203.228ZM240.559 74.8933H235.224C234.391 74.8933 233.592 74.7387 232.834 74.4276L232.825 74.4241L232.817 74.4203C232.078 74.097 231.424 73.6687 230.86 73.1338L230.85 73.1235L230.839 73.1128C230.296 72.5573 229.862 71.9127 229.533 71.1852L229.53 71.1767L229.526 71.1682C229.209 70.4192 229.053 69.6227 229.053 68.786V50.6741C229.053 49.8375 229.209 49.0409 229.526 48.292L229.53 48.2834L229.533 48.275C229.863 47.5449 230.3 46.9049 230.85 46.3638C231.416 45.8056 232.077 45.3716 232.825 45.0631C233.584 44.7321 234.386 44.5669 235.224 44.5669H250.264C251.117 44.5669 251.928 44.7309 252.69 45.063C253.436 45.3707 254.088 45.8041 254.638 46.3638C255.206 46.9054 255.646 47.5481 255.958 48.2832C256.295 49.0338 256.462 49.8335 256.462 50.6741V86.5H249.462V74.8947H240.559V74.8933ZM270.816 44.5669H263.844V68.786C263.844 69.6227 264 70.4192 264.317 71.1682L264.32 71.1767L264.324 71.1852C264.652 71.9127 265.087 72.5573 265.63 73.1128L265.64 73.1235L265.651 73.1338C266.215 73.6687 266.869 74.097 267.607 74.4203L267.616 74.4241L267.625 74.4276C268.382 74.7387 269.181 74.8933 270.015 74.8933H275.016V74.8947H288.641V74.8933H291.252V44.5669H284.253V67.9963H270.816V44.5669ZM305.908 44.5669H298.909V74.8933H305.908V44.5669ZM169.787 67.9963V51.4638H183.223V67.9963H169.787ZM236.026 67.9963V51.4638H249.462V67.9963H236.026ZM320.564 67.9963V51.4638H334V67.9963H320.564Z" fill="white"/>
</svg>
