<svg width="1027" height="200" viewBox="0 0 1027 200" fill="none" xmlns="http://www.w3.org/2000/svg">
<path d="M100 200C155.229 200 200 155.228 200 100C200 44.7715 155.229 0 100 0C44.7716 0 4.0697e-05 44.7715 4.0697e-05 100C4.0697e-05 155.228 44.7716 200 100 200Z" fill="#FE6E21"/>
<path d="M161.229 179.063C146.054 190.814 127.818 197.952 108.698 199.621C89.5778 201.291 70.381 197.422 53.3995 188.478C36.4178 179.534 22.3689 165.892 12.9297 149.181C3.4904 132.469 -0.940315 113.395 0.166432 94.2336L100 100L161.229 179.063Z" fill="#3F1568"/>
<path d="M100.089 192.533C151.145 192.533 192.533 151.145 192.533 100.089C192.533 49.0332 151.145 7.64444 100.089 7.64444C49.0333 7.64444 7.64448 49.0332 7.64448 100.089C7.64448 151.145 49.0333 192.533 100.089 192.533Z" fill="url(#paint0_linear_10_105)"/>
<path d="M35.9112 51.2226C35.9112 50.2409 36.7071 49.4448 37.6889 49.4448H69.3787C70.3606 49.4448 71.1565 50.2409 71.1565 51.2226V182.916C71.1565 184.638 68.9508 185.355 67.9394 183.959L36.2496 140.249C36.0296 139.946 35.9112 139.58 35.9112 139.206V51.2226Z" fill="url(#paint1_linear_10_105)"/>
<path d="M166.933 51.2226C166.933 50.2409 166.137 49.4448 165.156 49.4448H133.466C132.484 49.4448 131.688 50.2409 131.688 51.2226V182.916C131.688 184.638 133.894 185.355 134.905 183.959L166.595 140.249C166.815 139.946 166.933 139.58 166.933 139.206V51.2226Z" fill="url(#paint2_linear_10_105)"/>
<path fill-rule="evenodd" clip-rule="evenodd" d="M103.628 106.455C102.24 107.844 99.9883 107.844 98.5997 106.455L66.692 74.5476C65.3035 73.1589 63.0523 73.1589 61.6637 74.5476L52.1131 84.0981C50.7233 85.4878 50.7247 87.7417 52.1163 89.1296L98.554 135.449C99.9409 136.832 102.185 136.834 103.573 135.452L150.106 89.1296C151.5 87.742 151.503 85.4864 150.112 84.0956L140.564 74.5476C139.176 73.1589 136.924 73.1589 135.536 74.5476L103.628 106.455Z" fill="url(#paint3_linear_10_105)" fill-opacity="0.7"/>
<path fill-rule="evenodd" clip-rule="evenodd" d="M138.403 45.3312C140.409 43.3253 143.036 42.3186 145.665 42.3111C145.675 42.3111 145.684 42.3111 145.694 42.3111C145.704 42.3111 145.713 42.3111 145.722 42.3111C148.352 42.318 150.979 43.3248 152.985 45.3312C154.872 47.2174 155.874 49.6526 155.993 52.1227C156.001 52.2889 156.005 52.4555 156.005 52.6222C156.005 52.6265 156.005 52.6309 156.005 52.6352V135.356C156.005 135.543 155.946 135.726 155.836 135.878L136.992 161.87C136.486 162.568 135.383 162.21 135.383 161.348V79.4853C135.383 78.6958 134.431 78.2981 133.869 78.8531L103.827 108.559L101.695 110.736C101.349 111.09 100.781 111.093 100.432 110.743L68.7172 79.0548C68.1572 78.4951 67.2001 78.8917 67.2001 79.6835V161.348C67.2001 162.21 66.0973 162.568 65.5915 161.87L46.7471 135.878C46.637 135.726 46.5778 135.543 46.5778 135.356V52.6324C46.5752 49.9902 47.5819 47.3472 49.5979 45.3312C53.6246 41.3044 60.1533 41.3044 64.18 45.3312C64.3577 45.5088 64.5275 45.6914 64.6895 45.8784L100.663 81.8519C101.01 82.1991 101.573 82.1991 101.92 81.8519L137.894 45.8784C138.056 45.6914 138.226 45.5088 138.403 45.3312Z" fill="white"/>
<path fill-rule="evenodd" clip-rule="evenodd" d="M73.9407 50.8288L101.208 78.0434L107.521 71.6103L86.7275 50.8165L73.9407 50.8288Z" fill="#FE6E21"/>
<path d="M943.244 99.8984H963.166C963.231 101.819 963.394 103.154 963.654 103.902C964.11 105.204 965.038 106.083 966.438 106.539C967.577 106.93 969.4 107.158 971.906 107.223L979.768 107.467C980.94 107.499 985.92 107.434 994.709 107.271C998.257 107.206 1000.75 106.93 1002.18 106.441C1004.85 105.53 1006.18 103.723 1006.18 101.021C1006.18 97.6686 1004.23 95.7318 1000.32 95.2109C999.348 95.0807 995.93 95.0156 990.07 95.0156H971.711C962.662 95.0156 956.542 94.5273 953.352 93.5508C949.315 92.3138 946.483 89.9701 944.856 86.5195C943.619 83.8828 943 80.1393 943 75.2891C943 67.5417 944.807 62.2031 948.42 59.2734C951.415 56.7995 957.03 55.1882 965.266 54.4395C968.521 54.1465 974.999 54 984.699 54C998.566 54 1007.27 54.3906 1010.82 55.1719C1015.54 56.2135 1018.88 58.1829 1020.83 61.0801C1022.62 63.7168 1023.52 67.5254 1023.52 72.5059V74.8008H1003.74C1003.71 71.3503 1001.89 69.2507 998.273 68.502C997.492 68.3392 994.253 68.2578 988.557 68.2578C980.581 68.2578 974.445 68.4043 970.148 68.6973C967.805 68.86 966.128 69.2344 965.119 69.8203C963.687 70.6667 962.971 72.1315 962.971 74.2148C962.971 77.0143 964.403 78.7884 967.268 79.5371C968.505 79.8626 971.239 80.0254 975.471 80.0254H994.367C995.637 80.0254 998.957 80.123 1004.33 80.3184C1010.58 80.5462 1014.99 81.1973 1017.56 82.2715C1023.39 84.7129 1026.3 90.7676 1026.3 100.436C1026.3 109.387 1023.86 115.198 1018.98 117.867C1014.39 120.374 1002.55 121.627 983.479 121.627C968.928 121.627 959.39 121.155 954.865 120.211C950.471 119.299 947.362 117.363 945.539 114.4C943.977 111.861 943.195 108.199 943.195 103.414C943.195 102.893 943.212 101.721 943.244 99.8984Z" fill="white"/>
<path d="M721 120.65L758.5 54H785.697L822.172 120.65H800.004L793.363 108.736H750.346L743.949 120.65H721ZM757.67 94.8691H786.332L771.83 68.3066L757.67 94.8691Z" fill="white"/>
<path d="M647 120.65V54H717.801V69.1367H667.215V82.3203H715.213V97.457H667.215V120.65H647Z" fill="white"/>
<path d="M530 120.65L567.5 54H594.697L631.172 120.65H609.004L602.363 108.736H559.346L552.949 120.65H530ZM566.67 94.8691H595.332L580.83 68.3066L566.67 94.8691Z" fill="white"/>
<path d="M519.768 76.998H499.895C499.699 72.1803 496.949 69.7227 491.643 69.625C490.471 69.625 488.713 69.625 486.369 69.625L479.24 69.5273C477.092 69.4948 474.455 69.5111 471.33 69.5762L464.885 69.6738C461.239 69.6738 458.619 70.2109 457.023 71.2852C455.07 72.5872 453.947 74.9635 453.654 78.4141C453.459 80.7253 453.361 84.3385 453.361 89.2539C453.361 95.4062 453.866 99.4427 454.875 101.363C456.438 104.358 460.295 105.969 466.447 106.197C467.326 106.23 472.567 106.246 482.17 106.246C487.704 106.246 491.089 106.181 492.326 106.051C495.093 105.758 497.063 105.042 498.234 103.902C499.439 102.73 500.041 100.777 500.041 98.043C500.041 97.6198 500.025 96.9525 499.992 96.041H474.309V83.5898H519.768V92.8184C519.768 100.273 519.426 105.611 518.742 108.834C517.017 117.005 510.8 121.236 500.09 121.529C497.681 121.594 489.201 121.627 474.65 121.627C465.145 121.627 458.277 121.464 454.045 121.139C443.921 120.357 437.59 116.37 435.051 109.176C433.684 105.302 433 98.4824 433 88.7168C433 77.8444 433.814 70.3086 435.441 66.1094C437.46 60.901 441.545 57.4993 447.697 55.9043C452.58 54.6348 462.671 54 477.971 54C489.852 54 497.893 54.1953 502.092 54.5859C511.499 55.4648 517.082 59.3711 518.84 66.3047C519.458 68.7461 519.768 72.3105 519.768 76.998Z" fill="white"/>
<path d="M215.643 120.65V54H247.869L272.186 98.2383L296.404 54H328.387V120.65H308.563L309.539 69.1855L279.998 120.65H263.787L234.686 69.1855L235.223 120.65H215.643Z" fill="white"/>
<path d="M343 54H416.877V69.1367H363.02V80.5137H413.85V93.6973H363.02V105.514H417.561V120.65H343V54Z" fill="white"/>
<path d="M837 120.65V54H869.275L909.705 104.732L909.168 54H928.357V120.65H895.789L855.945 70.4551L856.531 120.65H837Z" fill="white"/>
<path d="M1023.38 140.055L1023.06 151.255H1018.11L1017.86 140.055H1023.38ZM1017.77 159V153.809H1023.28V159H1017.77Z" fill="#FE6E21"/>
<path d="M996.608 159V140.055H1002.38V154.323H1015.43V159H996.608Z" fill="#FE6E21"/>
<path d="M974.734 159V140.055H980.508V154.323H993.555V159H974.734Z" fill="#FE6E21"/>
<path d="M943.325 159L953.984 140.055H961.715L972.083 159H965.782L963.894 155.613H951.667L949.848 159H943.325ZM953.749 151.672H961.896L957.774 144.121L953.749 151.672Z" fill="#FE6E21"/>
<path d="M909.862 159V140.055H926.226C928.113 140.055 929.469 140.161 930.292 140.374C931.791 140.762 932.781 141.577 933.263 142.817C933.596 143.677 933.762 144.815 933.762 146.231C933.762 148.507 933.226 150.025 932.152 150.783C931.579 151.191 930.353 151.528 928.474 151.797C928.696 151.815 929.011 151.834 929.418 151.852C930.769 151.917 931.671 152.093 932.124 152.38C933.04 152.953 933.499 154.161 933.499 156.002V159H927.655V156.641C927.655 155.216 927.151 154.429 926.142 154.281C925.828 154.235 925.273 154.212 924.477 154.212H915.608V159H909.862ZM915.608 149.576H924.63C925.823 149.576 926.61 149.497 926.989 149.34C927.637 149.072 927.961 148.438 927.961 147.438C927.961 146.236 927.743 145.468 927.308 145.134C926.938 144.848 926.115 144.704 924.838 144.704H915.608V149.576Z" fill="#FE6E21"/>
<path d="M891.541 139.86C896.362 139.86 899.309 139.957 900.382 140.152C902.797 140.587 904.296 141.831 904.879 143.885C905.092 144.635 905.222 145.648 905.268 146.925C905.296 147.665 905.309 148.577 905.309 149.659C905.309 152.046 905.161 153.8 904.865 154.919C904.208 157.408 902.293 158.778 899.119 159.028C897.713 159.139 895.418 159.194 892.235 159.194C889.487 159.194 887.817 159.18 887.225 159.153C884.976 159.051 883.348 158.759 882.339 158.278C880.923 157.612 880.03 156.275 879.66 154.267C879.503 153.416 879.424 151.815 879.424 149.465C879.424 147.873 879.438 146.86 879.466 146.425C879.54 145.278 879.73 144.292 880.035 143.469C880.766 141.498 882.593 140.365 885.517 140.068C886.896 139.93 888.904 139.86 891.541 139.86ZM892.346 144.482C889.283 144.482 887.396 144.63 886.683 144.926C886.017 145.204 885.587 145.861 885.393 146.897C885.309 147.341 885.268 148.174 885.268 149.395C885.268 150.996 885.365 152.134 885.559 152.81C885.846 153.809 886.762 154.364 888.307 154.475C889.205 154.54 890.292 154.572 891.569 154.572C895.011 154.572 897.107 154.452 897.856 154.212C898.698 153.943 899.23 153.245 899.452 152.116C899.536 151.69 899.577 150.742 899.577 149.271C899.577 148.142 899.549 147.383 899.494 146.994C899.337 145.902 898.893 145.195 898.162 144.871C897.736 144.676 896.843 144.552 895.483 144.496C895.261 144.487 894.215 144.482 892.346 144.482Z" fill="#FE6E21"/>
<path d="M855.621 159V140.055H875.746V144.357H861.367V148.105H875.011V152.407H861.367V159H855.621Z" fill="#FE6E21"/>
<path d="M813.345 152.962H819.007C819.026 153.508 819.072 153.888 819.146 154.101C819.276 154.471 819.539 154.721 819.937 154.85C820.261 154.961 820.779 155.026 821.492 155.044L823.726 155.114C824.059 155.123 825.475 155.105 827.973 155.058C828.982 155.04 829.69 154.961 830.097 154.822C830.856 154.563 831.235 154.05 831.235 153.282C831.235 152.329 830.68 151.778 829.57 151.63C829.292 151.593 828.32 151.575 826.655 151.575H821.436C818.864 151.575 817.124 151.436 816.218 151.158C815.07 150.807 814.265 150.14 813.803 149.16C813.451 148.41 813.275 147.346 813.275 145.967C813.275 143.765 813.789 142.248 814.816 141.415C815.667 140.712 817.263 140.254 819.604 140.041C820.529 139.957 822.371 139.916 825.128 139.916C829.07 139.916 831.545 140.027 832.554 140.249C833.895 140.545 834.844 141.105 835.399 141.928C835.908 142.678 836.162 143.76 836.162 145.176V145.828H830.541C830.532 144.848 830.014 144.251 828.987 144.038C828.765 143.992 827.844 143.969 826.225 143.969C823.958 143.969 822.214 144.01 820.992 144.094C820.326 144.14 819.849 144.246 819.563 144.413C819.155 144.653 818.952 145.07 818.952 145.662C818.952 146.458 819.359 146.962 820.173 147.175C820.525 147.267 821.302 147.314 822.505 147.314H827.876C828.237 147.314 829.181 147.341 830.708 147.397C832.484 147.462 833.738 147.647 834.469 147.952C836.125 148.646 836.953 150.367 836.953 153.115C836.953 155.66 836.259 157.311 834.872 158.07C833.567 158.783 830.203 159.139 824.781 159.139C820.645 159.139 817.934 159.005 816.648 158.736C815.399 158.477 814.515 157.927 813.997 157.085C813.553 156.363 813.331 155.322 813.331 153.962C813.331 153.814 813.335 153.481 813.345 152.962Z" fill="#FE6E21"/>
<path d="M795.607 159V144.732H787.168V140.055H809.819V144.732H801.381V159H795.607Z" fill="#FE6E21"/>
<path d="M759.742 159V140.055H776.106C777.994 140.055 779.349 140.161 780.173 140.374C781.672 140.762 782.662 141.577 783.143 142.817C783.476 143.677 783.643 144.815 783.643 146.231C783.643 148.507 783.106 150.025 782.033 150.783C781.459 151.191 780.233 151.528 778.355 151.797C778.577 151.815 778.891 151.834 779.298 151.852C780.649 151.917 781.551 152.093 782.005 152.38C782.921 152.953 783.379 154.161 783.379 156.002V159H777.536V156.641C777.536 155.216 777.031 154.429 776.023 154.281C775.708 154.235 775.153 154.212 774.357 154.212H765.488V159H759.742ZM765.488 149.576H774.51C775.704 149.576 776.49 149.497 776.87 149.34C777.517 149.072 777.841 148.438 777.841 147.438C777.841 146.236 777.624 145.468 777.189 145.134C776.819 144.848 775.995 144.704 774.718 144.704H765.488V149.576Z" fill="#FE6E21"/>
<path d="M741.422 139.86C746.242 139.86 749.189 139.957 750.263 140.152C752.678 140.587 754.177 141.831 754.76 143.885C754.972 144.635 755.102 145.648 755.148 146.925C755.176 147.665 755.19 148.577 755.19 149.659C755.19 152.046 755.042 153.8 754.746 154.919C754.089 157.408 752.173 158.778 749 159.028C747.593 159.139 745.299 159.194 742.116 159.194C739.367 159.194 737.697 159.18 737.105 159.153C734.857 159.051 733.228 158.759 732.22 158.278C730.804 157.612 729.911 156.275 729.541 154.267C729.383 153.416 729.305 151.815 729.305 149.465C729.305 147.873 729.319 146.86 729.346 146.425C729.421 145.278 729.61 144.292 729.916 143.469C730.647 141.498 732.474 140.365 735.398 140.068C736.777 139.93 738.784 139.86 741.422 139.86ZM742.227 144.482C739.164 144.482 737.276 144.63 736.564 144.926C735.898 145.204 735.467 145.861 735.273 146.897C735.19 147.341 735.148 148.174 735.148 149.395C735.148 150.996 735.245 152.134 735.44 152.81C735.726 153.809 736.642 154.364 738.188 154.475C739.085 154.54 740.172 154.572 741.449 154.572C744.891 154.572 746.987 154.452 747.737 154.212C748.579 153.943 749.111 153.245 749.333 152.116C749.416 151.69 749.458 150.742 749.458 149.271C749.458 148.142 749.43 147.383 749.374 146.994C749.217 145.902 748.773 145.195 748.042 144.871C747.616 144.676 746.723 144.552 745.363 144.496C745.141 144.487 744.096 144.482 742.227 144.482Z" fill="#FE6E21"/>
<path d="M702.67 159V140.055H717.188C718.752 140.055 719.733 140.069 720.131 140.096C721.296 140.18 722.245 140.402 722.976 140.762C724.04 141.29 724.771 142.178 725.169 143.427C725.446 144.297 725.585 145.481 725.585 146.98C725.585 150.349 724.873 152.491 723.448 153.407C722.8 153.823 721.916 154.091 720.797 154.212C720.029 154.295 718.992 154.337 717.688 154.337H708.416V159H702.67ZM708.416 149.729H716.799C717.864 149.729 718.599 149.608 719.006 149.368C719.561 149.044 719.839 148.401 719.839 147.438C719.839 146.291 719.617 145.532 719.173 145.162C718.784 144.838 717.993 144.676 716.799 144.676H708.416V149.729Z" fill="#FE6E21"/>
<path d="M674.606 152.962H680.269C680.287 153.508 680.334 153.888 680.408 154.101C680.537 154.471 680.801 154.721 681.199 154.85C681.523 154.961 682.041 155.026 682.753 155.044L684.988 155.114C685.321 155.123 686.737 155.105 689.235 155.058C690.244 155.04 690.951 154.961 691.359 154.822C692.117 154.563 692.497 154.05 692.497 153.282C692.497 152.329 691.942 151.778 690.831 151.63C690.554 151.593 689.582 151.575 687.917 151.575H682.698C680.126 151.575 678.386 151.436 677.479 151.158C676.332 150.807 675.527 150.14 675.064 149.16C674.713 148.41 674.537 147.346 674.537 145.967C674.537 143.765 675.05 142.248 676.077 141.415C676.929 140.712 678.525 140.254 680.866 140.041C681.791 139.957 683.632 139.916 686.39 139.916C690.332 139.916 692.807 140.027 693.815 140.249C695.157 140.545 696.105 141.105 696.661 141.928C697.169 142.678 697.424 143.76 697.424 145.176V145.828H691.803C691.793 144.848 691.275 144.251 690.248 144.038C690.026 143.992 689.106 143.969 687.486 143.969C685.219 143.969 683.475 144.01 682.254 144.094C681.588 144.14 681.111 144.246 680.824 144.413C680.417 144.653 680.213 145.07 680.213 145.662C680.213 146.458 680.621 146.962 681.435 147.175C681.786 147.267 682.564 147.314 683.767 147.314H689.138C689.499 147.314 690.443 147.341 691.969 147.397C693.746 147.462 695 147.647 695.731 147.952C697.387 148.646 698.215 150.367 698.215 153.115C698.215 155.66 697.521 157.311 696.133 158.07C694.828 158.783 691.465 159.139 686.043 159.139C681.907 159.139 679.196 159.005 677.909 158.736C676.66 158.477 675.777 157.927 675.258 157.085C674.814 156.363 674.592 155.322 674.592 153.962C674.592 153.814 674.597 153.481 674.606 152.962Z" fill="#FE6E21"/>
<path d="M649.457 140.055H670.456V144.357H655.147V147.591H669.596V151.339H655.147V154.697H670.651V159H649.457V140.055Z" fill="#FE6E21"/>
<defs>
<linearGradient id="paint0_linear_10_105" x1="884.198" y1="33.8462" x2="823.674" y2="317.531" gradientUnits="userSpaceOnUse">
<stop stop-color="#882AC0"/>
<stop offset="1" stop-color="#140E24"/>
</linearGradient>
<linearGradient id="paint1_linear_10_105" x1="513.153" y1="0" x2="513.153" y2="205.471" gradientUnits="userSpaceOnUse">
<stop stop-color="#24103A" stop-opacity="0"/>
<stop offset="0.233333" stop-color="#24103A" stop-opacity="0.8"/>
<stop offset="0.55625" stop-color="#0A0A14" stop-opacity="0.7"/>
<stop offset="1" stop-color="#0A0A14" stop-opacity="0"/>
</linearGradient>
<linearGradient id="paint2_linear_10_105" x1="513.148" y1="0" x2="513.148" y2="205.471" gradientUnits="userSpaceOnUse">
<stop stop-color="#24103A" stop-opacity="0"/>
<stop offset="0.233333" stop-color="#24103A" stop-opacity="0.8"/>
<stop offset="0.55625" stop-color="#0A0A14" stop-opacity="0.7"/>
<stop offset="1" stop-color="#0A0A14" stop-opacity="0"/>
</linearGradient>
<linearGradient id="paint3_linear_10_105" x1="513.15" y1="0.000141136" x2="513.15" y2="200" gradientUnits="userSpaceOnUse">
<stop stop-color="#24103A"/>
<stop offset="1" stop-color="#0A0A14"/>
</linearGradient>
</defs>
</svg>
