<?xml version="1.0" standalone="no"?>
<!DOCTYPE svg PUBLIC "-//W3C//DTD SVG 20010904//EN"
 "http://www.w3.org/TR/2001/REC-SVG-20010904/DTD/svg10.dtd">
<svg version="1.0" xmlns="http://www.w3.org/2000/svg"
 width="1960.000000pt" height="1096.000000pt" viewBox="0 0 1960.000000 1096.000000"
 preserveAspectRatio="xMidYMid meet">

<g transform="translate(0.000000,1096.000000) scale(0.100000,-0.100000)"
fill="#000000" stroke="none">
<path d="M11130 8920 c0 -47 -2 -50 -25 -50 -24 0 -25 -3 -25 -55 0 -52 -1
-55 -25 -55 -24 0 -25 -2 -25 -75 0 -73 -1 -75 -25 -75 -24 0 -25 -2 -25 -74
0 -74 0 -75 -27 -78 -22 -2 -28 -8 -27 -25 l1 -23 -291 0 c-327 0 -366 -4
-366 -31 0 -16 8 -19 45 -19 41 0 45 -2 45 -25 0 -21 5 -25 30 -25 25 0 30 -4
30 -25 0 -23 3 -25 50 -25 46 0 50 -2 50 -24 0 -18 6 -25 23 -28 14 -2 23 -11
25 -25 3 -17 12 -23 53 -28 43 -6 49 -10 49 -31 0 -19 5 -24 25 -24 18 0 25
-5 25 -20 0 -24 13 -30 64 -33 30 -2 36 -6 36 -24 0 -16 -6 -23 -19 -23 -22 0
-35 -61 -25 -115 5 -31 4 -34 -23 -37 -28 -3 -28 -4 -31 -75 -3 -65 -5 -72
-25 -75 -20 -3 -22 -9 -25 -80 -3 -75 -4 -78 -27 -78 -23 0 -25 -4 -25 -50 0
-49 1 -50 30 -50 25 0 30 4 30 25 0 23 4 25 45 25 41 0 45 2 45 25 0 23 3 25
50 25 47 0 50 2 50 25 0 20 5 25 24 25 19 0 25 6 28 28 2 21 9 28 31 30 19 2
27 9 27 22 0 16 10 21 50 26 44 6 50 9 50 30 0 19 5 24 25 24 18 0 25 5 25 20
0 15 7 20 25 20 18 0 25 -5 25 -20 0 -15 7 -20 25 -20 20 0 25 -5 25 -24 0
-19 6 -25 28 -28 19 -2 28 -9 30 -25 3 -20 9 -23 47 -23 40 0 44 -2 47 -27 2
-22 9 -29 31 -31 19 -2 27 -9 27 -22 0 -16 10 -21 50 -26 44 -6 50 -9 50 -30
0 -19 5 -24 25 -24 20 0 25 -5 25 -25 0 -23 3 -25 50 -25 l50 0 0 50 c0 47 -2
50 -25 50 -24 0 -25 2 -25 75 0 72 -1 75 -24 75 -19 0 -24 6 -30 38 -3 20 -6
54 -6 74 0 30 -4 37 -22 40 -22 3 -23 7 -23 108 0 101 1 105 23 108 14 2 22
10 22 22 0 13 8 20 28 22 19 2 28 9 30 25 3 17 12 23 53 28 43 6 49 10 49 31
0 19 5 24 25 24 18 0 25 5 25 19 0 15 10 20 50 26 44 6 50 10 50 31 0 19 5 24
25 24 20 0 25 5 25 25 0 21 5 25 31 25 26 0 30 3 27 23 l-3 22 -307 3 -308 2
0 25 c0 20 -5 25 -25 25 -24 0 -25 2 -25 75 0 73 -1 75 -25 75 -24 0 -25 2
-25 75 0 73 -1 75 -25 75 -24 0 -25 3 -25 55 0 54 -1 55 -25 49 -24 -6 -25 -5
-25 50 0 53 -1 56 -25 56 -23 0 -25 -3 -25 -50z"/>
<path d="M13220 8685 c0 -73 -1 -75 -25 -75 -23 0 -25 -3 -25 -50 0 -46 -2
-50 -25 -50 -23 0 -24 -3 -27 -77 l-3 -78 -202 -3 c-195 -2 -203 -3 -203 -22
0 -15 7 -20 25 -20 20 0 25 -5 25 -25 0 -20 5 -25 25 -25 20 0 25 -5 25 -24 0
-21 6 -25 50 -31 44 -6 50 -10 50 -31 0 -20 5 -24 30 -24 23 0 30 -4 30 -20 0
-13 7 -20 19 -20 28 0 33 -14 25 -65 -5 -39 -10 -45 -30 -45 -23 0 -24 -3 -24
-75 0 -73 -1 -75 -25 -75 -24 0 -25 -2 -25 -75 0 -73 1 -75 25 -75 20 0 25 5
25 25 0 20 5 25 25 25 20 0 25 5 25 25 0 23 3 25 50 25 47 0 50 2 50 25 0 21
5 25 30 25 25 0 30 4 30 25 0 24 2 25 75 25 73 0 75 -1 75 -25 0 -23 3 -25 50
-25 47 0 50 -2 50 -25 0 -20 5 -25 25 -25 20 0 25 -5 25 -24 0 -21 6 -25 50
-31 40 -6 50 -11 50 -26 0 -14 7 -19 25 -19 20 0 25 5 25 25 0 18 -5 25 -19
25 -21 0 -31 34 -31 107 0 43 -1 45 -25 41 -25 -5 -25 -5 -25 73 0 78 0 79
-25 79 -20 0 -25 5 -25 25 0 20 5 25 25 25 20 0 25 5 25 24 0 21 6 25 50 31
44 6 50 10 50 31 0 19 5 24 24 24 18 0 25 6 28 23 2 16 11 23 31 25 19 2 27 9
27 22 0 15 10 20 45 26 35 5 45 10 45 25 0 18 -10 19 -187 19 -104 0 -205 3
-225 6 l-38 7 0 73 c0 72 -1 74 -25 74 -24 0 -25 2 -25 75 0 73 -1 75 -24 75
-21 0 -25 6 -31 50 -6 40 -11 50 -26 50 -17 0 -19 -8 -19 -75z"/>
<path d="M8740 8641 c0 -26 -4 -31 -25 -31 -24 0 -25 -2 -25 -75 0 -73 -1 -75
-25 -75 -24 0 -25 -2 -25 -74 l0 -73 -37 -7 c-21 -3 -125 -6 -230 -6 -186 0
-193 -1 -193 -20 0 -15 7 -20 25 -20 20 0 25 -5 25 -24 0 -20 6 -25 44 -30 36
-6 45 -11 48 -29 2 -16 11 -23 31 -25 21 -3 27 -9 27 -28 0 -20 5 -24 30 -24
23 0 30 -5 30 -19 0 -16 9 -21 45 -27 l45 -6 0 -49 c0 -46 -2 -49 -25 -49 -24
0 -25 -3 -25 -55 0 -47 -3 -55 -19 -55 -21 0 -31 -34 -31 -106 0 -40 -2 -44
-25 -44 -20 0 -25 -5 -25 -25 0 -23 3 -25 50 -25 49 0 50 1 50 30 0 29 1 30
51 30 46 0 50 2 47 23 -2 18 2 23 25 25 21 3 27 9 27 28 0 20 5 24 30 24 25 0
30 4 30 25 0 22 4 25 39 25 67 0 101 -11 101 -31 0 -14 7 -19 30 -19 25 0 30
-4 30 -25 0 -20 5 -25 25 -25 20 0 25 -5 25 -24 0 -21 6 -25 50 -31 44 -6 50
-10 50 -31 0 -19 5 -24 25 -24 26 0 26 0 23 78 -3 69 -5 77 -23 77 -18 0 -20
8 -23 73 -3 69 -4 72 -27 72 -24 0 -25 3 -25 55 0 52 1 55 25 55 20 0 25 5 25
24 0 21 6 25 50 31 39 5 50 11 50 25 0 13 9 20 28 22 19 2 28 9 30 25 3 18 12
23 47 28 38 6 44 11 49 37 12 61 24 58 -199 58 l-205 0 0 55 c0 52 -1 55 -25
55 -22 0 -25 4 -25 38 0 73 -11 112 -31 112 -15 0 -19 8 -20 33 -2 68 -4 72
-26 75 -20 3 -23 -1 -23 -27z"/>
<path d="M13778 6772 l-607 -2 -3 -23 c-2 -14 -11 -23 -24 -25 -17 -2 -23 -12
-29 -48 -5 -34 -10 -44 -25 -44 -13 0 -20 -8 -22 -27 -2 -22 -9 -29 -31 -31
-25 -3 -28 -7 -23 -28 6 -21 3 -24 -24 -24 -25 0 -30 -4 -30 -25 0 -18 -5 -25
-19 -25 -15 0 -20 -10 -26 -50 -6 -44 -10 -50 -31 -50 -20 0 -24 -5 -24 -30 0
-25 -4 -30 -25 -30 -18 0 -25 -5 -25 -20 0 -20 7 -20 635 -20 l635 0 0 25 c0
20 5 25 25 25 20 0 25 5 25 25 0 20 5 25 25 25 23 0 25 3 25 50 0 47 2 50 25
50 20 0 25 5 25 25 0 20 5 25 25 25 20 0 25 5 25 24 0 18 6 26 22 28 14 2 24
12 28 28 4 16 14 26 27 28 12 2 22 11 22 20 0 9 3 32 7 50 5 25 11 32 30 32
36 0 33 37 -3 41 -16 2 -301 3 -635 1z"/>
<path d="M6040 6695 c0 -73 -1 -75 -25 -75 -23 0 -24 -3 -27 -72 -3 -67 -5
-73 -25 -76 -20 -3 -23 -9 -23 -53 0 -46 -2 -49 -25 -49 -23 0 -25 -3 -25 -50
l0 -50 710 0 710 0 0 125 c0 104 -2 125 -15 125 -9 0 -15 -10 -16 -22 -1 -22
-1 -22 -9 2 -4 14 -8 46 -9 73 -1 43 -3 47 -26 47 -23 0 -25 4 -25 44 0 24 -3
58 -6 75 l-6 31 -579 0 -579 0 0 -75z"/>
<path d="M9043 6703 c4 -38 7 -83 7 -100 0 -26 4 -33 20 -33 19 0 20 -7 20
-150 l0 -150 635 0 635 0 0 150 c0 143 -1 150 -20 150 -18 0 -20 7 -20 55 0
48 2 55 20 55 17 0 20 7 20 45 l0 45 -661 0 -662 0 6 -67z"/>
<path d="M11180 6520 l0 -250 635 0 635 0 0 250 0 250 -635 0 -635 0 0 -250z"/>
<path d="M15308 6748 c-2 -17 -11 -24 -30 -26 -22 -3 -28 -9 -28 -28 0 -17 -6
-24 -19 -24 -15 0 -20 -10 -26 -50 -6 -44 -10 -50 -31 -50 -19 0 -24 -5 -24
-25 0 -20 -5 -25 -25 -25 -20 0 -25 -5 -25 -25 0 -20 -5 -25 -25 -25 -20 0
-25 -5 -25 -25 0 -20 -5 -25 -25 -25 -23 0 -25 -3 -25 -50 0 -47 -2 -50 -25
-50 -20 0 -25 -5 -25 -25 l0 -25 635 0 635 0 0 25 c0 20 5 25 25 25 23 0 25 3
25 50 0 47 2 50 25 50 20 0 25 5 25 25 0 20 5 25 25 25 20 0 25 5 25 25 0 20
5 25 24 25 19 0 25 6 28 28 2 19 9 28 25 30 19 3 22 11 25 50 3 40 6 47 25 50
14 2 23 11 25 25 2 14 11 23 26 25 14 2 22 10 22 23 0 19 -14 19 -629 19
l-630 0 -3 -22z"/>
<path d="M5838 6163 c-3 -41 -6 -48 -25 -51 -21 -3 -23 -9 -23 -65 0 -34 -3
-79 -6 -99 -6 -32 -10 -38 -32 -38 -23 0 -24 -3 -19 -36 4 -21 4 -57 0 -80 -4
-34 -10 -44 -24 -44 -12 0 -19 -7 -19 -20 0 -20 7 -20 916 -20 l917 0 -7 38
c-3 20 -6 65 -6 100 0 59 -1 62 -25 62 -23 0 -25 3 -25 50 0 47 -2 50 -25 50
-24 0 -25 2 -25 75 0 73 -1 75 -25 75 -20 0 -25 5 -25 25 l0 25 -759 0 -760 0
-3 -47z"/>
<path d="M9040 6191 c0 -13 -8 -21 -22 -23 -21 -3 -23 -9 -26 -80 -3 -75 -4
-78 -27 -78 -24 0 -25 -2 -25 -75 0 -73 -1 -75 -25 -75 -24 0 -25 -2 -25 -75
l0 -75 735 0 735 0 0 250 0 250 -660 0 c-645 0 -660 0 -660 -19z"/>
<path d="M11180 6085 l0 -125 25 0 25 0 0 -125 0 -125 1220 0 1220 0 2 28 c1
15 2 36 2 47 1 13 9 21 24 23 16 3 22 10 22 28 0 19 5 24 25 24 20 0 25 5 25
25 0 20 5 25 25 25 20 0 25 5 25 24 0 19 6 25 28 28 25 3 27 7 30 51 3 42 6
47 27 47 18 0 24 6 27 28 2 21 8 27 26 25 18 -2 22 2 22 27 0 25 4 30 25 30
18 0 25 5 25 20 0 20 -7 20 -635 20 l-635 0 0 -25 c0 -20 -5 -25 -25 -25 -20
0 -25 -5 -25 -25 0 -20 -5 -25 -25 -25 -20 0 -25 -5 -25 -25 0 -20 -5 -25 -25
-25 -23 0 -25 -3 -25 -50 0 -47 -2 -50 -25 -50 -20 0 -25 -5 -25 -25 0 -21 -5
-25 -30 -25 -26 0 -30 4 -31 28 l-1 27 -8 -30 -8 -30 -2 30 -2 30 -7 -30 c-8
-36 -21 86 -21 202 l0 73 -635 0 -635 0 0 -125z"/>
<path d="M14850 6185 c0 -20 -5 -25 -25 -25 -23 0 -25 -3 -25 -50 0 -47 -2
-50 -25 -50 -20 0 -25 -5 -25 -25 0 -20 -5 -25 -25 -25 -24 0 -30 -9 -26 -37
1 -8 -9 -13 -23 -13 -21 0 -25 -5 -31 -50 -6 -44 -10 -50 -31 -50 -19 0 -24
-5 -24 -25 0 -20 -5 -25 -25 -25 -23 0 -25 -3 -25 -50 l0 -50 610 0 610 0 0
25 c0 20 5 25 25 25 20 0 25 5 25 25 0 20 5 25 25 25 20 0 25 5 25 25 0 20 5
25 24 25 21 0 25 6 31 50 6 40 11 50 26 50 14 0 19 7 19 25 0 20 5 25 24 25
19 0 25 6 28 28 2 19 9 28 25 30 18 3 23 12 29 47 5 35 11 45 28 47 13 2 22
11 24 26 l3 22 -635 0 -636 0 0 -25z"/>
<path d="M5636 5613 c-3 -21 -6 -53 -6 -70 0 -28 -3 -33 -25 -33 -24 0 -25 -3
-25 -55 0 -52 -1 -55 -25 -55 -24 0 -25 -2 -25 -75 0 -73 -1 -75 -25 -75 -23
0 -25 -3 -25 -50 l0 -50 1121 0 1122 0 -7 31 c-3 17 -6 51 -6 75 0 36 -3 44
-19 44 -15 0 -20 10 -25 45 -4 25 -4 49 -1 55 3 6 3 30 -1 55 -5 39 -10 45
-30 45 -22 0 -24 4 -24 50 0 43 -3 50 -20 50 -15 0 -20 7 -20 25 l0 25 -964 0
-963 0 -7 -37z"/>
<path d="M8840 5625 c0 -20 -5 -25 -25 -25 -24 0 -25 -2 -25 -75 0 -73 -1 -75
-25 -75 -24 0 -25 -2 -25 -75 0 -73 -1 -75 -25 -75 -23 0 -25 -4 -25 -44 0
-24 -3 -58 -6 -75 l-6 -31 840 0 840 0 6 35 c7 34 29 47 39 23 3 -7 6 -3 6 10
1 16 -5 22 -19 22 -17 0 -20 7 -21 45 -1 25 -3 50 -4 55 -1 6 -3 78 -4 160
l-1 150 -760 0 -760 0 0 -25z"/>
<path d="M11230 5400 l1 -250 989 0 989 0 3 23 c2 16 11 23 31 25 21 3 27 9
27 28 0 19 5 24 25 24 20 0 25 5 25 25 0 20 5 25 25 25 23 0 25 3 25 50 0 47
2 50 25 50 20 0 25 5 25 25 0 20 5 25 25 25 23 0 25 3 25 50 0 46 2 50 24 50
19 0 25 6 28 28 2 19 9 28 26 30 14 2 22 10 22 23 0 19 -21 19 -1170 19
l-1170 0 0 -250z"/>
<path d="M14440 5625 c0 -20 -5 -25 -25 -25 -20 0 -25 -5 -25 -25 0 -20 -5
-25 -25 -25 -23 0 -25 -3 -25 -50 0 -47 -2 -50 -25 -50 -20 0 -25 -5 -25 -25
0 -20 -5 -25 -25 -25 -20 0 -25 -5 -25 -25 0 -20 -5 -25 -24 -25 -19 0 -25 -6
-28 -27 -2 -20 -9 -29 -25 -31 -14 -2 -23 -11 -25 -25 -2 -14 -11 -23 -24 -25
-20 -3 -34 -35 -34 -78 0 -12 103 -14 634 -14 l634 0 6 44 c6 36 11 45 29 48
15 2 23 12 27 33 3 17 9 29 13 28 24 -9 37 -1 37 22 0 20 5 25 25 25 20 0 25
5 25 25 0 20 5 25 25 25 20 0 25 5 25 24 0 18 6 25 23 28 19 3 22 10 25 51 3
42 5 47 28 47 22 0 24 4 24 50 l0 50 -610 0 -610 0 0 -25z"/>
<path d="M5480 5070 c0 -15 -7 -20 -25 -20 -24 0 -25 -3 -25 -55 0 -52 -1 -55
-25 -55 -24 0 -25 -2 -25 -75 0 -73 -1 -75 -25 -75 -24 0 -25 -3 -25 -55 0
-52 -1 -55 -25 -55 -23 0 -25 -4 -25 -45 l0 -45 560 0 c553 0 560 0 560 20 0
13 7 20 19 20 10 0 21 -9 24 -20 5 -20 14 -20 741 -20 l736 0 0 75 c0 73 -1
75 -25 75 -24 0 -25 2 -25 75 0 73 -1 75 -25 75 -23 0 -25 3 -25 50 0 47 -2
50 -25 50 -23 0 -25 3 -25 50 l0 50 -1145 0 c-1138 0 -1145 0 -1145 -20z"/>
<path d="M8640 5065 c0 -16 -6 -25 -15 -25 -9 0 -15 -10 -16 -22 -1 -22 -1
-22 -9 2 -6 17 -8 2 -9 -52 -1 -75 -2 -78 -25 -78 -19 0 -24 -6 -29 -38 -4
-20 -4 -54 0 -75 5 -35 4 -37 -26 -43 l-31 -6 0 -69 0 -69 965 0 965 0 0 230
c0 223 -1 230 -20 230 -13 0 -20 7 -20 20 0 20 -7 20 -865 20 l-865 0 0 -25z"/>
<path d="M11235 5054 c-3 -20 -5 -121 -4 -225 l2 -189 24 0 c18 0 23 -5 23
-25 l0 -25 759 0 760 0 3 23 c2 16 11 23 31 25 25 3 27 6 27 53 0 27 3 48 8
48 29 -5 42 3 42 26 0 20 5 25 25 25 20 0 25 5 25 25 0 20 5 25 25 25 20 0 25
5 25 25 0 20 5 25 25 25 23 0 25 3 25 50 0 46 2 50 24 50 21 0 24 5 28 46 2
25 1 47 -1 50 -2 2 -424 4 -937 4 l-932 0 -7 -36z m1592 -396 c-3 -8 -6 -5 -6
6 -1 11 2 17 5 13 3 -3 4 -12 1 -19z"/>
<path d="M14030 5065 c0 -20 -5 -25 -25 -25 -20 0 -25 -5 -25 -25 0 -20 -5
-25 -25 -25 -20 0 -25 -5 -25 -25 0 -20 -5 -25 -25 -25 -20 0 -25 -5 -25 -25
0 -20 -5 -25 -24 -25 -21 0 -25 -6 -31 -50 -6 -40 -11 -50 -26 -50 -14 0 -19
-7 -19 -25 0 -20 -5 -25 -24 -25 -19 0 -25 -6 -28 -27 -2 -20 -9 -29 -25 -31
-20 -3 -23 -9 -23 -48 l0 -44 610 0 c596 0 610 0 610 19 0 13 8 21 23 23 16 2
23 11 25 31 3 21 9 27 28 27 19 0 24 5 24 25 0 20 5 25 25 25 20 0 25 5 25 25
0 20 5 25 25 25 23 0 25 3 25 50 0 47 2 50 25 50 20 0 25 5 25 25 0 20 5 25
25 25 20 0 25 5 25 25 0 24 9 30 38 26 8 -1 12 14 12 49 l0 50 -610 0 -610 0
0 -25z"/>
<path d="M5230 4493 c0 -21 -3 -55 -6 -75 -6 -32 -11 -38 -30 -38 -23 0 -24
-3 -24 -75 0 -73 -1 -75 -25 -75 -25 0 -25 -1 -25 -80 0 -79 0 -80 -26 -80
-19 0 -25 -4 -22 -17 3 -17 39 -18 561 -21 l557 -2 0 25 c0 20 5 25 25 25 24
0 25 2 25 75 0 73 1 75 25 75 24 0 25 2 26 68 1 37 1 70 0 75 0 4 10 7 24 7
24 0 25 2 25 75 l0 75 -555 0 -555 0 0 -37z"/>
<path d="M6500 4455 c0 -73 1 -75 25 -75 24 0 25 -2 25 -75 0 -73 1 -75 25
-75 24 0 25 -2 25 -75 0 -73 1 -75 25 -75 20 0 25 -5 25 -25 l0 -25 735 0 735
0 0 50 c0 47 -2 50 -25 50 -24 0 -25 2 -25 75 0 73 -1 75 -25 75 -24 0 -25 2
-25 74 0 70 -1 75 -22 78 -20 3 -23 10 -26 51 l-3 47 -735 0 -734 0 0 -75z"/>
<path d="M8430 4505 c0 -20 -5 -25 -25 -25 -24 0 -25 -2 -25 -75 0 -73 -1 -75
-25 -75 -24 0 -25 -2 -25 -75 0 -73 -1 -75 -25 -75 -24 0 -25 -2 -25 -75 l0
-75 1071 0 1072 0 -6 68 c-4 37 -7 149 -7 250 l0 182 -990 0 -990 0 0 -25z"/>
<path d="M11280 4406 c0 -122 -1 -125 -22 -128 -20 -3 -23 -10 -26 -50 -3 -43
-5 -48 -28 -48 -20 0 -24 -5 -24 -30 0 -25 -4 -30 -25 -30 -23 0 -25 -4 -25
-45 l0 -45 710 0 710 0 0 150 0 150 25 0 c20 0 25 5 25 25 0 20 5 25 25 25 20
0 25 5 25 24 0 19 6 25 28 28 25 3 27 7 30 51 l3 47 -715 0 -716 0 0 -124z"/>
<path d="M13578 4508 c-2 -17 -11 -24 -30 -26 -26 -3 -28 -6 -28 -53 0 -46 -2
-49 -25 -49 -20 0 -25 -5 -25 -25 0 -20 -5 -25 -25 -25 -20 0 -25 -5 -25 -25
0 -20 -5 -25 -25 -25 -23 0 -25 -3 -25 -50 0 -47 -2 -50 -25 -50 -20 0 -25 -5
-25 -25 0 -20 -5 -25 -25 -25 -21 0 -25 -5 -25 -30 0 -25 -4 -30 -25 -30 -18
0 -25 -5 -25 -20 0 -20 7 -20 635 -20 l635 0 0 25 c0 20 5 25 25 25 20 0 25 5
25 25 0 20 5 25 25 25 20 0 25 5 25 25 0 20 5 25 25 25 23 0 25 3 25 50 0 47
2 50 25 50 20 0 25 5 25 25 0 20 5 25 25 25 20 0 25 5 25 25 0 20 5 25 25 25
23 0 25 3 25 50 0 47 2 50 25 50 20 0 25 5 25 25 l0 25 -629 0 -630 0 -3 -22z"/>
<path d="M5070 3944 c0 -23 -3 -26 -25 -22 -24 5 -25 3 -25 -48 0 -51 -1 -54
-25 -54 -24 0 -25 -3 -26 -60 -2 -86 -2 -85 -26 -88 -21 -3 -23 -9 -23 -58 0
-51 -1 -54 -25 -54 -23 0 -25 -3 -25 -47 l0 -48 533 2 c292 1 544 2 560 3 20
0 27 5 27 20 0 13 7 20 20 20 17 0 20 7 20 43 0 75 11 117 30 117 20 0 30 36
30 106 0 40 2 44 25 44 24 0 25 2 25 75 l0 75 -535 0 -535 0 0 -26z"/>
<path d="M6700 3895 c0 -73 1 -75 25 -75 23 0 24 -3 27 -77 3 -72 5 -78 26
-81 17 -3 22 -10 23 -35 3 -109 3 -112 26 -115 12 -2 23 -12 25 -23 3 -19 25
-19 1807 -19 992 0 1806 1 1808 3 2 2 0 93 -3 201 -7 179 -9 196 -25 196 -14
0 -19 10 -21 48 l-3 47 -1092 3 -1093 2 0 -25 c0 -34 -47 -37 -52 -2 l-3 22
-737 3 -738 2 0 -75z"/>
<path d="M11030 3945 c0 -20 -5 -25 -25 -25 -20 0 -25 -5 -25 -25 0 -20 -5
-25 -24 -25 -21 0 -24 -6 -30 -50 -5 -40 -10 -50 -26 -50 -13 0 -20 -8 -22
-27 -2 -20 -9 -29 -25 -31 -14 -2 -23 -11 -25 -25 -2 -14 -11 -23 -25 -25 -17
-3 -23 -12 -28 -53 -6 -43 -10 -49 -31 -49 -19 0 -24 -5 -24 -25 0 -20 -5 -25
-25 -25 -19 0 -25 -5 -25 -22 l0 -23 887 3 c489 1 912 2 941 2 l52 0 0 250 0
250 -760 0 -760 0 0 -25z"/>
<path d="M13160 3945 c0 -18 -5 -25 -20 -25 -15 0 -20 -7 -20 -25 0 -20 -5
-25 -24 -25 -21 0 -25 -6 -31 -50 -6 -44 -10 -50 -31 -50 -19 0 -24 -5 -24
-24 0 -18 -6 -25 -22 -28 -15 -2 -24 -11 -26 -25 -2 -14 -11 -23 -25 -25 -16
-2 -23 -11 -25 -30 -3 -22 -9 -28 -28 -28 -19 0 -24 -5 -24 -25 0 -20 -5 -25
-25 -25 -23 0 -25 -4 -25 -45 l0 -45 178 0 c97 -1 383 -2 634 -3 l458 -2 0 48
c0 43 2 47 25 47 21 0 25 5 25 30 0 25 4 30 25 30 20 0 25 5 25 25 0 20 5 25
25 25 20 0 25 5 25 25 0 20 5 25 25 25 20 0 25 5 25 25 0 20 5 25 25 25 23 0
25 3 25 50 0 46 2 50 24 50 19 0 24 6 30 38 3 20 6 43 6 50 0 9 -130 12 -615
12 l-615 0 0 -25z"/>
<path d="M7991 3362 l-1094 -2 7 -38 c3 -20 6 -45 6 -54 0 -11 8 -18 19 -18
20 0 31 -34 31 -101 0 -31 4 -38 23 -41 20 -3 22 -9 25 -80 3 -70 5 -77 25
-80 14 -2 21 -9 19 -20 -2 -15 14 -17 170 -20 95 -2 532 -2 971 0 l797 2 0 75
c0 73 1 75 25 75 24 0 25 2 25 70 0 68 1 70 25 70 24 0 25 3 25 55 0 52 1 55
25 55 20 0 25 5 25 24 0 18 -6 25 -27 27 -16 2 -520 3 -1122 1z"/>
<path d="M4819 3328 c-1 -18 -2 -41 -2 -50 0 -12 -7 -18 -23 -18 -23 0 -24 -3
-24 -75 0 -72 -1 -75 -24 -75 -21 0 -24 -6 -31 -55 -5 -45 -10 -55 -26 -55
-16 0 -19 -7 -19 -47 l0 -48 555 0 554 0 3 50 c3 43 6 50 26 53 19 3 22 9 22
53 0 46 2 49 25 49 24 0 25 2 25 75 0 73 1 75 25 75 23 0 25 3 25 50 l0 50
-555 0 -555 0 -1 -32z"/>
<path d="M9200 3133 l0 -228 2158 2 c1186 2 2183 3 2215 3 50 0 57 2 57 20 0
13 7 20 19 20 14 0 21 8 23 28 2 19 9 28 24 30 17 2 23 12 28 47 6 35 11 44
29 47 16 2 23 11 25 31 3 21 9 27 28 27 19 0 24 5 24 25 0 20 5 25 25 25 20 0
25 5 25 25 0 20 5 25 25 25 23 0 25 3 25 50 l0 50 -635 0 -635 0 0 -50 0 -50
-50 0 c-54 0 -56 4 -50 78 l1 22 -995 0 -996 0 0 -25 c0 -20 -5 -25 -25 -25
-20 0 -25 -5 -25 -25 0 -21 -5 -25 -30 -25 -29 0 -30 1 -30 50 l0 50 -630 0
-630 0 0 -227z"/>
<path d="M12580 3295 c-10 -12 -10 -15 4 -15 9 0 16 7 16 15 0 8 -2 15 -4 15
-2 0 -9 -7 -16 -15z"/>
<path d="M4615 2750 c-6 -44 -10 -50 -31 -50 -22 0 -24 -4 -24 -49 0 -44 -3
-50 -22 -53 -21 -3 -23 -9 -26 -80 -3 -75 -4 -78 -27 -78 -23 0 -25 -4 -25
-50 l0 -50 560 0 560 0 0 50 c0 46 2 50 24 50 23 0 25 4 28 53 3 45 6 52 26
55 21 3 22 8 22 78 0 72 1 74 25 74 23 0 25 3 25 50 l0 50 -554 0 -554 0 -7
-50z"/>
<path d="M7060 2775 c0 -20 5 -25 25 -25 24 0 25 -3 25 -55 0 -52 1 -55 25
-55 24 0 25 -2 25 -75 0 -73 1 -75 25 -75 23 0 25 -3 25 -50 0 -47 2 -50 25
-50 20 0 25 -5 25 -25 l0 -25 738 2 737 3 3 23 c4 23 22 31 22 10 0 -8 7 -5
15 6 8 11 15 39 15 62 0 37 3 43 23 46 19 3 22 9 22 53 0 43 3 50 21 53 23 3
34 40 34 115 0 33 3 37 25 37 20 0 25 5 25 25 l0 25 -940 0 -940 0 0 -25z"/>
<path d="M9200 2700 c0 -91 2 -100 19 -100 17 0 19 -12 26 -130 l7 -130 914 0
914 0 0 25 c0 20 5 25 25 25 21 0 25 5 25 30 0 25 4 30 25 30 23 0 25 4 25 45
0 41 2 45 25 45 21 0 25 5 25 30 0 25 4 30 25 30 20 0 25 5 25 26 0 22 4 25
28 22 l27 -3 0 -150 0 -150 937 -3 937 -2 3 27 c2 16 9 29 16 29 6 1 16 2 21
3 5 0 11 11 13 24 2 16 11 23 31 25 25 3 27 7 27 47 0 38 3 44 23 47 16 2 23
11 25 31 3 21 9 27 28 27 22 0 24 4 24 50 0 47 2 50 25 50 20 0 25 5 25 25 0
20 5 25 25 25 20 0 25 5 25 25 l0 25 -2160 0 -2160 0 0 -100z"/>
<path d="M4410 2190 c0 -47 -2 -50 -25 -50 -24 0 -25 -3 -25 -55 0 -52 -1 -55
-25 -55 -24 0 -25 -2 -25 -75 0 -73 -1 -75 -25 -75 -23 0 -25 -3 -25 -50 l0
-50 555 0 555 0 0 25 c0 20 5 25 24 25 19 0 24 6 30 38 3 20 6 56 6 80 0 34 3
42 19 42 22 0 34 54 24 112 -5 37 -5 38 26 38 31 0 31 1 31 50 l0 50 -560 0
-560 0 0 -50z"/>
<path d="M7312 2163 c3 -72 5 -78 25 -81 21 -3 22 -9 25 -100 3 -92 4 -97 26
-100 16 -3 22 -10 23 -30 1 -15 2 -36 3 -47 1 -20 9 -20 584 -23 l582 -2 0 75
c0 73 1 75 25 75 25 0 25 1 25 80 0 79 0 80 25 80 22 0 25 4 25 38 0 20 3 54
6 75 l7 37 -692 0 -692 0 3 -77z"/>
<path d="M9250 2010 l0 -230 710 0 710 0 0 25 c0 20 5 25 25 25 21 0 25 5 25
30 0 25 4 30 25 30 23 0 25 4 25 45 0 41 2 45 25 45 21 0 25 5 25 30 0 25 4
30 25 30 23 0 25 3 25 50 0 47 2 50 25 50 20 0 25 5 25 25 0 20 5 25 25 25 20
0 25 5 25 25 l0 25 -860 0 -860 0 0 -230z"/>
<path d="M11340 2115 c0 -118 1 -125 20 -125 18 0 20 -8 22 -102 l3 -103 665
-3 c366 -2 684 0 707 3 41 6 42 7 49 51 5 38 10 44 30 44 20 0 24 5 24 30 0
25 4 30 25 30 20 0 25 5 25 25 0 20 5 25 25 25 23 0 25 3 25 50 0 47 2 50 25
50 20 0 25 5 25 25 0 20 5 25 25 25 20 0 25 5 25 25 0 20 5 25 25 25 20 0 25
5 25 25 l0 25 -885 0 -885 0 0 -125z"/>
</g>
</svg>
