<svg width="289" height="328" viewBox="0 0 289 328" fill="none" xmlns="http://www.w3.org/2000/svg">
<path d="M35.8067 68.4036H35.8057C15.9782 68.4439 0.5 53.8165 0.5 34.4926C0.5 15.1681 15.979 0.5 35.8067 0.5C56.0887 0.5 71.5494 15.1318 71.5494 34.4518C71.5494 53.7718 56.0887 68.4036 35.8067 68.4036Z" stroke="white"/>
<path d="M7.30314 100.414H64.7464C65.9759 100.414 66.9714 101.409 66.9714 102.635V325.279C66.9714 326.505 65.9759 327.5 64.7464 327.5H7.30314C6.07365 327.5 5.07812 326.505 5.07812 325.279V102.635C5.07812 101.409 6.07366 100.414 7.30314 100.414Z" stroke="white"/>
<path d="M116.195 0.5H173.624C174.215 0.5 174.781 0.734194 175.198 1.15085C175.615 1.56747 175.849 2.1324 175.849 2.72131V325.197C175.849 325.786 175.615 326.35 175.198 326.767C174.781 327.184 174.215 327.418 173.624 327.418H116.195C115.604 327.418 115.038 327.184 114.621 326.767C114.204 326.35 113.97 325.785 113.97 325.197V2.72131C113.97 2.1324 114.204 1.56747 114.621 1.15085C115.038 0.734194 115.604 0.5 116.195 0.5Z" stroke="white"/>
<path d="M225.154 100.414H282.597C283.827 100.414 284.822 101.409 284.822 102.635V325.279C284.822 326.505 283.827 327.5 282.597 327.5H225.154C223.925 327.5 222.929 326.505 222.929 325.279V102.635C222.929 101.409 223.925 100.414 225.154 100.414Z" stroke="white"/>
<path d="M222.103 0.541016H285.65C286.88 0.541016 287.875 1.53617 287.875 2.76233V66.2233C287.875 67.4494 286.88 68.4446 285.65 68.4446H222.103C220.873 68.4446 219.878 67.4494 219.878 66.2233V2.76233C219.878 1.53617 220.873 0.541016 222.103 0.541016Z" stroke="white"/>
</svg>
