<svg width="144" height="71" viewBox="0 0 144 71" fill="none" xmlns="http://www.w3.org/2000/svg">
<path d="M7.63725 53.038H4.35288C2.9053 53.038 1.87766 53.3453 1.27336 53.9598C0.665652 54.5744 0.365211 55.3903 0.365211 56.4043V59.0093H5.11764V57.0291C5.11764 56.8311 5.17227 56.6809 5.28152 56.5819C5.39077 56.4828 5.56147 56.4316 5.79705 56.4316H6.33989C6.57546 56.4316 6.74617 56.4828 6.85542 56.5819C6.96467 56.6809 7.01929 56.8311 7.01929 57.0291V58.8761C7.01929 59.4736 6.92711 59.9721 6.74617 60.3681C6.56522 60.7675 6.20332 61.2558 5.66048 61.8327L0.501776 67.3704V70.4636H11.6864V67.07H6.41841L9.78472 63.2974C10.4163 62.6112 10.8943 61.9386 11.2084 61.2899C11.5259 60.6378 11.683 59.8423 11.683 58.9V56.4009C11.683 55.3869 11.3723 54.5744 10.7475 53.9564C10.1227 53.3419 9.08824 53.0346 7.64066 53.0346L7.63725 53.038Z" fill="white"/>
<path d="M52.5669 53.0381H48.9548C47.5072 53.0381 46.4795 53.3454 45.8718 53.96C45.2641 54.5745 44.9637 55.3905 44.9637 56.4045V67.1008C44.9637 68.1148 45.2675 68.9274 45.8718 69.5453C46.4795 70.1599 47.5038 70.4671 48.9548 70.4671H52.5669C54.0145 70.4671 55.0421 70.1599 55.6498 69.5453C56.2575 68.9308 56.558 68.1148 56.558 67.1008V56.4045C56.558 55.3905 56.2541 54.5779 55.6498 53.96C55.0421 53.3454 54.0179 53.0381 52.5669 53.0381ZM52.4371 66.4761C52.4371 66.6741 52.3518 66.8243 52.1777 66.9233C52.0035 67.0223 51.727 67.0735 51.3515 67.0735H50.177C49.8015 67.0735 49.5249 67.0223 49.3508 66.9233C49.1767 66.8243 49.0913 66.6741 49.0913 66.4761V57.0292C49.0913 56.8312 49.1767 56.681 49.3508 56.582C49.5249 56.483 49.8015 56.4318 50.177 56.4318H51.3515C51.727 56.4318 52.0035 56.483 52.1777 56.582C52.3518 56.681 52.4371 56.8312 52.4371 57.0292V66.4761Z" fill="white"/>
<path d="M96.6532 53.0381H89.3231V56.7015H95.2876L90.163 70.4671H95.0793L100.371 55.6158V53.0381H99.3401H96.6532Z" fill="white"/>
<path d="M143.741 60.3682C143.911 59.8425 144 59.2279 144 58.5212V56.4045C144 55.3905 143.696 54.5779 143.092 53.96C142.484 53.3454 141.46 53.0381 140.009 53.0381H136.67C135.222 53.0381 134.195 53.3454 133.587 53.96C132.979 54.5745 132.679 55.3905 132.679 56.4045V58.7397H137.431V57.0292C137.431 56.8312 137.486 56.681 137.595 56.582C137.704 56.483 137.875 56.4318 138.111 56.4318H138.654C138.889 56.4318 139.06 56.483 139.169 56.582C139.278 56.681 139.333 56.8312 139.333 57.0292V59.4737C139.333 59.6717 139.278 59.822 139.169 59.921C139.06 60.02 138.889 60.0712 138.654 60.0712H136.455V63.1917H138.654C138.889 63.1917 139.06 63.2429 139.169 63.3419C139.278 63.4409 139.333 63.5911 139.333 63.7891V66.4761C139.333 66.6741 139.278 66.8243 139.169 66.9233C139.06 67.0223 138.889 67.0735 138.654 67.0735H138.111C137.875 67.0735 137.704 67.0223 137.595 66.9233C137.486 66.8243 137.431 66.6741 137.431 66.4761V64.7656H132.679V67.1008C132.679 68.1148 132.983 68.9274 133.587 69.5453C134.195 70.1599 135.219 70.4671 136.67 70.4671H140.009C141.457 70.4671 142.484 70.1599 143.092 69.5453C143.7 68.9308 144 68.1148 144 67.1008V64.3866C144 63.7004 143.915 63.12 143.741 62.6488C143.57 62.1777 143.222 61.826 142.696 61.5905C143.222 61.3003 143.57 60.894 143.741 60.3682Z" fill="white"/>
<path d="M58.05 0.122925H54.4277L47.0771 17.6714L40.0167 19.1531L45.65 21.0821H45.6466L54.3935 23.9329L56.261 19.119L58.5826 25.2985L70.1803 29.0847L58.05 0.122925Z" fill="white"/>
<path d="M34.0762 48.702H45.4213L52.9255 27.9921L43.9771 25.0731L34.0762 48.702Z" fill="white"/>
<path d="M60.5082 30.4639L67.1179 48.7021H78.3981L72.3722 34.3184L60.5082 30.4639Z" fill="white"/>
<path d="M131.33 25.0731L122.382 27.9921L129.883 48.702H141.228L131.33 25.0731Z" fill="white"/>
<path d="M96.9059 48.7021H108.19L114.796 30.4639L102.932 34.3184L96.9059 48.7021Z" fill="white"/>
<path d="M83.2768 37.9067V48.4153H91.9452V37.9306L87.5171 39.3407L83.2768 37.9067Z" fill="white"/>
<path d="M110.504 0.122925H64.9841L68.4289 8.25531H83.2768V33.366L87.5171 34.8034L91.9452 33.3592V8.25531H107.117L110.504 0.122925Z" fill="white"/>
<path d="M27.5825 0H0L0.0546256 8.35089H15.5785L13.9159 10.1228L13.0862 11.0071L11.3758 12.8302H0.0853525L0.157049 24.0626L0.0853525 35.295H19.3887L22.1404 28.8799H26.053L26.7529 28.8765L22.079 39.7777H0.0546256L0 48.1286H27.5825L37.8078 24.2708L27.5825 0ZM5.71179 24.8205L11.7411 18.3918L14.5236 24.8103L5.70838 24.8205H5.71179ZM16.9783 24.8069L13.4208 16.6028L15.0972 14.8138L19.4296 24.8034H16.9783V24.8069ZM21.8844 24.8L16.7769 13.0248L23.1305 6.25463L24.6874 9.84285L22.8164 10.6554L24.4313 14.3836L26.3022 13.5711L27.9308 17.3232L26.0598 18.1357L27.6747 21.8639L29.5456 21.0513L31.1673 24.7932L21.8844 24.8034V24.8Z" fill="white"/>
<path d="M135.291 19.1531L128.039 17.2173L120.876 0.122925H117.254L105.124 29.0847L116.721 25.2985L119.046 19.119L120.91 23.9329L129.657 21.0821L135.291 19.1531Z" fill="white"/>
</svg>
