<svg xmlns:xlink="http://www.w3.org/1999/xlink" width="66" height="66" viewBox="0 0 66 66" fill="none" xmlns="http://www.w3.org/2000/svg"><g id="logo" fill="none"><circle id="Ellipse 2" cx="33" cy="33" r="33" fill="#00A572"></circle><g id="Group 12" fill="none"><path id="Vector" d="M38.4646 42.1948C38.4646 43.0312 38.4646 43.8495 38.4646 44.6677C38.4646 45.1223 38.3176 45.3805 37.9611 45.5296C37.5679 45.6932 37.1049 45.6059 36.8219 45.3186C36.6786 45.1732 36.6125 44.9986 36.6088 44.795C36.5978 43.9586 36.5867 43.1222 36.572 42.2894C36.572 42.2603 36.5684 42.2312 36.5647 42.2021C35.5982 42.2021 34.6428 42.2021 33.6947 42.2021C33.6947 42.8203 33.6947 43.424 33.6947 44.024C33.6947 44.2495 33.691 44.4713 33.7094 44.6968C33.7682 45.4023 33.0957 45.7187 32.5555 45.6023C32.0924 45.5005 31.8462 45.195 31.8462 44.7222C31.8426 43.8931 31.8462 43.064 31.8462 42.2203C30.8467 42.2203 29.8876 42.2203 28.9174 42.2203C28.9174 42.4458 28.9137 42.6603 28.9174 42.8749C28.9248 43.4931 28.9395 44.1113 28.9468 44.7295C28.9542 45.3223 28.5279 45.6968 27.9289 45.635C27.4107 45.5805 27.0984 45.2459 27.091 44.7331C27.08 43.9331 27.069 43.1331 27.0616 42.3367C27.0616 42.3076 27.058 42.2785 27.0543 42.2203C26.8448 42.2203 26.639 42.2203 26.4333 42.2203C26.0364 42.2203 25.6358 42.2312 25.2389 42.2239C25.0956 42.2203 25.0405 42.2639 25.0111 42.4021C24.8531 43.144 24.5224 43.8095 24.0079 44.3768C22.5931 45.9441 20.3698 46.0241 18.8338 44.5695C17.136 42.9621 16.967 40.0856 18.4663 38.3073C19.9656 36.5254 22.4975 36.5145 24.0152 38.2855C24.4893 38.8383 24.8127 39.471 24.9891 40.1765C25.0111 40.2638 25.0332 40.3329 25.1471 40.3329C25.7461 40.3293 26.3451 40.3293 26.9441 40.3256C26.9624 40.3256 26.9808 40.3184 27.0175 40.3111C27.0175 40.0456 27.0212 39.7729 27.0175 39.5038C27.0102 38.9365 27.0212 38.3655 26.9881 37.7982C26.9514 37.18 27.4953 36.8709 27.9914 36.9036C28.5316 36.9364 28.8439 37.2818 28.8513 37.8164C28.8623 38.6092 28.8733 39.402 28.8843 40.1984C28.8843 40.2347 28.888 40.2675 28.8917 40.3111C29.8545 40.3111 30.8099 40.3111 31.7727 40.3111C31.7727 39.882 31.7764 39.4638 31.7727 39.0492C31.7691 38.6383 31.7764 38.2237 31.7433 37.8128C31.6882 37.1255 32.3423 36.8382 32.7943 36.8927C33.3051 36.9545 33.6028 37.2891 33.6065 37.7982C33.6138 38.5619 33.6248 39.3219 33.6395 40.0856C33.6395 40.1511 33.6469 40.2165 33.6506 40.2965C34.6097 40.2965 35.5615 40.2965 36.5279 40.2965C36.5279 39.9583 36.5316 39.6274 36.5279 39.2965C36.5243 38.7983 36.5132 38.3037 36.5059 37.8055C36.4985 37.1727 37.002 36.7654 37.6377 36.8927C38.0934 36.9836 38.3543 37.2964 38.3617 37.7619C38.3727 38.5437 38.3837 39.3256 38.3984 40.1038C38.3984 40.162 38.4021 40.2202 38.4058 40.2965C38.7181 40.2965 39.0158 40.2965 39.3171 40.2965C39.9418 40.2965 40.5665 40.2893 41.1913 40.2929C41.3125 40.2929 41.3566 40.2565 41.386 40.1402C41.6322 39.0747 42.1541 38.1764 43.0728 37.5437C44.4582 36.5873 46.1853 36.7182 47.4678 37.8528C49.2758 39.4492 49.4743 42.453 47.8978 44.2531C46.3507 46.0169 43.8077 45.9732 42.3231 44.1549C41.8784 43.6095 41.5771 42.9912 41.4044 42.3148C41.3897 42.2639 41.3162 42.1912 41.2721 42.1912C40.3497 42.1876 39.4237 42.1912 38.5013 42.1948C38.4866 42.1839 38.4682 42.1912 38.4646 42.1948Z" fill="#191A1C"></path><path id="Vector_2" d="M39.2308 27.2704C39.2308 25.4449 39.5763 24.1175 40.3663 22.9247C41.3218 21.4774 42.6337 20.5355 44.4123 20.3719C45.8087 20.2446 47.0435 20.681 48.1165 21.5647C49.241 22.492 49.9613 23.6739 50.3251 25.0667C50.8579 27.1141 50.6337 29.0742 49.5166 30.8924C48.7522 32.1362 47.6829 33.0453 46.2277 33.4017C44.2102 33.8962 42.5124 33.2671 41.1234 31.8052C39.8151 30.4306 39.2529 28.7432 39.2308 27.2704Z" fill="#191A1C"></path><path id="right" d="M43 26.6177C43 25.9272 43.1215 25.4251 43.3995 24.9739C43.7356 24.4264 44.1972 24.0701 44.8229 24.0082C45.3142 23.9601 45.7485 24.1251 46.126 24.4594C46.5216 24.8102 46.775 25.2573 46.903 25.7841C47.0905 26.5586 47.0116 27.3 46.6186 27.9878C46.3497 28.4583 45.9735 28.8022 45.4615 28.937C44.7518 29.1241 44.1545 28.8861 43.6658 28.3331C43.2056 27.8131 43.0078 27.1749 43 26.6177Z" fill="#00A572"></path><path id="Vector_3" d="M26.7736 26.8087C26.7442 28.8888 26.2298 30.5071 25.0061 31.849C23.9734 32.98 22.6946 33.6309 21.1291 33.6164C19.6482 33.6018 18.4098 33.0018 17.3955 31.9617C16.1755 30.7217 15.5545 29.2052 15.4259 27.4924C15.2899 25.7141 15.7125 24.074 16.7819 22.6267C17.5095 21.6375 18.4539 20.9211 19.6555 20.5902C21.3533 20.1247 22.893 20.5029 24.2491 21.5866C25.4507 22.5467 26.182 23.8122 26.5348 25.285C26.6781 25.8741 26.7259 26.4887 26.7736 26.8087Z" fill="#191A1C"></path><path id="left" d="M19 26.6177C19 25.9272 19.1215 25.4251 19.3995 24.9739C19.7356 24.4264 20.1972 24.0701 20.8229 24.0082C21.3142 23.9601 21.7485 24.1251 22.126 24.4594C22.5216 24.8102 22.775 25.2573 22.903 25.7841C23.0905 26.5586 23.0116 27.3 22.6186 27.9878C22.3497 28.4583 21.9735 28.8022 21.4615 28.937C20.7518 29.1241 20.1545 28.8861 19.6658 28.3331C19.2056 27.8131 19.0078 27.1749 19 26.6177Z" fill="#00A572"></path><path id="Vector_4" d="M31.8793 27.6487C31.8793 28.7361 31.8757 29.827 31.8793 30.9144C31.8793 31.5035 31.4972 31.9035 30.9018 31.9108C30.4498 31.9144 29.9978 31.9144 29.5422 31.9144C28.8403 31.9108 28.4067 31.3871 28.55 30.7071C28.8072 29.4852 29.0681 28.267 29.329 27.0487C29.5238 26.1359 29.7186 25.2232 29.906 24.3104C29.9684 24.0085 30.0677 23.7358 30.3433 23.5649C30.6336 23.3794 30.9423 23.3576 31.251 23.514C31.5817 23.6813 31.7728 23.9613 31.7764 24.3286C31.7875 25.4377 31.7801 26.5432 31.7801 27.6524C31.8132 27.6487 31.8463 27.6487 31.8793 27.6487Z" fill="#191A1C"></path><path id="Vector_5" d="M33.1813 27.6522C33.1813 26.5612 33.1813 25.4739 33.1813 24.3829C33.1813 24.0084 33.3283 23.7102 33.659 23.5211C33.9603 23.3501 34.269 23.361 34.5667 23.532C34.8019 23.6665 34.9489 23.8738 35.0113 24.132C35.4045 25.7612 35.7977 27.3904 36.1909 29.0232C36.3269 29.5868 36.4629 30.1541 36.6025 30.7178C36.7569 31.3324 36.3269 31.8924 35.6875 31.8997C35.2098 31.907 34.732 31.907 34.258 31.907C33.7031 31.9033 33.2878 31.5069 33.2842 30.9578C33.2768 29.8559 33.2805 28.7577 33.2805 27.6558C33.2474 27.6522 33.2143 27.6522 33.1813 27.6522Z" fill="#191A1C"></path></g></g></svg>