<svg id="svg" version="1.1" xmlns="http://www.w3.org/2000/svg" xmlns:xlink="http://www.w3.org/1999/xlink" width="400" height="400" viewBox="0, 0, 400,400"><g id="svgg"><path id="path0" d="M138.053 223.642 C 124.674 225.498,122.854 247.340,135.742 251.385 C 143.106 253.697,151.191 249.936,152.262 243.701 L 152.387 242.969 149.662 242.969 L 146.937 242.969 146.708 243.731 C 145.457 247.906,138.195 248.946,134.749 245.443 C 131.948 242.595,131.261 236.252,133.315 232.199 C 136.034 226.832,144.248 226.516,146.490 231.692 L 146.973 232.806 149.658 232.809 C 152.711 232.813,152.554 232.935,151.935 231.038 C 150.192 225.699,144.621 222.731,138.053 223.642 M167.578 223.616 C 158.994 224.841,154.018 233.557,156.642 242.770 C 159.150 251.578,170.467 255.286,176.270 249.201 C 177.480 247.933,177.460 247.921,177.640 250.049 L 177.768 251.563 180.095 251.563 L 182.422 251.563 182.422 244.043 L 182.422 236.523 176.360 236.523 L 170.298 236.523 170.354 238.330 L 170.410 240.137 173.898 240.190 L 177.386 240.244 177.250 240.966 C 175.516 250.209,162.892 249.894,161.319 240.569 C 160.512 235.784,162.056 231.125,165.041 229.341 C 168.938 227.012,174.795 228.213,176.020 231.592 L 176.250 232.227 179.047 232.227 L 181.843 232.227 181.723 231.689 C 180.517 226.288,174.183 222.673,167.578 223.616 M104.102 225.977 L 104.102 227.930 108.105 227.930 L 112.109 227.930 112.109 239.746 L 112.109 251.563 114.549 251.563 L 116.989 251.563 117.039 239.795 L 117.090 228.027 121.143 227.975 L 125.195 227.922 125.195 225.973 L 125.195 224.023 114.648 224.023 L 104.102 224.023 104.102 225.977 M175.888 267.131 C 175.653 269.415,175.707 269.336,174.393 269.336 L 173.242 269.336 173.242 270.703 L 173.242 272.070 174.414 272.070 L 175.586 272.070 175.586 274.729 L 175.586 277.388 176.843 279.306 C 178.683 282.115,178.563 282.031,180.762 282.031 L 182.617 282.031 182.617 280.664 L 182.617 279.297 181.293 279.297 C 179.092 279.297,179.102 279.315,179.102 275.380 L 179.102 272.070 180.859 272.070 L 182.617 272.070 182.617 270.703 L 182.617 269.336 180.867 269.336 L 179.117 269.336 179.060 267.627 L 179.004 265.918 177.514 265.861 L 176.024 265.805 175.888 267.131 M139.281 269.151 C 138.354 269.339,137.700 269.696,136.871 270.466 C 136.307 270.991,136.290 270.979,136.048 269.873 C 135.932 269.345,135.904 269.336,134.469 269.336 L 133.008 269.336 133.008 275.684 L 133.008 282.031 134.651 282.031 L 136.293 282.031 136.362 278.076 C 136.444 273.324,136.783 272.417,138.676 271.874 C 141.485 271.068,142.383 272.680,142.383 278.525 L 142.383 282.031 144.029 282.031 L 145.675 282.031 145.738 277.979 C 145.819 272.760,146.301 271.812,148.878 271.803 C 151.145 271.795,151.562 272.754,151.562 277.979 L 151.563 282.031 153.343 282.031 L 155.124 282.031 155.031 277.588 C 154.930 272.792,154.800 272.084,153.777 270.742 C 152.093 268.534,147.286 268.510,145.444 270.699 L 144.971 271.261 144.312 270.567 C 143.145 269.338,141.138 268.773,139.281 269.151 M163.408 269.144 C 156.451 270.360,155.978 280.182,162.783 282.138 C 166.136 283.102,171.094 280.771,171.094 278.230 C 171.094 277.808,167.707 278.157,167.345 278.617 C 165.750 280.645,161.910 279.716,161.403 277.181 L 161.279 276.563 166.382 276.563 L 171.484 276.563 171.476 275.244 C 171.449 271.107,167.831 268.371,163.408 269.144 M190.404 269.135 C 187.971 269.570,186.298 270.914,185.731 272.889 L 185.574 273.438 187.272 273.438 C 188.825 273.438,188.986 273.401,189.163 273.013 C 190.204 270.723,194.531 271.529,194.531 274.014 L 194.531 274.609 192.131 274.609 C 187.452 274.609,185.353 275.836,185.352 278.572 C 185.351 282.256,190.859 283.877,193.788 281.055 C 194.808 280.071,194.811 280.072,194.965 281.445 C 195.017 281.914,195.080 281.936,196.552 281.991 L 198.084 282.048 198.009 277.499 C 197.926 272.409,197.835 271.991,196.532 270.653 C 195.319 269.409,192.619 268.740,190.404 269.135 M218.794 269.163 C 212.402 270.227,211.225 279.078,217.117 281.776 C 220.399 283.278,224.435 282.078,226.044 279.122 L 226.587 278.125 224.821 278.125 C 223.171 278.125,223.036 278.156,222.747 278.596 C 221.394 280.661,217.528 279.803,216.833 277.285 L 216.635 276.569 221.745 276.517 L 226.855 276.465 226.842 275.098 C 226.811 272.052,224.772 269.747,221.587 269.158 C 220.304 268.921,220.244 268.921,218.794 269.163 M236.943 269.155 C 235.829 269.374,234.546 270.139,233.825 271.015 L 233.246 271.717 233.108 270.526 L 232.969 269.336 231.426 269.336 L 229.883 269.336 229.883 275.684 L 229.883 282.031 231.629 282.031 L 233.375 282.031 233.436 278.236 C 233.513 273.354,233.899 272.722,236.930 272.505 L 238.281 272.408 238.281 270.677 C 238.281 269.410,238.216 268.951,238.037 268.967 C 237.903 268.978,237.410 269.063,236.943 269.155 M244.308 269.136 C 240.972 269.731,239.288 272.918,241.243 274.935 C 241.966 275.682,243.148 276.168,245.679 276.763 C 247.712 277.240,248.291 277.607,248.291 278.419 C 248.291 280.207,244.554 280.455,243.660 278.726 C 243.295 278.019,240.039 277.748,240.039 278.424 C 240.039 283.007,250.093 283.848,251.565 279.388 C 252.399 276.859,251.141 275.513,246.951 274.456 C 244.462 273.828,243.750 273.449,243.750 272.754 C 243.750 271.373,246.930 271.079,247.783 272.381 C 248.170 272.972,251.172 273.122,251.172 272.551 C 251.172 270.343,247.574 268.553,244.308 269.136 M259.961 269.131 C 251.866 270.595,253.083 282.422,261.328 282.422 C 264.014 282.422,267.578 280.126,267.578 278.397 C 267.578 277.688,264.446 278.053,263.622 278.857 C 262.100 280.344,259.061 279.781,258.185 277.851 C 257.565 276.488,257.293 276.563,262.882 276.563 L 267.951 276.563 268.077 275.893 C 268.813 271.969,264.435 268.321,259.961 269.131 M200.195 275.684 L 200.195 282.031 201.847 282.031 L 203.500 282.031 208.514 276.025 C 211.272 272.722,213.663 269.866,213.826 269.678 C 214.106 269.355,214.009 269.336,212.091 269.340 L 210.059 269.344 206.836 273.434 C 203.659 277.467,203.291 277.872,203.424 277.197 C 203.461 277.009,203.539 275.164,203.597 273.096 L 203.702 269.336 201.949 269.336 L 200.195 269.336 200.195 275.684 M166.739 272.193 C 167.359 272.656,167.888 273.367,168.063 273.975 L 168.190 274.414 164.757 274.414 L 161.323 274.414 161.623 273.697 C 162.402 271.832,165.167 271.019,166.739 272.193 M221.871 272.022 C 222.606 272.391,223.438 273.469,223.438 274.052 C 223.438 274.390,223.219 274.414,220.117 274.414 C 216.447 274.414,216.442 274.412,217.242 273.225 C 218.194 271.813,220.343 271.254,221.871 272.022 M263.064 272.059 C 263.856 272.463,264.356 273.078,264.563 273.905 L 264.691 274.414 261.349 274.414 C 257.629 274.414,257.617 274.409,258.403 273.137 C 259.226 271.805,261.524 271.274,263.064 272.059 M194.273 277.264 C 193.909 279.509,190.669 280.784,189.318 279.213 C 187.971 277.648,189.217 276.638,192.555 276.589 L 194.387 276.563 194.273 277.264 " stroke="none" fill="#f7f7f7" fill-rule="evenodd"></path><path id="path1" d="M202.311 96.098 C 181.677 99.580,179.048 138.706,197.566 166.699 C 216.970 196.030,243.466 189.262,243.442 154.980 C 243.421 124.566,221.297 92.894,202.311 96.098 M208.615 100.605 C 229.783 106.471,246.357 148.333,236.533 171.119 C 225.664 196.331,193.528 169.788,189.551 132.314 C 187.331 111.396,195.932 97.090,208.615 100.605 M266.406 237.500 L 266.406 251.563 268.848 251.563 L 271.289 251.563 271.289 237.500 L 271.289 223.438 268.848 223.438 L 266.406 223.438 266.406 237.500 M291.406 229.143 L 291.406 234.849 290.479 233.963 C 285.821 229.515,277.827 232.190,276.072 238.784 C 273.551 248.256,283.636 256.213,290.268 249.986 C 290.832 249.457,291.309 249.023,291.328 249.023 C 291.347 249.023,291.470 249.595,291.602 250.293 L 291.841 251.563 293.967 251.563 L 296.094 251.563 296.094 237.500 L 296.094 223.438 293.750 223.438 L 291.406 223.438 291.406 229.143 M191.330 229.053 C 192.017 231.711,193.604 237.864,194.856 242.725 L 197.133 251.563 200.022 251.563 L 202.911 251.563 203.082 250.928 C 203.175 250.579,204.387 246.057,205.775 240.881 C 207.163 235.704,208.354 231.573,208.421 231.701 C 208.489 231.829,209.573 235.889,210.829 240.723 C 212.085 245.557,213.245 249.973,213.406 250.537 L 213.700 251.563 216.581 251.563 L 219.463 251.563 223.015 238.135 C 224.968 230.750,226.566 224.597,226.565 224.463 C 226.563 224.280,225.925 224.219,224.033 224.219 L 221.503 224.219 221.334 224.854 C 221.242 225.203,220.161 230.073,218.933 235.678 C 217.704 241.282,216.637 245.757,216.562 245.623 C 216.486 245.490,215.318 240.948,213.965 235.532 C 212.612 230.115,211.418 225.354,211.311 224.951 L 211.118 224.219 208.500 224.219 C 207.060 224.219,205.842 224.285,205.792 224.365 C 205.743 224.446,204.460 229.297,202.943 235.146 C 201.425 240.995,200.156 245.808,200.121 245.842 C 200.087 245.876,199.115 241.618,197.960 236.380 C 196.806 231.141,195.728 226.262,195.566 225.537 L 195.270 224.219 192.676 224.219 L 190.081 224.219 191.330 229.053 M234.375 232.204 C 224.592 235.367,225.558 250.391,235.645 251.963 C 242.686 253.061,248.304 246.606,246.599 239.376 C 245.289 233.819,239.637 230.503,234.375 232.204 M260.520 232.142 C 259.289 232.521,257.879 233.525,256.904 234.719 L 256.092 235.711 255.986 235.092 C 255.928 234.751,255.821 233.967,255.750 233.350 L 255.619 232.227 253.493 232.227 L 251.367 232.227 251.367 241.895 L 251.367 251.563 253.690 251.563 L 256.014 251.563 256.101 246.240 C 256.228 238.480,256.838 237.396,261.230 237.121 L 262.988 237.012 263.043 234.424 L 263.097 231.836 262.262 231.850 C 261.802 231.857,261.018 231.989,260.520 232.142 M239.237 236.647 C 242.953 238.499,242.903 245.372,239.160 247.317 C 236.317 248.794,233.193 246.863,232.619 243.276 C 231.814 238.237,235.340 234.705,239.237 236.647 M288.404 236.680 C 293.530 239.308,291.745 247.669,286.062 247.652 C 282.668 247.642,280.762 245.572,280.762 241.895 C 280.762 237.420,284.659 234.760,288.404 236.680 " stroke="none" fill="#33cc56" fill-rule="evenodd"></path><path id="path2" d="M0.000 200.000 L 0.000 400.000 200.000 400.000 L 400.000 400.000 400.000 200.000 L 400.000 0.000 200.000 0.000 L 0.000 0.000 0.000 200.000 M207.859 96.188 C 230.886 100.203,250.356 143.223,241.340 170.161 C 233.223 194.412,207.570 188.421,193.065 158.887 C 177.575 127.345,185.833 92.347,207.859 96.188 M203.037 100.211 C 185.646 102.834,184.545 139.681,201.114 164.578 C 218.128 190.144,239.343 184.868,239.317 155.078 C 239.294 127.669,219.496 97.728,203.037 100.211 M186.684 102.295 C 185.274 105.363,183.844 107.867,183.315 108.194 C 175.258 113.174,172.382 130.845,176.781 148.340 C 182.529 171.201,199.326 189.622,211.786 186.731 C 212.420 186.583,212.728 186.642,213.763 187.107 C 214.438 187.409,215.616 187.859,216.382 188.105 C 218.032 188.637,218.028 188.628,216.846 189.285 C 203.002 196.975,183.251 181.129,174.453 155.273 C 166.845 132.914,170.391 110.144,182.472 103.796 C 184.379 102.794,186.861 101.909,186.684 102.295 M202.874 106.133 C 221.931 118.745,233.813 152.871,226.980 175.365 C 226.587 176.657,225.750 177.027,223.494 176.904 C 221.956 176.820,221.978 176.855,222.535 175.372 C 230.099 155.234,217.438 119.038,199.268 108.854 C 198.596 108.477,198.047 108.092,198.047 107.998 C 198.047 107.435,200.851 105.006,201.311 105.171 C 201.441 105.218,202.145 105.650,202.874 106.133 M171.303 109.668 C 170.895 110.366,170.236 111.706,169.837 112.646 C 169.227 114.086,168.963 114.472,168.160 115.095 C 166.052 116.729,163.706 120.604,162.424 124.570 C 153.954 150.771,174.266 192.833,195.410 192.878 C 198.674 192.885,198.758 192.896,200.328 193.510 C 201.206 193.853,202.327 194.242,202.818 194.373 C 203.981 194.684,203.963 194.725,202.295 195.549 C 193.987 199.655,183.520 196.115,174.466 186.138 C 152.378 161.797,149.883 117.223,170.149 108.991 C 172.105 108.197,172.148 108.222,171.303 109.668 M199.834 122.902 C 207.460 132.902,212.682 146.098,214.385 159.668 C 214.743 162.526,214.884 171.416,214.589 172.516 C 214.408 173.189,214.377 173.173,212.220 171.301 L 210.547 169.848 210.547 166.852 C 210.547 151.654,204.213 134.315,194.555 123.079 L 193.492 121.841 193.822 119.486 C 194.004 118.190,194.210 117.038,194.280 116.924 C 194.462 116.631,197.754 120.175,199.834 122.902 M143.652 223.730 C 148.129 224.667,151.598 228.091,152.409 232.373 L 152.529 233.008 149.738 233.008 L 146.947 233.008 146.490 231.906 C 144.929 228.139,139.718 226.871,135.891 229.327 C 131.478 232.158,130.882 241.450,134.857 245.429 C 138.183 248.757,145.214 247.856,146.520 243.935 L 146.809 243.066 149.674 243.012 C 151.250 242.983,152.539 242.989,152.539 243.026 C 152.539 243.063,152.397 243.571,152.224 244.154 C 148.951 255.178,131.746 254.840,127.906 243.675 C 123.831 231.831,132.130 221.319,143.652 223.730 M173.145 223.730 C 177.262 224.592,181.087 228.080,181.763 231.592 L 181.885 232.227 179.064 232.227 L 176.244 232.227 175.929 231.566 C 173.629 226.742,164.993 227.192,162.443 232.269 C 160.763 235.613,160.820 240.645,162.573 243.845 C 166.030 250.156,177.148 247.758,177.148 240.702 L 177.148 240.234 173.730 240.234 L 170.313 240.234 170.313 238.281 L 170.313 236.328 176.367 236.328 L 182.422 236.328 182.422 244.043 L 182.422 251.758 180.095 251.758 L 177.769 251.758 177.662 251.025 C 177.603 250.623,177.501 249.845,177.435 249.297 L 177.315 248.302 176.196 249.421 C 170.077 255.540,158.846 251.487,156.422 242.285 C 153.430 230.923,162.012 221.401,173.145 223.730 M271.289 237.500 L 271.289 251.563 268.848 251.563 L 266.406 251.563 266.406 237.500 L 266.406 223.438 268.848 223.438 L 271.289 223.438 271.289 237.500 M296.289 237.500 L 296.289 251.563 294.059 251.563 L 291.829 251.563 291.618 250.576 C 291.501 250.034,291.406 249.454,291.406 249.287 C 291.406 249.098,290.986 249.369,290.283 250.012 C 282.582 257.063,271.864 246.151,276.994 236.482 C 279.559 231.646,286.803 230.208,290.413 233.818 L 291.211 234.616 291.211 229.027 L 291.211 223.438 293.750 223.438 L 296.289 223.438 296.289 237.500 M125.195 225.977 L 125.195 228.125 121.191 228.125 L 117.188 228.125 117.188 239.941 L 117.188 251.758 114.648 251.758 L 112.109 251.758 112.109 239.941 L 112.109 228.125 108.105 228.125 L 104.102 228.125 104.102 225.977 L 104.102 223.828 114.648 223.828 L 125.195 223.828 125.195 225.977 M195.385 224.561 C 195.439 224.749,196.514 229.589,197.774 235.318 C 199.034 241.047,200.124 245.617,200.196 245.474 C 200.269 245.332,201.547 240.491,203.036 234.717 L 205.744 224.219 208.424 224.219 L 211.105 224.219 211.401 225.244 C 211.564 225.808,212.759 230.532,214.057 235.742 C 215.356 240.952,216.470 245.347,216.534 245.508 C 216.597 245.669,217.721 240.967,219.030 235.059 L 221.410 224.316 224.070 224.262 L 226.729 224.208 226.557 224.848 C 225.677 228.122,219.531 251.426,219.531 251.490 C 219.531 251.535,218.195 251.548,216.562 251.519 L 213.594 251.465 211.028 241.650 C 209.617 236.252,208.421 231.794,208.370 231.743 C 208.319 231.691,207.161 235.800,205.798 240.874 C 204.434 245.947,203.227 250.427,203.115 250.830 L 202.911 251.563 199.998 251.563 L 197.085 251.563 196.895 250.830 C 196.791 250.427,195.246 244.429,193.463 237.500 C 191.680 230.571,190.174 224.749,190.117 224.561 C 190.021 224.247,190.229 224.219,192.649 224.219 C 194.993 224.219,195.297 224.257,195.385 224.561 M240.289 232.242 C 248.498 234.984,249.287 247.409,241.488 251.113 C 234.720 254.327,227.539 249.631,227.539 241.992 C 227.539 234.886,233.823 230.081,240.289 232.242 M263.086 234.473 L 263.086 237.109 261.628 237.109 C 257.046 237.109,256.250 238.481,256.250 246.376 L 256.250 251.563 253.711 251.563 L 251.172 251.563 251.172 241.895 L 251.172 232.227 253.396 232.227 L 255.620 232.227 255.740 233.105 C 256.142 236.055,256.069 235.812,256.400 235.312 C 257.754 233.273,260.055 231.891,262.158 231.853 L 263.086 231.836 263.086 234.473 M235.442 236.500 C 231.494 238.293,231.631 246.136,235.634 247.457 C 238.529 248.413,241.250 246.601,241.798 243.353 C 242.609 238.545,239.149 234.816,235.442 236.500 M284.320 236.401 C 281.840 237.328,280.506 239.534,280.709 242.371 C 281.234 249.714,291.295 249.354,291.295 241.992 C 291.295 237.911,287.791 235.103,284.320 236.401 M179.102 267.578 L 179.102 269.336 180.957 269.336 L 182.813 269.336 182.813 270.703 L 182.813 272.070 180.944 272.070 L 179.076 272.070 179.138 275.381 C 179.210 279.249,179.145 279.125,181.142 279.254 L 182.617 279.348 182.617 280.787 L 182.617 282.227 180.886 282.227 C 178.742 282.227,178.590 282.123,176.855 279.492 L 175.586 277.567 175.586 274.819 L 175.586 272.070 174.414 272.070 L 173.242 272.070 173.242 270.703 L 173.242 269.336 174.394 269.336 L 175.546 269.336 175.678 267.920 C 175.884 265.700,175.776 265.820,177.552 265.820 L 179.102 265.820 179.102 267.578 M143.091 269.490 C 143.534 269.718,144.129 270.182,144.414 270.520 L 144.931 271.135 145.790 270.343 C 147.897 268.401,151.693 268.496,153.652 270.540 C 154.880 271.820,154.967 272.255,155.041 277.490 L 155.109 282.227 153.352 282.227 L 151.596 282.227 151.530 278.076 C 151.443 272.667,151.091 271.875,148.769 271.875 C 146.408 271.875,145.837 273.079,145.736 278.271 L 145.658 282.227 143.923 282.227 L 142.188 282.227 142.186 278.271 C 142.185 272.829,141.905 272.085,139.796 271.929 C 137.099 271.730,136.523 272.846,136.523 278.271 L 136.523 282.241 134.717 282.185 L 132.910 282.129 132.859 275.732 L 132.807 269.336 134.470 269.336 C 135.979 269.336,136.133 269.371,136.133 269.711 C 136.133 270.635,136.330 270.720,137.079 270.118 C 138.629 268.873,141.340 268.590,143.091 269.490 M167.808 269.478 C 170.029 270.473,171.477 272.603,171.638 275.113 L 171.731 276.563 166.516 276.563 L 161.302 276.563 161.439 277.002 C 161.758 278.025,161.911 278.278,162.571 278.856 C 163.849 279.979,165.991 279.909,167.125 278.707 C 167.658 278.142,167.728 278.125,169.494 278.125 L 171.313 278.125 170.771 279.122 C 168.242 283.768,160.811 283.544,158.457 278.751 C 155.659 273.052,161.921 266.842,167.808 269.478 M194.292 269.243 C 197.426 270.174,197.933 271.285,198.010 277.393 L 198.072 282.227 196.522 282.227 L 194.972 282.227 194.843 281.251 L 194.713 280.275 194.125 280.945 C 191.258 284.210,184.640 282.056,185.240 278.052 C 185.620 275.519,187.870 274.428,192.740 274.418 L 194.562 274.414 194.426 273.779 C 193.921 271.425,190.139 270.918,189.242 273.084 C 188.954 273.781,185.543 273.972,185.551 273.291 C 185.588 270.333,190.423 268.094,194.292 269.243 M223.251 269.561 C 225.634 270.656,226.781 272.340,226.917 274.949 L 227.002 276.563 221.875 276.563 L 216.748 276.563 216.869 277.165 C 217.352 279.584,220.971 280.562,222.540 278.698 C 222.987 278.166,226.563 277.750,226.563 278.230 C 226.563 278.288,226.383 278.688,226.164 279.117 C 223.705 283.937,215.594 283.426,213.657 278.329 C 211.433 272.475,217.508 266.923,223.251 269.561 M238.281 270.678 L 238.281 272.410 237.061 272.547 C 233.831 272.909,233.518 273.420,233.432 278.467 L 233.369 282.227 231.626 282.227 L 229.883 282.227 229.883 275.781 L 229.883 269.336 231.423 269.336 C 233.106 269.336,233.194 269.406,233.200 270.752 C 233.204 271.386,233.491 271.449,233.836 270.892 C 234.395 269.990,236.399 268.971,237.646 268.954 L 238.281 268.945 238.281 270.678 M248.023 269.249 C 249.594 269.716,251.341 271.575,251.363 272.803 C 251.374 273.459,248.265 273.099,247.571 272.363 C 246.360 271.079,243.395 271.622,243.847 273.045 C 243.990 273.497,244.571 273.735,247.208 274.425 C 251.613 275.576,252.951 277.537,251.207 280.284 C 248.804 284.068,239.901 282.490,239.848 278.271 C 239.840 277.616,243.264 277.778,243.593 278.449 C 244.604 280.512,248.693 280.144,248.165 278.038 C 248.030 277.503,247.612 277.324,244.959 276.668 C 241.122 275.719,239.868 274.479,240.442 272.201 C 241.098 269.595,244.598 268.232,248.023 269.249 M264.501 269.596 C 266.785 270.713,267.979 272.506,268.126 275.035 L 268.214 276.563 263.111 276.563 L 258.008 276.563 258.008 277.022 C 258.008 279.406,262.620 280.586,263.904 278.530 C 264.130 278.168,264.347 278.125,265.955 278.125 L 267.753 278.125 267.549 278.711 C 265.837 283.620,257.452 283.660,255.044 278.770 C 252.168 272.928,258.586 266.702,264.501 269.596 M203.642 273.384 C 203.533 276.762,203.555 277.384,203.772 277.143 C 203.915 276.985,205.374 275.164,207.015 273.096 L 209.998 269.336 212.046 269.336 C 213.173 269.336,214.066 269.406,214.030 269.491 C 213.994 269.576,211.598 272.477,208.706 275.936 L 203.447 282.227 201.723 282.227 L 200.000 282.227 200.000 275.781 L 200.000 269.336 201.886 269.336 L 203.773 269.336 203.642 273.384 M163.610 271.952 C 162.733 272.277,162.173 272.747,161.796 273.476 C 161.315 274.407,161.336 274.414,164.746 274.414 C 168.340 274.414,168.375 274.398,167.586 273.105 C 166.886 271.957,165.042 271.422,163.610 271.952 M219.131 271.905 C 218.191 272.156,217.451 272.801,217.091 273.682 L 216.792 274.414 220.115 274.414 C 221.942 274.414,223.438 274.367,223.438 274.310 C 223.438 272.652,221.139 271.369,219.131 271.905 M260.359 271.909 C 259.151 272.255,258.008 273.423,258.008 274.310 C 258.008 274.367,259.469 274.414,261.255 274.414 L 264.502 274.414 264.380 273.779 C 264.098 272.305,262.145 271.396,260.359 271.909 M190.039 276.896 C 188.546 277.445,188.747 279.330,190.336 279.688 C 192.137 280.094,194.336 278.577,194.336 276.929 C 194.336 276.746,190.528 276.716,190.039 276.896 " stroke="none" fill="#040404" fill-rule="evenodd"></path><path id="path3" d="M185.187 102.653 C 168.594 108.240,165.446 139.238,178.802 165.527 C 188.859 185.325,204.667 195.379,216.415 189.449 C 217.852 188.723,217.855 188.634,216.455 188.198 C 215.837 188.006,214.717 187.567,213.965 187.224 C 212.820 186.702,212.486 186.627,211.914 186.769 C 201.341 189.384,186.669 175.862,179.433 156.836 C 171.878 136.967,173.384 115.615,182.842 108.505 C 183.920 107.695,184.117 107.430,184.852 105.805 C 185.300 104.814,185.910 103.622,186.207 103.155 C 186.891 102.080,186.890 102.079,185.187 102.653 M199.971 106.008 C 199.066 106.735,197.932 107.973,198.071 108.081 C 198.112 108.112,198.716 108.477,199.414 108.891 C 217.782 119.782,229.835 154.044,222.683 175.033 L 222.106 176.726 223.038 176.854 C 225.642 177.212,226.567 176.660,227.213 174.363 C 233.504 151.996,221.589 118.657,202.845 106.175 C 201.212 105.088,201.121 105.083,199.971 106.008 M169.727 109.239 C 150.953 117.443,152.233 158.318,172.042 183.203 C 181.651 195.274,193.655 200.123,202.395 195.465 C 203.703 194.768,203.688 194.730,201.855 194.137 C 201.104 193.893,200.006 193.482,199.416 193.224 C 198.408 192.782,198.263 192.768,196.982 192.984 C 188.543 194.407,177.734 186.331,169.917 172.761 C 158.231 152.474,157.224 125.139,167.803 115.345 C 168.932 114.300,169.240 113.864,169.834 112.477 C 170.219 111.577,170.792 110.391,171.107 109.840 C 171.977 108.319,171.903 108.287,169.727 109.239 M194.164 117.773 C 194.042 118.364,193.861 119.506,193.761 120.310 C 193.556 121.965,193.319 121.478,195.809 124.512 C 204.530 135.134,210.380 151.667,210.629 166.398 L 210.687 169.807 211.747 170.792 C 212.329 171.334,213.170 172.065,213.615 172.417 L 214.424 173.056 214.559 171.973 C 214.789 170.131,214.528 161.051,214.171 158.496 C 211.980 142.818,205.537 128.752,195.651 118.066 L 194.386 116.699 194.164 117.773 " stroke="none" fill="#5835f6" fill-rule="evenodd"></path><path id="path4" d="M220.898 108.496 C 221.590 109.194,222.201 109.766,222.254 109.766 C 222.308 109.766,221.786 109.194,221.094 108.496 C 220.402 107.798,219.792 107.227,219.738 107.227 C 219.684 107.227,220.206 107.798,220.898 108.496 M181.338 109.814 L 180.566 110.645 181.396 109.872 C 181.853 109.448,182.227 109.074,182.227 109.042 C 182.227 108.895,182.056 109.042,181.338 109.814 M209.172 111.377 C 209.981 112.239,210.156 112.394,210.156 112.248 C 210.156 112.216,209.739 111.799,209.229 111.320 L 208.301 110.449 209.172 111.377 M185.010 126.074 C 185.012 126.504,185.052 126.657,185.099 126.414 C 185.146 126.171,185.144 125.819,185.095 125.632 C 185.046 125.446,185.008 125.645,185.010 126.074 M170.375 132.031 C 170.375 132.729,170.410 133.015,170.454 132.666 C 170.497 132.317,170.497 131.746,170.454 131.396 C 170.410 131.047,170.375 131.333,170.375 132.031 M156.306 135.645 C 156.307 136.182,156.345 136.378,156.390 136.081 C 156.435 135.784,156.434 135.345,156.387 135.105 C 156.341 134.865,156.304 135.107,156.306 135.645 M160.425 137.988 C 160.425 139.170,160.457 139.628,160.496 139.007 C 160.535 138.385,160.535 137.418,160.495 136.858 C 160.456 136.298,160.424 136.807,160.425 137.988 M156.311 140.332 C 156.312 140.977,156.348 141.217,156.392 140.866 C 156.435 140.515,156.434 139.987,156.390 139.694 C 156.345 139.400,156.309 139.688,156.311 140.332 M224.655 158.789 C 224.655 159.165,224.695 159.319,224.744 159.131 C 224.793 158.943,224.793 158.635,224.744 158.447 C 224.695 158.259,224.655 158.413,224.655 158.789 M224.659 163.379 C 224.661 163.809,224.701 163.961,224.748 163.718 C 224.794 163.475,224.792 163.124,224.744 162.937 C 224.695 162.750,224.656 162.949,224.659 163.379 M214.727 167.090 C 214.727 168.701,214.757 169.334,214.794 168.497 C 214.830 167.660,214.830 166.341,214.793 165.567 C 214.756 164.793,214.726 165.479,214.727 167.090 M210.614 167.090 C 210.615 167.949,210.649 168.276,210.690 167.817 C 210.731 167.358,210.731 166.655,210.689 166.255 C 210.647 165.855,210.613 166.230,210.614 167.090 M207.617 172.754 C 208.309 173.452,208.919 174.023,208.973 174.023 C 209.027 174.023,208.505 173.452,207.813 172.754 C 207.120 172.056,206.510 171.484,206.457 171.484 C 206.403 171.484,206.925 172.056,207.617 172.754 M178.809 184.766 C 179.338 185.303,179.814 185.742,179.868 185.742 C 179.922 185.742,179.533 185.303,179.004 184.766 C 178.475 184.229,177.998 183.789,177.944 183.789 C 177.891 183.789,178.280 184.229,178.809 184.766 M223.486 185.291 C 223.674 185.340,223.982 185.340,224.170 185.291 C 224.358 185.242,224.204 185.202,223.828 185.202 C 223.452 185.202,223.298 185.242,223.486 185.291 M175.879 187.695 C 176.517 188.340,177.082 188.867,177.136 188.867 C 177.190 188.867,176.712 188.340,176.074 187.695 C 175.436 187.051,174.871 186.523,174.817 186.523 C 174.763 186.523,175.241 187.051,175.879 187.695 M208.740 187.052 C 208.982 187.098,209.377 187.098,209.619 187.052 C 209.861 187.005,209.663 186.967,209.180 186.967 C 208.696 186.967,208.499 187.005,208.740 187.052 M194.385 193.111 C 194.788 193.153,195.447 193.153,195.850 193.111 C 196.252 193.069,195.923 193.034,195.117 193.034 C 194.312 193.034,193.982 193.069,194.385 193.111 M138.330 223.572 C 138.518 223.621,138.826 223.621,139.014 223.572 C 139.202 223.523,139.048 223.483,138.672 223.483 C 138.296 223.483,138.142 223.523,138.330 223.572 M291.297 229.102 C 291.297 232.271,291.324 233.567,291.357 231.982 C 291.390 230.398,291.390 227.805,291.357 226.221 C 291.324 224.636,291.297 225.933,291.297 229.102 M296.186 237.500 C 296.186 245.288,296.211 248.474,296.240 244.580 C 296.270 240.686,296.270 234.314,296.240 230.420 C 296.211 226.526,296.186 229.712,296.186 237.500 M109.326 223.974 C 112.253 224.005,117.043 224.005,119.971 223.974 C 122.898 223.944,120.503 223.919,114.648 223.919 C 108.794 223.919,106.399 223.944,109.326 223.974 M130.948 227.002 L 130.176 227.832 131.006 227.060 C 131.778 226.342,131.926 226.172,131.778 226.172 C 131.746 226.172,131.372 226.545,130.948 227.002 M148.828 226.233 C 148.828 226.267,149.114 226.552,149.463 226.868 L 150.098 227.441 149.524 226.807 C 148.989 226.215,148.828 226.082,148.828 226.233 M178.906 226.855 C 179.271 227.231,179.613 227.539,179.666 227.539 C 179.720 227.539,179.466 227.231,179.102 226.855 C 178.737 226.479,178.395 226.172,178.341 226.172 C 178.288 226.172,178.542 226.479,178.906 226.855 M106.114 228.076 C 107.275 228.110,109.120 228.110,110.216 228.075 C 111.311 228.041,110.361 228.012,108.105 228.012 C 105.850 228.013,104.954 228.041,106.114 228.076 M117.122 228.060 C 117.051 228.132,116.992 233.446,116.992 239.870 L 116.992 251.551 114.502 251.612 L 112.012 251.673 114.600 251.715 L 117.188 251.758 117.188 239.945 L 117.188 228.133 121.240 228.076 L 125.293 228.019 121.273 227.974 C 119.062 227.950,117.194 227.988,117.122 228.060 M163.757 230.322 L 163.184 230.957 163.818 230.383 C 164.167 230.068,164.453 229.782,164.453 229.749 C 164.453 229.598,164.292 229.731,163.757 230.322 M251.262 241.895 C 251.262 247.266,251.288 249.435,251.318 246.715 C 251.349 243.995,251.349 239.600,251.318 236.949 C 251.287 234.298,251.262 236.523,251.262 241.895 M149.609 232.813 L 146.777 232.927 149.658 232.967 C 151.476 232.993,152.539 232.936,152.539 232.813 C 152.539 232.705,152.517 232.635,152.490 232.658 C 152.463 232.680,151.167 232.750,149.609 232.813 M127.006 236.328 C 127.006 236.812,127.044 237.009,127.091 236.768 C 127.138 236.526,127.138 236.130,127.091 235.889 C 127.044 235.647,127.006 235.845,127.006 236.328 M173.291 236.474 C 174.983 236.507,177.751 236.507,179.443 236.474 C 181.135 236.442,179.751 236.415,176.367 236.415 C 172.983 236.415,171.599 236.442,173.291 236.474 M155.922 237.891 C 155.922 238.589,155.957 238.875,156.001 238.525 C 156.044 238.176,156.044 237.605,156.001 237.256 C 155.957 236.907,155.922 237.192,155.922 237.891 M132.081 237.793 C 132.083 238.223,132.123 238.375,132.169 238.132 C 132.216 237.890,132.214 237.538,132.165 237.351 C 132.117 237.165,132.078 237.363,132.081 237.793 M127.006 239.258 C 127.006 239.741,127.044 239.939,127.091 239.697 C 127.138 239.456,127.138 239.060,127.091 238.818 C 127.044 238.577,127.006 238.774,127.006 239.258 M232.471 241.895 C 232.473 242.324,232.513 242.477,232.560 242.234 C 232.607 241.991,232.605 241.640,232.556 241.453 C 232.507 241.266,232.469 241.465,232.471 241.895 M256.139 246.875 C 256.139 249.507,256.167 250.583,256.201 249.268 C 256.234 247.952,256.234 245.798,256.201 244.482 C 256.167 243.167,256.139 244.243,256.139 246.875 M139.993 247.599 C 140.235 247.646,140.587 247.644,140.774 247.595 C 140.960 247.546,140.762 247.508,140.332 247.510 C 139.902 247.512,139.750 247.552,139.993 247.599 M168.697 247.602 C 169.044 247.645,169.659 247.646,170.064 247.603 C 170.469 247.561,170.186 247.526,169.434 247.525 C 168.682 247.524,168.350 247.559,168.697 247.602 M130.851 248.486 C 131.661 249.349,131.836 249.504,131.836 249.357 C 131.836 249.326,131.418 248.908,130.908 248.429 L 129.980 247.559 130.851 248.486 M159.757 248.486 C 160.567 249.349,160.742 249.504,160.742 249.357 C 160.742 249.326,160.325 248.908,159.814 248.429 L 158.887 247.559 159.757 248.486 M177.321 248.676 C 177.410 249.218,177.438 249.245,177.499 248.854 C 177.539 248.600,177.492 248.312,177.393 248.214 C 177.285 248.105,177.256 248.287,177.321 248.676 M176.065 249.463 L 175.293 250.293 176.123 249.521 C 176.580 249.096,176.953 248.723,176.953 248.691 C 176.953 248.543,176.783 248.691,176.065 249.463 M178.857 251.707 C 179.529 251.745,180.627 251.745,181.299 251.707 C 181.970 251.669,181.421 251.638,180.078 251.638 C 178.735 251.638,178.186 251.669,178.857 251.707 M138.625 252.091 C 138.868 252.138,139.220 252.136,139.407 252.087 C 139.593 252.038,139.395 252.000,138.965 252.002 C 138.535 252.005,138.382 252.045,138.625 252.091 M141.360 252.091 C 141.603 252.138,141.954 252.136,142.141 252.087 C 142.328 252.038,142.129 252.000,141.699 252.002 C 141.270 252.005,141.117 252.045,141.360 252.091 M167.236 252.088 C 167.424 252.137,167.732 252.137,167.920 252.088 C 168.108 252.039,167.954 251.998,167.578 251.998 C 167.202 251.998,167.048 252.039,167.236 252.088 M169.875 252.091 C 170.118 252.138,170.470 252.136,170.657 252.087 C 170.843 252.038,170.645 252.000,170.215 252.002 C 169.785 252.005,169.632 252.045,169.875 252.091 M132.906 275.684 L 132.910 282.129 134.717 282.185 L 136.523 282.241 136.479 278.474 L 136.435 274.707 136.377 278.369 L 136.320 282.031 134.666 282.031 L 133.013 282.031 132.958 275.635 L 132.902 269.238 132.906 275.684 M182.683 270.703 C 182.683 271.509,182.717 271.838,182.759 271.436 C 182.802 271.033,182.802 270.374,182.759 269.971 C 182.717 269.568,182.683 269.897,182.683 270.703 M200.046 275.732 L 200.000 282.227 201.728 282.227 C 203.279 282.227,203.493 282.182,203.827 281.787 C 204.199 281.348,204.199 281.348,203.793 281.689 C 203.479 281.954,203.026 282.031,201.794 282.031 L 200.201 282.031 200.146 275.635 L 200.092 269.238 200.046 275.732 M143.555 269.788 C 143.555 269.821,143.840 270.107,144.189 270.422 L 144.824 270.996 144.251 270.361 C 143.716 269.770,143.555 269.637,143.555 269.788 M136.812 270.317 C 136.539 270.619,136.417 270.654,136.297 270.464 C 136.183 270.285,136.138 270.280,136.136 270.447 C 136.130 270.899,136.472 270.881,136.920 270.404 C 137.169 270.139,137.327 269.922,137.271 269.922 C 137.216 269.922,137.009 270.100,136.812 270.317 M196.094 270.178 C 196.094 270.212,196.379 270.498,196.729 270.813 L 197.363 271.387 196.790 270.752 C 196.255 270.160,196.094 270.027,196.094 270.178 M224.609 270.374 C 224.609 270.407,224.895 270.693,225.244 271.008 L 225.879 271.582 225.305 270.947 C 224.771 270.356,224.609 270.223,224.609 270.374 M245.461 271.623 C 245.704 271.669,246.056 271.667,246.243 271.619 C 246.429 271.570,246.230 271.531,245.801 271.534 C 245.371 271.536,245.218 271.576,245.461 271.623 M203.583 273.145 C 203.583 274.004,203.618 274.331,203.659 273.872 C 203.700 273.412,203.700 272.709,203.658 272.309 C 203.616 271.909,203.582 272.285,203.583 273.145 M251.172 272.671 C 251.172 272.808,250.608 272.859,249.530 272.817 C 248.627 272.782,247.929 272.820,247.979 272.900 C 248.170 273.207,251.367 273.069,251.367 272.754 C 251.367 272.593,251.323 272.461,251.270 272.461 C 251.216 272.461,251.172 272.555,251.172 272.671 M186.377 273.581 C 186.887 273.621,187.722 273.621,188.232 273.581 C 188.743 273.541,188.325 273.508,187.305 273.508 C 186.284 273.508,185.867 273.541,186.377 273.581 M171.547 275.391 C 171.547 276.089,171.582 276.375,171.626 276.025 C 171.669 275.676,171.669 275.105,171.626 274.756 C 171.582 274.407,171.547 274.692,171.547 275.391 M191.462 274.559 C 192.084 274.597,193.051 274.597,193.611 274.558 C 194.171 274.518,193.662 274.487,192.480 274.487 C 191.299 274.488,190.841 274.520,191.462 274.559 M142.232 278.369 L 142.188 282.227 143.994 282.186 L 145.801 282.146 144.096 282.081 L 142.391 282.016 142.334 278.264 L 142.276 274.512 142.232 278.369 M157.875 275.781 C 157.875 276.479,157.910 276.765,157.954 276.416 C 157.997 276.067,157.997 275.496,157.954 275.146 C 157.910 274.797,157.875 275.083,157.875 275.781 M254.350 275.781 C 254.350 276.265,254.388 276.462,254.435 276.221 C 254.481 275.979,254.481 275.583,254.435 275.342 C 254.388 275.100,254.350 275.298,254.350 275.781 M191.559 276.707 C 192.127 276.746,193.006 276.746,193.512 276.706 C 194.019 276.666,193.555 276.633,192.480 276.634 C 191.406 276.634,190.992 276.667,191.559 276.707 M185.206 278.613 C 185.208 279.043,185.248 279.196,185.294 278.953 C 185.341 278.710,185.339 278.358,185.290 278.172 C 185.242 277.985,185.203 278.184,185.206 278.613 M239.866 278.369 C 239.885 278.720,239.908 278.737,239.981 278.453 C 240.063 278.138,240.264 278.105,241.796 278.160 C 242.743 278.195,243.478 278.157,243.427 278.076 C 243.162 277.650,239.843 277.923,239.866 278.369 M255.664 279.944 C 255.664 279.978,255.950 280.263,256.299 280.579 L 256.934 281.152 256.360 280.518 C 255.825 279.926,255.664 279.793,255.664 279.944 M193.835 281.104 L 193.262 281.738 193.896 281.165 C 194.246 280.849,194.531 280.563,194.531 280.530 C 194.531 280.379,194.370 280.512,193.835 281.104 M194.922 282.080 C 194.922 282.161,195.647 282.213,196.533 282.197 C 198.197 282.167,198.005 282.085,196.045 281.989 C 195.427 281.958,194.921 282.000,194.922 282.080 M152.393 282.175 C 152.903 282.215,153.738 282.215,154.248 282.175 C 154.758 282.135,154.341 282.102,153.320 282.102 C 152.300 282.102,151.882 282.135,152.393 282.175 M179.932 282.175 C 180.442 282.215,181.277 282.215,181.787 282.175 C 182.297 282.135,181.880 282.102,180.859 282.102 C 179.839 282.102,179.421 282.135,179.932 282.175 M230.713 282.175 C 231.223 282.215,232.058 282.215,232.568 282.175 C 233.079 282.135,232.661 282.102,231.641 282.102 C 230.620 282.102,230.203 282.135,230.713 282.175 " stroke="none" fill="#5a5a5a" fill-rule="evenodd"></path></g></svg>