<svg width="140" height="52" viewBox="0 0 140 52" fill="none" xmlns="http://www.w3.org/2000/svg">
<g filter="url(#filter0_i_520_7506)">
<path d="M137.923 24.465C138.256 23.8802 138.516 23.2565 138.697 22.608L138.73 22.4839C139.262 20.561 139.014 18.5059 138.04 16.7648C137.065 15.0238 135.444 13.7373 133.527 13.1847C130.902 12.3666 128.098 12.3235 125.449 13.0605C124.275 13.361 123.156 13.8443 122.132 14.4927C119.848 12.2068 116.841 10.7858 113.625 10.4732C112.233 10.3211 110.827 10.3677 109.448 10.6116C108.202 6.74009 105.385 3.81378 101.232 2.10955C97.9631 0.77343 94.4569 0.114097 90.9257 0.171409C89.8182 0.171409 88.6486 0.22392 87.4791 0.328943C86.3517 0.404684 85.2509 0.704484 84.2408 1.2108C83.2308 1.71712 82.3318 2.41979 81.5966 3.2777C80.8614 4.13561 80.3046 5.13153 79.9589 6.2072C79.6132 7.28286 79.4855 8.41667 79.5833 9.54228C79.6233 10.1457 79.7224 10.7437 79.8792 11.3277C78.4744 11.0508 77.0216 11.1446 75.664 11.5998C74.996 10.1994 73.9503 9.01334 72.6448 8.17502C71.3392 7.3367 69.8256 6.87942 68.2743 6.85466H67.964C66.5337 6.92165 65.1465 7.36588 63.9434 8.14225C62.7403 8.91862 61.764 9.9995 61.1136 11.2752L60.8177 11.1845C58.1948 10.3547 55.388 10.3017 52.7357 11.0317C51.641 11.3168 50.594 11.7607 49.628 12.3493C48.874 11.9214 48.0572 11.6153 47.2077 11.4422H47.1313C46.6341 11.3473 46.129 11.2994 45.6228 11.299C43.8007 11.2938 42.0354 11.933 40.639 13.1035C39.1806 11.9243 37.3588 11.2867 35.4834 11.299C33.9155 11.278 32.374 11.7035 31.039 12.5259C29.4408 11.3967 27.5603 10.7336 25.6073 10.6105C23.6543 10.4875 21.7055 10.9093 19.9782 11.8289C18.7628 11.1716 17.4225 10.778 16.0446 10.6737C14.2624 10.5015 12.4646 10.7467 10.7935 11.3897C9.96908 11.2099 9.12605 11.1298 8.28252 11.151H7.50439C5.23209 11.2179 3.39419 11.9769 2.04322 13.409C-0.114514 15.7052 -0.0190389 18.6458 0.0096036 20.0159V30.7998C-0.0285864 32.8191 0.152816 35.7693 2.34874 38.0273C3.09631 38.7801 3.99045 39.3715 4.9758 39.7648C5.96115 40.1581 7.01675 40.345 8.07724 40.3139C9.97632 40.3622 11.833 39.7478 13.3284 38.5762C14.8357 39.7234 16.6857 40.3288 18.5795 40.2948C18.8984 40.2959 19.2171 40.2799 19.5343 40.2471C21.0606 40.1252 22.5139 39.5425 23.7017 38.5762C24.6827 39.3706 25.843 39.913 27.0816 40.1564C27.1429 41.2761 27.4482 42.3689 27.9759 43.3583C28.5036 44.3478 29.2411 45.2101 30.1368 45.8849C30.9408 46.4974 31.8477 46.9613 32.8148 47.2549C33.9742 47.6328 35.1853 47.8277 36.4047 47.8325C38.7593 47.8321 41.0553 47.0979 42.9734 45.7321C45.3638 44.1043 47.1428 41.7255 48.0288 38.9725C49.0062 39.5494 50.101 39.8985 51.232 39.994L52.0578 40.0704C53.1674 40.1969 54.2827 40.267 55.3994 40.2805C56.0471 40.2815 56.6942 40.2448 57.3376 40.1707C59.7112 39.9393 61.9474 38.9501 63.7153 37.3494C64.9835 38.6867 66.6116 39.6285 68.4031 40.0609C70.4772 40.6408 72.6938 40.4158 74.609 39.4307C75.7219 39.9822 76.9474 40.2682 78.1893 40.2662C78.6836 40.2659 79.177 40.2244 79.6644 40.142C81.044 43.1686 83.808 45.2547 87.4313 45.9469C88.1578 46.0896 88.8964 46.1616 89.6368 46.1617C91.5586 46.197 93.4508 45.6847 95.0924 44.6847C96.734 43.6847 98.0572 42.2383 98.9074 40.5144L98.9361 40.4571C99.9361 38.4013 100.254 36.08 99.8431 33.8311C100.427 34.7787 101.116 35.6577 101.896 36.4519C103.296 37.902 104.997 39.0275 106.879 39.7491C108.761 40.4708 110.779 40.7711 112.789 40.629C114.846 40.5891 116.866 40.0796 118.695 39.1395C119.333 39.9531 120.131 40.627 121.04 41.1197C121.949 41.6124 122.949 41.9133 123.979 42.0038L124.838 42.0802C125.884 42.1804 126.968 42.2855 128.156 42.2855C128.802 42.2865 129.448 42.2498 130.09 42.1757C134.902 41.6124 138.358 38.6526 139.57 34.0603C140.031 32.4396 140.123 30.7361 139.838 29.0754C139.553 27.4147 138.898 25.8392 137.923 24.465Z" fill="white"/>
</g>
<g filter="url(#filter1_di_520_7506)">
<path d="M36.4228 43.5496C35.6489 43.546 34.8805 43.4203 34.1457 43.1772C33.6546 43.0325 33.1926 42.8031 32.7804 42.4993C32.2457 42.0777 31.8393 41.5152 31.6071 40.8751C31.3748 40.235 31.3259 39.5428 31.4658 38.8764C31.6057 38.21 31.929 37.5959 32.3991 37.1033C32.8692 36.6107 33.4675 36.2591 34.1266 36.0882C34.8069 35.9378 35.4141 35.5566 35.8452 35.0093C35.9991 34.717 36.0869 34.3946 36.1026 34.0646C36.1183 33.7347 36.0614 33.4054 35.9359 33.0998C35.2867 30.7129 34.4704 28.3738 33.6015 25.8867V25.8389C33.401 25.2709 33.2053 24.698 33.0096 24.1252C32.8139 23.5523 32.6086 23.0224 32.4033 22.4973C32.3365 22.3255 32.2649 22.1488 32.198 21.9722C32.3881 22.8747 32.4825 23.7948 32.4797 24.7171C32.5131 26.3259 32.4797 27.9824 32.4797 29.5863C32.4797 30.417 32.4797 31.2428 32.4797 32.0687C32.4797 34.3887 30.9426 36.007 28.7323 36.007C26.6271 36.007 25.0517 34.3649 24.9849 32.0973C24.9563 30.3501 24.9849 28.6029 24.9849 26.9083V26.7985C24.9849 25.9774 24.9849 25.1563 24.9849 24.3352V24.0918C24.8894 23.1656 24.3691 22.4496 23.7867 22.4496H23.7294C23.1757 22.4496 22.536 23.1895 22.5026 24.1777C22.4691 25.1658 22.5026 26.1827 22.5026 27.166C22.5026 28.2879 22.5026 29.4193 22.5026 30.5554L22.5312 31.9398C22.6362 34.0021 21.1659 35.8161 19.2469 35.9593C19.0511 35.9593 18.8315 35.9879 18.6263 35.9879C16.5163 35.9879 15.0746 34.847 14.6784 32.8516C14.5664 32.0612 14.5264 31.2623 14.559 30.4647V24.2875C14.5655 24.0197 14.5544 23.7518 14.5256 23.4855C14.4673 23.2107 14.3271 22.96 14.1234 22.7665C13.9197 22.5731 13.6621 22.4459 13.3847 22.4018C13.0584 22.4521 12.7595 22.6135 12.5385 22.8588C12.3175 23.1041 12.1881 23.4183 12.1722 23.748C12.1006 24.6025 12.1101 25.4857 12.1196 26.3402C12.1292 27.1947 12.1196 27.9824 12.0862 28.813L12.1149 31.4051C12.1779 32.0279 12.1111 32.657 11.9189 33.2526C11.7266 33.8483 11.413 34.3977 10.9978 34.8661C10.6204 35.251 10.1659 35.5517 9.66397 35.7483C9.16207 35.945 8.62424 36.0331 8.08583 36.007C7.59855 36.0325 7.11127 35.957 6.65453 35.7854C6.1978 35.6137 5.78146 35.3495 5.43162 35.0093C4.62008 34.1882 4.26682 32.8611 4.31456 30.8562V19.9481C4.26682 18.3967 4.39094 17.1746 5.16906 16.344C5.49483 16.0324 5.88116 15.7911 6.30408 15.635C6.727 15.479 7.17748 15.4116 7.62755 15.4369H8.28632C9.49408 15.4369 10.2388 15.5658 10.9883 16.2389C12.1142 15.3516 13.5178 14.8916 14.9505 14.9405C15.1987 14.9405 15.4279 14.9405 15.7143 14.9739C16.5309 15.0395 17.3247 15.2751 18.0449 15.6656C18.7651 16.0561 19.3956 16.5928 19.8961 17.2414C20.2207 16.9407 20.5596 16.6352 20.932 16.344C22.0723 15.4082 23.5003 14.894 24.9754 14.888C25.2195 14.888 25.4633 14.9023 25.7057 14.9309C26.5702 15.0392 27.4041 15.3203 28.1578 15.7574C28.9115 16.1945 29.5695 16.7787 30.0928 17.4753C30.6953 18.2499 31.1929 19.1006 31.5727 20.0054C31.4819 19.2858 31.588 18.555 31.8797 17.8908C32.1714 17.2267 32.6378 16.6542 33.2292 16.2342C33.8914 15.792 34.6719 15.5607 35.4681 15.5706C36.3974 15.5481 37.3009 15.8771 37.9982 16.4919C38.5863 17.1264 39.0336 17.878 39.3109 18.6974V18.7642L40.7431 23.5905C41.0056 22.6071 41.2634 21.6237 41.4544 20.9124C41.6453 20.2011 41.8315 19.3944 42.0749 18.6115C42.4759 16.7879 43.8842 15.5706 45.5884 15.5706C45.8386 15.5702 46.0882 15.5958 46.3331 15.647C47.0709 15.7987 47.746 16.169 48.2704 16.7096C48.7949 17.2503 49.1445 17.9363 49.2738 18.6783C49.2738 18.7165 49.2738 18.7547 49.2976 18.7929C49.7366 17.8924 50.3697 17.1005 51.1514 16.474C51.9331 15.8475 52.8439 15.402 53.8184 15.1696C54.6843 14.9289 55.5786 14.8053 56.4774 14.802C57.5109 14.8057 58.5379 14.9667 59.523 15.2794C60.0822 15.4161 60.5936 15.7025 61.0024 16.1079C61.4111 16.5133 61.7017 17.0223 61.8431 17.5804C62.1581 16.8118 62.879 16.0432 64.3779 15.5467V15.2173C64.4447 13.0214 66.1108 11.2026 68.0919 11.1358H68.2828C69.3028 11.1716 70.2731 11.5851 71.0053 12.2961C71.7375 13.0072 72.1794 13.9649 72.2451 14.9834C72.2451 15.1505 72.2689 15.3176 72.2689 15.4608C73.4815 15.7281 74.5699 16.1816 75.0664 17.2319C75.3445 16.7946 75.7062 16.4166 76.1309 16.1196C76.7605 15.6781 77.5101 15.4399 78.2791 15.4369C78.7323 15.4381 79.1823 15.5139 79.611 15.6613C80.04 15.8167 80.4426 16.0373 80.8044 16.3153C81.9901 15.4266 83.4153 14.9144 84.8955 14.845H85.2297C85.609 14.8266 85.9879 14.8886 86.3417 15.0268C86.6954 15.165 87.016 15.3763 87.2824 15.647C87.5488 15.9527 87.7395 16.3168 87.839 16.71C87.9385 17.1031 87.9441 17.5141 87.8552 17.9097C87.7263 18.6497 87.5545 19.4564 87.311 20.478C87.0055 21.7144 86.1653 22.4162 85.0101 22.4162C84.8955 22.4162 84.7809 22.4162 84.6664 22.4162H84.4515C83.8501 22.4162 83.1292 22.5976 82.3225 23.9581L82.0981 24.383C81.763 25.0173 81.6203 25.7357 81.6875 26.45C81.8212 27.9108 81.9644 29.1853 82.1267 30.6604L82.1792 31.1378C82.2729 31.7736 82.2293 32.4221 82.0515 33.0397C81.8736 33.6572 81.5656 34.2295 81.1481 34.7181C80.7745 35.1214 80.3198 35.441 79.8137 35.6558C79.3077 35.8705 78.7619 35.9756 78.2123 35.9641C77.3027 35.9504 76.4279 35.6126 75.7453 35.0114C75.0627 34.4102 74.6171 33.585 74.4887 32.6845C74.4102 33.1563 74.2689 33.6155 74.0686 34.0498C73.791 34.6663 73.3365 35.1864 72.7628 35.5442C72.1891 35.902 71.5221 36.0814 70.8463 36.0595C70.3838 36.0573 69.9235 35.9963 69.4763 35.8781C68.678 35.6758 67.9337 35.3014 67.2954 34.781C66.6572 34.2607 66.1404 33.607 65.7814 32.8659C64.65 30.5984 64.4543 28.1494 64.4113 26.2686C64.4113 24.7744 64.4113 23.2468 64.3684 21.7526C63.9192 21.6817 63.4842 21.5399 63.0795 21.3325C62.4534 20.934 61.9963 20.3188 61.7953 19.6044C61.4468 20.6594 60.6162 21.8004 58.6112 21.8004C58.4012 21.8004 58.1768 21.8004 57.9334 21.7669C57.6899 21.7335 57.1218 21.681 56.716 21.6476C57.1934 21.8767 57.709 22.082 58.2007 22.2777C61.9767 23.8865 63.6953 27.209 62.7071 30.9469C61.9576 33.7825 59.8858 35.5392 56.8784 35.8925C56.403 35.9475 55.9248 35.9746 55.4462 35.9736C54.4628 35.9736 53.4842 35.8781 52.5342 35.7874L51.6511 35.7063C50.9223 35.6558 50.2316 35.362 49.6897 34.8721C49.1478 34.3821 48.7861 33.7244 48.6627 33.0043C48.5673 32.5494 48.5687 32.0794 48.6668 31.625C48.7649 31.1706 48.9576 30.742 49.2322 30.3669C49.5069 29.9918 49.8574 29.6788 50.261 29.4481C50.6645 29.2174 51.1122 29.0742 51.5747 29.0278C51.831 28.992 52.0893 28.9728 52.3481 28.9705H52.6727C53.0995 29.0006 53.5237 29.0596 53.9425 29.1472C54.3188 29.2236 54.7001 29.2731 55.0834 29.2951C55.0834 29.2522 55.0834 29.2092 55.0834 29.1949C54.6215 28.9307 54.1431 28.6963 53.6513 28.4932C53.1041 28.2728 52.5701 28.021 52.0521 27.7389C51.1067 27.2443 50.2962 26.5268 49.6906 25.6484C49.0851 24.77 48.7028 23.7573 48.5768 22.6978C47.9562 24.7076 47.369 26.6362 46.7866 28.5409L46.7484 28.6555C45.8987 31.4433 45.0585 34.193 44.1563 37.0668C43.6051 39.1332 42.3444 40.9397 40.5951 42.17C39.3818 43.0529 37.9233 43.5352 36.4228 43.5496ZM72.3501 22.841C72.3501 24.3639 72.3119 25.9249 72.4121 27.4143C72.4796 27.9013 72.7162 28.3491 73.0805 28.6793C73.7368 29.1872 74.1986 29.9051 74.3885 30.7129C74.3885 29.5529 74.3885 28.3929 74.3885 27.2615C74.3885 26.4022 74.3885 25.543 74.3885 24.6885C74.3885 23.4616 74.3885 22.2157 74.3885 20.9793C73.7901 21.3949 73.1124 21.6825 72.3978 21.8242L72.3501 22.841ZM89.6597 41.8549C89.1933 41.8535 88.7281 41.8072 88.2705 41.7164C85.6927 41.2391 83.9264 39.7353 83.2915 37.5203C82.9411 36.3596 82.9383 35.1216 83.2836 33.9594C83.6289 32.7971 84.3071 31.7614 85.2344 30.9803C86.0807 30.2721 87.1167 29.8288 88.2133 29.7057C87.4747 29.1837 86.8962 28.4662 86.5424 27.6339C86.2782 26.9991 86.1454 26.3173 86.1519 25.6298C86.1585 24.9422 86.3043 24.2631 86.5806 23.6335C87.3938 21.5784 88.9187 19.8842 90.877 18.8597C92.7054 17.9909 93.6983 16.998 94.1184 15.6279C94.2665 15.2422 94.2665 14.8153 94.1184 14.4297C94.0272 14.2973 93.9106 14.1845 93.7754 14.0976C93.6401 14.0107 93.489 13.9516 93.3307 13.9237C92.1803 13.6038 91.0059 13.7136 89.822 13.7136H89.421H89.0869C86.151 13.7136 84.1413 12.0619 83.9694 9.50794C83.8787 8.32405 84.1222 6.90624 84.8573 6.04697C85.23 5.62394 85.6833 5.27942 86.1907 5.03353C86.698 4.78764 87.2493 4.6453 87.8123 4.61484C88.8864 4.51937 89.9318 4.47163 90.9152 4.47163C93.8809 4.41596 96.827 4.96328 99.5748 6.08039C102.883 7.44091 104.917 9.71798 105.599 12.8543C105.894 14.2772 105.847 15.7498 105.461 17.1507C107.258 15.536 109.599 14.6596 112.015 14.697C112.395 14.6986 112.774 14.7194 113.151 14.7591C114.865 14.9362 116.502 15.558 117.901 16.5628C119.301 17.5676 120.413 18.9205 121.128 20.4876C121.333 20.8996 121.508 21.3255 121.653 21.7622C121.72 21.5712 121.797 21.3803 121.878 21.1893C122.292 20.2094 122.931 19.3407 123.743 18.6532C124.554 17.9657 125.517 17.4789 126.551 17.2319C128.431 16.7084 130.422 16.7466 132.28 17.3417C134.132 17.8716 135.063 19.5424 134.576 21.4901C134.261 22.588 133.454 23.8769 131.335 23.8769C131.125 23.8769 130.905 23.8769 130.657 23.8387C130.513 23.8387 129.874 23.7528 129.439 23.7242C129.917 23.9533 130.432 24.1538 130.919 24.3495C134.705 25.9631 136.423 29.2808 135.43 33.0234C134.681 35.8543 132.614 37.611 129.602 37.9643C129.126 38.0194 128.648 38.0465 128.17 38.0454C127.186 38.0454 126.203 37.95 125.258 37.8593L124.37 37.7781C123.646 37.7223 122.961 37.4261 122.425 36.9365C121.889 36.4469 121.531 35.7921 121.41 35.0762C121.315 34.6223 121.315 34.1534 121.413 33.6999C121.51 33.2464 121.701 32.8184 121.975 32.4436C122.248 32.0687 122.596 31.7554 122.998 31.5239C123.4 31.2924 123.846 31.1478 124.308 31.0996C124.565 31.0638 124.825 31.0446 125.086 31.0423C125.196 31.0423 125.301 31.0423 125.41 31.0423C125.837 31.0744 126.261 31.1334 126.68 31.219C127.056 31.2977 127.438 31.3488 127.821 31.3717C127.821 31.324 127.821 31.2858 127.821 31.2667C127.36 31.0023 126.882 30.7694 126.389 30.5697C125.839 30.3281 125.302 30.0572 124.78 29.7582C123.694 29.1692 122.784 28.3007 122.145 27.2424C121.765 29.8481 120.497 32.2426 118.555 34.0212C116.924 35.5259 114.784 36.3581 112.564 36.3507C112.349 36.3507 112.087 36.3794 111.839 36.3794C110.559 36.3831 109.292 36.1274 108.113 35.6277C106.935 35.128 105.87 34.3948 104.983 33.4722C103.839 32.2511 102.97 30.7992 102.434 29.2141C101.898 27.629 101.708 25.9475 101.876 24.2827C101.935 23.731 102.038 23.1849 102.186 22.6501C101.229 23.5626 100.079 24.2479 98.8205 24.6551C98.1652 24.8158 97.5634 25.1454 97.0751 25.6111C96.5868 26.0768 96.229 26.6623 96.0374 27.3093C95.7788 28.0796 95.3349 28.7746 94.7448 29.3331C94.1546 29.8916 93.4362 30.2966 92.6529 30.5124C92.9937 30.6955 93.3138 30.9148 93.6076 31.1665C94.6549 32.0592 95.3696 33.2798 95.6357 34.63C95.9018 35.9802 95.7035 37.3807 95.0731 38.604C94.5719 39.6034 93.7969 40.4397 92.8384 41.0153C91.8799 41.5909 90.7774 41.8821 89.6597 41.8549ZM112.13 22.0486C111.622 22.0783 111.145 22.3022 110.798 22.6739C109.366 24.0345 109.294 26.3688 110.602 28.1065C110.762 28.3344 110.966 28.5279 111.202 28.6755C111.439 28.8231 111.702 28.9218 111.977 28.9658H112.177C112.46 28.9603 112.736 28.8882 112.985 28.7555C113.234 28.6228 113.448 28.4331 113.61 28.202C114.846 26.7698 114.784 24.0154 113.466 22.6978C113.302 22.5073 113.103 22.3511 112.878 22.238C112.654 22.125 112.409 22.0574 112.158 22.039L112.13 22.0486Z" fill="#FF5654"/>
</g>
<path fill-rule="evenodd" clip-rule="evenodd" d="M133.508 24.6415C133.532 24.694 133.569 24.7397 133.615 24.7744C136.227 26.8176 137.224 29.8967 136.341 33.1906C135.482 36.451 133.124 38.4369 129.696 38.8379C129.184 38.8971 128.669 38.9258 128.154 38.9238C127.123 38.9238 126.106 38.8283 125.152 38.7329L124.264 38.6517C123.336 38.5783 122.458 38.2 121.767 37.5757C121.076 36.9515 120.611 36.1163 120.445 35.2003V35.1335C120.397 34.8881 120.373 34.6387 120.373 34.3888C120.373 34.3158 120.352 34.2444 120.311 34.1839C120.27 34.1234 120.212 34.0767 120.144 34.0498C120.082 34.0249 120.013 34.0192 119.948 34.0337C119.882 34.0482 119.822 34.0821 119.776 34.131C119.59 34.3267 119.394 34.5177 119.194 34.6991C117.404 36.3533 115.058 37.275 112.62 37.2817C112.363 37.3103 112.091 37.3103 111.828 37.3103H111.828C110.42 37.3139 109.027 37.0329 107.73 36.484C106.434 35.9352 105.262 35.1299 104.285 34.1167C102.062 31.7413 100.833 28.6053 100.848 25.352C100.849 25.2947 100.835 25.2382 100.808 25.1879C100.78 25.1377 100.74 25.0955 100.691 25.0656C100.639 25.0355 100.579 25.0196 100.519 25.0196C100.459 25.0196 100.399 25.0355 100.347 25.0656C99.9361 25.2659 99.5099 25.4335 99.0726 25.5669C98.564 25.6897 98.0971 25.9453 97.7197 26.3076C97.3423 26.6699 97.0678 27.126 96.9244 27.6291C96.54 28.7718 95.8175 29.7706 94.8526 30.4934C94.8129 30.5223 94.78 30.5594 94.7561 30.6023C94.7322 30.6451 94.7178 30.6927 94.7141 30.7416C94.7086 30.789 94.7134 30.837 94.7282 30.8823C94.7431 30.9277 94.7676 30.9692 94.8 31.0042C95.791 32.063 96.4314 33.4017 96.6338 34.8377C96.8363 36.2738 96.591 37.7373 95.9314 39.0288V39.0575C95.3507 40.2149 94.4534 41.1837 93.3439 41.8513C92.2343 42.5189 90.9581 42.8578 89.6635 42.8288C89.1379 42.8276 88.6136 42.7765 88.0977 42.676C85.1427 42.1127 83.1091 40.375 82.3692 37.7829C82.1175 36.896 82.027 35.9712 82.1019 35.0523L81.8775 35.3244C81.4163 35.8383 80.8506 36.2477 80.2183 36.5252C79.586 36.8026 78.9017 36.9417 78.2113 36.9332C77.574 36.9378 76.9426 36.8113 76.3563 36.5617C75.7699 36.312 75.2412 35.9445 74.8028 35.4819C74.7705 35.4433 74.7293 35.4132 74.6827 35.394C74.6361 35.3749 74.5856 35.3674 74.5355 35.3722C74.4855 35.3723 74.4362 35.3841 74.3915 35.4064C74.3468 35.4288 74.3078 35.4612 74.2777 35.501C73.8556 36.006 73.3231 36.4071 72.7214 36.6737C72.1196 36.9402 71.4647 37.0649 70.8072 37.0382C70.2708 37.0355 69.7369 36.9665 69.2175 36.8329C68.2928 36.5939 67.4304 36.1585 66.689 35.5564C65.9476 34.9542 65.3447 34.1994 64.9211 33.3433L64.8973 33.2956C64.4047 32.2982 64.0452 31.2406 63.8279 30.1497C63.7754 30.5085 63.7021 30.8639 63.6083 31.2142C62.7538 34.4795 60.3956 36.4606 56.9681 36.8663C56.4546 36.9255 55.9382 36.9542 55.4214 36.9523C54.4089 36.9523 53.3918 36.8556 52.4514 36.7662L52.3996 36.7613L51.5355 36.6802C50.6077 36.6059 49.7303 36.2274 49.0397 35.6032C48.3491 34.9791 47.8839 34.1444 47.7165 33.2287V33.1619C47.6057 32.5833 47.615 31.9881 47.7439 31.4132C47.8729 30.8383 48.1186 30.2961 48.466 29.8203C48.931 29.1808 49.5661 28.6846 50.2991 28.3882C50.3564 28.3645 50.4065 28.3262 50.4443 28.2772C50.4821 28.2281 50.5064 28.1699 50.5146 28.1084C50.5228 28.047 50.5147 27.9845 50.4912 27.9272C50.4676 27.8699 50.4293 27.8198 50.3803 27.7819C49.8715 27.3728 49.4146 26.9031 49.0198 26.3832C48.9832 26.3321 48.9326 26.2928 48.8742 26.2699C48.8157 26.2471 48.7519 26.2416 48.6904 26.2543C48.624 26.2661 48.5622 26.296 48.5117 26.3406C48.4612 26.3853 48.4239 26.4429 48.4039 26.5073L47.6592 28.9371C46.7856 31.8062 45.9598 34.4986 45.0671 37.3628C44.4508 39.6344 43.0549 41.6166 41.124 42.9624C39.7559 43.9551 38.112 44.4958 36.4218 44.5091C35.5495 44.503 34.6833 44.3629 33.8535 44.0938C33.2428 43.9154 32.6689 43.6293 32.1589 43.2488C31.5247 42.7676 31.0302 42.126 30.7265 41.3902C30.4227 40.6543 30.3206 39.8507 30.4308 39.0623C30.5344 38.1418 30.9169 37.275 31.5269 36.5779C32.1369 35.8809 32.9454 35.3869 33.844 35.1621C34.2897 35.0653 34.6947 34.8336 35.004 34.4986C35.14 34.1419 35.1314 33.7463 34.9801 33.3958C34.5123 31.6773 33.949 29.9683 33.3905 28.3356V29.6007V32.0639C33.3905 34.8996 31.4142 36.957 28.6883 36.957C26.0437 36.957 24.0674 34.9186 23.9862 32.1069V26.9083V26.808V23.6478C23.9875 23.6098 23.981 23.572 23.9671 23.5367C23.9532 23.5013 23.9321 23.4692 23.9053 23.4423C23.8784 23.4155 23.8463 23.3944 23.8109 23.3805C23.7756 23.3666 23.7377 23.3601 23.6998 23.3614C23.6624 23.3608 23.6252 23.3676 23.5905 23.3814C23.5558 23.3953 23.5242 23.416 23.4975 23.4422C23.4709 23.4684 23.4497 23.4997 23.4352 23.5342C23.4208 23.5686 23.4133 23.6057 23.4133 23.643V27.1708C23.4468 28.2879 23.4563 29.4145 23.4133 30.5602V31.9112C23.5327 34.4842 21.6614 36.7327 19.2745 36.9236C19.0358 36.957 18.7924 36.957 18.5584 36.957C15.9902 36.957 14.1523 35.4963 13.6749 33.0569V33.0235C13.5562 32.1729 13.5131 31.3134 13.546 30.4552V23.6144C13.546 23.5498 13.5204 23.4879 13.4747 23.4423C13.429 23.3966 13.3671 23.3709 13.3025 23.3709C13.2708 23.3703 13.2392 23.376 13.2097 23.3877C13.1802 23.3994 13.1533 23.4169 13.1307 23.4391C13.108 23.4614 13.09 23.4879 13.0777 23.5172C13.0654 23.5464 13.0591 23.5779 13.0591 23.6096L13.0161 26.3689C13.0257 27.1708 13.0352 28.0015 12.9827 28.8512L13.0113 31.3765C13.0903 32.1241 13.0145 32.8799 12.7887 33.5969C12.5628 34.3139 12.1917 34.9767 11.6986 35.544C11.2298 36.0235 10.6653 36.3988 10.0419 36.6455C9.41841 36.8923 8.74995 37.0049 8.08006 36.9761C7.46556 37.0068 6.85139 36.9097 6.27626 36.6912C5.70113 36.4726 5.17751 36.1373 4.73843 35.7063C3.42087 34.3458 3.32063 32.2979 3.35882 30.8657V19.9911C3.3254 18.5399 3.35882 16.8834 4.48065 15.7091C4.89245 15.3056 5.38199 14.9901 5.9195 14.7816C6.45702 14.5732 7.0313 14.4762 7.60745 14.4965H8.28533C9.1518 14.4488 10.0169 14.6126 10.8059 14.9739C10.8615 15.0044 10.9239 15.0204 10.9873 15.0204C11.0507 15.0204 11.1131 15.0044 11.1687 14.9739C12.5652 14.1826 14.1745 13.8488 15.7706 14.0192C17.3451 14.1256 18.8298 14.7909 19.9572 15.8952C20.0765 15.7902 20.2006 15.69 20.3295 15.5897C21.6391 14.5144 23.2799 13.9243 24.9744 13.9189C25.2568 13.9197 25.5389 13.9373 25.8193 13.9714C26.808 14.0959 27.7617 14.4179 28.6235 14.9181C29.4854 15.4183 30.238 16.0867 30.8365 16.8834C30.8462 16.8962 30.856 16.909 30.8658 16.9218C30.9475 17.0293 31.0319 17.1401 31.1086 17.251C31.4668 16.5262 32.0062 15.9063 32.6744 15.4513C33.4999 14.9032 34.4715 14.617 35.4623 14.6302C36.6344 14.6078 37.7716 15.0289 38.6464 15.8093L38.6846 15.8475C39.3616 16.5694 39.8774 17.4269 40.1979 18.3633L40.2456 18.4969L40.3506 18.8502C40.3693 18.925 40.4132 18.991 40.475 19.0372C40.5367 19.0833 40.6125 19.1066 40.6896 19.1032C40.7656 19.1046 40.8398 19.0804 40.9004 19.0345C40.961 18.9887 41.0045 18.9237 41.0237 18.8502L41.1669 18.3728C41.3607 17.333 41.9082 16.3923 42.7165 15.7102C43.5248 15.028 44.5442 14.6465 45.6017 14.6302C45.8982 14.6306 46.1939 14.6594 46.4849 14.7161H46.547C47.6318 14.9334 48.6025 15.5331 49.2823 16.406C49.3125 16.4485 49.3516 16.4839 49.397 16.5094C49.4424 16.535 49.4929 16.5502 49.5449 16.554C49.5929 16.5561 49.6407 16.5478 49.6852 16.5296C49.7297 16.5115 49.7698 16.484 49.8027 16.449C50.8326 15.3904 52.134 14.6357 53.5644 14.2674C55.6107 13.6973 57.7787 13.7354 59.8037 14.3772C60.561 14.587 61.2484 14.9958 61.7943 15.5611C61.8519 15.6301 61.9346 15.6734 62.0241 15.6814C62.1136 15.6895 62.2027 15.6616 62.2717 15.604C62.5914 15.3623 62.9354 15.1543 63.298 14.9835C63.3525 14.9573 63.3995 14.9177 63.4345 14.8684C63.4696 14.8192 63.4916 14.7619 63.4985 14.7018C63.785 12.2099 65.7565 10.2765 68.0814 10.2002H68.2818C69.4601 10.2437 70.5861 10.6972 71.4655 11.4825C72.3449 12.2678 72.9225 13.3355 73.0986 14.5013C73.1103 14.5688 73.14 14.6319 73.1845 14.684C73.229 14.736 73.2867 14.7752 73.3516 14.7973C73.9517 14.9809 74.5097 15.281 74.9937 15.6804L75.0558 15.7377C75.2074 15.5998 75.3668 15.4707 75.5332 15.351C76.3317 14.7956 77.2816 14.499 78.2542 14.5013C78.8082 14.5008 79.3584 14.5928 79.8821 14.7734C80.1211 14.8534 80.3527 14.954 80.5743 15.0742C80.6287 15.1056 80.6904 15.1221 80.7533 15.1221C80.8161 15.1221 80.8779 15.1056 80.9323 15.0742C82.1144 14.3892 83.4298 13.966 84.7895 13.833H84.8181C85.1298 13.7925 85.4443 13.7918 85.7541 13.83C84.1044 12.9007 83.052 11.2751 82.9229 9.31224C82.8594 8.6159 82.9348 7.91387 83.1445 7.24684C83.3543 6.57981 83.6944 5.96105 84.145 5.42641C84.5963 4.9101 85.1455 4.48853 85.7609 4.18614C86.3764 3.88376 87.0457 3.70658 87.7301 3.66489C88.8424 3.56464 89.9213 3.51691 90.9285 3.51691C94.0167 3.4612 97.0841 4.03117 99.9461 5.19249C103.517 6.66281 105.799 9.24541 106.505 12.6682C106.639 13.2688 106.713 13.8813 106.725 14.4965C106.725 14.5549 106.739 14.6124 106.768 14.6635C106.796 14.7145 106.837 14.7573 106.887 14.7877C106.938 14.8157 106.996 14.8304 107.054 14.8304C107.113 14.8304 107.17 14.8157 107.221 14.7877C108.714 14.0846 110.345 13.7226 111.995 13.728C113.888 13.7316 115.748 14.22 117.399 15.1468C119.049 16.0736 120.435 17.4078 121.423 19.0221C121.452 19.0692 121.492 19.1087 121.539 19.137C121.587 19.1652 121.64 19.1815 121.695 19.1844C121.753 19.1882 121.81 19.178 121.862 19.1547C121.915 19.1314 121.961 19.0957 121.996 19.0507C123.081 17.6754 124.592 16.6998 126.292 16.2771C128.338 15.7105 130.503 15.7486 132.527 16.3869C134.876 17.0696 136.093 19.2512 135.482 21.6858V21.7192C135.22 22.7551 134.562 23.6467 133.649 24.2016C133.6 24.2295 133.559 24.2688 133.529 24.3163C133.499 24.3637 133.481 24.4177 133.477 24.4737C133.473 24.5314 133.484 24.589 133.508 24.6415ZM87.441 14.4805C87.6281 14.6122 87.8033 14.7613 87.964 14.9262C88.3263 15.3565 88.588 15.8621 88.73 16.4064C88.8721 16.9506 88.8909 17.5196 88.7851 18.0721V18.1103L88.7422 18.3585C88.7281 18.4271 88.7351 18.4984 88.7621 18.563C88.7892 18.6276 88.8351 18.6825 88.8938 18.7207C88.9526 18.7588 89.0214 18.7783 89.0915 18.7768C89.1615 18.7752 89.2294 18.7525 89.2864 18.7118C89.6661 18.455 90.0615 18.2222 90.4702 18.0148L90.5371 17.9814C91.9262 17.3226 92.8524 16.5254 93.3584 15.5468C93.3922 15.4818 93.4127 15.4107 93.4184 15.3377C93.4241 15.2647 93.4151 15.1913 93.3918 15.1219C93.3597 15.0164 93.2974 14.9226 93.2126 14.8521C93.1277 14.7817 93.024 14.7377 92.9144 14.7257C91.8897 14.655 90.862 14.6359 89.8353 14.6684H89.4821C88.7583 14.6955 88.0744 14.629 87.441 14.4805ZM124.502 31.9876C123.888 32.046 123.316 32.326 122.894 32.7752C122.646 33.0515 122.466 33.3818 122.368 33.7398C122.27 34.0978 122.257 34.4736 122.33 34.8375C122.411 35.3538 122.663 35.8278 123.047 36.1823C123.431 36.5368 123.924 36.7509 124.445 36.79L125.338 36.8711C126.25 36.9618 127.204 37.0525 128.159 37.0525C128.601 37.0543 129.042 37.0304 129.481 36.9809C132.112 36.6706 133.845 35.2051 134.499 32.737C135.372 29.4432 133.907 26.6314 130.565 25.1993C129.963 24.9606 129.352 24.7124 128.746 24.4164C128.588 24.3412 128.449 24.232 128.339 24.0967C128.228 23.9613 128.149 23.8031 128.107 23.6335C128.076 23.529 128.076 23.4181 128.107 23.3137C128.127 23.2368 128.166 23.1662 128.221 23.1084C128.33 22.9816 128.466 22.8804 128.619 22.812C128.771 22.7435 128.937 22.7094 129.104 22.7122H129.152C129.577 22.7217 130.746 22.8506 130.746 22.8506C130.956 22.884 131.147 22.884 131.324 22.884C132.565 22.884 133.324 22.3398 133.639 21.2275C133.997 19.7954 133.348 18.6163 131.988 18.2248C130.309 17.6855 128.51 17.6523 126.813 18.1294C125.918 18.3396 125.086 18.7578 124.383 19.35C123.681 19.9422 123.128 20.6918 122.769 21.5378C121.495 24.4737 122.469 27.3809 125.252 28.9467C125.741 29.212 126.243 29.4525 126.756 29.6675C127.287 29.8843 127.804 30.1362 128.302 30.4218C128.356 30.4557 128.407 30.494 128.455 30.5363C128.582 30.6566 128.677 30.8074 128.73 30.9746C128.782 31.1417 128.791 31.3195 128.756 31.4911C128.727 31.6604 128.654 31.8189 128.543 31.95C128.432 32.0811 128.288 32.1798 128.126 32.2358C128.051 32.2658 127.972 32.282 127.892 32.2835C127.426 32.2692 126.963 32.2133 126.507 32.1165C126.116 32.0374 125.721 31.9816 125.323 31.9494H125.075C124.884 31.9516 124.692 31.9644 124.502 31.9876ZM88.451 40.7951C88.849 40.8722 89.2533 40.9121 89.6587 40.9145C90.5979 40.94 91.5249 40.6982 92.332 40.2173C93.1391 39.7365 93.793 39.0363 94.2176 38.1982C94.7529 37.1636 94.9234 35.9787 94.7016 34.8352C94.4799 33.6916 93.8788 32.6564 92.9956 31.8969C91.8886 31.0486 90.5281 30.5979 89.1336 30.6175C87.949 30.5764 86.7894 30.9646 85.8684 31.7107C85.0691 32.3668 84.4843 33.2469 84.1891 34.2379C83.8939 35.229 83.9018 36.2856 84.2119 37.2721C84.7465 39.1482 86.2121 40.3655 88.451 40.7951ZM83.09 30.5173L83.1425 30.9946C83.1849 31.3128 83.2088 31.6332 83.2141 31.9541C83.6156 31.3264 84.097 30.7535 84.6463 30.2499C85.0589 29.8896 85.5201 29.5891 86.0163 29.3572C86.0602 29.3365 86.0991 29.3066 86.1304 29.2695C86.1617 29.2325 86.1846 29.1891 86.1977 29.1424C86.2109 29.0943 86.2139 29.044 86.2065 28.9947C86.1991 28.9453 86.1815 28.8981 86.1548 28.856C85.972 28.5834 85.8123 28.296 85.6774 27.9967C85.3632 27.2544 85.2013 26.4565 85.2013 25.6504C85.2013 24.8443 85.3632 24.0464 85.6774 23.3041C85.3227 23.3658 84.9611 23.3771 84.6033 23.3375H84.4649C84.2166 23.3375 83.8013 23.3375 83.176 24.3782L82.9564 24.7983C82.7084 25.267 82.6022 25.7978 82.6508 26.3259C82.7739 27.6661 82.905 28.8486 83.0517 30.1712C83.0643 30.2854 83.0771 30.4007 83.09 30.5173ZM81.1996 30.7512C81.0325 29.2713 80.8893 27.9919 80.7557 26.5216H80.7509C80.6645 25.6226 80.8438 24.7181 81.2665 23.9199L81.5147 23.4425C82.4026 21.9245 83.429 21.3278 84.7895 21.4471C84.8674 21.452 84.9455 21.452 85.0234 21.4471C85.7347 21.4471 86.1977 21.0414 86.3982 20.2441C86.6322 19.2416 86.7992 18.4492 86.9234 17.7522C86.9828 17.498 86.9828 17.2334 86.9232 16.9792C86.8635 16.725 86.746 16.488 86.5796 16.2867C86.3666 16.0913 86.112 15.9467 85.835 15.864C85.5579 15.7813 85.2657 15.7626 84.9804 15.8093C83.8061 15.9143 82.1496 16.2055 80.9418 17.4992L80.8702 17.5804L80.6411 17.4038C80.2451 17.0566 79.7932 16.7789 79.3044 16.5827C78.9749 16.4658 78.6278 16.4061 78.2781 16.406C77.6836 16.4114 77.1058 16.6034 76.6264 16.955C76.2126 17.2602 75.8767 17.6588 75.6461 18.1184C75.4154 18.578 75.2966 19.0855 75.2993 19.5997V24.6933V27.2854C75.2993 28.8846 75.2993 30.5363 75.347 32.1594C75.3557 32.9164 75.6602 33.6399 76.1955 34.1752C76.7308 34.7104 77.4543 35.015 78.2113 35.0237C78.6309 35.0333 79.0478 34.953 79.4339 34.7884C79.8201 34.6237 80.1665 34.3784 80.4501 34.0689C80.7775 33.6794 81.0179 33.2246 81.1554 32.7348C81.2928 32.245 81.3242 31.7314 81.2474 31.2285L81.1996 30.7512ZM91.3635 29.7504C91.9374 29.7413 92.5037 29.6174 93.029 29.3859L93.0242 29.3715C93.5163 29.1424 93.9566 28.8156 94.3185 28.411C94.6804 28.0065 94.9563 27.5326 95.1294 27.0181C95.3692 26.2269 95.8088 25.5108 96.4058 24.9388C97.0028 24.3669 97.7371 23.9584 98.5379 23.7528C102.629 22.4878 105.636 17.294 104.682 13.0644C104.085 10.2479 102.228 8.19518 99.2158 6.95878C96.5834 5.89436 93.7626 5.37469 90.9238 5.43118C89.969 5.43118 88.9474 5.47892 87.8924 5.56962C87.454 5.59621 87.0251 5.70898 86.6303 5.90147C86.2354 6.09397 85.8825 6.36241 85.5915 6.69145C85.3041 7.03498 85.0878 7.43213 84.955 7.85989C84.8223 8.28764 84.7757 8.73748 84.8181 9.18335C84.99 11.3411 86.6417 12.6014 89.2864 12.4916H89.7351C91.0461 12.4972 92.3508 12.6737 93.6162 13.0167C93.8959 13.0766 94.1609 13.192 94.3954 13.356C94.6298 13.5199 94.8291 13.7292 94.9814 13.9714C95.1235 14.2736 95.2038 14.6011 95.2177 14.9347C95.2317 15.2683 95.1789 15.6014 95.0626 15.9143C94.5614 17.5613 93.3775 18.7786 91.3438 19.7333C89.5777 20.652 88.2028 22.1778 87.4723 24.0297C87.2474 24.5429 87.1284 25.0963 87.1227 25.6565C87.1169 26.2168 87.2245 26.7725 87.4389 27.2902C87.6483 27.7821 87.9556 28.2263 88.3421 28.5956C88.7287 28.9649 89.1864 29.2517 89.6874 29.4384C90.2196 29.6533 90.7895 29.7594 91.3635 29.7504ZM108.489 34.766C109.55 35.2155 110.69 35.4461 111.842 35.4438L111.838 35.4294C111.994 35.4294 112.153 35.425 112.308 35.4206C112.379 35.4186 112.451 35.4166 112.52 35.4151C114.512 35.4276 116.435 34.6837 117.9 33.3338C119.572 31.7819 120.704 29.7373 121.134 27.4973C121.563 25.2574 121.266 22.9389 120.287 20.879C119.637 19.4636 118.629 18.2422 117.362 17.3355C116.095 16.4288 114.614 15.8682 113.064 15.7091C112.722 15.6708 112.378 15.6517 112.033 15.6518C109.384 15.6518 106.863 16.7879 105.431 18.6115C104.357 20.0007 103.092 21.9149 102.829 24.4021C102.674 25.9279 102.846 27.4694 103.336 28.9228C103.826 30.3762 104.622 31.7077 105.67 32.8277C106.469 33.6572 107.428 34.3164 108.489 34.766ZM52.7728 34.8597C53.6402 34.9406 54.5308 35.0237 55.4214 35.0237C55.868 35.0246 56.3144 34.9991 56.758 34.9473C59.3931 34.637 61.126 33.1715 61.78 30.7034C62.6488 27.4048 61.1833 24.5978 57.8416 23.1657C57.2449 22.927 56.6291 22.6787 56.0276 22.378C55.8698 22.3033 55.7303 22.1949 55.619 22.0605C55.5076 21.9261 55.4271 21.7688 55.3832 21.5999C55.3527 21.4938 55.3527 21.3813 55.3832 21.2753C55.4014 21.1988 55.4412 21.1293 55.4977 21.0748C55.6089 20.9467 55.747 20.8447 55.9021 20.7762C56.0573 20.7077 56.2257 20.6744 56.3952 20.6785H56.4238C56.863 20.6881 58.0183 20.817 58.0183 20.817C58.2331 20.8456 58.424 20.8456 58.6007 20.8456C59.8419 20.8456 60.5961 20.3062 60.9159 19.1939C61.274 17.7618 60.6247 16.5827 59.2595 16.1912C57.5814 15.6529 55.7824 15.618 54.0847 16.091C53.1905 16.3034 52.3587 16.723 51.6564 17.3159C50.954 17.9087 50.4008 18.6583 50.0413 19.5042C48.7715 22.4401 49.7454 25.3473 52.5285 26.9083C53.0029 27.182 53.4921 27.429 53.994 27.6482C54.5289 27.8666 55.0488 28.1202 55.5503 28.4073C55.6027 28.4412 55.6522 28.4796 55.6982 28.5218C55.8281 28.6404 55.9246 28.791 55.9782 28.9585C56.0318 29.126 56.0406 29.3046 56.0038 29.4766C55.9762 29.6468 55.903 29.8063 55.7921 29.9382C55.6811 30.0702 55.5365 30.1697 55.3736 30.2261C55.297 30.2543 55.2165 30.2704 55.1349 30.2738C54.6691 30.2601 54.2056 30.2026 53.7505 30.1019C53.3611 30.0241 52.9674 29.9699 52.5714 29.9396C52.4887 29.935 52.4059 29.935 52.3232 29.9396C52.13 29.9396 51.9371 29.9524 51.7456 29.9778C51.1333 30.0344 50.5629 30.3128 50.1416 30.7607C49.8993 31.0371 49.7242 31.3658 49.6298 31.721C49.5354 32.0762 49.5243 32.4484 49.5974 32.8087C49.6768 33.3246 49.9286 33.7984 50.3117 34.153C50.6949 34.5075 51.1868 34.7219 51.7074 34.7611L52.5858 34.8423C52.648 34.848 52.7103 34.8539 52.7728 34.8597ZM60.8778 22.7551C62.0289 23.6353 62.9144 24.8166 63.4365 26.1684C63.4365 25.0543 63.4365 23.907 63.4269 22.7408C63.4267 22.6691 63.404 22.5992 63.3621 22.541C63.3201 22.4827 63.261 22.4391 63.193 22.4162C62.9731 22.3422 62.7618 22.2445 62.5629 22.125C62.3686 22.0004 62.185 21.8598 62.0139 21.7049C61.9493 21.6441 61.8639 21.6103 61.7752 21.6103C61.6865 21.6103 61.6012 21.6441 61.5365 21.7049C61.3457 21.8858 61.136 22.0459 60.9112 22.1823C60.8626 22.2086 60.8217 22.2471 60.7924 22.2939C60.7631 22.3408 60.7465 22.3944 60.7441 22.4496C60.7395 22.5076 60.7493 22.5658 60.7726 22.6191C60.7959 22.6724 60.832 22.7191 60.8778 22.7551ZM71.4087 22.8411V21.533C71.41 21.3999 71.4565 21.2711 71.5407 21.1679C71.6248 21.0647 71.7416 20.9931 71.8717 20.965C73.8099 20.521 74.3684 20.0198 74.3684 18.6736C74.3684 17.3274 73.6762 16.7497 71.7667 16.3726C71.6291 16.3446 71.5057 16.2689 71.4184 16.1589C71.3311 16.0488 71.2854 15.9115 71.2893 15.7711C71.3056 15.5439 71.3056 15.3157 71.2893 15.0885C71.2463 14.3075 70.9149 13.5704 70.3592 13.02C69.8035 12.4696 69.0632 12.1452 68.2818 12.1097H68.1386C66.6492 12.1574 65.4176 13.5418 65.3603 15.2365V16.005C65.3617 16.0883 65.3359 16.1697 65.2868 16.2369C65.2377 16.3041 65.1679 16.3535 65.0882 16.3774C63.4031 16.8261 62.6154 17.609 62.6154 18.7643C62.6138 19.1177 62.7003 19.466 62.867 19.7777C63.0337 20.0894 63.2753 20.3547 63.5702 20.5497C63.8737 20.6897 64.1949 20.7877 64.5249 20.8409C64.6968 20.879 64.8256 20.9077 64.9068 20.9363C65.0144 20.9662 65.1106 21.0277 65.1829 21.1128C65.2553 21.1979 65.3004 21.3027 65.3126 21.4137V21.6763C65.3603 23.1991 65.3603 24.7506 65.3603 26.2543C65.4033 28.0349 65.5847 30.3454 66.6206 32.422C66.918 33.0434 67.3477 33.5922 67.8796 34.0301C68.4115 34.468 69.0327 34.7843 69.6997 34.9568C71.38 35.3769 72.583 34.9282 73.1988 33.6488C73.9149 32.1069 73.6237 30.2595 72.5257 29.4479C71.9389 28.9506 71.562 28.2497 71.4707 27.4859C71.3921 26.2873 71.3986 25.0534 71.4051 23.8373C71.4069 23.5035 71.4087 23.1711 71.4087 22.8411ZM37.0472 34.2426C37.0109 34.7036 36.874 35.1511 36.6462 35.5536C36.0945 36.2988 35.293 36.8207 34.3882 37.0239C33.8517 37.1458 33.3674 37.4339 33.004 37.8469C32.6406 38.26 32.4167 38.7772 32.3641 39.3248C32.296 39.7833 32.3532 40.2517 32.5297 40.6804C32.7062 41.109 32.9954 41.4819 33.3666 41.7594C33.6903 41.9945 34.052 42.1721 34.4359 42.2845C35.3691 42.6021 36.3652 42.6894 37.3394 42.5389C38.3135 42.3885 39.2369 42.0048 40.0308 41.4205C41.6062 40.3138 42.7393 38.6853 43.2292 36.8234C44.1314 33.94 44.9525 31.2667 45.8261 28.4025L45.8548 28.3022C46.5756 25.944 47.306 23.5571 48.0936 21.027C48.107 20.9634 48.1486 20.8082 48.1953 20.6338C48.2152 20.5596 48.236 20.482 48.256 20.4064C48.4008 19.917 48.4302 19.4007 48.3419 18.8979C48.2472 18.3416 47.987 17.8268 47.5952 17.4206C47.2035 17.0144 46.6985 16.7357 46.146 16.6209C45.9638 16.5832 45.7782 16.564 45.5922 16.5636C44.3176 16.5636 43.3056 17.4563 43.0048 18.8884C42.7823 19.5997 42.6036 20.307 42.4287 20.9994C42.4123 21.0644 42.3959 21.1293 42.3795 21.1941C42.1121 22.2157 41.692 23.7958 41.334 25.1277C41.3036 25.2534 41.2312 25.365 41.1288 25.444C41.0264 25.523 40.9 25.5646 40.7707 25.5621C40.6427 25.5657 40.5172 25.5262 40.4142 25.4501C40.3112 25.3739 40.2367 25.2655 40.2026 25.142L38.4173 19.0937V19.0555C38.1895 18.3769 37.8238 17.7528 37.3432 17.2223C36.825 16.7743 36.1564 16.5389 35.4718 16.5636C34.867 16.5463 34.2712 16.7127 33.7628 17.0409C33.2298 17.4257 32.835 17.9721 32.6372 18.599C32.4394 19.226 32.4491 19.9 32.6649 20.521C32.8453 21.0667 33.0513 21.5954 33.2506 22.1071C33.2622 22.137 33.2739 22.1668 33.2855 22.1966C33.4955 22.736 33.7103 23.2946 33.9061 23.8674C34.1018 24.4403 34.3023 25.0131 34.5028 25.586V25.6194C35.3764 28.1113 36.1975 30.4982 36.8562 32.885C37.0183 33.3182 37.0835 33.7816 37.0472 34.2426ZM31.524 32.083V29.615C31.524 29.6118 31.524 29.6086 31.524 29.6055C31.524 29.0797 31.5277 28.5478 31.5313 28.0132C31.5388 26.9296 31.5463 25.8353 31.524 24.7601C31.5854 22.3495 30.8187 19.9907 29.3519 18.0769C28.9081 17.4791 28.3484 16.977 27.7062 16.6005C27.0639 16.224 26.3524 15.9809 25.614 15.8857C24.8894 15.8042 24.1558 15.8696 23.457 16.078C22.7582 16.2863 22.1085 16.6333 21.5468 17.0982C21.0287 17.4939 20.5709 17.9221 20.1324 18.3324L20.1147 18.349L19.9476 18.5065C19.9287 18.525 19.9063 18.5396 19.8817 18.5495C19.8571 18.5593 19.8309 18.5642 19.8044 18.5638C19.769 18.562 19.7345 18.5525 19.7032 18.5361C19.6718 18.5196 19.6445 18.4964 19.623 18.4683C18.5393 16.8834 17.2409 16.048 15.6465 15.9287C13.6606 15.7759 12.2046 16.2628 11.1305 17.4228C11.0878 17.4676 11.0299 17.4949 10.9682 17.4992C10.9356 17.5007 10.9031 17.4946 10.8732 17.4813C10.8434 17.4681 10.8171 17.4481 10.7963 17.4228C9.9991 16.4538 9.56469 16.3631 7.65519 16.406C7.33125 16.3799 7.00537 16.4202 6.69755 16.5244C6.38972 16.6287 6.10643 16.7947 5.86504 17.0123C5.31128 17.5995 5.22535 18.6163 5.26832 19.9577V30.8944C5.23013 32.6368 5.49746 33.7348 6.11804 34.3744C6.38009 34.6197 6.69022 34.8079 7.02877 34.927C7.36733 35.0462 7.72694 35.0937 8.08483 35.0666C8.50089 35.0969 8.9186 35.0375 9.30977 34.8926C9.70094 34.7477 10.0565 34.5205 10.3524 34.2265C10.6687 33.8399 10.9026 33.3928 11.0397 32.9126C11.1768 32.4323 11.2142 31.9291 11.1496 31.4338L11.1209 28.8178V28.7366C11.1544 27.9585 11.1544 27.1422 11.1544 26.3498V26.3498C11.1448 25.4666 11.1353 24.5596 11.2069 23.6669C11.2393 23.1101 11.4658 22.5823 11.8469 22.1751C12.2279 21.7678 12.7396 21.5069 13.293 21.4376H13.3741C13.8829 21.4837 14.3625 21.6955 14.7393 22.0405C15.1161 22.3854 15.3694 22.8444 15.4603 23.3471C15.4967 23.6639 15.511 23.983 15.5032 24.3018V30.4886C15.4715 31.2253 15.5051 31.9633 15.6035 32.6941C15.9472 34.4031 17.1884 35.2242 19.1647 35.0284C20.5539 34.9234 21.6327 33.5581 21.5516 31.9876L21.5229 30.5554V27.2138C21.5229 26.8749 21.5198 26.5349 21.5166 26.1949C21.5102 25.5149 21.5038 24.8349 21.5229 24.1634C21.5707 22.7265 22.5684 21.5092 23.7045 21.5092H23.7618C24.8407 21.5092 25.7955 22.6119 25.9387 24.044V24.3496V26.8176V26.9274C25.9387 27.4874 25.9329 28.0505 25.9271 28.6169C25.9154 29.7599 25.9036 30.9164 25.9387 32.0878C25.9912 33.8398 27.1369 35.0666 28.7313 35.0666C30.4021 35.0666 31.524 33.8684 31.524 32.083ZM110.238 22.0869C110.738 21.5624 111.424 21.254 112.148 21.2276C112.51 21.2395 112.866 21.3247 113.194 21.4782C113.522 21.6316 113.816 21.8501 114.057 22.1203C115.671 23.7386 115.762 26.9657 114.239 28.7654C113.998 29.0809 113.689 29.3385 113.335 29.5194C112.982 29.7003 112.592 29.7999 112.196 29.8108H111.904C111.516 29.7567 111.142 29.6233 110.807 29.4188C110.472 29.2143 110.183 28.9432 109.957 28.6221C108.391 26.5456 108.51 23.7386 110.238 22.0869ZM112.176 28.1639C112.305 28.1639 112.534 28.1639 112.955 27.6865C113.905 26.5503 113.857 24.3115 112.835 23.3281C112.657 23.114 112.405 22.9744 112.129 22.9366C111.838 22.9731 111.57 23.1139 111.374 23.3328C110.257 24.3735 110.214 26.2305 111.269 27.6292C111.455 27.9052 111.741 28.0973 112.067 28.1639H112.176Z" fill="url(#paint0_linear_520_7506)"/>
<defs>
<filter id="filter0_i_520_7506" x="0" y="0.167969" width="140" height="51.6646" filterUnits="userSpaceOnUse" color-interpolation-filters="sRGB">
<feFlood flood-opacity="0" result="BackgroundImageFix"/>
<feBlend mode="normal" in="SourceGraphic" in2="BackgroundImageFix" result="shape"/>
<feColorMatrix in="SourceAlpha" type="matrix" values="0 0 0 0 0 0 0 0 0 0 0 0 0 0 0 0 0 0 127 0" result="hardAlpha"/>
<feOffset dy="10"/>
<feGaussianBlur stdDeviation="2"/>
<feComposite in2="hardAlpha" operator="arithmetic" k2="-1" k3="1"/>
<feColorMatrix type="matrix" values="0 0 0 0 0 0 0 0 0 0 0 0 0 0 0 0 0 0 0.04 0"/>
<feBlend mode="normal" in2="shape" result="effect1_innerShadow_520_7506"/>
</filter>
<filter id="filter1_di_520_7506" x="0.305634" y="4.46777" width="139.402" height="47.082" filterUnits="userSpaceOnUse" color-interpolation-filters="sRGB">
<feFlood flood-opacity="0" result="BackgroundImageFix"/>
<feColorMatrix in="SourceAlpha" type="matrix" values="0 0 0 0 0 0 0 0 0 0 0 0 0 0 0 0 0 0 127 0" result="hardAlpha"/>
<feOffset dy="4"/>
<feGaussianBlur stdDeviation="2"/>
<feComposite in2="hardAlpha" operator="out"/>
<feColorMatrix type="matrix" values="0 0 0 0 0 0 0 0 0 0 0 0 0 0 0 0 0 0 0.25 0"/>
<feBlend mode="normal" in2="BackgroundImageFix" result="effect1_dropShadow_520_7506"/>
<feBlend mode="normal" in="SourceGraphic" in2="effect1_dropShadow_520_7506" result="shape"/>
<feColorMatrix in="SourceAlpha" type="matrix" values="0 0 0 0 0 0 0 0 0 0 0 0 0 0 0 0 0 0 127 0" result="hardAlpha"/>
<feOffset dy="4"/>
<feGaussianBlur stdDeviation="2"/>
<feComposite in2="hardAlpha" operator="arithmetic" k2="-1" k3="1"/>
<feColorMatrix type="matrix" values="0 0 0 0 0 0 0 0 0 0 0 0 0 0 0 0 0 0 0.04 0"/>
<feBlend mode="normal" in2="shape" result="effect2_innerShadow_520_7506"/>
</filter>
<linearGradient id="paint0_linear_520_7506" x1="70.0036" y1="3.51318" x2="69.9998" y2="48.0003" gradientUnits="userSpaceOnUse">
<stop stop-color="#5026E4"/>
<stop offset="1" stop-color="#5026E4" stop-opacity="0"/>
</linearGradient>
</defs>
</svg>
