<?xml version="1.0" encoding="UTF-8"?><svg id="Laag_1" xmlns="http://www.w3.org/2000/svg" viewBox="0 0 1920 1080"><defs><style>.cls-1{fill:#e29f13;}.cls-2{fill:#ffc300;}</style></defs><g><g><path class="cls-2" d="M894.2,535.9c-4.27-5.2-9.53-7.81-15.8-7.81-2.76,0-5.32,.5-7.67,1.51-2.35,1-4.37,2.37-6.07,4.09-1.69,1.73-3.03,3.78-4,6.16-.97,2.38-1.46,4.95-1.46,7.71s.48,5.43,1.46,7.81c.97,2.38,2.32,4.45,4.05,6.21,1.72,1.76,3.75,3.14,6.07,4.14,2.32,1,4.83,1.51,7.53,1.51,5.89,0,11.19-2.51,15.9-7.53v21.83l-1.88,.66c-2.82,1-5.46,1.74-7.9,2.21-2.45,.47-4.86,.71-7.24,.71-4.89,0-9.58-.93-14.06-2.78-4.48-1.85-8.44-4.45-11.85-7.81-3.42-3.35-6.16-7.34-8.23-11.95-2.07-4.61-3.1-9.64-3.1-15.1s1.02-10.46,3.06-15.01c2.04-4.55,4.77-8.47,8.18-11.76,3.42-3.29,7.38-5.86,11.9-7.71,4.52-1.85,9.25-2.78,14.21-2.78,2.82,0,5.6,.3,8.33,.89,2.73,.6,5.6,1.52,8.61,2.78v22.01Z"/><path class="cls-2" d="M973.47,583.13h-22.95l-17.59-27.28v27.28h-18.44v-70.93h28.69c3.95,0,7.4,.58,10.35,1.74,2.95,1.16,5.38,2.74,7.29,4.75,1.91,2.01,3.35,4.33,4.33,6.96,.97,2.63,1.46,5.46,1.46,8.47,0,5.39-1.3,9.77-3.9,13.12-2.6,3.36-6.44,5.63-11.52,6.82l22.3,29.07Zm-40.55-39.23h3.48c3.64,0,6.43-.75,8.37-2.26,1.94-1.5,2.92-3.67,2.92-6.49s-.97-4.99-2.92-6.49c-1.94-1.5-4.74-2.26-8.37-2.26h-3.48v17.5Z"/><path class="cls-2" d="M1001.39,549.07l-25.87-36.88h22.01l13.17,19.38,13.08-19.38h22.01l-25.96,36.88v34.06h-18.44v-34.06Z"/><path class="cls-2" d="M1077.78,583.13h-18.44v-70.93h29.35c7.96,0,14.06,2.07,18.3,6.21,4.23,4.14,6.35,9.97,6.35,17.5s-2.12,13.36-6.35,17.5c-4.23,4.14-10.33,6.21-18.3,6.21h-10.91v23.52Zm0-38.38h6.12c6.77,0,10.16-2.95,10.16-8.84s-3.39-8.84-10.16-8.84h-6.12v17.69Z"/><path class="cls-2" d="M1160.52,527.81v55.32h-18.44v-55.32h-15.15v-15.62h48.73v15.62h-15.15Z"/><path class="cls-2" d="M1187.99,547.66c0-5.27,.97-10.17,2.92-14.72,1.94-4.55,4.64-8.51,8.09-11.9,3.45-3.39,7.57-6.04,12.37-7.95,4.8-1.91,10.08-2.87,15.85-2.87s10.97,.96,15.8,2.87c4.83,1.91,8.98,4.56,12.47,7.95,3.48,3.39,6.19,7.35,8.14,11.9,1.94,4.55,2.92,9.46,2.92,14.72s-.97,10.18-2.92,14.72c-1.95,4.55-4.66,8.51-8.14,11.9-3.48,3.39-7.64,6.04-12.47,7.95-4.83,1.91-10.1,2.87-15.8,2.87s-11.05-.96-15.85-2.87c-4.8-1.91-8.92-4.56-12.37-7.95-3.45-3.39-6.15-7.35-8.09-11.9-1.95-4.55-2.92-9.45-2.92-14.72Zm19.29,0c0,2.82,.53,5.43,1.6,7.81,1.07,2.38,2.51,4.45,4.33,6.21s3.93,3.12,6.35,4.09c2.41,.97,4.97,1.46,7.67,1.46s5.25-.49,7.67-1.46c2.41-.97,4.55-2.34,6.4-4.09,1.85-1.76,3.31-3.82,4.37-6.21,1.06-2.38,1.6-4.99,1.6-7.81s-.53-5.42-1.6-7.81c-1.07-2.38-2.53-4.45-4.37-6.21-1.85-1.75-3.98-3.12-6.4-4.09-2.42-.97-4.97-1.46-7.67-1.46s-5.25,.49-7.67,1.46c-2.42,.97-4.53,2.34-6.35,4.09-1.82,1.76-3.26,3.83-4.33,6.21-1.07,2.38-1.6,4.99-1.6,7.81Z"/></g><g><path class="cls-1" d="M864.94,696.31h-25.31v-96.58h40.29c10.93,0,19.31,2.82,25.12,8.45,5.81,5.64,8.72,13.58,8.72,23.82s-2.91,18.19-8.72,23.82c-5.81,5.64-14.19,8.45-25.12,8.45h-14.98v32.02Zm0-52.26h8.39c9.3,0,13.95-4.01,13.95-12.04s-4.65-12.04-13.95-12.04h-8.39v24.08Z"/><path class="cls-1" d="M931.05,648.02c0-7.17,1.33-13.85,4-20.05,2.67-6.19,6.37-11.59,11.11-16.2,4.73-4.61,10.4-8.22,16.98-10.82,6.59-2.6,13.84-3.91,21.76-3.91s15.07,1.3,21.7,3.91c6.63,2.61,12.33,6.21,17.11,10.82,4.78,4.61,8.5,10.01,11.17,16.2,2.67,6.19,4,12.87,4,20.05s-1.34,13.86-4,20.05c-2.67,6.19-6.39,11.59-11.17,16.2-4.78,4.61-10.48,8.22-17.11,10.82-6.63,2.6-13.86,3.91-21.7,3.91s-15.17-1.3-21.76-3.91c-6.59-2.6-12.25-6.21-16.98-10.82-4.74-4.61-8.44-10.01-11.11-16.2-2.67-6.19-4-12.87-4-20.05Zm26.47,0c0,3.84,.73,7.39,2.2,10.63,1.46,3.25,3.44,6.07,5.94,8.45,2.5,2.39,5.4,4.25,8.72,5.57,3.31,1.32,6.82,1.98,10.52,1.98s7.21-.66,10.53-1.98c3.31-1.32,6.24-3.18,8.78-5.57,2.54-2.39,4.54-5.21,6.01-8.45,1.46-3.24,2.2-6.79,2.2-10.63s-.73-7.38-2.2-10.63c-1.46-3.24-3.47-6.06-6.01-8.45-2.54-2.39-5.47-4.25-8.78-5.57-3.32-1.32-6.82-1.98-10.53-1.98s-7.21,.66-10.52,1.98c-3.32,1.33-6.22,3.18-8.72,5.57-2.5,2.39-4.48,5.21-5.94,8.45-1.46,3.25-2.2,6.79-2.2,10.63Z"/><path class="cls-1" d="M1086.33,599.73v75.32h30.35v21.26h-55.66v-96.58h25.31Z"/><path class="cls-1" d="M1167.95,599.73v96.58h-25.31v-96.58h25.31Z"/><path class="cls-1" d="M1252.24,624.45c-2.76-2.22-5.51-3.86-8.27-4.93-2.76-1.07-5.42-1.6-8.01-1.6-3.27,0-5.94,.77-8.01,2.31-2.07,1.54-3.1,3.55-3.1,6.02,0,1.71,.52,3.12,1.55,4.23,1.03,1.11,2.39,2.07,4.07,2.88,1.68,.81,3.57,1.52,5.68,2.11,2.11,.6,4.2,1.24,6.26,1.92,8.27,2.73,14.31,6.38,18.14,10.95,3.83,4.57,5.75,10.53,5.75,17.87,0,4.95-.84,9.44-2.52,13.45-1.68,4.02-4.13,7.45-7.36,10.31-3.23,2.86-7.19,5.08-11.88,6.66-4.69,1.58-10.01,2.37-15.95,2.37-12.31,0-23.72-3.63-34.22-10.89l10.85-20.24c3.79,3.33,7.53,5.81,11.23,7.43,3.7,1.62,7.36,2.43,10.98,2.43,4.13,0,7.21-.94,9.23-2.82,2.02-1.88,3.03-4.01,3.03-6.4,0-1.45-.26-2.71-.77-3.78-.52-1.07-1.38-2.05-2.58-2.95-1.21-.9-2.78-1.73-4.71-2.5-1.94-.77-4.28-1.62-7.04-2.56-3.27-1.03-6.48-2.16-9.62-3.39-3.14-1.24-5.94-2.88-8.39-4.93-2.45-2.05-4.44-4.63-5.94-7.75-1.51-3.12-2.26-7.06-2.26-11.85s.79-9.11,2.39-13c1.59-3.88,3.83-7.22,6.71-9.99,2.88-2.77,6.41-4.93,10.59-6.47,4.17-1.54,8.84-2.31,14.01-2.31,4.82,0,9.86,.66,15.11,1.98,5.25,1.33,10.29,3.27,15.11,5.83l-10.07,19.6Z"/></g></g><g><path class="cls-1" d="M1105.05,493.21c-3.76,0-6.9-2.68-7.48-6.38l-.04-.33-10.55-124.26,8.27,6.12c5.13,3.79,22.02,16.33,24.05,18.35l1.14,1.13,9.29,76.6h42.98v9.3h-44.53c-3.74,0-6.88-2.68-7.47-6.37l-.02-.17-9.08-74.84c-2.32-1.86-7.64-5.9-13.62-10.37l8.65,101.91,102.84-.37,.03,9.3-104.47,.38Z"/><path class="cls-1" d="M1005.31,493.21l-108.21-.38,.03-9.3,106.57,.37,8.65-101.91c-5.97,4.46-11.29,8.5-13.62,10.37l-9.1,75.01c-.58,3.69-3.72,6.38-7.47,6.38h-44.53v-9.3h42.98l9.29-76.6,1.14-1.13c2.02-2.02,18.92-14.56,24.05-18.35l8.27-6.12-10.59,124.6c-.58,3.7-3.72,6.38-7.47,6.38Z"/><polygon class="cls-2" points="1073.23 344 1069.96 344 1040.39 344 1037.12 344 1028.35 493.4 1037.67 493.4 1045.9 353.3 1064.45 353.3 1072.68 493.4 1082 493.4 1073.23 344"/></g></svg>