<svg width="1109" height="366" viewBox="0 0 1109 366" fill="none" xmlns="http://www.w3.org/2000/svg">
<path d="M6.92193 185.324L124.808 272.945C124.995 272.945 124.995 273.131 125.182 273.131L168.899 305.501C172.636 308.292 177.867 305.687 177.867 301.036L178.054 59.7517C177.68 55.4729 177.119 51.0081 176.185 46.7294C175.251 42.6366 173.943 38.7299 172.075 35.3813C175.251 59.0075 161.8 86.5404 139.007 104.586C133.963 108.678 127.05 113.143 119.391 116.306C111.17 119.84 86.3225 128.398 86.3225 128.398L11.4057 155.373C-1.48519 160.023 -4.10074 177.138 6.92193 185.324Z" fill="white"/>
<path d="M123.874 114.257C124.061 114.071 124.435 114.071 124.621 113.885C124.995 113.699 125.369 113.513 125.929 113.141C126.49 112.955 126.863 112.583 127.424 112.396C127.611 112.21 127.984 112.024 128.171 112.024C128.732 111.652 129.479 111.28 130.039 110.908C130.226 110.722 130.413 110.722 130.6 110.536C131.16 110.164 131.721 109.792 132.468 109.42C132.842 109.234 133.029 109.048 133.402 108.862C133.776 108.49 134.336 108.304 134.71 107.932C135.27 107.56 135.831 107.002 136.578 106.629C136.765 106.629 136.765 106.443 136.952 106.443C137.699 105.885 138.446 105.327 139.194 104.769C161.986 86.7239 175.438 59.1911 172.262 35.5649C170.954 33.3325 169.273 31.2861 167.404 29.7979L128.545 1.1488C124.808 -1.64169 119.39 0.962768 119.39 5.61359V73.1435C119.39 115.559 86.3223 128.395 86.3223 128.395C86.3223 128.395 111.357 120.024 119.39 116.489C120.885 115.745 122.379 115.001 123.874 114.257Z" fill="#DBD9FF"/>
<path d="M368.893 180.678L250.931 93.0563C250.744 93.0563 250.744 92.8703 250.557 92.8703L206.812 60.5006C203.073 57.7101 197.839 60.3146 197.839 64.9654V306.249C198.213 310.528 198.774 314.993 199.708 319.272C200.643 323.364 201.952 327.271 203.821 330.62C200.643 306.994 214.103 279.461 236.91 261.416C241.958 257.323 248.875 252.858 256.539 249.696C264.578 246.161 289.628 237.79 289.628 237.79L364.593 210.815C377.492 205.978 379.922 188.863 368.893 180.678Z" fill="white"/>
<path d="M252.051 251.744C251.864 251.93 251.49 251.93 251.303 252.116C250.93 252.302 250.556 252.488 249.995 252.86C249.434 253.046 249.06 253.418 248.499 253.604C248.312 253.79 247.938 253.976 247.752 253.976C247.191 254.348 246.443 254.72 245.882 255.092C245.695 255.278 245.508 255.278 245.321 255.464C244.76 255.836 244.2 256.208 243.452 256.581C243.078 256.767 242.891 256.953 242.517 257.139C242.143 257.511 241.582 257.697 241.208 258.069C240.648 258.441 240.087 258.999 239.339 259.371C239.152 259.371 239.152 259.557 238.965 259.557C238.217 260.115 237.47 260.673 236.722 261.231C213.915 279.276 200.455 306.809 203.633 330.435C204.941 332.668 206.624 334.714 208.493 336.202L247.191 364.851C250.93 367.642 256.351 365.037 256.351 360.387V292.857C256.351 250.627 289.44 237.605 289.44 237.605C289.44 237.605 264.39 245.977 256.351 249.511C255.042 250.255 253.547 251 252.051 251.744Z" fill="#DBD9FF"/>
<path d="M458.586 101.491H518.014C525.71 101.491 532.978 102.56 540.033 104.698C546.874 106.621 553.5 109.401 559.7 113.035C565.685 116.669 571.244 120.944 576.374 125.861C581.291 130.778 585.78 136.549 589.2 142.535C592.621 148.734 595.4 155.148 597.324 162.202C599.248 169.257 600.316 176.525 600.316 184.221C600.316 191.703 599.248 199.185 597.324 206.239C595.4 213.293 592.621 219.707 588.987 225.906C585.352 231.892 581.077 237.663 575.946 242.58C570.816 247.497 565.258 251.772 559.059 255.406C552.859 258.827 546.232 261.606 539.392 263.53C532.337 265.454 525.069 266.523 517.373 266.523H458.586V101.491V101.491ZM517.159 240.229C522.504 240.229 527.634 239.587 532.551 238.091C537.468 236.808 541.957 234.884 546.232 232.319C550.508 229.754 554.356 226.761 557.776 223.341C561.196 219.92 564.189 216.073 566.541 211.797C568.892 207.522 570.816 203.032 572.099 198.116C573.381 193.413 574.023 188.282 574.023 183.152C574.023 175.242 572.526 167.546 569.533 160.919C566.541 154.079 562.479 148.093 557.348 143.176C552.218 138.26 546.019 134.198 539.178 131.419C532.337 128.64 524.855 127.144 517.373 127.144H484.88V239.801L517.159 240.229Z" fill="white"/>
<path d="M625.968 313.765L650.979 251.985L609.08 152.154H629.602C634.305 152.154 638.367 154.933 640.291 159.636C642.215 164.125 664.661 217.995 664.874 218.851L682.831 175.882C686.038 167.759 688.817 161.346 689.458 160.063C692.451 153.009 698.009 152.368 700.361 152.368H720.883L698.223 206.238C694.589 215.003 690.1 225.905 685.61 237.021C675.349 262.246 663.592 290.892 658.248 302.863C655.896 308.421 651.621 313.979 639.436 313.979L625.968 313.765Z" fill="white"/>
<path d="M1067.83 266.951C1049.02 266.951 1033.84 250.918 1028.5 242.581L1027 240.23L1028.93 238.092C1033.63 233.175 1038.76 230.61 1044.11 230.61C1048.81 230.61 1053.3 232.534 1057.15 235.954C1060.35 238.947 1063.99 241.726 1067.62 241.726C1069.33 241.726 1071.25 241.512 1073.39 240.871C1075.32 240.443 1077.03 239.588 1078.74 238.519C1080.02 237.664 1081.3 236.595 1082.16 235.313C1082.8 234.458 1083.01 233.389 1083.01 231.892C1083.01 230.61 1082.8 229.755 1082.16 228.9C1081.09 227.617 1080.02 226.334 1078.31 225.266C1076.39 223.983 1074.25 222.914 1071.9 222.059C1069.33 220.99 1066.77 220.349 1064.2 219.707C1060.14 218.639 1056.29 217.142 1052.44 215.218C1048.59 213.294 1044.96 210.943 1041.97 208.378C1038.33 205.385 1035.55 201.751 1033.42 197.689C1031.49 194.055 1030.42 189.993 1030.42 185.504C1030.42 180.587 1031.28 175.884 1033.2 171.609C1035.13 167.333 1037.69 163.699 1041.11 160.706C1044.32 157.714 1048.38 155.362 1053.08 153.652C1057.57 152.156 1062.49 151.301 1067.83 151.301C1075.53 151.301 1082.8 153.011 1089 156.431C1095.2 159.851 1103.11 166.906 1105.24 173.105L1106.1 175.457L1104.39 177.167C1099.9 181.229 1095.2 183.366 1089.85 183.366C1086.22 183.366 1082.8 182.297 1079.16 180.373C1076.17 178.663 1069.76 176.739 1067.83 176.739C1065.91 176.739 1063.99 176.953 1062.49 177.594C1060.99 178.022 1059.92 178.663 1058.86 179.518C1058 180.16 1057.36 181.229 1056.72 182.084C1056.29 183.153 1056.08 184.221 1056.08 185.504C1056.08 186.359 1056.29 187 1056.72 187.642C1057.36 188.711 1058.21 189.566 1059.28 190.207C1060.57 191.062 1062.06 191.917 1063.77 192.558C1065.7 193.2 1067.41 193.841 1069.12 194.269L1072.11 195.124C1077.45 196.62 1082.16 198.33 1086.43 200.468C1090.92 202.606 1094.77 205.171 1097.98 208.164C1101.4 211.157 1103.96 214.791 1105.89 218.639C1107.81 222.7 1108.88 226.976 1108.88 231.465C1108.88 237.023 1107.6 242.367 1105.24 246.856C1102.89 251.346 1099.69 254.98 1095.84 257.973C1091.99 260.752 1087.72 263.103 1082.58 264.599C1077.88 266.096 1072.96 266.951 1067.83 266.951Z" fill="white"/>
<path d="M792.496 258.398C779.456 258.398 769.409 252.626 762.141 244.289V313.123H736.061V151.725H749.101C752.521 151.725 755.941 153.008 758.293 155.36C760.644 157.925 762.354 161.131 762.354 164.338V164.552C769.836 156.001 779.884 150.443 792.71 150.443C822.638 150.443 844.229 173.103 844.229 204.313C844.015 235.738 822.211 258.398 792.496 258.398ZM790.145 170.751C774.539 170.751 762.141 184.433 762.141 204.313C762.141 224.408 774.539 238.089 790.145 238.089C805.536 238.089 818.149 224.408 818.149 204.313C818.149 184.433 805.323 170.751 790.145 170.751Z" fill="white"/>
<path d="M876.082 142.104C867.531 142.104 860.263 135.05 860.263 126.285C860.263 117.521 867.531 110.466 876.082 110.466C884.846 110.466 891.901 117.521 891.901 126.285C891.687 135.264 884.846 142.104 876.082 142.104ZM876.082 155.999H889.122V265.45H862.828V169.253C862.828 161.985 868.814 155.999 876.082 155.999Z" fill="white"/>
<path d="M939.358 221.846C939.358 238.306 949.191 245.788 958.597 245.147C970.568 244.292 980.402 234.672 980.402 213.722V165.624C980.402 158.142 986.815 151.942 994.297 151.942H1007.98V265.883H980.402V251.987C973.989 260.111 963.086 267.379 947.481 267.379C927.814 267.379 911.781 251.987 911.781 228.9V151.942H939.358V221.846V221.846Z" fill="white"/>
</svg>
