<svg xmlns="http://www.w3.org/2000/svg" xmlns:xlink="http://www.w3.org/1999/xlink" viewBox="0 0 6860.93 1254.06"><defs><style>.cls-1{fill:none;}.cls-2{fill:#bdf4f2;}.cls-3{fill:#00b4ba;}.cls-4{clip-path:url(#clip-path);}.cls-5{fill:#00e4db;}</style><clipPath id="clip-path" transform="translate(22.89)"><path class="cls-1" d="M480.29,998.47,316.47,755.42a11.33,11.33,0,0,0-9.94-5L12.4,771.49a11.51,11.51,0,0,1-8.35-20.25L518,309.17a11.51,11.51,0,0,1,18.57,9.29l-35,674.16a11.52,11.52,0,0,1-21.27,5.85Z"/></clipPath></defs><g id="Layer_2" data-name="Layer 2"><g id="Layer_1-2" data-name="Layer 1"><g id="Layer_1-2-2" data-name="Layer 1-2"><path d="M2143.17,643.23V980.92a39.47,39.47,0,0,1-39.47,38.26h-111a39.47,39.47,0,0,1-39.47-38.26V648.34c0-66.31-30.65-144-116.09-150.45a114.83,114.83,0,0,0-90.55,30.65A155.4,155.4,0,0,0,1702,642V980.92a39.29,39.29,0,0,1-38.27,38.26H1551.57a38.35,38.35,0,0,1-38.26-38.26V648.34c0-66.31-30.65-144-116-150.45a117.65,117.65,0,0,0-91.85,30.65,156.39,156.39,0,0,0-44.67,114.69V980.92a38.35,38.35,0,0,1-38.17,38.26H1110.34a39.28,39.28,0,0,1-38.26-38.26v-330c0-181.1,130-345.58,320.13-343A307.41,307.41,0,0,1,1609,402.32a32.78,32.78,0,0,0,6.31-7.71A308.59,308.59,0,0,1,1833.35,308C2009.34,312.24,2143.17,454.52,2143.17,643.23Z" transform="translate(22.89)"/><path d="M2394.39,1019.46a38.45,38.45,0,0,1-38.26-38.27V498H2279.6a38.35,38.35,0,0,1-38.26-38.26V368a39.55,39.55,0,0,1,38.26-39.56h225.68A39.75,39.75,0,0,1,2544.75,368v613a39.56,39.56,0,0,1-39.56,38.26Z" transform="translate(22.89)"/><path d="M2326.78,117.2a123.05,123.05,0,0,1,245.83,0,123.06,123.06,0,1,1-246.11,0Z" transform="translate(22.89)"/><path d="M3018.4,307.87c-168.38,0-348.09,112.28-348.09,358.39V980.92a39.29,39.29,0,0,0,38.17,38.26h112.28A38.45,38.45,0,0,0,2859,980.92V638.12c0-98.16,80.33-142.74,153-142.74,77.83,0,156.86,49.69,156.86,142.74v342.8a39.56,39.56,0,0,0,39.56,38.26H3319.3a39.58,39.58,0,0,0,39.57-38.26V658.56C3358.4,417.55,3181.11,307.87,3018.4,307.87Z" transform="translate(22.89)"/><path d="M3563.65,801.39V498h-90.18a38.35,38.35,0,0,1-38.26-38.26V368a39.47,39.47,0,0,1,38.26-39.66H3564V203.39a37.14,37.14,0,0,1,36-38.26c.75,0,1.51,0,2.26,0h112.19a38.36,38.36,0,0,1,37.62,38.26V328.3h154.26A39.47,39.47,0,0,1,3944.89,368v91.76A38.35,38.35,0,0,1,3906.63,498H3752.09V746.6c0,37.15,12.72,104.48,79,104.48A137.17,137.17,0,0,0,3904,832.32a37.74,37.74,0,0,1,20.43-5,39.91,39.91,0,0,1,33.15,17.83l54.8,86.65a37.9,37.9,0,0,1-9.29,51.08,290.6,290.6,0,0,1-172.09,57.3C3651.6,1039.8,3563.65,912.28,3563.65,801.39Z" transform="translate(22.89)"/><path d="M4787.7,652.24h1.3v59.9h-1.3c-9.28,209.15-151.75,314.93-293.29,326.45a199,199,0,0,1-26.74,1.21,329.16,329.16,0,0,1-178.5-52.29v228.28a37.62,37.62,0,0,1-36.95,38.26H4138.71a38.35,38.35,0,0,1-38.26-38.26V366.57a39.2,39.2,0,0,1,38.26-38.27h25.45c24.24,0,52.29,20.43,85.44,62.51a327.65,327.65,0,0,1,244.81-81.64C4639.76,320.69,4785.2,431.58,4787.7,652.24ZM4599,709.54V638.22c0-94.36-79-142.84-156.86-142.84-72.63,0-153,44.58-153,142.84v71.32c0,98.26,80.33,142.84,153,142.84C4520,852.38,4599,803.9,4599,709.54Z" transform="translate(22.89)"/><path d="M4879.46,695.52v-59.9h1.3c9.29-209.15,151.76-314.93,292-326.45a332.85,332.85,0,0,1,227,66.31,117.59,117.59,0,0,1,92.87-47.18H5522a47.64,47.64,0,0,1,45.88,47.18V979.89a39.75,39.75,0,0,1-39.47,39.57h-24.24c-24.24,0-53.59-21.73-85.44-62.51a323.3,323.3,0,0,1-219.27,82.85,198.84,198.84,0,0,1-26.84-1.21C5028.71,1027.35,4882.06,915.91,4879.46,695.52Zm188.72-62.41v81.54c0,94.36,79.13,142.84,156.86,142.84,85.44,0,153.05-53.59,153.05-142.84V633.11c0-89.25-67.61-142.84-153.05-142.84C5147.31,490.27,5068.18,538.75,5068.18,633.11Z" transform="translate(22.89)"/><path d="M5948.05,306.66c92.87,0,188.72,37.15,234.59,112.19a37.15,37.15,0,0,1-12,51.14c-.65.41-1.32.79-2,1.15L6111,505.6a29.23,29.23,0,0,1-17.83,5.1A43.84,43.84,0,0,1,6064.05,498c-26.75-30.55-74.3-44.58-116-44.58-45.88,0-85.44,17.83-85.44,49.69,0,34.45,39.56,52.29,99.46,71.42,192.53,62.5,257.54,131.32,257.54,249.92,0,137.73-133.83,214.25-272.86,214.25-114.79,0-232.18-52.29-280.48-164.47a39.11,39.11,0,0,1,21-51.14c1-.43,2.07-.81,3.12-1.15l95.66-30.65a39.84,39.84,0,0,1,47.18,22.48,119.07,119.07,0,0,0,109.68,66.31c45.88,0,88-24.24,88-66.31S5976.1,739.45,5891.58,708c-97-37.14-198.93-84.23-198.93-204.31C5693.11,374.18,5819.24,306.66,5948.05,306.66Z" transform="translate(22.89)"/><path d="M6566.11,306.66c92.88,0,188.72,37.15,234.69,112.19a37.15,37.15,0,0,1-12,51.14c-.65.41-1.32.79-2,1.15l-57.4,34.46a29.38,29.38,0,0,1-17.83,5.1A43.62,43.62,0,0,1,6682.48,498c-26.75-30.55-74.3-44.58-116.09-44.58-45.88,0-85.35,17.83-85.35,49.69,0,34.45,39.47,52.29,99.38,71.42C6773,637,6838,705.83,6838,824.43c0,137.73-133.92,214.25-272.86,214.25-114.79,0-232.18-52.29-280.56-164.47a39.19,39.19,0,0,1,21.25-51.2c1-.4,2-.77,3-1.09l95.66-30.65a39.84,39.84,0,0,1,47.17,22.48,119,119,0,0,0,109.69,66.31c45.88,0,87.95-24.24,87.95-66.31S6594.44,739.45,6510,708c-96.87-37.14-198.84-84.23-198.84-204.31C6311.46,374.18,6437.67,306.66,6566.11,306.66Z" transform="translate(22.89)"/><rect class="cls-2" x="117.58" y="230.08" width="672.21" height="929" rx="77.27" transform="translate(12.03 7.21) rotate(-0.9)"/><path class="cls-3" d="M668.73,198.19l37.15,813a69.47,69.47,0,0,1-66,72.35l-389,67.24a59.23,59.23,0,0,1-8-.65,69.38,69.38,0,0,1-58.42-65L147.81,277.69a69.65,69.65,0,0,1,65.85-72.35l391.45-72.63a62.83,62.83,0,0,1,22.57,5.39A69.36,69.36,0,0,1,668.73,198.19Z" transform="translate(22.89)"/><path class="cls-3" d="M668.73,198.19l37.15,813a69.47,69.47,0,0,1-66,72.35l-389,67.24-56.56,9.29a63.82,63.82,0,0,1-21.36,0,69.31,69.31,0,0,1-58.33-65L78,288.55a69.46,69.46,0,0,1,66.13-72.34l443.09-82.29a79.19,79.19,0,0,1,18.57-1.21,62.83,62.83,0,0,1,22.57,5.39A69.38,69.38,0,0,1,668.73,198.19Z" transform="translate(22.89)"/><g class="cls-4"><polygon class="cls-5" points="560.67 292.73 335.08 750.96 0 775.11 560.67 292.73"/><polygon class="cls-2" points="560.67 292.73 335.08 750.96 521.85 1028 560.67 292.73"/></g></g></g></g></svg>