<svg version="1.1" id="Layer_1" xmlns="http://www.w3.org/2000/svg" xmlns:xlink="http://www.w3.org/1999/xlink" x="0px" y="0px"
	 width="100%" viewBox="0 0 1024 342" enable-background="new 0 0 1024 342" xml:space="preserve">
<path fill="#FFFFFF" opacity="1.000000" stroke="none" 
	d="
M729.000000,343.000000 
	C486.000092,343.000000 243.500168,343.000000 1.000195,343.000000 
	C1.000130,229.000122 1.000130,115.000252 1.000065,1.000287 
	C342.333099,1.000191 683.666199,1.000191 1024.999512,1.000096 
	C1024.999634,114.999702 1024.999634,228.999405 1024.999756,342.999573 
	C926.500000,343.000000 828.000000,343.000000 729.000000,343.000000 
M110.624916,149.874832 
	C110.915855,149.364716 111.206787,148.854614 111.321655,148.285172 
	C111.321655,148.285172 111.396843,148.455078 111.928658,148.192673 
	C112.446754,147.606766 112.964859,147.020859 113.318764,146.366409 
	C113.318764,146.366409 113.401268,146.524048 113.944405,146.304520 
	C114.369278,145.924500 114.794144,145.544464 115.099915,145.127380 
	C115.099915,145.127380 115.113327,145.251404 115.888496,145.094955 
	C124.575706,141.100403 132.835129,143.073532 141.605728,147.198914 
	C143.128174,150.148254 144.650635,153.097580 146.044907,156.901779 
	C146.000412,158.914993 145.955917,160.928192 145.988937,162.992065 
	C145.988937,162.992065 145.941284,162.912689 145.015961,162.992691 
	C136.868408,163.030258 128.700195,162.723892 120.579643,163.211411 
	C113.771202,163.620178 106.616058,163.338501 100.153770,168.224304 
	C97.082146,171.090668 94.010521,173.957031 90.264069,177.111450 
	C89.277985,179.304016 87.819092,181.408554 87.391602,183.705093 
	C85.917870,191.622253 85.104851,199.556213 91.155479,207.055359 
	C93.549133,209.048492 95.942787,211.041626 98.482216,213.593506 
	C99.175346,213.912842 99.868484,214.232162 100.613380,214.517685 
	C100.613380,214.517685 100.673492,214.503281 101.188438,214.989288 
	C109.747681,218.166199 118.364388,219.958282 127.610725,216.102066 
	C127.610725,216.102066 127.997520,216.020905 128.524689,216.281250 
	C131.404144,214.890579 134.283585,213.499908 137.072510,212.064362 
	C137.072510,212.064362 137.098145,212.162094 137.680908,212.008743 
	C138.365356,211.350082 139.049820,210.691422 140.109741,209.456665 
	C141.268890,208.300385 142.271576,206.854507 143.652390,206.108536 
	C144.355988,205.728394 145.738937,206.605682 146.136856,207.354141 
	C146.488495,210.249786 146.840149,213.145432 147.191269,216.036697 
	C152.452377,216.036697 157.550903,216.036697 162.017105,216.036697 
	C162.017105,196.120270 162.071976,176.409866 161.931335,156.700867 
	C161.917435,154.752396 160.707642,152.812485 160.095581,150.073090 
	C159.689423,143.352737 155.462692,139.004944 150.581207,134.354111 
	C149.080948,133.524414 147.580688,132.694702 146.055389,131.961990 
	C146.055389,131.961990 146.139618,131.907776 145.678757,131.351120 
	C132.983414,126.145668 120.350639,125.628807 107.920441,131.876877 
	C107.920441,131.876877 107.896011,131.765167 107.273186,131.909286 
	C106.875816,132.268066 106.478455,132.626846 105.671143,133.548615 
	C102.839905,136.051346 100.008667,138.554062 96.894691,141.427109 
	C96.894691,141.427109 96.769524,141.875870 96.880379,141.899033 
	C96.880379,141.899033 96.854607,141.788757 96.274254,142.150589 
	C95.757980,143.404648 95.241699,144.658707 94.876289,145.935287 
	C94.876289,145.935287 94.857254,145.783936 94.241928,146.276382 
	C93.723358,148.401245 93.204781,150.526123 92.680656,152.673737 
	C98.536324,152.673737 103.754440,152.673737 109.481972,152.356842 
	C109.715378,151.589554 109.948792,150.822266 110.073456,150.059052 
	C110.073456,150.059052 110.106537,150.162720 110.624916,149.874832 
M455.771851,212.063965 
	C456.560181,211.392197 457.348511,210.720428 458.712128,209.863632 
	C459.497681,208.972519 460.283264,208.081390 461.914978,206.921478 
	C462.275452,209.074417 462.482758,211.269928 463.064209,213.361450 
	C463.334869,214.335022 464.331421,215.106796 465.905914,216.175125 
	C469.937164,216.109482 473.968384,216.043839 478.802521,216.057480 
	C478.877899,213.034042 478.953278,210.010620 479.212799,206.067017 
	C479.098969,192.043427 478.985138,178.019852 479.021729,163.094376 
	C478.369141,158.386719 477.716522,153.679047 477.085297,148.233673 
	C476.094879,146.142578 475.104431,144.051483 473.989990,141.389069 
	C473.644409,140.932388 473.298798,140.475708 472.845490,139.348755 
	C461.561188,124.044991 433.327515,124.253860 419.917908,134.872452 
	C414.112122,139.469818 410.544922,145.274872 409.841797,153.136597 
	C412.839111,153.136597 415.475342,153.136597 418.111542,153.136597 
	C420.930878,153.136597 423.750214,153.136597 426.439667,153.136597 
	C430.250610,144.347672 438.822479,140.951080 449.590546,143.718781 
	C459.519287,146.270737 463.606049,152.174622 462.622498,162.982712 
	C459.040619,162.982712 455.398193,162.791046 451.782532,163.020798 
	C443.013885,163.577927 434.168365,163.768555 425.518280,165.142487 
	C413.696716,167.020157 405.808258,175.292557 404.065521,186.185379 
	C402.197601,197.860626 406.819763,208.260010 416.690948,213.951874 
	C420.458038,215.174728 424.225098,216.397568 428.624847,217.912735 
	C429.084595,217.886017 429.544312,217.859283 430.881042,217.993271 
	C434.919708,217.659775 438.958405,217.326294 443.721039,217.072464 
	C444.815582,216.719757 445.910156,216.367035 447.746735,216.026001 
	C450.232605,214.735504 452.718445,213.445023 455.093353,212.098663 
	C455.093353,212.098663 455.146606,212.210907 455.771851,212.063965 
M639.696960,202.892471 
	C640.173035,201.943268 640.649048,200.994049 641.730042,199.755920 
	C642.232056,198.536346 642.734070,197.316772 643.835144,195.708755 
	C647.396240,186.452164 650.061096,177.065033 648.128357,166.322693 
	C648.040771,165.881226 647.953186,165.439758 647.996277,164.192734 
	C646.067627,158.763290 644.138916,153.333832 642.081177,147.324020 
	C641.735535,146.877701 641.389954,146.431366 640.923584,145.338898 
	C639.965393,144.181076 639.007141,143.023254 637.841187,141.244247 
	C635.925354,139.485077 634.009460,137.725891 631.784973,135.351044 
	C629.963684,134.211151 628.197449,132.969604 626.312256,131.947556 
	C612.250671,124.324112 593.515259,126.514084 583.000000,136.999634 
	C583.000000,136.999634 582.971436,136.949692 582.298523,137.238815 
	C581.092651,138.328445 579.886780,139.418091 578.604614,140.576706 
	C578.604614,136.558731 578.604614,133.082397 578.604614,129.516235 
	C573.027405,129.516235 567.762146,129.516235 561.989441,129.516235 
	C561.989441,131.461044 561.989441,133.237381 561.989441,135.013702 
	C561.989746,163.792969 561.989502,192.572220 561.990845,221.351486 
	C561.991272,230.833664 562.025330,240.316010 561.976440,249.797913 
	C561.965332,251.956024 561.746460,254.043015 565.736572,253.122437 
	C566.491455,253.060104 567.246338,252.997772 568.915894,253.111313 
	C572.173035,253.111313 575.430176,253.111313 578.960876,253.111313 
	C578.960876,237.869644 578.932434,223.101196 579.005920,208.333252 
	C579.013062,206.892715 579.648438,205.455322 580.001892,204.000931 
	C580.001892,204.000931 579.986450,204.007385 580.137695,204.628571 
	C581.068237,205.482254 581.998718,206.335938 583.146973,207.763565 
	C584.088318,208.512283 585.029724,209.260986 586.259033,210.569412 
	C587.162720,211.074890 588.066345,211.580368 589.219116,212.633301 
	C589.777283,212.840286 590.335449,213.047272 591.268005,213.851089 
	C596.511169,215.189468 601.754395,216.527847 607.787231,218.036774 
	C608.858887,217.982056 609.930542,217.927353 611.859558,218.020142 
	C619.068542,217.883453 625.633301,215.942490 631.061279,211.065155 
	C631.061279,211.065155 631.121948,211.174530 631.769165,210.971130 
	C634.230408,208.348175 636.691711,205.725235 639.050720,203.047134 
	C639.050720,203.047134 639.105591,203.149567 639.696960,202.892471 
M916.960876,144.310043 
	C916.304810,143.503677 915.648804,142.697311 914.796326,141.256165 
	C900.253052,126.692268 881.849182,123.286163 864.541138,131.955124 
	C846.950439,140.765686 838.134521,159.311554 841.026550,181.422195 
	C843.456238,199.997421 857.021606,214.815414 876.010742,217.580322 
	C894.434021,220.262817 913.027405,215.724091 923.129883,196.364029 
	C918.633728,194.046585 914.136475,191.728638 909.819275,189.503448 
	C907.231873,192.360291 905.077698,195.383728 902.313904,197.670212 
	C893.851501,204.671295 877.657043,206.045975 865.798218,194.338135 
	C861.354858,189.460632 858.792419,183.846649 859.988770,177.122787 
	C880.994751,177.074387 902.000671,177.025986 923.624390,177.197739 
	C923.744141,172.800674 923.863953,168.403625 924.103027,163.334595 
	C924.022461,162.889084 923.941895,162.443573 923.985657,161.214462 
	C921.682678,155.770706 919.379761,150.326935 917.023743,144.968979 
	C917.023743,144.968979 917.116089,144.928284 916.960876,144.310043 
M378.948914,201.411453 
	C378.635956,201.306915 378.322998,201.202362 377.349640,200.891327 
	C375.618744,199.574158 373.887878,198.256989 372.010284,196.232346 
	C371.338623,194.488602 370.666931,192.744843 370.070587,190.330246 
	C370.002075,189.887390 369.933594,189.444550 369.997833,188.072388 
	C369.997833,173.505615 369.997833,158.938843 369.997833,143.910492 
	C378.197418,143.910492 386.083588,143.910492 393.891327,143.910492 
	C393.891327,138.850159 393.891327,134.257217 393.891327,129.262421 
	C385.837555,129.262421 377.978180,129.262421 369.918915,129.262421 
	C369.918915,124.726082 369.918884,120.594902 369.918884,116.463730 
	C369.918884,112.385666 369.918915,108.307602 369.918915,104.286926 
	C363.995270,104.286926 358.752686,104.286926 353.010406,104.286926 
	C353.010406,112.824692 353.010406,121.092148 352.330750,129.413818 
	C351.893433,129.503815 351.456116,129.593811 350.129791,129.380203 
	C345.491241,129.380203 340.852661,129.380203 335.985626,129.380203 
	C335.985626,134.265564 335.985626,139.017792 335.985626,144.157730 
	C341.745331,144.157730 347.338135,144.157730 353.167786,144.157730 
	C353.167786,159.975235 353.044800,175.408478 353.202850,190.838821 
	C353.356598,205.847214 359.381104,214.298645 371.282532,217.045135 
	C378.991119,218.824020 386.487885,218.319016 393.853271,215.688828 
	C393.853271,210.712234 393.853271,205.948502 393.853271,200.969910 
	C388.771637,201.281387 383.923401,201.578568 379.035065,201.964127 
	C379.035065,201.964127 379.123749,201.924683 378.948914,201.411453 
M516.010986,139.161118 
	C515.807495,138.944275 515.604004,138.727417 515.231079,137.705963 
	C515.231079,134.964554 515.231079,132.223160 515.231079,129.568848 
	C508.919647,129.568848 503.329590,129.568848 497.675781,129.568848 
	C497.675781,158.553940 497.675781,187.243713 497.675781,216.054169 
	C503.581635,216.054169 509.183838,216.054169 515.026062,216.054169 
	C515.026062,211.207703 514.937561,206.553574 515.043152,201.903854 
	C515.325989,189.450073 515.230713,176.963303 516.167725,164.556274 
	C516.950073,154.195251 523.818237,146.928696 534.112549,144.756424 
	C538.838745,143.759109 543.848389,144.104935 548.811768,143.837234 
	C548.811768,138.714264 548.811768,133.444077 548.811768,128.267059 
	C535.585388,125.719566 524.633728,128.853760 516.010986,139.161118 
M321.084869,140.283356 
	C320.401093,139.489670 319.717285,138.695969 318.808441,137.266876 
	C307.242279,126.827011 293.589600,125.784065 279.226776,128.831894 
	C266.325867,131.569489 258.107086,139.121796 256.223877,152.896942 
	C261.978729,152.896942 267.598083,152.896942 273.185730,152.896942 
	C276.922638,143.941818 286.675995,140.668427 298.442200,144.353210 
	C307.851013,147.299774 312.168427,154.019226 310.327820,162.978592 
	C304.872131,162.978592 299.381683,162.727753 293.923309,163.039215 
	C286.328979,163.472549 278.624176,163.660767 271.209625,165.157501 
	C260.078613,167.404434 252.442184,176.033615 251.136871,187.012482 
	C249.881943,197.567444 252.477234,206.888580 261.893158,213.088196 
	C273.386993,220.655975 293.327209,219.709839 304.125061,211.174469 
	C306.953400,208.938766 309.514923,206.365540 312.305115,204.635483 
	C312.525543,205.761993 312.745941,206.888519 312.781769,208.801422 
	C312.878174,209.868576 312.974548,210.935745 312.903778,212.850250 
	C312.668488,215.148087 312.899292,216.982651 316.889008,216.167633 
	C319.925598,216.111969 322.962189,216.056305 326.623535,216.102203 
	C326.731598,215.737076 326.839630,215.371964 327.109253,214.080887 
	C327.035034,196.385849 326.960846,178.690826 327.027618,160.122452 
	C325.701721,154.741058 324.375793,149.359680 322.998474,143.360382 
	C322.428619,142.539246 321.858765,141.718109 321.084869,140.283356 
M747.997009,187.267212 
	C750.090820,178.580933 750.489136,169.787781 748.412964,161.117035 
	C742.793457,137.648911 724.052185,125.076729 698.942810,127.857529 
	C681.257141,129.816162 668.557373,139.141113 662.192505,155.639496 
	C655.643188,172.615921 658.115540,188.717667 669.636841,203.260651 
	C687.533508,225.850967 735.817566,224.772125 747.997009,187.267212 
M812.914551,188.039825 
	C813.738159,193.961029 810.823303,197.978561 806.027405,200.728592 
	C795.643066,206.683136 783.191223,201.709900 778.060364,189.335907 
	C772.426147,190.544342 766.705200,191.771393 759.553833,193.305222 
	C762.395508,198.320816 764.153870,203.074539 767.272644,206.637405 
	C779.434509,220.530914 806.610718,222.372116 820.919922,210.691147 
	C829.533386,203.659790 833.146179,194.569672 830.889771,183.751434 
	C828.795959,173.712845 820.873352,169.551407 811.814880,167.124985 
	C809.749390,166.571716 807.588196,166.385880 805.485352,165.959930 
	C799.022949,164.650818 792.373413,163.865417 786.199036,161.718933 
	C783.503174,160.781769 780.923889,157.355515 779.836121,154.476196 
	C778.387390,150.640991 781.023193,147.215622 784.339478,145.423294 
	C787.447388,143.743576 791.072144,142.406693 794.557556,142.159103 
	C803.436951,141.528366 809.568054,146.147919 813.335632,153.781281 
	C818.774841,152.655396 823.887024,151.597198 829.246643,150.487778 
	C828.007812,143.797287 825.043762,138.370728 819.592773,134.646408 
	C804.762634,124.513832 789.398987,125.127594 774.217834,133.510834 
	C764.839539,138.689621 760.294312,146.959290 761.883301,157.970947 
	C763.318909,167.918945 769.923523,173.372299 778.848145,175.954376 
	C786.584045,178.192535 794.742676,178.967392 802.482178,181.195724 
	C806.157776,182.253998 809.292236,185.192093 812.914551,188.039825 
M220.919998,161.305267 
	C216.724716,172.617203 212.529419,183.929138 207.913956,196.373993 
	C200.004990,174.386414 192.556320,153.572220 184.962662,132.811066 
	C184.465942,131.453018 182.921021,129.596863 181.756805,129.516281 
	C176.572433,129.157440 171.349167,129.360519 165.783478,129.360519 
	C175.116867,154.290909 184.175781,178.620926 193.361237,202.903061 
	C195.047104,207.359772 196.159576,213.200027 199.523666,215.517990 
	C202.709656,217.713272 208.528610,215.864502 213.147278,216.272980 
	C216.934158,216.607880 218.748245,215.196503 220.005890,211.691177 
	C225.894608,195.277954 231.981918,178.935760 238.037888,162.582855 
	C242.081650,151.663513 246.191879,140.768784 250.407745,129.501160 
	C244.053940,129.501160 238.300766,129.501160 232.321960,129.501160 
	C228.556763,139.824265 224.782364,150.172577 220.919998,161.305267 
z"/>
<path fill="#080B11" opacity="1.000000" stroke="none" 
	d="
M643.236084,196.097198 
	C642.734070,197.316772 642.232056,198.536346 641.062500,199.939484 
	C639.965210,201.131882 639.535400,202.140717 639.105591,203.149567 
	C639.105591,203.149567 639.050720,203.047134 638.701782,203.045746 
	C632.917725,203.064148 633.134033,208.110306 631.121948,211.174530 
	C631.121948,211.174530 631.061279,211.065155 630.727234,211.062836 
	C624.264404,212.796310 618.127930,214.506226 612.022400,216.320374 
	C611.568726,216.455185 611.337097,217.337738 611.002197,217.872650 
	C609.930542,217.927353 608.858887,217.982056 607.328308,217.608414 
	C603.071045,215.949875 599.301147,214.618210 595.459656,213.541977 
	C594.023499,213.139603 592.420532,213.332672 590.893616,213.254242 
	C590.335449,213.047272 589.777283,212.840286 589.054199,212.005783 
	C587.916504,210.922073 586.943787,210.465881 585.971069,210.009705 
	C585.029724,209.260986 584.088318,208.512283 583.052490,207.091705 
	C581.967468,205.615677 580.976929,204.811539 579.986450,204.007385 
	C579.986450,204.007385 580.001892,204.000931 579.929199,203.642853 
	C575.921570,201.018585 577.061401,204.488251 577.051392,205.978455 
	C576.961731,219.389603 576.888245,232.803116 577.071533,246.212341 
	C577.120667,249.808289 576.235046,251.387054 572.379822,251.121384 
	C570.968689,251.024155 569.463501,252.290894 568.001221,252.935425 
	C567.246338,252.997772 566.491455,253.060104 565.311523,252.616058 
	C564.590942,249.828720 564.041504,247.548157 564.038025,245.266754 
	C563.983704,209.701447 563.999695,174.136017 564.000366,138.570618 
	C564.000488,131.715775 564.001953,131.733688 570.591675,131.969070 
	C571.571533,132.004074 572.728760,131.406464 573.507385,131.758179 
	C574.792847,132.338913 576.371277,133.236862 576.845825,134.400833 
	C577.428223,135.829453 576.868652,137.685257 577.068481,139.323975 
	C577.172607,140.178101 577.739563,141.549393 578.287964,141.650208 
	C579.273560,141.831406 580.805359,141.566452 581.377686,140.879028 
	C582.239197,139.844269 582.471558,138.285629 582.971436,136.949677 
	C582.971436,136.949692 583.000000,136.999634 583.360107,136.987549 
	C588.798950,134.942490 593.869324,132.888275 598.958252,130.881088 
	C608.926270,126.949524 618.065857,129.619904 626.996033,134.334747 
	C628.549438,135.154877 630.387146,135.436417 632.093567,135.966736 
	C634.009460,137.725891 635.925354,139.485077 637.934814,141.930145 
	C639.033691,143.739029 640.039001,144.862015 641.044312,145.985016 
	C641.389954,146.431366 641.735535,146.877701 641.865845,147.800720 
	C643.410095,153.752579 645.162415,159.230148 646.961304,164.692368 
	C647.021118,164.873917 647.553528,164.899826 647.865601,164.998291 
	C647.953186,165.439758 648.040771,165.881226 647.728577,166.848755 
	C646.886780,169.888428 645.955688,172.430038 646.097473,174.910278 
	C646.472229,181.463455 645.918030,187.730484 642.780029,193.637787 
	C642.473816,194.214188 643.062683,195.266037 643.236084,196.097198 
M590.227661,198.420044 
	C603.609802,205.766342 617.057922,202.978592 625.213501,191.167572 
	C632.288574,180.921341 631.941040,163.289078 624.466370,153.260223 
	C615.855408,141.706589 598.721436,139.256882 588.414612,148.105743 
	C573.280701,161.098923 573.870361,185.705383 590.227661,198.420044 
z"/>
<path fill="#080B10" opacity="1.000000" stroke="none" 
	d="
M747.894226,187.663330 
	C735.817566,224.772125 687.533508,225.850967 669.636841,203.260651 
	C658.115540,188.717667 655.643188,172.615921 662.192505,155.639496 
	C668.557373,139.141113 681.257141,129.816162 698.942810,127.857529 
	C724.052185,125.076729 742.793457,137.648911 748.412964,161.117035 
	C750.489136,169.787781 750.090820,178.580933 747.894226,187.663330 
M712.371216,143.866501 
	C698.205994,139.874695 683.371948,147.285736 679.907349,161.410843 
	C678.201111,168.367325 678.146484,176.300201 679.588928,183.330750 
	C682.076721,195.456268 692.832886,202.651550 705.298035,202.442169 
	C717.951172,202.229630 727.305664,194.956268 730.075684,182.377319 
	C731.127869,177.599319 731.092468,172.498108 730.960876,167.559982 
	C730.651917,155.970016 724.380920,147.875061 712.371216,143.866501 
z"/>
<path fill="#080B10" opacity="1.000000" stroke="none" 
	d="
M312.198975,203.947327 
	C309.514923,206.365540 306.953400,208.938766 304.125061,211.174469 
	C293.327209,219.709839 273.386993,220.655975 261.893158,213.088196 
	C252.477234,206.888580 249.881943,197.567444 251.136871,187.012482 
	C252.442184,176.033615 260.078613,167.404434 271.209625,165.157501 
	C278.624176,163.660767 286.328979,163.472549 293.923309,163.039215 
	C299.381683,162.727753 304.872131,162.978592 310.327820,162.978592 
	C312.168427,154.019226 307.851013,147.299774 298.442200,144.353210 
	C286.675995,140.668427 276.922638,143.941818 273.185730,152.896942 
	C267.598083,152.896942 261.978729,152.896942 256.223877,152.896942 
	C258.107086,139.121796 266.325867,131.569489 279.226776,128.831894 
	C293.589600,125.784065 307.242279,126.827011 318.920227,137.964844 
	C319.784302,139.407547 320.536591,140.152267 321.288879,140.896973 
	C321.858765,141.718109 322.428619,142.539246 322.760468,143.878632 
	C323.363373,149.293533 324.143860,154.202194 325.110504,159.073898 
	C325.255219,159.803299 326.272827,160.359482 326.886627,160.995789 
	C326.960846,178.690826 327.035034,196.385849 326.816956,214.652313 
	C326.265717,215.426056 326.090393,215.685028 325.998779,216.000656 
	C322.962189,216.056305 319.925598,216.111969 316.412292,215.725754 
	C314.980713,214.190216 314.025818,213.096558 313.070923,212.002899 
	C312.974548,210.935745 312.878174,209.868576 313.141205,208.199188 
	C313.066772,206.380402 312.632874,205.163864 312.198975,203.947327 
M268.808411,190.438660 
	C269.448425,197.818710 273.663879,202.307449 280.932251,202.924194 
	C284.394012,203.217941 287.953033,203.346115 291.379333,202.887161 
	C300.409210,201.677612 311.757019,194.246429 311.113037,183.544434 
	C310.822998,178.724442 309.101532,177.040024 304.794617,177.023346 
	C297.982544,176.996979 291.158234,176.766052 284.360962,177.086349 
	C274.553650,177.548462 269.599823,181.723541 268.808411,190.438660 
z"/>
<path fill="#080B10" opacity="1.000000" stroke="none" 
	d="
M866.041260,194.985931 
	C877.657043,206.045975 893.851501,204.671295 902.313904,197.670212 
	C905.077698,195.383728 907.231873,192.360291 909.819275,189.503448 
	C914.136475,191.728638 918.633728,194.046585 923.129883,196.364029 
	C913.027405,215.724091 894.434021,220.262817 876.010742,217.580322 
	C857.021606,214.815414 843.456238,199.997421 841.026550,181.422195 
	C838.134521,159.311554 846.950439,140.765686 864.541138,131.955124 
	C881.849182,123.286163 900.253052,126.692268 914.903564,141.943665 
	C915.712585,143.396881 916.414307,144.162582 917.116089,144.928284 
	C917.116089,144.928284 917.023743,144.968979 917.033142,145.314392 
	C918.650330,150.137894 920.205566,154.636078 921.904114,159.079453 
	C922.311829,160.145859 923.196167,161.030060 923.861328,161.998047 
	C923.941895,162.443573 924.022461,162.889084 923.750854,163.962128 
	C923.268005,168.718964 923.137329,172.848282 923.006714,176.977585 
	C902.000671,177.025986 880.994751,177.074387 859.308105,176.863495 
	C858.087341,177.471283 856.910461,178.537277 857.109131,179.173538 
	C858.552979,183.795792 860.085693,188.414703 862.040710,192.835510 
	C862.523987,193.928314 864.663269,194.288803 866.041260,194.985931 
M888.944031,143.056305 
	C886.612610,143.027100 884.278442,143.061508 881.950317,142.957901 
	C870.490479,142.447739 858.887512,153.284470 858.763733,164.391357 
	C874.844666,164.391357 890.924622,164.391357 906.998108,164.391357 
	C906.985840,153.314651 901.859375,147.173477 888.944031,143.056305 
z"/>
<path fill="#070B0F" opacity="1.000000" stroke="none" 
	d="
M430.004059,217.832565 
	C429.544312,217.859283 429.084595,217.886017 428.210388,217.441223 
	C423.917572,215.779358 420.039215,214.589005 416.160828,213.398651 
	C406.819763,208.260010 402.197601,197.860626 404.065521,186.185379 
	C405.808258,175.292557 413.696716,167.020157 425.518280,165.142487 
	C434.168365,163.768555 443.013885,163.577927 451.782532,163.020798 
	C455.398193,162.791046 459.040619,162.982712 462.622498,162.982712 
	C463.606049,152.174622 459.519287,146.270737 449.590546,143.718781 
	C438.822479,140.951080 430.250610,144.347672 426.439667,153.136597 
	C423.750214,153.136597 420.930878,153.136597 418.111542,153.136597 
	C415.475342,153.136597 412.839111,153.136597 409.841797,153.136597 
	C410.544922,145.274872 414.112122,139.469818 419.917908,134.872452 
	C433.327515,124.253860 461.561188,124.044991 472.675873,139.867157 
	C473.042175,140.910507 473.578064,141.435440 474.113983,141.960388 
	C475.104431,144.051483 476.094879,146.142578 476.782898,148.846436 
	C476.657532,153.496674 476.735565,157.542892 477.090881,161.564621 
	C477.166534,162.420914 478.251373,163.188049 478.871277,163.996262 
	C478.985138,178.019852 479.098969,192.043427 478.824341,206.803024 
	C478.290436,210.352081 478.145050,213.165146 477.999634,215.978210 
	C473.968384,216.043839 469.937164,216.109482 465.454041,215.627060 
	C464.857361,212.468658 464.884705,209.830078 464.463715,207.265060 
	C464.335938,206.486572 462.969513,205.911377 462.170441,205.243073 
	C461.803253,205.892151 461.436035,206.541214 461.068817,207.190277 
	C460.283264,208.081390 459.497681,208.972519 458.047455,209.947540 
	C456.637390,210.757950 455.891998,211.484436 455.146606,212.210907 
	C455.146606,212.210907 455.093353,212.098663 454.757568,212.086441 
	C451.949402,213.387589 449.477051,214.700974 447.004700,216.014343 
	C445.910156,216.367035 444.815582,216.719757 443.069275,216.738815 
	C438.247955,216.604843 433.756226,214.002838 430.004059,217.832565 
M424.535278,198.922287 
	C428.632660,200.499115 432.623993,202.995651 436.847046,203.482605 
	C450.230011,205.025818 467.287659,197.033813 462.178925,177.858810 
	C458.050781,177.553558 453.777863,177.096207 449.494812,176.960526 
	C445.176788,176.823761 440.823059,176.719391 436.529663,177.102097 
	C422.812164,178.324875 417.430634,187.607269 424.535278,198.922287 
z"/>
<path fill="#080B10" opacity="1.000000" stroke="none" 
	d="
M812.793213,187.659210 
	C809.292236,185.192093 806.157776,182.253998 802.482178,181.195724 
	C794.742676,178.967392 786.584045,178.192535 778.848145,175.954376 
	C769.923523,173.372299 763.318909,167.918945 761.883301,157.970947 
	C760.294312,146.959290 764.839539,138.689621 774.217834,133.510834 
	C789.398987,125.127594 804.762634,124.513832 819.592773,134.646408 
	C825.043762,138.370728 828.007812,143.797287 829.246643,150.487778 
	C823.887024,151.597198 818.774841,152.655396 813.335632,153.781281 
	C809.568054,146.147919 803.436951,141.528366 794.557556,142.159103 
	C791.072144,142.406693 787.447388,143.743576 784.339478,145.423294 
	C781.023193,147.215622 778.387390,150.640991 779.836121,154.476196 
	C780.923889,157.355515 783.503174,160.781769 786.199036,161.718933 
	C792.373413,163.865417 799.022949,164.650818 805.485352,165.959930 
	C807.588196,166.385880 809.749390,166.571716 811.814880,167.124985 
	C820.873352,169.551407 828.795959,173.712845 830.889771,183.751434 
	C833.146179,194.569672 829.533386,203.659790 820.919922,210.691147 
	C806.610718,222.372116 779.434509,220.530914 767.272644,206.637405 
	C764.153870,203.074539 762.395508,198.320816 759.553833,193.305222 
	C766.705200,191.771393 772.426147,190.544342 778.060364,189.335907 
	C783.191223,201.709900 795.643066,206.683136 806.027405,200.728592 
	C810.823303,197.978561 813.738159,193.961029 812.793213,187.659210 
z"/>
<path fill="#32822E" opacity="1.000000" stroke="none" 
	d="
M97.177414,141.056793 
	C100.008667,138.554062 102.839905,136.051346 106.182236,133.248932 
	C107.094223,132.554535 107.495117,132.159851 107.896011,131.765167 
	C107.896011,131.765167 107.920441,131.876877 108.283737,131.925980 
	C115.809441,130.989502 122.959389,129.369110 130.138382,129.228210 
	C135.452545,129.123932 140.804504,130.944641 146.139618,131.907776 
	C146.139618,131.907776 146.055389,131.961990 146.072113,132.263885 
	C147.632858,133.369522 149.176895,134.173264 150.720932,134.977005 
	C155.462692,139.004944 159.689423,143.352737 160.052063,150.917999 
	C160.005661,152.259933 159.992752,152.757095 160.001373,153.253906 
	C160.333817,172.431717 160.614822,191.610718 161.054413,210.786087 
	C161.128510,214.018524 160.110001,215.312210 156.821716,215.044968 
	C154.080307,214.822174 151.306412,214.999298 148.871414,214.999298 
	C148.064468,211.827133 147.439636,209.370865 146.814804,206.914597 
	C145.738937,206.605682 144.355988,205.728394 143.652390,206.108536 
	C142.271576,206.854507 141.268890,208.300385 139.577759,209.746277 
	C138.396561,210.744614 137.747345,211.453354 137.098145,212.162094 
	C137.098145,212.162094 137.072510,212.064362 136.731567,212.054840 
	C133.592941,213.370499 130.795227,214.695709 127.997520,216.020905 
	C127.997520,216.020905 127.610725,216.102066 126.931778,216.057098 
	C117.726387,215.509186 109.199936,215.006226 100.673492,214.503281 
	C100.673492,214.503281 100.613380,214.517685 100.620651,214.201202 
	C99.864090,213.601395 99.100266,213.318069 98.336441,213.034729 
	C95.942787,211.041626 93.549133,209.048492 91.024849,206.351379 
	C89.935486,200.177612 88.339714,194.720901 88.227013,189.233734 
	C88.142471,185.117249 89.965263,180.961609 90.938889,176.823395 
	C94.010521,173.957031 97.082146,171.090668 100.880646,168.123566 
	C115.457672,164.521515 129.475906,163.247162 143.728546,164.663513 
	C144.401474,164.730392 145.200806,163.525375 145.941284,162.912689 
	C145.941284,162.912689 145.988937,162.992065 146.320145,162.917908 
	C149.088181,160.395447 148.588547,158.153778 146.173080,156.046921 
	C144.650635,153.097580 143.128174,150.148254 141.232910,146.700882 
	C136.236130,141.796951 130.273163,141.043030 124.470917,141.308868 
	C121.298172,141.454239 118.229134,143.863205 115.113327,145.251404 
	C115.113327,145.251404 115.099915,145.127380 114.808388,145.120697 
	C114.144997,145.584030 113.773132,146.054047 113.401268,146.524048 
	C113.401268,146.524048 113.318764,146.366409 113.043686,146.352325 
	C112.311356,147.043854 111.854103,147.749466 111.396851,148.455078 
	C111.396843,148.455078 111.321655,148.285172 111.064545,148.331879 
	C110.573792,148.973282 110.340164,149.567993 110.106537,150.162720 
	C110.106537,150.162720 110.073456,150.059052 109.820473,150.200546 
	C109.334740,150.972244 109.101990,151.602432 108.420044,152.143127 
	C103.613579,152.053635 99.256294,152.053635 94.857254,152.053635 
	C94.857254,149.625931 94.857254,147.704926 94.857254,145.783936 
	C94.857254,145.783936 94.876289,145.935287 95.164497,145.833801 
	C95.920006,144.417801 96.387306,143.103287 96.854614,141.788757 
	C96.854607,141.788757 96.880379,141.899033 97.017532,141.865921 
	C97.270775,141.782822 97.386864,141.732849 97.502960,141.682877 
	C97.394440,141.474182 97.285927,141.265488 97.177414,141.056793 
M138.953308,197.960373 
	C138.953308,197.960373 138.877243,197.928802 139.550903,197.900345 
	C139.937485,197.449966 140.324066,196.999573 140.745071,196.707138 
	C140.745071,196.707138 140.607498,196.622269 141.357010,196.787064 
	C141.800385,196.073151 142.243774,195.359238 142.758347,194.792816 
	C142.758347,194.792816 142.596878,194.765442 143.250458,194.653488 
	C143.483078,194.070267 143.715714,193.487045 143.989136,192.973511 
	C143.989136,192.973511 143.910339,192.955887 144.676666,192.880463 
	C148.210739,188.181107 147.667130,183.152649 145.965317,178.039566 
	C145.965317,178.039566 145.934158,178.125061 145.823807,177.338593 
	C145.526505,176.967636 145.228394,176.271942 144.932037,176.272705 
	C134.655563,176.298950 124.370735,176.193878 114.110130,176.638824 
	C112.043335,176.728439 110.068558,178.939896 107.754601,180.821793 
	C106.972946,181.555008 105.917122,182.146072 105.451920,183.043365 
	C100.664986,192.276489 104.617134,199.720566 116.553627,203.661957 
	C122.783554,205.408539 128.795593,205.802856 133.942062,200.943741 
	C133.942062,200.943741 133.862778,200.914169 134.514435,200.914505 
	C134.988312,200.553085 135.462204,200.191666 135.932800,199.926514 
	C135.932800,199.926514 135.842514,199.892944 136.511810,199.902313 
	C136.963669,199.499069 137.415543,199.095825 137.893066,198.866394 
	C137.893066,198.866394 137.719574,198.838715 138.277191,198.737167 
	C138.502731,198.450775 138.728271,198.164398 138.953308,197.960373 
z"/>
<path fill="#090C11" opacity="1.000000" stroke="none" 
	d="
M220.963989,160.913071 
	C224.782364,150.172577 228.556763,139.824265 232.321960,129.501160 
	C238.300766,129.501160 244.053940,129.501160 250.407745,129.501160 
	C246.191879,140.768784 242.081650,151.663513 238.037888,162.582855 
	C231.981918,178.935760 225.894608,195.277954 220.005890,211.691177 
	C218.748245,215.196503 216.934158,216.607880 213.147278,216.272980 
	C208.528610,215.864502 202.709656,217.713272 199.523666,215.517990 
	C196.159576,213.200027 195.047104,207.359772 193.361237,202.903061 
	C184.175781,178.620926 175.116867,154.290909 165.783478,129.360519 
	C171.349167,129.360519 176.572433,129.157440 181.756805,129.516281 
	C182.921021,129.596863 184.465942,131.453018 184.962662,132.811066 
	C192.556320,153.572220 200.004990,174.386414 207.913956,196.373993 
	C212.529419,183.929138 216.724716,172.617203 220.963989,160.913071 
z"/>
<path fill="#0C0F14" opacity="1.000000" stroke="none" 
	d="
M516.557983,139.865891 
	C524.633728,128.853760 535.585388,125.719566 548.811768,128.267059 
	C548.811768,133.444077 548.811768,138.714264 548.811768,143.837234 
	C543.848389,144.104935 538.838745,143.759109 534.112549,144.756424 
	C523.818237,146.928696 516.950073,154.195251 516.167725,164.556274 
	C515.230713,176.963303 515.325989,189.450073 515.043152,201.903854 
	C514.937561,206.553574 515.026062,211.207703 515.026062,216.054169 
	C509.183838,216.054169 503.581635,216.054169 497.675781,216.054169 
	C497.675781,187.243713 497.675781,158.553940 497.675781,129.568848 
	C503.329590,129.568848 508.919647,129.568848 515.231079,129.568848 
	C515.231079,132.223160 515.231079,134.964554 515.183350,138.364441 
	C515.255615,139.586746 515.375549,140.150574 515.495483,140.714417 
	C515.849670,140.431564 516.203796,140.148727 516.557983,139.865891 
z"/>
<path fill="#070B10" opacity="1.000000" stroke="none" 
	d="
M369.865112,189.001709 
	C369.933594,189.444550 370.002075,189.887390 369.766907,190.890060 
	C370.361176,193.279861 371.259064,195.109833 372.156982,196.939819 
	C373.887878,198.256989 375.618744,199.574158 377.809998,201.198410 
	C378.502808,201.751053 378.787262,201.890793 379.123749,201.924683 
	C379.123749,201.924683 379.035065,201.964127 379.082458,202.253906 
	C381.471222,202.707962 383.848267,202.673279 386.145264,203.085175 
	C389.260590,203.643799 392.294067,204.164688 392.106232,208.768845 
	C391.927277,213.155869 389.530884,214.639206 385.865540,214.929962 
	C382.886292,215.166306 379.845978,214.727890 376.882172,215.047333 
	C366.009064,216.219269 355.191406,205.185760 355.790070,194.216980 
	C356.623718,178.942123 355.949280,163.587402 356.031067,148.267471 
	C356.054626,143.853592 354.136749,141.990021 349.726562,141.932755 
	C345.980927,141.884155 342.243073,141.235367 338.668304,140.869202 
	C337.090332,132.057068 337.134613,132.158875 345.005676,131.895554 
	C347.035706,131.827637 350.329132,133.863998 351.018799,129.683807 
	C351.456116,129.593811 351.893433,129.503815 352.749664,129.686676 
	C354.109528,128.431976 355.735229,126.958939 355.861969,125.366570 
	C356.230164,120.741631 356.212006,116.056168 355.938049,111.418518 
	C355.680695,107.062103 357.859222,105.929359 361.646851,105.970383 
	C365.223724,106.009117 367.295349,107.124565 367.053406,111.212547 
	C366.808319,115.353416 366.992828,119.520126 367.001587,123.675499 
	C367.016144,130.578842 368.468506,131.989243 375.561554,131.999069 
	C379.384491,132.004349 383.209930,132.084213 387.029572,131.972321 
	C389.878662,131.888870 392.653564,131.869492 392.366669,135.793533 
	C392.126648,139.076569 391.358093,142.130768 386.939911,142.022995 
	C382.454773,141.913574 377.932556,142.337830 373.485626,141.911758 
	C368.463501,141.430588 367.001343,143.893127 367.002228,148.220688 
	C367.004700,160.354416 366.904205,172.489929 367.127319,184.619537 
	C367.154510,186.096558 368.910370,187.541763 369.865112,189.001709 
z"/>
<path fill="#0B0C0F" opacity="1.000000" stroke="none" 
	d="
M350.574280,129.532013 
	C350.329132,133.863998 347.035706,131.827637 345.005676,131.895554 
	C337.134613,132.158875 337.090332,132.057068 338.668304,140.869202 
	C342.243073,141.235367 345.980927,141.884155 349.726562,141.932755 
	C354.136749,141.990021 356.054626,143.853592 356.031067,148.267471 
	C355.949280,163.587402 356.623718,178.942123 355.790070,194.216980 
	C355.191406,205.185760 366.009064,216.219269 376.882172,215.047333 
	C379.845978,214.727890 382.886292,215.166306 385.865540,214.929962 
	C389.530884,214.639206 391.927277,213.155869 392.106232,208.768845 
	C392.294067,204.164688 389.260590,203.643799 386.145264,203.085175 
	C383.848267,202.673279 381.471222,202.707962 379.102509,202.209717 
	C383.923401,201.578568 388.771637,201.281387 393.853271,200.969910 
	C393.853271,205.948502 393.853271,210.712234 393.853271,215.688828 
	C386.487885,218.319016 378.991119,218.824020 371.282532,217.045135 
	C359.381104,214.298645 353.356598,205.847214 353.202850,190.838821 
	C353.044800,175.408478 353.167786,159.975235 353.167786,144.157730 
	C347.338135,144.157730 341.745331,144.157730 335.985626,144.157730 
	C335.985626,139.017792 335.985626,134.265564 335.985626,129.380203 
	C340.852661,129.380203 345.491241,129.380203 350.574280,129.532013 
z"/>
<path fill="#0B0C0F" opacity="1.000000" stroke="none" 
	d="
M369.931458,188.537048 
	C368.910370,187.541763 367.154510,186.096558 367.127319,184.619537 
	C366.904205,172.489929 367.004700,160.354416 367.002228,148.220688 
	C367.001343,143.893127 368.463501,141.430588 373.485626,141.911758 
	C377.932556,142.337830 382.454773,141.913574 386.939911,142.022995 
	C391.358093,142.130768 392.126648,139.076569 392.366669,135.793533 
	C392.653564,131.869492 389.878662,131.888870 387.029572,131.972321 
	C383.209930,132.084213 379.384491,132.004349 375.561554,131.999069 
	C368.468506,131.989243 367.016144,130.578842 367.001587,123.675499 
	C366.992828,119.520126 366.808319,115.353416 367.053406,111.212547 
	C367.295349,107.124565 365.223724,106.009117 361.646851,105.970383 
	C357.859222,105.929359 355.680695,107.062103 355.938049,111.418518 
	C356.212006,116.056168 356.230164,120.741631 355.861969,125.366570 
	C355.735229,126.958939 354.109528,128.431976 353.089478,129.659561 
	C353.010406,121.092148 353.010406,112.824692 353.010406,104.286926 
	C358.752686,104.286926 363.995270,104.286926 369.918915,104.286926 
	C369.918915,108.307602 369.918884,112.385666 369.918884,116.463730 
	C369.918884,120.594902 369.918915,124.726082 369.918915,129.262421 
	C377.978180,129.262421 385.837555,129.262421 393.891327,129.262421 
	C393.891327,134.257217 393.891327,138.850159 393.891327,143.910492 
	C386.083588,143.910492 378.197418,143.910492 369.997833,143.910492 
	C369.997833,158.938843 369.997833,173.505615 369.931458,188.537048 
z"/>
<path fill="#07080B" opacity="1.000000" stroke="none" 
	d="
M582.635010,137.094238 
	C582.471558,138.285629 582.239197,139.844269 581.377686,140.879028 
	C580.805359,141.566452 579.273560,141.831406 578.287964,141.650208 
	C577.739563,141.549393 577.172607,140.178101 577.068481,139.323975 
	C576.868652,137.685257 577.428223,135.829453 576.845825,134.400833 
	C576.371277,133.236862 574.792847,132.338913 573.507385,131.758179 
	C572.728760,131.406464 571.571533,132.004074 570.591675,131.969070 
	C564.001953,131.733688 564.000488,131.715775 564.000366,138.570618 
	C563.999695,174.136017 563.983704,209.701447 564.038025,245.266754 
	C564.041504,247.548157 564.590942,249.828720 564.942444,252.520294 
	C561.746460,254.043015 561.965332,251.956024 561.976440,249.797913 
	C562.025330,240.316010 561.991272,230.833664 561.990845,221.351486 
	C561.989502,192.572220 561.989746,163.792969 561.989441,135.013702 
	C561.989441,133.237381 561.989441,131.461044 561.989441,129.516235 
	C567.762146,129.516235 573.027405,129.516235 578.604614,129.516235 
	C578.604614,133.082397 578.604614,136.558731 578.604614,140.576706 
	C579.886780,139.418091 581.092651,138.328445 582.635010,137.094238 
z"/>
<path fill="#1A5B17" opacity="1.000000" stroke="none" 
	d="
M146.475830,207.134369 
	C147.439636,209.370865 148.064468,211.827133 148.871414,214.999298 
	C151.306412,214.999298 154.080307,214.822174 156.821716,215.044968 
	C160.110001,215.312210 161.128510,214.018524 161.054413,210.786087 
	C160.614822,191.610718 160.333817,172.431717 160.001373,153.253906 
	C159.992752,152.757095 160.005661,152.259933 160.030731,151.315765 
	C160.707642,152.812485 161.917435,154.752396 161.931335,156.700867 
	C162.071976,176.409866 162.017105,196.120270 162.017105,216.036697 
	C157.550903,216.036697 152.452377,216.036697 147.191269,216.036697 
	C146.840149,213.145432 146.488495,210.249786 146.475830,207.134369 
z"/>
<path fill="#07080B" opacity="1.000000" stroke="none" 
	d="
M568.458557,253.023361 
	C569.463501,252.290894 570.968689,251.024155 572.379822,251.121384 
	C576.235046,251.387054 577.120667,249.808289 577.071533,246.212341 
	C576.888245,232.803116 576.961731,219.389603 577.051392,205.978455 
	C577.061401,204.488251 575.921570,201.018585 579.924316,203.650635 
	C579.648438,205.455322 579.013062,206.892715 579.005920,208.333252 
	C578.932434,223.101196 578.960876,237.869644 578.960876,253.111313 
	C575.430176,253.111313 572.173035,253.111313 568.458557,253.023361 
z"/>
<path fill="#07080B" opacity="1.000000" stroke="none" 
	d="
M631.939270,135.658890 
	C630.387146,135.436417 628.549438,135.154877 626.996033,134.334747 
	C618.065857,129.619904 608.926270,126.949524 598.958252,130.881088 
	C593.869324,132.888275 588.798950,134.942490 583.334961,136.973450 
	C593.515259,126.514084 612.250671,124.324112 626.312256,131.947556 
	C628.197449,132.969604 629.963684,134.211151 631.939270,135.658890 
z"/>
<path fill="#286B26" opacity="1.000000" stroke="none" 
	d="
M145.478622,162.952698 
	C145.200806,163.525375 144.401474,164.730392 143.728546,164.663513 
	C129.475906,163.247162 115.457672,164.521515 101.191757,168.026978 
	C106.616058,163.338501 113.771202,163.620178 120.579643,163.211411 
	C128.700195,162.723892 136.868408,163.030258 145.478622,162.952698 
z"/>
<path fill="#07080B" opacity="1.000000" stroke="none" 
	d="
M643.535645,195.902985 
	C643.062683,195.266037 642.473816,194.214188 642.780029,193.637787 
	C645.918030,187.730484 646.472229,181.463455 646.097473,174.910278 
	C645.955688,172.430038 646.886780,169.888428 647.673645,167.183456 
	C650.061096,177.065033 647.396240,186.452164 643.535645,195.902985 
z"/>
<path fill="#286B26" opacity="1.000000" stroke="none" 
	d="
M145.909180,131.629456 
	C140.804504,130.944641 135.452545,129.123932 130.138382,129.228210 
	C122.959389,129.369110 115.809441,130.989502 108.227463,131.915848 
	C120.350639,125.628807 132.983414,126.145668 145.909180,131.629456 
z"/>
<path fill="#286B26" opacity="1.000000" stroke="none" 
	d="
M90.601479,176.967422 
	C89.965263,180.961609 88.142471,185.117249 88.227013,189.233734 
	C88.339714,194.720901 89.935486,200.177612 90.989517,205.977081 
	C85.104851,199.556213 85.917870,191.622253 87.391602,183.705093 
	C87.819092,181.408554 89.277985,179.304016 90.601479,176.967422 
z"/>
<path fill="#286B26" opacity="1.000000" stroke="none" 
	d="
M115.500916,145.173187 
	C118.229134,143.863205 121.298172,141.454239 124.470917,141.308868 
	C130.273163,141.043030 136.236130,141.796951 140.911163,146.547607 
	C132.835129,143.073532 124.575706,141.100403 115.500916,145.173187 
z"/>
<path fill="#286B26" opacity="1.000000" stroke="none" 
	d="
M100.930969,214.746277 
	C109.199936,215.006226 117.726387,215.509186 126.734840,216.040802 
	C118.364388,219.958282 109.747681,218.166199 100.930969,214.746277 
z"/>
<path fill="#07080B" opacity="1.000000" stroke="none" 
	d="
M865.919739,194.662033 
	C864.663269,194.288803 862.523987,193.928314 862.040710,192.835510 
	C860.085693,188.414703 858.552979,183.795792 857.109131,179.173538 
	C856.910461,178.537277 858.087341,177.471283 858.843018,176.864685 
	C858.792419,183.846649 861.354858,189.460632 865.919739,194.662033 
z"/>
<path fill="#07080B" opacity="1.000000" stroke="none" 
	d="
M611.430908,217.946396 
	C611.337097,217.337738 611.568726,216.455185 612.022400,216.320374 
	C618.127930,214.506226 624.264404,212.796310 630.782104,211.092789 
	C625.633301,215.942490 619.068542,217.883453 611.430908,217.946396 
z"/>
<path fill="#07080B" opacity="1.000000" stroke="none" 
	d="
M591.080811,213.552673 
	C592.420532,213.332672 594.023499,213.139603 595.459656,213.541977 
	C599.301147,214.618210 603.071045,215.949875 606.933472,217.523132 
	C601.754395,216.527847 596.511169,215.189468 591.080811,213.552673 
z"/>
<path fill="#07080B" opacity="1.000000" stroke="none" 
	d="
M923.923462,161.606262 
	C923.196167,161.030060 922.311829,160.145859 921.904114,159.079453 
	C920.205566,154.636078 918.650330,150.137894 917.059692,145.271484 
	C919.379761,150.326935 921.682678,155.770706 923.923462,161.606262 
z"/>
<path fill="#07080B" opacity="1.000000" stroke="none" 
	d="
M647.930908,164.595520 
	C647.553528,164.899826 647.021118,164.873917 646.961304,164.692368 
	C645.162415,159.230148 643.410095,153.752579 641.930298,148.090912 
	C644.138916,153.333832 646.067627,158.763290 647.930908,164.595520 
z"/>
<path fill="#030406" opacity="1.000000" stroke="none" 
	d="
M326.957123,160.559113 
	C326.272827,160.359482 325.255219,159.803299 325.110504,159.073898 
	C324.143860,154.202194 323.363373,149.293533 322.786163,144.187592 
	C324.375793,149.359680 325.701721,154.741058 326.957123,160.559113 
z"/>
<path fill="#030406" opacity="1.000000" stroke="none" 
	d="
M478.946503,163.545319 
	C478.251373,163.188049 477.166534,162.420914 477.090881,161.564621 
	C476.735565,157.542892 476.657532,153.496674 476.772217,149.215302 
	C477.716522,153.679047 478.369141,158.386719 478.946503,163.545319 
z"/>
<path fill="#07080B" opacity="1.000000" stroke="none" 
	d="
M923.315552,177.087662 
	C923.137329,172.848282 923.268005,168.718964 923.691223,164.298111 
	C923.863953,168.403625 923.744141,172.800674 923.315552,177.087662 
z"/>
<path fill="#07080B" opacity="1.000000" stroke="none" 
	d="
M631.445557,211.072830 
	C633.134033,208.110306 632.917725,203.064148 638.752930,203.073318 
	C636.691711,205.725235 634.230408,208.348175 631.445557,211.072830 
z"/>
<path fill="#1A5B17" opacity="1.000000" stroke="none" 
	d="
M94.549591,146.030151 
	C94.857254,147.704926 94.857254,149.625931 94.857254,152.053635 
	C99.256294,152.053635 103.613579,152.053635 108.442764,152.253265 
	C108.914680,152.452911 108.972549,152.673737 108.972549,152.673737 
	C103.754440,152.673737 98.536324,152.673737 92.680656,152.673737 
	C93.204781,150.526123 93.723358,148.401245 94.549591,146.030151 
z"/>
<path fill="#030406" opacity="1.000000" stroke="none" 
	d="
M430.442566,217.912918 
	C433.756226,214.002838 438.247955,216.604843 442.707275,216.698975 
	C438.958405,217.326294 434.919708,217.659775 430.442566,217.912918 
z"/>
<path fill="#030406" opacity="1.000000" stroke="none" 
	d="
M461.491882,207.055878 
	C461.436035,206.541214 461.803253,205.892151 462.170441,205.243073 
	C462.969513,205.911377 464.335938,206.486572 464.463715,207.265060 
	C464.884705,209.830078 464.857361,212.468658 465.000549,215.524536 
	C464.331421,215.106796 463.334869,214.335022 463.064209,213.361450 
	C462.482758,211.269928 462.275452,209.074417 461.491882,207.055878 
z"/>
<path fill="#030406" opacity="1.000000" stroke="none" 
	d="
M416.425903,213.675262 
	C420.039215,214.589005 423.917572,215.779358 427.894073,217.295074 
	C424.225098,216.397568 420.458038,215.174728 416.425903,213.675262 
z"/>
<path fill="#030406" opacity="1.000000" stroke="none" 
	d="
M478.401062,216.017838 
	C478.145050,213.165146 478.290436,210.352081 478.732239,207.263107 
	C478.953278,210.010620 478.877899,213.034042 478.401062,216.017838 
z"/>
<path fill="#286B26" opacity="1.000000" stroke="none" 
	d="
M128.261108,216.151077 
	C130.795227,214.695709 133.592941,213.370499 136.776840,212.077271 
	C134.283585,213.499908 131.404144,214.890579 128.261108,216.151077 
z"/>
<path fill="#030406" opacity="1.000000" stroke="none" 
	d="
M447.375732,216.020172 
	C449.477051,214.700974 451.949402,213.387589 454.813049,212.114380 
	C452.718445,213.445023 450.232605,214.735504 447.375732,216.020172 
z"/>
<path fill="#286B26" opacity="1.000000" stroke="none" 
	d="
M146.108994,156.474350 
	C148.588547,158.153778 149.088181,160.395447 146.281403,162.892578 
	C145.955917,160.928192 146.000412,158.914993 146.108994,156.474350 
z"/>
<path fill="#0B0C0F" opacity="1.000000" stroke="none" 
	d="
M372.083618,196.586090 
	C371.259064,195.109833 370.361176,193.279861 369.729248,191.225494 
	C370.666931,192.744843 371.338623,194.488602 372.083618,196.586090 
z"/>
<path fill="#030406" opacity="1.000000" stroke="none" 
	d="
M312.987366,212.426575 
	C314.025818,213.096558 314.980713,214.190216 315.967621,215.624405 
	C312.899292,216.982651 312.668488,215.148087 312.987366,212.426575 
z"/>
<path fill="#286B26" opacity="1.000000" stroke="none" 
	d="
M150.651062,134.665558 
	C149.176895,134.173264 147.632858,133.369522 146.084625,132.215393 
	C147.580688,132.694702 149.080948,133.524414 150.651062,134.665558 
z"/>
<path fill="#030406" opacity="1.000000" stroke="none" 
	d="
M312.252045,204.291412 
	C312.632874,205.163864 313.066772,206.380402 313.233521,207.806000 
	C312.745941,206.888519 312.525543,205.761993 312.252045,204.291412 
z"/>
<path fill="#07080B" opacity="1.000000" stroke="none" 
	d="
M640.983948,145.661957 
	C640.039001,144.862015 639.033691,143.739029 638.038696,142.240738 
	C639.007141,143.023254 639.965393,144.181076 640.983948,145.661957 
z"/>
<path fill="#1A5B17" opacity="1.000000" stroke="none" 
	d="
M96.564438,141.969666 
	C96.387306,143.103287 95.920006,144.417801 95.089066,145.822540 
	C95.241699,144.658707 95.757980,143.404648 96.564438,141.969666 
z"/>
<path fill="#07080B" opacity="1.000000" stroke="none" 
	d="
M580.062073,204.317978 
	C580.976929,204.811539 581.967468,205.615677 582.943604,206.804718 
	C581.998718,206.335938 581.068237,205.482254 580.062073,204.317978 
z"/>
<path fill="#030406" opacity="1.000000" stroke="none" 
	d="
M455.459229,212.137451 
	C455.891998,211.484436 456.637390,210.757950 457.759827,210.040070 
	C457.348511,210.720428 456.560181,211.392197 455.459229,212.137451 
z"/>
<path fill="#07080B" opacity="1.000000" stroke="none" 
	d="
M917.038452,144.619171 
	C916.414307,144.162582 915.712585,143.396881 915.001831,142.261078 
	C915.648804,142.697311 916.304810,143.503677 917.038452,144.619171 
z"/>
<path fill="#07080B" opacity="1.000000" stroke="none" 
	d="
M586.115051,210.289551 
	C586.943787,210.465881 587.916504,210.922073 588.929626,211.732056 
	C588.066345,211.580368 587.162720,211.074890 586.115051,210.289551 
z"/>
<path fill="#07080B" opacity="1.000000" stroke="none" 
	d="
M639.401245,203.021027 
	C639.535400,202.140717 639.965210,201.131882 640.760071,200.083939 
	C640.649048,200.994049 640.173035,201.943268 639.401245,203.021027 
z"/>
<path fill="#286B26" opacity="1.000000" stroke="none" 
	d="
M137.389526,212.085419 
	C137.747345,211.453354 138.396561,210.744614 139.390015,210.034332 
	C139.049820,210.691422 138.365356,211.350082 137.389526,212.085419 
z"/>
<path fill="#030406" opacity="1.000000" stroke="none" 
	d="
M321.186890,140.590179 
	C320.536591,140.152267 319.784302,139.407547 319.032776,138.282547 
	C319.717285,138.695969 320.401093,139.489670 321.186890,140.590179 
z"/>
<path fill="#030406" opacity="1.000000" stroke="none" 
	d="
M474.052002,141.674728 
	C473.578064,141.435440 473.042175,140.910507 472.729736,140.202301 
	C473.298798,140.475708 473.644409,140.932388 474.052002,141.674728 
z"/>
<path fill="#286B26" opacity="1.000000" stroke="none" 
	d="
M98.409332,213.314117 
	C99.100266,213.318069 99.864090,213.601395 100.594772,214.218109 
	C99.868484,214.232162 99.175346,213.912842 98.409332,213.314117 
z"/>
<path fill="#286B26" opacity="1.000000" stroke="none" 
	d="
M111.662750,148.323883 
	C111.854103,147.749466 112.311356,147.043854 113.125786,146.386597 
	C112.964859,147.020859 112.446754,147.606766 111.662750,148.323883 
z"/>
<path fill="#286B26" opacity="1.000000" stroke="none" 
	d="
M109.227264,152.515289 
	C108.972549,152.673737 108.914680,152.452911 108.891960,152.342773 
	C109.101990,151.602432 109.334740,150.972244 109.874847,150.198517 
	C109.948792,150.822266 109.715378,151.589554 109.227264,152.515289 
z"/>
<path fill="#286B26" opacity="1.000000" stroke="none" 
	d="
M110.365723,150.018768 
	C110.340164,149.567993 110.573792,148.973282 111.152573,148.361542 
	C111.206787,148.854614 110.915855,149.364716 110.365723,150.018768 
z"/>
<path fill="#286B26" opacity="1.000000" stroke="none" 
	d="
M113.672836,146.414276 
	C113.773132,146.054047 114.144997,145.584030 114.867935,145.139221 
	C114.794144,145.544464 114.369278,145.924500 113.672836,146.414276 
z"/>
<path fill="#286B26" opacity="1.000000" stroke="none" 
	d="
M107.584595,131.837219 
	C107.495117,132.159851 107.094223,132.554535 106.387207,132.967438 
	C106.478455,132.626846 106.875816,132.268066 107.584595,131.837219 
z"/>
<path fill="#030406" opacity="1.000000" stroke="none" 
	d="
M326.311157,216.051422 
	C326.090393,215.685028 326.265717,215.426056 326.736176,215.115295 
	C326.839630,215.371964 326.731598,215.737076 326.311157,216.051422 
z"/>
<path fill="#1A5B17" opacity="1.000000" stroke="none" 
	d="
M97.036057,141.241943 
	C97.285927,141.265488 97.394440,141.474182 97.502960,141.682877 
	C97.386864,141.732849 97.270775,141.782822 96.962105,141.854340 
	C96.769524,141.875870 96.894691,141.427109 97.036057,141.241943 
z"/>
<path fill="#0B0C0F" opacity="1.000000" stroke="none" 
	d="
M379.036316,201.668060 
	C378.787262,201.890793 378.502808,201.751053 378.140198,201.301651 
	C378.322998,201.202362 378.635956,201.306915 379.036316,201.668060 
z"/>
<path fill="#FDFDFD" opacity="1.000000" stroke="none" 
	d="
M589.919189,198.219467 
	C573.870361,185.705383 573.280701,161.098923 588.414612,148.105743 
	C598.721436,139.256882 615.855408,141.706589 624.466370,153.260223 
	C631.941040,163.289078 632.288574,180.921341 625.213501,191.167572 
	C617.057922,202.978592 603.609802,205.766342 589.919189,198.219467 
z"/>
<path fill="#FEFEFE" opacity="1.000000" stroke="none" 
	d="
M712.784668,143.926620 
	C724.380920,147.875061 730.651917,155.970016 730.960876,167.559982 
	C731.092468,172.498108 731.127869,177.599319 730.075684,182.377319 
	C727.305664,194.956268 717.951172,202.229630 705.298035,202.442169 
	C692.832886,202.651550 682.076721,195.456268 679.588928,183.330750 
	C678.146484,176.300201 678.201111,168.367325 679.907349,161.410843 
	C683.371948,147.285736 698.205994,139.874695 712.784668,143.926620 
z"/>
<path fill="#FDFDFD" opacity="1.000000" stroke="none" 
	d="
M268.789093,190.011139 
	C269.599823,181.723541 274.553650,177.548462 284.360962,177.086349 
	C291.158234,176.766052 297.982544,176.996979 304.794617,177.023346 
	C309.101532,177.040024 310.822998,178.724442 311.113037,183.544434 
	C311.757019,194.246429 300.409210,201.677612 291.379333,202.887161 
	C287.953033,203.346115 284.394012,203.217941 280.932251,202.924194 
	C273.663879,202.307449 269.448425,197.818710 268.789093,190.011139 
z"/>
<path fill="#FAFAFA" opacity="1.000000" stroke="none" 
	d="
M889.372375,143.128693 
	C901.859375,147.173477 906.985840,153.314651 906.998108,164.391357 
	C890.924622,164.391357 874.844666,164.391357 858.763733,164.391357 
	C858.887512,153.284470 870.490479,142.447739 881.950317,142.957901 
	C884.278442,143.061508 886.612610,143.027100 889.372375,143.128693 
z"/>
<path fill="#FCFCFC" opacity="1.000000" stroke="none" 
	d="
M424.282593,198.641663 
	C417.430634,187.607269 422.812164,178.324875 436.529663,177.102097 
	C440.823059,176.719391 445.176788,176.823761 449.494812,176.960526 
	C453.777863,177.096207 458.050781,177.553558 462.178925,177.858810 
	C467.287659,197.033813 450.230011,205.025818 436.847046,203.482605 
	C432.623993,202.995651 428.632660,200.499115 424.282593,198.641663 
z"/>
<path fill="#FAFEFA" opacity="1.000000" stroke="none" 
	d="
M116.036972,203.137085 
	C104.617134,199.720566 100.664986,192.276489 105.451920,183.043365 
	C105.917122,182.146072 106.972946,181.555008 108.286835,180.441010 
	C120.977547,175.325745 133.437393,176.371429 145.934158,178.125061 
	C145.934158,178.125061 145.965317,178.039566 145.924286,178.483246 
	C145.225616,183.603256 144.567978,188.279572 143.910339,192.955887 
	C143.910339,192.955887 143.989136,192.973511 143.726440,193.108063 
	C143.174774,193.750214 142.885818,194.257828 142.596878,194.765442 
	C142.596878,194.765442 142.758347,194.792816 142.457855,194.844681 
	C141.640762,195.471786 141.124130,196.047028 140.607498,196.622269 
	C140.607498,196.622269 140.745071,196.707138 140.450043,196.727570 
	C139.729095,197.141602 139.303162,197.535202 138.877243,197.928802 
	C138.877243,197.928802 138.953308,197.960373 138.681046,197.980652 
	C138.179047,198.280182 137.949310,198.559448 137.719574,198.838715 
	C137.719574,198.838715 137.893066,198.866394 137.583252,198.855438 
	C136.796478,199.193970 136.319504,199.543457 135.842514,199.892944 
	C135.842514,199.892944 135.932800,199.926514 135.631592,199.925751 
	C134.841171,200.254715 134.351974,200.584442 133.862778,200.914169 
	C133.862778,200.914169 133.942062,200.943741 133.549545,200.946655 
	C127.450340,201.678741 121.743660,202.407913 116.036972,203.137085 
z"/>
<path fill="#286B26" opacity="1.000000" stroke="none" 
	d="
M145.878983,177.731827 
	C133.437393,176.371429 120.977547,175.325745 108.435211,180.116653 
	C110.068558,178.939896 112.043335,176.728439 114.110130,176.638824 
	C124.370735,176.193878 134.655563,176.298950 144.932037,176.272705 
	C145.228394,176.271942 145.526505,176.967636 145.878983,177.731827 
z"/>
<path fill="#286B26" opacity="1.000000" stroke="none" 
	d="
M116.295303,203.399521 
	C121.743660,202.407913 127.450340,201.678741 133.552277,200.904419 
	C128.795593,205.802856 122.783554,205.408539 116.295303,203.399521 
z"/>
<path fill="#286B26" opacity="1.000000" stroke="none" 
	d="
M144.293503,192.918182 
	C144.567978,188.279572 145.225616,183.603256 145.879517,178.475220 
	C147.667130,183.152649 148.210739,188.181107 144.293503,192.918182 
z"/>
<path fill="#286B26" opacity="1.000000" stroke="none" 
	d="
M140.982254,196.704666 
	C141.124130,196.047028 141.640762,195.471786 142.422272,194.770935 
	C142.243774,195.359238 141.800385,196.073151 140.982254,196.704666 
z"/>
<path fill="#286B26" opacity="1.000000" stroke="none" 
	d="
M134.188599,200.914337 
	C134.351974,200.584442 134.841171,200.254715 135.633240,199.877625 
	C135.462204,200.191666 134.988312,200.553085 134.188599,200.914337 
z"/>
<path fill="#286B26" opacity="1.000000" stroke="none" 
	d="
M136.177155,199.897629 
	C136.319504,199.543457 136.796478,199.193970 137.570435,198.768524 
	C137.415543,199.095825 136.963669,199.499069 136.177155,199.897629 
z"/>
<path fill="#286B26" opacity="1.000000" stroke="none" 
	d="
M139.214081,197.914581 
	C139.303162,197.535202 139.729095,197.141602 140.432831,196.648590 
	C140.324066,196.999573 139.937485,197.449966 139.214081,197.914581 
z"/>
<path fill="#286B26" opacity="1.000000" stroke="none" 
	d="
M142.923676,194.709473 
	C142.885818,194.257828 143.174774,193.750214 143.706039,193.073212 
	C143.715714,193.487045 143.483078,194.070267 142.923676,194.709473 
z"/>
<path fill="#286B26" opacity="1.000000" stroke="none" 
	d="
M137.998383,198.787933 
	C137.949310,198.559448 138.179047,198.280182 138.681305,197.939468 
	C138.728271,198.164398 138.502731,198.450775 137.998383,198.787933 
z"/>
<path fill="#FFFFFF" opacity="1.000000" stroke="none" 
	d="
M516.284485,139.513504 
	C516.203796,140.148727 515.849670,140.431564 515.495483,140.714417 
	C515.375549,140.150574 515.255615,139.586746 515.268066,138.766724 
	C515.604004,138.727417 515.807495,138.944275 516.284485,139.513504 
z"/>
</svg>