<svg width="127" height="147" viewBox="0 0 127 147" xmlns="http://www.w3.org/2000/svg"><g fill="none" fill-rule="evenodd"><path fill="#FFF" d="M57.641 40.699l.05 59.154h11l-.05-12.78L94.553 56.64h-12.43L68.64 74.794V40.699z"/><path fill="#FFF" d="M76.098 85.281l7.626 10.335H96.83L83.724 77.107zM29.486 95.616h13.109l7.624-10.335-7.624-8.174z"/><path fill="#FFF" d="M57.374 40.699v34.095L43.89 56.64H31.46l25.915 30.432.201 12.78h10.998l-.2-59.154z"/><path fill="#3ACF6E" d="M63.216 0L.307 36.321l14.367 8.296 48.485-27.993 48.485 27.993v55.985l14.482 8.361V36.321z"/><path fill="#2E80DD" d="M0 110.362l62.91 36.322 62.909-36.322-14.482-8.36-48.484 27.992-48.485-27.993V46.016L0 37.721z"/></g></svg>