<svg xmlns="http://www.w3.org/2000/svg" xmlns:xlink="http://www.w3.org/1999/xlink" preserveAspectRatio="xMidYMid meet" width="148" height="64" viewBox="0 0 148 64" style="width:100%;height:100%"><defs><animate repeatCount="indefinite" dur="14.014014s" begin="0s" xlink:href="#_R_G_L_0_G_L_2_G" fill="freeze" attributeName="opacity" from="0" to="0" keyTimes="0;0.1627976;0.1764881;0.2809524;0.3134732;1" values="0;0;1;1;0;0" keySplines="0.167 0.167 0.833 0.833;0.167 0.167 0.833 0.833;0.167 0.167 0.833 0.833;0.167 0.167 0.833 0.833;0 0 0 0" calcMode="spline"/><animate repeatCount="indefinite" dur="14.014014s" begin="0s" xlink:href="#_R_G_L_0_G_L_1_G_D_0_P_0" fill="freeze" attributeName="fill" from="#93c5fe" to="#93c5fe" keyTimes="0;0.1559524;0.18105;0.3227643;0.3483155;1" values="#93c5fe;#93c5fe;#8992b1;#8992b1;#93c5fe;#93c5fe" keySplines="0.167 0.167 0.833 0.833;0.167 0.167 0.833 0.833;0.167 0.167 0.833 0.833;0.167 0.167 0.833 0.833;0 0 0 0" calcMode="spline"/><animateMotion repeatCount="indefinite" dur="14.014014s" begin="0s" xlink:href="#_R_G_L_0_G_L_1_G" fill="freeze" keyTimes="0;0.1627976;0.1719262;0.3250857;0.334378;1" path="M491.81 213.5 C491.81,213.5 491.81,213.5 491.81,213.5 C491.81,216.17 491.81,226.83 491.81,229.5 C491.81,229.5 491.81,229.5 491.81,229.5 C491.81,226.83 491.81,216.17 491.81,213.5 C491.81,213.5 491.81,213.5 491.81,213.5 " keyPoints="0;0;0.5;0.5;1;1" keySplines="0.167 0 0.833 1;0.167 0 0.833 1;0.167 0.167 0.833 0.833;0.333 0 0.667 1;0 0 0 0" calcMode="spline"/><animateTransform repeatCount="indefinite" dur="14.014014s" begin="0s" xlink:href="#_R_G_L_0_G_L_1_G" fill="freeze" attributeName="transform" from="2.61924 2.61924" to="2.61924 2.61924" type="scale" additive="sum" keyTimes="0;0.1582357;0.1627976;0.1764881;0.1833333;0.3204405;0.3297333;0.3413476;0.3483155;1" values="2.61924 2.61924;2.61924 2.61924;2.61924 1.99422;2.61924 1.7989;2.61924 2.15048;2.61924 2.15048;2.61924 2.4919700000000002;2.61924 2.99532;2.61924 2.61924;2.61924 2.61924" keySplines="0.167 0 0.833 1;0.167 0 0.833 1;0.167 0 0.833 1;0.333 0 0.833 1;0.167 0 0.833 1;0.333 0 0.667 1;0.333 0 0.667 1;0.333 0 0.833 1;0 0 0 0" calcMode="spline"/><animateTransform repeatCount="indefinite" dur="14.014014s" begin="0s" xlink:href="#_R_G_L_0_G_L_1_G" fill="freeze" attributeName="transform" from="-7.5 -12.8" to="-7.5 -12.8" type="translate" additive="sum" keyTimes="0;1" values="-7.5 -12.8;-7.5 -12.8" keySplines="0 0 1 1" calcMode="spline"/><animate repeatCount="indefinite" dur="14.014014s" begin="0s" xlink:href="#_R_G_L_0_G_L_0_G_D_0_P_0" fill="freeze" attributeName="fill" from="#0099fa" to="#0099fa" keyTimes="0;0.1559524;0.18105;0.3239952;0.3761905;1" values="#0099fa;#0099fa;#8992b1;#8992b1;#0099fa;#0099fa" keySplines="0.167 0.167 0.833 0.833;0.167 0.167 0.833 0.833;0.167 0.167 0.833 0.833;0.167 0.167 0.833 0.833;0 0 0 0" calcMode="spline"/><animateMotion repeatCount="indefinite" dur="14.014014s" begin="0s" xlink:href="#_R_G_L_0_G_L_0_G" fill="freeze" keyTimes="0;0.1285714;0.1673595;0.2809524;0.3274107;1" path="M512.82 213.25 C512.82,213.25 512.82,213.25 512.82,213.25 C608.59,208.84 521.49,103.86 491.82,178.75 C491.65,178.14 491.81,178.67 491.82,178.75 C527.32,102 605.32,212 512.82,213.25 C512.82,213.25 512.82,213.25 512.82,213.25 " keyPoints="0;0;0.5;0.5;1;1" keySplines="0.653 0.227 0.699 0.8;0.653 0.227 0.699 0.8;0.002 1 0.667 1;0.333 0 0.575 0.739;0 0 0 0" calcMode="spline"/><animateTransform repeatCount="indefinite" dur="14.014014s" begin="0s" xlink:href="#_R_G_L_0_G_L_0_G" fill="freeze" attributeName="transform" from="360" to="360" type="rotate" additive="sum" keyTimes="0;0.1285714;0.1673595;0.2809524;0.3297321;1" values="360;360;0;0;360;360" keySplines="0.167 0 0.833 1;0.167 0 0.833 1;0.167 0 0.833 1;0.333 0 0.667 1;0 0 0 0" calcMode="spline"/><animateTransform repeatCount="indefinite" dur="14.014014s" begin="0s" xlink:href="#_R_G_L_0_G_L_0_G" fill="freeze" attributeName="transform" from="2.61924 2.61924" to="2.61924 2.61924" type="scale" additive="sum" keyTimes="0;1" values="2.61924 2.61924;2.61924 2.61924" keySplines="0 0 1 1" calcMode="spline"/><animateTransform repeatCount="indefinite" dur="14.014014s" begin="0s" xlink:href="#_R_G_L_0_G_L_0_G" fill="freeze" attributeName="transform" from="-7.5 -6.5" to="-7.5 -6.5" type="translate" additive="sum" keyTimes="0;1" values="-7.5 -6.5;-7.5 -6.5" keySplines="0 0 1 1" calcMode="spline"/><animate attributeType="XML" attributeName="opacity" dur="14s" from="0" to="1" xlink:href="#time_group"/></defs><g id="_R_G"><g id="_R_G_L_0_G" transform=" translate(78, 32) scale(0.3875, 0.3875) translate(-400, -206)"><g id="_R_G_L_0_G_L_3_G" transform=" translate(334.25, 206) scale(2.72744, 2.72744) translate(-49, -9.5)"><path id="_R_G_L_0_G_L_3_G_D_0_P_0" fill="#001028" fill-opacity="1" fill-rule="nonzero" d=" M11.28 0.25 C11.28,0.25 11.28,10.62 11.28,10.62 C11.28,10.62 11.13,10.62 11.13,10.62 C11.13,10.62 4.01,0.25 4.01,0.25 C4.01,0.25 0.25,0.25 0.25,0.25 C0.25,0.25 0.25,18.24 0.25,18.24 C0.25,18.24 4.63,18.24 4.63,18.24 C4.63,18.24 4.63,7.86 4.63,7.86 C4.63,7.86 4.74,7.86 4.74,7.86 C4.74,7.86 11.93,18.24 11.93,18.24 C11.93,18.24 15.64,18.24 15.64,18.24 C15.64,18.24 15.64,0.25 15.64,0.25 C15.64,0.25 11.28,0.25 11.28,0.25z "/><path id="_R_G_L_0_G_L_3_G_D_1_P_0" fill="#001028" fill-opacity="1" fill-rule="nonzero" d=" M17.64 0.25 C17.64,0.25 17.64,18.24 17.64,18.24 C17.64,18.24 17.65,18.24 17.65,18.24 C17.65,18.24 22.02,18.24 22.02,18.24 C22.02,18.24 22.02,11.01 22.02,11.01 C22.02,11.01 29.21,11.01 29.21,11.01 C29.21,11.01 29.21,7.47 29.21,7.47 C29.21,7.47 22.02,7.47 22.02,7.47 C22.02,7.47 22.02,3.78 22.02,3.78 C22.02,3.78 29.99,3.78 29.99,3.78 C29.99,3.78 29.99,0.25 29.99,0.25 C29.99,0.25 17.64,0.25 17.64,0.25z "/><path id="_R_G_L_0_G_L_3_G_D_2_P_0" fill="#001028" fill-opacity="1" fill-rule="nonzero" d=" M30.84 0.25 C30.84,0.25 30.84,3.78 30.84,3.78 C30.84,3.78 30.85,3.78 30.85,3.78 C30.85,3.78 36.34,3.78 36.34,3.78 C36.34,3.78 36.34,18.24 36.34,18.24 C36.34,18.24 40.65,18.24 40.65,18.24 C40.65,18.24 40.65,3.78 40.65,3.78 C40.65,3.78 46.13,3.78 46.13,3.78 C46.13,3.78 46.13,0.25 46.13,0.25 C46.13,0.25 30.84,0.25 30.84,0.25z "/><path id="_R_G_L_0_G_L_3_G_D_3_P_0" fill="#001028" fill-opacity="1" fill-rule="nonzero" d=" M46.1 18.24 C46.1,18.24 46.1,4.75 46.1,4.75 C46.1,4.75 50.29,4.75 50.29,4.75 C50.29,4.75 50.29,7.21 50.29,7.21 C50.29,7.21 50.43,7.21 50.43,7.21 C50.68,6.32 51.08,5.66 51.64,5.22 C52.2,4.78 52.85,4.56 53.59,4.56 C53.79,4.56 54,4.57 54.21,4.6 C54.42,4.62 54.62,4.66 54.8,4.71 C54.8,4.71 54.8,8.44 54.8,8.44 C54.59,8.37 54.32,8.31 53.99,8.27 C53.66,8.23 53.37,8.21 53.11,8.21 C52.6,8.21 52.14,8.32 51.72,8.55 C51.31,8.77 50.99,9.09 50.76,9.49 C50.53,9.89 50.42,10.36 50.42,10.9 C50.42,10.9 50.42,18.23 50.42,18.23 C50.42,18.23 46.1,18.23 46.1,18.23 C46.1,18.23 46.1,18.24 46.1,18.24z "/><path id="_R_G_L_0_G_L_3_G_D_4_P_0" fill="#001028" fill-opacity="1" fill-rule="nonzero" d=" M59.13 18.47 C58.26,18.47 57.5,18.33 56.83,18.04 C56.16,17.75 55.64,17.31 55.25,16.72 C54.87,16.13 54.68,15.39 54.68,14.5 C54.68,13.75 54.81,13.12 55.08,12.6 C55.35,12.08 55.71,11.67 56.18,11.34 C56.65,11.02 57.18,10.77 57.79,10.61 C58.4,10.44 59.04,10.33 59.73,10.27 C60.5,10.2 61.12,10.13 61.59,10.05 C62.06,9.97 62.4,9.85 62.61,9.71 C62.83,9.56 62.94,9.34 62.94,9.07 C62.94,9.07 62.94,9.03 62.94,9.03 C62.94,8.58 62.78,8.23 62.47,7.98 C62.16,7.73 61.74,7.61 61.21,7.61 C60.64,7.61 60.18,7.73 59.83,7.98 C59.48,8.23 59.26,8.57 59.17,9 C59.17,9 55.19,8.86 55.19,8.86 C55.31,8.04 55.61,7.31 56.1,6.66 C56.59,6.01 57.27,5.5 58.13,5.13 C59,4.76 60.03,4.57 61.25,4.57 C62.12,4.57 62.91,4.67 63.64,4.88 C64.37,5.08 65.01,5.37 65.55,5.76 C66.09,6.14 66.51,6.61 66.8,7.17 C67.1,7.73 67.25,8.36 67.25,9.08 C67.25,9.08 67.25,18.25 67.25,18.25 C67.25,18.25 63.19,18.25 63.19,18.25 C63.19,18.25 63.19,16.37 63.19,16.37 C63.19,16.37 63.08,16.37 63.08,16.37 C62.84,16.83 62.53,17.21 62.15,17.53 C61.78,17.85 61.34,18.08 60.83,18.24 C60.33,18.4 59.76,18.48 59.13,18.48 C59.13,18.48 59.13,18.47 59.13,18.47z  M60.46 15.66 C60.93,15.66 61.34,15.57 61.71,15.38 C62.09,15.19 62.39,14.93 62.61,14.61 C62.83,14.28 62.95,13.89 62.95,13.45 C62.95,13.45 62.95,12.17 62.95,12.17 C62.83,12.23 62.68,12.29 62.5,12.35 C62.33,12.4 62.14,12.45 61.93,12.5 C61.72,12.55 61.51,12.59 61.29,12.62 C61.07,12.66 60.86,12.69 60.66,12.72 C60.25,12.78 59.91,12.88 59.62,13.02 C59.34,13.15 59.12,13.33 58.97,13.55 C58.82,13.76 58.75,14.01 58.75,14.31 C58.75,14.76 58.91,15.09 59.23,15.33 C59.55,15.56 59.96,15.68 60.46,15.68 C60.46,15.68 60.46,15.66 60.46,15.66z "/><path id="_R_G_L_0_G_L_3_G_D_5_P_0" fill="#001028" fill-opacity="1" fill-rule="nonzero" d=" M74.08 18.44 C73.08,18.44 72.17,18.18 71.35,17.67 C70.53,17.16 69.88,16.38 69.39,15.35 C68.9,14.32 68.66,13.04 68.66,11.51 C68.66,9.98 68.91,8.62 69.42,7.59 C69.93,6.57 70.59,5.81 71.41,5.31 C72.23,4.82 73.12,4.57 74.07,4.57 C74.78,4.57 75.39,4.69 75.9,4.94 C76.41,5.18 76.82,5.49 77.15,5.87 C77.48,6.25 77.73,6.65 77.9,7.06 C77.9,7.06 77.99,7.06 77.99,7.06 C77.99,7.06 77.99,0.25 77.99,0.25 C77.99,0.25 82.31,0.25 82.31,0.25 C82.31,0.25 82.31,18.24 82.31,18.24 C82.31,18.24 78.04,18.24 78.04,18.24 C78.04,18.24 78.04,16.05 78.04,16.05 C78.04,16.05 77.91,16.05 77.91,16.05 C77.73,16.47 77.47,16.86 77.13,17.22 C76.79,17.58 76.37,17.88 75.87,18.1 C75.37,18.32 74.78,18.43 74.09,18.43 C74.09,18.43 74.08,18.44 74.08,18.44z  M75.58 15.09 C76.1,15.09 76.55,14.94 76.92,14.65 C77.29,14.35 77.58,13.93 77.78,13.39 C77.98,12.85 78.08,12.22 78.08,11.49 C78.08,10.76 77.98,10.12 77.78,9.58 C77.59,9.05 77.3,8.64 76.92,8.35 C76.55,8.06 76.1,7.92 75.58,7.92 C75.06,7.92 74.59,8.07 74.22,8.36 C73.85,8.65 73.57,9.07 73.37,9.6 C73.18,10.13 73.09,10.76 73.09,11.49 C73.09,12.22 73.19,12.85 73.38,13.39 C73.57,13.93 73.85,14.35 74.22,14.65 C74.59,14.94 75.04,15.09 75.58,15.09z "/><path id="_R_G_L_0_G_L_3_G_D_6_P_0" fill="#001028" fill-opacity="1" fill-rule="nonzero" d=" M90.62 18.5 C89.2,18.5 87.98,18.22 86.95,17.67 C85.93,17.11 85.14,16.31 84.58,15.27 C84.03,14.23 83.76,12.99 83.76,11.55 C83.76,10.11 84.04,8.94 84.59,7.9 C85.14,6.85 85.92,6.04 86.93,5.46 C87.94,4.87 89.12,4.58 90.49,4.58 C91.46,4.58 92.34,4.73 93.14,5.03 C93.94,5.33 94.63,5.77 95.22,6.36 C95.8,6.95 96.26,7.67 96.58,8.53 C96.9,9.39 97.07,10.37 97.07,11.47 C97.07,11.47 97.07,12.54 97.07,12.54 C97.07,12.54 85.28,12.54 85.28,12.54 C85.28,12.54 85.28,10.04 85.28,10.04 C85.28,10.04 93.05,10.04 93.05,10.04 C93.05,9.58 92.94,9.18 92.72,8.82 C92.51,8.46 92.22,8.18 91.85,7.99 C91.49,7.79 91.06,7.68 90.59,7.68 C90.12,7.68 89.67,7.79 89.29,8.01 C88.91,8.22 88.6,8.51 88.38,8.88 C88.16,9.24 88.04,9.66 88.03,10.12 C88.03,10.12 88.03,12.66 88.03,12.66 C88.03,13.21 88.14,13.69 88.36,14.11 C88.58,14.52 88.89,14.84 89.29,15.07 C89.69,15.3 90.17,15.41 90.72,15.41 C91.1,15.41 91.45,15.36 91.76,15.25 C92.07,15.14 92.34,14.99 92.56,14.78 C92.78,14.58 92.95,14.32 93.06,14.02 C93.06,14.02 97.03,14.13 97.03,14.13 C96.87,15.01 96.5,15.78 95.94,16.44 C95.39,17.09 94.66,17.6 93.76,17.96 C92.86,18.32 91.82,18.5 90.63,18.5 C90.63,18.5 90.62,18.5 90.62,18.5z "/></g><g id="_R_G_L_0_G_L_2_G" transform=" translate(491.875, 194.312) scale(2.59652, 2.59652) translate(-7.5, -3.5)"><path id="_R_G_L_0_G_L_2_G_D_0_P_0" fill="#63688f" fill-opacity="1" fill-rule="nonzero" d=" M0.35 3.96 C0.35,3.96 6.72,6.72 6.72,6.72 C7.03,6.85 7.38,6.85 7.69,6.71 C7.69,6.71 13.93,3.96 13.93,3.96 C14.39,3.76 14.39,3.12 13.93,2.92 C13.93,2.92 7.42,0.05 7.42,0.05 C7.28,-0.02 7.13,-0.02 6.99,0.04 C6.99,0.04 0.35,2.92 0.35,2.92 C-0.12,3.12 -0.12,3.76 0.35,3.96z "/></g><g id="_R_G_L_0_G_L_1_G"><path id="_R_G_L_0_G_L_1_G_D_0_P_0" fill="#93c5fe" fill-opacity="1" fill-rule="nonzero" d=" M6.57 12.47 C6.57,12.47 0.08,0.94 0.08,0.94 C-0.21,0.42 0.32,-0.17 0.86,0.08 C0.86,0.08 6.85,2.77 6.85,2.77 C7.01,2.84 7.18,2.84 7.34,2.77 C7.34,2.77 13.48,0.05 13.48,0.05 C14.02,-0.19 14.55,0.41 14.25,0.93 C14.25,0.93 7.63,12.47 7.63,12.47 C7.39,12.88 6.81,12.88 6.57,12.47z "/></g><g id="_R_G_L_0_G_L_0_G"><path id="_R_G_L_0_G_L_0_G_D_0_P_0" fill="#0099fa" fill-opacity="1" fill-rule="nonzero" d=" M7.76 0.32 C7.76,0.32 14.25,11.85 14.25,11.85 C14.54,12.37 14.01,12.97 13.47,12.72 C13.47,12.72 7.48,10.03 7.48,10.03 C7.32,9.96 7.15,9.96 6.99,10.03 C6.99,10.03 0.86,12.73 0.86,12.73 C0.32,12.97 -0.21,12.37 0.09,11.85 C0.09,11.85 6.71,0.31 6.71,0.31 C6.95,-0.1 7.53,-0.1 7.77,0.31 C7.77,0.31 7.76,0.32 7.76,0.32z "/></g></g></g><g id="time_group"/></svg>