<svg width="77" height="12" viewBox="0 0 77 12" fill="none" xmlns="http://www.w3.org/2000/svg">
<g clip-path="url(#clip0_634_115)">
<path d="M3.21927 5.48022L0.00620775 11.8094C-0.00137634 11.8291 -0.00641395 11.8498 -0.00878648 11.8708C-0.00907009 11.8877 -0.00597071 11.9046 0.000335081 11.9203C0.00664087 11.9361 0.0160288 11.9505 0.0279637 11.9627C0.0398986 11.9749 0.0541464 11.9846 0.0698928 11.9914C0.0856391 11.9981 0.102576 12.0017 0.119736 12.002H4.42738L6.0639 5.9946L9.95813 3.06921L3.21927 5.48022Z" fill="#5F2AF2"/>
<path d="M16.1917 10.1013C16.1916 10.0763 16.1842 10.0519 16.1706 10.0309C16.1569 10.0099 16.1375 9.9932 16.1146 9.98273V9.98273L9.41854 7.08064L14.7051 1.86913C14.8614 1.71648 14.9681 1.52125 15.0116 1.30837C15.0551 1.09549 15.0334 0.874642 14.9492 0.674024C14.8651 0.473406 14.7223 0.302131 14.5392 0.182076C14.3561 0.0620216 14.1409 -0.00136202 13.9211 2.21976e-05H13.874H13.8097L0.743271 0.723959L2.58971 3.98803C2.61434 4.03334 2.65298 4.0697 2.69999 4.09178C2.747 4.11387 2.79993 4.12053 2.85104 4.1108V4.1108L12.4538 1.65746L7.20153 7.58443C7.18084 7.60855 7.1652 7.63647 7.1555 7.6666C7.1458 7.69673 7.14225 7.72846 7.14503 7.75995C7.14782 7.79145 7.1569 7.82208 7.17175 7.85009C7.18659 7.87809 7.20691 7.90291 7.23152 7.92311L11.8369 11.7333L16.106 10.2283C16.1321 10.2189 16.1545 10.2015 16.1699 10.1786C16.1853 10.1558 16.1929 10.1287 16.1917 10.1013V10.1013Z" fill="#5F2AF2"/>
<path d="M22.9499 6.32054C23.2434 6.31423 23.5327 6.25066 23.8013 6.13349C24.0698 6.01631 24.3123 5.84783 24.5147 5.63774C24.7172 5.42766 24.8756 5.1801 24.9809 4.90931C25.0862 4.63851 25.1363 4.34982 25.1284 4.05983C25.1005 3.09458 24.6421 1.61072 21.866 1.61072H18.5866V9.06388H20.3452V6.44755H21.202L23.3526 9.06388H25.3661L22.9499 6.32054ZM20.3452 5.22194V2.92947H21.9753C21.9753 2.92947 23.374 2.88713 23.374 4.07041C23.374 4.07041 23.4319 5.22194 21.9753 5.22194H20.3452Z" fill="#5F2AF2"/>
<path d="M28.5962 3.53711C28.5962 3.53711 25.6466 3.53711 25.6466 6.38417C25.6466 6.38417 25.5973 9.23124 28.5962 9.23124C30.3848 9.23124 31.081 8.37182 31.353 7.68176L30.01 7.34731C30.01 7.34731 29.7208 8.07548 28.6026 8.07548C27.4845 8.07548 27.2703 6.8414 27.2703 6.8414H31.5287C31.5287 6.8414 31.9699 3.53711 28.5962 3.53711ZM27.2553 5.86556C27.2553 5.86556 27.3645 4.68228 28.6026 4.68228C29.8407 4.68228 29.9478 5.86556 29.9478 5.86556H27.2553Z" fill="#5F2AF2"/>
<path d="M41.697 3.53711C41.697 3.53711 38.7474 3.53711 38.7474 6.38417C38.7474 6.38417 38.7003 9.23124 41.697 9.23124C43.4878 9.23124 44.1839 8.37182 44.4538 7.68176L43.1215 7.34731C43.1215 7.34731 42.8302 8.07548 41.712 8.07548C40.5939 8.07548 40.369 6.8414 40.369 6.8414H44.6209C44.6209 6.8414 45.0707 3.53711 41.697 3.53711ZM40.3583 5.86556C40.3583 5.86556 40.4654 4.68228 41.7035 4.68228C42.9416 4.68228 43.0487 5.86556 43.0487 5.86556H40.3583Z" fill="#5F2AF2"/>
<path d="M36.2948 5.99472C36.2948 4.84108 35.2795 4.87495 35.2795 4.87495H35.2152C34.1313 4.87495 34.1335 6.04552 34.1335 6.04552V9.06404H32.5677V3.70437H34.1249V4.45794H34.232C34.3965 4.1873 34.6274 3.96202 34.9033 3.80292C35.1793 3.64383 35.4914 3.55606 35.8107 3.54773C36.8817 3.54773 37.8542 4.314 37.8542 5.77669V9.06404H36.2862L36.2948 5.99472Z" fill="#5F2AF2"/>
<path d="M45.1799 1.68286L47.8382 9.06194H49.3419L52.0002 1.68286H51.0149L48.6436 8.3507H48.5472L46.1631 1.68286H45.1799Z" fill="#5F2AF2"/>
<path d="M54.4743 3.56873C51.5611 3.56873 51.6361 6.35229 51.6361 6.35229C51.6361 6.35229 51.4968 9.27343 54.4529 9.27343C56.1494 9.27343 56.8348 8.51986 57.1069 7.82979L56.37 7.46148C56.37 7.46148 55.9202 8.48599 54.4529 8.48599C52.6621 8.48599 52.5357 6.7079 52.5357 6.7079H57.2589C57.2589 6.7079 57.5717 3.56873 54.4743 3.56873ZM52.5464 5.94375C52.6151 5.49263 52.8452 5.08082 53.1951 4.78318C53.5449 4.48555 53.9912 4.32185 54.4529 4.32185C54.9145 4.32185 55.3608 4.48555 55.7107 4.78318C56.0605 5.08082 56.2907 5.49263 56.3593 5.94375H52.5464Z" fill="#5F2AF2"/>
<path d="M70.0576 3.56873C67.1445 3.56873 67.2194 6.35229 67.2194 6.35229C67.2194 6.35229 67.0802 9.27343 70.0362 9.27343C71.7327 9.27343 72.4182 8.51986 72.6902 7.82979L71.9533 7.46148C71.9533 7.46148 71.5035 8.48599 70.0255 8.48599C68.2348 8.48599 68.1084 6.7079 68.1084 6.7079H72.8423C72.8423 6.7079 73.1593 3.56873 70.0576 3.56873ZM68.1298 5.94375C68.1984 5.49263 68.4286 5.08082 68.7784 4.78318C69.1283 4.48555 69.5746 4.32185 70.0362 4.32185C70.4979 4.32185 70.9442 4.48555 71.294 4.78318C71.6439 5.08082 71.874 5.49263 71.9426 5.94375H68.1298Z" fill="#5F2AF2"/>
<path d="M59.1118 9.0639V6.21683C59.1118 6.21683 59.0325 4.45779 60.4784 4.45779C60.7511 4.45377 61.0214 4.50792 61.271 4.61655V3.80794C61.0663 3.71242 60.8417 3.666 60.6155 3.67247C60.3725 3.67124 60.1324 3.72405 59.9129 3.82699C59.5952 3.9746 59.3231 4.20331 59.1246 4.48954H59.0904V3.77831H58.2336V9.07025L59.1118 9.0639Z" fill="#5F2AF2"/>
<path d="M65.5787 5.3596H66.4355C66.4355 5.3596 66.5298 3.57092 64.2485 3.57092C61.9672 3.57092 62.0401 5.22412 62.0401 5.22412C62.0241 5.5372 62.1216 5.84564 62.3152 6.09397C62.5088 6.34231 62.7857 6.51425 63.0961 6.57886C64.2485 6.89638 65.1417 6.83076 65.5037 7.14827C65.8657 7.46579 65.9536 8.53476 64.4027 8.53476C62.8519 8.53476 62.7941 7.2647 62.7941 7.2647H61.9372C61.9372 7.2647 61.8087 9.26505 64.1821 9.26505C66.5555 9.26505 66.5383 8.10717 66.5383 7.49542C66.5383 6.88367 66.1763 6.4582 65.4138 6.19784C64.6512 5.93748 63.0811 6.0666 62.8947 5.39982C62.7084 4.73303 63.2589 4.29274 64.2356 4.29274C65.2124 4.29274 65.5787 4.96164 65.5787 5.3596Z" fill="#5F2AF2"/>
<path d="M74.3802 1.82681V3.53717H74.181V1.82681H73.7526V1.65747H74.8236V1.82681H74.3802Z" fill="#5F2AF2"/>
<path d="M76.8071 3.53717V1.8628L76.096 3.53717H75.9332L75.2263 1.8628V3.53717H75.0378V1.65747H75.3291L76.021 3.25775L76.715 1.65747H77.0085V3.53717H76.8071Z" fill="#5F2AF2"/>
</g>
<defs>
<clipPath id="clip0_634_115">
<rect width="77" height="12" fill="white"/>
</clipPath>
</defs>
</svg>
