<svg width="161" height="38" viewBox="0 0 161 38" fill="none" xmlns="http://www.w3.org/2000/svg">
<path fill-rule="evenodd" clip-rule="evenodd" d="M21.4511 9.98559C21.2526 7.989 20.371 6.40107 18.8065 5.2218C17.2419 4.04253 15.2745 3.4529 12.9043 3.4529C11.2346 3.4529 9.76345 3.73896 8.49077 4.31108C7.22977 4.8832 6.23731 5.67716 5.51341 6.69297C4.80117 7.6971 4.44506 8.84134 4.44506 10.1257C4.44506 11.0714 4.64939 11.9004 5.05804 12.6127C5.4667 13.3249 6.01547 13.9379 6.70435 14.4516C7.40491 14.9537 8.17552 15.3857 9.01619 15.7477C9.86853 16.1096 10.7267 16.4132 11.5907 16.6584L15.3737 17.7442C16.518 18.0595 17.6622 18.4623 18.8065 18.9527C19.9507 19.4431 20.9957 20.0619 21.9415 20.8092C22.8989 21.5448 23.6637 22.4496 24.2358 23.5238C24.8196 24.5863 25.1115 25.8649 25.1115 27.3594C25.1115 29.2742 24.6152 30.9964 23.6228 32.526C22.6303 34.0555 21.2059 35.2698 19.3494 36.1689C17.4929 37.0563 15.2687 37.4999 12.6766 37.4999C10.2363 37.4999 8.11714 37.0971 6.31905 36.2915C4.52095 35.4742 3.10816 34.3474 2.08068 32.9113C1.0532 31.4752 0.475237 29.8113 0.346802 27.9198H3.70947C3.82623 29.3326 4.29327 30.5294 5.11059 31.5102C5.9279 32.491 6.99041 33.2382 8.29812 33.752C9.60582 34.254 11.0653 34.5051 12.6766 34.5051C14.463 34.5051 16.0509 34.2073 17.4404 33.6118C18.8415 33.0047 19.939 32.164 20.733 31.0898C21.5386 30.004 21.9415 28.743 21.9415 27.3068C21.9415 26.0925 21.6262 25.0767 20.9957 24.2594C20.3652 23.4304 19.4837 22.7357 18.3511 22.1753C17.2302 21.6148 15.9283 21.1186 14.4455 20.6866L10.1546 19.4256C7.34069 18.5849 5.15729 17.4232 3.60439 15.9403C2.05149 14.4575 1.27504 12.566 1.27504 10.2658C1.27504 8.33928 1.78878 6.64627 2.81626 5.18677C3.85542 3.71561 5.25653 2.57136 7.0196 1.75405C8.79434 0.925055 10.7851 0.510559 12.9918 0.510559C15.2219 0.510559 17.1952 0.919218 18.9115 1.73653C20.6279 2.55385 21.9882 3.68058 22.9923 5.11672C24.0081 6.54118 24.551 8.16414 24.6211 9.98559H21.4511ZM36.9158 36.8869H32.5724V1.01846H36.9158V36.8869ZM58.007 1.01846H45.2218V36.8869H50.6336V23.3137H57.9895C58.1065 23.3137 58.2227 23.3129 58.3381 23.3112L65.6255 36.8869H71.7904L63.852 22.3907C64.2197 22.2527 64.5715 22.0991 64.9075 21.9301C66.7523 21.0077 68.13 19.7175 69.0407 18.0595C69.9631 16.3898 70.4243 14.4575 70.4243 12.2624C70.4243 10.0556 69.969 8.1116 69.0583 6.43026C68.1475 4.73725 66.7698 3.41203 64.925 2.4546C63.0918 1.49718 60.7858 1.01846 58.007 1.01846ZM50.6336 18.655H57.4991C59.2505 18.655 60.6749 18.4039 61.7725 17.9019C62.8817 17.3998 63.6932 16.6701 64.2069 15.7126C64.7206 14.7552 64.9775 13.6051 64.9775 12.2624C64.9775 10.908 64.7148 9.73455 64.1894 8.7421C63.6756 7.74964 62.8642 6.99071 61.7549 6.46529C60.6574 5.9282 59.2154 5.65965 57.429 5.65965H50.6336V18.655ZM76.1864 1.01846H83.7699V16.8335H84.2428L97.1506 1.01846H106.24L92.9297 17.0787L106.398 36.8869H97.3257L87.5004 22.1402L83.7699 26.6939V36.8869H76.1864V1.01846ZM118.456 1.01846H109.787V36.8869H133.378V29.8464H118.456V1.01846ZM160.347 25.4909C160.347 31.7847 155.245 36.8869 148.951 36.8869C142.657 36.8869 137.555 31.7847 137.555 25.4909C137.555 19.197 142.657 14.0948 148.951 14.0948C155.245 14.0948 160.347 19.197 160.347 25.4909ZM145.122 21.9122V30.2559H147.779V21.9122H145.122ZM145.492 20.5705C145.76 20.8168 146.08 20.9399 146.453 20.9399C146.83 20.9399 147.15 20.8168 147.415 20.5705C147.683 20.3206 147.817 20.0201 147.817 19.6688C147.817 19.3211 147.683 19.0242 147.415 18.7779C147.15 18.5281 146.83 18.4031 146.453 18.4031C146.08 18.4031 145.76 18.5281 145.492 18.7779C145.224 19.0242 145.09 19.3211 145.09 19.6688C145.09 20.0201 145.224 20.3206 145.492 20.5705ZM140.951 30.0006C141.229 30.2758 141.564 30.4134 141.956 30.4134C142.205 30.4134 142.435 30.3501 142.645 30.2233C142.859 30.0966 143.031 29.9264 143.161 29.7127C143.295 29.499 143.364 29.2618 143.368 29.0011C143.364 28.6172 143.219 28.2895 142.933 28.0179C142.651 27.7427 142.325 27.6051 141.956 27.6051C141.564 27.6051 141.229 27.7427 140.951 28.0179C140.675 28.2895 140.54 28.6172 140.543 29.0011C140.54 29.3922 140.675 29.7254 140.951 30.0006ZM153.364 30.4134C152.488 30.4134 151.735 30.2342 151.104 29.8757C150.478 29.5135 149.995 29.0102 149.654 28.3656C149.317 27.7173 149.149 26.9659 149.149 26.1112C149.149 25.253 149.317 24.5015 149.654 23.8569C149.995 23.2087 150.478 22.7053 151.104 22.3468C151.735 21.9847 152.488 21.8036 153.364 21.8036C154.241 21.8036 154.992 21.9847 155.619 22.3468C156.249 22.7053 156.732 23.2087 157.069 23.8569C157.409 24.5015 157.58 25.253 157.58 26.1112C157.58 26.9659 157.409 27.7173 157.069 28.3656C156.732 29.0102 156.249 29.5135 155.619 29.8757C154.992 30.2342 154.241 30.4134 153.364 30.4134ZM153.381 28.409C153.699 28.409 153.969 28.3112 154.19 28.1157C154.411 27.9201 154.579 27.6485 154.695 27.3009C154.815 26.9532 154.874 26.5512 154.874 26.0949C154.874 25.6314 154.815 25.2258 154.695 24.8782C154.579 24.5305 154.411 24.2589 154.19 24.0633C153.969 23.8678 153.699 23.77 153.381 23.77C153.051 23.77 152.772 23.8678 152.544 24.0633C152.319 24.2589 152.147 24.5305 152.028 24.8782C151.912 25.2258 151.854 25.6314 151.854 26.0949C151.854 26.5512 151.912 26.9532 152.028 27.3009C152.147 27.6485 152.319 27.9201 152.544 28.1157C152.772 28.3112 153.051 28.409 153.381 28.409Z" fill="white"/>
</svg>
