<svg width="374" height="76" viewBox="0 0 374 76" fill="none" xmlns="http://www.w3.org/2000/svg">
<g clip-path="url(#clip0_254243_5666)">
<path d="M66.0957 11.2819L46.5118 0L37.5127 5.18245L28.5135 0L8.94351 11.2819V21.5773L0 26.7181V49.268L8.94351 54.4088V64.7181L28.5274 76L37.5266 70.8176L46.5257 76L66.1096 64.7181V54.4088L75.0531 49.268V26.7181L66.1096 21.5773V11.2819H66.0957ZM55.3162 18.1733C55.8169 18.1733 56.2203 18.5762 56.2203 19.0625C56.2203 19.5488 55.8169 19.9517 55.3162 19.9517C54.8155 19.9517 54.4121 19.5488 54.4121 19.0625C54.4121 18.5762 54.8155 18.1733 55.3162 18.1733ZM19.723 18.1733C20.2237 18.1733 20.6271 18.5762 20.6271 19.0625C20.6271 19.5488 20.2237 19.9517 19.723 19.9517C19.2223 19.9517 18.8189 19.5488 18.8189 19.0625C18.8189 18.5762 19.2223 18.1733 19.723 18.1733ZM19.723 57.8267C19.2223 57.8267 18.8189 57.4238 18.8189 56.9375C18.8189 56.4512 19.2223 56.0483 19.723 56.0483C20.2237 56.0483 20.6271 56.4512 20.6271 56.9375C20.6271 57.4238 20.2237 57.8267 19.723 57.8267ZM36.1774 68.6362L28.5274 73.0545L21.0165 68.7196V59.1744C21.7955 58.7298 22.3379 57.8962 22.3379 56.9375C22.3379 55.5064 21.1695 54.3393 19.7369 54.3393C18.3043 54.3393 17.1359 55.5064 17.1359 56.9375C17.1359 57.8962 17.6645 58.7298 18.4573 59.1744V67.2468L11.5167 63.2592V54.506L19.6952 49.8238L27.3869 54.2559V63.162C26.6219 63.6066 26.1073 64.4402 26.1073 65.385C26.1073 66.8161 27.2756 67.9832 28.7082 67.9832C30.1409 67.9832 31.3092 66.8161 31.3092 65.385C31.3092 64.4124 30.7668 63.5649 29.9601 63.1342V52.7832L21.0861 47.6702V40.2091C21.8233 39.7506 22.324 38.9448 22.324 38.0139C22.324 36.5828 21.1556 35.4157 19.723 35.4157C18.2904 35.4157 17.122 36.5828 17.122 38.0139C17.122 39.0143 17.6923 39.8618 18.5129 40.2925V47.5313L10.2788 52.2413L2.55926 47.7952V39.9174L8.19242 43.1408C8.19242 44.0439 8.65142 44.9192 9.48596 45.3916C10.7239 46.1141 12.3234 45.6834 13.0328 44.4468C13.756 43.2102 13.3249 41.6263 12.0869 40.9038C11.2524 40.4175 10.2649 40.4731 9.48596 40.9177L2.57317 36.958V28.1909L10.1953 23.8004L16.969 27.6768L12.0174 30.525C11.6558 30.3305 11.2524 30.2194 10.8073 30.2194C9.37469 30.2194 8.20633 31.3865 8.20633 32.8176C8.20633 34.2486 9.37469 35.4157 10.8073 35.4157C12.2399 35.4157 13.4083 34.2486 13.4083 32.8176C13.4083 32.7759 13.4083 32.7342 13.4083 32.6925L29.9044 23.2168V12.9075C30.739 12.4768 31.3092 11.6154 31.3092 10.615C31.3092 9.18391 30.1409 8.01682 28.7082 8.01682C27.2756 8.01682 26.1073 9.18391 26.1073 10.615C26.1073 11.5459 26.5941 12.3517 27.3312 12.8102V21.7441L19.5561 26.2179L11.5167 21.619V12.7547L18.4573 8.76709V16.8256C17.6784 17.2702 17.1359 18.1038 17.1359 19.0625C17.1359 20.4936 18.3043 21.6607 19.7369 21.6607C21.1695 21.6607 22.3379 20.4936 22.3379 19.0625C22.3379 18.1038 21.8094 17.2702 21.0165 16.8256V7.29433L28.5274 2.95941L36.1774 7.3777V26.996L27.373 32.1506V43.8355L36.233 48.9484L36.1774 68.6501V68.6362ZM18.8189 38C18.8189 37.4998 19.2223 37.1108 19.723 37.1108C20.2237 37.1108 20.6271 37.5137 20.6271 38C20.6271 38.4863 20.2237 38.8892 19.723 38.8892C19.2223 38.8892 18.8189 38.4863 18.8189 38ZM27.7902 65.3711C27.7902 64.8709 28.1936 64.4819 28.6943 64.4819C29.1951 64.4819 29.5984 64.8848 29.5984 65.3711C29.5984 65.8574 29.1951 66.2603 28.6943 66.2603C28.1936 66.2603 27.7902 65.8574 27.7902 65.3711ZM10.0006 42.6962C10.251 42.2654 10.7934 42.1265 11.2246 42.3627C11.6558 42.6128 11.7949 43.1547 11.5584 43.5854C11.308 44.0161 10.7656 44.155 10.3344 43.9188C9.90323 43.6687 9.76414 43.1269 10.0006 42.6962ZM11.7114 32.8176C11.7114 33.3177 11.308 33.7068 10.8073 33.7068C10.3066 33.7068 9.90323 33.3038 9.90323 32.8176C9.90323 32.3313 10.3066 31.9283 10.8073 31.9283C11.308 31.9283 11.7114 32.3313 11.7114 32.8176ZM27.8042 10.615C27.8042 10.1148 28.2075 9.72578 28.7082 9.72578C29.209 9.72578 29.6123 10.1287 29.6123 10.615C29.6123 11.1013 29.209 11.5042 28.7082 11.5042C28.2075 11.5042 27.8042 11.1013 27.8042 10.615ZM29.9322 42.3488V33.6095L37.5127 29.1773L45.0931 33.6095V42.3488L37.5127 46.7254L29.9322 42.3488ZM55.3162 57.8267C54.8155 57.8267 54.4121 57.4238 54.4121 56.9375C54.4121 56.4512 54.8155 56.0483 55.3162 56.0483C55.8169 56.0483 56.2203 56.4512 56.2203 56.9375C56.2203 57.4238 55.8169 57.8267 55.3162 57.8267ZM72.48 28.2048V36.9718L65.5672 40.9316C64.7883 40.4731 63.8007 40.4314 62.9662 40.9177C61.7283 41.6402 61.2971 43.2241 62.0204 44.4607C62.7436 45.6973 64.3293 46.128 65.5672 45.4055C66.4017 44.9192 66.8607 44.0439 66.8607 43.1547L72.4939 39.9313V47.8091L64.7744 52.2552L56.5402 47.5452V40.3064C57.3609 39.8757 57.9311 39.0143 57.9311 38.0278C57.9311 36.5967 56.7628 35.4296 55.3301 35.4296C53.8975 35.4296 52.7291 36.5967 52.7291 38.0278C52.7291 38.9587 53.2299 39.7645 53.967 40.223V47.6841L45.0931 52.7971V63.1481C44.3003 63.5927 43.7439 64.4263 43.7439 65.3989C43.7439 66.83 44.9123 67.9971 46.3449 67.9971C47.7775 67.9971 48.9459 66.83 48.9459 65.3989C48.9459 64.4541 48.4313 63.6205 47.6663 63.1759V54.2698L55.3579 49.8377L63.5365 54.5199V63.2731L56.5959 67.2607V59.1883C57.3748 58.7437 57.9172 57.9101 57.9172 56.9514C57.9172 55.5203 56.7489 54.3532 55.3162 54.3532C53.8836 54.3532 52.7152 55.5203 52.7152 56.9514C52.7152 57.9101 53.2438 58.7437 54.0366 59.1883V68.7473L46.5257 73.0823L38.8757 68.664L38.8201 48.9623L47.6802 43.8494V32.1645L38.8757 27.0099V7.3638L46.5257 2.94552L54.0366 7.28044V16.8117C53.2577 17.2563 52.7152 18.0899 52.7152 19.0486C52.7152 20.4797 53.8836 21.6468 55.3162 21.6468C56.7489 21.6468 57.9172 20.4797 57.9172 19.0486C57.9172 18.0899 57.3887 17.2563 56.5959 16.8117V8.7532L63.5365 12.7547V21.619L55.497 26.2179L47.7219 21.7441V12.8102C48.4591 12.3517 48.9459 11.5459 48.9459 10.615C48.9459 9.18391 47.7775 8.01682 46.3449 8.01682C44.9123 8.01682 43.7439 9.18391 43.7439 10.615C43.7439 11.6154 44.3142 12.4768 45.1487 12.9075V23.2168L61.6448 32.6925C61.6448 32.6925 61.6448 32.7759 61.6448 32.8176C61.6448 34.2486 62.8132 35.4157 64.2458 35.4157C65.6785 35.4157 66.8468 34.2486 66.8468 32.8176C66.8468 31.3865 65.6785 30.2194 64.2458 30.2194C63.8146 30.2194 63.3974 30.3444 63.0357 30.525L58.0841 27.6768L64.8578 23.8004L72.48 28.1909V28.2048ZM64.7187 43.9188C64.2875 44.1689 63.7451 44.0161 63.4947 43.5854C63.2444 43.1547 63.3974 42.6128 63.8285 42.3627C64.2597 42.1126 64.8022 42.2654 65.0525 42.6962C65.3029 43.1269 65.1499 43.6687 64.7187 43.9188ZM56.2203 38C56.2203 38.5002 55.8169 38.8892 55.3162 38.8892C54.8155 38.8892 54.4121 38.4863 54.4121 38C54.4121 37.5137 54.8155 37.1108 55.3162 37.1108C55.8169 37.1108 56.2203 37.5137 56.2203 38ZM47.249 65.3711C47.249 65.8713 46.8456 66.2603 46.3449 66.2603C45.8442 66.2603 45.4408 65.8574 45.4408 65.3711C45.4408 64.8848 45.8442 64.4819 46.3449 64.4819C46.8456 64.4819 47.249 64.8848 47.249 65.3711ZM47.249 10.615C47.249 11.1152 46.8456 11.5042 46.3449 11.5042C45.8442 11.5042 45.4408 11.1013 45.4408 10.615C45.4408 10.1287 45.8442 9.72578 46.3449 9.72578C46.8456 9.72578 47.249 10.1287 47.249 10.615ZM63.3417 32.8176C63.3417 32.3174 63.7451 31.9283 64.2458 31.9283C64.7465 31.9283 65.1499 32.3313 65.1499 32.8176C65.1499 33.3038 64.7465 33.7068 64.2458 33.7068C63.7451 33.7068 63.3417 33.3038 63.3417 32.8176Z" fill="url(#paint0_linear_254243_5666)"/>
<path d="M112.872 33.3178C109.631 30.942 106.251 30.0389 101.898 30.0389C97.1407 30.0389 96.0836 31.0948 96.0836 32.3175C96.0836 33.5401 97.2937 33.6791 98.9628 33.8875L107.1 34.7906C113.261 35.5409 117.058 38.0279 117.058 43.4326C117.058 49.8517 110.688 52.7277 102.301 52.7277C96.487 52.7277 92.1334 51.4634 87.5435 47.976L91.0346 42.2239C94.8318 44.9054 98.6707 46.267 102.969 46.267C106.807 46.267 109.84 45.4056 109.84 43.5438C109.84 42.5851 109.589 42.0849 107.823 41.9321L98.2117 40.8206C92.3003 40.112 88.7535 37.7917 88.7535 32.3869C88.7535 26.2736 94.6649 23.4531 101.898 23.4531C107.253 23.4531 112.009 24.4674 116.46 27.8992L112.872 33.3595V33.3178Z" fill="white"/>
<path d="M127.866 24.0784V33.9292H134.445L141.163 24.0784H149.759L140.76 37.0137L150.371 52.0191H141.525L134.654 40.7511H127.88V52.0191H120.494V24.0923H127.88L127.866 24.0784Z" fill="white"/>
<path d="M161.331 24.0784V52.0052H153.903V24.0784H161.331Z" fill="white"/>
<path d="M172.583 24.0784V45.2945H191.04V52.0052H165.156V24.0784H172.583Z" fill="white"/>
<path d="M202.195 24.0784V45.2945H220.653V52.0052H194.768V24.0784H202.195Z" fill="white"/>
<path d="M224.311 24.0783H250.349V30.7891H231.738V35.0824H248.123V41.7932H231.738V51.9913H224.311V24.0645V24.0783Z" fill="white"/>
<path d="M261.323 24.0784V38.3753C261.323 43.3215 263.493 46.1976 268.305 46.1976C273.118 46.1976 275.232 43.3215 275.232 38.3753V24.0784H282.715V38.3197C282.715 47.5592 277.096 52.7138 268.305 52.7138C259.515 52.7138 253.896 47.5592 253.896 38.3197V24.0784H261.323Z" fill="white"/>
<path d="M293.995 24.0784V45.2945H312.453V52.0052H286.568V24.0784H293.995Z" fill="white"/>
<path d="M350.953 24.0784L362.831 52.0052H354.945L353.178 47.9204H337.711L335.987 52.0052H328.003L340.132 24.0784H350.953ZM340.438 41.4458H350.299L346.057 30.6919H344.888L340.438 41.4458Z" fill="white"/>
<path d="M374 24.0784V52.0052H366.573V24.0784H374Z" fill="white"/>
</g>
<defs>
<linearGradient id="paint0_linear_254243_5666" x1="9.84759" y1="10.3649" x2="65.1178" y2="65.695" gradientUnits="userSpaceOnUse">
<stop stop-color="#FBB315"/>
<stop offset="0.3" stop-color="#F05F47"/>
<stop offset="0.6" stop-color="#DE3593"/>
<stop offset="1" stop-color="#9D4F9D"/>
</linearGradient>
<clipPath id="clip0_254243_5666">
<rect width="374" height="76" fill="white"/>
</clipPath>
</defs>
</svg>
