<?xml version="1.0" encoding="utf-8"?>
<!-- Generator: Adobe Illustrator 23.0.2, SVG Export Plug-In . SVG Version: 6.00 Build 0)  -->
<svg version="1.1" id="Layer_1" xmlns="http://www.w3.org/2000/svg" xmlns:xlink="http://www.w3.org/1999/xlink" x="0px" y="0px"
	 viewBox="0 0 200 50" style="enable-background:new 0 0 200 50;" xml:space="preserve">
<style type="text/css">
	.st0{fill:#FFFFFF;}
	.st1{fill:url(#SVGID_1_);}
</style>
<g transform="matrix(3.6999999999999993,0,0,3.6999999999999993,111.64914129972459,124.48849481344223)">
	<path class="st0" d="M-5.09-23.56L-5.09-23.56c0.07,0.12,0.11,0.24,0.11,0.36l0,0l0,0c0,0.14-0.05,0.26-0.15,0.35l0,0l0,0
		c-0.1,0.1-0.23,0.15-0.39,0.15l0,0l0,0c-0.21,0-0.37-0.09-0.49-0.27l0,0l-1.86-2.97h-0.19h-1.38v2.69l0,0
		c0,0.15-0.05,0.29-0.16,0.39l0,0l0,0c-0.1,0.11-0.24,0.16-0.4,0.16l0,0l0,0c-0.16,0-0.29-0.05-0.4-0.16l0,0l0,0
		c-0.11-0.11-0.16-0.24-0.16-0.39l0,0v-7.3l0,0c0-0.16,0.05-0.3,0.16-0.41l0,0l0,0c0.11-0.1,0.24-0.15,0.4-0.15l0,0h1.94l0,0
		c0.53,0,1,0.11,1.43,0.33l0,0l0,0c0.42,0.23,0.75,0.54,0.99,0.94l0,0l0,0c0.23,0.41,0.35,0.87,0.35,1.38l0,0l0,0
		c0,0.51-0.13,0.97-0.39,1.36l0,0l0,0c-0.26,0.4-0.61,0.69-1.06,0.89l0,0L-5.09-23.56z M-9.44-26.98h1.38l0,0
		c0.49,0,0.89-0.14,1.21-0.42l0,0l0,0c0.31-0.28,0.47-0.64,0.47-1.08l0,0l0,0c0-0.47-0.16-0.86-0.47-1.16l0,0l0,0
		c-0.32-0.3-0.72-0.45-1.21-0.45l0,0h-1.38V-26.98z M-1.18-28.64L-1.18-28.64c0.55,0,1.06,0.13,1.5,0.39l0,0l0,0
		c0.45,0.26,0.81,0.62,1.07,1.08l0,0l0,0c0.26,0.46,0.39,0.97,0.39,1.53l0,0v2.4l0,0c0,0.16-0.05,0.29-0.15,0.39l0,0l0,0
		c-0.11,0.11-0.24,0.16-0.39,0.16l0,0l0,0c-0.16,0-0.29-0.05-0.39-0.16l0,0l0,0c-0.11-0.1-0.16-0.23-0.16-0.39l0,0v-0.39l0,0
		c-0.25,0.31-0.56,0.55-0.92,0.72l0,0l0,0c-0.36,0.17-0.75,0.26-1.16,0.26l0,0l0,0c-0.52,0-0.99-0.13-1.41-0.39l0,0l0,0
		c-0.42-0.26-0.75-0.62-0.99-1.08l0,0l0,0c-0.24-0.46-0.36-0.97-0.36-1.53l0,0l0,0c0-0.56,0.13-1.07,0.39-1.53l0,0l0,0
		c0.26-0.46,0.61-0.82,1.07-1.08l0,0l0,0C-2.24-28.51-1.73-28.64-1.18-28.64L-1.18-28.64z M-1.18-23.63L-1.18-23.63
		c0.36,0,0.69-0.09,0.98-0.26l0,0l0,0c0.29-0.18,0.52-0.42,0.69-0.72l0,0l0,0c0.16-0.31,0.25-0.65,0.25-1.03l0,0l0,0
		c0-0.38-0.08-0.72-0.25-1.03l0,0l0,0c-0.17-0.31-0.4-0.55-0.69-0.73l0,0l0,0c-0.29-0.17-0.62-0.26-0.98-0.26l0,0l0,0
		c-0.36,0-0.69,0.09-0.98,0.26l0,0l0,0c-0.29,0.18-0.52,0.42-0.69,0.73l0,0l0,0c-0.17,0.31-0.25,0.65-0.25,1.03l0,0l0,0
		c0,0.38,0.08,0.72,0.25,1.03l0,0l0,0c0.17,0.3,0.4,0.54,0.69,0.72l0,0l0,0C-1.87-23.71-1.54-23.63-1.18-23.63L-1.18-23.63z
		 M7.34-23.71L7.34-23.71c0.34,0,0.51,0.17,0.51,0.51l0,0l0,0c0,0.33-0.17,0.5-0.51,0.5l0,0H3.67l0,0c-0.34,0-0.51-0.17-0.51-0.5
		l0,0l0,0c0-0.14,0.03-0.26,0.09-0.35l0,0l3.06-4.04H3.56l0,0c-0.34,0-0.51-0.17-0.51-0.51l0,0l0,0c0-0.33,0.17-0.5,0.51-0.5l0,0
		h3.67l0,0c0.34,0,0.51,0.17,0.51,0.5l0,0l0,0c0,0.14-0.03,0.26-0.1,0.35l0,0L4.6-23.71H7.34z M11.92-28.64L11.92-28.64
		c0.57,0,1.08,0.13,1.53,0.39l0,0l0,0c0.45,0.25,0.8,0.61,1.06,1.06l0,0l0,0c0.26,0.45,0.39,0.97,0.39,1.55l0,0l0,0
		c0,0.58-0.13,1.09-0.38,1.54l0,0l0,0c-0.25,0.46-0.6,0.81-1.05,1.06l0,0l0,0c-0.45,0.26-0.97,0.39-1.54,0.39l0,0l0,0
		c-0.58,0-1.09-0.13-1.54-0.39l0,0l0,0c-0.45-0.25-0.8-0.61-1.06-1.06l0,0l0,0c-0.25-0.45-0.38-0.97-0.38-1.54l0,0l0,0
		c0-0.58,0.13-1.1,0.38-1.55l0,0l0,0c0.25-0.46,0.6-0.81,1.06-1.06l0,0l0,0C10.83-28.51,11.35-28.64,11.92-28.64L11.92-28.64z
		 M11.92-27.67L11.92-27.67c-0.36,0-0.69,0.09-0.99,0.26l0,0l0,0c-0.29,0.17-0.52,0.41-0.69,0.72l0,0l0,0
		c-0.16,0.31-0.25,0.66-0.25,1.05l0,0l0,0c0,0.39,0.08,0.74,0.25,1.04l0,0l0,0c0.16,0.31,0.39,0.55,0.69,0.72l0,0l0,0
		c0.29,0.17,0.62,0.26,0.99,0.26l0,0l0,0c0.36,0,0.69-0.09,0.99-0.26l0,0l0,0c0.29-0.17,0.52-0.41,0.68-0.72l0,0l0,0
		c0.16-0.3,0.25-0.65,0.25-1.04l0,0l0,0c0-0.39-0.08-0.73-0.25-1.05l0,0l0,0c-0.16-0.31-0.39-0.55-0.68-0.72l0,0l0,0
		C12.62-27.58,12.29-27.67,11.92-27.67L11.92-27.67z M19.42-28.66L19.42-28.66c0.38,0,0.68,0.06,0.89,0.18l0,0l0,0
		c0.22,0.11,0.32,0.26,0.32,0.43l0,0l0,0c0,0.05,0,0.08-0.01,0.11l0,0l0,0c-0.07,0.23-0.21,0.34-0.43,0.34l0,0l0,0
		c-0.04,0-0.09-0.01-0.16-0.02l0,0l0,0c-0.29-0.05-0.52-0.08-0.7-0.08l0,0l0,0c-0.52,0-0.94,0.12-1.26,0.35l0,0l0,0
		c-0.31,0.24-0.47,0.56-0.47,0.96l0,0v3.14l0,0c0,0.17-0.05,0.31-0.14,0.4l0,0l0,0c-0.09,0.09-0.22,0.14-0.4,0.14l0,0l0,0
		c-0.17,0-0.31-0.04-0.4-0.13l0,0l0,0c-0.09-0.09-0.14-0.23-0.14-0.41l0,0v-4.81l0,0c0-0.17,0.05-0.31,0.14-0.4l0,0l0,0
		c0.09-0.09,0.23-0.14,0.4-0.14l0,0l0,0c0.36,0,0.54,0.18,0.54,0.54l0,0v0.2l0,0c0.22-0.25,0.48-0.45,0.79-0.59l0,0l0,0
		C18.72-28.59,19.06-28.66,19.42-28.66L19.42-28.66z"/>
</g>
<g transform="matrix(0.24099451749619716,0,0,0.24099451749619716,31.98678390219738,113.25906226107831)">
	
		<linearGradient id="SVGID_1_" gradientUnits="userSpaceOnUse" x1="-964.4448" y1="1270.2437" x2="-963.6745" y2="1270.2437" gradientTransform="matrix(52.1202 25.7774 24.3041 -55.2798 19296.4277 94658.7266)">
		<stop  offset="0" style="stop-color:#006678"/>
		<stop  offset="1" style="stop-color:#4FA8FF"/>
	</linearGradient>
	<path class="st1" d="M-71.42-399.63c-4.61,0-8.35,3.74-8.35,8.36v50.13c0,4.61,3.74,8.35,8.35,8.35c0,0,0,0,0,0
		c4.61,0,8.35-3.74,8.36-8.35c0,0,0,0,0,0v-50.13C-63.07-395.89-66.81-399.63-71.42-399.63z M-43.57-435.83
		c-4.61,0-8.35,3.74-8.35,8.35c0,0,0,0,0,0v122.54c0,4.61,3.74,8.35,8.35,8.35c0,0,0,0,0,0c4.61,0,8.35-3.74,8.36-8.35c0,0,0,0,0,0
		v-122.54C-35.21-432.09-38.95-435.83-43.57-435.83z M-15.72-463.69c-4.62,0-8.36,3.74-8.36,8.36l0,0v178.25
		c0,4.62,3.74,8.36,8.36,8.36c4.62,0,8.36-3.74,8.36-8.36v-178.25C-7.36-459.94-11.1-463.68-15.72-463.69z M12.13-414.94
		c-4.61,0-8.35,3.74-8.36,8.35v80.77c0,4.61,3.74,8.36,8.36,8.36c4.61,0,8.36-3.74,8.36-8.36v-80.77
		C20.49-411.2,16.75-414.94,12.13-414.94z M39.98-463.69c-4.61,0-8.35,3.74-8.35,8.36v178.25c0,4.61,3.74,8.35,8.36,8.35
		c4.61,0,8.35-3.74,8.35-8.35v-178.25C48.34-459.94,44.6-463.68,39.98-463.69C39.98-463.69,39.98-463.69,39.98-463.69z
		 M67.84-421.91c-4.61,0-8.35,3.74-8.35,8.36v94.69c-0.11,4.61,3.54,8.44,8.16,8.55c4.61,0.11,8.44-3.54,8.55-8.16
		c0-0.13,0-0.26,0-0.39v-94.69C76.19-418.17,72.45-421.91,67.84-421.91z M95.69-398.24c-4.61,0-8.35,3.74-8.36,8.36v47.35
		c0.08,4.61,3.88,8.29,8.49,8.22c4.51-0.08,8.14-3.71,8.22-8.22v-47.35C104.04-394.49,100.3-398.23,95.69-398.24z"/>
</g>
</svg>
