<svg data-v-1084b650="" xmlns="http://www.w3.org/2000/svg" viewBox="0 0 300 300"><!----> <!----> <rect data-v-1084b650="" fill="#ffffff" x="0" y="0" width="300px" height="300px" class="logo-background-square"></rect> <!----> <g data-v-1084b650="" id="faa29120-f2f5-c01a-d924-a08b7e01bea7" fill="#000000" transform="matrix(5.499999999999998,0,0,5.499999999999998,30.92500621080403,181.58925873041153)"><path d="M8.50 11.21L8.50 11.21Q8.64 11.44 8.64 11.68L8.64 11.68L8.64 11.68Q8.64 11.96 8.45 12.14L8.45 12.14L8.45 12.14Q8.26 12.33 7.94 12.33L7.94 12.33L7.94 12.33Q7.53 12.33 7.31 11.98L7.31 11.98L4.90 8.12L4.65 8.12L2.86 8.12L2.86 11.61L2.86 11.61Q2.86 11.91 2.65 12.12L2.65 12.12L2.65 12.12Q2.45 12.33 2.13 12.33L2.13 12.33L2.13 12.33Q1.82 12.33 1.61 12.12L1.61 12.12L1.61 12.12Q1.40 11.91 1.40 11.61L1.40 11.61L1.40 2.13L1.40 2.13Q1.40 1.81 1.61 1.60L1.61 1.60L1.61 1.60Q1.82 1.40 2.13 1.40L2.13 1.40L4.65 1.40L4.65 1.40Q5.68 1.40 6.50 1.83L6.50 1.83L6.50 1.83Q7.32 2.27 7.78 3.05L7.78 3.05L7.78 3.05Q8.23 3.84 8.23 4.84L8.23 4.84L8.23 4.84Q8.23 5.84 7.73 6.61L7.73 6.61L7.73 6.61Q7.22 7.38 6.36 7.77L6.36 7.77L8.50 11.21ZM2.86 6.78L4.65 6.78L4.65 6.78Q5.60 6.78 6.22 6.24L6.22 6.24L6.22 6.24Q6.83 5.70 6.83 4.84L6.83 4.84L6.83 4.84Q6.83 3.92 6.22 3.33L6.22 3.33L6.22 3.33Q5.60 2.74 4.65 2.74L4.65 2.74L2.86 2.74L2.86 6.78ZM13.58 4.62L13.58 4.62Q14.66 4.62 15.53 5.13L15.53 5.13L15.53 5.13Q16.41 5.64 16.92 6.53L16.92 6.53L16.92 6.53Q17.43 7.42 17.43 8.51L17.43 8.51L17.43 11.63L17.43 11.63Q17.43 11.94 17.23 12.14L17.23 12.14L17.23 12.14Q17.02 12.35 16.72 12.35L16.72 12.35L16.72 12.35Q16.41 12.35 16.21 12.14L16.21 12.14L16.21 12.14Q16.00 11.94 16.00 11.63L16.00 11.63L16.00 11.12L16.00 11.12Q15.51 11.72 14.81 12.05L14.81 12.05L14.81 12.05Q14.11 12.39 13.30 12.39L13.30 12.39L13.30 12.39Q12.29 12.39 11.47 11.89L11.47 11.89L11.47 11.89Q10.65 11.38 10.19 10.49L10.19 10.49L10.19 10.49Q9.72 9.60 9.72 8.51L9.72 8.51L9.72 8.51Q9.72 7.42 10.22 6.53L10.22 6.53L10.22 6.53Q10.72 5.64 11.61 5.13L11.61 5.13L11.61 5.13Q12.50 4.62 13.58 4.62L13.58 4.62ZM13.58 11.13L13.58 11.13Q14.28 11.13 14.85 10.79L14.85 10.79L14.85 10.79Q15.41 10.44 15.74 9.85L15.74 9.85L15.74 9.85Q16.06 9.25 16.06 8.51L16.06 8.51L16.06 8.51Q16.06 7.77 15.74 7.17L15.74 7.17L15.74 7.17Q15.41 6.57 14.85 6.22L14.85 6.22L14.85 6.22Q14.28 5.88 13.58 5.88L13.58 5.88L13.58 5.88Q12.88 5.88 12.31 6.22L12.31 6.22L12.31 6.22Q11.75 6.57 11.42 7.17L11.42 7.17L11.42 7.17Q11.09 7.77 11.09 8.51L11.09 8.51L11.09 8.51Q11.09 9.25 11.42 9.85L11.42 9.85L11.42 9.85Q11.75 10.44 12.31 10.79L12.31 10.79L12.31 10.79Q12.88 11.13 13.58 11.13L13.58 11.13ZM24.64 11.02L24.64 11.02Q25.30 11.02 25.30 11.68L25.30 11.68L25.30 11.68Q25.30 12.33 24.64 12.33L24.64 12.33L19.87 12.33L19.87 12.33Q19.21 12.33 19.21 11.68L19.21 11.68L19.21 11.68Q19.21 11.40 19.33 11.23L19.33 11.23L23.30 5.99L19.73 5.99L19.73 5.99Q19.07 5.99 19.07 5.33L19.07 5.33L19.07 5.33Q19.07 4.68 19.73 4.68L19.73 4.68L24.50 4.68L24.50 4.68Q25.16 4.68 25.16 5.33L25.16 5.33L25.16 5.33Q25.16 5.61 25.03 5.78L25.03 5.78L21.08 11.02L24.64 11.02ZM30.59 4.62L30.59 4.62Q31.70 4.62 32.57 5.12L32.57 5.12L32.57 5.12Q33.45 5.61 33.94 6.50L33.94 6.50L33.94 6.50Q34.44 7.38 34.44 8.51L34.44 8.51L34.44 8.51Q34.44 9.63 33.95 10.51L33.95 10.51L33.95 10.51Q33.46 11.40 32.59 11.89L32.59 11.89L32.59 11.89Q31.71 12.39 30.59 12.39L30.59 12.39L30.59 12.39Q29.47 12.39 28.59 11.89L28.59 11.89L28.59 11.89Q27.71 11.40 27.22 10.51L27.22 10.51L27.22 10.51Q26.73 9.63 26.73 8.51L26.73 8.51L26.73 8.51Q26.73 7.38 27.22 6.50L27.22 6.50L27.22 6.50Q27.71 5.61 28.59 5.12L28.59 5.12L28.59 5.12Q29.47 4.62 30.59 4.62L30.59 4.62ZM30.59 5.88L30.59 5.88Q29.88 5.88 29.31 6.22L29.31 6.22L29.31 6.22Q28.74 6.55 28.42 7.15L28.42 7.15L28.42 7.15Q28.10 7.76 28.10 8.51L28.10 8.51L28.10 8.51Q28.10 9.27 28.42 9.86L28.42 9.86L28.42 9.86Q28.74 10.46 29.31 10.79L29.31 10.79L29.31 10.79Q29.88 11.13 30.59 11.13L30.59 11.13L30.59 11.13Q31.30 11.13 31.87 10.79L31.87 10.79L31.87 10.79Q32.44 10.46 32.75 9.86L32.75 9.86L32.75 9.86Q33.07 9.27 33.07 8.51L33.07 8.51L33.07 8.51Q33.07 7.76 32.75 7.15L32.75 7.15L32.75 7.15Q32.44 6.55 31.87 6.22L31.87 6.22L31.87 6.22Q31.30 5.88 30.59 5.88L30.59 5.88ZM40.32 4.59L40.32 4.59Q41.06 4.59 41.48 4.82L41.48 4.82L41.48 4.82Q41.90 5.04 41.90 5.38L41.90 5.38L41.90 5.38Q41.90 5.47 41.89 5.52L41.89 5.52L41.89 5.52Q41.76 5.96 41.33 5.96L41.33 5.96L41.33 5.96Q41.26 5.96 41.12 5.94L41.12 5.94L41.12 5.94Q40.56 5.84 40.21 5.84L40.21 5.84L40.21 5.84Q39.20 5.84 38.58 6.30L38.58 6.30L38.58 6.30Q37.97 6.76 37.97 7.55L37.97 7.55L37.97 11.63L37.97 11.63Q37.97 11.97 37.79 12.15L37.79 12.15L37.79 12.15Q37.62 12.33 37.27 12.33L37.27 12.33L37.27 12.33Q36.93 12.33 36.75 12.16L36.75 12.16L36.75 12.16Q36.57 11.98 36.57 11.63L36.57 11.63L36.57 5.38L36.57 5.38Q36.57 5.04 36.75 4.86L36.75 4.86L36.75 4.86Q36.93 4.68 37.27 4.68L37.27 4.68L37.27 4.68Q37.97 4.68 37.97 5.38L37.97 5.38L37.97 5.64L37.97 5.64Q38.39 5.15 39.00 4.87L39.00 4.87L39.00 4.87Q39.62 4.59 40.32 4.59L40.32 4.59Z"></path></g> <linearGradient data-v-1084b650="" gradientTransform="rotate(25)" id="1313f40c-5304-4d97-d664-34265399adab" x1="0%" y1="0%" x2="100%" y2="0%"><stop data-v-1084b650="" offset="0%" style="stop-color: rgb(0, 102, 120); stop-opacity: 1;"></stop> <stop data-v-1084b650="" offset="100%" style="stop-color: rgb(79, 168, 255); stop-opacity: 1;"></stop></linearGradient> <g data-v-1084b650="" id="3b4cdf5d-9a13-084e-a820-fe06e75b48f8" fill="url(#1313f40c-5304-4d97-d664-34265399adab)" stroke="none" transform="matrix(0.47764679143390404,0,0,0.47764679143390404,77.92753911874718,40.34636218512547)"><svg xmlns="http://www.w3.org/2000/svg" viewBox="0 0 100 100"><path d="M13.572 36.355a3.616 3.616 0 0 0-3.615 3.616v21.694a3.614 3.614 0 0 0 3.615 3.615 3.615 3.615 0 0 0 3.616-3.615V39.971a3.617 3.617 0 0 0-3.616-3.616zm12.053-15.667a3.615 3.615 0 0 0-3.615 3.616v53.029a3.614 3.614 0 0 0 3.615 3.615 3.615 3.615 0 0 0 3.616-3.615V24.304a3.617 3.617 0 0 0-3.616-3.616zM37.677 8.636a3.616 3.616 0 0 0-3.616 3.616v77.133a3.615 3.615 0 0 0 7.232 0V12.252a3.617 3.617 0 0 0-3.616-3.616zm12.052 21.092a3.616 3.616 0 0 0-3.616 3.615v34.951a3.615 3.615 0 0 0 7.231 0V33.343a3.616 3.616 0 0 0-3.615-3.615zM61.78 8.636a3.616 3.616 0 0 0-3.615 3.616v77.133a3.615 3.615 0 0 0 7.23 0V12.252a3.615 3.615 0 0 0-3.615-3.616zm12.053 18.078a3.616 3.616 0 0 0-3.615 3.616v40.976a3.616 3.616 0 1 0 7.23 0V30.33a3.617 3.617 0 0 0-3.615-3.616zm12.052 10.244a3.617 3.617 0 0 0-3.616 3.616v20.489a3.616 3.616 0 0 0 7.231-.001V40.574a3.617 3.617 0 0 0-3.615-3.616z"></path></svg></g></svg>