<svg width="96" height="96" viewBox="0 0 96 96" fill="none" xmlns="http://www.w3.org/2000/svg">
<path d="M23.0157 14.7044L48.4908 0L73.966 14.7044L64.6 20.1366L48.4908 10.8644L32.3816 20.1366L23.0157 14.7044ZM73.966 33.2488L64.6 27.8166L48.4908 37.0888L32.3816 27.8166L23.0157 33.2488V44.1132L39.1249 53.3852V71.9296L48.4908 77.362L57.8568 71.9296V53.3852L73.966 44.1132V33.2488ZM73.966 62.6576V51.7932L64.6 57.2252V68.0896L73.966 62.6576ZM80.6156 66.4976L64.5064 75.7696V86.634L89.9816 71.9296V42.5208L80.6156 47.9532V66.4976ZM71.25 23.9766L80.6156 29.4088V40.2732L89.9816 34.841V23.9766L80.6156 18.5444L71.25 23.9766ZM39.1249 79.7036V90.568L48.4908 96L57.8568 90.568V79.7036L48.4908 85.1356L39.1249 79.7036ZM23.0157 62.6576L32.3816 68.0896V57.2252L23.0157 51.7932V62.6576ZM39.1249 23.9766L48.4908 29.4088L57.8568 23.9766L48.4908 18.5444L39.1249 23.9766ZM16.3658 29.4088L25.7317 23.9766L16.3658 18.5444L7 23.9766V34.841L16.3658 40.2732V29.4088ZM16.3658 47.9532L7 42.5208V71.9296L32.4751 86.634V75.7696L16.3658 66.4976V47.9532Z" fill="#181A1E"/>
</svg>
