<svg xmlns="http://www.w3.org/2000/svg" width="1024" height="1024" fill="none"><path fill="#FF0421" d="M0 0h1024v1024H0z"/><path fill="#FAFAF9" d="M512.337 60c196.772 0 356.337 159.564 356.337 356.336 0 196.774-159.565 356.34-356.337 356.34v191.296C315.563 963.972 156 804.406 156 607.635c0-196.774 159.563-356.337 356.337-356.337V60Zm-1.651 275.693c-38.71 77.719-96.924 135.931-174.643 174.641v3.303c77.719 38.709 135.933 96.921 174.643 174.64h3.302c38.707-77.719 96.922-135.931 174.641-174.64v-3.303c-77.719-38.71-135.934-96.922-174.641-174.641h-3.302Z"/></svg>