<svg id="Layer_1" data-name="Layer 1" xmlns="http://www.w3.org/2000/svg" fill="#ffffff" viewBox="0 0 300 81.54"><polygon points="125.48 36.4 138.65 16.49 149.53 16.49 133.47 40.77 150.4 65.05 139.08 65.05 125.48 45.14 125.48 36.4"/><polygon points="220.95 16.49 230.35 16.49 230.35 56.31 253.37 56.31 253.37 65.05 220.95 65.05 220.95 16.49"/><polygon points="267.05 16.49 267.05 65.05 299.75 65.05 299.75 56.31 276.44 56.31 276.44 25.23 299.75 25.23 299.75 16.49 267.05 16.49"/><rect x="110.95" y="16.49" width="9.39" height="48.56"/><rect x="281.24" y="36.4" width="8.97" height="8.74"/><polygon points="-0.25 0 -0.25 81.54 73.33 81.54 73.33 72.91 9.51 72.91 9.51 8.64 73.33 8.64 73.33 0 -0.25 0"/><path d="M191.47,51.72H174.26l-3.8,13.33h-9.81l15.44-48.56h13.75l15.51,48.56H195.26Zm-14.68-8.64h12l-5.1-18.34h-1.82Z"/><path d="M72.77,66c14.43,0,19.55-8.24,19.55-15.29,0-7.78-4.44-12.56-13.2-14.2L70,34.87c-2.9-.53-6.23-1.6-6.23-5.15C63.76,25.51,68,24,71.94,24c5.25,0,8.13,1.77,9,5.56h9.76c-1.16-8.67-8-14-18.66-14-12.65,0-18.31,7.3-18.31,14.54s4.3,11.8,12.43,13.24l9.34,1.64c3.35.62,6.78,1.84,6.78,6.26,0,3.9-3.51,6.32-9.14,6.32-6.41,0-10.22-2.44-11-7.07H52.39C53.51,60.2,60.86,66,72.77,66Z"/></svg>