<svg width="500" height="500" viewBox="0 0 500 500" fill="none" xmlns="http://www.w3.org/2000/svg">
<g clip-path="url(#clip0_277_64)">
<rect width="500" height="500" rx="110" fill="#0000FF"/>
<path d="M129 120V380H341.857V352.454H158.194V147.546H341.857V120H129Z" fill="white"/>
<path d="M340.226 330.497C383.6 330.497 399.004 304.246 399.004 281.86C399.004 256.884 385.623 241.836 359.268 236.656L331.708 231.496C322.781 229.77 313.056 226.336 313.056 215.133C313.056 201.792 325.62 197.044 337.795 197.044C353.608 197.044 362.126 202.636 364.966 214.702H394.16C390.504 187.156 369.829 169.93 338.203 169.93C300.101 169.93 283.064 193.179 283.064 216.428C283.064 239.678 296.037 253.882 320.368 258.611L348.337 263.771C358.47 265.929 368.604 269.794 368.604 283.567C368.604 296.045 358.062 303.795 341.043 303.795C321.983 303.795 310.234 296.045 307.803 281.409H278.609C282.266 311.976 304.555 330.497 340.226 330.497Z" fill="white"/>
</g>
<defs>
<clipPath id="clip0_277_64">
<rect width="500" height="500" fill="white"/>
</clipPath>
</defs>
</svg>
