<svg width="500" height="500" viewBox="0 0 500 500" fill="none" xmlns="http://www.w3.org/2000/svg">
<g clip-path="url(#clip0_283_310)">
<rect width="500" height="500" rx="130" fill="#B8A581"/>
<path d="M136 125V375.367H340.971V348.841H164.112V151.525H340.971V125H136Z" fill="white"/>
<path d="M339.397 327.7C381.163 327.7 395.996 302.422 395.996 280.865C395.996 256.815 383.111 242.324 357.733 237.336L331.193 232.367C322.597 230.705 313.232 227.399 313.232 216.611C313.232 203.764 325.332 199.192 337.055 199.192C352.282 199.192 360.485 204.576 363.22 216.195H391.332C387.811 189.67 367.902 173.082 337.449 173.082C300.758 173.082 284.352 195.47 284.352 217.858C284.352 240.246 296.844 253.924 320.274 258.477L347.206 263.446C356.964 265.524 366.722 269.246 366.722 282.509C366.722 294.525 356.571 301.987 340.183 301.987C321.829 301.987 310.516 294.525 308.175 280.431H280.062C283.583 309.866 305.047 327.7 339.397 327.7Z" fill="white"/>
</g>
<defs>
<clipPath id="clip0_283_310">
<rect width="500" height="500" fill="white"/>
</clipPath>
</defs>
</svg>
