<svg width="500" height="500" viewBox="0 0 500 500" fill="none" xmlns="http://www.w3.org/2000/svg">
<path d="M50 57V443H366.011V402.105H93.3416V97.8952H366.011V57H50Z" fill="white"/>
<path d="M363.571 369.51C427.964 369.51 450.833 330.537 450.833 297.302C450.833 260.223 430.967 237.882 391.841 230.192L350.924 222.532C337.671 219.968 323.233 214.871 323.233 198.239C323.233 178.432 341.887 171.383 359.962 171.383C383.437 171.383 396.085 179.685 400.3 197.598H443.642C438.214 156.703 407.519 131.129 360.568 131.129C304.001 131.129 278.707 165.645 278.707 200.161C278.707 234.678 297.966 255.766 334.089 262.786L375.612 270.447C390.656 273.651 405.701 279.389 405.701 299.836C405.701 318.362 390.05 329.867 364.784 329.867C336.486 329.867 319.045 318.362 315.435 296.632H272.094C277.522 342.013 310.613 369.51 363.571 369.51Z" fill="white"/>
</svg>
