<?xml version="1.0" encoding="UTF-8"?>
<!-- Generated by Pixelmator Pro 3.2.3 -->
<svg width="1080" height="1080" viewBox="0 0 1080 1080" xmlns="http://www.w3.org/2000/svg" xmlns:xlink="http://www.w3.org/1999/xlink">
    <linearGradient id="linearGradient1" x1="238.828125" y1="979.25" x2="790.234375" y2="62.125" gradientUnits="userSpaceOnUse">
        <stop offset="0" stop-color="#3760ac" stop-opacity="1"/>
        <stop offset="1" stop-color="#2cabe2" stop-opacity="1"/>
    </linearGradient>
    <path id="Ellipse" fill="url(#linearGradient1)" fill-rule="evenodd" stroke="none" d="M 1080 540 C 1080 241.766235 838.233765 0 540 0 C 241.766235 0 0 241.766235 0 540 C 0 838.233765 241.766235 1080 540 1080 C 838.233765 1080 1080 838.233765 1080 540 Z"/>
    <path id="Path" fill="#7ad0e4" fill-rule="evenodd" stroke="none" d="M 191 404 C 191 426.09137 315.90863 464 338 464 C 338 464 383.982452 529.734802 401 596 C 416.708527 657.167847 401.550659 719.240295 446 720 C 498.691376 720.900574 611.897766 730.903015 641 669 C 667.845337 611.897705 824.433044 627.667419 940 562 C 984.942688 536.462708 1021.357727 440.468018 1045 410 C 1088.497681 353.944092 968 216.957336 968 212 C 968 212 923.958374 421.978943 841 470 C 809.562866 488.197632 770.684875 470.186462 723 469 C 669.296936 467.663757 587.711853 581.981995 540 577 C 483.990479 571.151672 466 446 466 446 C 466 435.396118 440.830658 398.3302 401 371 C 357.850159 341.392334 299.02655 320.417053 278 281 C 249.291473 227.182007 249 99 249 99 C 226.908615 99 160 148.90863 160 171 L 191 404 Z"/>
    <path id="Ellipse-copy-3" fill="#7ad0e4" fill-rule="evenodd" stroke="none" d="M 568.037109 197.017578 C 567.00885 197.020508 565.996826 197.014099 565 197 C 511.181824 196.240295 521.816345 90.167847 502.796875 29 C 499.983429 19.951782 496.515167 10.913208 492.625 2.050781 C 508.236023 0.693848 524.036987 0 540 0 C 643.082397 0 739.416992 28.886475 821.355469 79.001953 C 808.377197 85.1474 798.743286 92.582703 793.382813 102 C 758.697144 162.93573 632.815735 196.832214 568.037109 197.017578 Z"/>
    <path id="Ellipse-copy" fill="#55b9e9" fill-rule="evenodd" stroke="none" d="M 574.087891 311.126953 C 554.262695 311.121521 535.996155 310.239197 522 310 C 477.55069 309.240295 492.708496 247.167847 477 186 C 459.982483 119.734863 414 54 414 54 C 404.266754 54 374.574554 46.638184 344.400391 36.515625 C 399.387421 15.138306 458.742523 2.511841 520.757813 0.339844 C 534.327942 16.230347 542 30.146851 542 36 C 542 36 559.99054 161.151672 616 167 C 660.554321 171.652283 734.647644 72.273499 787.990234 60.1875 C 847.526611 91.02124 900.59259 132.609741 944.617188 182.382813 C 844.043579 214.283142 738.584534 213.087952 717 259 C 695.628052 304.459961 628.898743 311.141907 574.087891 311.126953 Z"/>
    <path id="Ellipse-copy-2" fill="#55b9e9" fill-rule="evenodd" stroke="none" d="M 574.087891 311.126953 C 554.262695 311.121521 535.996155 310.239197 522 310 C 477.55069 309.240295 492.708496 247.167847 477 186 C 459.982483 119.734863 414 54 414 54 C 404.266754 54 374.574554 46.638184 344.400391 36.515625 C 399.387421 15.138306 458.742523 2.511841 520.757813 0.339844 C 534.327942 16.230347 542 30.146851 542 36 C 542 36 559.99054 161.151672 616 167 C 660.554321 171.652283 734.647644 72.273499 787.990234 60.1875 C 847.526611 91.02124 900.59259 132.609741 944.617188 182.382813 C 844.043579 214.283142 738.584534 213.087952 717 259 C 695.628052 304.459961 628.898743 311.141907 574.087891 311.126953 Z"/>
</svg>
