<?xml version="1.0" encoding="UTF-8"?>
<!-- Generated by Pixelmator Pro 3.3.2 -->
<svg width="500" height="500" viewBox="0 0 500 500" xmlns="http://www.w3.org/2000/svg" xmlns:xlink="http://www.w3.org/1999/xlink">
    <radialGradient id="radialGradient1" cx="263.049521" cy="237.316047" r="194" fx="263.049521" fy="237.316047" gradientUnits="userSpaceOnUse">
        <stop offset="0" stop-color="#e063cf" stop-opacity="1"/>
        <stop offset="0.4833" stop-color="#ffe9fe" stop-opacity="1"/>
        <stop offset="1" stop-color="#e75fd3" stop-opacity="1"/>
    </radialGradient>
    <path id="Ellipse" fill="url(#radialGradient1)" fill-rule="evenodd" stroke="none" d="M 249.533203 458.048828 C 200.663559 458.024588 153.091666 440.650912 115.705078 409.166016 L 120.476563 404.033203 C 156.562179 434.317766 202.423522 451.023507 249.53125 451.046875 C 277.935053 451.060965 306.792828 445.011047 334.234375 432.214844 C 434.592049 385.417296 478.012384 266.123284 431.214844 165.765625 C 424.790357 151.988275 416.997291 139.286499 408.076172 127.742188 L 362.244141 173.990234 L 355.830078 167.632813 L 402.357422 120.683594 C 402.196937 120.494406 402.038068 120.303734 401.876953 120.115234 L 406.675781 114.953125 C 407.885505 116.35737 409.076573 117.781282 410.251953 119.222656 L 413.414063 122.355469 L 413.046875 122.726563 C 422.515534 134.867569 430.774526 148.258163 437.558594 162.806641 C 485.989974 266.668063 441.054766 390.127217 337.193359 438.558594 C 308.793752 451.801548 278.928662 458.063409 249.533203 458.048828 Z M 91.714844 385.322266 L 84.636719 378.380859 L 85.416016 377.585938 C 76.171564 365.627229 68.09742 352.467228 61.441406 338.193359 C 13.010028 234.331937 57.945215 110.872787 161.806641 62.441406 C 166.053798 60.460924 170.3344 58.63738 174.640625 56.966797 L 177.605469 63.326172 C 173.296514 64.986295 169.013661 66.804264 164.765625 68.785156 C 64.407958 115.582727 20.987612 234.876731 67.785156 335.234375 C 74.076104 348.725357 81.678015 361.185189 90.367188 372.537109 L 136.921875 325.058594 L 144 332 L 91.714844 385.322266 Z M 377.107422 95.792969 C 328.973508 56.147078 263.884736 40.393852 201.658203 55.751953 L 198.646484 49.289063 C 263.58862 32.79852 331.691709 49.14624 381.882813 90.65625 L 377.107422 95.792969 Z"/>
    <radialGradient id="radialGradient2" cx="249.5" cy="250" r="181.547872" fx="249.5" fy="250" gradientUnits="userSpaceOnUse">
        <stop offset="0" stop-color="#76efed" stop-opacity="1"/>
        <stop offset="0.519068" stop-color="#ffffff" stop-opacity="1"/>
        <stop offset="1" stop-color="#8aeeed" stop-opacity="1"/>
    </radialGradient>
    <path id="path1" fill="url(#radialGradient2)" fill-rule="evenodd" stroke="none" d="M 249.5 436 C 195.497574 436 147.001801 411.843323 113.746094 373.501953 L 119.267578 367.560547 C 151.020569 404.610321 197.593338 428 249.5 428 C 345.183777 428 422.751953 348.530273 422.751953 250.5 C 422.751953 214.365875 412.211761 180.754974 394.111328 152.714844 L 400.167969 146.199219 C 419.665344 175.846985 431.046875 211.561737 431.046875 250 C 431.046875 352.72464 349.765839 436 249.5 436 Z M 97.798828 352.216797 C 78.931175 322.884705 67.951172 287.755981 67.951172 250 C 67.951172 147.275299 149.234207 64 249.5 64 C 303.595215 64 352.164032 88.239319 385.423828 126.695313 L 379.457031 133.115234 C 347.710541 96.252411 301.255798 73 249.5 73 C 153.816208 73 76.248047 152.469727 76.248047 250.5 C 76.248047 285.695801 86.248154 318.497925 103.494141 346.089844 L 97.798828 352.216797 Z"/>
    <linearGradient id="linearGradient1" x1="120.857739" y1="328.719501" x2="501.353619" y2="78.126008" gradientUnits="userSpaceOnUse">
        <stop offset="0" stop-color="#3565ac" stop-opacity="1"/>
        <stop offset="0.185777" stop-color="#9b489d" stop-opacity="1"/>
        <stop offset="0.301718" stop-color="#e08342" stop-opacity="1"/>
        <stop offset="0.458556" stop-color="#8c3752" stop-opacity="1"/>
        <stop offset="0.664694" stop-color="#498aa0" stop-opacity="1"/>
        <stop offset="0.869859" stop-color="#1d1931" stop-opacity="1"/>
        <stop offset="1" stop-color="#c888f0" stop-opacity="1"/>
    </linearGradient>
    <path id="Rounded-Rectangle" fill="url(#linearGradient1)" fill-rule="evenodd" stroke="none" d="M 156.958984 379.041016 C 152.352387 379.041016 147.745182 377.284245 144.230469 373.769531 C 137.201026 366.740096 137.201026 355.34388 144.230469 348.314453 L 177.773438 314.773438 L 141.285156 278.285156 C 125.664224 262.664231 125.664231 237.335769 141.285156 221.714844 L 221.714844 141.285156 C 237.335769 125.664231 262.664231 125.664231 278.285156 141.285156 L 295.773438 158.773438 L 333.607422 120.9375 C 340.636857 113.908065 352.033095 113.908065 359.0625 120.9375 C 366.091935 127.966905 366.091935 139.363143 359.0625 146.392578 L 321.226563 184.226563 L 358.714844 221.714844 C 374.335769 237.335769 374.335769 262.664231 358.714844 278.285156 L 278.285156 358.714844 C 270.474694 366.525306 260.236862 370.431641 250 370.431641 C 239.763138 370.431641 229.525306 366.525306 221.714844 358.714844 L 203.226563 340.226563 L 169.685547 373.769531 C 166.170833 377.284245 161.565581 379.041016 156.958984 379.041016 Z M 250 324.816406 C 256.909884 324.816406 263.819733 322.180267 269.091797 316.908203 L 320.908203 265.091797 C 331.45233 254.54767 331.45233 237.45233 320.908203 226.908203 L 269.091797 175.091797 C 258.54767 164.54767 241.45233 164.54767 230.908203 175.091797 L 179.091797 226.908203 C 168.54767 237.45233 168.54767 254.54767 179.091797 265.091797 L 230.908203 316.908203 C 236.180267 322.180267 243.090116 324.816406 250 324.816406 Z"/>
</svg>
