<svg width="480" height="480" viewBox="0 0 480 480" fill="none" xmlns="http://www.w3.org/2000/svg">
<g clip-path="url(#clip0_548_70)">
<path d="M480 0H0V480H480V0Z" fill="#6E54FF"/>
<path d="M239.998 0C170.693 0 0 170.688 0 240C0 309.309 170.693 480 239.998 480C309.304 480 480 309.306 480 240C480 170.691 309.307 0 239.998 0ZM202.598 377.238C173.373 369.274 94.7969 231.824 102.762 202.598C110.728 173.371 248.176 94.7968 277.4 102.762C306.628 110.726 385.203 248.173 377.239 277.402C369.272 306.627 231.826 385.203 202.598 377.238Z" fill="white"/>
</g>
<defs>
<clipPath id="clip0_548_70">
<rect width="480" height="480" fill="white"/>
</clipPath>
</defs>
</svg>
