<svg width="473" height="473" viewBox="0 0 473 473" fill="none" xmlns="http://www.w3.org/2000/svg">
<g clip-path="url(#clip0_547_75)">
<path d="M139.062 269.231C152.685 269.231 165.929 264.69 176.713 256.365L90.4379 170.09C69.6259 196.956 74.5451 235.553 101.411 256.365C112.196 264.501 125.44 269.041 139.062 269.041V269.231Z" fill="white"/>
<path d="M395.43 207.741C395.43 194.118 390.889 180.874 382.564 170.09L296.289 256.365C323.155 277.177 361.752 272.258 382.564 245.391C390.889 234.607 395.43 221.363 395.43 207.741Z" fill="white"/>
<path d="M438.944 113.898L400.726 152.117C431.376 189.011 426.646 243.69 389.752 274.529C357.399 301.585 310.666 301.585 278.313 274.529L236.5 316.342L194.687 274.529C157.793 305.18 103.114 300.45 72.2744 263.556C45.2188 231.202 45.2188 184.47 72.2744 152.117L52.7868 132.629L34.2452 113.898C11.7304 150.792 0 193.173 0 236.5C0 367.048 105.952 473 236.5 473C367.048 473 473 367.048 473 236.5C473.189 193.362 461.08 150.792 438.944 113.898Z" fill="white"/>
<path d="M407.536 73.221C317.476 -21.1898 167.819 -24.7846 73.4085 65.2746C70.5705 67.9234 67.9217 70.5722 65.4621 73.221C59.5969 79.4646 54.1101 85.8974 48.8125 92.5194L236.499 280.206L424.185 92.5194C419.077 85.7082 413.401 79.2754 407.536 73.221ZM236.499 30.8402C291.745 30.8402 343.208 52.2198 381.994 91.0058L236.499 236.501L91.0041 91.0058C129.601 52.0306 181.252 30.8402 236.499 30.8402Z" fill="white"/>
</g>
<defs>
<clipPath id="clip0_547_75">
<rect width="473" height="473" fill="white"/>
</clipPath>
</defs>
</svg>
