<?xml version="1.0" encoding="utf-8"?>
<!-- Generator: Adobe Illustrator 25.4.1, SVG Export Plug-In . SVG Version: 6.00 Build 0)  -->
<svg version="1.1" id="Layer_1" xmlns="http://www.w3.org/2000/svg" xmlns:xlink="http://www.w3.org/1999/xlink" x="0px" y="0px"
	 viewBox="0 0 827.7 828" style="enable-background:new 0 0 827.7 828;" xml:space="preserve">
<style type="text/css">
	.st0{fill:none;stroke:#FF1A54;stroke-width:29;stroke-miterlimit:10;}
	.st1{fill:#FF1A54;}
	.st2{fill:#C42250;}
	.st3{fill:#E62A57;}
</style>
<g id="Layer_2_00000106109303259657695130000008878634796925444019_">
	<circle class="st0" cx="413.6" cy="413.4" r="398.7"/>
</g>
<g id="Layer_4">
	<path class="st1" d="M630.4,274.9c-10-4-20.4-7.1-30.5-11.1c-6-2.4-12.3-4.6-18.8-5c-5.8-0.4-11.1,1.6-16.5,3.2
		c-2.4,0.7-5.2,1.2-8.2,1.9c-3.6,2.3-7.2,4.6-10.9,6.7c-24.5,26.6-35.7,64-50.7,96.6c-0.5,1.1-1.2,1.9-2.1,2.4c-1,0.5-2.3,5.8-2.7,7
		l-3.3,8.4l-6.2,16c-4.2,10.9-8.3,22-12.8,32.8c-10.1,24.2-16.7,50.8-30.1,73.5c-2.9,4.9-6.3,9.7-11,13c-4.7,3.2-10.9,4.7-16.2,2.7
		c-4.3-1.7-7.4-5.4-10.2-9.1c-27.5-36.4-40.8-82.6-56.1-125c-0.9-2.5-1.8-5.1-2.8-7.6c-5.2-14.3-10.5-28.5-15.7-42.8
		c-2.8,0.8-6.2-0.3-7.3-3.8c-2.8-9.3-4.7-18.9-8.3-27.9c-3.8-9.6-10.2-18.2-14.9-27.4c-2.6-5-4.5-10.7-9.4-13.8
		c-7.7-4.8-16.7-8.8-24.9-12.4c-9.9-4.4-19.5-5.3-30.1-2.9c-6.9,1.6-13.9,4.1-20.1,7.6c1,1.2,1.3,2.9,0.6,4.8
		c-4.7,11.9-14.1,21-22.5,30.5c-4.2,4.7-10.8,10.7-14.6,17.2l41.1,22.7c0,0,10.7-32.3,29-33.1c0,0,12.2,4.2,16.8,19.1l29.7,74.6
		l45,119.9c0,0,21.4,66,86.9,62.5c0,0,59.9-1.9,82-83.9L561,336.7l11.4-24.8c0,0,13.7-26.7,33.2-2.3l2,4.7l39.1-20.8
		C641.6,286.7,636.3,280.4,630.4,274.9L630.4,274.9z"/>
	<polygon class="st2" points="317.4,464.1 348.5,401.4 365.4,448 330.3,499.1 	"/>
	<polygon class="st2" points="513.8,470.5 479.5,403.2 460.4,453 499.2,507.9 	"/>
	<path class="st3" d="M316.4,337.8l4.3,5l0.6,0.5l0.7,0.3c0.6,0.2,1.3,0.1,1.9-0.2c1.1-0.5,1.7-1.5,1.8-2.7c0-0.8-0.1-1.5-0.2-2.3
		c-0.1-0.5-0.2-1-0.4-1.5c-0.2-0.7-0.5-1.4-0.9-2c-0.3-0.6-0.8-1.3-1.3-1.9c-0.4-0.5-1.4-0.8-2.1-0.8c-0.7,0-1.6,0.3-2.1,0.8
		c-0.5,0.5-0.9,1.3-0.8,2.1l0.1,0.8c0.1,0.5,0.4,0.9,0.7,1.3c0,0,0.1,0.1,0.1,0.2l-0.5-0.6c0.4,0.6,0.8,1.2,1.1,1.9l-0.3-0.7
		c0.3,0.7,0.5,1.5,0.6,2.2l-0.1-0.8c0.1,0.5,0.1,0.9,0.1,1.4l5-2.1l-4.3-5c-0.5-0.5-1.4-0.8-2.1-0.8s-1.6,0.3-2.1,0.8
		c-0.5,0.5-0.9,1.3-0.8,2.1l0.1,0.8C315.8,337,316,337.4,316.4,337.8L316.4,337.8L316.4,337.8z"/>
	<path class="st3" d="M290.9,396.1c0.7,1.3,1.3,2.7,1.9,4.1c0.2,0.3,0.4,0.6,0.7,0.8c0.3,0.3,0.6,0.4,1,0.5c0.4,0.1,0.8,0.1,1.2,0
		c0.4,0,0.7-0.1,1.1-0.3c0.6-0.4,1.2-1,1.3-1.7l0.1-0.8c0-0.5-0.1-1-0.4-1.5c-0.6-1.4-1.2-2.7-1.9-4.1c-0.2-0.3-0.4-0.6-0.7-0.8
		c-0.3-0.3-0.6-0.4-1-0.5c-0.4-0.1-0.8-0.1-1.2,0c-0.4,0-0.7,0.1-1.1,0.3c-0.6,0.4-1.2,1-1.3,1.7l-0.1,0.8
		C290.5,395.1,290.6,395.6,290.9,396.1L290.9,396.1z"/>
	<path class="st3" d="M505.1,334.9c-1,1.4-2,2.9-3,4.3l4-1l-0.1-0.1l0.6,0.5l-0.1-0.1l0.5,0.6c0,0-0.1-0.1-0.1-0.1l0.3,0.7
		c0,0,0-0.1,0-0.2l0.1,0.8c0-0.1,0-0.2,0-0.4l-0.1,0.8c0-0.2,0.1-0.3,0.1-0.5l-0.3,0.7c0.6-1.5,1.5-3,2.3-4.4
		c0.6-1.1,0.5-2.7-0.5-3.5c-0.4-0.3-0.8-0.6-1.3-0.7c-0.6-0.2-1.7-0.1-2.2,0.3c-0.8,0.6-1.6,1.3-2,2.3c-0.4,0.8-0.7,1.6-1,2.5
		l-1.6,4.5c-0.2,0.7-0.1,1.6,0.3,2.2c0.3,0.6,1,1.2,1.7,1.3c0.7,0.2,1.6,0.1,2.2-0.3c0.7-0.4,1.1-1,1.3-1.7c0.7-1.9,1.4-3.9,2.1-5.8
		l-0.3,0.7c0.2-0.4,0.4-0.8,0.6-1.1l-0.5,0.6c0.1-0.2,0.3-0.3,0.5-0.5l-0.6,0.5l0.1-0.1l-4-4c-0.7,1.2-1.3,2.4-1.9,3.6
		c-0.1,0.3-0.3,0.5-0.4,0.8c-0.3,0.7-0.5,1.1-0.5,1.9c0,0.4,0,0.9,0.2,1.3c0.3,0.9,0.8,1.5,1.6,2c0.5,0.4,1.6,0.5,2.2,0.3
		c0.7-0.2,1.3-0.7,1.7-1.3c0.9-1.5,1.9-2.9,3-4.3c0.4-0.6,0.5-1.6,0.3-2.2c-0.2-0.7-0.7-1.4-1.3-1.7c-0.7-0.4-1.5-0.5-2.2-0.3
		l-0.7,0.3C505.7,334.1,505.4,334.5,505.1,334.9L505.1,334.9L505.1,334.9z"/>
	<path class="st1" d="M415.6,301.1l0.3-55.5c0,0-37-6.4-70.2,44.7l-10.4,20.8l-25.2,50.3l-30.7,61.4l-27.2,54.3
		c-1.8,3.7-3.6,7.4-5.6,11c-3.7,6.9-6.1,14.7-11.1,20.9C222,525.7,196.8,526,178,520.9c0,0-44.8-16.8-23.1-65.4l12.3-24.6l25.5-50.7
		l21.3-42.4c5.1-10.2,9.8-22.8,18.7-30.4c3.9-3.3,9.4-5.3,14.3-3.8c3.6,1.1,6.5,3.8,8.7,6.8c5.6,7.4,7.7,17.2,11.1,25.8l10.6,26.5
		l13.5,33.9l32-63.2l-17.7-45.4c-6.8-17.3-22.3-30.6-39.8-36.4c-15.5-5.1-32.6-4.5-47.9,1.1c-7.5,2.7-14.7,6.8-20.7,12.1
		c-6.5,5.8-10.2,12.7-14.1,20.3l-19.2,37.4L137.6,373l-23.1,45c-6.1,12.7-13,24.1-16.1,38c-3.1,13.6-3.5,27.8-1.2,41.6
		c4.6,27,19.9,52.9,42.8,68.3c16.4,11.1,36,16,55.8,15.4c0,0,61.8,4.3,90.1-50.5l31.1-65l75-148.6
		C391.9,317.2,398.5,300.1,415.6,301.1L415.6,301.1z"/>
	<path class="st1" d="M411.7,301.1l-0.3-55.5c0,0,37-6.4,70.2,44.7l10.4,20.8l25.2,50.3l30.7,61.4l27.2,54.3c1.8,3.7,3.6,7.4,5.6,11
		c3.7,6.9,6.1,14.7,11.1,20.9c13.5,16.7,38.6,16.9,57.5,11.9c0,0,44.8-16.8,23.1-65.4l-12.3-24.6l-25.5-50.7l-21.3-42.4
		c-5.1-10.2-9.8-22.8-18.7-30.4c-3.9-3.3-9.4-5.3-14.3-3.8c-3.6,1.1-6.5,3.8-8.7,6.8c-5.6,7.4-7.7,17.2-11.1,25.8l-10.6,26.5
		l-13.5,33.9l-32-63.2l17.7-45.4c6.8-17.3,22.3-30.6,39.8-36.4c15.5-5.1,32.6-4.5,47.9,1.1c7.5,2.7,14.7,6.8,20.7,12.1
		c6.5,5.8,10.2,12.7,14.1,20.3l19.2,37.4l25.9,50.4l23.1,45c6.1,12.7,13,24.1,16.1,38c3.1,13.6,3.5,27.8,1.2,41.6
		c-4.6,27-19.9,52.9-42.8,68.3c-16.4,11.1-36,16-55.8,15.4c0,0-61.8,4.3-90.1-50.5l-31.1-65l-75-148.6
		C435.4,317.2,428.8,300.1,411.7,301.1L411.7,301.1z"/>
</g>
</svg>
